999
DXF data, created by potrace 1.16, written by Peter Selinger 2001-2019
  0
SECTION
  2
HEADER
  9
$ACADVER
  1
AC1006
  9
$EXTMIN
 10
0.000000
 20
0.000000
 30
0.000000
  9
$EXTMAX
 10
22.267333
 20
22.860000
 30
0.000000
  0
ENDSEC
  0
SECTION
  2
ENTITIES
  0
POLYLINE
  8
0
 66
1
 70
1
  0
VERTEX
  8
0
 10
12.192000
 20
21.936949
 42
-0.044886
  0
VERTEX
  8
0
 10
12.122382
 20
21.905737
 42
-0.012709
  0
VERTEX
  8
0
 10
12.009041
 20
21.869887
 42
-0.012697
  0
VERTEX
  8
0
 10
11.878369
 20
21.835751
 42
-0.013106
  0
VERTEX
  8
0
 10
11.747500
 20
21.808687
 42
0.023187
  0
VERTEX
  8
0
 10
11.625860
 20
21.780964
 42
0.034810
  0
VERTEX
  8
0
 10
11.523266
 20
21.744668
 42
0.037779
  0
VERTEX
  8
0
 10
11.449251
 20
21.705649
 42
0.258039
  0
VERTEX
  8
0
 10
11.430000
 20
21.670830
 42
-0.166237
  0
VERTEX
  8
0
 10
11.419457
 20
21.639995
 42
-0.095328
  0
VERTEX
  8
0
 10
11.389634
 20
21.613744
 42
-0.076248
  0
VERTEX
  8
0
 10
11.345146
 20
21.596000
 42
-0.056889
  0
VERTEX
  8
0
 10
11.292585
 20
21.590000
 42
0.149617
  0
VERTEX
  8
0
 10
11.063989
 20
21.520030
 42
0.013736
  0
VERTEX
  8
0
 10
10.575819
 20
21.170391
 42
0.018651
  0
VERTEX
  8
0
 10
10.066501
 20
20.753190
 42
0.026013
  0
VERTEX
  8
0
 10
9.646037
 20
20.340875
 42
0.018707
  0
VERTEX
  8
0
 10
9.451680
 20
20.112805
 42
0.012793
  0
VERTEX
  8
0
 10
9.247655
 20
19.840352
 42
0.012910
  0
VERTEX
  8
0
 10
9.064278
 20
19.567276
 42
0.025326
  0
VERTEX
  8
0
 10
8.935385
 20
19.339471
 42
-0.000713
  0
VERTEX
  8
0
 10
8.837716
 20
19.145121
 42
-0.001077
  0
VERTEX
  8
0
 10
8.752077
 20
18.976217
 42
-0.000403
  0
VERTEX
  8
0
 10
8.677945
 20
18.831078
 42
-0.026127
  0
VERTEX
  8
0
 10
8.663752
 20
18.806589
 42
-0.386630
  0
VERTEX
  8
0
 10
8.643749
 20
18.801365
 42
-0.004833
  0
VERTEX
  8
0
 10
8.517533
 20
18.869027
 42
-0.011070
  0
VERTEX
  8
0
 10
8.368311
 20
18.955239
 42
-0.006664
  0
VERTEX
  8
0
 10
8.195033
 20
19.063721
 42
0.008728
  0
VERTEX
  8
0
 10
7.791213
 20
19.314221
 42
0.027027
  0
VERTEX
  8
0
 10
7.507307
 20
19.463376
 42
0.032612
  0
VERTEX
  8
0
 10
7.239141
 20
19.565692
 42
0.018004
  0
VERTEX
  8
0
 10
6.900333
 20
19.657016
 42
0.052469
  0
VERTEX
  8
0
 10
6.086860
 20
19.757119
 42
0.032846
  0
VERTEX
  8
0
 10
5.127779
 20
19.710980
 42
0.031094
  0
VERTEX
  8
0
 10
4.257557
 20
19.556303
 42
0.138501
  0
VERTEX
  8
0
 10
3.810000
 20
19.304000
 42
-0.057307
  0
VERTEX
  8
0
 10
3.781268
 20
19.281045
 42
-0.006609
  0
VERTEX
  8
0
 10
3.710574
 20
19.238053
 42
-0.007891
  0
VERTEX
  8
0
 10
3.624707
 20
19.189187
 42
-0.006361
  0
VERTEX
  8
0
 10
3.530976
 20
19.139327
 42
0.059813
  0
VERTEX
  8
0
 10
3.215561
 20
18.925553
 42
0.018978
  0
VERTEX
  8
0
 10
2.800334
 20
18.536338
 42
0.019341
  0
VERTEX
  8
0
 10
2.386989
 20
18.084644
 42
0.028005
  0
VERTEX
  8
0
 10
2.061282
 20
17.653000
 42
0.021761
  0
VERTEX
  8
0
 10
1.913300
 20
17.409953
 42
0.011333
  0
VERTEX
  8
0
 10
1.749175
 20
17.095258
 42
0.011248
  0
VERTEX
  8
0
 10
1.595037
 20
16.764047
 42
0.016839
  0
VERTEX
  8
0
 10
1.476866
 20
16.467667
 42
0.016010
  0
VERTEX
  8
0
 10
1.340023
 20
16.045858
 42
0.037139
  0
VERTEX
  8
0
 10
1.271548
 20
15.720519
 42
0.028003
  0
VERTEX
  8
0
 10
1.241931
 20
15.337695
 42
0.005915
  0
VERTEX
  8
0
 10
1.235638
 20
14.667377
 42
0.005797
  0
VERTEX
  8
0
 10
1.242693
 20
14.164729
 42
0.014636
  0
VERTEX
  8
0
 10
1.262762
 20
13.799512
 42
0.014376
  0
VERTEX
  8
0
 10
1.292587
 20
13.536508
 42
0.162336
  0
VERTEX
  8
0
 10
1.338856
 20
13.443944
 42
-0.074654
  0
VERTEX
  8
0
 10
1.377388
 20
13.391797
 42
-0.038527
  0
VERTEX
  8
0
 10
1.409818
 20
13.317247
 42
-0.037223
  0
VERTEX
  8
0
 10
1.431932
 20
13.233748
 42
-0.046153
  0
VERTEX
  8
0
 10
1.439333
 20
13.153730
 42
0.036385
  0
VERTEX
  8
0
 10
1.444873
 20
13.077700
 42
0.040604
  0
VERTEX
  8
0
 10
1.461385
 20
13.006100
 42
0.044552
  0
VERTEX
  8
0
 10
1.485524
 20
12.948500
 42
0.133619
  0
VERTEX
  8
0
 10
1.514402
 20
12.917599
 42
-0.140047
  0
VERTEX
  8
0
 10
1.546874
 20
12.881960
 42
-0.024227
  0
VERTEX
  8
0
 10
1.583801
 20
12.797510
 42
-0.024702
  0
VERTEX
  8
0
 10
1.618384
 20
12.691151
 42
-0.019886
  0
VERTEX
  8
0
 10
1.645238
 20
12.573935
 42
0.024701
  0
VERTEX
  8
0
 10
1.672484
 20
12.460057
 42
0.036642
  0
VERTEX
  8
0
 10
1.708368
 20
12.363989
 42
0.040695
  0
VERTEX
  8
0
 10
1.747058
 20
12.295159
 42
0.249324
  0
VERTEX
  8
0
 10
1.781837
 20
12.276667
 42
-0.106160
  0
VERTEX
  8
0
 10
1.812677
 20
12.270044
 42
-0.099352
  0
VERTEX
  8
0
 10
1.838923
 20
12.251263
 42
-0.096118
  0
VERTEX
  8
0
 10
1.856517
 20
12.223199
 42
-0.092345
  0
VERTEX
  8
0
 10
1.862667
 20
12.190185
 42
0.131215
  0
VERTEX
  8
0
 10
1.886995
 20
12.099077
 42
0.004604
  0
VERTEX
  8
0
 10
2.073532
 20
11.781502
 42
0.007713
  0
VERTEX
  8
0
 10
2.261013
 20
11.479602
 42
0.053785
  0
VERTEX
  8
0
 10
2.369874
 20
11.344600
 42
-0.011928
  0
VERTEX
  8
0
 10
2.396414
 20
11.316801
 42
-0.001190
  0
VERTEX
  8
0
 10
2.458155
 20
11.248635
 42
-0.001497
  0
VERTEX
  8
0
 10
2.531312
 20
11.166988
 42
-0.001189
  0
VERTEX
  8
0
 10
2.609846
 20
11.078388
 42
0.000000
  0
VERTEX
  8
0
 10
2.806692
 20
10.855243
 42
0.000000
  0
VERTEX
  8
0
 10
2.271179
 20
10.309720
 42
0.034909
  0
VERTEX
  8
0
 10
1.874204
 20
9.844440
 42
0.028521
  0
VERTEX
  8
0
 10
1.515806
 20
9.296847
 42
0.027791
  0
VERTEX
  8
0
 10
1.212726
 20
8.695635
 42
0.028541
  0
VERTEX
  8
0
 10
0.981209
 20
8.069758
 42
0.055005
  0
VERTEX
  8
0
 10
0.877935
 20
7.524934
 42
0.018982
  0
VERTEX
  8
0
 10
0.846263
 20
6.723006
 42
0.018643
  0
VERTEX
  8
0
 10
0.874719
 20
5.927705
 42
0.062884
  0
VERTEX
  8
0
 10
0.977191
 20
5.418667
 42
0.038976
  0
VERTEX
  8
0
 10
1.297232
 20
4.666244
 42
0.039531
  0
VERTEX
  8
0
 10
1.728888
 20
3.976364
 42
0.042518
  0
VERTEX
  8
0
 10
2.218276
 20
3.421866
 42
0.079153
  0
VERTEX
  8
0
 10
2.710213
 20
3.081888
 42
-0.014259
  0
VERTEX
  8
0
 10
2.838959
 20
3.015633
 42
-0.020977
  0
VERTEX
  8
0
 10
2.947688
 20
2.949608
 42
-0.017129
  0
VERTEX
  8
0
 10
3.030660
 20
2.890130
 42
-0.228693
  0
VERTEX
  8
0
 10
3.047029
 20
2.857500
 42
0.217870
  0
VERTEX
  8
0
 10
3.058601
 20
2.833193
 42
0.076370
  0
VERTEX
  8
0
 10
3.092482
 20
2.812653
 42
0.058484
  0
VERTEX
  8
0
 10
3.141976
 20
2.798651
 42
0.039739
  0
VERTEX
  8
0
 10
3.200400
 20
2.794000
 42
-0.040256
  0
VERTEX
  8
0
 10
3.264651
 20
2.788819
 42
-0.033177
  0
VERTEX
  8
0
 10
3.331660
 20
2.773322
 42
-0.034374
  0
VERTEX
  8
0
 10
3.391542
 20
2.750623
 42
-0.072097
  0
VERTEX
  8
0
 10
3.433233
 20
2.723606
 42
0.114538
  0
VERTEX
  8
0
 10
3.654777
 20
2.605195
 42
0.026247
  0
VERTEX
  8
0
 10
4.072671
 20
2.516000
 42
0.024097
  0
VERTEX
  8
0
 10
4.605090
 20
2.457403
 42
0.015860
  0
VERTEX
  8
0
 10
5.221256
 20
2.439086
 42
0.017526
  0
VERTEX
  8
0
 10
5.887373
 20
2.463776
 42
0.033167
  0
VERTEX
  8
0
 10
6.419237
 20
2.537863
 42
0.037109
  0
VERTEX
  8
0
 10
6.895294
 20
2.674189
 42
0.029384
  0
VERTEX
  8
0
 10
7.386018
 20
2.888545
 42
-0.026607
  0
VERTEX
  8
0
 10
7.450593
 20
2.917180
 42
-0.021050
  0
VERTEX
  8
0
 10
7.523064
 20
2.941364
 42
-0.021510
  0
VERTEX
  8
0
 10
7.592386
 20
2.958107
 42
-0.048530
  0
VERTEX
  8
0
 10
7.646109
 20
2.963333
 42
0.144254
  0
VERTEX
  8
0
 10
7.792254
 20
3.006394
 42
0.003714
  0
VERTEX
  8
0
 10
8.370376
 20
3.385569
 42
0.004779
  0
VERTEX
  8
0
 10
8.930759
 20
3.766878
 42
0.101147
  0
VERTEX
  8
0
 10
9.069162
 20
3.911871
 42
-0.464964
  0
VERTEX
  8
0
 10
9.102354
 20
3.916541
 42
-0.047735
  0
VERTEX
  8
0
 10
9.163577
 20
3.850127
 42
-0.033639
  0
VERTEX
  8
0
 10
9.238395
 20
3.736449
 42
-0.017225
  0
VERTEX
  8
0
 10
9.317324
 20
3.584985
 42
0.005232
  0
VERTEX
  8
0
 10
9.395947
 20
3.424851
 42
0.007237
  0
VERTEX
  8
0
 10
9.470040
 20
3.282998
 42
0.004777
  0
VERTEX
  8
0
 10
9.534821
 20
3.165917
 42
0.085160
  0
VERTEX
  8
0
 10
9.561977
 20
3.132667
 42
-0.043893
  0
VERTEX
  8
0
 10
9.591747
 20
3.101782
 42
-0.002782
  0
VERTEX
  8
0
 10
9.670379
 20
3.003285
 42
-0.004071
  0
VERTEX
  8
0
 10
9.762593
 20
2.884473
 42
-0.003015
  0
VERTEX
  8
0
 10
9.862686
 20
2.751667
 42
0.015763
  0
VERTEX
  8
0
 10
10.086359
 20
2.470117
 42
0.019753
  0
VERTEX
  8
0
 10
10.311785
 20
2.224403
 42
0.018572
  0
VERTEX
  8
0
 10
10.567109
 20
1.985688
 42
0.011600
  0
VERTEX
  8
0
 10
10.882537
 20
1.724583
 42
0.031960
  0
VERTEX
  8
0
 10
11.217691
 20
1.493142
 42
0.018338
  0
VERTEX
  8
0
 10
11.647998
 20
1.255946
 42
0.015388
  0
VERTEX
  8
0
 10
12.064004
 20
1.061956
 42
0.101740
  0
VERTEX
  8
0
 10
12.287516
 20
1.016000
 42
-0.051589
  0
VERTEX
  8
0
 10
12.348197
 20
1.009722
 42
-0.048243
  0
VERTEX
  8
0
 10
12.407758
 20
0.991129
 42
-0.051737
  0
VERTEX
  8
0
 10
12.457535
 20
0.963782
 42
-0.103230
  0
VERTEX
  8
0
 10
12.488333
 20
0.931333
 42
0.257113
  0
VERTEX
  8
0
 10
12.634949
 20
0.848571
 42
0.005847
  0
VERTEX
  8
0
 10
13.465924
 20
0.849501
 42
0.011594
  0
VERTEX
  8
0
 10
14.260856
 20
0.878132
 42
0.069102
  0
VERTEX
  8
0
 10
14.666919
 20
0.959249
 42
0.009792
  0
VERTEX
  8
0
 10
14.792134
 20
1.005630
 42
0.012013
  0
VERTEX
  8
0
 10
14.907082
 20
1.054005
 42
0.010522
  0
VERTEX
  8
0
 10
15.001249
 20
1.098731
 42
0.080407
  0
VERTEX
  8
0
 10
15.040864
 20
1.127308
 42
-0.095539
  0
VERTEX
  8
0
 10
15.073854
 20
1.149632
 42
-0.034696
  0
VERTEX
  8
0
 10
15.127440
 20
1.168288
 42
-0.032875
  0
VERTEX
  8
0
 10
15.190430
 20
1.181053
 42
-0.033567
  0
VERTEX
  8
0
 10
15.254111
 20
1.185333
 42
0.052580
  0
VERTEX
  8
0
 10
15.313499
 20
1.191596
 42
0.072432
  0
VERTEX
  8
0
 10
15.363737
 20
1.210204
 42
0.092341
  0
VERTEX
  8
0
 10
15.397481
 20
1.237688
 42
0.177615
  0
VERTEX
  8
0
 10
15.409333
 20
1.270000
 42
-0.139989
  0
VERTEX
  8
0
 10
15.418554
 20
1.302287
 42
-0.099952
  0
VERTEX
  8
0
 10
15.444470
 20
1.329796
 42
-0.085250
  0
VERTEX
  8
0
 10
15.483229
 20
1.348322
 42
-0.069057
  0
VERTEX
  8
0
 10
15.528946
 20
1.354667
 42
0.188905
  0
VERTEX
  8
0
 10
15.699186
 20
1.421365
 42
0.009151
  0
VERTEX
  8
0
 10
16.145873
 20
1.850296
 42
0.014493
  0
VERTEX
  8
0
 10
16.564466
 20
2.292135
 42
0.065693
  0
VERTEX
  8
0
 10
16.763865
 20
2.584721
 42
-0.007096
  0
VERTEX
  8
0
 10
16.815790
 20
2.684167
 42
-0.008878
  0
VERTEX
  8
0
 10
16.866894
 20
2.774858
 42
-0.007397
  0
VERTEX
  8
0
 10
16.912067
 20
2.849254
 42
-0.065931
  0
VERTEX
  8
0
 10
16.936450
 20
2.878667
 42
0.133869
  0
VERTEX
  8
0
 10
17.003529
 20
2.986213
 42
0.005085
  0
VERTEX
  8
0
 10
17.135953
 20
3.444392
 42
0.009964
  0
VERTEX
  8
0
 10
17.261698
 20
3.934274
 42
0.013941
  0
VERTEX
  8
0
 10
17.353018
 20
4.376918
 42
0.017352
  0
VERTEX
  8
0
 10
17.388988
 20
4.630562
 42
0.023429
  0
VERTEX
  8
0
 10
17.402723
 20
4.861828
 42
0.025812
  0
VERTEX
  8
0
 10
17.394455
 20
5.072965
 42
0.032639
  0
VERTEX
  8
0
 10
17.364106
 20
5.265918
 42
-0.006068
  0
VERTEX
  8
0
 10
17.329841
 20
5.427371
 42
-0.004142
  0
VERTEX
  8
0
 10
17.294651
 20
5.611628
 42
-0.004174
  0
VERTEX
  8
0
 10
17.263671
 20
5.789887
 42
-0.008401
  0
VERTEX
  8
0
 10
17.242776
 20
5.931070
 42
-0.018836
  0
VERTEX
  8
0
 10
17.225191
 20
6.120721
 42
-0.191303
  0
VERTEX
  8
0
 10
17.249847
 20
6.194322
 42
-0.186353
  0
VERTEX
  8
0
 10
17.318626
 20
6.231988
 42
-0.017728
  0
VERTEX
  8
0
 10
17.512877
 20
6.250909
 42
0.040156
  0
VERTEX
  8
0
 10
17.876874
 20
6.302917
 42
0.022611
  0
VERTEX
  8
0
 10
18.307566
 20
6.420911
 42
0.019920
  0
VERTEX
  8
0
 10
18.699308
 20
6.564998
 42
0.111620
  0
VERTEX
  8
0
 10
18.880667
 20
6.693001
 42
-0.056392
  0
VERTEX
  8
0
 10
18.911014
 20
6.719847
 42
-0.004712
  0
VERTEX
  8
0
 10
18.997612
 20
6.779370
 42
-0.006231
  0
VERTEX
  8
0
 10
19.102751
 20
6.848297
 42
-0.004771
  0
VERTEX
  8
0
 10
19.219333
 20
6.921110
 42
0.048326
  0
VERTEX
  8
0
 10
19.585858
 20
7.197047
 42
0.022933
  0
VERTEX
  8
0
 10
20.003231
 20
7.616393
 42
0.022356
  0
VERTEX
  8
0
 10
20.406171
 20
8.102150
 42
0.027927
  0
VERTEX
  8
0
 10
20.733053
 20
8.588321
 42
0.007781
  0
VERTEX
  8
0
 10
20.866712
 20
8.821473
 42
0.010582
  0
VERTEX
  8
0
 10
20.979497
 20
9.036113
 42
0.007719
  0
VERTEX
  8
0
 10
21.066590
 20
9.217704
 42
0.108364
  0
VERTEX
  8
0
 10
21.082000
 20
9.287970
 42
-0.048423
  0
VERTEX
  8
0
 10
21.087187
 20
9.341401
 42
-0.021349
  0
VERTEX
  8
0
 10
21.103818
 20
9.410488
 42
-0.020892
  0
VERTEX
  8
0
 10
21.127836
 20
9.482795
 42
-0.026337
  0
VERTEX
  8
0
 10
21.156273
 20
9.547316
 42
0.043131
  0
VERTEX
  8
0
 10
21.280166
 20
9.856075
 42
0.034158
  0
VERTEX
  8
0
 10
21.361170
 20
10.206619
 42
0.027042
  0
VERTEX
  8
0
 10
21.406460
 20
10.637469
 42
0.012666
  0
VERTEX
  8
0
 10
21.420667
 20
11.198181
 42
0.008426
  0
VERTEX
  8
0
 10
21.414687
 20
11.553038
 42
0.013763
  0
VERTEX
  8
0
 10
21.396275
 20
11.853377
 42
0.008663
  0
VERTEX
  8
0
 10
21.370446
 20
12.095964
 42
0.227250
  0
VERTEX
  8
0
 10
21.336000
 20
12.149667
 42
-0.111983
  0
VERTEX
  8
0
 10
21.303524
 20
12.181577
 42
-0.050144
  0
VERTEX
  8
0
 10
21.276204
 20
12.235234
 42
-0.046179
  0
VERTEX
  8
0
 10
21.257605
 20
12.300296
 42
-0.046572
  0
VERTEX
  8
0
 10
21.251333
 20
12.367479
 42
0.035178
  0
VERTEX
  8
0
 10
21.246117
 20
12.441529
 42
0.021610
  0
VERTEX
  8
0
 10
21.230122
 20
12.527540
 42
0.021626
  0
VERTEX
  8
0
 10
21.206804
 20
12.611685
 42
0.035760
  0
VERTEX
  8
0
 10
21.179124
 20
12.679982
 42
-0.001943
  0
VERTEX
  8
0
 10
21.140961
 20
12.758453
 42
-0.000523
  0
VERTEX
  8
0
 10
21.081003
 20
12.883297
 42
-0.000530
  0
VERTEX
  8
0
 10
21.013209
 20
13.025224
 42
-0.000548
  0
VERTEX
  8
0
 10
20.946495
 20
13.165667
 42
0.009767
  0
VERTEX
  8
0
 10
20.878426
 20
13.302400
 42
0.010470
  0
VERTEX
  8
0
 10
20.806566
 20
13.433199
 42
0.010081
  0
VERTEX
  8
0
 10
20.740323
 20
13.542843
 42
0.047673
  0
VERTEX
  8
0
 10
20.695411
 20
13.600841
 42
-0.007931
  0
VERTEX
  8
0
 10
20.646795
 20
13.654264
 42
-0.001886
  0
VERTEX
  8
0
 10
20.567601
 20
13.744795
 42
-0.001939
  0
VERTEX
  8
0
 10
20.477403
 20
13.849514
 42
-0.001914
  0
VERTEX
  8
0
 10
20.387629
 20
13.955379
 42
0.052461
  0
VERTEX
  8
0
 10
20.135664
 20
14.197979
 42
0.017900
  0
VERTEX
  8
0
 10
19.723726
 20
14.495713
 42
0.013689
  0
VERTEX
  8
0
 10
19.302082
 20
14.761634
 42
0.134628
  0
VERTEX
  8
0
 10
19.101397
 20
14.816667
 42
-0.060048
  0
VERTEX
  8
0
 10
19.049292
 20
14.822947
 42
-0.050847
  0
VERTEX
  8
0
 10
18.996989
 20
14.841537
 42
-0.053164
  0
VERTEX
  8
0
 10
18.952269
 20
14.868915
 42
-0.090659
  0
VERTEX
  8
0
 10
18.923000
 20
14.901333
 42
0.111983
  0
VERTEX
  8
0
 10
18.891089
 20
14.933810
 42
0.050144
  0
VERTEX
  8
0
 10
18.837433
 20
14.961129
 42
0.046179
  0
VERTEX
  8
0
 10
18.772371
 20
14.979729
 42
0.046572
  0
VERTEX
  8
0
 10
18.705188
 20
14.986000
 42
-0.039213
  0
VERTEX
  8
0
 10
18.631137
 20
14.991816
 42
-0.023855
  0
VERTEX
  8
0
 10
18.545127
 20
15.009652
 42
-0.023832
  0
VERTEX
  8
0
 10
18.461002
 20
15.035660
 42
-0.038414
  0
VERTEX
  8
0
 10
18.392684
 20
15.066519
 42
0.061109
  0
VERTEX
  8
0
 10
18.306251
 20
15.100942
 42
0.012492
  0
VERTEX
  8
0
 10
18.145846
 20
15.138829
 42
0.012983
  0
VERTEX
  8
0
 10
17.955996
 20
15.173573
 42
0.011867
  0
VERTEX
  8
0
 10
17.758833
 20
15.199611
 42
-0.014978
  0
VERTEX
  8
0
 10
17.572229
 20
15.225438
 42
-0.023920
  0
VERTEX
  8
0
 10
17.415007
 20
15.259822
 42
-0.020531
  0
VERTEX
  8
0
 10
17.295493
 20
15.297343
 42
-0.316347
  0
VERTEX
  8
0
 10
17.272000
 20
15.330759
 42
-0.106933
  0
VERTEX
  8
0
 10
17.278486
 20
15.360738
 42
-0.099474
  0
VERTEX
  8
0
 10
17.296871
 20
15.386252
 42
-0.095904
  0
VERTEX
  8
0
 10
17.324345
 20
15.403357
 42
-0.091667
  0
VERTEX
  8
0
 10
17.356667
 20
15.409333
 42
0.244321
  0
VERTEX
  8
0
 10
17.389154
 20
15.426216
 42
0.067418
  0
VERTEX
  8
0
 10
17.416463
 20
15.478972
 42
0.051875
  0
VERTEX
  8
0
 10
17.435162
 20
15.555595
 42
0.033941
  0
VERTEX
  8
0
 10
17.441333
 20
15.646400
 42
-0.038387
  0
VERTEX
  8
0
 10
17.448890
 20
15.744676
 42
-0.034897
  0
VERTEX
  8
0
 10
17.471419
 20
15.843914
 42
-0.036694
  0
VERTEX
  8
0
 10
17.504411
 20
15.929902
 42
-0.086636
  0
VERTEX
  8
0
 10
17.543753
 20
15.985886
 42
0.162797
  0
VERTEX
  8
0
 10
17.591812
 20
16.082247
 42
0.015102
  0
VERTEX
  8
0
 10
17.621342
 20
16.350439
 42
0.014602
  0
VERTEX
  8
0
 10
17.640470
 20
16.730657
 42
0.005266
  0
VERTEX
  8
0
 10
17.646172
 20
17.272000
 42
0.005266
  0
VERTEX
  8
0
 10
17.640470
 20
17.813343
 42
0.014602
  0
VERTEX
  8
0
 10
17.621342
 20
18.193561
 42
0.015102
  0
VERTEX
  8
0
 10
17.591812
 20
18.461753
 42
0.162797
  0
VERTEX
  8
0
 10
17.543753
 20
18.558114
 42
-0.059429
  0
VERTEX
  8
0
 10
17.504530
 20
18.607960
 42
-0.039027
  0
VERTEX
  8
0
 10
17.471419
 20
18.673153
 42
-0.039009
  0
VERTEX
  8
0
 10
17.448820
 20
18.742754
 42
-0.059062
  0
VERTEX
  8
0
 10
17.441333
 20
18.805914
 42
0.113681
  0
VERTEX
  8
0
 10
17.336790
 20
19.259781
 42
0.025764
  0
VERTEX
  8
0
 10
16.952336
 20
19.956386
 42
0.027641
  0
VERTEX
  8
0
 10
16.476076
 20
20.636242
 42
0.061133
  0
VERTEX
  8
0
 10
16.027577
 20
21.082000
 42
-0.002219
  0
VERTEX
  8
0
 10
15.874336
 20
21.202078
 42
-0.002569
  0
VERTEX
  8
0
 10
15.729505
 20
21.317823
 42
-0.002293
  0
VERTEX
  8
0
 10
15.607831
 20
21.417016
 42
-0.015165
  0
VERTEX
  8
0
 10
15.548797
 20
21.468675
 42
0.078564
  0
VERTEX
  8
0
 10
15.479806
 20
21.515108
 42
0.007317
  0
VERTEX
  8
0
 10
15.291970
 20
21.599207
 42
0.009264
  0
VERTEX
  8
0
 10
15.063381
 20
21.692581
 42
0.007148
  0
VERTEX
  8
0
 10
14.810886
 20
21.786175
 42
0.016929
  0
VERTEX
  8
0
 10
14.431126
 20
21.906495
 42
0.032651
  0
VERTEX
  8
0
 10
14.119161
 20
21.972235
 42
0.027501
  0
VERTEX
  8
0
 10
13.768212
 20
22.002994
 42
0.008804
  0
VERTEX
  8
0
 10
13.244553
 20
22.010759
 42
0.007098
  0
VERTEX
  8
0
 10
12.880771
 20
22.004582
 42
0.009710
  0
VERTEX
  8
0
 10
12.553575
 20
21.988015
 42
0.006883
  0
VERTEX
  8
0
 10
12.281958
 20
21.965206
 42
0.103779
  0
SEQEND
  0
ENDSEC
  0
EOF
