999
DXF data, created by potrace 1.16, written by Peter Selinger 2001-2019
  0
SECTION
  2
HEADER
  9
$ACADVER
  1
AC1006
  9
$EXTMIN
 10
0.000000
 20
0.000000
 30
0.000000
  9
$EXTMAX
 10
49.276000
 20
57.234667
 30
0.000000
  0
ENDSEC
  0
SECTION
  2
ENTITIES
  0
POLYLINE
  8
0
 66
1
 70
1
  0
VERTEX
  8
0
 10
25.569333
 20
56.261409
 42
-0.023404
  0
VERTEX
  8
0
 10
25.185951
 20
56.082513
 42
-0.012836
  0
VERTEX
  8
0
 10
24.701636
 20
55.897933
 42
-0.010442
  0
VERTEX
  8
0
 10
24.237948
 20
55.745523
 42
-0.074307
  0
VERTEX
  8
0
 10
24.004698
 20
55.710667
 42
0.091545
  0
VERTEX
  8
0
 10
23.930328
 20
55.696935
 42
0.007577
  0
VERTEX
  8
0
 10
23.746934
 20
55.623619
 42
0.009927
  0
VERTEX
  8
0
 10
23.529709
 20
55.527829
 42
0.007491
  0
VERTEX
  8
0
 10
23.294850
 20
55.414333
 42
-0.010947
  0
VERTEX
  8
0
 10
23.055864
 20
55.300874
 42
-0.013130
  0
VERTEX
  8
0
 10
22.826078
 20
55.205048
 42
-0.011868
  0
VERTEX
  8
0
 10
22.629701
 20
55.134453
 42
-0.080515
  0
VERTEX
  8
0
 10
22.528193
 20
55.118000
 42
0.046089
  0
VERTEX
  8
0
 10
22.460754
 20
55.111770
 42
0.066028
  0
VERTEX
  8
0
 10
22.403757
 20
55.093129
 42
0.086096
  0
VERTEX
  8
0
 10
22.365282
 20
55.065678
 42
0.197329
  0
VERTEX
  8
0
 10
22.352000
 20
55.033333
 42
-0.133491
  0
VERTEX
  8
0
 10
22.343224
 20
55.001046
 42
-0.100499
  0
VERTEX
  8
0
 10
22.318548
 20
54.973538
 42
-0.087472
  0
VERTEX
  8
0
 10
22.281638
 20
54.955028
 42
-0.072708
  0
VERTEX
  8
0
 10
22.238122
 20
54.948667
 42
0.096328
  0
VERTEX
  8
0
 10
22.184953
 20
54.938327
 42
0.038318
  0
VERTEX
  8
0
 10
22.118096
 20
54.905143
 42
0.036123
  0
VERTEX
  8
0
 10
22.049428
 20
54.857197
 42
0.037721
  0
VERTEX
  8
0
 10
21.989435
 20
54.800500
 42
-0.040285
  0
VERTEX
  8
0
 10
21.916256
 20
54.732047
 42
-0.014430
  0
VERTEX
  8
0
 10
21.801823
 20
54.646373
 42
-0.014208
  0
VERTEX
  8
0
 10
21.670380
 20
54.559241
 42
-0.016329
  0
VERTEX
  8
0
 10
21.540061
 20
54.483877
 42
0.051689
  0
VERTEX
  8
0
 10
21.198068
 20
54.252436
 42
0.017716
  0
VERTEX
  8
0
 10
20.753135
 20
53.851315
 42
0.016961
  0
VERTEX
  8
0
 10
20.343151
 20
53.426633
 42
0.067597
  0
VERTEX
  8
0
 10
20.139562
 20
53.128333
 42
-0.001229
  0
VERTEX
  8
0
 10
20.084371
 20
53.018692
 42
-0.000944
  0
VERTEX
  8
0
 10
20.023570
 20
52.899204
 42
-0.000954
  0
VERTEX
  8
0
 10
19.966276
 20
52.787658
 42
-0.002270
  0
VERTEX
  8
0
 10
19.923144
 20
52.705000
 42
0.008644
  0
VERTEX
  8
0
 10
19.877616
 20
52.614972
 42
0.002457
  0
VERTEX
  8
0
 10
19.809970
 20
52.473490
 42
0.002474
  0
VERTEX
  8
0
 10
19.735149
 20
52.312953
 42
0.002617
  0
VERTEX
  8
0
 10
19.663329
 20
52.154667
 42
0.000000
  0
VERTEX
  8
0
 10
19.492856
 20
51.773667
 42
0.000000
  0
VERTEX
  8
0
 10
19.384838
 20
52.006500
 42
0.023435
  0
VERTEX
  8
0
 10
19.338277
 20
52.095665
 42
0.031904
  0
VERTEX
  8
0
 10
19.287671
 20
52.170939
 42
0.033089
  0
VERTEX
  8
0
 10
19.239856
 20
52.225255
 42
0.198241
  0
VERTEX
  8
0
 10
19.205743
 20
52.239333
 42
-0.166264
  0
VERTEX
  8
0
 10
19.178629
 20
52.248606
 42
-0.095321
  0
VERTEX
  8
0
 10
19.155545
 20
52.274834
 42
-0.076239
  0
VERTEX
  8
0
 10
19.139942
 20
52.313962
 42
-0.056878
  0
VERTEX
  8
0
 10
19.134667
 20
52.360188
 42
0.121673
  0
VERTEX
  8
0
 10
19.120393
 20
52.417974
 42
0.037659
  0
VERTEX
  8
0
 10
19.072490
 20
52.494451
 42
0.035158
  0
VERTEX
  8
0
 10
19.004004
 20
52.574912
 42
0.032218
  0
VERTEX
  8
0
 10
18.923000
 20
52.647540
 42
-0.020431
  0
VERTEX
  8
0
 10
18.841954
 20
52.716832
 42
-0.026072
  0
VERTEX
  8
0
 10
18.773510
 20
52.787355
 42
-0.025653
  0
VERTEX
  8
0
 10
18.723804
 20
52.850483
 42
-0.155157
  0
VERTEX
  8
0
 10
18.711333
 20
52.889701
 42
0.201850
  0
VERTEX
  8
0
 10
18.652538
 20
53.029409
 42
0.009441
  0
VERTEX
  8
0
 10
18.271521
 20
53.388095
 42
0.016137
  0
VERTEX
  8
0
 10
17.872336
 20
53.727108
 42
0.046956
  0
VERTEX
  8
0
 10
17.569587
 20
53.924574
 42
0.031356
  0
VERTEX
  8
0
 10
17.293281
 20
54.048434
 42
0.079539
  0
VERTEX
  8
0
 10
17.078326
 20
54.092003
 42
0.075473
  0
VERTEX
  8
0
 10
16.853817
 20
54.067337
 42
0.026187
  0
VERTEX
  8
0
 10
16.542983
 20
53.966929
 42
0.074870
  0
VERTEX
  8
0
 10
16.268051
 20
53.811598
 42
0.079983
  0
VERTEX
  8
0
 10
16.058166
 20
53.585142
 42
0.088016
  0
VERTEX
  8
0
 10
15.944256
 20
53.324649
 42
0.121228
  0
VERTEX
  8
0
 10
15.945433
 20
53.070235
 42
0.064651
  0
VERTEX
  8
0
 10
15.985699
 20
52.967947
 42
0.020919
  0
VERTEX
  8
0
 10
16.070359
 20
52.828609
 42
0.020465
  0
VERTEX
  8
0
 10
16.178457
 20
52.679955
 42
0.021622
  0
VERTEX
  8
0
 10
16.296481
 20
52.543445
 42
-0.005831
  0
VERTEX
  8
0
 10
16.410752
 20
52.419416
 42
-0.008802
  0
VERTEX
  8
0
 10
16.507075
 20
52.308526
 42
-0.004344
  0
VERTEX
  8
0
 10
16.585693
 20
52.213059
 42
-0.171716
  0
VERTEX
  8
0
 10
16.594667
 20
52.187700
 42
0.178842
  0
VERTEX
  8
0
 10
16.604104
 20
52.162160
 42
0.003502
  0
VERTEX
  8
0
 10
16.697117
 20
52.055010
 42
0.007933
  0
VERTEX
  8
0
 10
16.809769
 20
51.931078
 42
0.005181
  0
VERTEX
  8
0
 10
16.943434
 20
51.791562
 42
-0.024337
  0
VERTEX
  8
0
 10
17.353730
 20
51.329088
 42
-0.016014
  0
VERTEX
  8
0
 10
17.781522
 20
50.760471
 42
-0.015958
  0
VERTEX
  8
0
 10
18.174720
 20
50.161705
 42
-0.023051
  0
VERTEX
  8
0
 10
18.479992
 20
49.606936
 42
-0.004654
  0
VERTEX
  8
0
 10
18.601065
 20
49.354785
 42
-0.006692
  0
VERTEX
  8
0
 10
18.703173
 20
49.129148
 42
-0.003809
  0
VERTEX
  8
0
 10
18.785015
 20
48.937689
 42
-0.099410
  0
VERTEX
  8
0
 10
18.796000
 20
48.882982
 42
0.095354
  0
VERTEX
  8
0
 10
18.820161
 20
48.757444
 42
0.023197
  0
VERTEX
  8
0
 10
18.907881
 20
48.564470
 42
0.017016
  0
VERTEX
  8
0
 10
19.010235
 20
48.380219
 42
0.260488
  0
VERTEX
  8
0
 10
19.071167
 20
48.345327
 42
-0.235061
  0
VERTEX
  8
0
 10
19.095514
 20
48.332894
 42
-0.069969
  0
VERTEX
  8
0
 10
19.116013
 20
48.295119
 42
-0.053772
  0
VERTEX
  8
0
 10
19.130031
 20
48.240234
 42
-0.035668
  0
VERTEX
  8
0
 10
19.134667
 20
48.175333
 42
-0.084195
  0
VERTEX
  8
0
 10
19.114810
 20
48.058248
 42
-0.354442
  0
VERTEX
  8
0
 10
19.058394
 20
48.023382
 42
-0.075968
  0
VERTEX
  8
0
 10
18.934898
 20
48.058806
 42
-0.003120
  0
VERTEX
  8
0
 10
18.515498
 20
48.254832
 42
0.013048
  0
VERTEX
  8
0
 10
18.278025
 20
48.360133
 42
0.008276
  0
VERTEX
  8
0
 10
17.996317
 20
48.470932
 42
0.008311
  0
VERTEX
  8
0
 10
17.715922
 20
48.570608
 42
0.015194
  0
VERTEX
  8
0
 10
17.483667
 20
48.641068
 42
-0.006344
  0
VERTEX
  8
0
 10
17.276211
 20
48.700015
 42
-0.006590
  0
VERTEX
  8
0
 10
17.072943
 20
48.763498
 42
-0.006376
  0
VERTEX
  8
0
 10
16.898600
 20
48.822951
 42
-0.028306
  0
VERTEX
  8
0
 10
16.798820
 20
48.864902
 42
0.115909
  0
VERTEX
  8
0
 10
16.519383
 20
48.928507
 42
0.005580
  0
VERTEX
  8
0
 10
15.557315
 20
48.911052
 42
0.009645
  0
VERTEX
  8
0
 10
14.608241
 20
48.864899
 42
0.032438
  0
VERTEX
  8
0
 10
13.992141
 20
48.782638
 42
0.050910
  0
VERTEX
  8
0
 10
13.498162
 20
48.630202
 42
0.009036
  0
VERTEX
  8
0
 10
12.612774
 20
48.235745
 42
0.003376
  0
VERTEX
  8
0
 10
11.679205
 20
47.791732
 42
0.287581
  0
VERTEX
  8
0
 10
11.599333
 20
47.664348
 42
-0.107657
  0
VERTEX
  8
0
 10
11.592545
 20
47.633185
 42
-0.099582
  0
VERTEX
  8
0
 10
11.573308
 20
47.606661
 42
-0.095701
  0
VERTEX
  8
0
 10
11.544559
 20
47.588877
 42
-0.091040
  0
VERTEX
  8
0
 10
11.510735
 20
47.582667
 42
0.196890
  0
VERTEX
  8
0
 10
11.343202
 20
47.514035
 42
0.004344
  0
VERTEX
  8
0
 10
10.711969
 20
46.881662
 42
0.009754
  0
VERTEX
  8
0
 10
10.126057
 20
46.260618
 42
0.042931
  0
VERTEX
  8
0
 10
9.821165
 20
45.860370
 42
0.017066
  0
VERTEX
  8
0
 10
9.723998
 20
45.694929
 42
0.018943
  0
VERTEX
  8
0
 10
9.641896
 20
45.528815
 42
0.018645
  0
VERTEX
  8
0
 10
9.582929
 20
45.382823
 42
0.086863
  0
VERTEX
  8
0
 10
9.567333
 20
45.293726
 42
-0.037033
  0
VERTEX
  8
0
 10
9.562607
 20
45.230003
 42
-0.055745
  0
VERTEX
  8
0
 10
9.548330
 20
45.176211
 42
-0.073126
  0
VERTEX
  8
0
 10
9.527425
 20
45.139428
 42
-0.230980
  0
VERTEX
  8
0
 10
9.502640
 20
45.127333
 42
0.280198
  0
VERTEX
  8
0
 10
9.442712
 20
45.090889
 42
0.007563
  0
VERTEX
  8
0
 10
9.299416
 20
44.803761
 42
0.012620
  0
VERTEX
  8
0
 10
9.172228
 20
44.520881
 42
0.099652
  0
VERTEX
  8
0
 10
9.144000
 20
44.380655
 42
-0.085360
  0
VERTEX
  8
0
 10
9.136697
 20
44.338190
 42
-0.007344
  0
VERTEX
  8
0
 10
9.098247
 20
44.234564
 42
-0.009521
  0
VERTEX
  8
0
 10
9.047897
 20
44.111737
 42
-0.007242
  0
VERTEX
  8
0
 10
8.988244
 20
43.979070
 42
0.061208
  0
VERTEX
  8
0
 10
8.836523
 20
43.513100
 42
0.018351
  0
VERTEX
  8
0
 10
8.720474
 20
42.774360
 42
0.019023
  0
VERTEX
  8
0
 10
8.656606
 20
41.988346
 42
0.033057
  0
VERTEX
  8
0
 10
8.671689
 20
41.334181
 42
0.016055
  0
VERTEX
  8
0
 10
8.738703
 20
40.784202
 42
0.011152
  0
VERTEX
  8
0
 10
8.848107
 20
40.167814
 42
0.007265
  0
VERTEX
  8
0
 10
8.970609
 20
39.600017
 42
0.102973
  0
VERTEX
  8
0
 10
9.057196
 20
39.412333
 42
-0.074657
  0
VERTEX
  8
0
 10
9.088866
 20
39.352731
 42
-0.005986
  0
VERTEX
  8
0
 10
9.146283
 20
39.183682
 42
-0.007983
  0
VERTEX
  8
0
 10
9.209428
 20
38.979177
 42
-0.006041
  0
VERTEX
  8
0
 10
9.272417
 20
38.752841
 42
0.009002
  0
VERTEX
  8
0
 10
9.336024
 20
38.529418
 42
0.012885
  0
VERTEX
  8
0
 10
9.401047
 20
38.333944
 42
0.008762
  0
VERTEX
  8
0
 10
9.461709
 20
38.174915
 42
0.160169
  0
VERTEX
  8
0
 10
9.496133
 20
38.134011
 42
-0.136026
  0
VERTEX
  8
0
 10
9.523553
 20
38.104390
 42
-0.043674
  0
VERTEX
  8
0
 10
9.546495
 20
38.048441
 42
-0.039852
  0
VERTEX
  8
0
 10
9.562242
 20
37.978738
 42
-0.035296
  0
VERTEX
  8
0
 10
9.567594
 20
37.904503
 42
0.115253
  0
VERTEX
  8
0
 10
9.641815
 20
37.588796
 42
0.006307
  0
VERTEX
  8
0
 10
10.109089
 20
36.675719
 42
0.008504
  0
VERTEX
  8
0
 10
10.593473
 20
35.794576
 42
0.066538
  0
VERTEX
  8
0
 10
10.876955
 20
35.423617
 42
-0.037045
  0
VERTEX
  8
0
 10
10.926592
 20
35.366024
 42
-0.034382
  0
VERTEX
  8
0
 10
10.968564
 20
35.300333
 42
-0.036213
  0
VERTEX
  8
0
 10
10.997608
 20
35.236569
 42
-0.088989
  0
VERTEX
  8
0
 10
11.006667
 20
35.186075
 42
0.109040
  0
VERTEX
  8
0
 10
11.018121
 20
35.134178
 42
0.035252
  0
VERTEX
  8
0
 10
11.056408
 20
35.064904
 42
0.033230
  0
VERTEX
  8
0
 10
11.111197
 20
34.991596
 42
0.031753
  0
VERTEX
  8
0
 10
11.176000
 20
34.925000
 42
-0.027754
  0
VERTEX
  8
0
 10
11.240810
 20
34.859452
 42
-0.030783
  0
VERTEX
  8
0
 10
11.295592
 20
34.789258
 42
-0.032320
  0
VERTEX
  8
0
 10
11.334224
 20
34.724300
 42
-0.118529
  0
VERTEX
  8
0
 10
11.345333
 20
34.678095
 42
0.160560
  0
VERTEX
  8
0
 10
11.365301
 20
34.617516
 42
0.004418
  0
VERTEX
  8
0
 10
11.534425
 20
34.393021
 42
0.008684
  0
VERTEX
  8
0
 10
11.742373
 20
34.131538
 42
0.005799
  0
VERTEX
  8
0
 10
11.989049
 20
33.839155
 42
-0.006818
  0
VERTEX
  8
0
 10
12.232203
 20
33.549751
 42
-0.011240
  0
VERTEX
  8
0
 10
12.428754
 20
33.297883
 42
-0.004984
  0
VERTEX
  8
0
 10
12.585303
 20
33.083268
 42
-0.366627
  0
VERTEX
  8
0
 10
12.581977
 20
33.043088
 42
-0.109745
  0
VERTEX
  8
0
 10
12.465326
 20
32.968847
 42
-0.006602
  0
VERTEX
  8
0
 10
12.070245
 20
32.831327
 42
-0.008299
  0
VERTEX
  8
0
 10
11.677403
 20
32.707581
 42
-0.072267
  0
VERTEX
  8
0
 10
11.496750
 20
32.681333
 42
0.053958
  0
VERTEX
  8
0
 10
11.438823
 20
32.675064
 42
0.073690
  0
VERTEX
  8
0
 10
11.389812
 20
32.656463
 42
0.093389
  0
VERTEX
  8
0
 10
11.356916
 20
32.628974
 42
0.173838
  0
VERTEX
  8
0
 10
11.345333
 20
32.596667
 42
-0.213207
  0
VERTEX
  8
0
 10
11.330867
 20
32.564284
 42
-0.080277
  0
VERTEX
  8
0
 10
11.288130
 20
32.536871
 42
-0.061077
  0
VERTEX
  8
0
 10
11.225156
 20
32.518207
 42
-0.041555
  0
VERTEX
  8
0
 10
11.150600
 20
32.512000
 42
0.035100
  0
VERTEX
  8
0
 10
11.070146
 20
32.506345
 42
0.032865
  0
VERTEX
  8
0
 10
10.989442
 20
32.489477
 42
0.034550
  0
VERTEX
  8
0
 10
10.919871
 20
32.464802
 42
0.088122
  0
VERTEX
  8
0
 10
10.875433
 20
32.435325
 42
-0.136636
  0
VERTEX
  8
0
 10
10.754845
 20
32.371022
 42
-0.006502
  0
VERTEX
  8
0
 10
10.301952
 20
32.276716
 42
-0.009819
  0
VERTEX
  8
0
 10
9.736723
 20
32.178145
 42
-0.005820
  0
VERTEX
  8
0
 10
9.059333
 20
32.081734
 42
0.004350
  0
VERTEX
  8
0
 10
8.148280
 20
31.954798
 42
0.012383
  0
VERTEX
  8
0
 10
7.517072
 20
31.845210
 42
0.017544
  0
VERTEX
  8
0
 10
7.058035
 20
31.736880
 42
0.038415
  0
VERTEX
  8
0
 10
6.718204
 20
31.615279
 42
-0.008522
  0
VERTEX
  8
0
 10
6.611183
 20
31.569604
 42
-0.010645
  0
VERTEX
  8
0
 10
6.510271
 20
31.531038
 42
-0.009019
  0
VERTEX
  8
0
 10
6.424811
 20
31.502174
 42
-0.077073
  0
VERTEX
  8
0
 10
6.384995
 20
31.496000
 42
0.135299
  0
VERTEX
  8
0
 10
6.348318
 20
31.485890
 42
0.018350
  0
VERTEX
  8
0
 10
6.280773
 20
31.442154
 42
0.020040
  0
VERTEX
  8
0
 10
6.203036
 20
31.382887
 42
0.015681
  0
VERTEX
  8
0
 10
6.123461
 20
31.312695
 42
-0.030405
  0
VERTEX
  8
0
 10
6.013178
 20
31.221043
 42
-0.100355
  0
VERTEX
  8
0
 10
5.927792
 20
31.181618
 42
-0.116737
  0
VERTEX
  8
0
 10
5.841295
 20
31.181609
 42
-0.048840
  0
VERTEX
  8
0
 10
5.730346
 20
31.219602
 42
0.105933
  0
VERTEX
  8
0
 10
5.528472
 20
31.263993
 42
0.035194
  0
VERTEX
  8
0
 10
5.224501
 20
31.244210
 42
0.025535
  0
VERTEX
  8
0
 10
4.810484
 20
31.166129
 42
0.009792
  0
VERTEX
  8
0
 10
4.243773
 20
31.017162
 42
0.069090
  0
VERTEX
  8
0
 10
3.798637
 20
30.821257
 42
0.037473
  0
VERTEX
  8
0
 10
3.313643
 20
30.469523
 42
0.037497
  0
VERTEX
  8
0
 10
2.887619
 20
30.050319
 42
0.070555
  0
VERTEX
  8
0
 10
2.624583
 20
29.646760
 42
-0.003138
  0
VERTEX
  8
0
 10
2.571092
 20
29.534025
 42
-0.001133
  0
VERTEX
  8
0
 10
2.493698
 20
29.374450
 42
-0.001124
  0
VERTEX
  8
0
 10
2.408142
 20
29.200055
 42
-0.001336
  0
VERTEX
  8
0
 10
2.326574
 20
29.035837
 42
0.033877
  0
VERTEX
  8
0
 10
2.248308
 20
28.848610
 42
0.016498
  0
VERTEX
  8
0
 10
2.172892
 20
28.600630
 42
0.016282
  0
VERTEX
  8
0
 10
2.111108
 20
28.336379
 42
0.022613
  0
VERTEX
  8
0
 10
2.074323
 20
28.096083
 42
0.036526
  0
VERTEX
  8
0
 10
2.057804
 20
27.605567
 42
0.018612
  0
VERTEX
  8
0
 10
2.105007
 20
26.990327
 42
0.013139
  0
VERTEX
  8
0
 10
2.187024
 20
26.408624
 42
0.156010
  0
VERTEX
  8
0
 10
2.290019
 20
26.208781
 42
-0.100371
  0
VERTEX
  8
0
 10
2.321076
 20
26.161924
 42
-0.033423
  0
VERTEX
  8
0
 10
2.346976
 20
26.083356
 42
-0.031708
  0
VERTEX
  8
0
 10
2.364721
 20
25.990196
 42
-0.031216
  0
VERTEX
  8
0
 10
2.370667
 20
25.895050
 42
0.031942
  0
VERTEX
  8
0
 10
2.377468
 20
25.788692
 42
0.017928
  0
VERTEX
  8
0
 10
2.398566
 20
25.660871
 42
0.017833
  0
VERTEX
  8
0
 10
2.429245
 20
25.532784
 42
0.027671
  0
VERTEX
  8
0
 10
2.465642
 20
25.425150
 42
0.018495
  0
VERTEX
  8
0
 10
2.745897
 20
24.794870
 42
0.012365
  0
VERTEX
  8
0
 10
3.110584
 20
24.094563
 42
0.007813
  0
VERTEX
  8
0
 10
3.477301
 20
23.454771
 42
0.120866
  0
VERTEX
  8
0
 10
3.653656
 20
23.275305
 42
-0.297915
  0
VERTEX
  8
0
 10
3.675906
 20
23.227814
 42
-0.090025
  0
VERTEX
  8
0
 10
3.649573
 20
23.148488
 42
-0.048390
  0
VERTEX
  8
0
 10
3.573693
 20
23.036807
 42
-0.016268
  0
VERTEX
  8
0
 10
3.442739
 20
22.889299
 42
0.009448
  0
VERTEX
  8
0
 10
3.324461
 20
22.759675
 42
0.013381
  0
VERTEX
  8
0
 10
3.224572
 20
22.639628
 42
0.009446
  0
VERTEX
  8
0
 10
3.146766
 20
22.536928
 42
0.155871
  0
VERTEX
  8
0
 10
3.133401
 20
22.496626
 42
-0.126872
  0
VERTEX
  8
0
 10
3.123617
 20
22.460337
 42
-0.020164
  0
VERTEX
  8
0
 10
3.084408
 20
22.397249
 42
-0.021242
  0
VERTEX
  8
0
 10
3.030885
 20
22.325190
 42
-0.017172
  0
VERTEX
  8
0
 10
2.967649
 20
22.252460
 42
0.074264
  0
VERTEX
  8
0
 10
2.851856
 20
22.083847
 42
0.025117
  0
VERTEX
  8
0
 10
2.734669
 20
21.809194
 42
0.018513
  0
VERTEX
  8
0
 10
2.607432
 20
21.420095
 42
0.007088
  0
VERTEX
  8
0
 10
2.458328
 20
20.870333
 42
0.032827
  0
VERTEX
  8
0
 10
2.395759
 20
20.536059
 42
0.029181
  0
VERTEX
  8
0
 10
2.374170
 20
20.182976
 42
0.024565
  0
VERTEX
  8
0
 10
2.388361
 20
19.877355
 42
0.234592
  0
VERTEX
  8
0
 10
2.455333
 20
19.769667
 42
-0.174832
  0
VERTEX
  8
0
 10
2.488288
 20
19.728160
 42
-0.029251
  0
VERTEX
  8
0
 10
2.515491
 20
19.628478
 42
-0.029010
  0
VERTEX
  8
0
 10
2.534564
 20
19.502205
 42
-0.022113
  0
VERTEX
  8
0
 10
2.541232
 20
19.362503
 42
0.069783
  0
VERTEX
  8
0
 10
2.629842
 20
18.746267
 42
0.041146
  0
VERTEX
  8
0
 10
2.895382
 20
18.050103
 42
0.039422
  0
VERTEX
  8
0
 10
3.291852
 20
17.366321
 42
0.044841
  0
VERTEX
  8
0
 10
3.775957
 20
16.784374
 42
-0.005206
  0
VERTEX
  8
0
 10
4.082723
 20
16.469960
 42
-0.054743
  0
VERTEX
  8
0
 10
4.191796
 20
16.327458
 42
-0.209140
  0
VERTEX
  8
0
 10
4.203370
 20
16.240008
 42
-0.202358
  0
VERTEX
  8
0
 10
4.147186
 20
16.170541
 42
-0.029834
  0
VERTEX
  8
0
 10
4.077476
 20
16.138423
 42
-0.022478
  0
VERTEX
  8
0
 10
3.997561
 20
16.111305
 42
-0.022912
  0
VERTEX
  8
0
 10
3.919865
 20
16.092589
 42
-0.047678
  0
VERTEX
  8
0
 10
3.857899
 20
16.086667
 42
0.045891
  0
VERTEX
  8
0
 10
3.807088
 20
16.081993
 42
0.065202
  0
VERTEX
  8
0
 10
3.763989
 20
16.068013
 42
0.084485
  0
VERTEX
  8
0
 10
3.734694
 20
16.047432
 42
0.196079
  0
VERTEX
  8
0
 10
3.724362
 20
16.023167
 42
-0.233175
  0
VERTEX
  8
0
 10
3.707560
 20
15.990371
 42
-0.015721
  0
VERTEX
  8
0
 10
3.618720
 20
15.928578
 42
-0.019972
  0
VERTEX
  8
0
 10
3.503066
 20
15.859824
 42
-0.013461
  0
VERTEX
  8
0
 10
3.366093
 20
15.790333
 42
0.031195
  0
VERTEX
  8
0
 10
3.205030
 20
15.701307
 42
0.016059
  0
VERTEX
  8
0
 10
3.014704
 20
15.571258
 42
0.015898
  0
VERTEX
  8
0
 10
2.826765
 20
15.424391
 42
0.023119
  0
VERTEX
  8
0
 10
2.671611
 20
15.282333
 42
-0.016230
  0
VERTEX
  8
0
 10
2.506628
 20
15.127046
 42
-0.007743
  0
VERTEX
  8
0
 10
2.285121
 20
14.937735
 42
-0.007667
  0
VERTEX
  8
0
 10
2.047397
 20
14.746919
 42
-0.010814
  0
VERTEX
  8
0
 10
1.829395
 20
14.584807
 42
0.043382
  0
VERTEX
  8
0
 10
1.472605
 20
14.281536
 42
0.046974
  0
VERTEX
  8
0
 10
1.183904
 20
13.928668
 42
0.051031
  0
VERTEX
  8
0
 10
0.987908
 20
13.561092
 42
0.081154
  0
VERTEX
  8
0
 10
0.908234
 20
13.214474
 42
0.040102
  0
VERTEX
  8
0
 10
0.910397
 20
13.080814
 42
0.004802
  0
VERTEX
  8
0
 10
0.941660
 20
12.786833
 42
0.005698
  0
VERTEX
  8
0
 10
0.986234
 20
12.437584
 42
0.004654
  0
VERTEX
  8
0
 10
1.041649
 20
12.065000
 42
-0.001980
  0
VERTEX
  8
0
 10
1.217211
 20
10.926471
 42
-0.009635
  0
VERTEX
  8
0
 10
1.301693
 20
10.279100
 42
-0.015359
  0
VERTEX
  8
0
 10
1.341469
 20
9.781593
 42
-0.012267
  0
VERTEX
  8
0
 10
1.354667
 20
9.243719
 42
0.010857
  0
VERTEX
  8
0
 10
1.363761
 20
8.824949
 42
0.035754
  0
VERTEX
  8
0
 10
1.395422
 20
8.550618
 42
0.044059
  0
VERTEX
  8
0
 10
1.461725
 20
8.315120
 42
0.023834
  0
VERTEX
  8
0
 10
1.581880
 20
8.038790
 42
0.005778
  0
VERTEX
  8
0
 10
1.673035
 20
7.859062
 42
0.008073
  0
VERTEX
  8
0
 10
1.758956
 20
7.700686
 42
0.005244
  0
VERTEX
  8
0
 10
1.834237
 20
7.570331
 42
0.098786
  0
VERTEX
  8
0
 10
1.865628
 20
7.535333
 42
-0.122049
  0
VERTEX
  8
0
 10
1.895303
 20
7.499024
 42
-0.005909
  0
VERTEX
  8
0
 10
1.960879
 20
7.356210
 42
-0.009335
  0
VERTEX
  8
0
 10
2.034233
 20
7.182697
 42
-0.006570
  0
VERTEX
  8
0
 10
2.110495
 20
6.985000
 42
0.004143
  0
VERTEX
  8
0
 10
2.248730
 20
6.621401
 42
0.006313
  0
VERTEX
  8
0
 10
2.375322
 20
6.308300
 42
0.006356
  0
VERTEX
  8
0
 10
2.509128
 20
6.000068
 42
0.004281
  0
VERTEX
  8
0
 10
2.669341
 20
5.651500
 42
0.009643
  0
VERTEX
  8
0
 10
2.773890
 20
5.439780
 42
0.013689
  0
VERTEX
  8
0
 10
2.875541
 20
5.256049
 42
0.009567
  0
VERTEX
  8
0
 10
3.011328
 20
5.035493
 42
0.002366
  0
VERTEX
  8
0
 10
3.242567
 20
4.679230
 42
0.000000
  0
VERTEX
  8
0
 10
3.479468
 20
4.318000
 42
0.000000
  0
VERTEX
  8
0
 10
4.089234
 20
4.318587
 42
-0.019863
  0
VERTEX
  8
0
 10
4.868902
 20
4.288353
 42
-0.005868
  0
VERTEX
  8
0
 10
6.059398
 20
4.180661
 42
-0.001730
  0
VERTEX
  8
0
 10
7.324505
 20
4.046811
 42
-0.163706
  0
VERTEX
  8
0
 10
7.488767
 20
3.970799
 42
0.109591
  0
VERTEX
  8
0
 10
7.537885
 20
3.941382
 42
0.028210
  0
VERTEX
  8
0
 10
7.627646
 20
3.917031
 42
0.027335
  0
VERTEX
  8
0
 10
7.735740
 20
3.900268
 42
0.024802
  0
VERTEX
  8
0
 10
7.848600
 20
3.894667
 42
-0.025795
  0
VERTEX
  8
0
 10
7.955665
 20
3.889140
 42
-0.040840
  0
VERTEX
  8
0
 10
8.045926
 20
3.872268
 42
-0.049324
  0
VERTEX
  8
0
 10
8.109800
 20
3.847861
 42
-0.284103
  0
VERTEX
  8
0
 10
8.128000
 20
3.818415
 42
0.330879
  0
VERTEX
  8
0
 10
8.170277
 20
3.761524
 42
0.012074
  0
VERTEX
  8
0
 10
8.445829
 20
3.685711
 42
0.013262
  0
VERTEX
  8
0
 10
8.859787
 20
3.594088
 42
0.003518
  0
VERTEX
  8
0
 10
9.525000
 20
3.470108
 42
-0.001694
  0
VERTEX
  8
0
 10
10.079565
 20
3.368842
 42
-0.010426
  0
VERTEX
  8
0
 10
10.363755
 20
3.309797
 42
-0.018664
  0
VERTEX
  8
0
 10
10.534586
 20
3.263798
 42
-0.085711
  0
VERTEX
  8
0
 10
10.625667
 20
3.217377
 42
0.087199
  0
VERTEX
  8
0
 10
10.680863
 20
3.189449
 42
0.012443
  0
VERTEX
  8
0
 10
10.803599
 20
3.155539
 42
0.013835
  0
VERTEX
  8
0
 10
10.952314
 20
3.122751
 42
0.011405
  0
VERTEX
  8
0
 10
11.112500
 20
3.095826
 42
-0.018183
  0
VERTEX
  8
0
 10
11.266623
 20
3.067767
 42
-0.028357
  0
VERTEX
  8
0
 10
11.396530
 20
3.031374
 42
-0.027414
  0
VERTEX
  8
0
 10
11.492959
 20
2.992338
 42
-0.290623
  0
VERTEX
  8
0
 10
11.514667
 20
2.958146
 42
0.197284
  0
VERTEX
  8
0
 10
11.527132
 20
2.927783
 42
0.086112
  0
VERTEX
  8
0
 10
11.563238
 20
2.902014
 42
0.066042
  0
VERTEX
  8
0
 10
11.616728
 20
2.884515
 42
0.046102
  0
VERTEX
  8
0
 10
11.680016
 20
2.878667
 42
-0.033947
  0
VERTEX
  8
0
 10
11.757252
 20
2.873417
 42
-0.016919
  0
VERTEX
  8
0
 10
11.853924
 20
2.856865
 42
-0.016712
  0
VERTEX
  8
0
 10
11.953308
 20
2.832878
 42
-0.023582
  0
VERTEX
  8
0
 10
12.039850
 20
2.804449
 42
0.028591
  0
VERTEX
  8
0
 10
12.388766
 20
2.693684
 42
0.017274
  0
VERTEX
  8
0
 10
12.812543
 20
2.600840
 42
0.016206
  0
VERTEX
  8
0
 10
13.278909
 20
2.530963
 42
0.015254
  0
VERTEX
  8
0
 10
13.758333
 20
2.489720
 42
-0.009700
  0
VERTEX
  8
0
 10
14.031620
 20
2.469265
 42
-0.010997
  0
VERTEX
  8
0
 10
14.292659
 20
2.438821
 42
-0.010269
  0
VERTEX
  8
0
 10
14.512710
 20
2.403619
 42
-0.058118
  0
VERTEX
  8
0
 10
14.626167
 20
2.369109
 42
0.009667
  0
VERTEX
  8
0
 10
14.923856
 20
2.246031
 42
0.021868
  0
VERTEX
  8
0
 10
15.154568
 20
2.167269
 42
0.020591
  0
VERTEX
  8
0
 10
15.399553
 20
2.106258
 42
0.007680
  0
VERTEX
  8
0
 10
15.748000
 20
2.040132
 42
-0.000975
  0
VERTEX
  8
0
 10
15.992404
 20
1.997139
 42
-0.000647
  0
VERTEX
  8
0
 10
16.272564
 20
1.946917
 42
-0.000652
  0
VERTEX
  8
0
 10
16.544407
 20
1.897458
 42
-0.001273
  0
VERTEX
  8
0
 10
16.760943
 20
1.857199
 42
0.006384
  0
VERTEX
  8
0
 10
16.983230
 20
1.818218
 42
0.002897
  0
VERTEX
  8
0
 10
17.275090
 20
1.772602
 42
0.002867
  0
VERTEX
  8
0
 10
17.583503
 20
1.728035
 42
0.003928
  0
VERTEX
  8
0
 10
17.861609
 20
1.691700
 42
-0.001167
  0
VERTEX
  8
0
 10
19.048419
 20
1.543299
 42
-0.008280
  0
VERTEX
  8
0
 10
19.622681
 20
1.460446
 42
-0.016773
  0
VERTEX
  8
0
 10
19.967738
 20
1.392871
 42
-0.051357
  0
VERTEX
  8
0
 10
20.193000
 20
1.315825
 42
0.019720
  0
VERTEX
  8
0
 10
20.783187
 20
1.071330
 42
0.037254
  0
VERTEX
  8
0
 10
21.278196
 20
0.929611
 42
0.038473
  0
VERTEX
  8
0
 10
21.778005
 20
0.865561
 42
0.022605
  0
VERTEX
  8
0
 10
22.381038
 20
0.862337
 42
0.009183
  0
VERTEX
  8
0
 10
22.722730
 20
0.882254
 42
0.011556
  0
VERTEX
  8
0
 10
23.038128
 20
0.913803
 42
0.009775
  0
VERTEX
  8
0
 10
23.299660
 20
0.951288
 42
0.085005
  0
VERTEX
  8
0
 10
23.410333
 20
0.989383
 42
-0.014397
  0
VERTEX
  8
0
 10
23.720899
 20
1.148048
 42
-0.011714
  0
VERTEX
  8
0
 10
24.062025
 20
1.300427
 42
-0.011594
  0
VERTEX
  8
0
 10
24.378204
 20
1.424332
 42
-0.037231
  0
VERTEX
  8
0
 10
24.595667
 20
1.485893
 42
0.018124
  0
VERTEX
  8
0
 10
24.842632
 20
1.545725
 42
0.014495
  0
VERTEX
  8
0
 10
25.103974
 20
1.627405
 42
0.012855
  0
VERTEX
  8
0
 10
25.390204
 20
1.734365
 42
0.008548
  0
VERTEX
  8
0
 10
25.712876
 20
1.870949
 42
-0.018663
  0
VERTEX
  8
0
 10
25.873977
 20
1.935332
 42
-0.011988
  0
VERTEX
  8
0
 10
26.065135
 20
1.998447
 42
-0.012049
  0
VERTEX
  8
0
 10
26.255486
 20
2.051298
 42
-0.022046
  0
VERTEX
  8
0
 10
26.413252
 20
2.083714
 42
0.017335
  0
VERTEX
  8
0
 10
26.548754
 20
2.110228
 42
0.022621
  0
VERTEX
  8
0
 10
26.670379
 20
2.144300
 42
0.021087
  0
VERTEX
  8
0
 10
26.766925
 20
2.180699
 42
0.154850
  0
VERTEX
  8
0
 10
26.803873
 20
2.212454
 42
-0.158375
  0
VERTEX
  8
0
 10
26.837417
 20
2.240885
 42
-0.036061
  0
VERTEX
  8
0
 10
26.909120
 20
2.264396
 42
-0.033859
  0
VERTEX
  8
0
 10
26.999670
 20
2.280599
 42
-0.027350
  0
VERTEX
  8
0
 10
27.098330
 20
2.286000
 42
0.025478
  0
VERTEX
  8
0
 10
27.193749
 20
2.290865
 42
0.040387
  0
VERTEX
  8
0
 10
27.274189
 20
2.305720
 42
0.048542
  0
VERTEX
  8
0
 10
27.331193
 20
2.327200
 42
0.285778
  0
VERTEX
  8
0
 10
27.347333
 20
2.353133
 42
-0.276938
  0
VERTEX
  8
0
 10
27.367248
 20
2.386331
 42
-0.012675
  0
VERTEX
  8
0
 10
27.490341
 20
2.448052
 42
-0.018054
  0
VERTEX
  8
0
 10
27.647583
 20
2.515150
 42
-0.011627
  0
VERTEX
  8
0
 10
27.834167
 20
2.581987
 42
0.002528
  0
VERTEX
  8
0
 10
28.029869
 20
2.648097
 42
0.002938
  0
VERTEX
  8
0
 10
28.215299
 20
2.713003
 42
0.002613
  0
VERTEX
  8
0
 10
28.371586
 20
2.769664
 42
0.017537
  0
VERTEX
  8
0
 10
28.448000
 20
2.800905
 42
-0.005154
  0
VERTEX
  8
0
 10
28.704982
 20
2.913474
 42
-0.000961
  0
VERTEX
  8
0
 10
29.179029
 20
3.114255
 42
-0.000827
  0
VERTEX
  8
0
 10
29.655341
 20
3.313988
 42
-0.007385
  0
VERTEX
  8
0
 10
29.866167
 20
3.398350
 42
0.001662
  0
VERTEX
  8
0
 10
29.952883
 20
3.431903
 42
0.000969
  0
VERTEX
  8
0
 10
30.056667
 20
3.472689
 42
0.000969
  0
VERTEX
  8
0
 10
30.160441
 20
3.513937
 42
0.001640
  0
VERTEX
  8
0
 10
30.247167
 20
3.548933
 42
-0.009754
  0
VERTEX
  8
0
 10
30.332435
 20
3.581743
 42
-0.006473
  0
VERTEX
  8
0
 10
30.431449
 20
3.616196
 42
-0.006516
  0
VERTEX
  8
0
 10
30.528502
 20
3.647166
 42
-0.012611
  0
VERTEX
  8
0
 10
30.607000
 20
3.668944
 42
0.020790
  0
VERTEX
  8
0
 10
30.705917
 20
3.698138
 42
0.003151
  0
VERTEX
  8
0
 10
30.900688
 20
3.765912
 42
0.003526
  0
VERTEX
  8
0
 10
31.129675
 20
3.849036
 42
0.003044
  0
VERTEX
  8
0
 10
31.369000
 20
3.939489
 42
-0.006059
  0
VERTEX
  8
0
 10
31.617641
 20
4.031754
 42
-0.005628
  0
VERTEX
  8
0
 10
31.874619
 20
4.120336
 42
-0.005620
  0
VERTEX
  8
0
 10
32.104924
 20
4.193972
 42
-0.018838
  0
VERTEX
  8
0
 10
32.258000
 20
4.234783
 42
0.024738
  0
VERTEX
  8
0
 10
32.593585
 20
4.328504
 42
0.006404
  0
VERTEX
  8
0
 10
33.123949
 20
4.512904
 42
0.005477
  0
VERTEX
  8
0
 10
33.646476
 20
4.708615
 42
0.040173
  0
VERTEX
  8
0
 10
33.886684
 20
4.824540
 42
-0.037626
  0
VERTEX
  8
0
 10
33.954175
 20
4.857535
 42
-0.025112
  0
VERTEX
  8
0
 10
34.035621
 20
4.885367
 42
-0.025316
  0
VERTEX
  8
0
 10
34.117806
 20
4.904476
 42
-0.044486
  0
VERTEX
  8
0
 10
34.187251
 20
4.910667
 42
0.040932
  0
VERTEX
  8
0
 10
34.251942
 20
4.915971
 42
0.033785
  0
VERTEX
  8
0
 10
34.319322
 20
4.931832
 42
0.035027
  0
VERTEX
  8
0
 10
34.379452
 20
4.955067
 42
0.073058
  0
VERTEX
  8
0
 10
34.421233
 20
4.982719
 42
-0.072033
  0
VERTEX
  8
0
 10
34.479384
 20
5.021373
 42
-0.005408
  0
VERTEX
  8
0
 10
34.652135
 20
5.101027
 42
-0.007387
  0
VERTEX
  8
0
 10
34.861469
 20
5.191126
 42
-0.005547
  0
VERTEX
  8
0
 10
35.094333
 20
5.284291
 42
0.002216
  0
VERTEX
  8
0
 10
35.670937
 20
5.510535
 42
0.014537
  0
VERTEX
  8
0
 10
35.956087
 20
5.633595
 42
0.022686
  0
VERTEX
  8
0
 10
36.118465
 20
5.718514
 42
0.266980
  0
VERTEX
  8
0
 10
36.152667
 20
5.778001
 42
-0.161780
  0
VERTEX
  8
0
 10
36.160791
 20
5.802455
 42
-0.095731
  0
VERTEX
  8
0
 10
36.183755
 20
5.823354
 42
-0.077331
  0
VERTEX
  8
0
 10
36.218024
 20
5.837565
 42
-0.058526
  0
VERTEX
  8
0
 10
36.258500
 20
5.842522
 42
0.063989
  0
VERTEX
  8
0
 10
36.313122
 20
5.849815
 42
0.018060
  0
VERTEX
  8
0
 10
36.395422
 20
5.874971
 42
0.017890
  0
VERTEX
  8
0
 10
36.487197
 20
5.910414
 42
0.018007
  0
VERTEX
  8
0
 10
36.576000
 20
5.952256
 42
-0.013854
  0
VERTEX
  8
0
 10
36.690284
 20
6.007269
 42
-0.003724
  0
VERTEX
  8
0
 10
36.874715
 20
6.088193
 42
-0.003770
  0
VERTEX
  8
0
 10
37.085654
 20
6.177001
 42
-0.003893
  0
VERTEX
  8
0
 10
37.295667
 20
6.261655
 42
0.007101
  0
VERTEX
  8
0
 10
37.499469
 20
6.345330
 42
0.008130
  0
VERTEX
  8
0
 10
37.691748
 20
6.431207
 42
0.007443
  0
VERTEX
  8
0
 10
37.852303
 20
6.508999
 42
0.045201
  0
VERTEX
  8
0
 10
37.930667
 20
6.557739
 42
-0.023873
  0
VERTEX
  8
0
 10
37.994177
 20
6.601097
 42
-0.010315
  0
VERTEX
  8
0
 10
38.082538
 20
6.652947
 42
-0.010179
  0
VERTEX
  8
0
 10
38.178994
 20
6.704354
 42
-0.013290
  0
VERTEX
  8
0
 10
38.269333
 20
6.747186
 42
0.005729
  0
VERTEX
  8
0
 10
38.603901
 20
6.899659
 42
0.007419
  0
VERTEX
  8
0
 10
38.907004
 20
7.047537
 42
0.007636
  0
VERTEX
  8
0
 10
39.198269
 20
7.200661
 42
0.006754
  0
VERTEX
  8
0
 10
39.497000
 20
7.368857
 42
-0.003160
  0
VERTEX
  8
0
 10
39.668389
 20
7.466983
 42
-0.003630
  0
VERTEX
  8
0
 10
39.833285
 20
7.558442
 42
-0.003270
  0
VERTEX
  8
0
 10
39.974120
 20
7.634033
 42
-0.020849
  0
VERTEX
  8
0
 10
40.047333
 20
7.668892
 42
0.001997
  0
VERTEX
  8
0
 10
40.117326
 20
7.699036
 42
0.000446
  0
VERTEX
  8
0
 10
40.236510
 20
7.751059
 42
0.000463
  0
VERTEX
  8
0
 10
40.374028
 20
7.811381
 42
0.000448
  0
VERTEX
  8
0
 10
40.513000
 20
7.872644
 42
-0.012611
  0
VERTEX
  8
0
 10
40.662506
 20
7.934252
 42
-0.009124
  0
VERTEX
  8
0
 10
40.831948
 20
7.995605
 42
-0.009226
  0
VERTEX
  8
0
 10
40.995160
 20
8.048014
 42
-0.019771
  0
VERTEX
  8
0
 10
41.123205
 20
8.081080
 42
0.022080
  0
VERTEX
  8
0
 10
41.250091
 20
8.114473
 42
0.010688
  0
VERTEX
  8
0
 10
41.409310
 20
8.167743
 42
0.010577
  0
VERTEX
  8
0
 10
41.573095
 20
8.230403
 42
0.014964
  0
VERTEX
  8
0
 10
41.715871
 20
8.293560
 42
-0.017520
  0
VERTEX
  8
0
 10
41.874473
 20
8.362751
 42
-0.007394
  0
VERTEX
  8
0
 10
42.091893
 20
8.444970
 42
-0.007305
  0
VERTEX
  8
0
 10
42.326993
 20
8.526060
 42
-0.009461
  0
VERTEX
  8
0
 10
42.545000
 20
8.593166
 42
0.005471
  0
VERTEX
  8
0
 10
42.750269
 20
8.654561
 42
0.006085
  0
VERTEX
  8
0
 10
42.946962
 20
8.718380
 42
0.005659
  0
VERTEX
  8
0
 10
43.113282
 20
8.776695
 42
0.031432
  0
VERTEX
  8
0
 10
43.200018
 20
8.814536
 42
-0.022367
  0
VERTEX
  8
0
 10
43.263087
 20
8.843423
 42
-0.019871
  0
VERTEX
  8
0
 10
43.331001
 20
8.867832
 42
-0.020339
  0
VERTEX
  8
0
 10
43.393892
 20
8.884875
 42
-0.056048
  0
VERTEX
  8
0
 10
43.439466
 20
8.890000
 42
0.094429
  0
VERTEX
  8
0
 10
43.500194
 20
8.901572
 42
0.004882
  0
VERTEX
  8
0
 10
43.685726
 20
8.977048
 42
0.007608
  0
VERTEX
  8
0
 10
43.905254
 20
9.072813
 42
0.005440
  0
VERTEX
  8
0
 10
44.147999
 20
9.186333
 42
-0.005292
  0
VERTEX
  8
0
 10
44.390563
 20
9.299856
 42
-0.007436
  0
VERTEX
  8
0
 10
44.609528
 20
9.395619
 42
-0.004685
  0
VERTEX
  8
0
 10
44.794674
 20
9.471299
 42
-0.094950
  0
VERTEX
  8
0
 10
44.853995
 20
9.482667
 42
0.073150
  0
VERTEX
  8
0
 10
44.890470
 20
9.488032
 42
0.063637
  0
VERTEX
  8
0
 10
44.925773
 20
9.503762
 42
0.066247
  0
VERTEX
  8
0
 10
44.954619
 20
9.527022
 42
0.096666
  0
VERTEX
  8
0
 10
44.972111
 20
9.554481
 42
-0.165689
  0
VERTEX
  8
0
 10
45.044408
 20
9.639822
 42
-0.006600
  0
VERTEX
  8
0
 10
45.401963
 20
9.847574
 42
-0.007991
  0
VERTEX
  8
0
 10
45.760020
 20
10.041871
 42
-0.120882
  0
VERTEX
  8
0
 10
45.896405
 20
10.075333
 42
0.116652
  0
VERTEX
  8
0
 10
45.950155
 20
10.088047
 42
0.007617
  0
VERTEX
  8
0
 10
46.093029
 20
10.162381
 42
0.010739
  0
VERTEX
  8
0
 10
46.261686
 20
10.258155
 42
0.007792
  0
VERTEX
  8
0
 10
46.445378
 20
10.371667
 42
-0.004726
  0
VERTEX
  8
0
 10
46.626640
 20
10.485219
 42
-0.007011
  0
VERTEX
  8
0
 10
46.787743
 20
10.580952
 42
-0.003496
  0
VERTEX
  8
0
 10
46.925510
 20
10.658948
 42
-0.127729
  0
VERTEX
  8
0
 10
46.960366
 20
10.668000
 42
0.138560
  0
VERTEX
  8
0
 10
46.994426
 20
10.677624
 42
0.004352
  0
VERTEX
  8
0
 10
47.118074
 20
10.755048
 42
0.008173
  0
VERTEX
  8
0
 10
47.262780
 20
10.850785
 42
0.005539
  0
VERTEX
  8
0
 10
47.424584
 20
10.964333
 42
-0.006857
  0
VERTEX
  8
0
 10
47.587276
 20
11.077865
 42
-0.009833
  0
VERTEX
  8
0
 10
47.734744
 20
11.173619
 42
-0.006122
  0
VERTEX
  8
0
 10
47.860176
 20
11.249488
 42
-0.133724
  0
VERTEX
  8
0
 10
47.901228
 20
11.260667
 42
0.143693
  0
VERTEX
  8
0
 10
47.938046
 20
11.271471
 42
0.014330
  0
VERTEX
  8
0
 10
48.014688
 20
11.323850
 42
0.017098
  0
VERTEX
  8
0
 10
48.103839
 20
11.393380
 42
0.012777
  0
VERTEX
  8
0
 10
48.197365
 20
11.475760
 42
0.039783
  0
VERTEX
  8
0
 10
48.316218
 20
11.604988
 42
0.076696
  0
VERTEX
  8
0
 10
48.384810
 20
11.727331
 42
0.066189
  0
VERTEX
  8
0
 10
48.419062
 20
11.876501
 42
0.023384
  0
VERTEX
  8
0
 10
48.429333
 20
12.096001
 42
0.068185
  0
VERTEX
  8
0
 10
48.383707
 20
12.429022
 42
0.128106
  0
VERTEX
  8
0
 10
48.247985
 20
12.662188
 42
0.106521
  0
VERTEX
  8
0
 10
47.995650
 20
12.826281
 42
0.038329
  0
VERTEX
  8
0
 10
47.582667
 20
12.948499
 42
-0.001817
  0
VERTEX
  8
0
 10
47.376604
 20
12.993441
 42
-0.001227
  0
VERTEX
  8
0
 10
47.141871
 20
13.046135
 42
-0.001236
  0
VERTEX
  8
0
 10
46.915167
 20
13.098201
 42
-0.002461
  0
VERTEX
  8
0
 10
46.736000
 20
13.140745
 42
0.005778
  0
VERTEX
  8
0
 10
46.570003
 20
13.179001
 42
0.004309
  0
VERTEX
  8
0
 10
46.386089
 20
13.217497
 42
0.004356
  0
VERTEX
  8
0
 10
46.212088
 20
13.250781
 42
0.009878
  0
VERTEX
  8
0
 10
46.079833
 20
13.272197
 42
-0.029774
  0
VERTEX
  8
0
 10
45.925570
 20
13.303518
 42
-0.146165
  0
VERTEX
  8
0
 10
45.850624
 20
13.349479
 42
-0.151188
  0
VERTEX
  8
0
 10
45.814530
 20
13.428118
 42
-0.032561
  0
VERTEX
  8
0
 10
45.804667
 20
13.579424
 42
0.041056
  0
VERTEX
  8
0
 10
45.795093
 20
13.695814
 42
0.029026
  0
VERTEX
  8
0
 10
45.766180
 20
13.823810
 42
0.029446
  0
VERTEX
  8
0
 10
45.723889
 20
13.943718
 42
0.053316
  0
VERTEX
  8
0
 10
45.673647
 20
14.034712
 42
-0.077500
  0
VERTEX
  8
0
 10
45.615139
 20
14.153903
 42
-0.011778
  0
VERTEX
  8
0
 10
45.542134
 20
14.409639
 42
-0.012950
  0
VERTEX
  8
0
 10
45.470337
 20
14.718188
 42
-0.010888
  0
VERTEX
  8
0
 10
45.409927
 20
15.048384
 42
-0.003726
  0
VERTEX
  8
0
 10
45.316259
 20
15.660997
 42
-0.031607
  0
VERTEX
  8
0
 10
45.293710
 20
15.938497
 42
-0.036113
  0
VERTEX
  8
0
 10
45.308125
 20
16.203664
 42
-0.005682
  0
VERTEX
  8
0
 10
45.379997
 20
16.721667
 42
0.023441
  0
VERTEX
  8
0
 10
45.427157
 20
17.180791
 42
0.036011
  0
VERTEX
  8
0
 10
45.420564
 20
17.580187
 42
0.040403
  0
VERTEX
  8
0
 10
45.359465
 20
17.937714
 42
0.044026
  0
VERTEX
  8
0
 10
45.242600
 20
18.270185
 42
-0.050292
  0
VERTEX
  8
0
 10
45.148902
 20
18.547796
 42
-0.196865
  0
VERTEX
  8
0
 10
45.177807
 20
18.722734
 42
-0.148780
  0
VERTEX
  8
0
 10
45.330135
 20
18.857119
 42
-0.025545
  0
VERTEX
  8
0
 10
45.692886
 20
19.000503
 42
0.006746
  0
VERTEX
  8
0
 10
45.897845
 20
19.072736
 42
0.009155
  0
VERTEX
  8
0
 10
46.080737
 20
19.143807
 42
0.006560
  0
VERTEX
  8
0
 10
46.231099
 20
19.207746
 42
0.095038
  0
VERTEX
  8
0
 10
46.278497
 20
19.240500
 42
-0.091482
  0
VERTEX
  8
0
 10
46.313287
 20
19.264906
 42
-0.036359
  0
VERTEX
  8
0
 10
46.368158
 20
19.285347
 42
-0.034454
  0
VERTEX
  8
0
 10
46.432108
 20
19.299315
 42
-0.036555
  0
VERTEX
  8
0
 10
46.496111
 20
19.304000
 42
0.043841
  0
VERTEX
  8
0
 10
46.555532
 20
19.309220
 42
0.063623
  0
VERTEX
  8
0
 10
46.605737
 20
19.324879
 42
0.083373
  0
VERTEX
  8
0
 10
46.639708
 20
19.347909
 42
0.204967
  0
VERTEX
  8
0
 10
46.651333
 20
19.375076
 42
-0.290805
  0
VERTEX
  8
0
 10
46.673221
 20
19.409526
 42
-0.011681
  0
VERTEX
  8
0
 10
46.815078
 20
19.472101
 42
-0.017347
  0
VERTEX
  8
0
 10
46.995105
 20
19.539328
 42
-0.011039
  0
VERTEX
  8
0
 10
47.208761
 20
19.605564
 42
0.026444
  0
VERTEX
  8
0
 10
47.575949
 20
19.731918
 42
0.090091
  0
VERTEX
  8
0
 10
47.788829
 20
19.866570
 42
0.156414
  0
VERTEX
  8
0
 10
47.877417
 20
20.022449
 42
0.141039
  0
VERTEX
  8
0
 10
47.863705
 20
20.208033
 42
0.061297
  0
VERTEX
  8
0
 10
47.797362
 20
20.336589
 42
0.098792
  0
VERTEX
  8
0
 10
47.709624
 20
20.422519
 42
0.093283
  0
VERTEX
  8
0
 10
47.591775
 20
20.471240
 42
0.049837
  0
VERTEX
  8
0
 10
47.434500
 20
20.488037
 42
-0.033738
  0
VERTEX
  8
0
 10
47.361532
 20
20.493465
 42
-0.051443
  0
VERTEX
  8
0
 10
47.299959
 20
20.508827
 42
-0.066583
  0
VERTEX
  8
0
 10
47.257526
 20
20.530932
 42
-0.244071
  0
VERTEX
  8
0
 10
47.244000
 20
20.556991
 42
0.342209
  0
VERTEX
  8
0
 10
47.139053
 20
20.692372
 42
0.015889
  0
VERTEX
  8
0
 10
46.534613
 20
20.827633
 42
0.018983
  0
VERTEX
  8
0
 10
45.709169
 20
20.952739
 42
0.008783
  0
VERTEX
  8
0
 10
44.628642
 20
21.055580
 42
-0.016900
  0
VERTEX
  8
0
 10
44.373149
 20
21.084089
 42
-0.033886
  0
VERTEX
  8
0
 10
44.174761
 20
21.126926
 42
-0.043404
  0
VERTEX
  8
0
 10
44.022613
 20
21.185443
 42
-0.074162
  0
VERTEX
  8
0
 10
43.910660
 20
21.262359
 42
0.036906
  0
VERTEX
  8
0
 10
43.827357
 20
21.329207
 42
0.024458
  0
VERTEX
  8
0
 10
43.723012
 20
21.393694
 42
0.024640
  0
VERTEX
  8
0
 10
43.614879
 20
21.446649
 42
0.043194
  0
VERTEX
  8
0
 10
43.520351
 20
21.477951
 42
-0.022366
  0
VERTEX
  8
0
 10
43.430898
 20
21.503497
 42
-0.018742
  0
VERTEX
  8
0
 10
43.338546
 20
21.538298
 42
-0.019151
  0
VERTEX
  8
0
 10
43.256476
 20
21.576550
 42
-0.048223
  0
VERTEX
  8
0
 10
43.201038
 20
21.612148
 42
0.125719
  0
VERTEX
  8
0
 10
43.132862
 20
21.642354
 42
0.021669
  0
VERTEX
  8
0
 10
42.991466
 20
21.659922
 42
0.022395
  0
VERTEX
  8
0
 10
42.819777
 20
21.666020
 42
0.018366
  0
VERTEX
  8
0
 10
42.636399
 20
21.657577
 42
-0.011209
  0
VERTEX
  8
0
 10
42.367766
 20
21.641353
 42
-0.078484
  0
VERTEX
  8
0
 10
42.237800
 20
21.656859
 42
-0.146042
  0
VERTEX
  8
0
 10
42.156681
 20
21.708331
 42
-0.072078
  0
VERTEX
  8
0
 10
42.090050
 20
21.811958
 42
0.050710
  0
VERTEX
  8
0
 10
42.041016
 20
21.895864
 42
0.026867
  0
VERTEX
  8
0
 10
41.964822
 20
21.989336
 42
0.026444
  0
VERTEX
  8
0
 10
41.875798
 20
22.077454
 42
0.036859
  0
VERTEX
  8
0
 10
41.786855
 20
22.145593
 42
-0.050198
  0
VERTEX
  8
0
 10
41.685176
 20
22.227876
 42
-0.079851
  0
VERTEX
  8
0
 10
41.619315
 20
22.318062
 42
-0.076200
  0
VERTEX
  8
0
 10
41.583142
 20
22.427472
 42
-0.041822
  0
VERTEX
  8
0
 10
41.571333
 20
22.568407
 42
0.025739
  0
VERTEX
  8
0
 10
41.565597
 20
22.679761
 42
0.032455
  0
VERTEX
  8
0
 10
41.548364
 20
22.781483
 42
0.034129
  0
VERTEX
  8
0
 10
41.523405
 20
22.861901
 42
0.163445
  0
VERTEX
  8
0
 10
41.493140
 20
22.898332
 42
-0.133554
  0
VERTEX
  8
0
 10
41.455327
 20
22.938785
 42
-0.013313
  0
VERTEX
  8
0
 10
41.395988
 20
23.058698
 42
-0.016002
  0
VERTEX
  8
0
 10
41.332586
 20
23.208284
 42
-0.012053
  0
VERTEX
  8
0
 10
41.272211
 20
23.376396
 42
-0.016222
  0
VERTEX
  8
0
 10
41.193370
 20
23.642305
 42
-0.064637
  0
VERTEX
  8
0
 10
41.171921
 20
23.810683
 42
-0.061717
  0
VERTEX
  8
0
 10
41.193658
 20
23.982744
 42
-0.013950
  0
VERTEX
  8
0
 10
41.274340
 20
24.266696
 42
0.020896
  0
VERTEX
  8
0
 10
41.325931
 20
24.458351
 42
0.020996
  0
VERTEX
  8
0
 10
41.361248
 20
24.653338
 42
0.021366
  0
VERTEX
  8
0
 10
41.377555
 20
24.825435
 42
0.074550
  0
VERTEX
  8
0
 10
41.366770
 20
24.936175
 42
-0.055944
  0
VERTEX
  8
0
 10
41.352494
 20
25.041966
 42
-0.090490
  0
VERTEX
  8
0
 10
41.366755
 20
25.131396
 42
-0.086778
  0
VERTEX
  8
0
 10
41.412351
 20
25.212579
 42
-0.047840
  0
VERTEX
  8
0
 10
41.492687
 20
25.293712
 42
0.049659
  0
VERTEX
  8
0
 10
41.700924
 20
25.505544
 42
0.023275
  0
VERTEX
  8
0
 10
41.927943
 20
25.816215
 42
0.019703
  0
VERTEX
  8
0
 10
42.117679
 20
26.129101
 42
0.131548
  0
VERTEX
  8
0
 10
42.161307
 20
26.304255
 42
0.161124
  0
VERTEX
  8
0
 10
42.065266
 20
26.578394
 42
0.060019
  0
VERTEX
  8
0
 10
41.775642
 20
26.873295
 42
0.058784
  0
VERTEX
  8
0
 10
41.408321
 20
27.102104
 42
0.110361
  0
VERTEX
  8
0
 10
41.068654
 20
27.178000
 42
-0.012596
  0
VERTEX
  8
0
 10
40.917937
 20
27.181797
 42
-0.006243
  0
VERTEX
  8
0
 10
40.727015
 20
27.193816
 42
-0.006192
  0
VERTEX
  8
0
 10
40.529248
 20
27.211212
 42
-0.009024
  0
VERTEX
  8
0
 10
40.355484
 20
27.231842
 42
0.000000
  0
VERTEX
  8
0
 10
39.962667
 20
27.285683
 42
0.000000
  0
VERTEX
  8
0
 10
39.962667
 20
27.824508
 42
0.014257
  0
VERTEX
  8
0
 10
39.956686
 20
28.034200
 42
0.024713
  0
VERTEX
  8
0
 10
39.938174
 20
28.207460
 42
0.022554
  0
VERTEX
  8
0
 10
39.911790
 20
28.336980
 42
0.343849
  0
VERTEX
  8
0
 10
39.878000
 20
28.363333
 42
-0.148195
  0
VERTEX
  8
0
 10
39.845712
 20
28.373118
 42
-0.098894
  0
VERTEX
  8
0
 10
39.818204
 20
28.400640
 42
-0.082425
  0
VERTEX
  8
0
 10
39.799657
 20
28.441781
 42
-0.064853
  0
VERTEX
  8
0
 10
39.793333
 20
28.490333
 42
-0.056959
  0
VERTEX
  8
0
 10
39.798885
 20
28.538910
 42
-0.076307
  0
VERTEX
  8
0
 10
39.815303
 20
28.580027
 42
-0.095369
  0
VERTEX
  8
0
 10
39.839594
 20
28.607589
 42
-0.166062
  0
VERTEX
  8
0
 10
39.868125
 20
28.617333
 42
0.312929
  0
VERTEX
  8
0
 10
39.958766
 20
28.680220
 42
0.020176
  0
VERTEX
  8
0
 10
40.064517
 20
29.002193
 42
0.021843
  0
VERTEX
  8
0
 10
40.170572
 20
29.448463
 42
0.010506
  0
VERTEX
  8
0
 10
40.269304
 20
30.028405
 42
0.018838
  0
VERTEX
  8
0
 10
40.290869
 20
30.223753
 42
0.084991
  0
VERTEX
  8
0
 10
40.279758
 20
30.337586
 42
0.124550
  0
VERTEX
  8
0
 10
40.233943
 20
30.418595
 42
0.062589
  0
VERTEX
  8
0
 10
40.142211
 20
30.493272
 42
-0.127735
  0
VERTEX
  8
0
 10
39.996769
 20
30.646771
 42
-0.188956
  0
VERTEX
  8
0
 10
39.972848
 20
30.828529
 42
-0.125655
  0
VERTEX
  8
0
 10
40.083929
 20
31.035459
 42
-0.045864
  0
VERTEX
  8
0
 10
40.332123
 20
31.260483
 42
0.033856
  0
VERTEX
  8
0
 10
40.619092
 20
31.508391
 42
0.028504
  0
VERTEX
  8
0
 10
40.888059
 20
31.806762
 42
0.026616
  0
VERTEX
  8
0
 10
41.094502
 20
32.093861
 42
0.143520
  0
VERTEX
  8
0
 10
41.148000
 20
32.276400
 42
-0.288045
  0
VERTEX
  8
0
 10
41.240887
 20
32.424259
 42
-0.014390
  0
VERTEX
  8
0
 10
41.787137
 20
32.668335
 42
-0.021988
  0
VERTEX
  8
0
 10
42.353839
 20
32.873568
 42
-0.074442
  0
VERTEX
  8
0
 10
42.741548
 20
32.934101
 42
0.091415
  0
VERTEX
  8
0
 10
42.906931
 20
32.965666
 42
0.092260
  0
VERTEX
  8
0
 10
43.049584
 20
33.054095
 42
0.097234
  0
VERTEX
  8
0
 10
43.145392
 20
33.183308
 42
0.115326
  0
VERTEX
  8
0
 10
43.177669
 20
33.331452
 42
0.129328
  0
VERTEX
  8
0
 10
43.157114
 20
33.405052
 42
0.037779
  0
VERTEX
  8
0
 10
43.089686
 20
33.502543
 42
0.035206
  0
VERTEX
  8
0
 10
42.994081
 20
33.604963
 42
0.031331
  0
VERTEX
  8
0
 10
42.881424
 20
33.697333
 42
-0.002116
  0
VERTEX
  8
0
 10
42.753515
 20
33.790274
 42
-0.001541
  0
VERTEX
  8
0
 10
42.612041
 20
33.894660
 42
-0.001556
  0
VERTEX
  8
0
 10
42.478469
 20
33.994501
 42
-0.003423
  0
VERTEX
  8
0
 10
42.377105
 20
34.071851
 42
0.067287
  0
VERTEX
  8
0
 10
42.044188
 20
34.264375
 42
0.031575
  0
VERTEX
  8
0
 10
41.572171
 20
34.424369
 42
0.023842
  0
VERTEX
  8
0
 10
40.938621
 20
34.563385
 42
0.010500
  0
VERTEX
  8
0
 10
40.089667
 20
34.689369
 42
-0.013988
  0
VERTEX
  8
0
 10
39.953800
 20
34.710501
 42
-0.016101
  0
VERTEX
  8
0
 10
39.825613
 20
34.738423
 42
-0.015314
  0
VERTEX
  8
0
 10
39.719182
 20
34.768717
 42
-0.084253
  0
VERTEX
  8
0
 10
39.666333
 20
34.795965
 42
0.085712
  0
VERTEX
  8
0
 10
39.611880
 20
34.823840
 42
0.013219
  0
VERTEX
  8
0
 10
39.494619
 20
34.857013
 42
0.014422
  0
VERTEX
  8
0
 10
39.352746
 20
34.888800
 42
0.012084
  0
VERTEX
  8
0
 10
39.200667
 20
34.914499
 42
-0.013569
  0
VERTEX
  8
0
 10
38.775129
 20
34.987710
 42
-0.017102
  0
VERTEX
  8
0
 10
38.386154
 20
35.079489
 42
-0.009965
  0
VERTEX
  8
0
 10
38.060989
 20
35.175051
 42
-0.327240
  0
VERTEX
  8
0
 10
38.015333
 20
35.237340
 42
0.298090
  0
VERTEX
  8
0
 10
37.997932
 20
35.263933
 42
0.042780
  0
VERTEX
  8
0
 10
37.933260
 20
35.285831
 42
0.037072
  0
VERTEX
  8
0
 10
37.843011
 20
35.301031
 42
0.023191
  0
VERTEX
  8
0
 10
37.735933
 20
35.306000
 42
-0.024710
  0
VERTEX
  8
0
 10
37.623073
 20
35.311581
 42
-0.027240
  0
VERTEX
  8
0
 10
37.514980
 20
35.328281
 42
-0.028097
  0
VERTEX
  8
0
 10
37.425208
 20
35.352541
 42
-0.109427
  0
VERTEX
  8
0
 10
37.376100
 20
35.381851
 42
0.143577
  0
VERTEX
  8
0
 10
37.264989
 20
35.438415
 42
0.004720
  0
VERTEX
  8
0
 10
36.769611
 20
35.526633
 42
0.008448
  0
VERTEX
  8
0
 10
36.165628
 20
35.617852
 42
0.005210
  0
VERTEX
  8
0
 10
35.452401
 20
35.705721
 42
-0.015576
  0
VERTEX
  8
0
 10
35.294368
 20
35.728525
 42
-0.021204
  0
VERTEX
  8
0
 10
35.153739
 20
35.759509
 42
-0.018717
  0
VERTEX
  8
0
 10
35.041871
 20
35.793709
 42
-0.172454
  0
VERTEX
  8
0
 10
35.002904
 20
35.824942
 42
0.169516
  0
VERTEX
  8
0
 10
34.967660
 20
35.853523
 42
0.031752
  0
VERTEX
  8
0
 10
34.886612
 20
35.877010
 42
0.030766
  0
VERTEX
  8
0
 10
34.783973
 20
35.893265
 42
0.023893
  0
VERTEX
  8
0
 10
34.671000
 20
35.898667
 42
-0.025307
  0
VERTEX
  8
0
 10
34.557832
 20
35.904398
 42
-0.032067
  0
VERTEX
  8
0
 10
34.454584
 20
35.921624
 42
-0.033588
  0
VERTEX
  8
0
 10
34.372988
 20
35.946559
 42
-0.164842
  0
VERTEX
  8
0
 10
34.336359
 20
35.976819
 42
0.122871
  0
VERTEX
  8
0
 10
34.301745
 20
36.010566
 42
0.027635
  0
VERTEX
  8
0
 10
34.227919
 20
36.048340
 42
0.027053
  0
VERTEX
  8
0
 10
34.135436
 20
36.083530
 42
0.023326
  0
VERTEX
  8
0
 10
34.035029
 20
36.110547
 42
-0.027631
  0
VERTEX
  8
0
 10
33.938118
 20
36.137519
 42
-0.039729
  0
VERTEX
  8
0
 10
33.856327
 20
36.172691
 42
-0.045372
  0
VERTEX
  8
0
 10
33.798363
 20
36.210354
 42
-0.229902
  0
VERTEX
  8
0
 10
33.782000
 20
36.244061
 42
0.228667
  0
VERTEX
  8
0
 10
33.767594
 20
36.273913
 42
0.074089
  0
VERTEX
  8
0
 10
33.723968
 20
36.299105
 42
0.056427
  0
VERTEX
  8
0
 10
33.660099
 20
36.316304
 42
0.037593
  0
VERTEX
  8
0
 10
33.584444
 20
36.322000
 42
-0.027734
  0
VERTEX
  8
0
 10
33.504391
 20
36.326444
 42
-0.029739
  0
VERTEX
  8
0
 10
33.427197
 20
36.339724
 42
-0.031117
  0
VERTEX
  8
0
 10
33.362882
 20
36.359059
 42
-0.108205
  0
VERTEX
  8
0
 10
33.326552
 20
36.382337
 42
0.100729
  0
VERTEX
  8
0
 10
33.203113
 20
36.464027
 42
0.008927
  0
VERTEX
  8
0
 10
32.852707
 20
36.598319
 42
0.010144
  0
VERTEX
  8
0
 10
32.499735
 20
36.718370
 42
0.076919
  0
VERTEX
  8
0
 10
32.326497
 20
36.745264
 42
-0.138852
  0
VERTEX
  8
0
 10
32.191657
 20
36.783516
 42
-0.241502
  0
VERTEX
  8
0
 10
32.132831
 20
36.880657
 42
-0.105971
  0
VERTEX
  8
0
 10
32.158056
 20
37.058906
 42
-0.020673
  0
VERTEX
  8
0
 10
32.283019
 20
37.360278
 42
0.031676
  0
VERTEX
  8
0
 10
32.476552
 20
37.857657
 42
0.027012
  0
VERTEX
  8
0
 10
32.617859
 20
38.402559
 42
0.016192
  0
VERTEX
  8
0
 10
32.747589
 20
39.170524
 42
0.003548
  0
VERTEX
  8
0
 10
32.918422
 20
40.499221
 42
0.018828
  0
VERTEX
  8
0
 10
32.946548
 20
40.836807
 42
0.010360
  0
VERTEX
  8
0
 10
32.956806
 20
41.251185
 42
0.009822
  0
VERTEX
  8
0
 10
32.949779
 20
41.701274
 42
0.009856
  0
VERTEX
  8
0
 10
32.925078
 20
42.150221
 42
0.007826
  0
VERTEX
  8
0
 10
32.818328
 20
43.328821
 42
0.020661
  0
VERTEX
  8
0
 10
32.693997
 20
44.166813
 42
0.028730
  0
VERTEX
  8
0
 10
32.537087
 20
44.791596
 42
0.051224
  0
VERTEX
  8
0
 10
32.328040
 20
45.278075
 42
-0.014490
  0
VERTEX
  8
0
 10
32.268815
 20
45.392048
 42
-0.016344
  0
VERTEX
  8
0
 10
32.218779
 20
45.504828
 42
-0.015742
  0
VERTEX
  8
0
 10
32.182602
 20
45.602895
 42
-0.080656
  0
VERTEX
  8
0
 10
32.173333
 20
45.659979
 42
0.141386
  0
VERTEX
  8
0
 10
32.133601
 20
45.797680
 42
0.003747
  0
VERTEX
  8
0
 10
31.787987
 20
46.337700
 42
0.006069
  0
VERTEX
  8
0
 10
31.444971
 20
46.851176
 42
0.068205
  0
VERTEX
  8
0
 10
31.280459
 20
47.032333
 42
-0.043984
  0
VERTEX
  8
0
 10
31.228968
 20
47.083806
 42
-0.009513
  0
VERTEX
  8
0
 10
31.149880
 20
47.181882
 42
-0.009854
  0
VERTEX
  8
0
 10
31.062431
 20
47.299358
 42
-0.009279
  0
VERTEX
  8
0
 10
30.977861
 20
47.422541
 42
0.050418
  0
VERTEX
  8
0
 10
30.751824
 20
47.699882
 42
0.011298
  0
VERTEX
  8
0
 10
30.310712
 20
48.122188
 42
0.006084
  0
VERTEX
  8
0
 10
29.840882
 20
48.541682
 42
0.178220
  0
VERTEX
  8
0
 10
29.693260
 20
48.597914
 42
-0.084148
  0
VERTEX
  8
0
 10
29.660510
 20
48.603844
 42
-0.028545
  0
VERTEX
  8
0
 10
29.615850
 20
48.622942
 42
-0.027449
  0
VERTEX
  8
0
 10
29.568004
 20
48.650086
 42
-0.028300
  0
VERTEX
  8
0
 10
29.523927
 20
48.682057
 42
0.003544
  0
VERTEX
  8
0
 10
29.204037
 20
48.939166
 42
0.015113
  0
VERTEX
  8
0
 10
29.007411
 20
49.085472
 42
0.022172
  0
VERTEX
  8
0
 10
28.873820
 20
49.170188
 42
0.130943
  0
VERTEX
  8
0
 10
28.794462
 20
49.191333
 42
-0.056655
  0
VERTEX
  8
0
 10
28.747964
 20
49.196619
 42
-0.021003
  0
VERTEX
  8
0
 10
28.684352
 20
49.214113
 42
-0.020497
  0
VERTEX
  8
0
 10
28.615925
 20
49.239197
 42
-0.023263
  0
VERTEX
  8
0
 10
28.552684
 20
49.268882
 42
0.019981
  0
VERTEX
  8
0
 10
28.300530
 20
49.389269
 42
0.013981
  0
VERTEX
  8
0
 10
28.007758
 20
49.505364
 42
0.013564
  0
VERTEX
  8
0
 10
27.696884
 20
49.609223
 42
0.014796
  0
VERTEX
  8
0
 10
27.389667
 20
49.692832
 42
-0.002608
  0
VERTEX
  8
0
 10
27.205913
 20
49.738061
 42
-0.001944
  0
VERTEX
  8
0
 10
27.003640
 20
49.789806
 42
-0.001964
  0
VERTEX
  8
0
 10
26.813324
 20
49.840080
 42
-0.004464
  0
VERTEX
  8
0
 10
26.670000
 20
49.879918
 42
0.069195
  0
VERTEX
  8
0
 10
26.269331
 20
49.937147
 42
0.008605
  0
VERTEX
  8
0
 10
25.387278
 20
49.925234
 42
0.010992
  0
VERTEX
  8
0
 10
24.465336
 20
49.876606
 42
0.022702
  0
VERTEX
  8
0
 10
23.749000
 20
49.790174
 42
0.047269
  0
VERTEX
  8
0
 10
23.215417
 20
49.648262
 42
0.014935
  0
VERTEX
  8
0
 10
22.450175
 20
49.338812
 42
0.007053
  0
VERTEX
  8
0
 10
21.683437
 20
48.988790
 42
0.289839
  0
VERTEX
  8
0
 10
21.590000
 20
48.841143
 42
-0.169386
  0
VERTEX
  8
0
 10
21.580267
 20
48.813238
 42
-0.094553
  0
VERTEX
  8
0
 10
21.552694
 20
48.789486
 42
-0.075184
  0
VERTEX
  8
0
 10
21.511581
 20
48.773424
 42
-0.055648
  0
VERTEX
  8
0
 10
21.463000
 20
48.768000
 42
0.063559
  0
VERTEX
  8
0
 10
21.414443
 20
48.761803
 42
0.081496
  0
VERTEX
  8
0
 10
21.373306
 20
48.743603
 42
0.098464
  0
VERTEX
  8
0
 10
21.345781
 20
48.716620
 42
0.150892
  0
VERTEX
  8
0
 10
21.336000
 20
48.684946
 42
-0.193444
  0
VERTEX
  8
0
 10
21.321727
 20
48.649436
 42
-0.056695
  0
VERTEX
  8
0
 10
21.275623
 20
48.611136
 42
-0.047796
  0
VERTEX
  8
0
 10
21.209143
 20
48.576153
 42
-0.035761
  0
VERTEX
  8
0
 10
21.130460
 20
48.550305
 42
0.051806
  0
VERTEX
  8
0
 10
21.047743
 20
48.520166
 42
0.045571
  0
VERTEX
  8
0
 10
20.969098
 20
48.472592
 42
0.048108
  0
VERTEX
  8
0
 10
20.905775
 20
48.415782
 42
0.092630
  0
VERTEX
  8
0
 10
20.869776
 20
48.358192
 42
-0.587751
  0
VERTEX
  8
0
 10
20.800849
 20
48.348892
 42
-0.072957
  0
VERTEX
  8
0
 10
20.708978
 20
48.518453
 42
-0.034283
  0
VERTEX
  8
0
 10
20.613265
 20
48.848397
 42
-0.020482
  0
VERTEX
  8
0
 10
20.542968
 20
49.251050
 42
0.000000
  0
VERTEX
  8
0
 10
20.488951
 20
49.658251
 42
0.000000
  0
VERTEX
  8
0
 10
20.886453
 20
49.626636
 42
0.044318
  0
VERTEX
  8
0
 10
21.351453
 20
49.630919
 42
0.032929
  0
VERTEX
  8
0
 10
21.858426
 20
49.714620
 42
0.031465
  0
VERTEX
  8
0
 10
22.375996
 20
49.870403
 42
0.030919
  0
VERTEX
  8
0
 10
22.873063
 20
50.090648
 42
-0.021630
  0
VERTEX
  8
0
 10
22.969018
 20
50.135313
 42
-0.019709
  0
VERTEX
  8
0
 10
23.071466
 20
50.173057
 42
-0.020154
  0
VERTEX
  8
0
 10
23.165704
 20
50.199471
 42
-0.058309
  0
VERTEX
  8
0
 10
23.232897
 20
50.207333
 42
0.045409
  0
VERTEX
  8
0
 10
23.284611
 20
50.212040
 42
0.065311
  0
VERTEX
  8
0
 10
23.328313
 20
50.226133
 42
0.085306
  0
VERTEX
  8
0
 10
23.357834
 20
50.246879
 42
0.199591
  0
VERTEX
  8
0
 10
23.368000
 20
50.271332
 42
-0.224551
  0
VERTEX
  8
0
 10
23.382887
 20
50.302809
 42
-0.024645
  0
VERTEX
  8
0
 10
23.448830
 20
50.351698
 42
-0.026312
  0
VERTEX
  8
0
 10
23.537756
 20
50.404530
 42
-0.018274
  0
VERTEX
  8
0
 10
23.643167
 20
50.455049
 42
0.008701
  0
VERTEX
  8
0
 10
23.751635
 20
50.504503
 42
0.011037
  0
VERTEX
  8
0
 10
23.849939
 20
50.554099
 42
0.009188
  0
VERTEX
  8
0
 10
23.930114
 20
50.598703
 42
0.084140
  0
VERTEX
  8
0
 10
23.960667
 20
50.624124
 42
-0.059486
  0
VERTEX
  8
0
 10
23.993898
 20
50.654651
 42
-0.002397
  0
VERTEX
  8
0
 10
24.127354
 20
50.749802
 42
-0.004176
  0
VERTEX
  8
0
 10
24.287186
 20
50.860620
 42
-0.002942
  0
VERTEX
  8
0
 10
24.468667
 20
50.982657
 42
0.007512
  0
VERTEX
  8
0
 10
24.855730
 20
51.248110
 42
0.013803
  0
VERTEX
  8
0
 10
25.161377
 20
51.477472
 42
0.016866
  0
VERTEX
  8
0
 10
25.396614
 20
51.677669
 42
0.035393
  0
VERTEX
  8
0
 10
25.562157
 20
51.851422
 42
-0.003803
  0
VERTEX
  8
0
 10
25.633527
 20
51.936490
 42
-0.001080
  0
VERTEX
  8
0
 10
25.745764
 20
52.067646
 42
-0.001088
  0
VERTEX
  8
0
 10
25.873150
 20
52.215203
 42
-0.001152
  0
VERTEX
  8
0
 10
25.998785
 20
52.359422
 42
0.020911
  0
VERTEX
  8
0
 10
26.563575
 20
53.061961
 42
0.041551
  0
VERTEX
  8
0
 10
26.938016
 20
53.669603
 42
0.047200
  0
VERTEX
  8
0
 10
27.176865
 20
54.276611
 42
0.036816
  0
VERTEX
  8
0
 10
27.322571
 20
54.970596
 42
0.085800
  0
VERTEX
  8
0
 10
27.311404
 20
55.265640
 42
0.039665
  0
VERTEX
  8
0
 10
27.201898
 20
55.634897
 42
0.039526
  0
VERTEX
  8
0
 10
27.032324
 20
55.989015
 42
0.072087
  0
VERTEX
  8
0
 10
26.833804
 20
56.239833
 42
0.146278
  0
VERTEX
  8
0
 10
26.624575
 20
56.345285
 42
0.039843
  0
VERTEX
  8
0
 10
26.252116
 20
56.381417
 42
0.040817
  0
VERTEX
  8
0
 10
25.860143
 20
56.356089
 42
0.084520
  0
SEQEND
  0
ENDSEC
  0
EOF
