999
DXF data, created by potrace 1.16, written by Peter Selinger 2001-2019
  0
SECTION
  2
HEADER
  9
$ACADVER
  1
AC1006
  9
$EXTMIN
 10
0.000000
 20
0.000000
 30
0.000000
  9
$EXTMAX
 10
14.647333
 20
26.246667
 30
0.000000
  0
ENDSEC
  0
SECTION
  2
ENTITIES
  0
POLYLINE
  8
0
 66
1
 70
1
  0
VERTEX
  8
0
 10
5.884333
 20
25.315333
 42
-0.159549
  0
VERTEX
  8
0
 10
5.845527
 20
25.282595
 42
-0.035618
  0
VERTEX
  8
0
 10
5.761968
 20
25.255537
 42
-0.033535
  0
VERTEX
  8
0
 10
5.656400
 20
25.236883
 42
-0.026971
  0
VERTEX
  8
0
 10
5.541251
 20
25.230667
 42
0.062086
  0
VERTEX
  8
0
 10
5.279721
 20
25.198067
 42
0.026599
  0
VERTEX
  8
0
 10
4.942897
 20
25.093428
 42
0.018790
  0
VERTEX
  8
0
 10
4.631483
 20
24.964702
 42
0.293315
  0
VERTEX
  8
0
 10
4.572000
 20
24.872027
 42
-0.212964
  0
VERTEX
  8
0
 10
4.560961
 20
24.847284
 42
-0.080370
  0
VERTEX
  8
0
 10
4.528358
 20
24.826337
 42
-0.061151
  0
VERTEX
  8
0
 10
4.480313
 20
24.812076
 42
-0.041620
  0
VERTEX
  8
0
 10
4.423431
 20
24.807333
 42
0.188440
  0
VERTEX
  8
0
 10
4.242157
 20
24.736500
 42
0.012885
  0
VERTEX
  8
0
 10
3.838918
 20
24.344871
 42
0.013079
  0
VERTEX
  8
0
 10
3.456909
 20
23.933230
 42
0.182466
  0
VERTEX
  8
0
 10
3.386667
 20
23.747160
 42
-0.065852
  0
VERTEX
  8
0
 10
3.380338
 20
23.699314
 42
-0.083123
  0
VERTEX
  8
0
 10
3.361796
 20
23.658766
 42
-0.099191
  0
VERTEX
  8
0
 10
3.334287
 20
23.631645
 42
-0.146169
  0
VERTEX
  8
0
 10
3.302000
 20
23.622000
 42
0.191087
  0
VERTEX
  8
0
 10
3.269667
 20
23.609175
 42
0.088204
  0
VERTEX
  8
0
 10
3.242204
 20
23.572258
 42
0.068025
  0
VERTEX
  8
0
 10
3.223573
 20
23.517472
 42
0.048028
  0
VERTEX
  8
0
 10
3.217333
 20
23.452667
 42
-0.048028
  0
VERTEX
  8
0
 10
3.211094
 20
23.387861
 42
-0.068025
  0
VERTEX
  8
0
 10
3.192462
 20
23.333075
 42
-0.088204
  0
VERTEX
  8
0
 10
3.164999
 20
23.296158
 42
-0.191087
  0
VERTEX
  8
0
 10
3.132667
 20
23.283333
 42
0.109094
  0
VERTEX
  8
0
 10
3.100366
 20
23.276201
 42
0.099783
  0
VERTEX
  8
0
 10
3.072871
 20
23.256004
 42
0.095291
  0
VERTEX
  8
0
 10
3.054433
 20
23.225816
 42
0.089817
  0
VERTEX
  8
0
 10
3.048000
 20
23.190296
 42
-0.096413
  0
VERTEX
  8
0
 10
3.025767
 20
23.076067
 42
-0.008287
  0
VERTEX
  8
0
 10
2.909063
 20
22.800830
 42
-0.008273
  0
VERTEX
  8
0
 10
2.783295
 20
22.529579
 42
-0.096704
  0
VERTEX
  8
0
 10
2.713610
 20
22.436667
 42
0.127193
  0
VERTEX
  8
0
 10
2.555259
 20
22.196697
 42
0.002698
  0
VERTEX
  8
0
 10
2.099042
 20
20.842122
 42
0.003951
  0
VERTEX
  8
0
 10
1.673684
 20
19.521364
 42
0.076063
  0
VERTEX
  8
0
 10
1.608667
 20
19.096443
 42
-0.046241
  0
VERTEX
  8
0
 10
1.602953
 20
19.034795
 42
-0.023581
  0
VERTEX
  8
0
 10
1.585056
 20
18.959037
 42
-0.023210
  0
VERTEX
  8
0
 10
1.559073
 20
18.882064
 42
-0.032098
  0
VERTEX
  8
0
 10
1.528291
 20
18.816018
 42
0.067864
  0
VERTEX
  8
0
 10
1.463841
 20
18.647250
 42
0.006936
  0
VERTEX
  8
0
 10
1.372204
 20
18.228425
 42
0.009039
  0
VERTEX
  8
0
 10
1.283096
 20
17.748151
 42
0.009448
  0
VERTEX
  8
0
 10
1.212847
 20
17.272000
 42
-0.015724
  0
VERTEX
  8
0
 10
1.192660
 20
17.146134
 42
-0.012859
  0
VERTEX
  8
0
 10
1.163415
 20
17.012973
 42
-0.013060
  0
VERTEX
  8
0
 10
1.130139
 20
16.891808
 42
-0.033028
  0
VERTEX
  8
0
 10
1.097949
 20
16.806333
 42
0.091821
  0
VERTEX
  8
0
 10
0.990171
 20
16.371708
 42
0.003939
  0
VERTEX
  8
0
 10
0.907782
 20
14.790845
 42
0.002152
  0
VERTEX
  8
0
 10
0.841886
 20
13.139710
 42
0.208177
  0
VERTEX
  8
0
 10
0.926321
 20
12.925146
 42
-0.107049
  0
VERTEX
  8
0
 10
0.960908
 20
12.871435
 42
-0.031474
  0
VERTEX
  8
0
 10
0.989657
 20
12.777130
 42
-0.030034
  0
VERTEX
  8
0
 10
1.009394
 20
12.664129
 42
-0.028225
  0
VERTEX
  8
0
 10
1.016000
 20
12.547196
 42
0.087220
  0
VERTEX
  8
0
 10
1.078066
 20
12.194103
 42
0.040283
  0
VERTEX
  8
0
 10
1.272478
 20
11.768538
 42
0.035721
  0
VERTEX
  8
0
 10
1.571174
 20
11.313083
 42
0.028287
  0
VERTEX
  8
0
 10
1.954379
 20
10.865828
 42
0.000000
  0
VERTEX
  8
0
 10
2.455333
 20
10.343990
 42
0.000000
  0
VERTEX
  8
0
 10
2.448189
 20
9.468828
 42
-0.007095
  0
VERTEX
  8
0
 10
2.439934
 20
9.099619
 42
-0.006209
  0
VERTEX
  8
0
 10
2.421036
 20
8.713956
 42
-0.006253
  0
VERTEX
  8
0
 10
2.395277
 20
8.365942
 42
-0.018462
  0
VERTEX
  8
0
 10
2.365787
 20
8.128000
 42
0.000854
  0
VERTEX
  8
0
 10
2.333328
 20
7.924954
 42
0.000627
  0
VERTEX
  8
0
 10
2.297994
 20
7.699640
 42
0.000633
  0
VERTEX
  8
0
 10
2.265083
 20
7.486270
 42
0.001408
  0
VERTEX
  8
0
 10
2.240682
 20
7.323667
 42
-0.012116
  0
VERTEX
  8
0
 10
2.216238
 20
7.181587
 42
-0.010686
  0
VERTEX
  8
0
 10
2.184021
 20
7.034742
 42
-0.010798
  0
VERTEX
  8
0
 10
2.149282
 20
6.903597
 42
-0.031683
  0
VERTEX
  8
0
 10
2.117794
 20
6.815667
 42
0.039450
  0
VERTEX
  8
0
 10
2.019143
 20
6.526110
 42
0.032298
  0
VERTEX
  8
0
 10
1.958993
 20
6.204569
 42
0.022633
  0
VERTEX
  8
0
 10
1.927386
 20
5.784498
 42
0.007444
  0
VERTEX
  8
0
 10
1.918117
 20
5.164667
 42
0.026106
  0
VERTEX
  8
0
 10
1.971914
 20
4.133715
 42
0.066409
  0
VERTEX
  8
0
 10
2.147427
 20
3.406937
 42
0.070781
  0
VERTEX
  8
0
 10
2.499459
 20
2.778925
 42
0.032898
  0
VERTEX
  8
0
 10
3.115497
 20
2.073709
 42
0.004579
  0
VERTEX
  8
0
 10
3.359698
 20
1.833162
 42
0.007199
  0
VERTEX
  8
0
 10
3.574288
 20
1.631518
 42
0.002608
  0
VERTEX
  8
0
 10
3.761042
 20
1.462804
 42
0.214236
  0
VERTEX
  8
0
 10
3.797272
 20
1.451303
 42
-0.098290
  0
VERTEX
  8
0
 10
3.909109
 20
1.442197
 42
-0.034010
  0
VERTEX
  8
0
 10
4.062265
 20
1.387125
 42
-0.028932
  0
VERTEX
  8
0
 10
4.200999
 20
1.316472
 42
-0.266535
  0
VERTEX
  8
0
 10
4.233333
 20
1.260125
 42
0.196902
  0
VERTEX
  8
0
 10
4.245039
 20
1.231554
 42
0.086244
  0
VERTEX
  8
0
 10
4.278930
 20
1.207303
 42
0.066164
  0
VERTEX
  8
0
 10
4.329144
 20
1.190837
 42
0.046218
  0
VERTEX
  8
0
 10
4.388556
 20
1.185333
 42
-0.036444
  0
VERTEX
  8
0
 10
4.452632
 20
1.180657
 42
-0.034140
  0
VERTEX
  8
0
 10
4.516801
 20
1.166713
 42
-0.035980
  0
VERTEX
  8
0
 10
4.571990
 20
1.146308
 42
-0.090073
  0
VERTEX
  8
0
 10
4.607165
 20
1.121946
 42
0.149056
  0
VERTEX
  8
0
 10
4.738806
 20
1.051821
 42
0.006560
  0
VERTEX
  8
0
 10
5.254995
 20
0.957670
 42
0.012106
  0
VERTEX
  8
0
 10
5.783970
 20
0.881462
 42
0.025522
  0
VERTEX
  8
0
 10
6.197666
 20
0.853355
 42
0.031730
  0
VERTEX
  8
0
 10
6.568556
 20
0.870664
 42
0.018539
  0
VERTEX
  8
0
 10
7.008872
 20
0.935927
 42
0.014256
  0
VERTEX
  8
0
 10
7.415211
 20
1.023697
 42
0.129049
  0
VERTEX
  8
0
 10
7.573433
 20
1.109708
 42
-0.073713
  0
VERTEX
  8
0
 10
7.615171
 20
1.138720
 42
-0.036572
  0
VERTEX
  8
0
 10
7.675007
 20
1.163118
 42
-0.035299
  0
VERTEX
  8
0
 10
7.742015
 20
1.179764
 42
-0.043257
  0
VERTEX
  8
0
 10
7.806267
 20
1.185333
 42
0.053595
  0
VERTEX
  8
0
 10
7.864571
 20
1.191601
 42
0.073362
  0
VERTEX
  8
0
 10
7.913899
 20
1.210204
 42
0.093122
  0
VERTEX
  8
0
 10
7.947014
 20
1.237692
 42
0.174820
  0
VERTEX
  8
0
 10
7.958667
 20
1.270000
 42
-0.126387
  0
VERTEX
  8
0
 10
7.966961
 20
1.302289
 42
-0.100770
  0
VERTEX
  8
0
 10
7.990306
 20
1.329796
 42
-0.089862
  0
VERTEX
  8
0
 10
8.025227
 20
1.348286
 42
-0.077077
  0
VERTEX
  8
0
 10
8.066376
 20
1.354667
 42
0.166701
  0
VERTEX
  8
0
 10
8.260248
 20
1.421152
 42
0.033620
  0
VERTEX
  8
0
 10
8.536248
 20
1.667130
 42
0.035058
  0
VERTEX
  8
0
 10
8.806706
 20
1.984637
 42
0.045143
  0
VERTEX
  8
0
 10
9.005403
 20
2.312211
 42
0.006528
  0
VERTEX
  8
0
 10
9.090921
 20
2.492942
 42
0.008857
  0
VERTEX
  8
0
 10
9.163083
 20
2.658435
 42
0.006321
  0
VERTEX
  8
0
 10
9.218991
 20
2.798071
 42
0.092308
  0
VERTEX
  8
0
 10
9.228667
 20
2.850036
 42
-0.084805
  0
VERTEX
  8
0
 10
9.237116
 20
2.899496
 42
-0.008796
  0
VERTEX
  8
0
 10
9.278408
 20
3.010543
 42
-0.010732
  0
VERTEX
  8
0
 10
9.333154
 20
3.141834
 42
-0.008390
  0
VERTEX
  8
0
 10
9.398000
 20
3.282007
 42
0.009233
  0
VERTEX
  8
0
 10
9.462841
 20
3.422791
 42
0.011516
  0
VERTEX
  8
0
 10
9.517592
 20
3.555943
 42
0.009850
  0
VERTEX
  8
0
 10
9.558490
 20
3.668900
 42
0.082105
  0
VERTEX
  8
0
 10
9.567333
 20
3.722392
 42
-0.056053
  0
VERTEX
  8
0
 10
9.572346
 20
3.766961
 42
-0.019818
  0
VERTEX
  8
0
 10
9.589109
 20
3.829074
 42
-0.019383
  0
VERTEX
  8
0
 10
9.613087
 20
3.896431
 42
-0.021569
  0
VERTEX
  8
0
 10
9.641464
 20
3.959316
 42
0.027787
  0
VERTEX
  8
0
 10
9.679274
 20
4.045963
 42
0.004945
  0
VERTEX
  8
0
 10
9.739268
 20
4.212372
 42
0.005334
  0
VERTEX
  8
0
 10
9.805644
 20
4.409064
 42
0.004787
  0
VERTEX
  8
0
 10
9.870317
 20
4.614333
 42
-0.003374
  0
VERTEX
  8
0
 10
9.933897
 20
4.818141
 42
-0.003961
  0
VERTEX
  8
0
 10
9.996988
 20
5.010415
 42
-0.003493
  0
VERTEX
  8
0
 10
10.052697
 20
5.172016
 42
-0.024360
  0
VERTEX
  8
0
 10
10.084268
 20
5.249333
 42
0.026211
  0
VERTEX
  8
0
 10
10.112700
 20
5.319708
 42
0.006404
  0
VERTEX
  8
0
 10
10.151906
 20
5.438510
 42
0.006544
  0
VERTEX
  8
0
 10
10.193371
 20
5.576028
 42
0.006485
  0
VERTEX
  8
0
 10
10.231353
 20
5.715000
 42
-0.004761
  0
VERTEX
  8
0
 10
10.349147
 20
6.151905
 42
-0.004732
  0
VERTEX
  8
0
 10
10.475470
 20
6.587379
 42
-0.004205
  0
VERTEX
  8
0
 10
10.591973
 20
6.963726
 42
-0.025624
  0
VERTEX
  8
0
 10
10.663686
 20
7.154333
 42
0.023817
  0
VERTEX
  8
0
 10
10.770221
 20
7.434418
 42
0.010308
  0
VERTEX
  8
0
 10
10.886306
 20
7.816131
 42
0.008365
  0
VERTEX
  8
0
 10
10.984417
 20
8.188113
 42
0.060361
  0
VERTEX
  8
0
 10
11.006667
 20
8.371745
 42
-0.045499
  0
VERTEX
  8
0
 10
11.012936
 20
8.440501
 42
-0.045682
  0
VERTEX
  8
0
 10
11.031537
 20
8.506892
 42
-0.049716
  0
VERTEX
  8
0
 10
11.058850
 20
8.561493
 42
-0.114003
  0
VERTEX
  8
0
 10
11.091333
 20
8.593667
 42
0.128561
  0
VERTEX
  8
0
 10
11.123878
 20
8.627805
 42
0.046040
  0
VERTEX
  8
0
 10
11.151129
 20
8.689864
 42
0.041947
  0
VERTEX
  8
0
 10
11.169746
 20
8.766634
 42
0.038534
  0
VERTEX
  8
0
 10
11.176000
 20
8.847667
 42
-0.035283
  0
VERTEX
  8
0
 10
11.181702
 20
8.928367
 42
-0.039878
  0
VERTEX
  8
0
 10
11.198707
 20
9.004132
 42
-0.043714
  0
VERTEX
  8
0
 10
11.223550
 20
9.064938
 42
-0.136329
  0
VERTEX
  8
0
 10
11.253300
 20
9.097114
 42
0.149260
  0
VERTEX
  8
0
 10
11.286673
 20
9.135097
 42
0.022428
  0
VERTEX
  8
0
 10
11.324714
 20
9.230419
 42
0.023519
  0
VERTEX
  8
0
 10
11.360279
 20
9.350551
 42
0.018360
  0
VERTEX
  8
0
 10
11.387864
 20
9.483834
 42
-0.018202
  0
VERTEX
  8
0
 10
11.421162
 20
9.644980
 42
-0.008272
  0
VERTEX
  8
0
 10
11.475827
 20
9.853223
 42
-0.008178
  0
VERTEX
  8
0
 10
11.540761
 20
10.071132
 42
-0.011116
  0
VERTEX
  8
0
 10
11.606898
 20
10.265362
 42
0.012182
  0
VERTEX
  8
0
 10
11.668822
 20
10.448498
 42
0.012521
  0
VERTEX
  8
0
 10
11.721147
 20
10.632777
 42
0.012338
  0
VERTEX
  8
0
 10
11.758513
 20
10.794586
 42
0.050611
  0
VERTEX
  8
0
 10
11.768667
 20
10.894641
 42
-0.038021
  0
VERTEX
  8
0
 10
11.774376
 20
10.969609
 42
-0.041635
  0
VERTEX
  8
0
 10
11.791373
 20
11.040531
 42
-0.045701
  0
VERTEX
  8
0
 10
11.816248
 20
11.097795
 42
-0.129743
  0
VERTEX
  8
0
 10
11.845966
 20
11.129114
 42
0.155545
  0
VERTEX
  8
0
 10
11.879174
 20
11.167858
 42
0.021533
  0
VERTEX
  8
0
 10
11.916676
 20
11.268425
 42
0.022975
  0
VERTEX
  8
0
 10
11.951468
 20
11.395160
 42
0.017625
  0
VERTEX
  8
0
 10
11.978130
 20
11.536277
 42
-0.015670
  0
VERTEX
  8
0
 10
12.023769
 20
11.783117
 42
-0.016385
  0
VERTEX
  8
0
 10
12.084220
 20
12.022927
 42
-0.014831
  0
VERTEX
  8
0
 10
12.165823
 20
12.278238
 42
-0.009206
  0
VERTEX
  8
0
 10
12.275908
 20
12.573000
 42
0.028291
  0
VERTEX
  8
0
 10
12.309974
 20
12.676045
 42
0.004034
  0
VERTEX
  8
0
 10
12.366070
 20
12.891558
 42
0.004578
  0
VERTEX
  8
0
 10
12.428105
 20
13.147923
 42
0.003890
  0
VERTEX
  8
0
 10
12.489009
 20
13.419667
 42
-0.004179
  0
VERTEX
  8
0
 10
12.550492
 20
13.693247
 42
-0.004703
  0
VERTEX
  8
0
 10
12.614261
 20
13.955163
 42
-0.004322
  0
VERTEX
  8
0
 10
12.672515
 20
14.176934
 42
-0.025292
  0
VERTEX
  8
0
 10
12.709979
 20
14.291484
 42
0.023837
  0
VERTEX
  8
0
 10
12.738589
 20
14.378108
 42
0.016829
  0
VERTEX
  8
0
 10
12.762727
 20
14.477747
 42
0.017033
  0
VERTEX
  8
0
 10
12.779380
 20
14.574784
 42
0.033987
  0
VERTEX
  8
0
 10
12.784667
 20
14.652466
 42
-0.036214
  0
VERTEX
  8
0
 10
12.790065
 20
14.726907
 42
-0.022287
  0
VERTEX
  8
0
 10
12.806612
 20
14.813242
 42
-0.022302
  0
VERTEX
  8
0
 10
12.830738
 20
14.897609
 42
-0.036774
  0
VERTEX
  8
0
 10
12.859375
 20
14.965982
 42
0.030155
  0
VERTEX
  8
0
 10
12.894576
 20
15.047002
 42
0.007773
  0
VERTEX
  8
0
 10
12.941331
 20
15.181732
 42
0.007883
  0
VERTEX
  8
0
 10
12.989932
 20
15.337352
 42
0.007948
  0
VERTEX
  8
0
 10
13.033463
 20
15.494000
 42
0.000578
  0
VERTEX
  8
0
 10
13.164626
 20
15.999237
 42
0.002408
  0
VERTEX
  8
0
 10
13.241841
 20
16.304144
 42
0.003910
  0
VERTEX
  8
0
 10
13.294624
 20
16.524218
 42
0.005476
  0
VERTEX
  8
0
 10
13.338077
 20
16.721667
 42
-0.008043
  0
VERTEX
  8
0
 10
13.362102
 20
16.828226
 42
-0.007127
  0
VERTEX
  8
0
 10
13.390470
 20
16.938360
 42
-0.007173
  0
VERTEX
  8
0
 10
13.418850
 20
17.036799
 42
-0.021639
  0
VERTEX
  8
0
 10
13.442025
 20
17.102667
 42
0.041141
  0
VERTEX
  8
0
 10
13.564331
 20
17.498970
 42
0.018081
  0
VERTEX
  8
0
 10
13.663217
 20
18.039477
 42
0.016149
  0
VERTEX
  8
0
 10
13.735508
 20
18.679373
 42
0.012042
  0
VERTEX
  8
0
 10
13.775354
 20
19.388667
 42
0.015921
  0
VERTEX
  8
0
 10
13.775519
 20
20.241021
 42
0.043938
  0
VERTEX
  8
0
 10
13.704017
 20
20.836686
 42
0.054884
  0
VERTEX
  8
0
 10
13.541747
 20
21.331413
 42
0.038770
  0
VERTEX
  8
0
 10
13.258983
 20
21.844000
 42
0.038708
  0
VERTEX
  8
0
 10
12.937720
 20
22.258814
 42
0.009087
  0
VERTEX
  8
0
 10
12.335799
 20
22.899089
 42
0.003742
  0
VERTEX
  8
0
 10
11.685894
 20
23.555798
 42
0.198321
  0
VERTEX
  8
0
 10
11.525552
 20
23.622000
 42
-0.065167
  0
VERTEX
  8
0
 10
11.489023
 20
23.626781
 42
-0.082646
  0
VERTEX
  8
0
 10
11.458069
 20
23.640799
 42
-0.098991
  0
VERTEX
  8
0
 10
11.437362
 20
23.661591
 42
-0.147552
  0
VERTEX
  8
0
 10
11.430000
 20
23.685997
 42
0.221173
  0
VERTEX
  8
0
 10
11.412774
 20
23.723034
 42
0.007060
  0
VERTEX
  8
0
 10
11.281461
 20
23.830532
 42
0.012439
  0
VERTEX
  8
0
 10
11.118123
 20
23.953932
 42
0.008169
  0
VERTEX
  8
0
 10
10.924335
 20
24.088163
 42
-0.007904
  0
VERTEX
  8
0
 10
10.730382
 20
24.222357
 42
-0.011993
  0
VERTEX
  8
0
 10
10.566523
 20
24.345649
 42
-0.006736
  0
VERTEX
  8
0
 10
10.434351
 20
24.453081
 42
-0.212635
  0
VERTEX
  8
0
 10
10.416335
 20
24.489833
 42
0.148737
  0
VERTEX
  8
0
 10
10.407981
 20
24.514060
 42
0.094389
  0
VERTEX
  8
0
 10
10.386076
 20
24.534680
 42
0.078913
  0
VERTEX
  8
0
 10
10.354017
 20
24.548595
 42
0.063080
  0
VERTEX
  8
0
 10
10.316606
 20
24.553333
 42
-0.083536
  0
VERTEX
  8
0
 10
10.257102
 20
24.563345
 42
-0.008335
  0
VERTEX
  8
0
 10
10.120988
 20
24.613037
 42
-0.010300
  0
VERTEX
  8
0
 10
9.959907
 20
24.678744
 42
-0.008010
  0
VERTEX
  8
0
 10
9.787439
 20
24.756579
 42
0.014792
  0
VERTEX
  8
0
 10
9.325108
 20
24.957726
 42
0.031591
  0
VERTEX
  8
0
 10
8.955241
 20
25.079324
 42
0.031304
  0
VERTEX
  8
0
 10
8.570893
 20
25.153991
 42
0.014268
  0
VERTEX
  8
0
 10
8.061598
 20
25.205481
 42
-0.009091
  0
VERTEX
  8
0
 10
7.789604
 20
25.230138
 42
-0.013596
  0
VERTEX
  8
0
 10
7.553182
 20
25.262437
 42
-0.008497
  0
VERTEX
  8
0
 10
7.359626
 20
25.297651
 42
-0.207991
  0
VERTEX
  8
0
 10
7.315768
 20
25.328114
 42
0.254615
  0
VERTEX
  8
0
 10
7.198595
 20
25.394983
 42
0.007220
  0
VERTEX
  8
0
 10
6.600312
 20
25.398280
 42
0.007285
  0
VERTEX
  8
0
 10
6.002561
 20
25.384231
 42
0.249798
  0
SEQEND
  0
ENDSEC
  0
EOF
