999
DXF data, created by potrace 1.16, written by Peter Selinger 2001-2019
  0
SECTION
  2
HEADER
  9
$ACADVER
  1
AC1006
  9
$EXTMIN
 10
0.000000
 20
0.000000
 30
0.000000
  9
$EXTMAX
 10
34.205333
 20
66.632667
 30
0.000000
  0
ENDSEC
  0
SECTION
  2
ENTITIES
  0
POLYLINE
  8
0
 66
1
 70
1
  0
VERTEX
  8
0
 10
14.986000
 20
65.695003
 42
0.006685
  0
VERTEX
  8
0
 10
14.714965
 20
65.664468
 42
0.005446
  0
VERTEX
  8
0
 10
14.425612
 20
65.624740
 42
0.005506
  0
VERTEX
  8
0
 10
14.159946
 20
65.582316
 42
0.014306
  0
VERTEX
  8
0
 10
13.970000
 20
65.544213
 42
-0.003253
  0
VERTEX
  8
0
 10
13.790830
 20
65.504132
 42
-0.001635
  0
VERTEX
  8
0
 10
13.564129
 20
65.455741
 42
-0.001623
  0
VERTEX
  8
0
 10
13.329395
 20
65.407232
 42
-0.002406
  0
VERTEX
  8
0
 10
13.123333
 20
65.366377
 42
0.008018
  0
VERTEX
  8
0
 10
12.741130
 20
65.286132
 42
0.008565
  0
VERTEX
  8
0
 10
12.370062
 20
65.195281
 42
0.009060
  0
VERTEX
  8
0
 10
12.044784
 20
65.103376
 42
0.022388
  0
VERTEX
  8
0
 10
11.811000
 20
65.021138
 42
-0.007195
  0
VERTEX
  8
0
 10
11.385023
 20
64.856588
 42
-0.005408
  0
VERTEX
  8
0
 10
10.911981
 20
64.687431
 42
-0.002471
  0
VERTEX
  8
0
 10
10.461820
 20
64.534413
 42
-0.080856
  0
VERTEX
  8
0
 10
10.348704
 20
64.516000
 42
0.079928
  0
VERTEX
  8
0
 10
10.308964
 20
64.509607
 42
0.091270
  0
VERTEX
  8
0
 10
10.275228
 20
64.491129
 42
0.100755
  0
VERTEX
  8
0
 10
10.252672
 20
64.463625
 42
0.122108
  0
VERTEX
  8
0
 10
10.244667
 20
64.431333
 42
-0.122787
  0
VERTEX
  8
0
 10
10.236615
 20
64.399042
 42
-0.100767
  0
VERTEX
  8
0
 10
10.213935
 20
64.371538
 42
-0.091049
  0
VERTEX
  8
0
 10
10.180011
 20
64.353058
 42
-0.079464
  0
VERTEX
  8
0
 10
10.140049
 20
64.346667
 42
0.106395
  0
VERTEX
  8
0
 10
10.011828
 20
64.319070
 42
0.004529
  0
VERTEX
  8
0
 10
9.588800
 20
64.123501
 42
0.004862
  0
VERTEX
  8
0
 10
9.171918
 20
63.921185
 42
0.095882
  0
VERTEX
  8
0
 10
9.059333
 20
63.835112
 42
-0.074427
  0
VERTEX
  8
0
 10
9.028540
 20
63.809420
 42
-0.006804
  0
VERTEX
  8
0
 10
8.942388
 20
63.758578
 42
-0.008681
  0
VERTEX
  8
0
 10
8.837246
 20
63.700842
 42
-0.006692
  0
VERTEX
  8
0
 10
8.720667
 20
63.641415
 42
0.007963
  0
VERTEX
  8
0
 10
8.513929
 20
63.535365
 42
0.009784
  0
VERTEX
  8
0
 10
8.324565
 20
63.429576
 42
0.010589
  0
VERTEX
  8
0
 10
8.154387
 20
63.325191
 42
0.014367
  0
VERTEX
  8
0
 10
8.005621
 20
63.223390
 42
0.009162
  0
VERTEX
  8
0
 10
6.989372
 20
62.455358
 42
0.016655
  0
VERTEX
  8
0
 10
6.192388
 20
61.785696
 42
0.019311
  0
VERTEX
  8
0
 10
5.528345
 20
61.140857
 42
0.019896
  0
VERTEX
  8
0
 10
4.922908
 20
60.452877
 42
-0.002015
  0
VERTEX
  8
0
 10
4.793790
 20
60.295124
 42
-0.001906
  0
VERTEX
  8
0
 10
4.661007
 20
60.135465
 42
-0.001892
  0
VERTEX
  8
0
 10
4.542398
 20
59.995032
 42
-0.006680
  0
VERTEX
  8
0
 10
4.464648
 20
59.906115
 42
0.024894
  0
VERTEX
  8
0
 10
4.385227
 20
59.808319
 42
0.004982
  0
VERTEX
  8
0
 10
4.254222
 20
59.625717
 42
0.005255
  0
VERTEX
  8
0
 10
4.105951
 20
59.409852
 42
0.004881
  0
VERTEX
  8
0
 10
3.958500
 20
59.185571
 42
-0.002014
  0
VERTEX
  8
0
 10
3.818710
 20
58.970262
 42
-0.002945
  0
VERTEX
  8
0
 10
3.693769
 20
58.781941
 42
-0.001430
  0
VERTEX
  8
0
 10
3.586213
 20
58.622862
 42
-0.052405
  0
VERTEX
  8
0
 10
3.557852
 20
58.589333
 42
0.050395
  0
VERTEX
  8
0
 10
3.535335
 20
58.562928
 42
0.009339
  0
VERTEX
  8
0
 10
3.499944
 20
58.509694
 42
0.009931
  0
VERTEX
  8
0
 10
3.460808
 20
58.445600
 42
0.008912
  0
VERTEX
  8
0
 10
3.422765
 20
58.377667
 42
-0.002146
  0
VERTEX
  8
0
 10
3.241502
 20
58.043457
 42
-0.005418
  0
VERTEX
  8
0
 10
3.105942
 20
57.802291
 42
-0.004400
  0
VERTEX
  8
0
 10
3.002134
 20
57.625818
 42
-0.073232
  0
VERTEX
  8
0
 10
2.959105
 20
57.573333
 42
0.098106
  0
VERTEX
  8
0
 10
2.885691
 20
57.474182
 42
0.003328
  0
VERTEX
  8
0
 10
2.680116
 20
57.031900
 42
0.003179
  0
VERTEX
  8
0
 10
2.479593
 20
56.585376
 42
0.104308
  0
VERTEX
  8
0
 10
2.455333
 20
56.470352
 42
-0.089635
  0
VERTEX
  8
0
 10
2.449651
 20
56.438911
 42
-0.095229
  0
VERTEX
  8
0
 10
2.433362
 20
56.412191
 42
-0.099811
  0
VERTEX
  8
0
 10
2.409072
 20
56.394314
 42
-0.109311
  0
VERTEX
  8
0
 10
2.380537
 20
56.388000
 42
0.199076
  0
VERTEX
  8
0
 10
2.348715
 20
56.374807
 42
0.056641
  0
VERTEX
  8
0
 10
2.314721
 20
56.332041
 42
0.047557
  0
VERTEX
  8
0
 10
2.283935
 20
56.270431
 42
0.035077
  0
VERTEX
  8
0
 10
2.261516
 20
56.197500
 42
-0.023822
  0
VERTEX
  8
0
 10
2.208591
 20
56.010455
 42
-0.002734
  0
VERTEX
  8
0
 10
2.067240
 20
55.596224
 42
-0.003578
  0
VERTEX
  8
0
 10
1.916576
 20
55.172288
 42
-0.008824
  0
VERTEX
  8
0
 10
1.798321
 20
54.864000
 42
0.026782
  0
VERTEX
  8
0
 10
1.772345
 20
54.788255
 42
0.004300
  0
VERTEX
  8
0
 10
1.730915
 20
54.637517
 42
0.004744
  0
VERTEX
  8
0
 10
1.685289
 20
54.458929
 42
0.004147
  0
VERTEX
  8
0
 10
1.640898
 20
54.271333
 42
-0.001934
  0
VERTEX
  8
0
 10
1.550752
 20
53.882706
 42
-0.001846
  0
VERTEX
  8
0
 10
1.456209
 20
53.488676
 42
-0.001842
  0
VERTEX
  8
0
 10
1.358523
 20
53.094391
 42
-0.001901
  0
VERTEX
  8
0
 10
1.258950
 20
52.705000
 42
0.014420
  0
VERTEX
  8
0
 10
1.216710
 20
52.520707
 42
0.003595
  0
VERTEX
  8
0
 10
1.158547
 20
52.217108
 42
0.003671
  0
VERTEX
  8
0
 10
1.097026
 20
51.868652
 42
0.003682
  0
VERTEX
  8
0
 10
1.040690
 20
51.519667
 42
0.026929
  0
VERTEX
  8
0
 10
0.934862
 20
50.452423
 42
0.005846
  0
VERTEX
  8
0
 10
0.873205
 20
48.601503
 42
0.004416
  0
VERTEX
  8
0
 10
0.849379
 20
46.736622
 42
0.052098
  0
VERTEX
  8
0
 10
0.921764
 20
46.016333
 42
-0.008940
  0
VERTEX
  8
0
 10
0.961228
 20
45.807053
 42
-0.003548
  0
VERTEX
  8
0
 10
1.008229
 20
45.518387
 42
-0.003509
  0
VERTEX
  8
0
 10
1.054577
 20
45.206001
 42
-0.004399
  0
VERTEX
  8
0
 10
1.092971
 20
44.915667
 42
0.003435
  0
VERTEX
  8
0
 10
1.169058
 20
44.331634
 42
0.010859
  0
VERTEX
  8
0
 10
1.231189
 20
43.942017
 42
0.015839
  0
VERTEX
  8
0
 10
1.290101
 20
43.667677
 42
0.041139
  0
VERTEX
  8
0
 10
1.354667
 20
43.476333
 42
-0.023614
  0
VERTEX
  8
0
 10
1.385870
 20
43.393548
 42
-0.010581
  0
VERTEX
  8
0
 10
1.419370
 20
43.282129
 42
-0.010447
  0
VERTEX
  8
0
 10
1.449882
 20
43.162638
 42
-0.013973
  0
VERTEX
  8
0
 10
1.472241
 20
43.053000
 42
0.006665
  0
VERTEX
  8
0
 10
1.562665
 20
42.573951
 42
0.008922
  0
VERTEX
  8
0
 10
1.658186
 20
42.142202
 42
0.005003
  0
VERTEX
  8
0
 10
1.749692
 20
41.777118
 42
0.133759
  0
VERTEX
  8
0
 10
1.799167
 20
41.691015
 42
-0.099761
  0
VERTEX
  8
0
 10
1.823616
 20
41.654390
 42
-0.033765
  0
VERTEX
  8
0
 10
1.844013
 20
41.593296
 42
-0.032010
  0
VERTEX
  8
0
 10
1.857984
 20
41.520941
 42
-0.031697
  0
VERTEX
  8
0
 10
1.862667
 20
41.447156
 42
0.034521
  0
VERTEX
  8
0
 10
1.867855
 20
41.372102
 42
0.031349
  0
VERTEX
  8
0
 10
1.883345
 20
41.295964
 42
0.032771
  0
VERTEX
  8
0
 10
1.906002
 20
41.229579
 42
0.081306
  0
VERTEX
  8
0
 10
1.933060
 20
41.186100
 42
-0.076663
  0
VERTEX
  8
0
 10
1.966472
 20
41.133500
 42
-0.011487
  0
VERTEX
  8
0
 10
2.014193
 20
41.017375
 42
-0.012680
  0
VERTEX
  8
0
 10
2.064299
 20
40.876436
 42
-0.010636
  0
VERTEX
  8
0
 10
2.110407
 20
40.724667
 42
0.009732
  0
VERTEX
  8
0
 10
2.188814
 20
40.464896
 42
0.013838
  0
VERTEX
  8
0
 10
2.269301
 20
40.237561
 42
0.009819
  0
VERTEX
  8
0
 10
2.380922
 20
39.964134
 42
0.002517
  0
VERTEX
  8
0
 10
2.572289
 20
39.526538
 42
-0.006652
  0
VERTEX
  8
0
 10
2.624777
 20
39.403758
 42
-0.008812
  0
VERTEX
  8
0
 10
2.669077
 20
39.290572
 42
-0.006637
  0
VERTEX
  8
0
 10
2.703057
 20
39.195167
 42
-0.082408
  0
VERTEX
  8
0
 10
2.709333
 20
39.157346
 42
0.115248
  0
VERTEX
  8
0
 10
2.741508
 20
39.019612
 42
0.002414
  0
VERTEX
  8
0
 10
3.057565
 20
38.387727
 42
0.006199
  0
VERTEX
  8
0
 10
3.374413
 20
37.780628
 42
0.017042
  0
VERTEX
  8
0
 10
3.617569
 20
37.363234
 42
-0.007183
  0
VERTEX
  8
0
 10
3.723719
 20
37.189011
 42
-0.010016
  0
VERTEX
  8
0
 10
3.813269
 20
37.029967
 42
-0.006798
  0
VERTEX
  8
0
 10
3.883278
 20
36.895225
 42
-0.116925
  0
VERTEX
  8
0
 10
3.894667
 20
36.847189
 42
0.132660
  0
VERTEX
  8
0
 10
3.905139
 20
36.808412
 42
0.027370
  0
VERTEX
  8
0
 10
3.944408
 20
36.748773
 42
0.026998
  0
VERTEX
  8
0
 10
3.999176
 20
36.682550
 42
0.022567
  0
VERTEX
  8
0
 10
4.064000
 20
36.618333
 42
-0.023025
  0
VERTEX
  8
0
 10
4.128823
 20
36.554000
 42
-0.027363
  0
VERTEX
  8
0
 10
4.183592
 20
36.487429
 42
-0.027864
  0
VERTEX
  8
0
 10
4.222793
 20
36.427334
 42
-0.131322
  0
VERTEX
  8
0
 10
4.233333
 20
36.387895
 42
0.145990
  0
VERTEX
  8
0
 10
4.257135
 20
36.308115
 42
0.006065
  0
VERTEX
  8
0
 10
4.424989
 20
36.058497
 42
0.011442
  0
VERTEX
  8
0
 10
4.610576
 20
35.802351
 42
0.017636
  0
VERTEX
  8
0
 10
4.783667
 20
35.590548
 42
-0.013642
  0
VERTEX
  8
0
 10
4.827238
 20
35.538092
 42
-0.003710
  0
VERTEX
  8
0
 10
4.893204
 20
35.452821
 42
-0.003750
  0
VERTEX
  8
0
 10
4.966626
 20
35.354929
 42
-0.003891
  0
VERTEX
  8
0
 10
5.037667
 20
35.257132
 42
0.022768
  0
VERTEX
  8
0
 10
5.358297
 20
34.849069
 42
0.008375
  0
VERTEX
  8
0
 10
5.846007
 20
34.302182
 42
0.008522
  0
VERTEX
  8
0
 10
6.368035
 20
33.755196
 42
0.016018
  0
VERTEX
  8
0
 10
6.810892
 20
33.334567
 42
0.015216
  0
VERTEX
  8
0
 10
7.309147
 20
32.917274
 42
0.003228
  0
VERTEX
  8
0
 10
8.203507
 20
32.222709
 42
0.003266
  0
VERTEX
  8
0
 10
9.107744
 20
31.539114
 42
0.014579
  0
VERTEX
  8
0
 10
9.652091
 20
31.157333
 42
-0.009831
  0
VERTEX
  8
0
 10
9.742514
 20
31.095187
 42
-0.004650
  0
VERTEX
  8
0
 10
9.856780
 20
31.011680
 42
-0.004606
  0
VERTEX
  8
0
 10
9.974776
 20
30.922050
 42
-0.006492
  0
VERTEX
  8
0
 10
10.078167
 20
30.839833
 42
0.011706
  0
VERTEX
  8
0
 10
10.171906
 20
30.766874
 42
0.015566
  0
VERTEX
  8
0
 10
10.260609
 20
30.705293
 42
0.012833
  0
VERTEX
  8
0
 10
10.336463
 20
30.658781
 42
0.131853
  0
VERTEX
  8
0
 10
10.371667
 20
30.649333
 42
-0.148984
  0
VERTEX
  8
0
 10
10.428102
 20
30.632136
 42
-0.010213
  0
VERTEX
  8
0
 10
10.566430
 20
30.535041
 42
-0.010112
  0
VERTEX
  8
0
 10
10.763564
 20
30.384351
 42
-0.002806
  0
VERTEX
  8
0
 10
11.066593
 20
30.140057
 42
0.051731
  0
VERTEX
  8
0
 10
11.115272
 20
30.108113
 42
0.033374
  0
VERTEX
  8
0
 10
11.177170
 20
30.081163
 42
0.033411
  0
VERTEX
  8
0
 10
11.241967
 20
30.062732
 42
0.052630
  0
VERTEX
  8
0
 10
11.299427
 20
30.056667
 42
-0.046581
  0
VERTEX
  8
0
 10
11.349524
 20
30.051989
 42
-0.065454
  0
VERTEX
  8
0
 10
11.392138
 20
30.038014
 42
-0.084250
  0
VERTEX
  8
0
 10
11.421229
 20
30.017432
 42
-0.192451
  0
VERTEX
  8
0
 10
11.431680
 20
29.993167
 42
0.219841
  0
VERTEX
  8
0
 10
11.449029
 20
29.958084
 42
0.010205
  0
VERTEX
  8
0
 10
11.556727
 20
29.874785
 42
0.015309
  0
VERTEX
  8
0
 10
11.693318
 20
29.779863
 42
0.010234
  0
VERTEX
  8
0
 10
11.855013
 20
29.679335
 42
-0.010999
  0
VERTEX
  8
0
 10
12.016584
 20
29.578541
 42
-0.016414
  0
VERTEX
  8
0
 10
12.152806
 20
29.482807
 42
-0.011435
  0
VERTEX
  8
0
 10
12.259304
 20
29.398731
 42
-0.223527
  0
VERTEX
  8
0
 10
12.276667
 20
29.361835
 42
0.217761
  0
VERTEX
  8
0
 10
12.288417
 20
29.336135
 42
0.078502
  0
VERTEX
  8
0
 10
12.323363
 20
29.314397
 42
0.059690
  0
VERTEX
  8
0
 10
12.374766
 20
29.299586
 42
0.040346
  0
VERTEX
  8
0
 10
12.435633
 20
29.294667
 42
-0.067559
  0
VERTEX
  8
0
 10
12.504222
 20
29.285356
 42
-0.044533
  0
VERTEX
  8
0
 10
12.578864
 20
29.257360
 42
-0.044279
  0
VERTEX
  8
0
 10
12.647969
 20
29.216280
 42
-0.063393
  0
VERTEX
  8
0
 10
12.700000
 20
29.167667
 42
0.045514
  0
VERTEX
  8
0
 10
12.748427
 20
29.119074
 42
0.040659
  0
VERTEX
  8
0
 10
12.806628
 20
29.077973
 42
0.042932
  0
VERTEX
  8
0
 10
12.865414
 20
29.049736
 42
0.090741
  0
VERTEX
  8
0
 10
12.914978
 20
29.040667
 42
-0.053451
  0
VERTEX
  8
0
 10
12.958984
 20
29.035949
 42
-0.054606
  0
VERTEX
  8
0
 10
13.000657
 20
29.022014
 42
-0.060269
  0
VERTEX
  8
0
 10
13.033972
 20
29.001487
 42
-0.120574
  0
VERTEX
  8
0
 10
13.052778
 20
28.977167
 42
0.126761
  0
VERTEX
  8
0
 10
13.083238
 20
28.938751
 42
0.002890
  0
VERTEX
  8
0
 10
13.271676
 20
28.797735
 42
0.006288
  0
VERTEX
  8
0
 10
13.496727
 20
28.635679
 42
0.004195
  0
VERTEX
  8
0
 10
13.758333
 20
28.455505
 42
-0.002047
  0
VERTEX
  8
0
 10
14.020956
 20
28.276291
 42
-0.003049
  0
VERTEX
  8
0
 10
14.249135
 20
28.117147
 42
-0.001322
  0
VERTEX
  8
0
 10
14.442814
 20
27.979534
 42
-0.062830
  0
VERTEX
  8
0
 10
14.478000
 20
27.947024
 42
0.047710
  0
VERTEX
  8
0
 10
14.509065
 20
27.916535
 42
0.003132
  0
VERTEX
  8
0
 10
14.607381
 20
27.837932
 42
0.004520
  0
VERTEX
  8
0
 10
14.726195
 20
27.745886
 42
0.003359
  0
VERTEX
  8
0
 10
14.859000
 20
27.646310
 42
-0.025325
  0
VERTEX
  8
0
 10
15.501723
 20
27.118769
 42
-0.010162
  0
VERTEX
  8
0
 10
16.327668
 20
26.336489
 42
-0.010037
  0
VERTEX
  8
0
 10
17.113893
 20
25.529141
 42
-0.028738
  0
VERTEX
  8
0
 10
17.615045
 20
24.927602
 42
-0.034555
  0
VERTEX
  8
0
 10
17.977049
 20
24.360419
 42
-0.020957
  0
VERTEX
  8
0
 10
18.328546
 20
23.645728
 42
-0.018890
  0
VERTEX
  8
0
 10
18.658593
 20
22.813112
 42
-0.014735
  0
VERTEX
  8
0
 10
18.955622
 20
21.886333
 42
-0.053601
  0
VERTEX
  8
0
 10
19.195100
 20
20.520601
 42
-0.016041
  0
VERTEX
  8
0
 10
19.267901
 20
18.405442
 42
-0.014167
  0
VERTEX
  8
0
 10
19.213673
 20
16.320608
 42
-0.087866
  0
VERTEX
  8
0
 10
18.970986
 20
15.282333
 42
-0.014926
  0
VERTEX
  8
0
 10
18.581845
 20
14.444360
 42
-0.024976
  0
VERTEX
  8
0
 10
18.199565
 20
13.768164
 42
-0.026764
  0
VERTEX
  8
0
 10
17.772129
 20
13.166899
 42
-0.020825
  0
VERTEX
  8
0
 10
17.247216
 20
12.560088
 42
-0.017210
  0
VERTEX
  8
0
 10
16.677043
 20
11.994255
 42
-0.080152
  0
VERTEX
  8
0
 10
16.292598
 20
11.738405
 42
-0.067731
  0
VERTEX
  8
0
 10
15.818431
 20
11.595884
 42
-0.010181
  0
VERTEX
  8
0
 10
14.832127
 20
11.460546
 42
-0.022689
  0
VERTEX
  8
0
 10
14.574530
 20
11.442321
 42
-0.054386
  0
VERTEX
  8
0
 10
14.383982
 20
11.458250
 42
-0.051732
  0
VERTEX
  8
0
 10
14.195748
 20
11.515538
 42
-0.018905
  0
VERTEX
  8
0
 10
13.943127
 20
11.633425
 42
-0.021558
  0
VERTEX
  8
0
 10
13.590453
 20
11.834200
 42
-0.036509
  0
VERTEX
  8
0
 10
13.316698
 20
12.035324
 42
-0.030850
  0
VERTEX
  8
0
 10
13.045820
 20
12.297092
 42
-0.011077
  0
VERTEX
  8
0
 10
12.692447
 20
12.701081
 42
-0.045453
  0
VERTEX
  8
0
 10
12.285442
 20
13.288824
 42
-0.020994
  0
VERTEX
  8
0
 10
11.861581
 20
14.117412
 42
-0.019222
  0
VERTEX
  8
0
 10
11.520523
 20
14.941449
 42
-0.088727
  0
VERTEX
  8
0
 10
11.430000
 20
15.447557
 42
0.044734
  0
VERTEX
  8
0
 10
11.424473
 20
15.509206
 42
0.022904
  0
VERTEX
  8
0
 10
11.407165
 20
15.584963
 42
0.022564
  0
VERTEX
  8
0
 10
11.382037
 20
15.661939
 42
0.031442
  0
VERTEX
  8
0
 10
11.352264
 20
15.727982
 42
-0.095362
  0
VERTEX
  8
0
 10
11.202583
 20
16.218396
 42
-0.009859
  0
VERTEX
  8
0
 10
11.097900
 20
17.427465
 42
-0.011416
  0
VERTEX
  8
0
 10
11.031534
 20
18.941128
 42
-0.007309
  0
VERTEX
  8
0
 10
11.020328
 20
20.701000
 42
0.001609
  0
VERTEX
  8
0
 10
11.030738
 20
22.769530
 42
0.006320
  0
VERTEX
  8
0
 10
11.016930
 20
24.045012
 42
0.004085
  0
VERTEX
  8
0
 10
10.988773
 20
24.934746
 42
0.187503
  0
VERTEX
  8
0
 10
10.917095
 20
25.099433
 42
-0.084046
  0
VERTEX
  8
0
 10
10.886467
 20
25.142930
 42
-0.036871
  0
VERTEX
  8
0
 10
10.860763
 20
25.208788
 42
-0.035150
  0
VERTEX
  8
0
 10
10.843217
 20
25.284364
 42
-0.039484
  0
VERTEX
  8
0
 10
10.837333
 20
25.358754
 42
0.132414
  0
VERTEX
  8
0
 10
10.702163
 20
25.860213
 42
0.035555
  0
VERTEX
  8
0
 10
10.233760
 20
26.548305
 42
0.036734
  0
VERTEX
  8
0
 10
9.648257
 20
27.186723
 42
0.081207
  0
VERTEX
  8
0
 10
9.101667
 20
27.555164
 42
-0.000991
  0
VERTEX
  8
0
 10
8.961224
 20
27.620090
 42
-0.000955
  0
VERTEX
  8
0
 10
8.819297
 20
27.686375
 42
-0.000943
  0
VERTEX
  8
0
 10
8.694476
 20
27.745248
 42
-0.003485
  0
VERTEX
  8
0
 10
8.615982
 20
27.783124
 42
0.041202
  0
VERTEX
  8
0
 10
8.545423
 20
27.810833
 42
0.021485
  0
VERTEX
  8
0
 10
8.453781
 20
27.834122
 42
0.021217
  0
VERTEX
  8
0
 10
8.357085
 20
27.850072
 42
0.030271
  0
VERTEX
  8
0
 10
8.270260
 20
27.855333
 42
-0.028906
  0
VERTEX
  8
0
 10
8.189543
 20
27.860004
 42
-0.030435
  0
VERTEX
  8
0
 10
8.111305
 20
27.873953
 42
-0.031953
  0
VERTEX
  8
0
 10
8.045860
 20
27.894282
 42
-0.105472
  0
VERTEX
  8
0
 10
8.008168
 20
27.918720
 42
0.171194
  0
VERTEX
  8
0
 10
7.685317
 20
28.073204
 42
0.012447
  0
VERTEX
  8
0
 10
6.686754
 20
28.155578
 42
0.018434
  0
VERTEX
  8
0
 10
5.651955
 20
28.176846
 42
0.041764
  0
VERTEX
  8
0
 10
4.873430
 20
28.098896
 42
0.008720
  0
VERTEX
  8
0
 10
4.452005
 20
28.013156
 42
0.029804
  0
VERTEX
  8
0
 10
4.183092
 20
27.936485
 42
0.026255
  0
VERTEX
  8
0
 10
3.908527
 20
27.823677
 42
0.005660
  0
VERTEX
  8
0
 10
3.446526
 20
27.598422
 42
0.039670
  0
VERTEX
  8
0
 10
3.025342
 20
27.343501
 42
0.020793
  0
VERTEX
  8
0
 10
2.543048
 20
26.965196
 42
0.013913
  0
VERTEX
  8
0
 10
2.110784
 20
26.574798
 42
0.204903
  0
VERTEX
  8
0
 10
2.032000
 20
26.390622
 42
-0.106213
  0
VERTEX
  8
0
 10
2.022945
 20
26.348474
 42
-0.016421
  0
VERTEX
  8
0
 10
1.985081
 20
26.271296
 42
-0.017686
  0
VERTEX
  8
0
 10
1.933430
 20
26.181981
 42
-0.014553
  0
VERTEX
  8
0
 10
1.872275
 20
26.090403
 42
0.107487
  0
VERTEX
  8
0
 10
1.462001
 20
25.130023
 42
0.020903
  0
VERTEX
  8
0
 10
1.182919
 20
23.255324
 42
0.021589
  0
VERTEX
  8
0
 10
1.042588
 20
21.024079
 42
0.019648
  0
VERTEX
  8
0
 10
1.087924
 20
18.717405
 42
0.003363
  0
VERTEX
  8
0
 10
1.160060
 20
17.620478
 42
0.007844
  0
VERTEX
  8
0
 10
1.232459
 20
16.800651
 42
0.009769
  0
VERTEX
  8
0
 10
1.318716
 20
16.104670
 42
0.009634
  0
VERTEX
  8
0
 10
1.432436
 20
15.409333
 42
-0.000374
  0
VERTEX
  8
0
 10
1.472880
 20
15.187875
 42
-0.000177
  0
VERTEX
  8
0
 10
1.524745
 20
14.902089
 42
-0.000175
  0
VERTEX
  8
0
 10
1.578817
 20
14.602943
 42
-0.000248
  0
VERTEX
  8
0
 10
1.626752
 20
14.336458
 42
0.007734
  0
VERTEX
  8
0
 10
1.673096
 20
14.099258
 42
0.010839
  0
VERTEX
  8
0
 10
1.722326
 20
13.889091
 42
0.007387
  0
VERTEX
  8
0
 10
1.769544
 20
13.716157
 42
0.127556
  0
VERTEX
  8
0
 10
1.799167
 20
13.666181
 42
-0.096343
  0
VERTEX
  8
0
 10
1.823598
 20
13.630216
 42
-0.034771
  0
VERTEX
  8
0
 10
1.844014
 20
13.571589
 42
-0.032932
  0
VERTEX
  8
0
 10
1.857983
 20
13.502586
 42
-0.033489
  0
VERTEX
  8
0
 10
1.862667
 20
13.432733
 42
0.033658
  0
VERTEX
  8
0
 10
1.868287
 20
13.349337
 42
0.013370
  0
VERTEX
  8
0
 10
1.886726
 20
13.236026
 42
0.013161
  0
VERTEX
  8
0
 10
1.913211
 20
13.114380
 42
0.016119
  0
VERTEX
  8
0
 10
1.944571
 20
13.002344
 42
-0.004914
  0
VERTEX
  8
0
 10
1.985314
 20
12.868426
 42
-0.001591
  0
VERTEX
  8
0
 10
2.043022
 20
12.669487
 42
-0.001586
  0
VERTEX
  8
0
 10
2.105777
 20
12.447892
 42
-0.001782
  0
VERTEX
  8
0
 10
2.164707
 20
12.234333
 42
0.003881
  0
VERTEX
  8
0
 10
2.222736
 20
12.027428
 42
0.004137
  0
VERTEX
  8
0
 10
2.282784
 20
11.825817
 42
0.003937
  0
VERTEX
  8
0
 10
2.337225
 20
11.653265
 42
0.019150
  0
VERTEX
  8
0
 10
2.372560
 20
11.557000
 42
-0.009266
  0
VERTEX
  8
0
 10
2.408469
 20
11.464842
 42
-0.002318
  0
VERTEX
  8
0
 10
2.463599
 20
11.313054
 42
-0.002367
  0
VERTEX
  8
0
 10
2.525038
 20
11.138826
 42
-0.002380
  0
VERTEX
  8
0
 10
2.584713
 20
10.964333
 42
0.019824
  0
VERTEX
  8
0
 10
2.906444
 20
10.120886
 42
0.008393
  0
VERTEX
  8
0
 10
3.401305
 20
9.015253
 42
0.005089
  0
VERTEX
  8
0
 10
3.917604
 20
7.940417
 42
0.084424
  0
VERTEX
  8
0
 10
4.149477
 20
7.620000
 42
-0.062244
  0
VERTEX
  8
0
 10
4.173882
 20
7.589231
 42
-0.004615
  0
VERTEX
  8
0
 10
4.228889
 20
7.496837
 42
-0.006351
  0
VERTEX
  8
0
 10
4.292270
 20
7.384860
 42
-0.004776
  0
VERTEX
  8
0
 10
4.359231
 20
7.260167
 42
0.015080
  0
VERTEX
  8
0
 10
4.427816
 20
7.138529
 42
0.021882
  0
VERTEX
  8
0
 10
4.496114
 20
7.035932
 42
0.018511
  0
VERTEX
  8
0
 10
4.557356
 20
6.958329
 42
0.219862
  0
VERTEX
  8
0
 10
4.591254
 20
6.942667
 42
-0.136928
  0
VERTEX
  8
0
 10
4.616198
 20
6.935705
 42
-0.100244
  0
VERTEX
  8
0
 10
4.637452
 20
6.916136
 42
-0.086300
  0
VERTEX
  8
0
 10
4.651759
 20
6.886867
 42
-0.070739
  0
VERTEX
  8
0
 10
4.656667
 20
6.852351
 42
0.117761
  0
VERTEX
  8
0
 10
4.669037
 20
6.800556
 42
0.014434
  0
VERTEX
  8
0
 10
4.725061
 20
6.697453
 42
0.016440
  0
VERTEX
  8
0
 10
4.800340
 20
6.577246
 42
0.012890
  0
VERTEX
  8
0
 10
4.889500
 20
6.451866
 42
0.009353
  0
VERTEX
  8
0
 10
5.585780
 20
5.559577
 42
0.015047
  0
VERTEX
  8
0
 10
6.215565
 20
4.828981
 42
0.017037
  0
VERTEX
  8
0
 10
6.823172
 20
4.209339
 42
0.019001
  0
VERTEX
  8
0
 10
7.450553
 20
3.655592
 42
-0.002037
  0
VERTEX
  8
0
 10
7.604588
 20
3.528665
 42
-0.002254
  0
VERTEX
  8
0
 10
7.752452
 20
3.404677
 42
-0.002090
  0
VERTEX
  8
0
 10
7.877744
 20
3.297749
 42
-0.011615
  0
VERTEX
  8
0
 10
7.943434
 20
3.238500
 42
0.025390
  0
VERTEX
  8
0
 10
7.990911
 20
3.197993
 42
0.027701
  0
VERTEX
  8
0
 10
8.040935
 20
3.163755
 42
0.028676
  0
VERTEX
  8
0
 10
8.086607
 20
3.139542
 42
0.107950
  0
VERTEX
  8
0
 10
8.118083
 20
3.132667
 42
-0.123349
  0
VERTEX
  8
0
 10
8.152177
 20
3.124126
 42
-0.019804
  0
VERTEX
  8
0
 10
8.211812
 20
3.089143
 42
-0.020868
  0
VERTEX
  8
0
 10
8.280096
 20
3.041229
 42
-0.016967
  0
VERTEX
  8
0
 10
8.349180
 20
2.984500
 42
0.027121
  0
VERTEX
  8
0
 10
8.515544
 20
2.853450
 42
0.021546
  0
VERTEX
  8
0
 10
8.708128
 20
2.730036
 42
0.013055
  0
VERTEX
  8
0
 10
8.986261
 20
2.577837
 42
0.002975
  0
VERTEX
  8
0
 10
9.465274
 20
2.335330
 42
0.019362
  0
VERTEX
  8
0
 10
10.054423
 20
2.069418
 42
0.019446
  0
VERTEX
  8
0
 10
10.661537
 20
1.850299
 42
0.017089
  0
VERTEX
  8
0
 10
11.350395
 20
1.657197
 42
0.009823
  0
VERTEX
  8
0
 10
12.192000
 20
1.469451
 42
-0.014027
  0
VERTEX
  8
0
 10
12.285382
 20
1.447793
 42
-0.009317
  0
VERTEX
  8
0
 10
12.391231
 20
1.417976
 42
-0.009381
  0
VERTEX
  8
0
 10
12.492990
 20
1.385158
 42
-0.018024
  0
VERTEX
  8
0
 10
12.573000
 20
1.354421
 42
0.055304
  0
VERTEX
  8
0
 10
12.821096
 20
1.279756
 42
0.006648
  0
VERTEX
  8
0
 10
13.385469
 20
1.183726
 42
0.007965
  0
VERTEX
  8
0
 10
14.053224
 20
1.090091
 42
0.006951
  0
VERTEX
  8
0
 10
14.754617
 20
1.012991
 42
-0.004832
  0
VERTEX
  8
0
 10
15.051929
 20
0.981584
 42
-0.005773
  0
VERTEX
  8
0
 10
15.331393
 20
0.946054
 42
-0.005020
  0
VERTEX
  8
0
 10
15.566040
 20
0.911060
 42
-0.037329
  0
VERTEX
  8
0
 10
15.675755
 20
0.885058
 42
0.101689
  0
VERTEX
  8
0
 10
15.966447
 20
0.854525
 42
0.003339
  0
VERTEX
  8
0
 10
17.134146
 20
0.977240
 42
0.007122
  0
VERTEX
  8
0
 10
18.298439
 20
1.124282
 42
0.015934
  0
VERTEX
  8
0
 10
19.177000
 20
1.276663
 42
-0.001921
  0
VERTEX
  8
0
 10
19.359286
 20
1.313569
 42
-0.001512
  0
VERTEX
  8
0
 10
19.557040
 20
1.352194
 42
-0.001528
  0
VERTEX
  8
0
 10
19.741049
 20
1.386975
 42
-0.003774
  0
VERTEX
  8
0
 10
19.876285
 20
1.411054
 42
0.021855
  0
VERTEX
  8
0
 10
19.985345
 20
1.434569
 42
0.026608
  0
VERTEX
  8
0
 10
20.084848
 20
1.466363
 42
0.026757
  0
VERTEX
  8
0
 10
20.163888
 20
1.501279
 42
0.137799
  0
VERTEX
  8
0
 10
20.198781
 20
1.533355
 42
-0.119616
  0
VERTEX
  8
0
 10
20.228060
 20
1.562268
 42
-0.048415
  0
VERTEX
  8
0
 10
20.279059
 20
1.586544
 42
-0.044270
  0
VERTEX
  8
0
 10
20.341519
 20
1.603095
 42
-0.042662
  0
VERTEX
  8
0
 10
20.406705
 20
1.608667
 42
0.046290
  0
VERTEX
  8
0
 10
20.494321
 20
1.616796
 42
0.010666
  0
VERTEX
  8
0
 10
20.639683
 20
1.647226
 42
0.010931
  0
VERTEX
  8
0
 10
20.806270
 20
1.689683
 42
0.010481
  0
VERTEX
  8
0
 10
20.973208
 20
1.739931
 42
0.004170
  0
VERTEX
  8
0
 10
21.247986
 20
1.831500
 42
0.010419
  0
VERTEX
  8
0
 10
21.446646
 20
1.904209
 42
0.008462
  0
VERTEX
  8
0
 10
21.664458
 20
1.993389
 42
0.001982
  0
VERTEX
  8
0
 10
22.026129
 20
2.150367
 42
-0.005692
  0
VERTEX
  8
0
 10
22.148301
 20
2.202321
 42
-0.007770
  0
VERTEX
  8
0
 10
22.259617
 20
2.246158
 42
-0.005373
  0
VERTEX
  8
0
 10
22.353465
 20
2.280295
 42
-0.084734
  0
VERTEX
  8
0
 10
22.386885
 20
2.286000
 42
0.107266
  0
VERTEX
  8
0
 10
22.482254
 20
2.306698
 42
0.003370
  0
VERTEX
  8
0
 10
22.845678
 20
2.475210
 42
0.003366
  0
VERTEX
  8
0
 10
23.206829
 20
2.648618
 42
0.107418
  0
VERTEX
  8
0
 10
23.283333
 20
2.709029
 42
-0.080838
  0
VERTEX
  8
0
 10
23.314458
 20
2.736387
 42
-0.007920
  0
VERTEX
  8
0
 10
23.400279
 20
2.788289
 42
-0.009856
  0
VERTEX
  8
0
 10
23.505423
 20
2.846876
 42
-0.007654
  0
VERTEX
  8
0
 10
23.622000
 20
2.906585
 42
0.007767
  0
VERTEX
  8
0
 10
23.860458
 20
3.028788
 42
0.011519
  0
VERTEX
  8
0
 10
24.065113
 20
3.143841
 42
0.011256
  0
VERTEX
  8
0
 10
24.225651
 20
3.243975
 42
0.068375
  0
VERTEX
  8
0
 10
24.299333
 20
3.308176
 42
-0.056284
  0
VERTEX
  8
0
 10
24.323970
 20
3.330709
 42
-0.016459
  0
VERTEX
  8
0
 10
24.366537
 20
3.359548
 42
-0.016311
  0
VERTEX
  8
0
 10
24.416941
 20
3.389076
 42
-0.016810
  0
VERTEX
  8
0
 10
24.468667
 20
3.414941
 42
0.025239
  0
VERTEX
  8
0
 10
24.576229
 20
3.471014
 42
0.009492
  0
VERTEX
  8
0
 10
24.721079
 20
3.559822
 42
0.005829
  0
VERTEX
  8
0
 10
24.932443
 20
3.698494
 42
0.001381
  0
VERTEX
  8
0
 10
25.281548
 20
3.934804
 42
0.025359
  0
VERTEX
  8
0
 10
26.112433
 20
4.564514
 42
0.014523
  0
VERTEX
  8
0
 10
27.051550
 20
5.402033
 42
0.014429
  0
VERTEX
  8
0
 10
27.956883
 20
6.308774
 42
0.021702
  0
VERTEX
  8
0
 10
28.687154
 20
7.154333
 42
-0.000199
  0
VERTEX
  8
0
 10
28.900661
 20
7.424175
 42
-0.000247
  0
VERTEX
  8
0
 10
29.099284
 20
7.674748
 42
-0.000200
  0
VERTEX
  8
0
 10
29.266240
 20
7.884982
 42
-0.001894
  0
VERTEX
  8
0
 10
29.338189
 20
7.974807
 42
0.033790
  0
VERTEX
  8
0
 10
29.781619
 20
8.607131
 42
0.006176
  0
VERTEX
  8
0
 10
30.506447
 20
9.839486
 42
0.002824
  0
VERTEX
  8
0
 10
31.246058
 20
11.150412
 42
0.125118
  0
VERTEX
  8
0
 10
31.326014
 20
11.452089
 42
-0.082137
  0
VERTEX
  8
0
 10
31.333249
 20
11.493244
 42
-0.005833
  0
VERTEX
  8
0
 10
31.373272
 20
11.603018
 42
-0.008099
  0
VERTEX
  8
0
 10
31.424910
 20
11.733254
 42
-0.006018
  0
VERTEX
  8
0
 10
31.485978
 20
11.875423
 42
0.007528
  0
VERTEX
  8
0
 10
31.618462
 20
12.186440
 42
0.010265
  0
VERTEX
  8
0
 10
31.727837
 20
12.470875
 42
0.010293
  0
VERTEX
  8
0
 10
31.825225
 20
12.758959
 42
0.007633
  0
VERTEX
  8
0
 10
31.921376
 20
13.081000
 42
-0.000063
  0
VERTEX
  8
0
 10
31.964044
 20
13.232225
 42
-0.000041
  0
VERTEX
  8
0
 10
32.013461
 20
13.407231
 42
-0.000041
  0
VERTEX
  8
0
 10
32.061775
 20
13.578223
 42
-0.000077
  0
VERTEX
  8
0
 10
32.100738
 20
13.716000
 42
0.005352
  0
VERTEX
  8
0
 10
32.192299
 20
14.053309
 42
0.004511
  0
VERTEX
  8
0
 10
32.282175
 20
14.412272
 42
0.003989
  0
VERTEX
  8
0
 10
32.375560
 20
14.814122
 42
0.002552
  0
VERTEX
  8
0
 10
32.477929
 20
15.282333
 42
-0.000413
  0
VERTEX
  8
0
 10
32.532499
 20
15.537145
 42
-0.000326
  0
VERTEX
  8
0
 10
32.591965
 20
15.812823
 42
-0.000329
  0
VERTEX
  8
0
 10
32.647520
 20
16.068747
 42
-0.000818
  0
VERTEX
  8
0
 10
32.688619
 20
16.256000
 42
0.004703
  0
VERTEX
  8
0
 10
32.753160
 20
16.561375
 42
0.003266
  0
VERTEX
  8
0
 10
32.820575
 20
16.907527
 42
0.002352
  0
VERTEX
  8
0
 10
32.902395
 20
17.354337
 42
0.000844
  0
VERTEX
  8
0
 10
33.014897
 20
17.991667
 42
0.009440
  0
VERTEX
  8
0
 10
33.048973
 20
18.210961
 42
0.007402
  0
VERTEX
  8
0
 10
33.077901
 20
18.449925
 42
0.007493
  0
VERTEX
  8
0
 10
33.098193
 20
18.673072
 42
0.018179
  0
VERTEX
  8
0
 10
33.104698
 20
18.838333
 42
-0.031082
  0
VERTEX
  8
0
 10
33.114312
 20
18.985737
 42
-0.022171
  0
VERTEX
  8
0
 10
33.142566
 20
19.148754
 42
-0.022491
  0
VERTEX
  8
0
 10
33.183580
 20
19.302363
 42
-0.043737
  0
VERTEX
  8
0
 10
33.232188
 20
19.419511
 42
0.115524
  0
VERTEX
  8
0
 10
33.353370
 20
19.892716
 42
0.005168
  0
VERTEX
  8
0
 10
33.370914
 20
21.590000
 42
0.005168
  0
VERTEX
  8
0
 10
33.353370
 20
23.287284
 42
0.115524
  0
VERTEX
  8
0
 10
33.232188
 20
23.760489
 42
-0.051137
  0
VERTEX
  8
0
 10
33.183425
 20
23.883094
 42
-0.021442
  0
VERTEX
  8
0
 10
33.142278
 20
24.056116
 42
-0.020947
  0
VERTEX
  8
0
 10
33.113759
 20
24.246472
 42
-0.025536
  0
VERTEX
  8
0
 10
33.103718
 20
24.426333
 42
0.020897
  0
VERTEX
  8
0
 10
33.094231
 20
24.630244
 42
0.009146
  0
VERTEX
  8
0
 10
33.065437
 20
24.899399
 42
0.009033
  0
VERTEX
  8
0
 10
33.024419
 20
25.184426
 42
0.011935
  0
VERTEX
  8
0
 10
32.976197
 20
25.442302
 42
-0.006984
  0
VERTEX
  8
0
 10
32.928143
 20
25.685904
 42
-0.007246
  0
VERTEX
  8
0
 10
32.887541
 20
25.927787
 42
-0.007023
  0
VERTEX
  8
0
 10
32.858398
 20
26.137982
 42
-0.030940
  0
VERTEX
  8
0
 10
32.850667
 20
26.262805
 42
0.030700
  0
VERTEX
  8
0
 10
32.845095
 20
26.353466
 42
0.036577
  0
VERTEX
  8
0
 10
32.828423
 20
26.437484
 42
0.039659
  0
VERTEX
  8
0
 10
32.804152
 20
26.504330
 42
0.148492
  0
VERTEX
  8
0
 10
32.774944
 20
26.537473
 42
-0.152358
  0
VERTEX
  8
0
 10
32.743002
 20
26.574273
 42
-0.024665
  0
VERTEX
  8
0
 10
32.708929
 20
26.663946
 42
-0.025278
  0
VERTEX
  8
0
 10
32.678433
 20
26.777103
 42
-0.019835
  0
VERTEX
  8
0
 10
32.656549
 20
26.902303
 42
0.014711
  0
VERTEX
  8
0
 10
32.611285
 20
27.177878
 42
0.007910
  0
VERTEX
  8
0
 10
32.540145
 20
27.514890
 42
0.007058
  0
VERTEX
  8
0
 10
32.446916
 20
27.899229
 42
0.005246
  0
VERTEX
  8
0
 10
32.333549
 20
28.321000
 42
0.006986
  0
VERTEX
  8
0
 10
32.258427
 20
28.575480
 42
0.012954
  0
VERTEX
  8
0
 10
32.189272
 20
28.779426
 42
0.011209
  0
VERTEX
  8
0
 10
32.103190
 20
28.997959
 42
0.003951
  0
VERTEX
  8
0
 10
31.970299
 20
29.307462
 42
-0.008636
  0
VERTEX
  8
0
 10
31.918364
 20
29.431617
 42
-0.010693
  0
VERTEX
  8
0
 10
31.874509
 20
29.549004
 42
-0.009166
  0
VERTEX
  8
0
 10
31.841779
 20
29.648495
 42
-0.075012
  0
VERTEX
  8
0
 10
31.834667
 20
29.695635
 42
0.106546
  0
VERTEX
  8
0
 10
31.813068
 20
29.795843
 42
0.001549
  0
VERTEX
  8
0
 10
31.559586
 20
30.351946
 42
0.004521
  0
VERTEX
  8
0
 10
31.314397
 20
30.873000
 42
0.017365
  0
VERTEX
  8
0
 10
31.147863
 20
31.190100
 42
-0.001651
  0
VERTEX
  8
0
 10
31.101498
 20
31.272022
 42
-0.000544
  0
VERTEX
  8
0
 10
31.033845
 20
31.392793
 42
-0.000542
  0
VERTEX
  8
0
 10
30.959084
 20
31.526935
 42
-0.000614
  0
VERTEX
  8
0
 10
30.887672
 20
31.655766
 42
0.011136
  0
VERTEX
  8
0
 10
30.610313
 20
32.132212
 42
0.009169
  0
VERTEX
  8
0
 10
30.293961
 20
32.628169
 42
0.008479
  0
VERTEX
  8
0
 10
29.934045
 20
33.150785
 42
0.006577
  0
VERTEX
  8
0
 10
29.525279
 20
33.707665
 42
0.021688
  0
VERTEX
  8
0
 10
29.000547
 20
34.343802
 42
0.011838
  0
VERTEX
  8
0
 10
28.305795
 20
35.079523
 42
0.011768
  0
VERTEX
  8
0
 10
27.561815
 20
35.796361
 42
0.018063
  0
VERTEX
  8
0
 10
26.881667
 20
36.377620
 42
-0.000117
  0
VERTEX
  8
0
 10
26.615650
 20
36.588925
 42
-0.000162
  0
VERTEX
  8
0
 10
26.376863
 20
36.778819
 42
-0.000101
  0
VERTEX
  8
0
 10
26.176077
 20
36.938665
 42
-0.001984
  0
VERTEX
  8
0
 10
26.114334
 20
36.988241
 42
0.022126
  0
VERTEX
  8
0
 10
26.067614
 20
37.022754
 42
0.007974
  0
VERTEX
  8
0
 10
25.998318
 20
37.067766
 42
0.007891
  0
VERTEX
  8
0
 10
25.920733
 20
37.114730
 42
0.009288
  0
VERTEX
  8
0
 10
25.845769
 20
37.156659
 42
-0.016023
  0
VERTEX
  8
0
 10
25.768922
 20
37.201011
 42
-0.011374
  0
VERTEX
  8
0
 10
25.685579
 20
37.255404
 42
-0.011498
  0
VERTEX
  8
0
 10
25.608315
 20
37.311028
 42
-0.023802
  0
VERTEX
  8
0
 10
25.551193
 20
37.358612
 42
0.015554
  0
VERTEX
  8
0
 10
25.496778
 20
37.405483
 42
0.008975
  0
VERTEX
  8
0
 10
25.428593
 20
37.458619
 42
0.008963
  0
VERTEX
  8
0
 10
25.358168
 20
37.509550
 42
0.014828
  0
VERTEX
  8
0
 10
25.296741
 20
37.549667
 42
-0.010428
  0
VERTEX
  8
0
 10
25.210796
 20
37.604724
 42
-0.001060
  0
VERTEX
  8
0
 10
25.009889
 20
37.740034
 42
-0.001326
  0
VERTEX
  8
0
 10
24.771239
 20
37.902426
 42
-0.001057
  0
VERTEX
  8
0
 10
24.514628
 20
38.078833
 42
0.005084
  0
VERTEX
  8
0
 10
24.262535
 20
38.249161
 42
0.007543
  0
VERTEX
  8
0
 10
24.037977
 20
38.392761
 42
0.003831
  0
VERTEX
  8
0
 10
23.845888
 20
38.509529
 42
0.135453
  0
VERTEX
  8
0
 10
23.795867
 20
38.523333
 42
-0.076380
  0
VERTEX
  8
0
 10
23.765052
 20
38.528068
 42
-0.061626
  0
VERTEX
  8
0
 10
23.734545
 20
38.541986
 42
-0.062816
  0
VERTEX
  8
0
 10
23.708937
 20
38.562550
 42
-0.087854
  0
VERTEX
  8
0
 10
23.692556
 20
38.586833
 42
0.116513
  0
VERTEX
  8
0
 10
23.665311
 20
38.622656
 42
0.007282
  0
VERTEX
  8
0
 10
23.560705
 20
38.706223
 42
0.010439
  0
VERTEX
  8
0
 10
23.431335
 20
38.802264
 42
0.007541
  0
VERTEX
  8
0
 10
23.283333
 20
38.904095
 42
-0.002424
  0
VERTEX
  8
0
 10
23.134300
 20
39.004404
 42
-0.003365
  0
VERTEX
  8
0
 10
23.001817
 20
39.095820
 42
-0.002089
  0
VERTEX
  8
0
 10
22.891285
 20
39.173882
 42
-0.042305
  0
VERTEX
  8
0
 10
22.860000
 20
39.200429
 42
0.050937
  0
VERTEX
  8
0
 10
22.787530
 20
39.259805
 42
0.008649
  0
VERTEX
  8
0
 10
22.636671
 20
39.355934
 42
0.010075
  0
VERTEX
  8
0
 10
22.476564
 20
39.449718
 42
0.023343
  0
VERTEX
  8
0
 10
22.352000
 20
39.511909
 42
-0.029721
  0
VERTEX
  8
0
 10
22.274382
 20
39.551905
 42
-0.002985
  0
VERTEX
  8
0
 10
22.095752
 20
39.659273
 42
-0.003740
  0
VERTEX
  8
0
 10
21.884418
 20
39.790198
 42
-0.002967
  0
VERTEX
  8
0
 10
21.658006
 20
39.934703
 42
0.006665
  0
VERTEX
  8
0
 10
21.434303
 20
40.075161
 42
0.009451
  0
VERTEX
  8
0
 10
21.231372
 20
40.193636
 42
0.006036
  0
VERTEX
  8
0
 10
21.059182
 20
40.287137
 42
0.121947
  0
VERTEX
  8
0
 10
21.001839
 20
40.301333
 42
-0.069345
  0
VERTEX
  8
0
 10
20.967685
 20
40.306093
 42
-0.084389
  0
VERTEX
  8
0
 10
20.938576
 20
40.319986
 42
-0.098327
  0
VERTEX
  8
0
 10
20.918927
 20
40.340615
 42
-0.138312
  0
VERTEX
  8
0
 10
20.911695
 20
40.364833
 42
0.229019
  0
VERTEX
  8
0
 10
20.895291
 20
40.397485
 42
0.016990
  0
VERTEX
  8
0
 10
20.811811
 20
40.457205
 42
0.020877
  0
VERTEX
  8
0
 10
20.702485
 20
40.523522
 42
0.014181
  0
VERTEX
  8
0
 10
20.573029
 20
40.590121
 42
-0.015982
  0
VERTEX
  8
0
 10
20.443654
 20
40.657269
 42
-0.023235
  0
VERTEX
  8
0
 10
20.334531
 20
40.725254
 42
-0.020269
  0
VERTEX
  8
0
 10
20.252438
 20
40.786908
 42
-0.225222
  0
VERTEX
  8
0
 10
20.235333
 20
40.822955
 42
0.218884
  0
VERTEX
  8
0
 10
20.222833
 20
40.850141
 42
0.078058
  0
VERTEX
  8
0
 10
20.185592
 20
40.873130
 42
0.059351
  0
VERTEX
  8
0
 10
20.130837
 20
40.888798
 42
0.040054
  0
VERTEX
  8
0
 10
20.066000
 20
40.894000
 42
-0.044675
  0
VERTEX
  8
0
 10
20.001181
 20
40.899803
 42
-0.064527
  0
VERTEX
  8
0
 10
19.946408
 20
40.917195
 42
-0.084420
  0
VERTEX
  8
0
 10
19.909381
 20
40.942787
 42
-0.202082
  0
VERTEX
  8
0
 10
19.896667
 20
40.972961
 42
0.184026
  0
VERTEX
  8
0
 10
19.883536
 20
41.007430
 42
0.053676
  0
VERTEX
  8
0
 10
19.840707
 20
41.046191
 42
0.046090
  0
VERTEX
  8
0
 10
19.779087
 20
41.082812
 42
0.035417
  0
VERTEX
  8
0
 10
19.706167
 20
41.111373
 42
-0.016924
  0
VERTEX
  8
0
 10
19.630132
 20
41.137956
 42
-0.019143
  0
VERTEX
  8
0
 10
19.559191
 20
41.168660
 42
-0.018720
  0
VERTEX
  8
0
 10
19.501327
 20
41.199093
 42
-0.091940
  0
VERTEX
  8
0
 10
19.473333
 20
41.222911
 42
0.068205
  0
VERTEX
  8
0
 10
19.379119
 20
41.311060
 42
0.009067
  0
VERTEX
  8
0
 10
19.153247
 20
41.464864
 42
0.010399
  0
VERTEX
  8
0
 10
18.920816
 20
41.610225
 42
0.045508
  0
VERTEX
  8
0
 10
18.774833
 20
41.680227
 42
-0.048244
  0
VERTEX
  8
0
 10
18.718155
 20
41.707787
 42
-0.054233
  0
VERTEX
  8
0
 10
18.670191
 20
41.744811
 42
-0.061779
  0
VERTEX
  8
0
 10
18.637403
 20
41.785219
 42
-0.140480
  0
VERTEX
  8
0
 10
18.626667
 20
41.822676
 42
0.103805
  0
VERTEX
  8
0
 10
18.619674
 20
41.855996
 42
0.098944
  0
VERTEX
  8
0
 10
18.599816
 20
41.884349
 42
0.096753
  0
VERTEX
  8
0
 10
18.570151
 20
41.903349
 42
0.094468
  0
VERTEX
  8
0
 10
18.535261
 20
41.910000
 42
-0.167022
  0
VERTEX
  8
0
 10
18.298538
 20
41.991345
 42
-0.004846
  0
VERTEX
  8
0
 10
17.455870
 20
42.661244
 42
-0.010577
  0
VERTEX
  8
0
 10
16.596466
 20
43.388809
 42
-0.015460
  0
VERTEX
  8
0
 10
15.874137
 20
44.067941
 42
-0.014712
  0
VERTEX
  8
0
 10
15.284286
 20
44.693697
 42
-0.031643
  0
VERTEX
  8
0
 10
14.876491
 20
45.215695
 42
-0.035714
  0
VERTEX
  8
0
 10
14.568740
 20
45.742726
 42
-0.024790
  0
VERTEX
  8
0
 10
14.295267
 20
46.376167
 42
0.002541
  0
VERTEX
  8
0
 10
14.262323
 20
46.462881
 42
0.001477
  0
VERTEX
  8
0
 10
14.221937
 20
46.566667
 42
0.001476
  0
VERTEX
  8
0
 10
14.180849
 20
46.670438
 42
0.002491
  0
VERTEX
  8
0
 10
14.145711
 20
46.757167
 42
-0.013423
  0
VERTEX
  8
0
 10
14.111126
 20
46.848197
 42
-0.006501
  0
VERTEX
  8
0
 10
14.071557
 20
46.966320
 42
-0.006441
  0
VERTEX
  8
0
 10
14.033501
 20
47.090509
 42
-0.009214
  0
VERTEX
  8
0
 10
14.003211
 20
47.201667
 42
-0.059408
  0
VERTEX
  8
0
 10
13.941037
 20
47.681198
 42
-0.004773
  0
VERTEX
  8
0
 10
13.940124
 20
48.957812
 42
-0.005547
  0
VERTEX
  8
0
 10
13.965328
 20
50.222608
 42
-0.044551
  0
VERTEX
  8
0
 10
14.034985
 20
50.800000
 42
0.000662
  0
VERTEX
  8
0
 10
14.076839
 20
50.998528
 42
0.000549
  0
VERTEX
  8
0
 10
14.120890
 20
51.210012
 42
0.000554
  0
VERTEX
  8
0
 10
14.160842
 20
51.403958
 42
0.001494
  0
VERTEX
  8
0
 10
14.188663
 20
51.541870
 42
-0.021061
  0
VERTEX
  8
0
 10
14.215161
 20
51.651008
 42
-0.025568
  0
VERTEX
  8
0
 10
14.249412
 20
51.750537
 42
-0.025503
  0
VERTEX
  8
0
 10
14.286040
 20
51.829661
 42
-0.133963
  0
VERTEX
  8
0
 10
14.318428
 20
51.864366
 42
0.112041
  0
VERTEX
  8
0
 10
14.347161
 20
51.892605
 42
0.050132
  0
VERTEX
  8
0
 10
14.371330
 20
51.940099
 42
0.046165
  0
VERTEX
  8
0
 10
14.387785
 20
51.997693
 42
0.046541
  0
VERTEX
  8
0
 10
14.393333
 20
52.057170
 42
-0.112937
  0
VERTEX
  8
0
 10
14.444963
 20
52.282833
 42
-0.009904
  0
VERTEX
  8
0
 10
14.712183
 20
52.809348
 42
-0.014058
  0
VERTEX
  8
0
 10
15.023657
 20
53.356428
 42
-0.023391
  0
VERTEX
  8
0
 10
15.319781
 20
53.796355
 42
-0.038726
  0
VERTEX
  8
0
 10
15.893141
 20
54.454520
 42
-0.057634
  0
VERTEX
  8
0
 10
16.495299
 20
54.923400
 42
-0.062581
  0
VERTEX
  8
0
 10
17.148417
 20
55.216208
 42
-0.057486
  0
VERTEX
  8
0
 10
17.872862
 20
55.349245
 42
-0.033589
  0
VERTEX
  8
0
 10
18.383635
 20
55.349050
 42
-0.071416
  0
VERTEX
  8
0
 10
18.769307
 20
55.266797
 42
-0.070390
  0
VERTEX
  8
0
 10
19.119728
 20
55.078416
 42
-0.031845
  0
VERTEX
  8
0
 10
19.520150
 20
54.742869
 42
-0.056115
  0
VERTEX
  8
0
 10
19.803180
 20
54.405160
 42
-0.019222
  0
VERTEX
  8
0
 10
20.135790
 20
53.858973
 42
-0.016390
  0
VERTEX
  8
0
 10
20.421915
 20
53.303654
 42
-0.111203
  0
VERTEX
  8
0
 10
20.489333
 20
53.004272
 42
0.046892
  0
VERTEX
  8
0
 10
20.494869
 20
52.945380
 42
0.036000
  0
VERTEX
  8
0
 10
20.511450
 20
52.882896
 42
0.036957
  0
VERTEX
  8
0
 10
20.535758
 20
52.826233
 42
0.068424
  0
VERTEX
  8
0
 10
20.564626
 20
52.785433
 42
-0.155434
  0
VERTEX
  8
0
 10
20.651802
 20
52.602164
 42
-0.002873
  0
VERTEX
  8
0
 10
20.792075
 20
51.527996
 42
-0.006571
  0
VERTEX
  8
0
 10
20.936196
 20
50.234536
 42
-0.003855
  0
VERTEX
  8
0
 10
21.076357
 20
48.683333
 42
0.004427
  0
VERTEX
  8
0
 10
21.165733
 20
47.706663
 42
0.007571
  0
VERTEX
  8
0
 10
21.259867
 20
46.893516
 42
0.005492
  0
VERTEX
  8
0
 10
21.352095
 20
46.245523
 42
0.089542
  0
VERTEX
  8
0
 10
21.423179
 20
46.038649
 42
-0.047480
  0
VERTEX
  8
0
 10
21.454709
 20
45.967027
 42
-0.024012
  0
VERTEX
  8
0
 10
21.481201
 20
45.871965
 42
-0.023611
  0
VERTEX
  8
0
 10
21.499331
 20
45.770349
 42
-0.032348
  0
VERTEX
  8
0
 10
21.505333
 20
45.677667
 42
0.029595
  0
VERTEX
  8
0
 10
21.510824
 20
45.584985
 42
0.021737
  0
VERTEX
  8
0
 10
21.527412
 20
45.483368
 42
0.022103
  0
VERTEX
  8
0
 10
21.551641
 20
45.388270
 42
0.044760
  0
VERTEX
  8
0
 10
21.580494
 20
45.316684
 42
-0.004658
  0
VERTEX
  8
0
 10
21.623492
 20
45.230609
 42
-0.000771
  0
VERTEX
  8
0
 10
21.704548
 20
45.063844
 42
-0.000847
  0
VERTEX
  8
0
 10
21.799248
 20
44.867391
 42
-0.000749
  0
VERTEX
  8
0
 10
21.897260
 20
44.662401
 42
0.054780
  0
VERTEX
  8
0
 10
22.250234
 20
44.091755
 42
0.060116
  0
VERTEX
  8
0
 10
22.709178
 20
43.631055
 42
0.059842
  0
VERTEX
  8
0
 10
23.266497
 20
43.291137
 42
0.053474
  0
VERTEX
  8
0
 10
23.909834
 20
43.077019
 42
-0.001588
  0
VERTEX
  8
0
 10
24.070178
 20
43.041563
 42
-0.000864
  0
VERTEX
  8
0
 10
24.266939
 20
42.997041
 42
-0.000860
  0
VERTEX
  8
0
 10
24.466902
 20
42.951069
 42
-0.001364
  0
VERTEX
  8
0
 10
24.638000
 20
42.910931
 42
0.038112
  0
VERTEX
  8
0
 10
25.176041
 20
42.825776
 42
0.013294
  0
VERTEX
  8
0
 10
25.959570
 20
42.783273
 42
0.012387
  0
VERTEX
  8
0
 10
26.729801
 20
42.781090
 42
0.055768
  0
VERTEX
  8
0
 10
27.175369
 20
42.840866
 42
0.003092
  0
VERTEX
  8
0
 10
27.733329
 20
42.983908
 42
0.010057
  0
VERTEX
  8
0
 10
28.100479
 20
43.088394
 42
0.012632
  0
VERTEX
  8
0
 10
28.416585
 20
43.194073
 42
0.007576
  0
VERTEX
  8
0
 10
28.786667
 20
43.334662
 42
0.018500
  0
VERTEX
  8
0
 10
29.242276
 20
43.535505
 42
0.038109
  0
VERTEX
  8
0
 10
29.578525
 20
43.731784
 42
0.033568
  0
VERTEX
  8
0
 10
29.906639
 20
43.992624
 42
0.011451
  0
VERTEX
  8
0
 10
30.347128
 20
44.412694
 42
0.023335
  0
VERTEX
  8
0
 10
30.759138
 20
44.864319
 42
0.054450
  0
VERTEX
  8
0
 10
31.011172
 20
45.245582
 42
0.048575
  0
VERTEX
  8
0
 10
31.191053
 20
45.698259
 42
0.015461
  0
VERTEX
  8
0
 10
31.370908
 20
46.401905
 42
0.031550
  0
VERTEX
  8
0
 10
31.454998
 20
46.935700
 42
0.025903
  0
VERTEX
  8
0
 10
31.478874
 20
47.512455
 42
0.013836
  0
VERTEX
  8
0
 10
31.446844
 20
48.352952
 42
0.002348
  0
VERTEX
  8
0
 10
31.333898
 20
49.953333
 42
0.004471
  0
VERTEX
  8
0
 10
31.290483
 20
50.468371
 42
0.006168
  0
VERTEX
  8
0
 10
31.241668
 20
50.929910
 42
0.004042
  0
VERTEX
  8
0
 10
31.192912
 20
51.315449
 42
0.072622
  0
VERTEX
  8
0
 10
31.158681
 20
51.435000
 42
-0.036544
  0
VERTEX
  8
0
 10
31.126484
 20
51.522988
 42
-0.012639
  0
VERTEX
  8
0
 10
31.092667
 20
51.654075
 42
-0.012481
  0
VERTEX
  8
0
 10
31.062559
 20
51.800920
 42
-0.014173
  0
VERTEX
  8
0
 10
31.041243
 20
51.943000
 42
0.016065
  0
VERTEX
  8
0
 10
30.990847
 20
52.270449
 42
0.004729
  0
VERTEX
  8
0
 10
30.892728
 20
52.769090
 42
0.004788
  0
VERTEX
  8
0
 10
30.772920
 20
53.322166
 42
0.005494
  0
VERTEX
  8
0
 10
30.647640
 20
53.848000
 42
-0.004844
  0
VERTEX
  8
0
 10
30.607850
 20
54.014052
 42
-0.003600
  0
VERTEX
  8
0
 10
30.567013
 20
54.198142
 42
-0.003639
  0
VERTEX
  8
0
 10
30.530998
 20
54.372387
 42
-0.008220
  0
VERTEX
  8
0
 10
30.506861
 20
54.504951
 42
0.021973
  0
VERTEX
  8
0
 10
30.483889
 20
54.614011
 42
0.026777
  0
VERTEX
  8
0
 10
30.452554
 20
54.713515
 42
0.026959
  0
VERTEX
  8
0
 10
30.417969
 20
54.792542
 42
0.138574
  0
VERTEX
  8
0
 10
30.385979
 20
54.827448
 42
-0.119616
  0
VERTEX
  8
0
 10
30.357065
 20
54.856727
 42
-0.048415
  0
VERTEX
  8
0
 10
30.332790
 20
54.907726
 42
-0.044270
  0
VERTEX
  8
0
 10
30.316239
 20
54.970186
 42
-0.042662
  0
VERTEX
  8
0
 10
30.310667
 20
55.035371
 42
0.065774
  0
VERTEX
  8
0
 10
30.284046
 20
55.236859
 42
0.012321
  0
VERTEX
  8
0
 10
30.178303
 20
55.594656
 42
0.013533
  0
VERTEX
  8
0
 10
30.037931
 20
55.992669
 42
0.015347
  0
VERTEX
  8
0
 10
29.881524
 20
56.365911
 42
-0.005039
  0
VERTEX
  8
0
 10
29.818880
 20
56.507162
 42
-0.007076
  0
VERTEX
  8
0
 10
29.766035
 20
56.634557
 42
-0.004438
  0
VERTEX
  8
0
 10
29.724249
 20
56.742234
 42
-0.090572
  0
VERTEX
  8
0
 10
29.718000
 20
56.776448
 42
0.116121
  0
VERTEX
  8
0
 10
29.658838
 20
57.027756
 42
0.002305
  0
VERTEX
  8
0
 10
29.062869
 20
58.209707
 42
0.005776
  0
VERTEX
  8
0
 10
28.477671
 20
59.325079
 42
0.022522
  0
VERTEX
  8
0
 10
28.077404
 20
59.993168
 42
0.003761
  0
VERTEX
  8
0
 10
27.569185
 20
60.748392
 42
0.016319
  0
VERTEX
  8
0
 10
27.250022
 20
61.183851
 42
0.019073
  0
VERTEX
  8
0
 10
26.926719
 20
61.565155
 42
0.006487
  0
VERTEX
  8
0
 10
26.429179
 20
62.094556
 42
0.020394
  0
VERTEX
  8
0
 10
25.949163
 20
62.553222
 42
0.012352
  0
VERTEX
  8
0
 10
25.346553
 20
63.057887
 42
0.006436
  0
VERTEX
  8
0
 10
24.750500
 20
63.520101
 42
0.163105
  0
VERTEX
  8
0
 10
24.557840
 20
63.584667
 42
-0.075658
  0
VERTEX
  8
0
 10
24.523770
 20
63.589852
 42
-0.089118
  0
VERTEX
  8
0
 10
24.494861
 20
63.604895
 42
-0.100724
  0
VERTEX
  8
0
 10
24.475536
 20
63.627269
 42
-0.128619
  0
VERTEX
  8
0
 10
24.468667
 20
63.653531
 42
0.231074
  0
VERTEX
  8
0
 10
24.452433
 20
63.686782
 42
0.026011
  0
VERTEX
  8
0
 10
24.381619
 20
63.736321
 42
0.027303
  0
VERTEX
  8
0
 10
24.285855
 20
63.789114
 42
0.018834
  0
VERTEX
  8
0
 10
24.172333
 20
63.838667
 42
-0.016996
  0
VERTEX
  8
0
 10
24.058800
 20
63.887728
 42
-0.025015
  0
VERTEX
  8
0
 10
23.963048
 20
63.939037
 42
-0.022580
  0
VERTEX
  8
0
 10
23.891398
 20
63.986708
 42
-0.239044
  0
VERTEX
  8
0
 10
23.876000
 20
64.017076
 42
0.262008
  0
VERTEX
  8
0
 10
23.860465
 20
64.044686
 42
0.031215
  0
VERTEX
  8
0
 10
23.795986
 20
64.078534
 42
0.030781
  0
VERTEX
  8
0
 10
23.707977
 20
64.111605
 42
0.020427
  0
VERTEX
  8
0
 10
23.603612
 20
64.139039
 42
-0.010873
  0
VERTEX
  8
0
 10
23.489809
 20
64.166641
 42
-0.009761
  0
VERTEX
  8
0
 10
23.373116
 20
64.200098
 42
-0.009837
  0
VERTEX
  8
0
 10
23.269586
 20
64.234224
 42
-0.030061
  0
VERTEX
  8
0
 10
23.201446
 20
64.262888
 42
0.011895
  0
VERTEX
  8
0
 10
22.970394
 20
64.370114
 42
0.012790
  0
VERTEX
  8
0
 10
22.739979
 20
64.463520
 42
0.011588
  0
VERTEX
  8
0
 10
22.486079
 20
64.552301
 42
0.007077
  0
VERTEX
  8
0
 10
22.182667
 20
64.645843
 42
-0.006325
  0
VERTEX
  8
0
 10
21.993606
 20
64.703818
 42
-0.006799
  0
VERTEX
  8
0
 10
21.810603
 20
64.765236
 42
-0.006471
  0
VERTEX
  8
0
 10
21.654990
 20
64.822098
 42
-0.031875
  0
VERTEX
  8
0
 10
21.569982
 20
64.860777
 42
0.045128
  0
VERTEX
  8
0
 10
21.498786
 20
64.890923
 42
0.023122
  0
VERTEX
  8
0
 10
21.405104
 20
64.916257
 42
0.022775
  0
VERTEX
  8
0
 10
21.305470
 20
64.933600
 42
0.031708
  0
VERTEX
  8
0
 10
21.215146
 20
64.939333
 42
-0.037432
  0
VERTEX
  8
0
 10
21.131760
 20
64.945585
 42
-0.041270
  0
VERTEX
  8
0
 10
21.053003
 20
64.964204
 42
-0.045300
  0
VERTEX
  8
0
 10
20.989498
 20
64.991443
 42
-0.131119
  0
VERTEX
  8
0
 10
20.955000
 20
65.024000
 42
0.131119
  0
VERTEX
  8
0
 10
20.920502
 20
65.056557
 42
0.045300
  0
VERTEX
  8
0
 10
20.856997
 20
65.083796
 42
0.041270
  0
VERTEX
  8
0
 10
20.778240
 20
65.102415
 42
0.037432
  0
VERTEX
  8
0
 10
20.694854
 20
65.108667
 42
-0.032605
  0
VERTEX
  8
0
 10
20.604530
 20
65.114563
 42
-0.023370
  0
VERTEX
  8
0
 10
20.504896
 20
65.132396
 42
-0.023725
  0
VERTEX
  8
0
 10
20.411225
 20
65.158449
 42
-0.045958
  0
VERTEX
  8
0
 10
20.340018
 20
65.189446
 42
0.051301
  0
VERTEX
  8
0
 10
20.252836
 20
65.226296
 42
0.009763
  0
VERTEX
  8
0
 10
20.086962
 20
65.273612
 42
0.010324
  0
VERTEX
  8
0
 10
19.890267
 20
65.321267
 42
0.009325
  0
VERTEX
  8
0
 10
19.685000
 20
65.362535
 42
-0.002754
  0
VERTEX
  8
0
 10
19.462672
 20
65.404201
 42
-0.001968
  0
VERTEX
  8
0
 10
19.214306
 20
65.453180
 42
-0.001986
  0
VERTEX
  8
0
 10
18.977942
 20
65.501736
 42
-0.004254
  0
VERTEX
  8
0
 10
18.796000
 20
65.541486
 42
0.028976
  0
VERTEX
  8
0
 10
17.991238
 20
65.676040
 42
0.016866
  0
VERTEX
  8
0
 10
17.014530
 20
65.748450
 42
0.016289
  0
VERTEX
  8
0
 10
15.977898
 20
65.756427
 42
0.018486
  0
SEQEND
  0
ENDSEC
  0
EOF
