999
DXF data, created by potrace 1.16, written by Peter Selinger 2001-2019
  0
SECTION
  2
HEADER
  9
$ACADVER
  1
AC1006
  9
$EXTMIN
 10
0.000000
 20
0.000000
 30
0.000000
  9
$EXTMAX
 10
13.800667
 20
15.409333
 30
0.000000
  0
ENDSEC
  0
SECTION
  2
ENTITIES
  0
POLYLINE
  8
0
 66
1
 70
1
  0
VERTEX
  8
0
 10
3.471333
 20
14.478000
 42
-0.050507
  0
VERTEX
  8
0
 10
3.409605
 20
14.446426
 42
-0.027073
  0
VERTEX
  8
0
 10
3.328206
 20
14.419655
 42
-0.026670
  0
VERTEX
  8
0
 10
3.241371
 20
14.401121
 42
-0.037474
  0
VERTEX
  8
0
 10
3.162431
 20
14.394630
 42
0.126081
  0
VERTEX
  8
0
 10
2.746621
 20
14.284921
 42
0.025413
  0
VERTEX
  8
0
 10
2.093212
 20
13.875613
 42
0.021684
  0
VERTEX
  8
0
 10
1.485339
 20
13.409854
 42
0.221950
  0
VERTEX
  8
0
 10
1.354667
 20
13.129982
 42
-0.091580
  0
VERTEX
  8
0
 10
1.348228
 20
13.095122
 42
-0.095876
  0
VERTEX
  8
0
 10
1.329796
 20
13.065491
 42
-0.099489
  0
VERTEX
  8
0
 10
1.302303
 20
13.045662
 42
-0.107034
  0
VERTEX
  8
0
 10
1.270000
 20
13.038667
 42
0.186414
  0
VERTEX
  8
0
 10
1.237675
 20
13.026181
 42
0.089706
  0
VERTEX
  8
0
 10
1.210204
 20
12.990393
 42
0.069539
  0
VERTEX
  8
0
 10
1.191580
 20
12.937217
 42
0.049547
  0
VERTEX
  8
0
 10
1.185333
 20
12.874330
 42
-0.042862
  0
VERTEX
  8
0
 10
1.179631
 20
12.807933
 42
-0.044374
  0
VERTEX
  8
0
 10
1.162695
 20
12.744276
 42
-0.048515
  0
VERTEX
  8
0
 10
1.137852
 20
12.692275
 42
-0.119207
  0
VERTEX
  8
0
 10
1.108266
 20
12.662363
 42
0.247950
  0
VERTEX
  8
0
 10
0.928537
 20
12.356404
 42
0.007032
  0
VERTEX
  8
0
 10
0.879910
 20
10.786478
 42
0.009161
  0
VERTEX
  8
0
 10
0.883175
 20
8.490125
 42
0.002291
  0
VERTEX
  8
0
 10
0.974383
 20
4.741333
 42
0.004636
  0
VERTEX
  8
0
 10
1.014811
 20
3.682951
 42
0.039013
  0
VERTEX
  8
0
 10
1.074533
 20
3.209344
 42
0.062638
  0
VERTEX
  8
0
 10
1.200140
 20
2.840882
 42
0.021733
  0
VERTEX
  8
0
 10
1.468399
 20
2.346448
 42
0.062513
  0
VERTEX
  8
0
 10
1.729242
 20
2.014101
 42
0.031109
  0
VERTEX
  8
0
 10
2.132932
 20
1.661249
 42
0.031011
  0
VERTEX
  8
0
 10
2.569682
 20
1.366220
 42
0.074408
  0
VERTEX
  8
0
 10
2.931030
 20
1.220400
 42
-0.015852
  0
VERTEX
  8
0
 10
3.030676
 20
1.193174
 42
-0.015877
  0
VERTEX
  8
0
 10
3.128343
 20
1.159702
 42
-0.015909
  0
VERTEX
  8
0
 10
3.211549
 20
1.125136
 42
-0.058876
  0
VERTEX
  8
0
 10
3.260139
 20
1.095800
 42
0.149913
  0
VERTEX
  8
0
 10
3.473031
 20
1.014893
 42
0.005035
  0
VERTEX
  8
0
 10
4.382284
 20
0.964380
 42
0.007769
  0
VERTEX
  8
0
 10
5.588866
 20
0.928305
 42
0.003122
  0
VERTEX
  8
0
 10
7.239000
 20
0.914927
 42
0.003099
  0
VERTEX
  8
0
 10
8.773855
 20
0.921581
 42
0.012645
  0
VERTEX
  8
0
 10
9.705842
 20
0.954980
 42
0.011586
  0
VERTEX
  8
0
 10
10.322290
 20
1.007058
 42
0.383081
  0
VERTEX
  8
0
 10
10.414000
 20
1.109192
 42
-0.281952
  0
VERTEX
  8
0
 10
10.432019
 20
1.138605
 42
-0.050167
  0
VERTEX
  8
0
 10
10.494830
 20
1.163060
 42
-0.041339
  0
VERTEX
  8
0
 10
10.583726
 20
1.180008
 42
-0.026159
  0
VERTEX
  8
0
 10
10.689167
 20
1.185650
 42
0.047177
  0
VERTEX
  8
0
 10
10.814110
 20
1.197610
 42
0.026116
  0
VERTEX
  8
0
 10
10.963017
 20
1.234356
 42
0.025824
  0
VERTEX
  8
0
 10
11.111281
 20
1.287771
 42
0.037547
  0
VERTEX
  8
0
 10
11.235018
 20
1.351013
 42
0.041859
  0
VERTEX
  8
0
 10
11.526514
 20
1.564091
 42
0.013402
  0
VERTEX
  8
0
 10
11.922461
 20
1.926856
 42
0.007014
  0
VERTEX
  8
0
 10
12.308769
 20
2.310949
 42
0.196016
  0
VERTEX
  8
0
 10
12.361333
 20
2.439880
 42
-0.092865
  0
VERTEX
  8
0
 10
12.367902
 20
2.474943
 42
-0.070111
  0
VERTEX
  8
0
 10
12.387086
 20
2.509208
 42
-0.068663
  0
VERTEX
  8
0
 10
12.415495
 20
2.537498
 42
-0.081289
  0
VERTEX
  8
0
 10
12.449003
 20
2.555112
 42
0.297281
  0
VERTEX
  8
0
 10
12.619333
 20
2.769610
 42
0.004880
  0
VERTEX
  8
0
 10
12.752952
 20
4.367180
 42
0.010905
  0
VERTEX
  8
0
 10
12.852103
 20
6.276868
 42
0.006879
  0
VERTEX
  8
0
 10
12.888502
 20
8.509000
 42
0.003580
  0
VERTEX
  8
0
 10
12.880889
 20
10.159313
 42
0.016995
  0
VERTEX
  8
0
 10
12.837684
 20
11.102813
 42
0.029152
  0
VERTEX
  8
0
 10
12.745607
 20
11.765628
 42
0.036938
  0
VERTEX
  8
0
 10
12.580634
 20
12.361333
 42
-0.000375
  0
VERTEX
  8
0
 10
12.524616
 20
12.518066
 42
-0.000381
  0
VERTEX
  8
0
 10
12.469172
 20
12.673938
 42
-0.000370
  0
VERTEX
  8
0
 10
12.421182
 20
12.809497
 42
-0.001581
  0
VERTEX
  8
0
 10
12.392862
 20
12.890500
 42
0.037009
  0
VERTEX
  8
0
 10
12.368405
 20
12.947209
 42
0.046734
  0
VERTEX
  8
0
 10
12.337373
 20
12.995143
 42
0.054100
  0
VERTEX
  8
0
 10
12.304755
 20
13.028377
 42
0.173371
  0
VERTEX
  8
0
 10
12.275970
 20
13.038667
 42
-0.215366
  0
VERTEX
  8
0
 10
12.247420
 20
13.051562
 42
-0.047909
  0
VERTEX
  8
0
 10
12.215234
 20
13.096028
 42
-0.041553
  0
VERTEX
  8
0
 10
12.184913
 20
13.159161
 42
-0.029704
  0
VERTEX
  8
0
 10
12.161347
 20
13.233938
 42
0.120575
  0
VERTEX
  8
0
 10
12.043901
 20
13.456319
 42
0.018795
  0
VERTEX
  8
0
 10
11.697738
 20
13.818004
 42
0.016260
  0
VERTEX
  8
0
 10
11.326031
 20
14.155515
 42
0.178021
  0
VERTEX
  8
0
 10
11.139777
 20
14.224000
 42
-0.048855
  0
VERTEX
  8
0
 10
11.088837
 20
14.228989
 42
-0.068855
  0
VERTEX
  8
0
 10
11.045768
 20
14.243875
 42
-0.089038
  0
VERTEX
  8
0
 10
11.016766
 20
14.265824
 42
-0.188518
  0
VERTEX
  8
0
 10
11.006667
 20
14.291658
 42
0.232954
  0
VERTEX
  8
0
 10
10.990859
 20
14.323746
 42
0.028320
  0
VERTEX
  8
0
 10
10.924071
 20
14.369309
 42
0.028867
  0
VERTEX
  8
0
 10
10.833203
 20
14.417118
 42
0.019914
  0
VERTEX
  8
0
 10
10.725489
 20
14.460991
 42
0.085254
  0
VERTEX
  8
0
 10
10.226075
 20
14.550260
 42
0.001109
  0
VERTEX
  8
0
 10
7.039326
 20
14.564803
 42
0.000702
  0
VERTEX
  8
0
 10
3.775723
 20
14.567873
 42
0.144307
  0
SEQEND
  0
ENDSEC
  0
EOF
