999
DXF data, created by potrace 1.16, written by Peter Selinger 2001-2019
  0
SECTION
  2
HEADER
  9
$ACADVER
  1
AC1006
  9
$EXTMIN
 10
0.000000
 20
0.000000
 30
0.000000
  9
$EXTMAX
 10
28.448000
 20
29.125333
 30
0.000000
  0
ENDSEC
  0
SECTION
  2
ENTITIES
  0
POLYLINE
  8
0
 66
1
 70
1
  0
VERTEX
  8
0
 10
15.451667
 20
28.116027
 42
0.034648
  0
VERTEX
  8
0
 10
14.707844
 20
27.847901
 42
0.030808
  0
VERTEX
  8
0
 10
13.977207
 20
27.470455
 42
0.030265
  0
VERTEX
  8
0
 10
13.285439
 20
26.998260
 42
0.030506
  0
VERTEX
  8
0
 10
12.657667
 20
26.447160
 42
0.018827
  0
VERTEX
  8
0
 10
12.137785
 20
25.891008
 42
0.028998
  0
VERTEX
  8
0
 10
11.736160
 20
25.369303
 42
0.031818
  0
VERTEX
  8
0
 10
11.425194
 20
24.843978
 42
0.030863
  0
VERTEX
  8
0
 10
11.179843
 20
24.278167
 42
-0.037352
  0
VERTEX
  8
0
 10
11.103559
 20
24.108314
 42
-0.250860
  0
VERTEX
  8
0
 10
11.028937
 20
24.059164
 42
-0.189503
  0
VERTEX
  8
0
 10
10.931438
 20
24.087592
 42
-0.021309
  0
VERTEX
  8
0
 10
10.751802
 20
24.239168
 42
0.055543
  0
VERTEX
  8
0
 10
10.461741
 20
24.451778
 42
0.012638
  0
VERTEX
  8
0
 10
9.925065
 20
24.742375
 42
0.009775
  0
VERTEX
  8
0
 10
9.374593
 20
25.009269
 42
0.108397
  0
VERTEX
  8
0
 10
9.137257
 20
25.061333
 42
-0.044649
  0
VERTEX
  8
0
 10
9.075019
 20
25.066902
 42
-0.064498
  0
VERTEX
  8
0
 10
9.022428
 20
25.083592
 42
-0.084387
  0
VERTEX
  8
0
 10
8.986874
 20
25.108150
 42
-0.202173
  0
VERTEX
  8
0
 10
8.974667
 20
25.137107
 42
0.348866
  0
VERTEX
  8
0
 10
8.924223
 20
25.200605
 42
0.016752
  0
VERTEX
  8
0
 10
8.640231
 20
25.256590
 42
0.016502
  0
VERTEX
  8
0
 10
8.213339
 20
25.311593
 42
0.004807
  0
VERTEX
  8
0
 10
7.552904
 20
25.368214
 42
0.025752
  0
VERTEX
  8
0
 10
7.044987
 20
25.380618
 42
0.021789
  0
VERTEX
  8
0
 10
6.509064
 20
25.342693
 42
0.022516
  0
VERTEX
  8
0
 10
6.012597
 20
25.262960
 42
0.044366
  0
VERTEX
  8
0
 10
5.630333
 20
25.147662
 42
0.018528
  0
VERTEX
  8
0
 10
4.880367
 20
24.813946
 42
0.034667
  0
VERTEX
  8
0
 10
4.305894
 20
24.481181
 42
0.034570
  0
VERTEX
  8
0
 10
3.781874
 20
24.071586
 42
0.018315
  0
VERTEX
  8
0
 10
3.189212
 20
23.497839
 42
0.026777
  0
VERTEX
  8
0
 10
2.879158
 20
23.138167
 42
0.009591
  0
VERTEX
  8
0
 10
2.475457
 20
22.594509
 42
0.004415
  0
VERTEX
  8
0
 10
2.079765
 20
22.029219
 42
0.151617
  0
VERTEX
  8
0
 10
2.032000
 20
21.875322
 42
-0.086082
  0
VERTEX
  8
0
 10
2.026537
 20
21.843828
 42
-0.004855
  0
VERTEX
  8
0
 10
1.992158
 20
21.750570
 42
-0.007336
  0
VERTEX
  8
0
 10
1.948324
 20
21.640045
 42
-0.005305
  0
VERTEX
  8
0
 10
1.896367
 20
21.518129
 42
0.016428
  0
VERTEX
  8
0
 10
1.619416
 20
20.825963
 42
0.041881
  0
VERTEX
  8
0
 10
1.478438
 20
20.304517
 42
0.035736
  0
VERTEX
  8
0
 10
1.414638
 20
19.720929
 42
0.009363
  0
VERTEX
  8
0
 10
1.397000
 20
18.779066
 42
0.004373
  0
VERTEX
  8
0
 10
1.402491
 20
18.151256
 42
0.014031
  0
VERTEX
  8
0
 10
1.421537
 20
17.733449
 42
0.015430
  0
VERTEX
  8
0
 10
1.451527
 20
17.447426
 42
0.163964
  0
VERTEX
  8
0
 10
1.502833
 20
17.343966
 42
-0.073519
  0
VERTEX
  8
0
 10
1.543414
 20
17.289305
 42
-0.038642
  0
VERTEX
  8
0
 10
1.577578
 20
17.211681
 42
-0.037410
  0
VERTEX
  8
0
 10
1.600873
 20
17.125015
 42
-0.046982
  0
VERTEX
  8
0
 10
1.608667
 20
17.042251
 42
0.032900
  0
VERTEX
  8
0
 10
1.614315
 20
16.956510
 42
0.022719
  0
VERTEX
  8
0
 10
1.631447
 20
16.860723
 42
0.022981
  0
VERTEX
  8
0
 10
1.656466
 20
16.769744
 42
0.042793
  0
VERTEX
  8
0
 10
1.686216
 20
16.699351
 42
-0.012596
  0
VERTEX
  8
0
 10
1.725194
 20
16.620718
 42
-0.003538
  0
VERTEX
  8
0
 10
1.782064
 20
16.496037
 42
-0.003565
  0
VERTEX
  8
0
 10
1.844380
 20
16.354109
 42
-0.003750
  0
VERTEX
  8
0
 10
1.903608
 20
16.213667
 42
0.016783
  0
VERTEX
  8
0
 10
2.139710
 20
15.692214
 42
0.015668
  0
VERTEX
  8
0
 10
2.415387
 20
15.175445
 42
0.016382
  0
VERTEX
  8
0
 10
2.701204
 20
14.713580
 42
0.030634
  0
VERTEX
  8
0
 10
2.966488
 20
14.363282
 42
-0.000060
  0
VERTEX
  8
0
 10
3.038447
 20
14.279441
 42
-0.000033
  0
VERTEX
  8
0
 10
3.126630
 20
14.176661
 42
-0.000033
  0
VERTEX
  8
0
 10
3.216177
 20
14.072263
 42
-0.000052
  0
VERTEX
  8
0
 10
3.292706
 20
13.983012
 42
0.000000
  0
VERTEX
  8
0
 10
3.463007
 20
13.784357
 42
0.000000
  0
VERTEX
  8
0
 10
2.978657
 20
13.305678
 42
0.006853
  0
VERTEX
  8
0
 10
2.573437
 20
12.894075
 42
0.016415
  0
VERTEX
  8
0
 10
2.287472
 20
12.575206
 42
0.021336
  0
VERTEX
  8
0
 10
2.073849
 20
12.297416
 42
0.025986
  0
VERTEX
  8
0
 10
1.899321
 20
12.019615
 42
-0.005544
  0
VERTEX
  8
0
 10
1.833231
 20
11.904203
 42
-0.007205
  0
VERTEX
  8
0
 10
1.770009
 20
11.800050
 42
-0.005549
  0
VERTEX
  8
0
 10
1.715004
 20
11.714436
 42
-0.063263
  0
VERTEX
  8
0
 10
1.688922
 20
11.684000
 42
0.098568
  0
VERTEX
  8
0
 10
1.632948
 20
11.608566
 42
0.005725
  0
VERTEX
  8
0
 10
1.512583
 20
11.346411
 42
0.009189
  0
VERTEX
  8
0
 10
1.386590
 20
11.048909
 42
0.009741
  0
VERTEX
  8
0
 10
1.274156
 20
10.752667
 42
-0.002532
  0
VERTEX
  8
0
 10
1.228450
 20
10.626801
 42
-0.002117
  0
VERTEX
  8
0
 10
1.178690
 20
10.493640
 42
-0.002136
  0
VERTEX
  8
0
 10
1.132147
 20
10.372249
 42
-0.005844
  0
VERTEX
  8
0
 10
1.097891
 20
10.287000
 42
0.068876
  0
VERTEX
  8
0
 10
0.959959
 20
9.760531
 42
0.015878
  0
VERTEX
  8
0
 10
0.880100
 20
8.844385
 42
0.016778
  0
VERTEX
  8
0
 10
0.859900
 20
7.911259
 42
0.050929
  0
VERTEX
  8
0
 10
0.931819
 20
7.281333
 42
0.007079
  0
VERTEX
  8
0
 10
1.006215
 20
6.963035
 42
0.019646
  0
VERTEX
  8
0
 10
1.070387
 20
6.742408
 42
0.017807
  0
VERTEX
  8
0
 10
1.155122
 20
6.515880
 42
0.004977
  0
VERTEX
  8
0
 10
1.303701
 20
6.167871
 42
-0.006096
  0
VERTEX
  8
0
 10
1.355651
 20
6.045431
 42
-0.008208
  0
VERTEX
  8
0
 10
1.399491
 20
5.933290
 42
-0.005913
  0
VERTEX
  8
0
 10
1.433393
 20
5.838783
 42
-0.083342
  0
VERTEX
  8
0
 10
1.439333
 20
5.803392
 42
0.150800
  0
VERTEX
  8
0
 10
1.474156
 20
5.690558
 42
0.003546
  0
VERTEX
  8
0
 10
1.793249
 20
5.229881
 42
0.008385
  0
VERTEX
  8
0
 10
2.112473
 20
4.791729
 42
0.026243
  0
VERTEX
  8
0
 10
2.346918
 20
4.512757
 42
0.026233
  0
VERTEX
  8
0
 10
2.618128
 20
4.251356
 42
0.013792
  0
VERTEX
  8
0
 10
2.980225
 20
3.954358
 42
0.007918
  0
VERTEX
  8
0
 10
3.342298
 20
3.682786
 42
0.158225
  0
VERTEX
  8
0
 10
3.472066
 20
3.640667
 42
-0.091723
  0
VERTEX
  8
0
 10
3.504108
 20
3.634739
 42
-0.095922
  0
VERTEX
  8
0
 10
3.531344
 20
3.617772
 42
-0.099464
  0
VERTEX
  8
0
 10
3.549571
 20
3.592464
 42
-0.106870
  0
VERTEX
  8
0
 10
3.556000
 20
3.562727
 42
0.229902
  0
VERTEX
  8
0
 10
3.572363
 20
3.529021
 42
0.045372
  0
VERTEX
  8
0
 10
3.630327
 20
3.491357
 42
0.039729
  0
VERTEX
  8
0
 10
3.712118
 20
3.456186
 42
0.027631
  0
VERTEX
  8
0
 10
3.809029
 20
3.429213
 42
-0.023326
  0
VERTEX
  8
0
 10
3.909436
 20
3.402196
 42
-0.027053
  0
VERTEX
  8
0
 10
4.001919
 20
3.367006
 42
-0.027635
  0
VERTEX
  8
0
 10
4.075745
 20
3.329233
 42
-0.122871
  0
VERTEX
  8
0
 10
4.110359
 20
3.295486
 42
0.135391
  0
VERTEX
  8
0
 10
4.142765
 20
3.265413
 42
0.044007
  0
VERTEX
  8
0
 10
4.203713
 20
3.240291
 42
0.040130
  0
VERTEX
  8
0
 10
4.279594
 20
3.223099
 42
0.035661
  0
VERTEX
  8
0
 10
4.360333
 20
3.217333
 42
-0.034401
  0
VERTEX
  8
0
 10
4.440944
 20
3.211781
 42
-0.039279
  0
VERTEX
  8
0
 10
4.516438
 20
3.195210
 42
-0.043007
  0
VERTEX
  8
0
 10
4.576915
 20
3.171017
 42
-0.138556
  0
VERTEX
  8
0
 10
4.608552
 20
3.142021
 42
0.142270
  0
VERTEX
  8
0
 10
4.645035
 20
3.109069
 42
0.022324
  0
VERTEX
  8
0
 10
4.734921
 20
3.070291
 42
0.023287
  0
VERTEX
  8
0
 10
4.848104
 20
3.033274
 42
0.018441
  0
VERTEX
  8
0
 10
4.973382
 20
3.003591
 42
0.043069
  0
VERTEX
  8
0
 10
5.438817
 20
2.952335
 42
0.005137
  0
VERTEX
  8
0
 10
6.476257
 20
2.938512
 42
0.004483
  0
VERTEX
  8
0
 10
7.522589
 20
2.944702
 42
0.055659
  0
VERTEX
  8
0
 10
7.916333
 20
2.994612
 42
0.004992
  0
VERTEX
  8
0
 10
8.311087
 20
3.094264
 42
0.008790
  0
VERTEX
  8
0
 10
8.634881
 20
3.185565
 42
0.010585
  0
VERTEX
  8
0
 10
8.900500
 20
3.271700
 42
0.018872
  0
VERTEX
  8
0
 10
9.114462
 20
3.355302
 42
-0.009549
  0
VERTEX
  8
0
 10
9.222193
 20
3.399728
 42
-0.011449
  0
VERTEX
  8
0
 10
9.325258
 20
3.437249
 42
-0.010230
  0
VERTEX
  8
0
 10
9.413034
 20
3.464959
 42
-0.071452
  0
VERTEX
  8
0
 10
9.457416
 20
3.471333
 42
0.096982
  0
VERTEX
  8
0
 10
9.580160
 20
3.495367
 42
0.022546
  0
VERTEX
  8
0
 10
9.771928
 20
3.583734
 42
0.016456
  0
VERTEX
  8
0
 10
9.955700
 20
3.686479
 42
0.260059
  0
VERTEX
  8
0
 10
9.990006
 20
3.746500
 42
-0.137943
  0
VERTEX
  8
0
 10
9.997090
 20
3.770717
 42
-0.098934
  0
VERTEX
  8
0
 10
10.016538
 20
3.791347
 42
-0.084973
  0
VERTEX
  8
0
 10
10.045438
 20
3.805239
 42
-0.069751
  0
VERTEX
  8
0
 10
10.079400
 20
3.810000
 42
0.138638
  0
VERTEX
  8
0
 10
10.235799
 20
3.854216
 42
0.007264
  0
VERTEX
  8
0
 10
10.680011
 20
4.136171
 42
0.012350
  0
VERTEX
  8
0
 10
11.115241
 20
4.437002
 42
0.032707
  0
VERTEX
  8
0
 10
11.405750
 20
4.679164
 42
0.000000
  0
VERTEX
  8
0
 10
11.677834
 20
4.937908
 42
0.000000
  0
VERTEX
  8
0
 10
11.765584
 20
4.707109
 42
-0.005080
  0
VERTEX
  8
0
 10
11.799195
 20
4.615925
 42
-0.006898
  0
VERTEX
  8
0
 10
11.827557
 20
4.532908
 42
-0.004781
  0
VERTEX
  8
0
 10
11.849630
 20
4.463003
 42
-0.074207
  0
VERTEX
  8
0
 10
11.853333
 20
4.438186
 42
0.143642
  0
VERTEX
  8
0
 10
11.869778
 20
4.382124
 42
0.000838
  0
VERTEX
  8
0
 10
12.167030
 20
3.920750
 42
0.001760
  0
VERTEX
  8
0
 10
12.453270
 20
3.481498
 42
0.060013
  0
VERTEX
  8
0
 10
12.533298
 20
3.386667
 42
-0.030838
  0
VERTEX
  8
0
 10
12.563150
 20
3.355206
 42
-0.001239
  0
VERTEX
  8
0
 10
12.664033
 20
3.234219
 42
-0.002173
  0
VERTEX
  8
0
 10
12.782588
 20
3.090049
 42
-0.001536
  0
VERTEX
  8
0
 10
12.914538
 20
2.927142
 42
0.042697
  0
VERTEX
  8
0
 10
13.300208
 20
2.523846
 42
0.016907
  0
VERTEX
  8
0
 10
13.892876
 20
2.036108
 42
0.016789
  0
VERTEX
  8
0
 10
14.513217
 20
1.592120
 42
0.046227
  0
VERTEX
  8
0
 10
14.986000
 20
1.336755
 42
0.001867
  0
VERTEX
  8
0
 10
15.346682
 20
1.184639
 42
0.006921
  0
VERTEX
  8
0
 10
15.575807
 20
1.092715
 42
0.009184
  0
VERTEX
  8
0
 10
15.772727
 20
1.020984
 42
0.005578
  0
VERTEX
  8
0
 10
16.008011
 20
0.943065
 42
0.067595
  0
VERTEX
  8
0
 10
16.419536
 20
0.870872
 42
0.007747
  0
VERTEX
  8
0
 10
17.362451
 20
0.849007
 42
0.005664
  0
VERTEX
  8
0
 10
18.326971
 20
0.852516
 42
0.116616
  0
VERTEX
  8
0
 10
18.606649
 20
0.923081
 42
-0.028132
  0
VERTEX
  8
0
 10
18.687652
 20
0.959555
 42
-0.007231
  0
VERTEX
  8
0
 10
18.822399
 20
1.009105
 42
-0.007339
  0
VERTEX
  8
0
 10
18.978019
 20
1.061235
 42
-0.007401
  0
VERTEX
  8
0
 10
19.134667
 20
1.108622
 42
0.026407
  0
VERTEX
  8
0
 10
19.529861
 20
1.244760
 42
0.034899
  0
VERTEX
  8
0
 10
19.871924
 20
1.411824
 42
0.031876
  0
VERTEX
  8
0
 10
20.210066
 20
1.637165
 42
0.017413
  0
VERTEX
  8
0
 10
20.595751
 20
1.953144
 42
0.030518
  0
VERTEX
  8
0
 10
20.981146
 20
2.336095
 42
0.025205
  0
VERTEX
  8
0
 10
21.344076
 20
2.787512
 42
0.025542
  0
VERTEX
  8
0
 10
21.653868
 20
3.264831
 42
0.034863
  0
VERTEX
  8
0
 10
21.879117
 20
3.725333
 42
0.000101
  0
VERTEX
  8
0
 10
21.943262
 20
3.883620
 42
0.000097
  0
VERTEX
  8
0
 10
22.008244
 20
4.044156
 42
0.000096
  0
VERTEX
  8
0
 10
22.065512
 20
4.185791
 42
0.000351
  0
VERTEX
  8
0
 10
22.101758
 20
4.275667
 42
0.014132
  0
VERTEX
  8
0
 10
22.132366
 20
4.358391
 42
0.006148
  0
VERTEX
  8
0
 10
22.168547
 20
4.469871
 42
0.006078
  0
VERTEX
  8
0
 10
22.204122
 20
4.589361
 42
0.008052
  0
VERTEX
  8
0
 10
22.233419
 20
4.699000
 42
0.056445
  0
VERTEX
  8
0
 10
22.289649
 20
5.121743
 42
0.007042
  0
VERTEX
  8
0
 10
22.294640
 20
6.049167
 42
0.007371
  0
VERTEX
  8
0
 10
22.272931
 20
6.975049
 42
0.050744
  0
VERTEX
  8
0
 10
22.209698
 20
7.425112
 42
-0.037901
  0
VERTEX
  8
0
 10
22.166403
 20
7.684763
 42
-0.242880
  0
VERTEX
  8
0
 10
22.215143
 20
7.804329
 42
-0.162428
  0
VERTEX
  8
0
 10
22.357633
 20
7.862093
 42
-0.015776
  0
VERTEX
  8
0
 10
22.734928
 20
7.874000
 42
0.021318
  0
VERTEX
  8
0
 10
22.880088
 20
7.880192
 42
0.028261
  0
VERTEX
  8
0
 10
23.010961
 20
7.898871
 42
0.028152
  0
VERTEX
  8
0
 10
23.114279
 20
7.925755
 42
0.178451
  0
VERTEX
  8
0
 10
23.156333
 20
7.958667
 42
-0.111983
  0
VERTEX
  8
0
 10
23.188244
 20
7.991143
 42
-0.050144
  0
VERTEX
  8
0
 10
23.241901
 20
8.018463
 42
-0.046179
  0
VERTEX
  8
0
 10
23.306962
 20
8.037062
 42
-0.046572
  0
VERTEX
  8
0
 10
23.374146
 20
8.043333
 42
0.046604
  0
VERTEX
  8
0
 10
23.496934
 20
8.054803
 42
0.047689
  0
VERTEX
  8
0
 10
23.614488
 20
8.088808
 42
0.022730
  0
VERTEX
  8
0
 10
23.780580
 20
8.163447
 42
0.002883
  0
VERTEX
  8
0
 10
24.130000
 20
8.342509
 42
0.005378
  0
VERTEX
  8
0
 10
24.599276
 20
8.592865
 42
0.028580
  0
VERTEX
  8
0
 10
24.845962
 20
8.746832
 42
0.027071
  0
VERTEX
  8
0
 10
25.079045
 20
8.931211
 42
0.004508
  0
VERTEX
  8
0
 10
25.503980
 20
9.313333
 42
0.025906
  0
VERTEX
  8
0
 10
25.935382
 20
9.751532
 42
0.023421
  0
VERTEX
  8
0
 10
26.334766
 20
10.246480
 42
0.023596
  0
VERTEX
  8
0
 10
26.682995
 20
10.772318
 42
0.027509
  0
VERTEX
  8
0
 10
26.961126
 20
11.303000
 42
-0.001457
  0
VERTEX
  8
0
 10
27.055344
 20
11.508084
 42
-0.001651
  0
VERTEX
  8
0
 10
27.146928
 20
11.704213
 42
-0.001502
  0
VERTEX
  8
0
 10
27.225809
 20
11.870395
 42
-0.009142
  0
VERTEX
  8
0
 10
27.268433
 20
11.955469
 42
0.045033
  0
VERTEX
  8
0
 10
27.301270
 20
12.034735
 42
0.012498
  0
VERTEX
  8
0
 10
27.338206
 20
12.164287
 42
0.012511
  0
VERTEX
  8
0
 10
27.372831
 20
12.313695
 42
0.012813
  0
VERTEX
  8
0
 10
27.399633
 20
12.463469
 42
-0.015261
  0
VERTEX
  8
0
 10
27.426577
 20
12.609890
 42
-0.016972
  0
VERTEX
  8
0
 10
27.461630
 20
12.749241
 42
-0.016515
  0
VERTEX
  8
0
 10
27.499276
 20
12.865404
 42
-0.080072
  0
VERTEX
  8
0
 10
27.532772
 20
12.925820
 42
0.172494
  0
VERTEX
  8
0
 10
27.602253
 20
13.132432
 42
0.003727
  0
VERTEX
  8
0
 10
27.575568
 20
14.213815
 42
0.007743
  0
VERTEX
  8
0
 10
27.526657
 20
15.240329
 42
0.051355
  0
VERTEX
  8
0
 10
27.442155
 20
15.745574
 42
0.035361
  0
VERTEX
  8
0
 10
27.235957
 20
16.330291
 42
0.031593
  0
VERTEX
  8
0
 10
26.942715
 20
16.903473
 42
0.031514
  0
VERTEX
  8
0
 10
26.578695
 20
17.436636
 42
0.034696
  0
VERTEX
  8
0
 10
26.161151
 20
17.901868
 42
0.007655
  0
VERTEX
  8
0
 10
25.934827
 20
18.114702
 42
0.011242
  0
VERTEX
  8
0
 10
25.728926
 20
18.294165
 42
0.006776
  0
VERTEX
  8
0
 10
25.552448
 20
18.437128
 42
0.168394
  0
VERTEX
  8
0
 10
25.494156
 20
18.457333
 42
-0.088707
  0
VERTEX
  8
0
 10
25.458207
 20
18.463762
 42
-0.094903
  0
VERTEX
  8
0
 10
25.427658
 20
18.482204
 42
-0.099952
  0
VERTEX
  8
0
 10
25.407222
 20
18.509700
 42
-0.110429
  0
VERTEX
  8
0
 10
25.400000
 20
18.542000
 42
0.096242
  0
VERTEX
  8
0
 10
25.393722
 20
18.574316
 42
0.097244
  0
VERTEX
  8
0
 10
25.375809
 20
18.601796
 42
0.098575
  0
VERTEX
  8
0
 10
25.349073
 20
18.620194
 42
0.101907
  0
VERTEX
  8
0
 10
25.317648
 20
18.626667
 42
-0.086716
  0
VERTEX
  8
0
 10
25.264454
 20
18.635962
 42
-0.005531
  0
VERTEX
  8
0
 10
25.115799
 20
18.691417
 42
-0.007974
  0
VERTEX
  8
0
 10
24.939514
 20
18.762661
 42
-0.005842
  0
VERTEX
  8
0
 10
24.746148
 20
18.847095
 42
0.009636
  0
VERTEX
  8
0
 10
24.156109
 20
19.099425
 42
0.024233
  0
VERTEX
  8
0
 10
23.714789
 20
19.253744
 42
0.027151
  0
VERTEX
  8
0
 10
23.291018
 20
19.354596
 42
0.015218
  0
VERTEX
  8
0
 10
22.767172
 20
19.433189
 42
0.000000
  0
VERTEX
  8
0
 10
22.293344
 20
19.489595
 42
0.000000
  0
VERTEX
  8
0
 10
22.414672
 20
19.968297
 42
0.034398
  0
VERTEX
  8
0
 10
22.679578
 20
21.428577
 42
0.045805
  0
VERTEX
  8
0
 10
22.705376
 20
22.776238
 42
0.048826
  0
VERTEX
  8
0
 10
22.489286
 20
24.035235
 42
0.048582
  0
VERTEX
  8
0
 10
22.032977
 20
25.230667
 42
0.004603
  0
VERTEX
  8
0
 10
21.905780
 20
25.480494
 42
0.006064
  0
VERTEX
  8
0
 10
21.784948
 20
25.705801
 42
0.004492
  0
VERTEX
  8
0
 10
21.679990
 20
25.891961
 42
0.057121
  0
VERTEX
  8
0
 10
21.632333
 20
25.956442
 42
-0.021933
  0
VERTEX
  8
0
 10
21.587308
 20
26.009172
 42
-0.004567
  0
VERTEX
  8
0
 10
21.513275
 20
26.105805
 42
-0.004786
  0
VERTEX
  8
0
 10
21.429371
 20
26.219673
 42
-0.004504
  0
VERTEX
  8
0
 10
21.345923
 20
26.337442
 42
0.060426
  0
VERTEX
  8
0
 10
20.870134
 20
26.871077
 42
0.033582
  0
VERTEX
  8
0
 10
20.177756
 20
27.402687
 42
0.033084
  0
VERTEX
  8
0
 10
19.397261
 20
27.851140
 42
0.046999
  0
VERTEX
  8
0
 10
18.649112
 20
28.133980
 42
0.049930
  0
VERTEX
  8
0
 10
17.992231
 20
28.245210
 42
0.018397
  0
VERTEX
  8
0
 10
17.051662
 20
28.274541
 42
0.018415
  0
VERTEX
  8
0
 10
16.110723
 20
28.234583
 42
0.049400
  0
SEQEND
  0
ENDSEC
  0
EOF
