999
DXF data, created by potrace 1.16, written by Peter Selinger 2001-2019
  0
SECTION
  2
HEADER
  9
$ACADVER
  1
AC1006
  9
$EXTMIN
 10
0.000000
 20
0.000000
 30
0.000000
  9
$EXTMAX
 10
34.205333
 20
66.717333
 30
0.000000
  0
ENDSEC
  0
SECTION
  2
ENTITIES
  0
POLYLINE
  8
0
 66
1
 70
1
  0
VERTEX
  8
0
 10
14.901333
 20
65.788092
 42
-0.090069
  0
VERTEX
  8
0
 10
14.825156
 20
65.755380
 42
-0.019060
  0
VERTEX
  8
0
 10
14.682536
 20
65.728269
 42
-0.019375
  0
VERTEX
  8
0
 10
14.512403
 20
65.709309
 42
-0.017325
  0
VERTEX
  8
0
 10
14.334830
 20
65.702630
 42
0.017898
  0
VERTEX
  8
0
 10
14.162679
 20
65.695957
 42
0.024630
  0
VERTEX
  8
0
 10
14.009060
 20
65.676843
 42
0.022883
  0
VERTEX
  8
0
 10
13.887412
 20
65.649795
 42
0.190421
  0
VERTEX
  8
0
 10
13.843000
 20
65.616667
 42
-0.169477
  0
VERTEX
  8
0
 10
13.802531
 20
65.583843
 42
-0.031768
  0
VERTEX
  8
0
 10
13.709496
 20
65.556871
 42
-0.030777
  0
VERTEX
  8
0
 10
13.591677
 20
65.538203
 42
-0.023905
  0
VERTEX
  8
0
 10
13.462000
 20
65.532000
 42
0.020572
  0
VERTEX
  8
0
 10
13.332849
 20
65.526684
 42
0.027502
  0
VERTEX
  8
0
 10
13.216671
 20
65.510636
 42
0.027049
  0
VERTEX
  8
0
 10
13.124925
 20
65.487566
 42
0.181142
  0
VERTEX
  8
0
 10
13.088377
 20
65.459270
 42
-0.179814
  0
VERTEX
  8
0
 10
13.048267
 20
65.428051
 42
-0.015190
  0
VERTEX
  8
0
 10
12.920077
 20
65.391855
 42
-0.018645
  0
VERTEX
  8
0
 10
12.759907
 20
65.358130
 42
-0.013314
  0
VERTEX
  8
0
 10
12.578562
 20
65.331904
 42
0.012397
  0
VERTEX
  8
0
 10
12.383276
 20
65.304029
 42
0.010887
  0
VERTEX
  8
0
 10
12.180921
 20
65.265458
 42
0.011007
  0
VERTEX
  8
0
 10
11.999799
 20
65.222640
 42
0.031998
  0
VERTEX
  8
0
 10
11.877681
 20
65.182426
 42
-0.001142
  0
VERTEX
  8
0
 10
11.550643
 20
65.051871
 42
-0.003202
  0
VERTEX
  8
0
 10
11.320808
 20
64.962428
 42
-0.002789
  0
VERTEX
  8
0
 10
11.073142
 20
64.869446
 42
-0.000699
  0
VERTEX
  8
0
 10
10.668000
 20
64.720558
 42
0.007830
  0
VERTEX
  8
0
 10
10.422629
 20
64.626392
 42
0.011650
  0
VERTEX
  8
0
 10
10.211241
 20
64.535670
 42
0.006845
  0
VERTEX
  8
0
 10
10.038496
 20
64.453841
 42
0.185913
  0
VERTEX
  8
0
 10
10.004778
 20
64.417436
 42
-0.154868
  0
VERTEX
  8
0
 10
9.982497
 20
64.390261
 42
-0.055319
  0
VERTEX
  8
0
 10
9.937177
 20
64.367455
 42
-0.048341
  0
VERTEX
  8
0
 10
9.878457
 20
64.351892
 42
-0.040642
  0
VERTEX
  8
0
 10
9.814278
 20
64.346667
 42
0.050201
  0
VERTEX
  8
0
 10
9.752181
 20
64.340416
 42
0.070178
  0
VERTEX
  8
0
 10
9.699669
 20
64.321796
 42
0.090315
  0
VERTEX
  8
0
 10
9.664344
 20
64.294321
 42
0.184457
  0
VERTEX
  8
0
 10
9.652000
 20
64.262000
 42
-0.109094
  0
VERTEX
  8
0
 10
9.644867
 20
64.229699
 42
-0.099783
  0
VERTEX
  8
0
 10
9.624670
 20
64.202204
 42
-0.095291
  0
VERTEX
  8
0
 10
9.594483
 20
64.183766
 42
-0.089817
  0
VERTEX
  8
0
 10
9.558962
 20
64.177333
 42
0.096588
  0
VERTEX
  8
0
 10
9.442857
 20
64.154693
 42
0.008617
  0
VERTEX
  8
0
 10
9.167852
 20
64.037647
 42
0.008423
  0
VERTEX
  8
0
 10
8.896581
 20
63.911106
 42
0.100818
  0
VERTEX
  8
0
 10
8.805333
 20
63.841122
 42
-0.069927
  0
VERTEX
  8
0
 10
8.692798
 20
63.743294
 42
-0.020265
  0
VERTEX
  8
0
 10
8.494457
 20
63.625626
 42
-0.018415
  0
VERTEX
  8
0
 10
8.290493
 20
63.525054
 42
-0.105710
  0
VERTEX
  8
0
 10
8.173312
 20
63.500000
 42
0.046768
  0
VERTEX
  8
0
 10
8.123396
 20
63.495321
 42
0.065222
  0
VERTEX
  8
0
 10
8.080829
 20
63.481347
 42
0.083539
  0
VERTEX
  8
0
 10
8.051643
 20
63.460768
 42
0.190559
  0
VERTEX
  8
0
 10
8.040998
 20
63.436500
 42
-0.212244
  0
VERTEX
  8
0
 10
8.023040
 20
63.399797
 42
-0.006886
  0
VERTEX
  8
0
 10
7.892728
 20
63.293617
 42
-0.012135
  0
VERTEX
  8
0
 10
7.730976
 20
63.171756
 42
-0.008008
  0
VERTEX
  8
0
 10
7.539526
 20
63.039260
 42
0.042088
  0
VERTEX
  8
0
 10
7.045525
 20
62.645073
 42
0.004050
  0
VERTEX
  8
0
 10
5.936824
 20
61.579180
 42
0.004818
  0
VERTEX
  8
0
 10
4.854388
 20
60.500946
 42
0.028682
  0
VERTEX
  8
0
 10
4.328399
 20
59.901667
 42
0.015647
  0
VERTEX
  8
0
 10
4.079675
 20
59.561764
 42
0.005803
  0
VERTEX
  8
0
 10
3.750418
 20
59.068751
 42
0.001781
  0
VERTEX
  8
0
 10
3.413627
 20
58.547509
 42
0.143495
  0
VERTEX
  8
0
 10
3.386667
 20
58.455499
 42
-0.125353
  0
VERTEX
  8
0
 10
3.377269
 20
58.418604
 42
-0.011171
  0
VERTEX
  8
0
 10
3.329192
 20
58.334858
 42
-0.014017
  0
VERTEX
  8
0
 10
3.265945
 20
58.236515
 42
-0.010477
  0
VERTEX
  8
0
 10
3.191007
 20
58.131658
 42
0.039119
  0
VERTEX
  8
0
 10
2.960539
 20
57.766708
 42
0.007346
  0
VERTEX
  8
0
 10
2.602295
 20
57.062105
 42
0.004202
  0
VERTEX
  8
0
 10
2.248849
 20
56.325299
 42
0.110160
  0
VERTEX
  8
0
 10
2.201333
 20
56.112252
 42
-0.044118
  0
VERTEX
  8
0
 10
2.196634
 20
56.059099
 42
-0.049503
  0
VERTEX
  8
0
 10
2.182680
 20
56.009696
 42
-0.055860
  0
VERTEX
  8
0
 10
2.162196
 20
55.970902
 42
-0.139687
  0
VERTEX
  8
0
 10
2.137833
 20
55.950556
 42
0.195875
  0
VERTEX
  8
0
 10
2.104559
 20
55.915946
 42
0.002825
  0
VERTEX
  8
0
 10
1.998312
 20
55.644609
 42
0.007292
  0
VERTEX
  8
0
 10
1.880159
 20
55.323900
 42
0.004685
  0
VERTEX
  8
0
 10
1.752038
 20
54.948667
 42
0.007572
  0
VERTEX
  8
0
 10
1.550852
 20
54.308536
 42
0.013404
  0
VERTEX
  8
0
 10
1.407206
 20
53.774077
 42
0.014571
  0
VERTEX
  8
0
 10
1.300448
 20
53.264762
 42
0.011300
  0
VERTEX
  8
0
 10
1.213052
 20
52.705000
 42
-0.017288
  0
VERTEX
  8
0
 10
1.190222
 20
52.569446
 42
-0.019945
  0
VERTEX
  8
0
 10
1.158903
 20
52.442189
 42
-0.019435
  0
VERTEX
  8
0
 10
1.124206
 20
52.337509
 42
-0.099856
  0
VERTEX
  8
0
 10
1.091995
 20
52.285900
 42
0.140120
  0
VERTEX
  8
0
 10
1.062279
 20
52.228626
 42
0.016708
  0
VERTEX
  8
0
 10
1.038323
 20
52.086311
 42
0.018882
  0
VERTEX
  8
0
 10
1.021554
 20
51.911418
 42
0.014459
  0
VERTEX
  8
0
 10
1.016000
 20
51.719397
 42
-0.016227
  0
VERTEX
  8
0
 10
1.009832
 20
51.529396
 42
-0.022773
  0
VERTEX
  8
0
 10
0.991129
 20
51.360739
 42
-0.020182
  0
VERTEX
  8
0
 10
0.964479
 20
51.226752
 42
-0.197646
  0
VERTEX
  8
0
 10
0.931333
 20
51.181000
 42
0.259345
  0
VERTEX
  8
0
 10
0.847611
 20
51.031224
 42
0.000551
  0
VERTEX
  8
0
 10
0.844601
 20
48.302333
 42
0.000551
  0
VERTEX
  8
0
 10
0.847611
 20
45.573443
 42
0.259345
  0
VERTEX
  8
0
 10
0.931333
 20
45.423667
 42
-0.197646
  0
VERTEX
  8
0
 10
0.964479
 20
45.377915
 42
-0.020182
  0
VERTEX
  8
0
 10
0.991129
 20
45.243928
 42
-0.022773
  0
VERTEX
  8
0
 10
1.009832
 20
45.075271
 42
-0.016227
  0
VERTEX
  8
0
 10
1.016000
 20
44.885270
 42
0.014459
  0
VERTEX
  8
0
 10
1.021554
 20
44.693249
 42
0.018882
  0
VERTEX
  8
0
 10
1.038323
 20
44.518356
 42
0.016708
  0
VERTEX
  8
0
 10
1.062279
 20
44.376040
 42
0.140120
  0
VERTEX
  8
0
 10
1.091995
 20
44.318767
 42
-0.099594
  0
VERTEX
  8
0
 10
1.124240
 20
44.267161
 42
-0.019375
  0
VERTEX
  8
0
 10
1.159073
 20
44.162477
 42
-0.019889
  0
VERTEX
  8
0
 10
1.190579
 20
44.035221
 42
-0.017243
  0
VERTEX
  8
0
 10
1.213631
 20
43.899667
 42
0.005920
  0
VERTEX
  8
0
 10
1.295984
 20
43.338851
 42
0.009224
  0
VERTEX
  8
0
 10
1.381543
 20
42.858001
 42
0.008198
  0
VERTEX
  8
0
 10
1.463474
 20
42.475355
 42
0.071099
  0
VERTEX
  8
0
 10
1.526190
 20
42.313316
 42
-0.040147
  0
VERTEX
  8
0
 10
1.557803
 20
42.244566
 42
-0.024373
  0
VERTEX
  8
0
 10
1.584439
 20
42.159068
 42
-0.024339
  0
VERTEX
  8
0
 10
1.602696
 20
42.071084
 42
-0.039003
  0
VERTEX
  8
0
 10
1.608667
 20
41.994667
 42
0.037906
  0
VERTEX
  8
0
 10
1.614468
 20
41.918249
 42
0.023721
  0
VERTEX
  8
0
 10
1.632211
 20
41.830266
 42
0.023764
  0
VERTEX
  8
0
 10
1.658093
 20
41.744761
 42
0.039438
  0
VERTEX
  8
0
 10
1.688816
 20
41.676018
 42
-0.032753
  0
VERTEX
  8
0
 10
1.728193
 20
41.590977
 42
-0.006683
  0
VERTEX
  8
0
 10
1.785831
 20
41.435397
 42
-0.007014
  0
VERTEX
  8
0
 10
1.847982
 20
41.252394
 42
-0.006532
  0
VERTEX
  8
0
 10
1.906528
 20
41.063333
 42
0.006703
  0
VERTEX
  8
0
 10
2.006062
 20
40.742307
 42
0.011358
  0
VERTEX
  8
0
 10
2.099053
 20
40.476696
 42
0.013059
  0
VERTEX
  8
0
 10
2.193190
 20
40.244788
 42
0.014718
  0
VERTEX
  8
0
 10
2.295878
 20
40.027316
 42
-0.022622
  0
VERTEX
  8
0
 10
2.324507
 20
39.964117
 42
-0.019866
  0
VERTEX
  8
0
 10
2.348698
 20
39.895817
 42
-0.020336
  0
VERTEX
  8
0
 10
2.365572
 20
39.832385
 42
-0.054888
  0
VERTEX
  8
0
 10
2.370667
 20
39.786111
 42
0.087981
  0
VERTEX
  8
0
 10
2.388853
 20
39.683556
 42
0.010761
  0
VERTEX
  8
0
 10
2.472200
 20
39.470278
 42
0.008524
  0
VERTEX
  8
0
 10
2.610420
 20
39.153224
 42
0.002147
  0
VERTEX
  8
0
 10
2.846445
 20
38.641894
 42
-0.007967
  0
VERTEX
  8
0
 10
2.923632
 20
38.469427
 42
-0.010238
  0
VERTEX
  8
0
 10
2.988793
 20
38.308346
 42
-0.008288
  0
VERTEX
  8
0
 10
3.038066
 20
38.172243
 42
-0.082882
  0
VERTEX
  8
0
 10
3.048000
 20
38.112728
 42
0.085634
  0
VERTEX
  8
0
 10
3.054417
 20
38.075537
 42
0.093748
  0
VERTEX
  8
0
 10
3.072871
 20
38.043943
 42
0.100347
  0
VERTEX
  8
0
 10
3.100370
 20
38.022813
 42
0.114280
  0
VERTEX
  8
0
 10
3.132667
 20
38.015333
 42
-0.191087
  0
VERTEX
  8
0
 10
3.164999
 20
38.002508
 42
-0.088204
  0
VERTEX
  8
0
 10
3.192462
 20
37.965592
 42
-0.068025
  0
VERTEX
  8
0
 10
3.211094
 20
37.910805
 42
-0.048028
  0
VERTEX
  8
0
 10
3.217333
 20
37.846000
 42
0.040222
  0
VERTEX
  8
0
 10
3.222558
 20
37.781163
 42
0.059546
  0
VERTEX
  8
0
 10
3.238288
 20
37.726408
 42
0.078314
  0
VERTEX
  8
0
 10
3.261373
 20
37.689176
 42
0.218238
  0
VERTEX
  8
0
 10
3.288667
 20
37.676667
 42
-0.215811
  0
VERTEX
  8
0
 10
3.324997
 20
37.660220
 42
-0.021410
  0
VERTEX
  8
0
 10
3.386488
 20
37.583833
 42
-0.023935
  0
VERTEX
  8
0
 10
3.454442
 20
37.481703
 42
-0.016705
  0
VERTEX
  8
0
 10
3.521501
 20
37.360639
 42
0.018593
  0
VERTEX
  8
0
 10
3.681447
 20
37.074433
 42
0.003888
  0
VERTEX
  8
0
 10
3.983992
 20
36.585993
 42
0.004336
  0
VERTEX
  8
0
 10
4.308376
 20
36.081040
 42
0.008991
  0
VERTEX
  8
0
 10
4.572000
 20
35.693771
 42
0.025339
  0
VERTEX
  8
0
 10
5.265899
 20
34.811262
 42
0.015208
  0
VERTEX
  8
0
 10
6.172219
 20
33.833305
 42
0.015244
  0
VERTEX
  8
0
 10
7.124724
 20
32.923454
 42
0.028286
  0
VERTEX
  8
0
 10
7.958667
 20
32.255323
 42
-0.003464
  0
VERTEX
  8
0
 10
8.211111
 20
32.072871
 42
-0.004239
  0
VERTEX
  8
0
 10
8.444442
 20
31.898700
 42
-0.003553
  0
VERTEX
  8
0
 10
8.638188
 20
31.749320
 42
-0.030030
  0
VERTEX
  8
0
 10
8.720667
 20
31.676401
 42
0.039334
  0
VERTEX
  8
0
 10
8.806066
 20
31.603681
 42
0.004055
  0
VERTEX
  8
0
 10
9.021763
 20
31.450138
 42
0.005031
  0
VERTEX
  8
0
 10
9.282458
 20
31.271609
 42
0.004000
  0
VERTEX
  8
0
 10
9.567333
 20
31.083988
 42
-0.006755
  0
VERTEX
  8
0
 10
9.861109
 20
30.888175
 42
-0.006808
  0
VERTEX
  8
0
 10
10.148714
 20
30.684997
 42
-0.006668
  0
VERTEX
  8
0
 10
10.394435
 20
30.501285
 42
-0.027158
  0
VERTEX
  8
0
 10
10.535906
 20
30.379777
 42
0.015273
  0
VERTEX
  8
0
 10
10.637244
 20
30.288468
 42
0.019738
  0
VERTEX
  8
0
 10
10.735886
 20
30.211376
 42
0.017839
  0
VERTEX
  8
0
 10
10.821480
 20
30.154285
 42
0.139025
  0
VERTEX
  8
0
 10
10.867161
 20
30.141333
 42
-0.135749
  0
VERTEX
  8
0
 10
10.984889
 20
30.108770
 42
-0.005262
  0
VERTEX
  8
0
 10
11.373028
 20
29.870683
 42
-0.009840
  0
VERTEX
  8
0
 10
11.745778
 20
29.626244
 42
-0.034604
  0
VERTEX
  8
0
 10
11.970600
 20
29.448390
 42
0.032319
  0
VERTEX
  8
0
 10
12.053053
 20
29.382549
 42
0.013076
  0
VERTEX
  8
0
 10
12.173225
 20
29.303285
 42
0.012875
  0
VERTEX
  8
0
 10
12.307388
 20
29.224464
 42
0.015965
  0
VERTEX
  8
0
 10
12.436267
 20
29.158428
 42
-0.019439
  0
VERTEX
  8
0
 10
12.729566
 20
29.005565
 42
-0.012061
  0
VERTEX
  8
0
 10
13.061964
 20
28.804756
 42
-0.011993
  0
VERTEX
  8
0
 10
13.370938
 20
28.597187
 42
-0.029706
  0
VERTEX
  8
0
 10
13.583798
 20
28.426833
 42
0.028398
  0
VERTEX
  8
0
 10
13.654275
 20
28.370128
 42
0.028983
  0
VERTEX
  8
0
 10
13.730260
 20
28.322191
 42
0.030277
  0
VERTEX
  8
0
 10
13.800842
 20
28.288588
 42
0.096243
  0
VERTEX
  8
0
 10
13.851909
 20
28.278667
 42
-0.061000
  0
VERTEX
  8
0
 10
13.893772
 20
28.273540
 42
-0.059122
  0
VERTEX
  8
0
 10
13.933635
 20
28.258454
 42
-0.064132
  0
VERTEX
  8
0
 10
13.965632
 20
28.236186
 42
-0.111835
  0
VERTEX
  8
0
 10
13.984111
 20
28.209856
 42
0.116175
  0
VERTEX
  8
0
 10
14.013361
 20
28.168931
 42
0.004815
  0
VERTEX
  8
0
 10
14.150871
 20
28.050900
 42
0.008128
  0
VERTEX
  8
0
 10
14.318619
 20
27.914293
 42
0.005660
  0
VERTEX
  8
0
 10
14.512173
 20
27.765356
 42
-0.003156
  0
VERTEX
  8
0
 10
15.202338
 20
27.239765
 42
-0.013243
  0
VERTEX
  8
0
 10
15.606511
 20
26.910483
 42
-0.015656
  0
VERTEX
  8
0
 10
15.959856
 20
26.586914
 42
-0.005704
  0
VERTEX
  8
0
 10
16.440438
 20
26.107527
 42
-0.010740
  0
VERTEX
  8
0
 10
16.977136
 20
25.535743
 42
-0.014207
  0
VERTEX
  8
0
 10
17.439313
 20
24.991310
 42
-0.010014
  0
VERTEX
  8
0
 10
17.802489
 20
24.518916
 42
-0.160199
  0
VERTEX
  8
0
 10
17.864667
 20
24.329834
 42
0.061468
  0
VERTEX
  8
0
 10
17.869695
 20
24.289089
 42
0.058961
  0
VERTEX
  8
0
 10
17.884492
 20
24.250173
 42
0.063738
  0
VERTEX
  8
0
 10
17.906333
 20
24.218819
 42
0.110190
  0
VERTEX
  8
0
 10
17.932157
 20
24.200556
 42
-0.196295
  0
VERTEX
  8
0
 10
18.091702
 20
24.041542
 42
-0.007053
  0
VERTEX
  8
0
 10
18.422307
 20
23.226382
 42
-0.013378
  0
VERTEX
  8
0
 10
18.714536
 20
22.411782
 42
-0.043555
  0
VERTEX
  8
0
 10
18.845487
 20
21.854090
 42
0.011976
  0
VERTEX
  8
0
 10
18.871859
 20
21.698147
 42
0.014396
  0
VERTEX
  8
0
 10
18.904355
 20
21.553012
 42
0.013113
  0
VERTEX
  8
0
 10
18.938196
 20
21.433200
 42
0.087531
  0
VERTEX
  8
0
 10
18.966490
 20
21.378333
 42
-0.086924
  0
VERTEX
  8
0
 10
18.994680
 20
21.323831
 42
-0.013511
  0
VERTEX
  8
0
 10
19.027992
 20
21.206619
 42
-0.014702
  0
VERTEX
  8
0
 10
19.059788
 20
21.064745
 42
-0.012326
  0
VERTEX
  8
0
 10
19.085333
 20
20.912667
 42
0.001184
  0
VERTEX
  8
0
 10
19.112511
 20
20.725427
 42
0.000475
  0
VERTEX
  8
0
 10
19.150527
 20
20.469490
 42
0.000470
  0
VERTEX
  8
0
 10
19.192009
 20
20.193812
 42
0.000595
  0
VERTEX
  8
0
 10
19.230906
 20
19.939000
 42
-0.031004
  0
VERTEX
  8
0
 10
19.316952
 20
18.992733
 42
-0.014190
  0
VERTEX
  8
0
 10
19.317345
 20
17.752337
 42
-0.007825
  0
VERTEX
  8
0
 10
19.264092
 20
16.534818
 42
-0.176990
  0
VERTEX
  8
0
 10
19.126458
 20
16.217900
 42
0.074350
  0
VERTEX
  8
0
 10
19.097126
 20
16.176079
 42
0.036862
  0
VERTEX
  8
0
 10
19.072460
 20
16.115989
 42
0.035558
  0
VERTEX
  8
0
 10
19.055631
 20
16.048609
 42
0.043442
  0
VERTEX
  8
0
 10
19.050000
 20
15.983918
 42
-0.039359
  0
VERTEX
  8
0
 10
19.044525
 20
15.914472
 42
-0.022701
  0
VERTEX
  8
0
 10
19.027630
 20
15.832288
 42
-0.022581
  0
VERTEX
  8
0
 10
19.003027
 20
15.750823
 42
-0.034885
  0
VERTEX
  8
0
 10
18.973847
 20
15.683351
 42
0.031262
  0
VERTEX
  8
0
 10
18.935216
 20
15.595774
 42
0.005332
  0
VERTEX
  8
0
 10
18.874044
 20
15.424077
 42
0.005799
  0
VERTEX
  8
0
 10
18.806595
 20
15.220540
 42
0.005141
  0
VERTEX
  8
0
 10
18.741030
 20
15.007167
 42
-0.010335
  0
VERTEX
  8
0
 10
18.676393
 20
14.804339
 42
-0.016283
  0
VERTEX
  8
0
 10
18.611729
 20
14.633443
 42
-0.010411
  0
VERTEX
  8
0
 10
18.551959
 20
14.497827
 42
-0.291580
  0
VERTEX
  8
0
 10
18.520850
 20
14.478000
 42
0.130860
  0
VERTEX
  8
0
 10
18.496628
 20
14.471550
 42
0.100641
  0
VERTEX
  8
0
 10
18.475991
 20
14.453411
 42
0.088364
  0
VERTEX
  8
0
 10
18.462111
 20
14.426276
 42
0.074277
  0
VERTEX
  8
0
 10
18.457333
 20
14.394292
 42
-0.166335
  0
VERTEX
  8
0
 10
18.344908
 20
14.065693
 42
-0.007168
  0
VERTEX
  8
0
 10
17.572982
 20
13.098602
 42
-0.006107
  0
VERTEX
  8
0
 10
16.765795
 20
12.140643
 42
-0.217954
  0
VERTEX
  8
0
 10
16.508006
 20
12.022667
 42
0.090115
  0
VERTEX
  8
0
 10
16.476443
 20
12.016932
 42
0.095393
  0
VERTEX
  8
0
 10
16.449618
 20
12.000496
 42
0.099735
  0
VERTEX
  8
0
 10
16.431670
 20
11.975987
 42
0.108741
  0
VERTEX
  8
0
 10
16.425333
 20
11.947193
 42
-0.307239
  0
VERTEX
  8
0
 10
16.339566
 20
11.820790
 42
-0.033775
  0
VERTEX
  8
0
 10
15.988218
 20
11.707883
 42
-0.034005
  0
VERTEX
  8
0
 10
15.528762
 20
11.626446
 42
-0.026867
  0
VERTEX
  8
0
 10
15.024545
 20
11.599333
 42
-0.010423
  0
VERTEX
  8
0
 10
14.574237
 20
11.608721
 42
-0.055159
  0
VERTEX
  8
0
 10
14.330687
 20
11.646003
 42
-0.060966
  0
VERTEX
  8
0
 10
14.112085
 20
11.734301
 42
-0.014410
  0
VERTEX
  8
0
 10
13.772799
 20
11.935143
 42
-0.019494
  0
VERTEX
  8
0
 10
13.403189
 20
12.189249
 42
-0.029182
  0
VERTEX
  8
0
 10
13.103521
 20
12.441458
 42
-0.034074
  0
VERTEX
  8
0
 10
12.883265
 20
12.680409
 42
-0.077701
  0
VERTEX
  8
0
 10
12.761396
 20
12.892522
 42
0.040924
  0
VERTEX
  8
0
 10
12.734505
 20
12.948444
 42
0.048934
  0
VERTEX
  8
0
 10
12.700182
 20
12.995737
 42
0.056197
  0
VERTEX
  8
0
 10
12.663965
 20
13.028340
 42
0.156420
  0
VERTEX
  8
0
 10
12.631763
 20
13.038667
 42
-0.255341
  0
VERTEX
  8
0
 10
12.591707
 20
13.060549
 42
-0.007336
  0
VERTEX
  8
0
 10
12.485502
 20
13.231416
 42
-0.013140
  0
VERTEX
  8
0
 10
12.365514
 20
13.443342
 42
-0.008459
  0
VERTEX
  8
0
 10
12.237138
 20
13.694833
 42
0.000198
  0
VERTEX
  8
0
 10
12.108801
 20
13.956849
 42
0.000243
  0
VERTEX
  8
0
 10
11.988731
 20
14.201438
 42
0.000202
  0
VERTEX
  8
0
 10
11.887613
 20
14.406957
 42
0.001761
  0
VERTEX
  8
0
 10
11.842366
 20
14.498018
 42
-0.036262
  0
VERTEX
  8
0
 10
11.814116
 20
14.566318
 42
-0.022028
  0
VERTEX
  8
0
 10
11.790316
 20
14.650460
 42
-0.022018
  0
VERTEX
  8
0
 10
11.773991
 20
14.736471
 42
-0.035902
  0
VERTEX
  8
0
 10
11.768667
 20
14.810521
 42
0.041647
  0
VERTEX
  8
0
 10
11.763097
 20
14.877279
 42
0.043729
  0
VERTEX
  8
0
 10
11.746544
 20
14.941068
 42
0.047886
  0
VERTEX
  8
0
 10
11.722276
 20
14.993020
 42
0.121728
  0
VERTEX
  8
0
 10
11.693355
 20
15.022552
 42
-0.171989
  0
VERTEX
  8
0
 10
11.637116
 20
15.092587
 42
-0.029633
  0
VERTEX
  8
0
 10
11.589880
 20
15.258928
 42
-0.011844
  0
VERTEX
  8
0
 10
11.527695
 20
15.575854
 42
-0.000926
  0
VERTEX
  8
0
 10
11.383439
 20
16.425333
 42
-0.006982
  0
VERTEX
  8
0
 10
11.226316
 20
17.448353
 42
-0.012938
  0
VERTEX
  8
0
 10
11.131940
 20
18.283260
 42
-0.011720
  0
VERTEX
  8
0
 10
11.075489
 20
19.174624
 42
-0.004688
  0
VERTEX
  8
0
 10
11.038276
 20
20.397151
 42
-0.003318
  0
VERTEX
  8
0
 10
11.026774
 20
21.194837
 42
-0.008491
  0
VERTEX
  8
0
 10
11.032088
 20
21.772519
 42
-0.005218
  0
VERTEX
  8
0
 10
11.048018
 20
22.207356
 42
-0.186711
  0
VERTEX
  8
0
 10
11.088051
 20
22.297918
 42
0.194948
  0
VERTEX
  8
0
 10
11.167032
 20
22.484553
 42
0.003495
  0
VERTEX
  8
0
 10
11.176184
 20
23.590383
 42
0.002946
  0
VERTEX
  8
0
 10
11.171034
 20
24.708462
 42
0.257133
  0
VERTEX
  8
0
 10
11.091333
 20
24.849667
 42
-0.163785
  0
VERTEX
  8
0
 10
11.058560
 20
24.889171
 42
-0.033998
  0
VERTEX
  8
0
 10
11.031537
 20
24.976565
 42
-0.032361
  0
VERTEX
  8
0
 10
11.012877
 20
25.087120
 42
-0.025634
  0
VERTEX
  8
0
 10
11.006667
 20
25.208181
 42
0.091475
  0
VERTEX
  8
0
 10
10.927813
 20
25.635586
 42
0.033700
  0
VERTEX
  8
0
 10
10.669910
 20
26.194596
 42
0.033490
  0
VERTEX
  8
0
 10
10.316835
 20
26.749601
 42
0.049237
  0
VERTEX
  8
0
 10
9.930770
 20
27.179321
 42
0.008652
  0
VERTEX
  8
0
 10
9.747599
 20
27.341001
 42
0.012397
  0
VERTEX
  8
0
 10
9.579334
 20
27.477367
 42
0.008296
  0
VERTEX
  8
0
 10
9.435552
 20
27.584348
 42
0.157044
  0
VERTEX
  8
0
 10
9.382806
 20
27.601333
 42
-0.070930
  0
VERTEX
  8
0
 10
9.333911
 20
27.608305
 42
-0.011927
  0
VERTEX
  8
0
 10
9.243546
 20
27.636963
 42
-0.012843
  0
VERTEX
  8
0
 10
9.138262
 20
27.676188
 42
-0.011092
  0
VERTEX
  8
0
 10
9.029796
 20
27.722625
 42
0.037106
  0
VERTEX
  8
0
 10
8.294836
 20
27.993001
 42
0.030904
  0
VERTEX
  8
0
 10
7.481682
 20
28.171892
 42
0.028708
  0
VERTEX
  8
0
 10
6.592699
 20
28.258716
 42
0.022973
  0
VERTEX
  8
0
 10
5.630333
 20
28.252961
 42
0.009571
  0
VERTEX
  8
0
 10
5.245827
 20
28.225592
 42
0.009425
  0
VERTEX
  8
0
 10
4.860660
 20
28.183422
 42
0.009337
  0
VERTEX
  8
0
 10
4.524741
 20
28.133829
 42
0.035206
  0
VERTEX
  8
0
 10
4.318000
 20
28.084192
 42
0.014103
  0
VERTEX
  8
0
 10
3.927173
 20
27.948479
 42
0.016528
  0
VERTEX
  8
0
 10
3.565085
 20
27.797317
 42
0.009476
  0
VERTEX
  8
0
 10
3.260244
 20
27.651009
 42
0.283327
  0
VERTEX
  8
0
 10
3.217333
 20
27.581360
 42
-0.166395
  0
VERTEX
  8
0
 10
3.208886
 20
27.556681
 42
-0.095290
  0
VERTEX
  8
0
 10
3.184992
 20
27.535670
 42
-0.076194
  0
VERTEX
  8
0
 10
3.149347
 20
27.521468
 42
-0.056826
  0
VERTEX
  8
0
 10
3.107234
 20
27.516667
 42
0.181099
  0
VERTEX
  8
0
 10
2.888064
 20
27.434592
 42
0.018391
  0
VERTEX
  8
0
 10
2.475723
 20
27.047824
 42
0.023309
  0
VERTEX
  8
0
 10
2.089548
 20
26.619764
 42
0.074444
  0
VERTEX
  8
0
 10
1.892680
 20
26.290430
 42
-0.013278
  0
VERTEX
  8
0
 10
1.827910
 20
26.144105
 42
-0.020035
  0
VERTEX
  8
0
 10
1.763136
 20
26.020694
 42
-0.015538
  0
VERTEX
  8
0
 10
1.704284
 20
25.925660
 42
-0.250089
  0
VERTEX
  8
0
 10
1.672167
 20
25.908317
 42
0.219299
  0
VERTEX
  8
0
 10
1.647864
 20
25.896972
 42
0.077208
  0
VERTEX
  8
0
 10
1.627320
 20
25.863326
 42
0.058843
  0
VERTEX
  8
0
 10
1.613316
 20
25.813977
 42
0.039759
  0
VERTEX
  8
0
 10
1.608667
 20
25.755600
 42
-0.048859
  0
VERTEX
  8
0
 10
1.602333
 20
25.690935
 42
-0.037795
  0
VERTEX
  8
0
 10
1.583382
 20
25.622683
 42
-0.038852
  0
VERTEX
  8
0
 10
1.555587
 20
25.561114
 42
-0.071039
  0
VERTEX
  8
0
 10
1.522591
 20
25.517125
 42
0.149862
  0
VERTEX
  8
0
 10
1.436338
 20
25.354590
 42
0.009662
  0
VERTEX
  8
0
 10
1.344051
 20
24.820340
 42
0.013813
  0
VERTEX
  8
0
 10
1.264570
 20
24.183193
 42
0.011132
  0
VERTEX
  8
0
 10
1.213399
 20
23.495000
 42
-0.009091
  0
VERTEX
  8
0
 10
1.192481
 20
23.197231
 42
-0.012862
  0
VERTEX
  8
0
 10
1.162241
 20
22.933210
 42
-0.008982
  0
VERTEX
  8
0
 10
1.127752
 20
22.716365
 42
-0.151136
  0
VERTEX
  8
0
 10
1.094887
 20
22.652567
 42
0.195491
  0
VERTEX
  8
0
 10
1.020452
 20
22.471268
 42
0.000884
  0
VERTEX
  8
0
 10
1.016871
 20
20.362179
 42
0.000882
  0
VERTEX
  8
0
 10
1.020738
 20
18.252926
 42
0.195977
  0
VERTEX
  8
0
 10
1.095204
 20
18.072100
 42
-0.155690
  0
VERTEX
  8
0
 10
1.128226
 20
18.006897
 42
-0.007758
  0
VERTEX
  8
0
 10
1.163165
 20
17.766586
 42
-0.011880
  0
VERTEX
  8
0
 10
1.193901
 20
17.475224
 42
-0.008260
  0
VERTEX
  8
0
 10
1.215338
 20
17.145000
 42
0.008274
  0
VERTEX
  8
0
 10
1.273154
 20
16.254756
 42
0.008627
  0
VERTEX
  8
0
 10
1.359806
 20
15.379254
 42
0.003745
  0
VERTEX
  8
0
 10
1.457770
 20
14.589380
 42
0.161786
  0
VERTEX
  8
0
 10
1.530287
 20
14.439900
 42
-0.111097
  0
VERTEX
  8
0
 10
1.560565
 20
14.390646
 42
-0.029030
  0
VERTEX
  8
0
 10
1.585643
 20
14.300683
 42
-0.028027
  0
VERTEX
  8
0
 10
1.602899
 20
14.192217
 42
-0.025438
  0
VERTEX
  8
0
 10
1.608667
 20
14.078918
 42
0.023425
  0
VERTEX
  8
0
 10
1.614207
 20
13.960723
 42
0.020239
  0
VERTEX
  8
0
 10
1.630825
 20
13.837594
 42
0.020730
  0
VERTEX
  8
0
 10
1.655072
 20
13.727136
 42
0.054185
  0
VERTEX
  8
0
 10
1.684100
 20
13.651351
 42
-0.044253
  0
VERTEX
  8
0
 10
1.721310
 20
13.559687
 42
-0.006030
  0
VERTEX
  8
0
 10
1.779547
 20
13.360989
 42
-0.006899
  0
VERTEX
  8
0
 10
1.842604
 20
13.123236
 42
-0.005776
  0
VERTEX
  8
0
 10
1.903099
 20
12.869333
 42
0.005023
  0
VERTEX
  8
0
 10
1.963576
 20
12.613802
 42
0.005770
  0
VERTEX
  8
0
 10
2.026572
 20
12.371123
 42
0.005224
  0
VERTEX
  8
0
 10
2.084456
 20
12.166724
 42
0.032847
  0
VERTEX
  8
0
 10
2.121829
 20
12.065000
 42
-0.019050
  0
VERTEX
  8
0
 10
2.164490
 20
11.958086
 42
-0.002098
  0
VERTEX
  8
0
 10
2.251817
 20
11.709135
 42
-0.002559
  0
VERTEX
  8
0
 10
2.353043
 20
11.411721
 42
-0.002067
  0
VERTEX
  8
0
 10
2.458790
 20
11.091333
 42
0.026227
  0
VERTEX
  8
0
 10
2.804646
 20
10.191937
 42
0.008904
  0
VERTEX
  8
0
 10
3.398240
 20
8.922383
 42
0.009030
  0
VERTEX
  8
0
 10
4.043065
 20
7.663043
 42
0.022997
  0
VERTEX
  8
0
 10
4.568210
 20
6.781527
 42
0.001666
  0
VERTEX
  8
0
 10
5.059702
 20
6.042032
 42
0.013035
  0
VERTEX
  8
0
 10
5.298469
 20
5.704733
 42
0.024891
  0
VERTEX
  8
0
 10
5.489021
 20
5.474715
 42
0.017269
  0
VERTEX
  8
0
 10
5.725567
 20
5.233747
 42
-0.012222
  0
VERTEX
  8
0
 10
5.878293
 20
5.081275
 42
-0.005689
  0
VERTEX
  8
0
 10
6.069206
 20
4.876511
 42
-0.005632
  0
VERTEX
  8
0
 10
6.264833
 20
4.656930
 42
-0.007830
  0
VERTEX
  8
0
 10
6.434667
 20
4.455642
 42
0.007715
  0
VERTEX
  8
0
 10
6.585625
 20
4.276642
 42
0.011428
  0
VERTEX
  8
0
 10
6.723862
 20
4.124912
 42
0.006751
  0
VERTEX
  8
0
 10
6.843307
 20
4.003019
 42
0.178936
  0
VERTEX
  8
0
 10
6.884140
 20
3.984395
 42
-0.145033
  0
VERTEX
  8
0
 10
6.926120
 20
3.968505
 42
-0.007087
  0
VERTEX
  8
0
 10
7.044440
 20
3.875901
 42
-0.011012
  0
VERTEX
  8
0
 10
7.182715
 20
3.759369
 42
-0.007683
  0
VERTEX
  8
0
 10
7.333689
 20
3.622161
 42
0.017051
  0
VERTEX
  8
0
 10
7.517106
 20
3.461638
 42
0.008786
  0
VERTEX
  8
0
 10
7.756783
 20
3.272819
 42
0.008723
  0
VERTEX
  8
0
 10
8.010418
 20
3.087017
 42
0.013044
  0
VERTEX
  8
0
 10
8.238882
 20
2.934473
 42
-0.003916
  0
VERTEX
  8
0
 10
8.442759
 20
2.803663
 42
-0.005591
  0
VERTEX
  8
0
 10
8.621476
 20
2.684140
 42
-0.003204
  0
VERTEX
  8
0
 10
8.770101
 20
2.580913
 42
-0.080970
  0
VERTEX
  8
0
 10
8.805333
 20
2.546401
 42
0.118011
  0
VERTEX
  8
0
 10
8.890987
 20
2.474006
 42
0.009347
  0
VERTEX
  8
0
 10
9.161004
 20
2.344212
 42
0.010304
  0
VERTEX
  8
0
 10
9.434255
 20
2.225846
 42
0.097348
  0
VERTEX
  8
0
 10
9.558962
 20
2.201333
 42
-0.089817
  0
VERTEX
  8
0
 10
9.594483
 20
2.194901
 42
-0.095291
  0
VERTEX
  8
0
 10
9.624670
 20
2.176462
 42
-0.099783
  0
VERTEX
  8
0
 10
9.644867
 20
2.148968
 42
-0.109094
  0
VERTEX
  8
0
 10
9.652000
 20
2.116667
 42
0.177615
  0
VERTEX
  8
0
 10
9.663852
 20
2.084355
 42
0.092341
  0
VERTEX
  8
0
 10
9.697597
 20
2.056871
 42
0.072432
  0
VERTEX
  8
0
 10
9.747834
 20
2.038262
 42
0.052580
  0
VERTEX
  8
0
 10
9.807222
 20
2.032000
 42
-0.031803
  0
VERTEX
  8
0
 10
9.870664
 20
2.027961
 42
-0.032011
  0
VERTEX
  8
0
 10
9.932940
 20
2.015908
 42
-0.033761
  0
VERTEX
  8
0
 10
9.985574
 20
1.998310
 42
-0.099132
  0
VERTEX
  8
0
 10
10.017225
 20
1.977220
 42
0.112072
  0
VERTEX
  8
0
 10
10.154104
 20
1.890986
 42
0.009290
  0
VERTEX
  8
0
 10
10.555690
 20
1.757730
 42
0.012017
  0
VERTEX
  8
0
 10
10.959746
 20
1.642512
 42
0.060478
  0
VERTEX
  8
0
 10
11.192170
 20
1.611431
 42
-0.030287
  0
VERTEX
  8
0
 10
11.282800
 20
1.604831
 42
-0.036011
  0
VERTEX
  8
0
 10
11.366752
 20
1.587356
 42
-0.038910
  0
VERTEX
  8
0
 10
11.433550
 20
1.562593
 42
-0.147158
  0
VERTEX
  8
0
 10
11.466552
 20
1.533355
 42
0.139636
  0
VERTEX
  8
0
 10
11.501476
 20
1.501482
 42
0.027235
  0
VERTEX
  8
0
 10
11.580485
 20
1.467348
 42
0.027008
  0
VERTEX
  8
0
 10
11.679989
 20
1.436638
 42
0.022134
  0
VERTEX
  8
0
 10
11.789049
 20
1.414407
 42
-0.011088
  0
VERTEX
  8
0
 10
11.942055
 20
1.386722
 42
-0.002368
  0
VERTEX
  8
0
 10
12.206517
 20
1.331482
 42
-0.002475
  0
VERTEX
  8
0
 10
12.512384
 20
1.264496
 42
-0.002354
  0
VERTEX
  8
0
 10
12.822711
 20
1.193386
 42
0.012301
  0
VERTEX
  8
0
 10
13.148793
 20
1.125462
 42
0.009917
  0
VERTEX
  8
0
 10
13.502112
 20
1.068107
 42
0.010051
  0
VERTEX
  8
0
 10
13.830609
 20
1.028165
 42
0.025229
  0
VERTEX
  8
0
 10
14.071544
 20
1.016000
 42
-0.016130
  0
VERTEX
  8
0
 10
14.260228
 20
1.009912
 42
-0.026557
  0
VERTEX
  8
0
 10
14.418719
 20
0.991184
 42
-0.024943
  0
VERTEX
  8
0
 10
14.537388
 20
0.964574
 42
-0.337040
  0
VERTEX
  8
0
 10
14.562667
 20
0.931333
 42
0.390967
  0
VERTEX
  8
0
 10
14.597953
 20
0.893105
 42
0.005315
  0
VERTEX
  8
0
 10
14.943667
 20
0.869078
 42
0.010359
  0
VERTEX
  8
0
 10
15.394262
 20
0.851930
 42
0.004330
  0
VERTEX
  8
0
 10
16.002000
 20
0.846667
 42
0.004330
  0
VERTEX
  8
0
 10
16.609738
 20
0.851930
 42
0.010359
  0
VERTEX
  8
0
 10
17.060333
 20
0.869078
 42
0.005315
  0
VERTEX
  8
0
 10
17.406047
 20
0.893105
 42
0.390967
  0
VERTEX
  8
0
 10
17.441333
 20
0.931333
 42
-0.352444
  0
VERTEX
  8
0
 10
17.469114
 20
0.965849
 42
-0.019183
  0
VERTEX
  8
0
 10
17.616210
 20
0.992165
 42
-0.022190
  0
VERTEX
  8
0
 10
17.812738
 20
1.010753
 42
-0.012073
  0
VERTEX
  8
0
 10
18.055167
 20
1.017005
 42
0.016793
  0
VERTEX
  8
0
 10
18.324199
 20
1.026484
 42
0.011848
  0
VERTEX
  8
0
 10
18.625476
 20
1.054430
 42
0.011975
  0
VERTEX
  8
0
 10
18.912587
 20
1.094932
 42
0.024541
  0
VERTEX
  8
0
 10
19.134667
 20
1.143000
 42
-0.012429
  0
VERTEX
  8
0
 10
19.332763
 20
1.190926
 42
-0.010734
  0
VERTEX
  8
0
 10
19.542906
 20
1.231570
 42
-0.010862
  0
VERTEX
  8
0
 10
19.735046
 20
1.260188
 42
-0.030613
  0
VERTEX
  8
0
 10
19.870503
 20
1.268995
 42
0.028914
  0
VERTEX
  8
0
 10
19.977766
 20
1.275604
 42
0.035092
  0
VERTEX
  8
0
 10
20.076682
 20
1.294576
 42
0.037716
  0
VERTEX
  8
0
 10
20.155181
 20
1.321907
 42
0.152868
  0
VERTEX
  8
0
 10
20.193000
 20
1.354667
 42
-0.123387
  0
VERTEX
  8
0
 10
20.226425
 20
1.387188
 42
-0.047457
  0
VERTEX
  8
0
 10
20.285691
 20
1.414463
 42
-0.043300
  0
VERTEX
  8
0
 10
20.358599
 20
1.433073
 42
-0.040867
  0
VERTEX
  8
0
 10
20.435063
 20
1.439333
 42
0.032976
  0
VERTEX
  8
0
 10
20.513605
 20
1.444519
 42
0.030734
  0
VERTEX
  8
0
 10
20.592692
 20
1.460000
 42
0.032159
  0
VERTEX
  8
0
 10
20.661200
 20
1.482630
 42
0.084026
  0
VERTEX
  8
0
 10
20.705233
 20
1.509688
 42
-0.084863
  0
VERTEX
  8
0
 10
20.762767
 20
1.544910
 42
-0.007371
  0
VERTEX
  8
0
 10
20.923700
 20
1.606456
 42
-0.009527
  0
VERTEX
  8
0
 10
21.119358
 20
1.673797
 42
-0.007258
  0
VERTEX
  8
0
 10
21.336000
 20
1.740316
 42
0.011377
  0
VERTEX
  8
0
 10
21.574560
 20
1.815720
 42
0.008261
  0
VERTEX
  8
0
 10
21.836592
 20
1.910012
 42
0.008353
  0
VERTEX
  8
0
 10
22.082440
 20
2.007822
 42
0.018045
  0
VERTEX
  8
0
 10
22.267333
 20
2.092940
 42
-0.010182
  0
VERTEX
  8
0
 10
22.420967
 20
2.166617
 42
-0.012473
  0
VERTEX
  8
0
 10
22.567503
 20
2.228892
 42
-0.010985
  0
VERTEX
  8
0
 10
22.692281
 20
2.275140
 42
-0.082593
  0
VERTEX
  8
0
 10
22.754167
 20
2.285646
 42
0.078462
  0
VERTEX
  8
0
 10
22.794595
 20
2.292168
 42
0.090300
  0
VERTEX
  8
0
 10
22.828912
 20
2.310767
 42
0.100408
  0
VERTEX
  8
0
 10
22.851856
 20
2.338348
 42
0.124063
  0
VERTEX
  8
0
 10
22.860000
 20
2.370667
 42
-0.191087
  0
VERTEX
  8
0
 10
22.872825
 20
2.402999
 42
-0.088204
  0
VERTEX
  8
0
 10
22.909742
 20
2.430462
 42
-0.068025
  0
VERTEX
  8
0
 10
22.964528
 20
2.449094
 42
-0.048028
  0
VERTEX
  8
0
 10
23.029333
 20
2.455333
 42
0.036372
  0
VERTEX
  8
0
 10
23.094185
 20
2.460057
 42
0.054933
  0
VERTEX
  8
0
 10
23.148925
 20
2.474337
 42
0.071963
  0
VERTEX
  8
0
 10
23.186406
 20
2.495235
 42
0.233749
  0
VERTEX
  8
0
 10
23.198667
 20
2.520027
 42
-0.281423
  0
VERTEX
  8
0
 10
23.237254
 20
2.583155
 42
-0.008471
  0
VERTEX
  8
0
 10
23.525739
 20
2.724845
 42
-0.013998
  0
VERTEX
  8
0
 10
23.811469
 20
2.849580
 42
-0.096200
  0
VERTEX
  8
0
 10
23.961247
 20
2.878667
 42
0.099744
  0
VERTEX
  8
0
 10
23.993337
 20
2.885132
 42
0.098108
  0
VERTEX
  8
0
 10
24.020633
 20
2.903538
 42
0.097777
  0
VERTEX
  8
0
 10
24.038916
 20
2.931020
 42
0.098337
  0
VERTEX
  8
0
 10
24.045333
 20
2.963333
 42
-0.191087
  0
VERTEX
  8
0
 10
24.058158
 20
2.995666
 42
-0.088204
  0
VERTEX
  8
0
 10
24.095075
 20
3.023129
 42
-0.068025
  0
VERTEX
  8
0
 10
24.149861
 20
3.041761
 42
-0.048028
  0
VERTEX
  8
0
 10
24.214667
 20
3.048000
 42
0.037804
  0
VERTEX
  8
0
 10
24.279513
 20
3.052910
 42
0.056681
  0
VERTEX
  8
0
 10
24.334258
 20
3.067731
 42
0.074444
  0
VERTEX
  8
0
 10
24.371638
 20
3.089443
 42
0.227808
  0
VERTEX
  8
0
 10
24.384000
 20
3.115168
 42
-0.223527
  0
VERTEX
  8
0
 10
24.401362
 20
3.152065
 42
-0.011435
  0
VERTEX
  8
0
 10
24.507861
 20
3.236141
 42
-0.016414
  0
VERTEX
  8
0
 10
24.644083
 20
3.331874
 42
-0.010999
  0
VERTEX
  8
0
 10
24.805653
 20
3.432668
 42
0.010234
  0
VERTEX
  8
0
 10
24.967349
 20
3.533197
 42
0.015309
  0
VERTEX
  8
0
 10
25.103939
 20
3.628118
 42
0.010205
  0
VERTEX
  8
0
 10
25.211638
 20
3.711418
 42
0.219841
  0
VERTEX
  8
0
 10
25.228987
 20
3.746500
 42
-0.145690
  0
VERTEX
  8
0
 10
25.236901
 20
3.770723
 42
-0.096094
  0
VERTEX
  8
0
 10
25.257998
 20
3.791347
 42
-0.080867
  0
VERTEX
  8
0
 10
25.289053
 20
3.805255
 42
-0.065014
  0
VERTEX
  8
0
 10
25.325391
 20
3.810000
 42
0.186742
  0
VERTEX
  8
0
 10
25.671251
 20
3.943841
 42
0.004172
  0
VERTEX
  8
0
 10
27.003690
 20
5.177210
 42
0.009809
  0
VERTEX
  8
0
 10
28.254248
 20
6.401455
 42
0.033233
  0
VERTEX
  8
0
 10
28.998333
 20
7.267197
 42
-0.001660
  0
VERTEX
  8
0
 10
29.227063
 20
7.570052
 42
-0.003052
  0
VERTEX
  8
0
 10
29.415576
 20
7.814827
 42
-0.003705
  0
VERTEX
  8
0
 10
29.575747
 20
8.017086
 42
-0.005849
  0
VERTEX
  8
0
 10
29.716431
 20
8.187927
 42
0.037235
  0
VERTEX
  8
0
 10
29.749436
 20
8.233562
 42
0.031671
  0
VERTEX
  8
0
 10
29.777335
 20
8.286068
 42
0.032898
  0
VERTEX
  8
0
 10
29.796592
 20
8.337337
 42
0.073517
  0
VERTEX
  8
0
 10
29.802667
 20
8.378427
 42
-0.088258
  0
VERTEX
  8
0
 10
29.808660
 20
8.412118
 42
-0.094742
  0
VERTEX
  8
0
 10
29.825862
 20
8.440746
 42
-0.100016
  0
VERTEX
  8
0
 10
29.851505
 20
8.459897
 42
-0.110977
  0
VERTEX
  8
0
 10
29.881628
 20
8.466667
 42
0.184187
  0
VERTEX
  8
0
 10
29.916077
 20
8.479802
 42
0.053782
  0
VERTEX
  8
0
 10
29.954769
 20
8.522626
 42
0.046157
  0
VERTEX
  8
0
 10
29.991291
 20
8.584246
 42
0.035452
  0
VERTEX
  8
0
 10
30.019736
 20
8.657167
 42
-0.032850
  0
VERTEX
  8
0
 10
30.054329
 20
8.747230
 42
-0.013994
  0
VERTEX
  8
0
 10
30.111737
 20
8.862991
 42
-0.013776
  0
VERTEX
  8
0
 10
30.180071
 20
8.983475
 42
-0.017593
  0
VERTEX
  8
0
 10
30.249875
 20
9.090333
 42
0.034320
  0
VERTEX
  8
0
 10
30.493797
 20
9.492481
 42
0.002892
  0
VERTEX
  8
0
 10
31.044433
 20
10.574276
 42
0.001135
  0
VERTEX
  8
0
 10
31.624380
 20
11.736720
 42
0.115636
  0
VERTEX
  8
0
 10
31.665333
 20
11.911432
 42
-0.083660
  0
VERTEX
  8
0
 10
31.675262
 20
11.970354
 42
-0.014979
  0
VERTEX
  8
0
 10
31.715075
 20
12.074915
 42
-0.015805
  0
VERTEX
  8
0
 10
31.769840
 20
12.195797
 42
-0.013693
  0
VERTEX
  8
0
 10
31.834667
 20
12.319000
 42
0.018998
  0
VERTEX
  8
0
 10
31.899482
 20
12.445417
 42
0.019208
  0
VERTEX
  8
0
 10
31.954258
 20
12.575934
 42
0.019412
  0
VERTEX
  8
0
 10
31.993042
 20
12.692915
 42
0.070444
  0
VERTEX
  8
0
 10
32.004000
 20
12.770309
 42
-0.045393
  0
VERTEX
  8
0
 10
32.009755
 20
12.833574
 42
-0.036464
  0
VERTEX
  8
0
 10
32.026959
 20
12.899750
 42
-0.037707
  0
VERTEX
  8
0
 10
32.052184
 20
12.958978
 42
-0.073397
  0
VERTEX
  8
0
 10
32.082159
 20
13.000567
 42
0.123807
  0
VERTEX
  8
0
 10
32.141998
 20
13.103947
 42
0.009021
  0
VERTEX
  8
0
 10
32.227342
 20
13.424383
 42
0.011823
  0
VERTEX
  8
0
 10
32.316096
 20
13.823888
 42
0.007730
  0
VERTEX
  8
0
 10
32.400364
 20
14.288285
 42
-0.021964
  0
VERTEX
  8
0
 10
32.423377
 20
14.397345
 42
-0.026764
  0
VERTEX
  8
0
 10
32.454747
 20
14.496848
 42
-0.026943
  0
VERTEX
  8
0
 10
32.489358
 20
14.575876
 42
-0.138515
  0
VERTEX
  8
0
 10
32.521355
 20
14.610781
 42
0.170696
  0
VERTEX
  8
0
 10
32.550561
 20
14.646966
 42
0.031283
  0
VERTEX
  8
0
 10
32.574544
 20
14.730869
 42
0.030436
  0
VERTEX
  8
0
 10
32.591150
 20
14.837139
 42
0.023544
  0
VERTEX
  8
0
 10
32.596667
 20
14.954230
 42
-0.024095
  0
VERTEX
  8
0
 10
32.602690
 20
15.079138
 42
-0.020955
  0
VERTEX
  8
0
 10
32.620749
 20
15.208915
 42
-0.021486
  0
VERTEX
  8
0
 10
32.647099
 20
15.325041
 42
-0.056383
  0
VERTEX
  8
0
 10
32.678648
 20
15.404315
 42
0.071323
  0
VERTEX
  8
0
 10
32.737880
 20
15.567093
 42
0.007871
  0
VERTEX
  8
0
 10
32.813303
 20
15.957485
 42
0.008242
  0
VERTEX
  8
0
 10
32.896324
 20
16.476487
 42
0.003954
  0
VERTEX
  8
0
 10
32.986601
 20
17.145000
 42
-0.013114
  0
VERTEX
  8
0
 10
33.008445
 20
17.287080
 42
-0.011569
  0
VERTEX
  8
0
 10
33.038504
 20
17.433925
 42
-0.011702
  0
VERTEX
  8
0
 10
33.071770
 20
17.565048
 42
-0.034162
  0
VERTEX
  8
0
 10
33.102897
 20
17.653000
 42
0.077910
  0
VERTEX
  8
0
 10
33.201908
 20
18.036048
 42
0.011374
  0
VERTEX
  8
0
 10
33.262050
 20
18.839760
 42
0.009706
  0
VERTEX
  8
0
 10
33.299256
 20
19.982951
 42
0.003369
  0
VERTEX
  8
0
 10
33.309786
 20
21.632333
 42
0.003776
  0
VERTEX
  8
0
 10
33.296618
 20
23.297820
 42
0.010058
  0
VERTEX
  8
0
 10
33.254343
 20
24.485688
 42
0.006360
  0
VERTEX
  8
0
 10
33.193847
 20
25.368651
 42
0.238391
  0
VERTEX
  8
0
 10
33.092243
 20
25.534678
 42
-0.197430
  0
VERTEX
  8
0
 10
33.063964
 20
25.573679
 42
-0.020272
  0
VERTEX
  8
0
 10
33.041221
 20
25.687630
 42
-0.022836
  0
VERTEX
  8
0
 10
33.025263
 20
25.831085
 42
-0.016282
  0
VERTEX
  8
0
 10
33.020000
 20
25.992667
 42
0.016302
  0
VERTEX
  8
0
 10
33.014730
 20
26.154252
 42
0.022859
  0
VERTEX
  8
0
 10
32.998753
 20
26.297719
 42
0.020305
  0
VERTEX
  8
0
 10
32.975982
 20
26.411675
 42
0.197353
  0
VERTEX
  8
0
 10
32.947669
 20
26.450709
 42
-0.184708
  0
VERTEX
  8
0
 10
32.916738
 20
26.491235
 42
-0.014216
  0
VERTEX
  8
0
 10
32.881132
 20
26.626060
 42
-0.017980
  0
VERTEX
  8
0
 10
32.848147
 20
26.794116
 42
-0.012696
  0
VERTEX
  8
0
 10
32.822731
 20
26.984873
 42
0.019423
  0
VERTEX
  8
0
 10
32.790246
 20
27.205927
 42
0.011472
  0
VERTEX
  8
0
 10
32.735229
 20
27.466993
 42
0.011469
  0
VERTEX
  8
0
 10
32.668230
 20
27.725522
 42
0.019250
  0
VERTEX
  8
0
 10
32.598728
 20
27.938805
 42
-0.011729
  0
VERTEX
  8
0
 10
32.533118
 20
28.130321
 42
-0.012306
  0
VERTEX
  8
0
 10
32.477681
 20
28.321680
 42
-0.012031
  0
VERTEX
  8
0
 10
32.437951
 20
28.488864
 42
-0.052361
  0
VERTEX
  8
0
 10
32.427333
 20
28.589975
 42
0.038426
  0
VERTEX
  8
0
 10
32.421560
 20
28.664981
 42
0.041882
  0
VERTEX
  8
0
 10
32.404376
 20
28.736019
 42
0.045970
  0
VERTEX
  8
0
 10
32.379223
 20
28.793430
 42
0.128808
  0
VERTEX
  8
0
 10
32.349181
 20
28.824974
 42
-0.126547
  0
VERTEX
  8
0
 10
32.315251
 20
28.860284
 42
-0.026306
  0
VERTEX
  8
0
 10
32.276664
 20
28.937949
 42
-0.026060
  0
VERTEX
  8
0
 10
32.240374
 20
29.035423
 42
-0.022026
  0
VERTEX
  8
0
 10
32.212062
 20
29.141744
 42
0.026338
  0
VERTEX
  8
0
 10
32.178125
 20
29.264911
 42
0.013730
  0
VERTEX
  8
0
 10
32.123648
 20
29.414619
 42
0.013616
  0
VERTEX
  8
0
 10
32.059166
 20
29.565583
 42
0.020214
  0
VERTEX
  8
0
 10
31.993882
 20
29.693681
 42
-0.011125
  0
VERTEX
  8
0
 10
31.932918
 20
29.808113
 42
-0.013713
  0
VERTEX
  8
0
 10
31.881436
 20
29.917514
 42
-0.012128
  0
VERTEX
  8
0
 10
31.843266
 20
30.010862
 42
-0.091227
  0
VERTEX
  8
0
 10
31.834667
 20
30.057603
 42
0.127892
  0
VERTEX
  8
0
 10
31.716943
 20
30.510321
 42
0.007017
  0
VERTEX
  8
0
 10
30.977925
 20
31.792578
 42
0.011894
  0
VERTEX
  8
0
 10
30.174243
 20
33.072584
 42
0.026182
  0
VERTEX
  8
0
 10
29.487547
 20
34.001074
 42
0.017629
  0
VERTEX
  8
0
 10
29.039474
 20
34.507431
 42
0.005419
  0
VERTEX
  8
0
 10
28.328782
 20
35.239623
 42
0.005557
  0
VERTEX
  8
0
 10
27.592595
 20
35.965501
 42
0.014461
  0
VERTEX
  8
0
 10
27.042291
 20
36.466278
 42
0.018904
  0
VERTEX
  8
0
 10
26.554096
 20
36.854318
 42
0.004932
  0
VERTEX
  8
0
 10
25.740981
 20
37.439635
 42
0.001354
  0
VERTEX
  8
0
 10
24.858917
 20
38.057901
 42
0.153346
  0
VERTEX
  8
0
 10
24.724876
 20
38.100000
 42
-0.079094
  0
VERTEX
  8
0
 10
24.694950
 20
38.104764
 42
-0.062173
  0
VERTEX
  8
0
 10
24.665196
 20
38.118768
 42
-0.062809
  0
VERTEX
  8
0
 10
24.640101
 20
38.139460
 42
-0.085167
  0
VERTEX
  8
0
 10
24.623889
 20
38.163891
 42
0.130353
  0
VERTEX
  8
0
 10
24.593769
 20
38.201505
 42
0.003917
  0
VERTEX
  8
0
 10
24.429861
 20
38.320643
 42
0.007530
  0
VERTEX
  8
0
 10
24.232145
 20
38.457548
 42
0.005102
  0
VERTEX
  8
0
 10
24.003000
 20
38.607795
 42
-0.004707
  0
VERTEX
  8
0
 10
23.764062
 20
38.764194
 42
-0.005217
  0
VERTEX
  8
0
 10
23.536216
 20
38.919879
 42
-0.004854
  0
VERTEX
  8
0
 10
23.344564
 20
39.056574
 42
-0.026768
  0
VERTEX
  8
0
 10
23.246202
 20
39.136571
 42
0.030223
  0
VERTEX
  8
0
 10
23.175204
 20
39.193503
 42
0.029970
  0
VERTEX
  8
0
 10
23.097667
 20
39.241634
 42
0.031400
  0
VERTEX
  8
0
 10
23.024922
 20
39.275247
 42
0.092780
  0
VERTEX
  8
0
 10
22.971035
 20
39.285333
 42
-0.055163
  0
VERTEX
  8
0
 10
22.928489
 20
39.290042
 42
-0.073965
  0
VERTEX
  8
0
 10
22.892331
 20
39.303986
 42
-0.092667
  0
VERTEX
  8
0
 10
22.867884
 20
39.324601
 42
-0.169120
  0
VERTEX
  8
0
 10
22.859029
 20
39.348833
 42
0.229019
  0
VERTEX
  8
0
 10
22.842624
 20
39.381485
 42
0.016990
  0
VERTEX
  8
0
 10
22.759145
 20
39.441205
 42
0.020877
  0
VERTEX
  8
0
 10
22.649818
 20
39.507522
 42
0.014181
  0
VERTEX
  8
0
 10
22.520362
 20
39.574121
 42
-0.011970
  0
VERTEX
  8
0
 10
22.390957
 20
39.639972
 42
-0.018051
  0
VERTEX
  8
0
 10
22.281865
 20
39.704002
 42
-0.013110
  0
VERTEX
  8
0
 10
22.197044
 20
39.761173
 42
-0.242467
  0
VERTEX
  8
0
 10
22.182667
 20
39.789078
 42
0.248387
  0
VERTEX
  8
0
 10
22.167134
 20
39.818416
 42
0.007296
  0
VERTEX
  8
0
 10
22.046445
 20
39.897896
 42
0.013023
  0
VERTEX
  8
0
 10
21.896666
 20
39.988031
 42
0.008417
  0
VERTEX
  8
0
 10
21.718933
 20
40.084862
 42
-0.010294
  0
VERTEX
  8
0
 10
21.529093
 20
40.189216
 42
-0.010048
  0
VERTEX
  8
0
 10
21.342151
 20
40.302112
 42
-0.009988
  0
VERTEX
  8
0
 10
21.182056
 20
40.407772
 42
-0.036689
  0
VERTEX
  8
0
 10
21.087473
 20
40.483740
 42
0.032020
  0
VERTEX
  8
0
 10
21.014425
 20
40.543540
 42
0.031190
  0
VERTEX
  8
0
 10
20.933716
 20
40.594098
 42
0.032763
  0
VERTEX
  8
0
 10
20.857297
 20
40.629309
 42
0.091823
  0
VERTEX
  8
0
 10
20.799574
 20
40.640000
 42
-0.084640
  0
VERTEX
  8
0
 10
20.745909
 20
40.649150
 42
-0.043783
  0
VERTEX
  8
0
 10
20.683740
 20
40.677306
 42
-0.041873
  0
VERTEX
  8
0
 10
20.623208
 20
40.718406
 42
-0.049516
  0
VERTEX
  8
0
 10
20.574000
 20
40.767000
 42
0.048188
  0
VERTEX
  8
0
 10
20.525052
 20
40.815594
 42
0.041499
  0
VERTEX
  8
0
 10
20.465300
 20
40.856694
 42
0.043540
  0
VERTEX
  8
0
 10
20.404263
 20
40.884874
 42
0.086594
  0
VERTEX
  8
0
 10
20.351966
 20
40.894000
 42
-0.070908
  0
VERTEX
  8
0
 10
20.307393
 20
40.900353
 42
-0.086403
  0
VERTEX
  8
0
 10
20.269594
 20
40.918871
 42
-0.100269
  0
VERTEX
  8
0
 10
20.244324
 20
40.946380
 42
-0.136626
  0
VERTEX
  8
0
 10
20.235333
 20
40.978667
 42
0.131254
  0
VERTEX
  8
0
 10
20.226709
 20
41.010954
 42
0.100623
  0
VERTEX
  8
0
 10
20.202456
 20
41.038463
 42
0.088231
  0
VERTEX
  8
0
 10
20.166175
 20
41.056966
 42
0.074039
  0
VERTEX
  8
0
 10
20.123409
 20
41.063333
 42
-0.124906
  0
VERTEX
  8
0
 10
20.053323
 20
41.081119
 42
-0.007647
  0
VERTEX
  8
0
 10
19.863849
 20
41.187688
 42
-0.010999
  0
VERTEX
  8
0
 10
19.640521
 20
41.324500
 42
-0.007899
  0
VERTEX
  8
0
 10
19.396969
 20
41.486667
 42
0.002781
  0
VERTEX
  8
0
 10
19.158599
 20
41.648930
 42
0.004347
  0
VERTEX
  8
0
 10
18.951472
 20
41.785646
 42
0.001324
  0
VERTEX
  8
0
 10
18.770862
 20
41.901939
 42
0.143325
  0
VERTEX
  8
0
 10
18.743320
 20
41.910000
 42
-0.117287
  0
VERTEX
  8
0
 10
18.722118
 20
41.915043
 42
-0.020063
  0
VERTEX
  8
0
 10
18.685643
 20
41.935308
 42
-0.020915
  0
VERTEX
  8
0
 10
18.643947
 20
41.963171
 42
-0.017310
  0
VERTEX
  8
0
 10
18.601927
 20
41.996157
 42
0.014950
  0
VERTEX
  8
0
 10
18.532956
 20
42.050826
 42
0.001074
  0
VERTEX
  8
0
 10
18.336957
 20
42.196207
 42
0.001507
  0
VERTEX
  8
0
 10
18.102277
 20
42.368408
 42
0.001138
  0
VERTEX
  8
0
 10
17.843500
 20
42.556193
 42
-0.006483
  0
VERTEX
  8
0
 10
17.592013
 20
42.742824
 42
-0.010009
  0
VERTEX
  8
0
 10
17.380082
 20
42.911216
 42
-0.004783
  0
VERTEX
  8
0
 10
17.206376
 20
43.057822
 42
-0.218437
  0
VERTEX
  8
0
 10
17.187333
 20
43.099331
 42
0.178087
  0
VERTEX
  8
0
 10
17.176247
 20
43.129470
 42
0.055302
  0
VERTEX
  8
0
 10
17.140535
 20
43.163098
 42
0.047411
  0
VERTEX
  8
0
 10
17.088998
 20
43.194703
 42
0.037022
  0
VERTEX
  8
0
 10
17.028021
 20
43.219153
 42
-0.113465
  0
VERTEX
  8
0
 10
16.776333
 20
43.367737
 42
-0.005790
  0
VERTEX
  8
0
 10
16.091482
 20
44.032930
 42
-0.009208
  0
VERTEX
  8
0
 10
15.440731
 20
44.704085
 42
-0.043000
  0
VERTEX
  8
0
 10
15.108431
 20
45.127333
 42
-0.012508
  0
VERTEX
  8
0
 10
14.940160
 20
45.398954
 42
-0.014127
  0
VERTEX
  8
0
 10
14.792701
 20
45.667999
 42
-0.012433
  0
VERTEX
  8
0
 10
14.646294
 20
45.972440
 42
-0.006662
  0
VERTEX
  8
0
 10
14.479992
 20
46.355000
 42
0.003918
  0
VERTEX
  8
0
 10
14.433667
 20
46.463186
 42
0.003198
  0
VERTEX
  8
0
 10
14.382452
 20
46.578239
 42
0.003231
  0
VERTEX
  8
0
 10
14.333953
 20
46.683525
 42
0.008464
  0
VERTEX
  8
0
 10
14.297374
 20
46.758283
 42
-0.058321
  0
VERTEX
  8
0
 10
14.264606
 20
46.846549
 42
-0.011232
  0
VERTEX
  8
0
 10
14.227912
 20
47.013383
 42
-0.011819
  0
VERTEX
  8
0
 10
14.193897
 20
47.211066
 42
-0.010655
  0
VERTEX
  8
0
 10
14.167916
 20
47.417077
 42
0.012232
  0
VERTEX
  8
0
 10
14.142253
 20
47.615520
 42
0.017444
  0
VERTEX
  8
0
 10
14.109058
 20
47.790051
 42
0.013478
  0
VERTEX
  8
0
 10
14.073267
 20
47.930340
 42
0.187263
  0
VERTEX
  8
0
 10
14.042331
 20
47.971291
 42
-0.255989
  0
VERTEX
  8
0
 10
13.977522
 20
48.085538
 42
-0.003686
  0
VERTEX
  8
0
 10
13.971516
 20
48.894974
 42
-0.003686
  0
VERTEX
  8
0
 10
13.977445
 20
49.704414
 42
-0.256015
  0
VERTEX
  8
0
 10
14.042243
 20
49.818655
 42
0.200351
  0
VERTEX
  8
0
 10
14.072947
 20
49.861503
 42
0.010381
  0
VERTEX
  8
0
 10
14.108342
 20
50.031290
 42
0.015132
  0
VERTEX
  8
0
 10
14.140904
 20
50.240356
 42
0.010295
  0
VERTEX
  8
0
 10
14.165814
 20
50.479819
 42
-0.044200
  0
VERTEX
  8
0
 10
14.289502
 20
51.194347
 42
-0.020348
  0
VERTEX
  8
0
 10
14.569195
 20
52.097115
 42
-0.011589
  0
VERTEX
  8
0
 10
14.896416
 20
52.955226
 42
-0.304771
  0
VERTEX
  8
0
 10
15.091033
 20
53.086000
 42
0.165426
  0
VERTEX
  8
0
 10
15.115562
 20
53.094344
 42
0.095520
  0
VERTEX
  8
0
 10
15.136445
 20
53.117936
 42
0.076523
  0
VERTEX
  8
0
 10
15.150559
 20
53.153134
 42
0.057215
  0
VERTEX
  8
0
 10
15.155333
 20
53.194717
 42
-0.162952
  0
VERTEX
  8
0
 10
15.232068
 20
53.423916
 42
-0.013335
  0
VERTEX
  8
0
 10
15.631222
 20
53.924854
 42
-0.018519
  0
VERTEX
  8
0
 10
16.067387
 20
54.405907
 42
-0.056748
  0
VERTEX
  8
0
 10
16.407982
 20
54.683532
 42
-0.010001
  0
VERTEX
  8
0
 10
16.573406
 20
54.785072
 42
-0.013094
  0
VERTEX
  8
0
 10
16.728699
 20
54.870783
 42
-0.010650
  0
VERTEX
  8
0
 10
16.860601
 20
54.935616
 42
-0.109318
  0
VERTEX
  8
0
 10
16.919579
 20
54.948667
 42
0.070533
  0
VERTEX
  8
0
 10
16.957193
 20
54.953999
 42
0.086174
  0
VERTEX
  8
0
 10
16.989089
 20
54.969548
 42
0.100212
  0
VERTEX
  8
0
 10
17.010413
 20
54.992645
 42
0.137296
  0
VERTEX
  8
0
 10
17.018000
 20
55.019753
 42
-0.316271
  0
VERTEX
  8
0
 10
17.040862
 20
55.052281
 42
-0.011542
  0
VERTEX
  8
0
 10
17.192079
 20
55.102803
 42
-0.017363
  0
VERTEX
  8
0
 10
17.383446
 20
55.154664
 42
-0.010857
  0
VERTEX
  8
0
 10
17.610611
 20
55.202656
 42
-0.034727
  0
VERTEX
  8
0
 10
18.074326
 20
55.257191
 42
-0.060962
  0
VERTEX
  8
0
 10
18.458955
 20
55.228626
 42
-0.060703
  0
VERTEX
  8
0
 10
18.826449
 20
55.107999
 42
-0.034133
  0
VERTEX
  8
0
 10
19.237708
 20
54.879759
 42
-0.063547
  0
VERTEX
  8
0
 10
19.481314
 20
54.673813
 42
-0.024456
  0
VERTEX
  8
0
 10
19.764881
 20
54.332431
 42
-0.020913
  0
VERTEX
  8
0
 10
20.007825
 20
53.979166
 42
-0.141077
  0
VERTEX
  8
0
 10
20.066000
 20
53.777088
 42
0.065151
  0
VERTEX
  8
0
 10
20.070924
 20
53.739462
 42
0.082635
  0
VERTEX
  8
0
 10
20.085359
 20
53.707578
 42
0.098986
  0
VERTEX
  8
0
 10
20.106770
 20
53.686250
 42
0.147586
  0
VERTEX
  8
0
 10
20.131902
 20
53.678667
 42
-0.293819
  0
VERTEX
  8
0
 10
20.163742
 20
53.658188
 42
-0.011315
  0
VERTEX
  8
0
 10
20.221611
 20
53.523224
 42
-0.017063
  0
VERTEX
  8
0
 10
20.283666
 20
53.352327
 42
-0.010829
  0
VERTEX
  8
0
 10
20.344751
 20
53.149500
 42
0.001732
  0
VERTEX
  8
0
 10
20.407134
 20
52.927836
 42
0.001573
  0
VERTEX
  8
0
 10
20.473057
 20
52.699398
 42
0.001574
  0
VERTEX
  8
0
 10
20.533313
 20
52.495421
 42
0.005073
  0
VERTEX
  8
0
 10
20.575183
 20
52.360322
 42
-0.023687
  0
VERTEX
  8
0
 10
20.607187
 20
52.241602
 42
-0.014503
  0
VERTEX
  8
0
 10
20.634143
 20
52.099093
 42
-0.014529
  0
VERTEX
  8
0
 10
20.652674
 20
51.956117
 42
-0.024963
  0
VERTEX
  8
0
 10
20.658667
 20
51.836152
 42
0.029633
  0
VERTEX
  8
0
 10
20.664893
 20
51.731192
 42
0.035740
  0
VERTEX
  8
0
 10
20.683537
 20
51.634219
 42
0.038574
  0
VERTEX
  8
0
 10
20.710654
 20
51.557196
 42
0.151545
  0
VERTEX
  8
0
 10
20.743333
 20
51.519667
 42
-0.196281
  0
VERTEX
  8
0
 10
20.776460
 20
51.474193
 42
-0.020753
  0
VERTEX
  8
0
 10
20.803129
 20
51.342937
 42
-0.023170
  0
VERTEX
  8
0
 10
20.821830
 20
51.177588
 42
-0.016574
  0
VERTEX
  8
0
 10
20.828000
 20
50.991514
 42
0.015408
  0
VERTEX
  8
0
 10
20.834203
 20
50.790274
 42
0.013199
  0
VERTEX
  8
0
 10
20.852840
 20
50.579084
 42
0.013397
  0
VERTEX
  8
0
 10
20.879997
 20
50.388053
 42
0.036624
  0
VERTEX
  8
0
 10
20.912563
 20
50.255678
 42
-0.048750
  0
VERTEX
  8
0
 10
20.949832
 20
50.086648
 42
-0.004539
  0
VERTEX
  8
0
 10
20.996990
 20
49.661676
 42
-0.005802
  0
VERTEX
  8
0
 10
21.042840
 20
49.152663
 42
-0.004525
  0
VERTEX
  8
0
 10
21.081227
 20
48.598667
 42
0.002002
  0
VERTEX
  8
0
 10
21.158547
 20
47.394685
 42
0.009161
  0
VERTEX
  8
0
 10
21.219052
 20
46.696612
 42
0.009951
  0
VERTEX
  8
0
 10
21.275842
 20
46.243495
 42
0.156360
  0
VERTEX
  8
0
 10
21.343450
 20
46.105233
 42
-0.109853
  0
VERTEX
  8
0
 10
21.373279
 20
46.056160
 42
-0.028763
  0
VERTEX
  8
0
 10
21.397984
 20
45.966835
 42
-0.027794
  0
VERTEX
  8
0
 10
21.414984
 20
45.859271
 42
-0.025299
  0
VERTEX
  8
0
 10
21.420667
 20
45.747039
 42
0.095628
  0
VERTEX
  8
0
 10
21.495197
 20
45.360912
 42
0.019611
  0
VERTEX
  8
0
 10
21.780064
 20
44.723990
 42
0.021341
  0
VERTEX
  8
0
 10
22.124449
 20
44.097270
 42
0.058884
  0
VERTEX
  8
0
 10
22.433949
 20
43.700755
 42
0.026757
  0
VERTEX
  8
0
 10
22.580307
 20
43.567949
 42
0.024213
  0
VERTEX
  8
0
 10
22.744820
 20
43.446742
 42
0.024977
  0
VERTEX
  8
0
 10
22.902853
 20
43.352739
 42
0.067720
  0
VERTEX
  8
0
 10
23.025003
 20
43.307951
 42
-0.027060
  0
VERTEX
  8
0
 10
23.123947
 20
43.280534
 42
-0.039059
  0
VERTEX
  8
0
 10
23.207449
 20
43.244985
 42
-0.044337
  0
VERTEX
  8
0
 10
23.266749
 20
43.207043
 42
-0.232296
  0
VERTEX
  8
0
 10
23.283333
 20
43.173273
 42
0.187562
  0
VERTEX
  8
0
 10
23.294903
 20
43.143515
 42
0.089343
  0
VERTEX
  8
0
 10
23.328101
 20
43.118228
 42
0.069166
  0
VERTEX
  8
0
 10
23.377413
 20
43.101082
 42
0.049168
  0
VERTEX
  8
0
 10
23.435733
 20
43.095333
 42
-0.043468
  0
VERTEX
  8
0
 10
23.499985
 20
43.089737
 42
-0.035446
  0
VERTEX
  8
0
 10
23.566993
 20
43.073010
 42
-0.036724
  0
VERTEX
  8
0
 10
23.626825
 20
43.048492
 42
-0.073812
  0
VERTEX
  8
0
 10
23.668567
 20
43.019339
 42
0.151665
  0
VERTEX
  8
0
 10
23.864548
 20
42.923216
 42
0.018298
  0
VERTEX
  8
0
 10
24.347781
 20
42.865748
 42
0.015407
  0
VERTEX
  8
0
 10
25.057084
 20
42.829567
 42
0.004845
  0
VERTEX
  8
0
 10
26.119667
 20
42.818448
 42
0.004839
  0
VERTEX
  8
0
 10
27.160260
 20
42.827714
 42
0.017289
  0
VERTEX
  8
0
 10
27.824812
 20
42.863071
 42
0.020850
  0
VERTEX
  8
0
 10
28.263684
 20
42.920190
 42
0.214739
  0
VERTEX
  8
0
 10
28.411448
 20
43.020021
 42
-0.121142
  0
VERTEX
  8
0
 10
28.440910
 20
43.048941
 42
-0.048035
  0
VERTEX
  8
0
 10
28.492595
 20
43.073210
 42
-0.043880
  0
VERTEX
  8
0
 10
28.556012
 20
43.089763
 42
-0.041926
  0
VERTEX
  8
0
 10
28.622330
 20
43.095333
 42
0.049547
  0
VERTEX
  8
0
 10
28.685217
 20
43.101580
 42
0.069539
  0
VERTEX
  8
0
 10
28.738393
 20
43.120204
 42
0.089706
  0
VERTEX
  8
0
 10
28.774181
 20
43.147675
 42
0.186414
  0
VERTEX
  8
0
 10
28.786667
 20
43.180000
 42
-0.098337
  0
VERTEX
  8
0
 10
28.793084
 20
43.212313
 42
-0.097777
  0
VERTEX
  8
0
 10
28.811367
 20
43.239796
 42
-0.098108
  0
VERTEX
  8
0
 10
28.838663
 20
43.258201
 42
-0.099744
  0
VERTEX
  8
0
 10
28.870753
 20
43.264667
 42
0.096200
  0
VERTEX
  8
0
 10
29.020531
 20
43.293753
 42
0.013998
  0
VERTEX
  8
0
 10
29.306261
 20
43.418488
 42
0.008471
  0
VERTEX
  8
0
 10
29.594746
 20
43.560178
 42
0.281423
  0
VERTEX
  8
0
 10
29.633333
 20
43.623306
 42
-0.166395
  0
VERTEX
  8
0
 10
29.641780
 20
43.647986
 42
-0.095290
  0
VERTEX
  8
0
 10
29.665675
 20
43.668996
 42
-0.076194
  0
VERTEX
  8
0
 10
29.701320
 20
43.683198
 42
-0.056826
  0
VERTEX
  8
0
 10
29.743432
 20
43.688000
 42
0.146254
  0
VERTEX
  8
0
 10
29.808675
 20
43.707501
 42
0.011335
  0
VERTEX
  8
0
 10
29.960511
 20
43.812175
 42
0.014735
  0
VERTEX
  8
0
 10
30.138123
 20
43.948802
 42
0.010702
  0
VERTEX
  8
0
 10
30.327818
 20
44.110724
 42
0.022999
  0
VERTEX
  8
0
 10
30.564345
 20
44.341906
 42
0.027880
  0
VERTEX
  8
0
 10
30.762963
 20
44.580076
 42
0.027000
  0
VERTEX
  8
0
 10
30.938769
 20
44.845300
 42
0.019446
  0
VERTEX
  8
0
 10
31.106719
 20
45.158295
 42
0.007044
  0
VERTEX
  8
0
 10
31.223389
 20
45.406432
 42
0.009402
  0
VERTEX
  8
0
 10
31.321853
 20
45.635087
 42
0.007020
  0
VERTEX
  8
0
 10
31.397521
 20
45.828011
 42
0.090178
  0
VERTEX
  8
0
 10
31.411333
 20
45.903971
 42
-0.060889
  0
VERTEX
  8
0
 10
31.417777
 20
45.956692
 42
-0.039085
  0
VERTEX
  8
0
 10
31.437271
 20
46.015244
 42
-0.038921
  0
VERTEX
  8
0
 10
31.465821
 20
46.070445
 42
-0.057633
  0
VERTEX
  8
0
 10
31.499632
 20
46.113099
 42
0.206557
  0
VERTEX
  8
0
 10
31.600230
 20
46.366423
 42
0.001628
  0
VERTEX
  8
0
 10
31.527420
 20
48.597161
 42
0.001761
  0
VERTEX
  8
0
 10
31.439866
 20
50.817835
 42
0.185268
  0
VERTEX
  8
0
 10
31.320887
 20
51.092100
 42
-0.129663
  0
VERTEX
  8
0
 10
31.290147
 20
51.146062
 42
-0.022340
  0
VERTEX
  8
0
 10
31.264784
 20
51.262068
 42
-0.023014
  0
VERTEX
  8
0
 10
31.246967
 20
51.404378
 42
-0.018777
  0
VERTEX
  8
0
 10
31.240677
 20
51.557767
 42
0.023026
  0
VERTEX
  8
0
 10
31.231588
 20
51.741319
 42
0.010600
  0
VERTEX
  8
0
 10
31.203712
 20
51.979063
 42
0.010474
  0
VERTEX
  8
0
 10
31.163773
 20
52.228338
 42
0.014278
  0
VERTEX
  8
0
 10
31.116693
 20
52.451000
 42
-0.010115
  0
VERTEX
  8
0
 10
31.069514
 20
52.665307
 42
-0.009086
  0
VERTEX
  8
0
 10
31.029178
 20
52.889137
 42
-0.009149
  0
VERTEX
  8
0
 10
31.000317
 20
53.091268
 42
-0.028099
  0
VERTEX
  8
0
 10
30.991016
 20
53.229170
 42
0.025644
  0
VERTEX
  8
0
 10
30.984336
 20
53.336017
 42
0.032195
  0
VERTEX
  8
0
 10
30.966763
 20
53.433650
 42
0.033791
  0
VERTEX
  8
0
 10
30.942028
 20
53.510867
 42
0.161292
  0
VERTEX
  8
0
 10
30.912688
 20
53.545885
 42
-0.139934
  0
VERTEX
  8
0
 10
30.880848
 20
53.580815
 42
-0.027313
  0
VERTEX
  8
0
 10
30.846840
 20
53.659819
 42
-0.027072
  0
VERTEX
  8
0
 10
30.816306
 20
53.759322
 42
-0.022178
  0
VERTEX
  8
0
 10
30.794283
 20
53.868382
 42
0.014553
  0
VERTEX
  8
0
 10
30.768190
 20
54.008577
 42
0.004831
  0
VERTEX
  8
0
 10
30.721993
 20
54.212498
 42
0.004805
  0
VERTEX
  8
0
 10
30.666416
 20
54.437606
 42
0.005448
  0
VERTEX
  8
0
 10
30.608705
 20
54.652333
 42
-0.005177
  0
VERTEX
  8
0
 10
30.550869
 20
54.867061
 42
-0.004562
  0
VERTEX
  8
0
 10
30.494916
 20
55.092169
 42
-0.004586
  0
VERTEX
  8
0
 10
30.448174
 20
55.296087
 42
-0.013805
  0
VERTEX
  8
0
 10
30.421423
 20
55.436285
 42
0.022037
  0
VERTEX
  8
0
 10
30.398746
 20
55.545345
 42
0.026869
  0
VERTEX
  8
0
 10
30.367661
 20
55.644848
 42
0.027069
  0
VERTEX
  8
0
 10
30.333255
 20
55.723868
 42
0.138997
  0
VERTEX
  8
0
 10
30.301312
 20
55.758781
 42
-0.121142
  0
VERTEX
  8
0
 10
30.272393
 20
55.788243
 42
-0.048035
  0
VERTEX
  8
0
 10
30.248123
 20
55.839928
 42
-0.043880
  0
VERTEX
  8
0
 10
30.231571
 20
55.903346
 42
-0.041926
  0
VERTEX
  8
0
 10
30.226000
 20
55.969663
 42
0.043838
  0
VERTEX
  8
0
 10
30.220474
 20
56.032573
 42
0.063620
  0
VERTEX
  8
0
 10
30.203897
 20
56.085726
 42
0.083369
  0
VERTEX
  8
0
 10
30.179516
 20
56.121692
 42
0.204979
  0
VERTEX
  8
0
 10
30.150756
 20
56.134000
 42
-0.260580
  0
VERTEX
  8
0
 10
30.118103
 20
56.152257
 42
-0.035669
  0
VERTEX
  8
0
 10
30.080710
 20
56.224110
 42
-0.033522
  0
VERTEX
  8
0
 10
30.045479
 20
56.323229
 42
-0.022267
  0
VERTEX
  8
0
 10
30.017964
 20
56.440756
 42
0.028362
  0
VERTEX
  8
0
 10
29.966502
 20
56.649104
 42
0.025528
  0
VERTEX
  8
0
 10
29.890295
 20
56.857932
 42
0.026330
  0
VERTEX
  8
0
 10
29.802659
 20
57.037698
 42
0.071949
  0
VERTEX
  8
0
 10
29.717304
 20
57.150000
 42
-0.098629
  0
VERTEX
  8
0
 10
29.694270
 20
57.183892
 42
-0.004312
  0
VERTEX
  8
0
 10
29.639423
 20
57.316688
 42
-0.007176
  0
VERTEX
  8
0
 10
29.577668
 20
57.476520
 42
-0.005046
  0
VERTEX
  8
0
 10
29.512600
 20
57.658000
 42
0.006312
  0
VERTEX
  8
0
 10
29.447015
 20
57.839475
 42
0.008911
  0
VERTEX
  8
0
 10
29.383684
 20
57.999313
 42
0.005701
  0
VERTEX
  8
0
 10
29.326952
 20
58.131115
 42
0.113451
  0
VERTEX
  8
0
 10
29.300772
 20
58.166000
 42
-0.088944
  0
VERTEX
  8
0
 10
29.271961
 20
58.200744
 42
-0.003541
  0
VERTEX
  8
0
 10
29.191616
 20
58.345123
 42
-0.006147
  0
VERTEX
  8
0
 10
29.099417
 20
58.518630
 42
-0.004300
  0
VERTEX
  8
0
 10
28.999601
 20
58.716333
 42
0.009531
  0
VERTEX
  8
0
 10
28.892780
 20
58.922522
 42
0.009882
  0
VERTEX
  8
0
 10
28.779409
 20
59.121993
 42
0.009638
  0
VERTEX
  8
0
 10
28.674662
 20
59.290614
 42
0.041530
  0
VERTEX
  8
0
 10
28.602506
 20
59.383941
 42
-0.043808
  0
VERTEX
  8
0
 10
28.542821
 20
59.461868
 42
-0.025068
  0
VERTEX
  8
0
 10
28.484330
 20
59.565000
 42
-0.024883
  0
VERTEX
  8
0
 10
28.435529
 20
59.675453
 42
-0.037536
  0
VERTEX
  8
0
 10
28.405334
 20
59.776180
 42
0.057531
  0
VERTEX
  8
0
 10
28.366897
 20
59.887981
 42
0.020775
  0
VERTEX
  8
0
 10
28.288050
 20
60.036657
 42
0.020284
  0
VERTEX
  8
0
 10
28.187384
 20
60.193805
 42
0.022715
  0
VERTEX
  8
0
 10
28.077816
 20
60.336238
 42
-0.008316
  0
VERTEX
  8
0
 10
27.953106
 20
60.489045
 42
-0.004609
  0
VERTEX
  8
0
 10
27.805778
 20
60.679403
 42
-0.004595
  0
VERTEX
  8
0
 10
27.660071
 20
60.875004
 42
-0.007390
  0
VERTEX
  8
0
 10
27.539900
 20
61.044667
 42
0.047162
  0
VERTEX
  8
0
 10
26.929643
 20
61.775472
 42
0.013297
  0
VERTEX
  8
0
 10
25.846600
 20
62.792964
 42
0.007599
  0
VERTEX
  8
0
 10
24.705127
 20
63.778886
 42
0.176090
  0
VERTEX
  8
0
 10
24.307691
 20
63.923333
 42
-0.072961
  0
VERTEX
  8
0
 10
24.275414
 20
63.928069
 42
-0.061003
  0
VERTEX
  8
0
 10
24.243668
 20
63.941986
 42
-0.062936
  0
VERTEX
  8
0
 10
24.217216
 20
63.962548
 42
-0.091786
  0
VERTEX
  8
0
 10
24.200556
 20
63.986833
 42
0.171882
  0
VERTEX
  8
0
 10
24.126771
 20
64.064672
 42
0.011577
  0
VERTEX
  8
0
 10
23.846612
 20
64.199501
 42
0.015197
  0
VERTEX
  8
0
 10
23.562830
 20
64.317813
 42
0.091405
  0
VERTEX
  8
0
 10
23.406312
 20
64.346667
 42
-0.045097
  0
VERTEX
  8
0
 10
23.347824
 20
64.351953
 42
-0.021950
  0
VERTEX
  8
0
 10
23.274649
 20
64.368636
 42
-0.021571
  0
VERTEX
  8
0
 10
23.199475
 20
64.392814
 42
-0.029075
  0
VERTEX
  8
0
 10
23.134018
 20
64.421455
 42
0.011657
  0
VERTEX
  8
0
 10
22.909463
 20
64.529173
 42
0.011789
  0
VERTEX
  8
0
 10
22.680962
 20
64.625885
 42
0.010811
  0
VERTEX
  8
0
 10
22.430834
 20
64.718661
 42
0.007186
  0
VERTEX
  8
0
 10
22.140333
 20
64.814670
 42
-0.003963
  0
VERTEX
  8
0
 10
21.965841
 20
64.871094
 42
-0.003919
  0
VERTEX
  8
0
 10
21.791613
 20
64.930482
 42
-0.003849
  0
VERTEX
  8
0
 10
21.639923
 20
64.984831
 42
-0.015095
  0
VERTEX
  8
0
 10
21.547667
 20
65.021887
 42
0.020487
  0
VERTEX
  8
0
 10
21.464897
 20
65.054100
 42
0.009116
  0
VERTEX
  8
0
 10
21.353463
 20
65.090036
 42
0.009006
  0
VERTEX
  8
0
 10
21.233971
 20
65.123842
 42
0.012036
  0
VERTEX
  8
0
 10
21.124333
 20
65.149933
 42
0.000385
  0
VERTEX
  8
0
 10
20.994481
 20
65.177446
 42
0.000128
  0
VERTEX
  8
0
 10
20.803934
 20
65.217615
 42
0.000127
  0
VERTEX
  8
0
 10
20.592705
 20
65.262030
 42
0.000145
  0
VERTEX
  8
0
 10
20.390293
 20
65.304477
 42
-0.009282
  0
VERTEX
  8
0
 10
20.201820
 20
65.347611
 42
-0.012417
  0
VERTEX
  8
0
 10
20.032688
 20
65.394125
 42
-0.009647
  0
VERTEX
  8
0
 10
19.894439
 20
65.438792
 42
-0.114414
  0
VERTEX
  8
0
 10
19.847015
 20
65.468500
 42
0.139731
  0
VERTEX
  8
0
 10
19.802740
 20
65.493254
 42
0.019916
  0
VERTEX
  8
0
 10
19.699554
 20
65.513347
 42
0.021371
  0
VERTEX
  8
0
 10
19.572453
 20
65.527353
 42
0.016756
  0
VERTEX
  8
0
 10
19.433822
 20
65.532000
 42
-0.020250
  0
VERTEX
  8
0
 10
19.293945
 20
65.537667
 42
-0.024139
  0
VERTEX
  8
0
 10
19.163039
 20
65.554683
 42
-0.023944
  0
VERTEX
  8
0
 10
19.055862
 20
65.579258
 42
-0.123552
  0
VERTEX
  8
0
 10
19.003433
 20
65.609217
 42
0.159651
  0
VERTEX
  8
0
 10
18.835648
 20
65.689929
 42
0.010692
  0
VERTEX
  8
0
 10
18.298931
 20
65.749401
 42
0.011691
  0
VERTEX
  8
0
 10
17.545831
 20
65.798870
 42
0.004157
  0
VERTEX
  8
0
 10
16.467667
 20
65.835429
 42
0.004754
  0
VERTEX
  8
0
 10
15.865915
 20
65.845103
 42
0.009195
  0
VERTEX
  8
0
 10
15.384589
 20
65.839412
 42
0.006328
  0
VERTEX
  8
0
 10
15.007208
 20
65.823224
 42
0.133216
  0
SEQEND
  0
ENDSEC
  0
EOF
