999
DXF data, created by potrace 1.16, written by Peter Selinger 2001-2019
  0
SECTION
  2
HEADER
  9
$ACADVER
  1
AC1006
  9
$EXTMIN
 10
0.000000
 20
0.000000
 30
0.000000
  9
$EXTMAX
 10
73.914000
 20
53.509333
 30
0.000000
  0
ENDSEC
  0
SECTION
  2
ENTITIES
  0
POLYLINE
  8
0
 66
1
 70
1
  0
VERTEX
  8
0
 10
36.300258
 20
52.612702
 42
-0.157038
  0
VERTEX
  8
0
 10
36.251969
 20
52.587938
 42
-0.004370
  0
VERTEX
  8
0
 10
36.017058
 20
52.551570
 42
-0.008564
  0
VERTEX
  8
0
 10
35.736857
 20
52.515585
 42
-0.005729
  0
VERTEX
  8
0
 10
35.415168
 20
52.483589
 42
0.006065
  0
VERTEX
  8
0
 10
34.568075
 20
52.398758
 42
0.004759
  0
VERTEX
  8
0
 10
33.651713
 20
52.286907
 42
0.004506
  0
VERTEX
  8
0
 10
32.823010
 20
52.170134
 42
0.018219
  0
VERTEX
  8
0
 10
32.321500
 20
52.076055
 42
-0.000542
  0
VERTEX
  8
0
 10
32.141362
 20
52.035624
 42
-0.000345
  0
VERTEX
  8
0
 10
31.931769
 20
51.988973
 42
-0.000347
  0
VERTEX
  8
0
 10
31.726188
 20
51.943513
 42
-0.000646
  0
VERTEX
  8
0
 10
31.559500
 20
51.907000
 42
0.004274
  0
VERTEX
  8
0
 10
30.932200
 20
51.764815
 42
0.005803
  0
VERTEX
  8
0
 10
30.368608
 20
51.625071
 42
0.006304
  0
VERTEX
  8
0
 10
29.900942
 20
51.497016
 42
0.019660
  0
VERTEX
  8
0
 10
29.591000
 20
51.394583
 42
-0.007833
  0
VERTEX
  8
0
 10
29.496855
 20
51.360980
 42
-0.001737
  0
VERTEX
  8
0
 10
29.334619
 20
51.306549
 42
-0.001804
  0
VERTEX
  8
0
 10
29.146699
 20
51.244979
 42
-0.001738
  0
VERTEX
  8
0
 10
28.956000
 20
51.183991
 42
0.005442
  0
VERTEX
  8
0
 10
28.759001
 20
51.119377
 42
0.004605
  0
VERTEX
  8
0
 10
28.552137
 20
51.046891
 42
0.004646
  0
VERTEX
  8
0
 10
28.364791
 20
50.977326
 42
0.012942
  0
VERTEX
  8
0
 10
28.235062
 20
50.923893
 42
-0.003279
  0
VERTEX
  8
0
 10
27.979312
 20
50.812725
 42
-0.003388
  0
VERTEX
  8
0
 10
27.724905
 20
50.706152
 42
-0.001805
  0
VERTEX
  8
0
 10
27.496689
 20
50.613325
 42
-0.045261
  0
VERTEX
  8
0
 10
27.432000
 20
50.593862
 42
0.066908
  0
VERTEX
  8
0
 10
27.256163
 20
50.532570
 42
0.002180
  0
VERTEX
  8
0
 10
26.590040
 20
50.191365
 42
0.000979
  0
VERTEX
  8
0
 10
25.892070
 20
49.828260
 42
0.176980
  0
VERTEX
  8
0
 10
25.837444
 20
49.768291
 42
-0.156050
  0
VERTEX
  8
0
 10
25.815220
 20
49.741801
 42
-0.054005
  0
VERTEX
  8
0
 10
25.769843
 20
49.719590
 42
-0.047299
  0
VERTEX
  8
0
 10
25.711125
 20
49.704422
 42
-0.039584
  0
VERTEX
  8
0
 10
25.646944
 20
49.699333
 42
0.038435
  0
VERTEX
  8
0
 10
25.584803
 20
49.694549
 42
0.057440
  0
VERTEX
  8
0
 10
25.532336
 20
49.680118
 42
0.075493
  0
VERTEX
  8
0
 10
25.496553
 20
49.658966
 42
0.225254
  0
VERTEX
  8
0
 10
25.484667
 20
49.633920
 42
-0.220354
  0
VERTEX
  8
0
 10
25.468986
 20
49.600068
 42
-0.018596
  0
VERTEX
  8
0
 10
25.391401
 20
49.539097
 42
-0.021952
  0
VERTEX
  8
0
 10
25.288805
 20
49.471147
 42
-0.015123
  0
VERTEX
  8
0
 10
25.167167
 20
49.402975
 42
0.014667
  0
VERTEX
  8
0
 10
24.881213
 20
49.243053
 42
0.004303
  0
VERTEX
  8
0
 10
24.451669
 20
48.980961
 42
0.003655
  0
VERTEX
  8
0
 10
24.031112
 20
48.715077
 42
0.025517
  0
VERTEX
  8
0
 10
23.833667
 20
48.573490
 42
-0.007091
  0
VERTEX
  8
0
 10
23.778852
 20
48.531041
 42
-0.000635
  0
VERTEX
  8
0
 10
23.639586
 20
48.426592
 42
-0.000827
  0
VERTEX
  8
0
 10
23.473113
 20
48.302498
 42
-0.000645
  0
VERTEX
  8
0
 10
23.291859
 20
48.168213
 42
0.003072
  0
VERTEX
  8
0
 10
22.982171
 20
47.936440
 42
0.005626
  0
VERTEX
  8
0
 10
22.733062
 20
47.743154
 42
0.003785
  0
VERTEX
  8
0
 10
22.431064
 20
47.499587
 42
0.000723
  0
VERTEX
  8
0
 10
21.886333
 20
47.052090
 42
0.018749
  0
VERTEX
  8
0
 10
21.448775
 20
46.663138
 42
0.004189
  0
VERTEX
  8
0
 10
20.733094
 20
45.965646
 42
0.004336
  0
VERTEX
  8
0
 10
20.025879
 20
45.252498
 42
0.016224
  0
VERTEX
  8
0
 10
19.600333
 20
44.786544
 42
0.010622
  0
VERTEX
  8
0
 10
19.047378
 20
44.111654
 42
0.007852
  0
VERTEX
  8
0
 10
18.463614
 20
43.342899
 42
0.002946
  0
VERTEX
  8
0
 10
17.918309
 20
42.591642
 42
0.156760
  0
VERTEX
  8
0
 10
17.864667
 20
42.424749
 42
-0.074361
  0
VERTEX
  8
0
 10
17.859931
 20
42.393086
 42
-0.061263
  0
VERTEX
  8
0
 10
17.846013
 20
42.361859
 42
-0.062890
  0
VERTEX
  8
0
 10
17.825451
 20
42.335757
 42
-0.090125
  0
VERTEX
  8
0
 10
17.801167
 20
42.319209
 42
0.157913
  0
VERTEX
  8
0
 10
17.712461
 20
42.239563
 42
0.006858
  0
VERTEX
  8
0
 10
17.505337
 20
41.871183
 42
0.008402
  0
VERTEX
  8
0
 10
17.226438
 20
41.337666
 42
0.002495
  0
VERTEX
  8
0
 10
16.817970
 20
40.513000
 42
0.003977
  0
VERTEX
  8
0
 10
16.311880
 20
39.457092
 42
0.010695
  0
VERTEX
  8
0
 10
15.974140
 20
38.695905
 42
0.012401
  0
VERTEX
  8
0
 10
15.698345
 20
37.987814
 42
0.007233
  0
VERTEX
  8
0
 10
15.401196
 20
37.126333
 42
-0.002812
  0
VERTEX
  8
0
 10
15.331870
 20
36.919428
 42
-0.003003
  0
VERTEX
  8
0
 10
15.261699
 20
36.717817
 42
-0.002851
  0
VERTEX
  8
0
 10
15.199341
 20
36.545189
 42
-0.014014
  0
VERTEX
  8
0
 10
15.160880
 20
36.449000
 42
0.026619
  0
VERTEX
  8
0
 10
15.100120
 20
36.285186
 42
0.004832
  0
VERTEX
  8
0
 10
15.006686
 20
35.974674
 42
0.004028
  0
VERTEX
  8
0
 10
14.884054
 20
35.539316
 42
0.001496
  0
VERTEX
  8
0
 10
14.718316
 20
34.925000
 42
-0.005792
  0
VERTEX
  8
0
 10
14.678671
 20
34.782921
 42
-0.005147
  0
VERTEX
  8
0
 10
14.634212
 20
34.636075
 42
-0.005172
  0
VERTEX
  8
0
 10
14.591482
 20
34.504775
 42
-0.015805
  0
VERTEX
  8
0
 10
14.558785
 20
34.417000
 42
0.021302
  0
VERTEX
  8
0
 10
14.528987
 20
34.334235
 42
0.009449
  0
VERTEX
  8
0
 10
14.496447
 20
34.222796
 42
0.009333
  0
VERTEX
  8
0
 10
14.466377
 20
34.103305
 42
0.012436
  0
VERTEX
  8
0
 10
14.443810
 20
33.993667
 42
0.000249
  0
VERTEX
  8
0
 10
14.419279
 20
33.857020
 42
0.000064
  0
VERTEX
  8
0
 10
14.379728
 20
33.635912
 42
0.000065
  0
VERTEX
  8
0
 10
14.334655
 20
33.383558
 42
0.000066
  0
VERTEX
  8
0
 10
14.289874
 20
33.132459
 42
-0.007748
  0
VERTEX
  8
0
 10
14.243801
 20
32.895258
 42
-0.010860
  0
VERTEX
  8
0
 10
14.194799
 20
32.685091
 42
-0.007403
  0
VERTEX
  8
0
 10
14.147761
 20
32.512162
 42
-0.127791
  0
VERTEX
  8
0
 10
14.118167
 20
32.462181
 42
0.134985
  0
VERTEX
  8
0
 10
14.093464
 20
32.419082
 42
0.021915
  0
VERTEX
  8
0
 10
14.073320
 20
32.323767
 42
0.022806
  0
VERTEX
  8
0
 10
14.059319
 20
32.206526
 42
0.018315
  0
VERTEX
  8
0
 10
14.054667
 20
32.079552
 42
-0.021439
  0
VERTEX
  8
0
 10
14.049274
 20
31.953850
 42
-0.028382
  0
VERTEX
  8
0
 10
14.033010
 20
31.840479
 42
-0.028327
  0
VERTEX
  8
0
 10
14.009596
 20
31.750981
 42
-0.178022
  0
VERTEX
  8
0
 10
13.980942
 20
31.714429
 42
0.170798
  0
VERTEX
  8
0
 10
13.949526
 20
31.675492
 42
0.018501
  0
VERTEX
  8
0
 10
13.914475
 20
31.563594
 42
0.021004
  0
VERTEX
  8
0
 10
13.882353
 20
31.422965
 42
0.015452
  0
VERTEX
  8
0
 10
13.858201
 20
31.264932
 42
-0.006990
  0
VERTEX
  8
0
 10
13.830227
 20
31.058571
 42
-0.002300
  0
VERTEX
  8
0
 10
13.783443
 20
30.755818
 42
-0.002290
  0
VERTEX
  8
0
 10
13.728447
 20
30.420358
 42
-0.002592
  0
VERTEX
  8
0
 10
13.672535
 20
30.099000
 42
0.000014
  0
VERTEX
  8
0
 10
13.614661
 20
29.776225
 42
0.000012
  0
VERTEX
  8
0
 10
13.553764
 20
29.436483
 42
0.000012
  0
VERTEX
  8
0
 10
13.498466
 20
29.127897
 42
0.000035
  0
VERTEX
  8
0
 10
13.460097
 20
28.913667
 42
0.003312
  0
VERTEX
  8
0
 10
13.421975
 20
28.692285
 42
0.000985
  0
VERTEX
  8
0
 10
13.366637
 20
28.353544
 42
0.000988
  0
VERTEX
  8
0
 10
13.305968
 20
27.972740
 42
0.001067
  0
VERTEX
  8
0
 10
13.248360
 20
27.601333
 42
-0.001040
  0
VERTEX
  8
0
 10
13.190292
 20
27.226826
 42
-0.000918
  0
VERTEX
  8
0
 10
13.128235
 20
26.836688
 42
-0.000922
  0
VERTEX
  8
0
 10
13.071010
 20
26.485263
 42
-0.002802
  0
VERTEX
  8
0
 10
13.030332
 20
26.246667
 42
0.001944
  0
VERTEX
  8
0
 10
12.925960
 20
25.640758
 42
0.003372
  0
VERTEX
  8
0
 10
12.844624
 20
25.136595
 42
0.003718
  0
VERTEX
  8
0
 10
12.775781
 20
24.667679
 42
0.003173
  0
VERTEX
  8
0
 10
12.710018
 20
24.172333
 42
-0.000445
  0
VERTEX
  8
0
 10
12.676888
 20
23.911911
 42
-0.000725
  0
VERTEX
  8
0
 10
12.648254
 20
23.690961
 42
-0.000073
  0
VERTEX
  8
0
 10
12.622326
 20
23.493368
 42
-0.072397
  0
VERTEX
  8
0
 10
12.619898
 20
23.484769
 42
-0.262577
  0
VERTEX
  8
0
 10
12.613624
 20
23.480122
 42
-0.000365
  0
VERTEX
  8
0
 10
12.461232
 20
23.461246
 42
-0.002802
  0
VERTEX
  8
0
 10
12.289384
 20
23.441064
 42
-0.001707
  0
VERTEX
  8
0
 10
12.086167
 20
23.419055
 42
0.013767
  0
VERTEX
  8
0
 10
11.620815
 20
23.357269
 42
0.014277
  0
VERTEX
  8
0
 10
11.165222
 20
23.270555
 42
0.011136
  0
VERTEX
  8
0
 10
10.776194
 20
23.175804
 42
0.112822
  0
VERTEX
  8
0
 10
10.629900
 20
23.098547
 42
-0.054655
  0
VERTEX
  8
0
 10
10.591258
 20
23.072033
 42
-0.034861
  0
VERTEX
  8
0
 10
10.541499
 20
23.049665
 42
-0.034808
  0
VERTEX
  8
0
 10
10.488970
 20
23.034379
 42
-0.053451
  0
VERTEX
  8
0
 10
10.441909
 20
23.029333
 42
0.101442
  0
VERTEX
  8
0
 10
10.310610
 20
23.002418
 42
0.005619
  0
VERTEX
  8
0
 10
9.925573
 20
22.832488
 42
0.009496
  0
VERTEX
  8
0
 10
9.542811
 20
22.649547
 42
0.024184
  0
VERTEX
  8
0
 10
9.274777
 20
22.498490
 42
0.043870
  0
VERTEX
  8
0
 10
8.872839
 20
22.193412
 42
0.006537
  0
VERTEX
  8
0
 10
8.128749
 20
21.500216
 42
0.002440
  0
VERTEX
  8
0
 10
7.345135
 20
20.743469
 42
0.202231
  0
VERTEX
  8
0
 10
7.281346
 20
20.592119
 42
-0.394770
  0
VERTEX
  8
0
 10
7.259556
 20
20.568813
 42
-0.006511
  0
VERTEX
  8
0
 10
7.066099
 20
20.558353
 42
-0.012889
  0
VERTEX
  8
0
 10
6.829551
 20
20.554752
 42
-0.007724
  0
VERTEX
  8
0
 10
6.548573
 20
20.562060
 42
0.020157
  0
VERTEX
  8
0
 10
6.068467
 20
20.562608
 42
0.029662
  0
VERTEX
  8
0
 10
5.648818
 20
20.521150
 42
0.033820
  0
VERTEX
  8
0
 10
5.285383
 20
20.437817
 42
0.046615
  0
VERTEX
  8
0
 10
4.975316
 20
20.311748
 42
-0.028630
  0
VERTEX
  8
0
 10
4.910159
 20
20.282487
 42
-0.021803
  0
VERTEX
  8
0
 10
4.835913
 20
20.257780
 42
-0.022234
  0
VERTEX
  8
0
 10
4.764061
 20
20.240715
 42
-0.047218
  0
VERTEX
  8
0
 10
4.707204
 20
20.235333
 42
0.048516
  0
VERTEX
  8
0
 10
4.658791
 20
20.230625
 42
0.052095
  0
VERTEX
  8
0
 10
4.613392
 20
20.216680
 42
0.058276
  0
VERTEX
  8
0
 10
4.577453
 20
20.196173
 42
0.130134
  0
VERTEX
  8
0
 10
4.557889
 20
20.171833
 42
-0.133265
  0
VERTEX
  8
0
 10
4.531043
 20
20.138851
 42
-0.011928
  0
VERTEX
  8
0
 10
4.442024
 20
20.078110
 42
-0.014869
  0
VERTEX
  8
0
 10
4.330228
 20
20.010305
 42
-0.011061
  0
VERTEX
  8
0
 10
4.203086
 20
19.941944
 42
0.052954
  0
VERTEX
  8
0
 10
3.809525
 20
19.685768
 42
0.019028
  0
VERTEX
  8
0
 10
3.306574
 20
19.243861
 42
0.019232
  0
VERTEX
  8
0
 10
2.811896
 20
18.737176
 42
0.029930
  0
VERTEX
  8
0
 10
2.430511
 20
18.260800
 42
0.025090
  0
VERTEX
  8
0
 10
2.076060
 20
17.701792
 42
0.014946
  0
VERTEX
  8
0
 10
1.708590
 20
17.004540
 42
0.014980
  0
VERTEX
  8
0
 10
1.387859
 20
16.296223
 42
0.028400
  0
VERTEX
  8
0
 10
1.179991
 20
15.705667
 42
0.034788
  0
VERTEX
  8
0
 10
1.001938
 20
14.878857
 42
0.017866
  0
VERTEX
  8
0
 10
0.888870
 20
13.824521
 42
0.016331
  0
VERTEX
  8
0
 10
0.850157
 20
12.818091
 42
0.074050
  0
VERTEX
  8
0
 10
0.933042
 20
12.238503
 42
0.023042
  0
VERTEX
  8
0
 10
1.184172
 20
11.519316
 42
0.036504
  0
VERTEX
  8
0
 10
1.470878
 20
10.933293
 42
0.037869
  0
VERTEX
  8
0
 10
1.831337
 20
10.410551
 42
0.027371
  0
VERTEX
  8
0
 10
2.305717
 20
9.884833
 42
0.008841
  0
VERTEX
  8
0
 10
2.567965
 20
9.633436
 42
0.012771
  0
VERTEX
  8
0
 10
2.809188
 20
9.421416
 42
0.008462
  0
VERTEX
  8
0
 10
3.015848
 20
9.254778
 42
0.166943
  0
VERTEX
  8
0
 10
3.091873
 20
9.228667
 42
-0.060232
  0
VERTEX
  8
0
 10
3.139851
 20
9.222866
 42
-0.078976
  0
VERTEX
  8
0
 10
3.180479
 20
9.205772
 42
-0.097104
  0
VERTEX
  8
0
 10
3.207684
 20
9.180454
 42
-0.158229
  0
VERTEX
  8
0
 10
3.217333
 20
9.150727
 42
0.229902
  0
VERTEX
  8
0
 10
3.233697
 20
9.117021
 42
0.045372
  0
VERTEX
  8
0
 10
3.291661
 20
9.079357
 42
0.039729
  0
VERTEX
  8
0
 10
3.373452
 20
9.044186
 42
0.027631
  0
VERTEX
  8
0
 10
3.470362
 20
9.017213
 42
-0.023326
  0
VERTEX
  8
0
 10
3.570769
 20
8.990196
 42
-0.027053
  0
VERTEX
  8
0
 10
3.663253
 20
8.955006
 42
-0.027635
  0
VERTEX
  8
0
 10
3.737078
 20
8.917233
 42
-0.122871
  0
VERTEX
  8
0
 10
3.771692
 20
8.883486
 42
0.130183
  0
VERTEX
  8
0
 10
3.803414
 20
8.853438
 42
0.045574
  0
VERTEX
  8
0
 10
3.861540
 20
8.828291
 42
0.041518
  0
VERTEX
  8
0
 10
3.933561
 20
8.811105
 42
0.037832
  0
VERTEX
  8
0
 10
4.009730
 20
8.805333
 42
-0.045859
  0
VERTEX
  8
0
 10
4.089695
 20
8.797984
 42
-0.037154
  0
VERTEX
  8
0
 10
4.173036
 20
8.776029
 42
-0.038483
  0
VERTEX
  8
0
 10
4.247361
 20
8.743832
 42
-0.075062
  0
VERTEX
  8
0
 10
4.299227
 20
8.705573
 42
0.193061
  0
VERTEX
  8
0
 10
4.510969
 20
8.615058
 42
0.005966
  0
VERTEX
  8
0
 10
5.476577
 20
8.604814
 42
0.004639
  0
VERTEX
  8
0
 10
6.459000
 20
8.615228
 42
0.317344
  0
VERTEX
  8
0
 10
6.585866
 20
8.708597
 42
-0.145909
  0
VERTEX
  8
0
 10
6.611854
 20
8.745660
 42
-0.063863
  0
VERTEX
  8
0
 10
6.663769
 20
8.776917
 42
-0.055485
  0
VERTEX
  8
0
 10
6.731605
 20
8.798164
 42
-0.048208
  0
VERTEX
  8
0
 10
6.805789
 20
8.805333
 42
0.045920
  0
VERTEX
  8
0
 10
6.884897
 20
8.812614
 42
0.037168
  0
VERTEX
  8
0
 10
6.967366
 20
8.834363
 42
0.038493
  0
VERTEX
  8
0
 10
7.040931
 20
8.866258
 42
0.074977
  0
VERTEX
  8
0
 10
7.092291
 20
8.904158
 42
-0.059987
  0
VERTEX
  8
0
 10
7.143190
 20
8.944117
 42
-0.239160
  0
VERTEX
  8
0
 10
7.181565
 20
8.947048
 42
-0.181348
  0
VERTEX
  8
0
 10
7.213971
 20
8.916733
 42
-0.034388
  0
VERTEX
  8
0
 10
7.245348
 20
8.840658
 42
0.028058
  0
VERTEX
  8
0
 10
7.385527
 20
8.488205
 42
0.016388
  0
VERTEX
  8
0
 10
7.590430
 20
8.082233
 42
0.016336
  0
VERTEX
  8
0
 10
7.823643
 20
7.686797
 42
0.025847
  0
VERTEX
  8
0
 10
8.051341
 20
7.365963
 42
0.033603
  0
VERTEX
  8
0
 10
8.442409
 20
6.934282
 42
0.021173
  0
VERTEX
  8
0
 10
8.951674
 20
6.482915
 42
0.021266
  0
VERTEX
  8
0
 10
9.489951
 20
6.081864
 42
0.037845
  0
VERTEX
  8
0
 10
9.968696
 20
5.806382
 42
-0.001019
  0
VERTEX
  8
0
 10
10.166170
 20
5.711347
 42
-0.001134
  0
VERTEX
  8
0
 10
10.356276
 20
5.618848
 42
-0.001046
  0
VERTEX
  8
0
 10
10.518011
 20
5.539279
 42
-0.005966
  0
VERTEX
  8
0
 10
10.603351
 20
5.495797
 42
0.030235
  0
VERTEX
  8
0
 10
10.669017
 20
5.466259
 42
0.022245
  0
VERTEX
  8
0
 10
10.744826
 20
5.441324
 42
0.022628
  0
VERTEX
  8
0
 10
10.818913
 20
5.424130
 42
0.045731
  0
VERTEX
  8
0
 10
10.878518
 20
5.418667
 42
-0.048461
  0
VERTEX
  8
0
 10
10.927560
 20
5.413902
 42
-0.068461
  0
VERTEX
  8
0
 10
10.969023
 20
5.399682
 42
-0.088645
  0
VERTEX
  8
0
 10
10.996952
 20
5.378716
 42
-0.189736
  0
VERTEX
  8
0
 10
11.006667
 20
5.354036
 42
0.379527
  0
VERTEX
  8
0
 10
11.161060
 20
5.179932
 42
0.008680
  0
VERTEX
  8
0
 10
12.352161
 20
5.057409
 42
0.016549
  0
VERTEX
  8
0
 10
13.522312
 20
4.996447
 42
0.068443
  0
VERTEX
  8
0
 10
14.224000
 20
5.079431
 42
-0.003270
  0
VERTEX
  8
0
 10
14.386932
 20
5.120662
 42
-0.002684
  0
VERTEX
  8
0
 10
14.561476
 20
5.162625
 42
-0.002711
  0
VERTEX
  8
0
 10
14.722299
 20
5.199459
 42
-0.007176
  0
VERTEX
  8
0
 10
14.837833
 20
5.223527
 42
0.029259
  0
VERTEX
  8
0
 10
14.927005
 20
5.246251
 42
0.042060
  0
VERTEX
  8
0
 10
15.002272
 20
5.277374
 42
0.049149
  0
VERTEX
  8
0
 10
15.055278
 20
5.311678
 42
0.228399
  0
VERTEX
  8
0
 10
15.070667
 20
5.343610
 42
-0.152806
  0
VERTEX
  8
0
 10
15.079624
 20
5.372234
 42
-0.098136
  0
VERTEX
  8
0
 10
15.104840
 20
5.396619
 42
-0.080837
  0
VERTEX
  8
0
 10
15.142521
 20
5.413070
 42
-0.062664
  0
VERTEX
  8
0
 10
15.187003
 20
5.418667
 42
0.121099
  0
VERTEX
  8
0
 10
15.387516
 20
5.467954
 42
0.017812
  0
VERTEX
  8
0
 10
15.753531
 20
5.676388
 42
0.020577
  0
VERTEX
  8
0
 10
16.148374
 20
5.943301
 42
0.024187
  0
VERTEX
  8
0
 10
16.498350
 20
6.228605
 42
-0.004658
  0
VERTEX
  8
0
 10
16.661401
 20
6.372478
 42
-0.007146
  0
VERTEX
  8
0
 10
16.805533
 20
6.493728
 42
-0.002985
  0
VERTEX
  8
0
 10
16.930191
 20
6.594353
 42
-0.169896
  0
VERTEX
  8
0
 10
16.957761
 20
6.604000
 42
-0.274707
  0
VERTEX
  8
0
 10
16.977063
 20
6.592530
 42
-0.022043
  0
VERTEX
  8
0
 10
17.004126
 20
6.537122
 42
-0.024873
  0
VERTEX
  8
0
 10
17.031853
 20
6.463576
 42
-0.016223
  0
VERTEX
  8
0
 10
17.056784
 20
6.376331
 42
0.034311
  0
VERTEX
  8
0
 10
17.091155
 20
6.270671
 42
0.016202
  0
VERTEX
  8
0
 10
17.149064
 20
6.139410
 42
0.015971
  0
VERTEX
  8
0
 10
17.218818
 20
6.005371
 42
0.021704
  0
VERTEX
  8
0
 10
17.290688
 20
5.889498
 42
0.039291
  0
VERTEX
  8
0
 10
17.561520
 20
5.552603
 42
0.012770
  0
VERTEX
  8
0
 10
18.011622
 20
5.098705
 42
0.011419
  0
VERTEX
  8
0
 10
18.474937
 20
4.674619
 42
0.063797
  0
VERTEX
  8
0
 10
18.753870
 20
4.487468
 42
-0.006215
  0
VERTEX
  8
0
 10
18.854154
 20
4.435771
 42
-0.007846
  0
VERTEX
  8
0
 10
18.945549
 20
4.385355
 42
-0.006398
  0
VERTEX
  8
0
 10
19.020736
 20
4.341041
 42
-0.060875
  0
VERTEX
  8
0
 10
19.050000
 20
4.318000
 42
0.086537
  0
VERTEX
  8
0
 10
19.159219
 20
4.240696
 42
0.017163
  0
VERTEX
  8
0
 10
19.379808
 20
4.145092
 42
0.017584
  0
VERTEX
  8
0
 10
19.649256
 20
4.049935
 42
0.015051
  0
VERTEX
  8
0
 10
19.939000
 20
3.968429
 42
0.049261
  0
VERTEX
  8
0
 10
20.486851
 20
3.888051
 42
0.011467
  0
VERTEX
  8
0
 10
21.417537
 20
3.865432
 42
0.011115
  0
VERTEX
  8
0
 10
22.345552
 20
3.884796
 42
0.055305
  0
VERTEX
  8
0
 10
22.860000
 20
3.964437
 42
0.026786
  0
VERTEX
  8
0
 10
23.196295
 20
4.075005
 42
0.015916
  0
VERTEX
  8
0
 10
23.584396
 20
4.240483
 42
0.009715
  0
VERTEX
  8
0
 10
23.943654
 20
4.415932
 42
0.171360
  0
VERTEX
  8
0
 10
24.031222
 20
4.508500
 42
-0.123036
  0
VERTEX
  8
0
 10
24.050221
 20
4.532825
 42
-0.059800
  0
VERTEX
  8
0
 10
24.084191
 20
4.553347
 42
-0.053970
  0
VERTEX
  8
0
 10
24.126799
 20
4.567284
 42
-0.052123
  0
VERTEX
  8
0
 10
24.171912
 20
4.572000
 42
0.195637
  0
VERTEX
  8
0
 10
24.393395
 20
4.662110
 42
0.007639
  0
VERTEX
  8
0
 10
25.026355
 20
5.298457
 42
0.014293
  0
VERTEX
  8
0
 10
25.630226
 20
5.961310
 42
0.037945
  0
VERTEX
  8
0
 10
26.009735
 20
6.477000
 42
0.016353
  0
VERTEX
  8
0
 10
26.162973
 20
6.741027
 42
0.011788
  0
VERTEX
  8
0
 10
26.317122
 20
7.044796
 42
0.011927
  0
VERTEX
  8
0
 10
26.450131
 20
7.340914
 42
0.025146
  0
VERTEX
  8
0
 10
26.536026
 20
7.577667
 42
-0.002252
  0
VERTEX
  8
0
 10
26.601116
 20
7.786418
 42
-0.002284
  0
VERTEX
  8
0
 10
26.667776
 20
7.993571
 42
-0.002221
  0
VERTEX
  8
0
 10
26.727390
 20
8.173257
 42
-0.009372
  0
VERTEX
  8
0
 10
26.765626
 20
8.280150
 42
0.057614
  0
VERTEX
  8
0
 10
26.794264
 20
8.393650
 42
0.010994
  0
VERTEX
  8
0
 10
26.817682
 20
8.605527
 42
0.011592
  0
VERTEX
  8
0
 10
26.833923
 20
8.855396
 42
0.010431
  0
VERTEX
  8
0
 10
26.839333
 20
9.114709
 42
-0.006394
  0
VERTEX
  8
0
 10
26.843726
 20
9.458225
 42
-0.045341
  0
VERTEX
  8
0
 10
26.863033
 20
9.623638
 42
-0.150600
  0
VERTEX
  8
0
 10
26.902380
 20
9.694686
 42
-0.290936
  0
VERTEX
  8
0
 10
26.963622
 20
9.707089
 42
0.066719
  0
VERTEX
  8
0
 10
27.014876
 20
9.694917
 42
0.072258
  0
VERTEX
  8
0
 10
27.066100
 20
9.697190
 42
0.081026
  0
VERTEX
  8
0
 10
27.109459
 20
9.713032
 42
0.126981
  0
VERTEX
  8
0
 10
27.137952
 20
9.740364
 42
-0.115670
  0
VERTEX
  8
0
 10
27.168929
 20
9.771435
 42
-0.049346
  0
VERTEX
  8
0
 10
27.221905
 20
9.797549
 42
-0.045267
  0
VERTEX
  8
0
 10
27.286464
 20
9.815339
 42
-0.044635
  0
VERTEX
  8
0
 10
27.353479
 20
9.821333
 42
0.035178
  0
VERTEX
  8
0
 10
27.427529
 20
9.826550
 42
0.021610
  0
VERTEX
  8
0
 10
27.513540
 20
9.842545
 42
0.021626
  0
VERTEX
  8
0
 10
27.597685
 20
9.865862
 42
0.035760
  0
VERTEX
  8
0
 10
27.665982
 20
9.893542
 42
-0.001887
  0
VERTEX
  8
0
 10
27.744452
 20
9.931717
 42
-0.000508
  0
VERTEX
  8
0
 10
27.869297
 20
9.991713
 42
-0.000514
  0
VERTEX
  8
0
 10
28.011224
 20
10.059562
 42
-0.000532
  0
VERTEX
  8
0
 10
28.151667
 20
10.126341
 42
0.062191
  0
VERTEX
  8
0
 10
28.999526
 20
10.666214
 42
0.046110
  0
VERTEX
  8
0
 10
29.787419
 20
11.450930
 42
0.044107
  0
VERTEX
  8
0
 10
30.452843
 20
12.408899
 42
0.044662
  0
VERTEX
  8
0
 10
30.936711
 20
13.464831
 42
0.016076
  0
VERTEX
  8
0
 10
30.988759
 20
13.628287
 42
0.014105
  0
VERTEX
  8
0
 10
31.032730
 20
13.802007
 42
0.014318
  0
VERTEX
  8
0
 10
31.063506
 20
13.961118
 42
0.040630
  0
VERTEX
  8
0
 10
31.072667
 20
14.073667
 42
-0.034656
  0
VERTEX
  8
0
 10
31.078910
 20
14.163633
 42
-0.039454
  0
VERTEX
  8
0
 10
31.097537
 20
14.247949
 42
-0.043215
  0
VERTEX
  8
0
 10
31.124740
 20
14.315528
 42
-0.137906
  0
VERTEX
  8
0
 10
31.157333
 20
14.351000
 42
0.247296
  0
VERTEX
  8
0
 10
31.226941
 20
14.469162
 42
0.010845
  0
VERTEX
  8
0
 10
31.239672
 20
14.962411
 42
0.018351
  0
VERTEX
  8
0
 10
31.223589
 20
15.455835
 42
0.056278
  0
VERTEX
  8
0
 10
31.163232
 20
15.784322
 42
-0.000639
  0
VERTEX
  8
0
 10
31.122865
 20
15.918187
 42
-0.000205
  0
VERTEX
  8
0
 10
31.063226
 20
16.117180
 42
-0.000204
  0
VERTEX
  8
0
 10
30.997010
 20
16.338774
 42
-0.000228
  0
VERTEX
  8
0
 10
30.933397
 20
16.552333
 42
0.013374
  0
VERTEX
  8
0
 10
30.864466
 20
16.763306
 42
0.012168
  0
VERTEX
  8
0
 10
30.782301
 20
16.977125
 42
0.012283
  0
VERTEX
  8
0
 10
30.699489
 20
17.164689
 42
0.037964
  0
VERTEX
  8
0
 10
30.631165
 20
17.285070
 42
-0.010671
  0
VERTEX
  8
0
 10
30.573274
 20
17.375234
 42
-0.013905
  0
VERTEX
  8
0
 10
30.524405
 20
17.460264
 42
-0.011514
  0
VERTEX
  8
0
 10
30.487572
 20
17.532632
 42
-0.112411
  0
VERTEX
  8
0
 10
30.480000
 20
17.565886
 42
0.182091
  0
VERTEX
  8
0
 10
30.387282
 20
17.812038
 42
0.011926
  0
VERTEX
  8
0
 10
29.863023
 20
18.381240
 42
0.016563
  0
VERTEX
  8
0
 10
29.311972
 20
18.915046
 42
0.080086
  0
VERTEX
  8
0
 10
28.947707
 20
19.151909
 42
-0.016093
  0
VERTEX
  8
0
 10
28.853571
 20
19.197255
 42
-0.023575
  0
VERTEX
  8
0
 10
28.774176
 20
19.243584
 42
-0.020629
  0
VERTEX
  8
0
 10
28.714445
 20
19.285922
 42
-0.232279
  0
VERTEX
  8
0
 10
28.702000
 20
19.311266
 42
0.279103
  0
VERTEX
  8
0
 10
28.687226
 20
19.335672
 42
0.015017
  0
VERTEX
  8
0
 10
28.602517
 20
19.376806
 42
0.019897
  0
VERTEX
  8
0
 10
28.493128
 20
19.420782
 42
0.012839
  0
VERTEX
  8
0
 10
28.363333
 20
19.463330
 42
0.000000
  0
VERTEX
  8
0
 10
28.024667
 20
19.564797
 42
0.000000
  0
VERTEX
  8
0
 10
28.024667
 20
20.292470
 42
-0.009637
  0
VERTEX
  8
0
 10
28.030767
 20
20.608937
 42
-0.007133
  0
VERTEX
  8
0
 10
28.049244
 20
20.958482
 42
-0.007214
  0
VERTEX
  8
0
 10
28.076178
 20
21.288204
 42
-0.016070
  0
VERTEX
  8
0
 10
28.108333
 20
21.537905
 42
0.002804
  0
VERTEX
  8
0
 10
28.146731
 20
21.784295
 42
0.001326
  0
VERTEX
  8
0
 10
28.193639
 20
22.102541
 42
0.001314
  0
VERTEX
  8
0
 10
28.240972
 20
22.435862
 42
0.001856
  0
VERTEX
  8
0
 10
28.281248
 20
22.733000
 42
-0.001078
  0
VERTEX
  8
0
 10
28.390720
 20
23.550210
 42
-0.010992
  0
VERTEX
  8
0
 10
28.444289
 20
23.887940
 42
-0.025027
  0
VERTEX
  8
0
 10
28.487749
 20
24.074113
 42
-0.119985
  0
VERTEX
  8
0
 10
28.541339
 20
24.168100
 42
0.086226
  0
VERTEX
  8
0
 10
28.570548
 20
24.212199
 42
0.034620
  0
VERTEX
  8
0
 10
28.595010
 20
24.280533
 42
0.032970
  0
VERTEX
  8
0
 10
28.611729
 20
24.359502
 42
0.035696
  0
VERTEX
  8
0
 10
28.617333
 20
24.437903
 42
-0.043048
  0
VERTEX
  8
0
 10
28.627019
 20
24.550198
 42
-0.006092
  0
VERTEX
  8
0
 10
28.669553
 20
24.778406
 42
-0.006905
  0
VERTEX
  8
0
 10
28.727039
 20
25.047767
 42
-0.005830
  0
VERTEX
  8
0
 10
28.795104
 20
25.331137
 42
0.001856
  0
VERTEX
  8
0
 10
28.866364
 20
25.617761
 42
0.002020
  0
VERTEX
  8
0
 10
28.933479
 20
25.896939
 42
0.001895
  0
VERTEX
  8
0
 10
28.989085
 20
26.136481
 42
0.009939
  0
VERTEX
  8
0
 10
29.016532
 20
26.268870
 42
-0.025081
  0
VERTEX
  8
0
 10
29.038751
 20
26.361793
 42
-0.028879
  0
VERTEX
  8
0
 10
29.069369
 20
26.447639
 42
-0.029892
  0
VERTEX
  8
0
 10
29.103342
 20
26.516191
 42
-0.124983
  0
VERTEX
  8
0
 10
29.135095
 20
26.549033
 42
0.120070
  0
VERTEX
  8
0
 10
29.163854
 20
26.578208
 42
0.048303
  0
VERTEX
  8
0
 10
29.187997
 20
26.629133
 42
0.044154
  0
VERTEX
  8
0
 10
29.204458
 20
26.691538
 42
0.042441
  0
VERTEX
  8
0
 10
29.210000
 20
26.756705
 42
-0.068810
  0
VERTEX
  8
0
 10
29.243830
 20
27.001358
 42
-0.012303
  0
VERTEX
  8
0
 10
29.380158
 20
27.442992
 42
-0.014103
  0
VERTEX
  8
0
 10
29.552136
 20
27.910899
 42
-0.022544
  0
VERTEX
  8
0
 10
29.727878
 20
28.298684
 42
0.023559
  0
VERTEX
  8
0
 10
29.756508
 20
28.362201
 42
0.020185
  0
VERTEX
  8
0
 10
29.780698
 20
28.431463
 42
0.020671
  0
VERTEX
  8
0
 10
29.797536
 20
28.496243
 42
0.053292
  0
VERTEX
  8
0
 10
29.802667
 20
28.544246
 42
-0.102318
  0
VERTEX
  8
0
 10
29.830671
 20
28.679663
 42
-0.005368
  0
VERTEX
  8
0
 10
30.011699
 20
29.086578
 42
-0.006643
  0
VERTEX
  8
0
 10
30.274811
 20
29.641701
 42
-0.002344
  0
VERTEX
  8
0
 10
30.666212
 20
30.430538
 42
-0.014951
  0
VERTEX
  8
0
 10
31.043193
 20
31.128589
 42
-0.008950
  0
VERTEX
  8
0
 10
31.530396
 20
31.935921
 42
-0.008754
  0
VERTEX
  8
0
 10
32.021418
 20
32.688043
 42
-0.025423
  0
VERTEX
  8
0
 10
32.395517
 20
33.183511
 42
-0.024462
  0
VERTEX
  8
0
 10
32.940093
 20
33.772225
 42
-0.016754
  0
VERTEX
  8
0
 10
33.611350
 20
34.387495
 42
-0.016807
  0
VERTEX
  8
0
 10
34.317899
 20
34.952794
 42
-0.025754
  0
VERTEX
  8
0
 10
34.969463
 20
35.388754
 42
-0.015101
  0
VERTEX
  8
0
 10
35.365768
 20
35.609385
 42
-0.005095
  0
VERTEX
  8
0
 10
35.955854
 20
35.907348
 42
-0.001738
  0
VERTEX
  8
0
 10
36.577687
 20
36.210749
 42
-0.111676
  0
VERTEX
  8
0
 10
36.694492
 20
36.237855
 42
0.067754
  0
VERTEX
  8
0
 10
36.743882
 20
36.244860
 42
0.016493
  0
VERTEX
  8
0
 10
36.822474
 20
36.269965
 42
0.016608
  0
VERTEX
  8
0
 10
36.911462
 20
36.305032
 42
0.015857
  0
VERTEX
  8
0
 10
36.999333
 20
36.346432
 42
-0.021174
  0
VERTEX
  8
0
 10
37.106728
 20
36.395643
 42
-0.007986
  0
VERTEX
  8
0
 10
37.260742
 20
36.455619
 42
-0.007894
  0
VERTEX
  8
0
 10
37.430615
 20
36.515632
 42
-0.009531
  0
VERTEX
  8
0
 10
37.592000
 20
36.566394
 42
0.004251
  0
VERTEX
  8
0
 10
37.752848
 20
36.615128
 42
0.003660
  0
VERTEX
  8
0
 10
37.921094
 20
36.669023
 42
0.003687
  0
VERTEX
  8
0
 10
38.073031
 20
36.720167
 42
0.010630
  0
VERTEX
  8
0
 10
38.177298
 20
36.758622
 42
-0.066633
  0
VERTEX
  8
0
 10
38.640154
 20
36.872639
 42
-0.012992
  0
VERTEX
  8
0
 10
39.498261
 20
36.943569
 42
-0.014635
  0
VERTEX
  8
0
 10
40.413897
 20
36.968499
 42
-0.026152
  0
VERTEX
  8
0
 10
41.165650
 20
36.927610
 42
-0.012143
  0
VERTEX
  8
0
 10
41.852524
 20
36.837171
 42
-0.032624
  0
VERTEX
  8
0
 10
42.333245
 20
36.729459
 42
-0.024384
  0
VERTEX
  8
0
 10
42.868146
 20
36.543604
 42
-0.004461
  0
VERTEX
  8
0
 10
43.836167
 20
36.143330
 42
-0.018426
  0
VERTEX
  8
0
 10
43.941578
 20
36.093980
 42
-0.026574
  0
VERTEX
  8
0
 10
44.030503
 20
36.042135
 42
-0.025002
  0
VERTEX
  8
0
 10
44.096396
 20
35.993993
 42
-0.226202
  0
VERTEX
  8
0
 10
44.111333
 20
35.962665
 42
0.182284
  0
VERTEX
  8
0
 10
44.120545
 20
35.938236
 42
0.090976
  0
VERTEX
  8
0
 10
44.146863
 20
35.917466
 42
0.070890
  0
VERTEX
  8
0
 10
44.186005
 20
35.903394
 42
0.050941
  0
VERTEX
  8
0
 10
44.232286
 20
35.898667
 42
-0.070712
  0
VERTEX
  8
0
 10
44.286708
 20
35.890931
 42
-0.037620
  0
VERTEX
  8
0
 10
44.350573
 20
35.867068
 42
-0.036539
  0
VERTEX
  8
0
 10
44.413397
 20
35.832270
 42
-0.046752
  0
VERTEX
  8
0
 10
44.465119
 20
35.791098
 42
0.022855
  0
VERTEX
  8
0
 10
44.533064
 20
35.731499
 42
0.003767
  0
VERTEX
  8
0
 10
44.670204
 20
35.623559
 42
0.004134
  0
VERTEX
  8
0
 10
44.833656
 20
35.499039
 42
0.003641
  0
VERTEX
  8
0
 10
45.006170
 20
35.371807
 42
-0.030889
  0
VERTEX
  8
0
 10
45.393477
 20
35.052186
 42
-0.009083
  0
VERTEX
  8
0
 10
45.946957
 20
34.515639
 42
-0.003528
  0
VERTEX
  8
0
 10
46.510877
 20
33.940685
 42
-0.193749
  0
VERTEX
  8
0
 10
46.566865
 20
33.802873
 42
0.143424
  0
VERTEX
  8
0
 10
46.578132
 20
33.764848
 42
0.010105
  0
VERTEX
  8
0
 10
46.640797
 20
33.671893
 42
0.013630
  0
VERTEX
  8
0
 10
46.722027
 20
33.562935
 42
0.009825
  0
VERTEX
  8
0
 10
46.818268
 20
33.445741
 42
-0.051280
  0
VERTEX
  8
0
 10
47.081245
 20
33.065215
 42
-0.006524
  0
VERTEX
  8
0
 10
47.549859
 20
32.184963
 42
-0.006216
  0
VERTEX
  8
0
 10
47.996907
 20
31.291032
 42
-0.056816
  0
VERTEX
  8
0
 10
48.140798
 20
30.881367
 42
0.024059
  0
VERTEX
  8
0
 10
48.166733
 20
30.788516
 42
0.027453
  0
VERTEX
  8
0
 10
48.200553
 20
30.702695
 42
0.028203
  0
VERTEX
  8
0
 10
48.236870
 20
30.634057
 42
0.119100
  0
VERTEX
  8
0
 10
48.269379
 20
30.601203
 42
-0.138584
  0
VERTEX
  8
0
 10
48.298366
 20
30.569573
 42
-0.042998
  0
VERTEX
  8
0
 10
48.322551
 20
30.509100
 42
-0.039271
  0
VERTEX
  8
0
 10
48.339116
 20
30.433610
 42
-0.034390
  0
VERTEX
  8
0
 10
48.344667
 20
30.353000
 42
0.038534
  0
VERTEX
  8
0
 10
48.350921
 20
30.271967
 42
0.041947
  0
VERTEX
  8
0
 10
48.369538
 20
30.195197
 42
0.046040
  0
VERTEX
  8
0
 10
48.396789
 20
30.133139
 42
0.128561
  0
VERTEX
  8
0
 10
48.429333
 20
30.099000
 42
-0.111983
  0
VERTEX
  8
0
 10
48.461810
 20
30.067089
 42
-0.050144
  0
VERTEX
  8
0
 10
48.489129
 20
30.013433
 42
-0.046179
  0
VERTEX
  8
0
 10
48.507729
 20
29.948371
 42
-0.046572
  0
VERTEX
  8
0
 10
48.514000
 20
29.881188
 42
0.039565
  0
VERTEX
  8
0
 10
48.519869
 20
29.807137
 42
0.024047
  0
VERTEX
  8
0
 10
48.537866
 20
29.721127
 42
0.024021
  0
VERTEX
  8
0
 10
48.564108
 20
29.637003
 42
0.038629
  0
VERTEX
  8
0
 10
48.595245
 20
29.568684
 42
-0.051546
  0
VERTEX
  8
0
 10
48.652718
 20
29.433447
 42
-0.011548
  0
VERTEX
  8
0
 10
48.721018
 20
29.192076
 42
-0.009043
  0
VERTEX
  8
0
 10
48.802651
 20
28.850480
 42
-0.003285
  0
VERTEX
  8
0
 10
48.906443
 20
28.363333
 42
0.013911
  0
VERTEX
  8
0
 10
48.928423
 20
28.269951
 42
0.009238
  0
VERTEX
  8
0
 10
48.958570
 20
28.164102
 42
0.009302
  0
VERTEX
  8
0
 10
48.991677
 20
28.062343
 42
0.017873
  0
VERTEX
  8
0
 10
49.022608
 20
27.982333
 42
-0.035458
  0
VERTEX
  8
0
 10
49.077747
 20
27.823303
 42
-0.016279
  0
VERTEX
  8
0
 10
49.127858
 20
27.609581
 42
-0.007240
  0
VERTEX
  8
0
 10
49.194000
 20
27.252738
 42
-0.000858
  0
VERTEX
  8
0
 10
49.327975
 20
26.458333
 42
-0.002391
  0
VERTEX
  8
0
 10
49.468417
 20
25.591264
 42
-0.005718
  0
VERTEX
  8
0
 10
49.562184
 20
24.946252
 42
-0.006691
  0
VERTEX
  8
0
 10
49.632198
 20
24.363375
 42
-0.004721
  0
VERTEX
  8
0
 10
49.695915
 20
23.706667
 42
0.002073
  0
VERTEX
  8
0
 10
49.729254
 20
23.343029
 42
0.002177
  0
VERTEX
  8
0
 10
49.765096
 20
22.985545
 42
0.002084
  0
VERTEX
  8
0
 10
49.798657
 20
22.677284
 42
0.009728
  0
VERTEX
  8
0
 10
49.822186
 20
22.500167
 42
-0.021597
  0
VERTEX
  8
0
 10
49.836232
 20
22.371036
 42
-0.045467
  0
VERTEX
  8
0
 10
49.833640
 20
22.270303
 42
-0.067635
  0
VERTEX
  8
0
 10
49.816567
 20
22.203895
 42
-0.304980
  0
VERTEX
  8
0
 10
49.785001
 20
22.182667
 42
-0.104570
  0
VERTEX
  8
0
 10
49.752313
 20
22.189579
 42
-0.099083
  0
VERTEX
  8
0
 10
49.724498
 20
22.209197
 42
-0.096550
  0
VERTEX
  8
0
 10
49.705856
 20
22.238507
 42
-0.093769
  0
VERTEX
  8
0
 10
49.699333
 20
22.272982
 42
0.158887
  0
VERTEX
  8
0
 10
49.644583
 20
22.440926
 42
0.026426
  0
VERTEX
  8
0
 10
49.427288
 20
22.707928
 42
0.029675
  0
VERTEX
  8
0
 10
49.158280
 20
22.971667
 42
0.046555
  0
VERTEX
  8
0
 10
48.895479
 20
23.160529
 42
0.030671
  0
VERTEX
  8
0
 10
48.706325
 20
23.256320
 42
0.038409
  0
VERTEX
  8
0
 10
48.520355
 20
23.320157
 42
0.037237
  0
VERTEX
  8
0
 10
48.322145
 20
23.356112
 42
0.026258
  0
VERTEX
  8
0
 10
48.095928
 20
23.368000
 42
0.021236
  0
VERTEX
  8
0
 10
47.836983
 20
23.356997
 42
0.074266
  0
VERTEX
  8
0
 10
47.674821
 20
23.318482
 42
0.077103
  0
VERTEX
  8
0
 10
47.534200
 20
23.235076
 42
0.024041
  0
VERTEX
  8
0
 10
47.352023
 20
23.069623
 42
0.000000
  0
VERTEX
  8
0
 10
47.053646
 20
22.771246
 42
0.000000
  0
VERTEX
  8
0
 10
47.091409
 20
22.051770
 42
0.012139
  0
VERTEX
  8
0
 10
47.113150
 20
21.768930
 42
0.016329
  0
VERTEX
  8
0
 10
47.147380
 20
21.514340
 42
0.013417
  0
VERTEX
  8
0
 10
47.187900
 20
21.307156
 42
0.142306
  0
VERTEX
  8
0
 10
47.228919
 20
21.232547
 42
-0.037773
  0
VERTEX
  8
0
 10
47.326236
 20
21.119300
 42
-0.449083
  0
VERTEX
  8
0
 10
47.315550
 20
21.069116
 42
-0.226806
  0
VERTEX
  8
0
 10
47.240026
 20
21.063764
 42
-0.021857
  0
VERTEX
  8
0
 10
47.067305
 20
21.140696
 42
0.090454
  0
VERTEX
  8
0
 10
46.755003
 20
21.231286
 42
0.045547
  0
VERTEX
  8
0
 10
46.343323
 20
21.235763
 42
0.045492
  0
VERTEX
  8
0
 10
45.952943
 20
21.168319
 42
0.131876
  0
VERTEX
  8
0
 10
45.717670
 20
21.032284
 42
0.125480
  0
VERTEX
  8
0
 10
45.442041
 20
20.566852
 42
0.097882
  0
VERTEX
  8
0
 10
45.389109
 20
19.979423
 42
0.088891
  0
VERTEX
  8
0
 10
45.566957
 20
19.366923
 42
0.081552
  0
VERTEX
  8
0
 10
45.950028
 20
18.833340
 42
0.009649
  0
VERTEX
  8
0
 10
46.099749
 20
18.689289
 42
0.013772
  0
VERTEX
  8
0
 10
46.238490
 20
18.567785
 42
0.009655
  0
VERTEX
  8
0
 10
46.357379
 20
18.473129
 42
0.164741
  0
VERTEX
  8
0
 10
46.404018
 20
18.457333
 42
-0.258956
  0
VERTEX
  8
0
 10
46.467611
 20
18.422030
 42
-0.307042
  0
VERTEX
  8
0
 10
46.465012
 20
18.354687
 42
-0.088595
  0
VERTEX
  8
0
 10
46.357718
 20
18.252774
 42
-0.034986
  0
VERTEX
  8
0
 10
46.179702
 20
18.152495
 42
0.047054
  0
VERTEX
  8
0
 10
45.899557
 20
17.985669
 42
0.037784
  0
VERTEX
  8
0
 10
45.632616
 20
17.757765
 42
0.038574
  0
VERTEX
  8
0
 10
45.409880
 20
17.499402
 42
0.058272
  0
VERTEX
  8
0
 10
45.262969
 20
17.241598
 42
-0.050570
  0
VERTEX
  8
0
 10
45.189909
 20
17.108686
 42
-0.014054
  0
VERTEX
  8
0
 10
45.049311
 20
16.916565
 42
-0.014036
  0
VERTEX
  8
0
 10
44.876988
 20
16.706894
 42
-0.014296
  0
VERTEX
  8
0
 10
44.694191
 20
16.508537
 42
0.010612
  0
VERTEX
  8
0
 10
44.266288
 20
16.051019
 42
0.040564
  0
VERTEX
  8
0
 10
44.030316
 20
15.740393
 42
0.029425
  0
VERTEX
  8
0
 10
43.813358
 20
15.352286
 42
0.003731
  0
VERTEX
  8
0
 10
43.401881
 20
14.486007
 42
0.103382
  0
VERTEX
  8
0
 10
43.315025
 20
14.114968
 42
0.006952
  0
VERTEX
  8
0
 10
43.304064
 20
13.020418
 42
0.004645
  0
VERTEX
  8
0
 10
43.318953
 20
11.890894
 42
0.193099
  0
VERTEX
  8
0
 10
43.412833
 20
11.671284
 42
-0.060529
  0
VERTEX
  8
0
 10
43.453366
 20
11.619547
 42
-0.039078
  0
VERTEX
  8
0
 10
43.487578
 20
11.551445
 42
-0.038949
  0
VERTEX
  8
0
 10
43.510923
 20
11.478457
 42
-0.057991
  0
VERTEX
  8
0
 10
43.518667
 20
11.411918
 42
0.037328
  0
VERTEX
  8
0
 10
43.523859
 20
11.342471
 42
0.021636
  0
VERTEX
  8
0
 10
43.539878
 20
11.260288
 42
0.021541
  0
VERTEX
  8
0
 10
43.563204
 20
11.178815
 42
0.033669
  0
VERTEX
  8
0
 10
43.590876
 20
11.111351
 42
-0.002560
  0
VERTEX
  8
0
 10
43.628924
 20
11.032871
 42
-0.000691
  0
VERTEX
  8
0
 10
43.688447
 20
10.908037
 42
-0.000699
  0
VERTEX
  8
0
 10
43.755637
 20
10.766109
 42
-0.000725
  0
VERTEX
  8
0
 10
43.821634
 20
10.625667
 42
0.018853
  0
VERTEX
  8
0
 10
44.020877
 20
10.238766
 42
0.020455
  0
VERTEX
  8
0
 10
44.243732
 20
9.878649
 42
0.020276
  0
VERTEX
  8
0
 10
44.497147
 20
9.535149
 42
0.017871
  0
VERTEX
  8
0
 10
44.788013
 20
9.198041
 42
0.028543
  0
VERTEX
  8
0
 10
45.170065
 20
8.830465
 42
0.017694
  0
VERTEX
  8
0
 10
45.656798
 20
8.441959
 42
0.012502
  0
VERTEX
  8
0
 10
46.131506
 20
8.107877
 42
0.148131
  0
VERTEX
  8
0
 10
46.344585
 20
8.043333
 42
-0.057757
  0
VERTEX
  8
0
 10
46.397143
 20
8.037242
 42
-0.076975
  0
VERTEX
  8
0
 10
46.441634
 20
8.019243
 42
-0.095831
  0
VERTEX
  8
0
 10
46.471449
 20
7.992607
 42
-0.164093
  0
VERTEX
  8
0
 10
46.482000
 20
7.961324
 42
0.206533
  0
VERTEX
  8
0
 10
46.493517
 20
7.934630
 42
0.140718
  0
VERTEX
  8
0
 10
46.523304
 20
7.919255
 42
0.091132
  0
VERTEX
  8
0
 10
46.568742
 20
7.918566
 42
0.049993
  0
VERTEX
  8
0
 10
46.622609
 20
7.933271
 42
-0.044349
  0
VERTEX
  8
0
 10
46.694605
 20
7.953800
 42
-0.344627
  0
VERTEX
  8
0
 10
46.723667
 20
7.938868
 42
-0.178274
  0
VERTEX
  8
0
 10
46.727227
 20
7.894225
 42
-0.015117
  0
VERTEX
  8
0
 10
46.692220
 20
7.782447
 42
0.069742
  0
VERTEX
  8
0
 10
46.619312
 20
7.412296
 42
0.008609
  0
VERTEX
  8
0
 10
46.587972
 20
6.588013
 42
0.004586
  0
VERTEX
  8
0
 10
46.577944
 20
5.724354
 42
0.199546
  0
VERTEX
  8
0
 10
46.646012
 20
5.559455
 42
-0.082941
  0
VERTEX
  8
0
 10
46.680559
 20
5.511053
 42
-0.037373
  0
VERTEX
  8
0
 10
46.709566
 20
5.438360
 42
-0.035672
  0
VERTEX
  8
0
 10
46.729362
 20
5.355183
 42
-0.040607
  0
VERTEX
  8
0
 10
46.736000
 20
5.273584
 42
0.032900
  0
VERTEX
  8
0
 10
46.741648
 20
5.187843
 42
0.022719
  0
VERTEX
  8
0
 10
46.758780
 20
5.092056
 42
0.022981
  0
VERTEX
  8
0
 10
46.783799
 20
5.001077
 42
0.042793
  0
VERTEX
  8
0
 10
46.813549
 20
4.930684
 42
-0.014807
  0
VERTEX
  8
0
 10
46.929391
 20
4.694368
 42
-0.010798
  0
VERTEX
  8
0
 10
47.044534
 20
4.425461
 42
-0.007564
  0
VERTEX
  8
0
 10
47.141031
 20
4.175073
 42
-0.088409
  0
VERTEX
  8
0
 10
47.159333
 20
4.072371
 42
0.089817
  0
VERTEX
  8
0
 10
47.165766
 20
4.036851
 42
0.095291
  0
VERTEX
  8
0
 10
47.184204
 20
4.006663
 42
0.099783
  0
VERTEX
  8
0
 10
47.211699
 20
3.986466
 42
0.109094
  0
VERTEX
  8
0
 10
47.244000
 20
3.979333
 42
-0.106250
  0
VERTEX
  8
0
 10
47.276304
 20
3.972390
 42
-0.099366
  0
VERTEX
  8
0
 10
47.303796
 20
3.952702
 42
-0.096093
  0
VERTEX
  8
0
 10
47.322225
 20
3.923281
 42
-0.092266
  0
VERTEX
  8
0
 10
47.328667
 20
3.888672
 42
0.157763
  0
VERTEX
  8
0
 10
47.392914
 20
3.690119
 42
0.009454
  0
VERTEX
  8
0
 10
47.775608
 20
3.181242
 42
0.015223
  0
VERTEX
  8
0
 10
48.192567
 20
2.680296
 42
0.034814
  0
VERTEX
  8
0
 10
48.542920
 20
2.336055
 42
0.023404
  0
VERTEX
  8
0
 10
48.759682
 20
2.167755
 42
0.010859
  0
VERTEX
  8
0
 10
49.055542
 20
1.968936
 42
0.010730
  0
VERTEX
  8
0
 10
49.375894
 20
1.773183
 42
0.014700
  0
VERTEX
  8
0
 10
49.672797
 20
1.611889
 42
0.013826
  0
VERTEX
  8
0
 10
50.098073
 20
1.411364
 42
0.039649
  0
VERTEX
  8
0
 10
50.406428
 20
1.304469
 42
0.034479
  0
VERTEX
  8
0
 10
50.750622
 20
1.239874
 42
0.008500
  0
VERTEX
  8
0
 10
51.323114
 20
1.182676
 42
0.007303
  0
VERTEX
  8
0
 10
51.721149
 20
1.155579
 42
0.007054
  0
VERTEX
  8
0
 10
52.124446
 20
1.139738
 42
0.006997
  0
VERTEX
  8
0
 10
52.479856
 20
1.135772
 42
0.025523
  0
VERTEX
  8
0
 10
52.705000
 20
1.147913
 42
0.026844
  0
VERTEX
  8
0
 10
53.114786
 20
1.213447
 42
0.016197
  0
VERTEX
  8
0
 10
53.592136
 20
1.332617
 42
0.007475
  0
VERTEX
  8
0
 10
54.046361
 20
1.469147
 42
0.326917
  0
VERTEX
  8
0
 10
54.102000
 20
1.545150
 42
-0.147912
  0
VERTEX
  8
0
 10
54.109326
 20
1.569372
 42
-0.098937
  0
VERTEX
  8
0
 10
54.129930
 20
1.590009
 42
-0.082522
  0
VERTEX
  8
0
 10
54.160732
 20
1.603922
 42
-0.064991
  0
VERTEX
  8
0
 10
54.197081
 20
1.608667
 42
0.166813
  0
VERTEX
  8
0
 10
54.500731
 20
1.712872
 42
0.017089
  0
VERTEX
  8
0
 10
55.092336
 20
2.206479
 42
0.020451
  0
VERTEX
  8
0
 10
55.646897
 20
2.744662
 42
0.096320
  0
VERTEX
  8
0
 10
55.884261
 20
3.117076
 42
-0.290648
  0
VERTEX
  8
0
 10
55.922537
 20
3.144966
 42
-0.171633
  0
VERTEX
  8
0
 10
55.978916
 20
3.129000
 42
-0.061623
  0
VERTEX
  8
0
 10
56.061852
 20
3.053421
 42
-0.014943
  0
VERTEX
  8
0
 10
56.178497
 20
2.908823
 42
0.030212
  0
VERTEX
  8
0
 10
56.531447
 20
2.497626
 42
0.018980
  0
VERTEX
  8
0
 10
56.989401
 20
2.059641
 42
0.013140
  0
VERTEX
  8
0
 10
57.440908
 20
1.680206
 42
0.169753
  0
VERTEX
  8
0
 10
57.645553
 20
1.608667
 42
-0.063512
  0
VERTEX
  8
0
 10
57.682707
 20
1.603928
 42
-0.081151
  0
VERTEX
  8
0
 10
57.714233
 20
1.590014
 42
-0.097904
  0
VERTEX
  8
0
 10
57.735389
 20
1.569385
 42
-0.150579
  0
VERTEX
  8
0
 10
57.742984
 20
1.545167
 42
0.257386
  0
VERTEX
  8
0
 10
57.760787
 20
1.513252
 42
0.014765
  0
VERTEX
  8
0
 10
57.861251
 20
1.454577
 42
0.019520
  0
VERTEX
  8
0
 10
57.991134
 20
1.390221
 42
0.012829
  0
VERTEX
  8
0
 10
58.145151
 20
1.325947
 42
-0.001098
  0
VERTEX
  8
0
 10
58.311419
 20
1.261096
 42
-0.001073
  0
VERTEX
  8
0
 10
58.478698
 20
1.195012
 42
-0.001056
  0
VERTEX
  8
0
 10
58.625325
 20
1.136364
 42
-0.004037
  0
VERTEX
  8
0
 10
58.716333
 20
1.098883
 42
0.082494
  0
VERTEX
  8
0
 10
59.387795
 20
0.938732
 42
0.017473
  0
VERTEX
  8
0
 10
60.594607
 20
0.896989
 42
0.014389
  0
VERTEX
  8
0
 10
61.800853
 20
0.932153
 42
0.143188
  0
VERTEX
  8
0
 10
62.272333
 20
1.100187
 42
-0.065656
  0
VERTEX
  8
0
 10
62.322281
 20
1.127195
 42
-0.014904
  0
VERTEX
  8
0
 10
62.413434
 20
1.158902
 42
-0.015183
  0
VERTEX
  8
0
 10
62.521610
 20
1.189375
 42
-0.014233
  0
VERTEX
  8
0
 10
62.633783
 20
1.213960
 42
0.050779
  0
VERTEX
  8
0
 10
62.942429
 20
1.305647
 42
0.010971
  0
VERTEX
  8
0
 10
63.453320
 20
1.529017
 42
0.009526
  0
VERTEX
  8
0
 10
63.953843
 20
1.772755
 42
0.075688
  0
VERTEX
  8
0
 10
64.162214
 20
1.922555
 42
-0.027225
  0
VERTEX
  8
0
 10
64.209978
 20
1.964443
 42
-0.029196
  0
VERTEX
  8
0
 10
64.260948
 20
1.999851
 42
-0.030477
  0
VERTEX
  8
0
 10
64.307946
 20
2.024788
 42
-0.107131
  0
VERTEX
  8
0
 10
64.341219
 20
2.032000
 42
0.207067
  0
VERTEX
  8
0
 10
64.565756
 20
2.129154
 42
0.009236
  0
VERTEX
  8
0
 10
65.145957
 20
2.770226
 42
0.013841
  0
VERTEX
  8
0
 10
65.683598
 20
3.422383
 42
0.088228
  0
VERTEX
  8
0
 10
65.883056
 20
3.800173
 42
-0.050297
  0
VERTEX
  8
0
 10
65.908090
 20
3.857726
 42
-0.276757
  0
VERTEX
  8
0
 10
65.936253
 20
3.873852
 42
-0.170534
  0
VERTEX
  8
0
 10
65.974492
 20
3.859555
 42
-0.019537
  0
VERTEX
  8
0
 10
66.043780
 20
3.796960
 42
0.103854
  0
VERTEX
  8
0
 10
66.517468
 20
3.495480
 42
0.028813
  0
VERTEX
  8
0
 10
67.362942
 20
3.231889
 42
0.028248
  0
VERTEX
  8
0
 10
68.227462
 20
3.067304
 42
0.117302
  0
VERTEX
  8
0
 10
68.752107
 20
3.120947
 42
-0.025217
  0
VERTEX
  8
0
 10
68.878212
 20
3.157893
 42
-0.015673
  0
VERTEX
  8
0
 10
69.029250
 20
3.189020
 42
-0.015716
  0
VERTEX
  8
0
 10
69.180585
 20
3.210418
 42
-0.027266
  0
VERTEX
  8
0
 10
69.307304
 20
3.217333
 42
0.028117
  0
VERTEX
  8
0
 10
69.417836
 20
3.223554
 42
0.034505
  0
VERTEX
  8
0
 10
69.519509
 20
3.242204
 42
0.036933
  0
VERTEX
  8
0
 10
69.600094
 20
3.269288
 42
0.156037
  0
VERTEX
  8
0
 10
69.638333
 20
3.302000
 42
-0.095656
  0
VERTEX
  8
0
 10
69.668201
 20
3.334429
 42
-0.052730
  0
VERTEX
  8
0
 10
69.714866
 20
3.361796
 42
-0.049876
  0
VERTEX
  8
0
 10
69.769973
 20
3.380386
 42
-0.056483
  0
VERTEX
  8
0
 10
69.825391
 20
3.386667
 42
0.113512
  0
VERTEX
  8
0
 10
70.143776
 20
3.459891
 42
0.030672
  0
VERTEX
  8
0
 10
70.597676
 20
3.715836
 42
0.028915
  0
VERTEX
  8
0
 10
71.098774
 20
4.083176
 42
0.024282
  0
VERTEX
  8
0
 10
71.585667
 20
4.526813
 42
0.016739
  0
VERTEX
  8
0
 10
72.005085
 20
4.977189
 42
0.037886
  0
VERTEX
  8
0
 10
72.283284
 20
5.350364
 42
0.033327
  0
VERTEX
  8
0
 10
72.522258
 20
5.789637
 42
0.010436
  0
VERTEX
  8
0
 10
72.821612
 20
6.477000
 42
0.056414
  0
VERTEX
  8
0
 10
72.853194
 20
6.588012
 42
0.005332
  0
VERTEX
  8
0
 10
72.896597
 20
6.868004
 42
0.006769
  0
VERTEX
  8
0
 10
72.940394
 20
7.204078
 42
0.005280
  0
VERTEX
  8
0
 10
72.979171
 20
7.570290
 42
0.024380
  0
VERTEX
  8
0
 10
73.016480
 20
8.377593
 42
0.013815
  0
VERTEX
  8
0
 10
72.986923
 20
9.356155
 42
0.007531
  0
VERTEX
  8
0
 10
72.918300
 20
10.295998
 42
0.173476
  0
VERTEX
  8
0
 10
72.807447
 20
10.536767
 42
-0.099593
  0
VERTEX
  8
0
 10
72.777103
 20
10.583438
 42
-0.032762
  0
VERTEX
  8
0
 10
72.751808
 20
10.661743
 42
-0.031137
  0
VERTEX
  8
0
 10
72.734474
 20
10.754528
 42
-0.030620
  0
VERTEX
  8
0
 10
72.728667
 20
10.849270
 42
0.029379
  0
VERTEX
  8
0
 10
72.723246
 20
10.941451
 42
0.035537
  0
VERTEX
  8
0
 10
72.707008
 20
11.026555
 42
0.038307
  0
VERTEX
  8
0
 10
72.683399
 20
11.094125
 42
0.152285
  0
VERTEX
  8
0
 10
72.654936
 20
11.126908
 42
-0.128372
  0
VERTEX
  8
0
 10
72.623270
 20
11.160100
 42
-0.027451
  0
VERTEX
  8
0
 10
72.588203
 20
11.232390
 42
-0.026993
  0
VERTEX
  8
0
 10
72.555819
 20
11.323137
 42
-0.022856
  0
VERTEX
  8
0
 10
72.531299
 20
11.422006
 42
0.043017
  0
VERTEX
  8
0
 10
72.447281
 20
11.710516
 42
0.016672
  0
VERTEX
  8
0
 10
72.284030
 20
12.093754
 42
0.015969
  0
VERTEX
  8
0
 10
72.073389
 20
12.510519
 42
0.016119
  0
VERTEX
  8
0
 10
71.837192
 20
12.911667
 42
0.033551
  0
VERTEX
  8
0
 10
71.379060
 20
13.538088
 42
0.034863
  0
VERTEX
  8
0
 10
70.846676
 20
14.089073
 42
0.035910
  0
VERTEX
  8
0
 10
70.259588
 20
14.545729
 42
0.041133
  0
VERTEX
  8
0
 10
69.638333
 20
14.890847
 42
-0.001858
  0
VERTEX
  8
0
 10
69.531038
 20
14.939868
 42
-0.001603
  0
VERTEX
  8
0
 10
69.418686
 20
14.992143
 42
-0.001613
  0
VERTEX
  8
0
 10
69.317101
 20
15.040205
 42
-0.004683
  0
VERTEX
  8
0
 10
69.247278
 20
15.074323
 42
0.064680
  0
VERTEX
  8
0
 10
69.160960
 20
15.104343
 42
0.008697
  0
VERTEX
  8
0
 10
68.971778
 20
15.140358
 42
0.009922
  0
VERTEX
  8
0
 10
68.744840
 20
15.174861
 42
0.008205
  0
VERTEX
  8
0
 10
68.501868
 20
15.202836
 42
0.000000
  0
VERTEX
  8
0
 10
67.893514
 20
15.262782
 42
0.000000
  0
VERTEX
  8
0
 10
67.440834
 20
15.949891
 42
0.020438
  0
VERTEX
  8
0
 10
66.958359
 20
16.620848
 42
0.022654
  0
VERTEX
  8
0
 10
66.438126
 20
17.226602
 42
0.024419
  0
VERTEX
  8
0
 10
65.914943
 20
17.730956
 42
0.041169
  0
VERTEX
  8
0
 10
65.424870
 20
18.092765
 42
0.005237
  0
VERTEX
  8
0
 10
65.085858
 20
18.297453
 42
0.014871
  0
VERTEX
  8
0
 10
64.843997
 20
18.430518
 42
0.014638
  0
VERTEX
  8
0
 10
64.592565
 20
18.550107
 42
0.004942
  0
VERTEX
  8
0
 10
64.219667
 20
18.709883
 42
-0.003887
  0
VERTEX
  8
0
 10
64.111646
 20
18.755898
 42
-0.003201
  0
VERTEX
  8
0
 10
63.997093
 20
18.806625
 42
-0.003232
  0
VERTEX
  8
0
 10
63.892503
 20
18.854559
 42
-0.008596
  0
VERTEX
  8
0
 10
63.818649
 20
18.890545
 42
0.043020
  0
VERTEX
  8
0
 10
63.747741
 20
18.919245
 42
0.022141
  0
VERTEX
  8
0
 10
63.654964
 20
18.943364
 42
0.021833
  0
VERTEX
  8
0
 10
63.556639
 20
18.959879
 42
0.030696
  0
VERTEX
  8
0
 10
63.467874
 20
18.965333
 42
-0.060821
  0
VERTEX
  8
0
 10
63.386133
 20
18.975313
 42
-0.060167
  0
VERTEX
  8
0
 10
63.308874
 20
19.004674
 42
-0.065703
  0
VERTEX
  8
0
 10
63.247458
 20
19.048018
 42
-0.115154
  0
VERTEX
  8
0
 10
63.212725
 20
19.099258
 42
-0.086110
  0
VERTEX
  8
0
 10
63.191813
 20
19.205355
 42
-0.000801
  0
VERTEX
  8
0
 10
63.174820
 20
20.006328
 42
-0.002680
  0
VERTEX
  8
0
 10
63.161667
 20
20.929282
 42
-0.001727
  0
VERTEX
  8
0
 10
63.155853
 20
21.999091
 42
0.004791
  0
VERTEX
  8
0
 10
63.128577
 20
24.357734
 42
0.005031
  0
VERTEX
  8
0
 10
63.056165
 20
26.677277
 42
0.004748
  0
VERTEX
  8
0
 10
62.932441
 20
29.112276
 42
0.003440
  0
VERTEX
  8
0
 10
62.750232
 20
31.821929
 42
0.006506
  0
VERTEX
  8
0
 10
62.642970
 20
33.051187
 42
0.008214
  0
VERTEX
  8
0
 10
62.510311
 20
34.184976
 42
0.007924
  0
VERTEX
  8
0
 10
62.336289
 20
35.346226
 42
0.005404
  0
VERTEX
  8
0
 10
62.103336
 20
36.660667
 42
-0.000530
  0
VERTEX
  8
0
 10
62.047940
 20
36.956429
 42
-0.000543
  0
VERTEX
  8
0
 10
61.993609
 20
37.249992
 42
-0.000526
  0
VERTEX
  8
0
 10
61.946989
 20
37.504932
 42
-0.002282
  0
VERTEX
  8
0
 10
61.920189
 20
37.656285
 42
0.021807
  0
VERTEX
  8
0
 10
61.896453
 20
37.765345
 42
0.026540
  0
VERTEX
  8
0
 10
61.864473
 20
37.864848
 42
0.026675
  0
VERTEX
  8
0
 10
61.829423
 20
37.943893
 42
0.137485
  0
VERTEX
  8
0
 10
61.797312
 20
37.978781
 42
-0.138556
  0
VERTEX
  8
0
 10
61.768316
 20
38.010418
 42
-0.043007
  0
VERTEX
  8
0
 10
61.744123
 20
38.070896
 42
-0.039279
  0
VERTEX
  8
0
 10
61.727553
 20
38.146389
 42
-0.034401
  0
VERTEX
  8
0
 10
61.722000
 20
38.227000
 42
0.033615
  0
VERTEX
  8
0
 10
61.716580
 20
38.307532
 42
0.038731
  0
VERTEX
  8
0
 10
61.700396
 20
38.382784
 42
0.042349
  0
VERTEX
  8
0
 10
61.676780
 20
38.442973
 42
0.140583
  0
VERTEX
  8
0
 10
61.648454
 20
38.474127
 42
-0.154691
  0
VERTEX
  8
0
 10
61.616706
 20
38.511044
 42
-0.021151
  0
VERTEX
  8
0
 10
61.580343
 20
38.607349
 42
-0.022666
  0
VERTEX
  8
0
 10
61.546320
 20
38.728674
 42
-0.017381
  0
VERTEX
  8
0
 10
61.519863
 20
38.863821
 42
0.012549
  0
VERTEX
  8
0
 10
61.493413
 20
39.006211
 42
0.011968
  0
VERTEX
  8
0
 10
61.459485
 20
39.149379
 42
0.011997
  0
VERTEX
  8
0
 10
61.423470
 20
39.274332
 42
0.041111
  0
VERTEX
  8
0
 10
61.391620
 20
39.352531
 42
-0.008467
  0
VERTEX
  8
0
 10
61.357512
 20
39.422775
 42
-0.003733
  0
VERTEX
  8
0
 10
61.314688
 20
39.516739
 42
-0.003693
  0
VERTEX
  8
0
 10
61.270754
 20
39.617059
 42
-0.004955
  0
VERTEX
  8
0
 10
61.232511
 20
39.708667
 42
0.002925
  0
VERTEX
  8
0
 10
61.190103
 20
39.811420
 42
0.001234
  0
VERTEX
  8
0
 10
61.131993
 20
39.948963
 42
0.001221
  0
VERTEX
  8
0
 10
61.069184
 20
40.095617
 42
0.001594
  0
VERTEX
  8
0
 10
61.010966
 20
40.229462
 42
-0.007904
  0
VERTEX
  8
0
 10
60.959027
 20
40.353117
 42
-0.010023
  0
VERTEX
  8
0
 10
60.915175
 20
40.468983
 42
-0.008266
  0
VERTEX
  8
0
 10
60.882156
 20
40.566907
 42
-0.077327
  0
VERTEX
  8
0
 10
60.875333
 20
40.610757
 42
0.099263
  0
VERTEX
  8
0
 10
60.865491
 20
40.659844
 42
0.003399
  0
VERTEX
  8
0
 10
60.788285
 20
40.841160
 42
0.006262
  0
VERTEX
  8
0
 10
60.692540
 20
41.054485
 42
0.004317
  0
VERTEX
  8
0
 10
60.579000
 20
41.293770
 42
-0.005216
  0
VERTEX
  8
0
 10
60.465475
 20
41.534139
 42
-0.007357
  0
VERTEX
  8
0
 10
60.369715
 20
41.750843
 42
-0.004570
  0
VERTEX
  8
0
 10
60.293877
 20
41.934167
 42
-0.096069
  0
VERTEX
  8
0
 10
60.282667
 20
41.991976
 42
0.070850
  0
VERTEX
  8
0
 10
60.277902
 20
42.025434
 42
0.085299
  0
VERTEX
  8
0
 10
60.264014
 20
42.053957
 42
0.098576
  0
VERTEX
  8
0
 10
60.243385
 20
42.073212
 42
0.135614
  0
VERTEX
  8
0
 10
60.219167
 20
42.080305
 42
-0.235009
  0
VERTEX
  8
0
 10
60.186492
 20
42.097188
 42
-0.015819
  0
VERTEX
  8
0
 10
60.125379
 20
42.186406
 42
-0.020071
  0
VERTEX
  8
0
 10
60.057505
 20
42.302565
 42
-0.013506
  0
VERTEX
  8
0
 10
59.989059
 20
42.440138
 42
0.013951
  0
VERTEX
  8
0
 10
59.905529
 20
42.607655
 42
0.006733
  0
VERTEX
  8
0
 10
59.789761
 20
42.817607
 42
0.006670
  0
VERTEX
  8
0
 10
59.663134
 20
43.033365
 42
0.009512
  0
VERTEX
  8
0
 10
59.544559
 20
43.221203
 42
-0.014603
  0
VERTEX
  8
0
 10
59.438166
 20
43.393605
 42
-0.017337
  0
VERTEX
  8
0
 10
59.348297
 20
43.562484
 42
-0.016314
  0
VERTEX
  8
0
 10
59.282725
 20
43.708636
 42
-0.097587
  0
VERTEX
  8
0
 10
59.266667
 20
43.790128
 42
0.101711
  0
VERTEX
  8
0
 10
59.234621
 20
43.946030
 42
0.016905
  0
VERTEX
  8
0
 10
59.103711
 20
44.224638
 42
0.019613
  0
VERTEX
  8
0
 10
58.945798
 20
44.505439
 42
0.042710
  0
VERTEX
  8
0
 10
58.798923
 20
44.704000
 42
-0.163430
  0
VERTEX
  8
0
 10
58.771601
 20
44.768941
 42
-0.346289
  0
VERTEX
  8
0
 10
58.800247
 20
44.811497
 42
-0.066321
  0
VERTEX
  8
0
 10
58.919968
 20
44.833176
 42
-0.005571
  0
VERTEX
  8
0
 10
59.234751
 20
44.844372
 42
0.034656
  0
VERTEX
  8
0
 10
59.684184
 20
44.886604
 42
0.062483
  0
VERTEX
  8
0
 10
60.038418
 20
44.991455
 42
0.065069
  0
VERTEX
  8
0
 10
60.346199
 20
45.177011
 42
0.040921
  0
VERTEX
  8
0
 10
60.652703
 20
45.465014
 42
0.021475
  0
VERTEX
  8
0
 10
60.823049
 20
45.670667
 42
0.070280
  0
VERTEX
  8
0
 10
60.908811
 20
45.824532
 42
0.070481
  0
VERTEX
  8
0
 10
60.948472
 20
45.995896
 42
0.021681
  0
VERTEX
  8
0
 10
60.960000
 20
46.261623
 42
0.019961
  0
VERTEX
  8
0
 10
60.949825
 20
46.516402
 42
0.062890
  0
VERTEX
  8
0
 10
60.915001
 20
46.683514
 42
0.072403
  0
VERTEX
  8
0
 10
60.842814
 20
46.823670
 42
0.032810
  0
VERTEX
  8
0
 10
60.711775
 20
46.983817
 42
0.041731
  0
VERTEX
  8
0
 10
60.577454
 20
47.105489
 42
0.037909
  0
VERTEX
  8
0
 10
60.420572
 20
47.207563
 42
0.036124
  0
VERTEX
  8
0
 10
60.242524
 20
47.288967
 42
0.030858
  0
VERTEX
  8
0
 10
60.045053
 20
47.348954
 42
0.000000
  0
VERTEX
  8
0
 10
59.626556
 20
47.448365
 42
0.000000
  0
VERTEX
  8
0
 10
60.050083
 20
47.748349
 42
0.047784
  0
VERTEX
  8
0
 10
60.349208
 20
48.006377
 42
0.038152
  0
VERTEX
  8
0
 10
60.619520
 20
48.335725
 42
0.039171
  0
VERTEX
  8
0
 10
60.815637
 20
48.668385
 42
0.114090
  0
VERTEX
  8
0
 10
60.875333
 20
48.926598
 42
0.093109
  0
VERTEX
  8
0
 10
60.834505
 20
49.143949
 42
0.045633
  0
VERTEX
  8
0
 10
60.708332
 20
49.396976
 42
0.043133
  0
VERTEX
  8
0
 10
60.524367
 20
49.644068
 42
0.048287
  0
VERTEX
  8
0
 10
60.306967
 20
49.845828
 42
0.033944
  0
VERTEX
  8
0
 10
60.119065
 20
49.969943
 42
0.068529
  0
VERTEX
  8
0
 10
59.954537
 20
50.035473
 42
0.051151
  0
VERTEX
  8
0
 10
59.749129
 20
50.064415
 42
0.012169
  0
VERTEX
  8
0
 10
59.403341
 20
50.069058
 42
0.031200
  0
VERTEX
  8
0
 10
58.983800
 20
50.038254
 42
0.036224
  0
VERTEX
  8
0
 10
58.592276
 20
49.955587
 42
0.038965
  0
VERTEX
  8
0
 10
58.279443
 20
49.838410
 42
0.146264
  0
VERTEX
  8
0
 10
58.124459
 20
49.700616
 42
-0.205254
  0
VERTEX
  8
0
 10
58.036982
 20
49.639172
 42
-0.373418
  0
VERTEX
  8
0
 10
57.965771
 20
49.678754
 42
-0.073680
  0
VERTEX
  8
0
 10
57.922799
 20
49.888993
 42
-0.013633
  0
VERTEX
  8
0
 10
57.912000
 20
50.284981
 42
0.044637
  0
VERTEX
  8
0
 10
57.847168
 20
51.009752
 42
0.088397
  0
VERTEX
  8
0
 10
57.647293
 20
51.549313
 42
0.107854
  0
VERTEX
  8
0
 10
57.306451
 20
51.918143
 42
0.093048
  0
VERTEX
  8
0
 10
56.824867
 20
52.135739
 42
0.056386
  0
VERTEX
  8
0
 10
56.500118
 20
52.176929
 42
0.077466
  0
VERTEX
  8
0
 10
56.209156
 20
52.135596
 42
0.073662
  0
VERTEX
  8
0
 10
55.933948
 20
52.005093
 42
0.045752
  0
VERTEX
  8
0
 10
55.655779
 20
51.779553
 42
0.045025
  0
VERTEX
  8
0
 10
55.411603
 20
51.494362
 42
0.028260
  0
VERTEX
  8
0
 10
55.177644
 20
51.122497
 42
0.027302
  0
VERTEX
  8
0
 10
54.999522
 20
50.754214
 42
0.099298
  0
VERTEX
  8
0
 10
54.948667
 20
50.500662
 42
-0.070671
  0
VERTEX
  8
0
 10
54.926142
 20
50.342094
 42
-0.427083
  0
VERTEX
  8
0
 10
54.860179
 20
50.307642
 42
-0.148605
  0
VERTEX
  8
0
 10
54.753319
 20
50.384092
 42
-0.017536
  0
VERTEX
  8
0
 10
54.581654
 20
50.624717
 42
0.075460
  0
VERTEX
  8
0
 10
54.132810
 20
51.121008
 42
0.097017
  0
VERTEX
  8
0
 10
53.591514
 20
51.410769
 42
0.107766
  0
VERTEX
  8
0
 10
53.025940
 20
51.458028
 42
0.113804
  0
VERTEX
  8
0
 10
52.504347
 20
51.262906
 42
0.044461
  0
VERTEX
  8
0
 10
52.251743
 20
51.061349
 42
0.070802
  0
VERTEX
  8
0
 10
52.081023
 20
50.844571
 42
0.074236
  0
VERTEX
  8
0
 10
51.982695
 20
50.596611
 42
0.054288
  0
VERTEX
  8
0
 10
51.946934
 20
50.302163
 42
-0.011045
  0
VERTEX
  8
0
 10
51.939906
 20
50.098380
 42
-0.188018
  0
VERTEX
  8
0
 10
51.912559
 20
50.038476
 42
-0.266500
  0
VERTEX
  8
0
 10
51.856980
 20
50.024288
 42
-0.022229
  0
VERTEX
  8
0
 10
51.710167
 20
50.072191
 42
-0.023264
  0
VERTEX
  8
0
 10
51.620991
 20
50.110566
 42
-0.032658
  0
VERTEX
  8
0
 10
51.545728
 20
50.153477
 42
-0.034130
  0
VERTEX
  8
0
 10
51.491349
 20
50.194963
 42
-0.215981
  0
VERTEX
  8
0
 10
51.477333
 20
50.225895
 42
0.186221
  0
VERTEX
  8
0
 10
51.467596
 20
50.251133
 42
0.089767
  0
VERTEX
  8
0
 10
51.439690
 20
50.272582
 42
0.069602
  0
VERTEX
  8
0
 10
51.398223
 20
50.287122
 42
0.049611
  0
VERTEX
  8
0
 10
51.349184
 20
50.292000
 42
-0.045977
  0
VERTEX
  8
0
 10
51.289579
 20
50.297492
 42
-0.022734
  0
VERTEX
  8
0
 10
51.215493
 20
50.314780
 42
-0.022347
  0
VERTEX
  8
0
 10
51.139684
 20
50.339851
 42
-0.030338
  0
VERTEX
  8
0
 10
51.074018
 20
50.369549
 42
0.015159
  0
VERTEX
  8
0
 10
50.817234
 20
50.495200
 42
0.014080
  0
VERTEX
  8
0
 10
50.546966
 20
50.608386
 42
0.012296
  0
VERTEX
  8
0
 10
50.305416
 20
50.694879
 42
0.079985
  0
VERTEX
  8
0
 10
50.178368
 20
50.715333
 42
-0.058224
  0
VERTEX
  8
0
 10
50.124616
 20
50.721614
 42
-0.050373
  0
VERTEX
  8
0
 10
50.070920
 20
50.740204
 42
-0.052970
  0
VERTEX
  8
0
 10
50.025234
 20
50.767577
 42
-0.093165
  0
VERTEX
  8
0
 10
49.995667
 20
50.800000
 42
0.130646
  0
VERTEX
  8
0
 10
49.961236
 20
50.832555
 42
0.045439
  0
VERTEX
  8
0
 10
49.898002
 20
50.859796
 42
0.041396
  0
VERTEX
  8
0
 10
49.819616
 20
50.878415
 42
0.037634
  0
VERTEX
  8
0
 10
49.736670
 20
50.884667
 42
-0.039081
  0
VERTEX
  8
0
 10
49.657532
 20
50.890862
 42
-0.058208
  0
VERTEX
  8
0
 10
49.590709
 20
50.909538
 42
-0.076538
  0
VERTEX
  8
0
 10
49.545187
 20
50.936924
 42
-0.222681
  0
VERTEX
  8
0
 10
49.530000
 20
50.969333
 42
0.167676
  0
VERTEX
  8
0
 10
49.518855
 20
51.001634
 42
0.094979
  0
VERTEX
  8
0
 10
49.487308
 20
51.029129
 42
0.075761
  0
VERTEX
  8
0
 10
49.440256
 20
51.047718
 42
0.056317
  0
VERTEX
  8
0
 10
49.384664
 20
51.054000
 42
-0.047768
  0
VERTEX
  8
0
 10
49.306910
 20
51.061445
 42
-0.011836
  0
VERTEX
  8
0
 10
49.181706
 20
51.088734
 42
-0.011998
  0
VERTEX
  8
0
 10
49.039233
 20
51.126981
 42
-0.011768
  0
VERTEX
  8
0
 10
48.897831
 20
51.172245
 42
0.005760
  0
VERTEX
  8
0
 10
48.739647
 20
51.224984
 42
0.003157
  0
VERTEX
  8
0
 10
48.544729
 20
51.286130
 42
0.003146
  0
VERTEX
  8
0
 10
48.346018
 20
51.345726
 42
0.005016
  0
VERTEX
  8
0
 10
48.175333
 20
51.393894
 42
-0.002942
  0
VERTEX
  8
0
 10
48.020155
 20
51.436992
 42
-0.003147
  0
VERTEX
  8
0
 10
47.868946
 20
51.480978
 42
-0.002985
  0
VERTEX
  8
0
 10
47.739454
 20
51.520374
 42
-0.014739
  0
VERTEX
  8
0
 10
47.667333
 20
51.545141
 42
0.024073
  0
VERTEX
  8
0
 10
47.590141
 20
51.570049
 42
0.003393
  0
VERTEX
  8
0
 10
47.428415
 20
51.612589
 42
0.003864
  0
VERTEX
  8
0
 10
47.236141
 20
51.660190
 42
0.003279
  0
VERTEX
  8
0
 10
47.032333
 20
51.707567
 42
-0.000067
  0
VERTEX
  8
0
 10
46.811521
 20
51.757404
 42
-0.000050
  0
VERTEX
  8
0
 10
46.567857
 20
51.812459
 42
-0.000051
  0
VERTEX
  8
0
 10
46.338115
 20
51.864417
 42
-0.000115
  0
VERTEX
  8
0
 10
46.164500
 20
51.903742
 42
0.000156
  0
VERTEX
  8
0
 10
45.997809
 20
51.941484
 42
0.000084
  0
VERTEX
  8
0
 10
45.792231
 20
51.987928
 42
0.000083
  0
VERTEX
  8
0
 10
45.582637
 20
52.035205
 42
0.000131
  0
VERTEX
  8
0
 10
45.402500
 20
52.075757
 42
0.012957
  0
VERTEX
  8
0
 10
45.020330
 20
52.151338
 42
0.003244
  0
VERTEX
  8
0
 10
44.392918
 20
52.254424
 42
0.002960
  0
VERTEX
  8
0
 10
43.604499
 20
52.373936
 42
0.001805
  0
VERTEX
  8
0
 10
42.672000
 20
52.506210
 42
0.028306
  0
VERTEX
  8
0
 10
41.795240
 20
52.577120
 42
0.001849
  0
VERTEX
  8
0
 10
39.248048
 20
52.629113
 42
0.000359
  0
VERTEX
  8
0
 10
36.451127
 20
52.673849
 42
0.202885
  0
SEQEND
  0
ENDSEC
  0
EOF
