999
DXF data, created by potrace 1.16, written by Peter Selinger 2001-2019
  0
SECTION
  2
HEADER
  9
$ACADVER
  1
AC1006
  9
$EXTMIN
 10
0.000000
 20
0.000000
 30
0.000000
  9
$EXTMAX
 10
40.978667
 20
65.955333
 30
0.000000
  0
ENDSEC
  0
SECTION
  2
ENTITIES
  0
POLYLINE
  8
0
 66
1
 70
1
  0
VERTEX
  8
0
 10
31.992351
 20
65.068795
 42
-0.153925
  0
VERTEX
  8
0
 10
31.948370
 20
65.045902
 42
-0.003853
  0
VERTEX
  8
0
 10
31.723111
 20
65.007979
 42
-0.007929
  0
VERTEX
  8
0
 10
31.455284
 20
64.969355
 42
-0.005279
  0
VERTEX
  8
0
 10
31.147236
 20
64.933207
 42
0.005572
  0
VERTEX
  8
0
 10
30.827635
 20
64.895514
 42
0.006444
  0
VERTEX
  8
0
 10
30.524130
 20
64.852301
 42
0.005811
  0
VERTEX
  8
0
 10
30.268293
 20
64.809454
 42
0.037346
  0
VERTEX
  8
0
 10
30.141333
 20
64.776735
 42
-0.004721
  0
VERTEX
  8
0
 10
30.034173
 20
64.741528
 42
-0.001665
  0
VERTEX
  8
0
 10
29.879925
 20
64.693024
 42
-0.001653
  0
VERTEX
  8
0
 10
29.710054
 20
64.640844
 42
-0.001940
  0
VERTEX
  8
0
 10
29.548667
 20
64.592536
 42
0.034869
  0
VERTEX
  8
0
 10
29.025899
 20
64.397749
 42
0.028415
  0
VERTEX
  8
0
 10
28.496831
 20
64.120157
 42
0.028747
  0
VERTEX
  8
0
 10
28.010417
 20
63.789175
 42
0.039123
  0
VERTEX
  8
0
 10
27.616223
 20
63.434145
 42
0.040144
  0
VERTEX
  8
0
 10
27.125545
 20
62.826338
 42
0.084615
  0
VERTEX
  8
0
 10
26.873531
 20
62.276977
 42
0.049934
  0
VERTEX
  8
0
 10
26.748319
 20
61.508346
 42
0.007024
  0
VERTEX
  8
0
 10
26.671702
 20
59.901667
 42
-0.003277
  0
VERTEX
  8
0
 10
26.611608
 20
58.405950
 42
-0.002526
  0
VERTEX
  8
0
 10
26.527119
 20
56.775133
 42
-0.002024
  0
VERTEX
  8
0
 10
26.437192
 20
55.299398
 42
-0.015592
  0
VERTEX
  8
0
 10
26.370741
 20
54.610000
 42
0.003015
  0
VERTEX
  8
0
 10
26.346439
 20
54.410542
 42
0.000890
  0
VERTEX
  8
0
 10
26.311590
 20
54.104646
 42
0.000893
  0
VERTEX
  8
0
 10
26.273632
 20
53.760553
 42
0.000961
  0
VERTEX
  8
0
 10
26.237839
 20
53.424667
 42
-0.000289
  0
VERTEX
  8
0
 10
26.199938
 20
53.064394
 42
-0.000184
  0
VERTEX
  8
0
 10
26.155437
 20
52.645204
 42
-0.000185
  0
VERTEX
  8
0
 10
26.111483
 20
52.234049
 42
-0.000344
  0
VERTEX
  8
0
 10
26.075486
 20
51.900667
 42
0.000105
  0
VERTEX
  8
0
 10
26.036418
 20
51.540448
 42
0.000038
  0
VERTEX
  8
0
 10
25.981395
 20
51.031775
 42
0.000038
  0
VERTEX
  8
0
 10
25.921375
 20
50.476104
 42
0.000046
  0
VERTEX
  8
0
 10
25.864997
 20
49.953333
 42
-0.001073
  0
VERTEX
  8
0
 10
25.808553
 20
49.439847
 42
-0.000988
  0
VERTEX
  8
0
 10
25.748350
 20
48.912198
 42
-0.000986
  0
VERTEX
  8
0
 10
25.692822
 20
48.442000
 42
-0.003270
  0
VERTEX
  8
0
 10
25.653660
 20
48.133000
 42
-0.000566
  0
VERTEX
  8
0
 10
25.409036
 20
46.314752
 42
-0.004343
  0
VERTEX
  8
0
 10
25.285873
 20
45.462694
 42
-0.006424
  0
VERTEX
  8
0
 10
25.201683
 20
44.957356
 42
-0.075136
  0
VERTEX
  8
0
 10
25.137483
 20
44.768649
 42
0.059951
  0
VERTEX
  8
0
 10
25.108127
 20
44.690220
 42
0.019673
  0
VERTEX
  8
0
 10
25.083702
 20
44.569142
 42
0.019280
  0
VERTEX
  8
0
 10
25.066932
 20
44.431408
 42
0.020654
  0
VERTEX
  8
0
 10
25.061333
 20
44.295927
 42
-0.017975
  0
VERTEX
  8
0
 10
25.056682
 20
44.166581
 42
-0.022482
  0
VERTEX
  8
0
 10
25.042680
 20
44.047300
 42
-0.021478
  0
VERTEX
  8
0
 10
25.022546
 20
43.950344
 42
-0.135619
  0
VERTEX
  8
0
 10
24.997833
 20
43.906911
 42
0.130438
  0
VERTEX
  8
0
 10
24.968614
 20
43.856752
 42
0.007615
  0
VERTEX
  8
0
 10
24.923955
 20
43.683902
 42
0.011121
  0
VERTEX
  8
0
 10
24.877984
 20
43.473759
 42
0.007930
  0
VERTEX
  8
0
 10
24.835504
 20
43.236634
 42
-0.004760
  0
VERTEX
  8
0
 10
24.790574
 20
42.976343
 42
-0.003778
  0
VERTEX
  8
0
 10
24.737247
 20
42.696044
 42
-0.003820
  0
VERTEX
  8
0
 10
24.683848
 20
42.436880
 42
-0.009540
  0
VERTEX
  8
0
 10
24.639794
 20
42.248667
 42
0.003517
  0
VERTEX
  8
0
 10
24.599203
 20
42.084199
 42
0.002744
  0
VERTEX
  8
0
 10
24.557343
 20
41.904973
 42
0.002774
  0
VERTEX
  8
0
 10
24.520193
 20
41.737593
 42
0.006750
  0
VERTEX
  8
0
 10
24.495154
 20
41.613667
 42
-0.015874
  0
VERTEX
  8
0
 10
24.472279
 20
41.510216
 42
-0.016330
  0
VERTEX
  8
0
 10
24.443072
 20
41.409408
 42
-0.016283
  0
VERTEX
  8
0
 10
24.412121
 20
41.323884
 42
-0.064057
  0
VERTEX
  8
0
 10
24.384922
 20
41.275000
 42
0.083479
  0
VERTEX
  8
0
 10
24.357359
 20
41.220618
 42
0.012735
  0
VERTEX
  8
0
 10
24.323992
 20
41.103285
 42
0.013947
  0
VERTEX
  8
0
 10
24.291714
 20
40.961413
 42
0.011682
  0
VERTEX
  8
0
 10
24.265225
 20
40.809333
 42
-0.016358
  0
VERTEX
  8
0
 10
24.208390
 20
40.500153
 42
-0.014866
  0
VERTEX
  8
0
 10
24.129906
 20
40.185228
 42
-0.015454
  0
VERTEX
  8
0
 10
24.040353
 20
39.900648
 42
-0.033016
  0
VERTEX
  8
0
 10
23.950273
 20
39.688649
 42
0.043450
  0
VERTEX
  8
0
 10
23.921766
 20
39.617474
 42
0.021946
  0
VERTEX
  8
0
 10
23.897818
 20
39.523771
 42
0.021617
  0
VERTEX
  8
0
 10
23.881421
 20
39.424136
 42
0.029980
  0
VERTEX
  8
0
 10
23.876000
 20
39.333812
 42
-0.037432
  0
VERTEX
  8
0
 10
23.869749
 20
39.250427
 42
-0.041270
  0
VERTEX
  8
0
 10
23.851129
 20
39.171669
 42
-0.045300
  0
VERTEX
  8
0
 10
23.823891
 20
39.108164
 42
-0.131119
  0
VERTEX
  8
0
 10
23.791333
 20
39.073667
 42
0.105730
  0
VERTEX
  8
0
 10
23.758877
 20
39.042555
 42
0.051328
  0
VERTEX
  8
0
 10
23.731537
 20
38.991703
 42
0.047670
  0
VERTEX
  8
0
 10
23.712943
 20
38.930612
 42
0.050092
  0
VERTEX
  8
0
 10
23.706667
 20
38.868123
 42
-0.073184
  0
VERTEX
  8
0
 10
23.673592
 20
38.643365
 42
-0.001812
  0
VERTEX
  8
0
 10
23.369749
 20
37.646445
 42
-0.002504
  0
VERTEX
  8
0
 10
23.065178
 20
36.677221
 42
-0.047931
  0
VERTEX
  8
0
 10
22.940518
 20
36.386649
 42
0.040628
  0
VERTEX
  8
0
 10
22.909649
 20
36.317496
 42
0.023869
  0
VERTEX
  8
0
 10
22.883652
 20
36.230666
 42
0.023767
  0
VERTEX
  8
0
 10
22.865839
 20
36.140784
 42
0.037048
  0
VERTEX
  8
0
 10
22.860000
 20
36.062093
 42
-0.198084
  0
VERTEX
  8
0
 10
22.815665
 20
35.954575
 42
-0.439446
  0
VERTEX
  8
0
 10
22.736829
 20
35.957691
 42
-0.066216
  0
VERTEX
  8
0
 10
22.599530
 20
36.171439
 42
-0.014035
  0
VERTEX
  8
0
 10
22.422382
 20
36.578276
 42
0.000169
  0
VERTEX
  8
0
 10
22.171991
 20
37.199866
 42
0.001857
  0
VERTEX
  8
0
 10
22.070537
 20
37.448810
 42
0.003780
  0
VERTEX
  8
0
 10
21.994005
 20
37.630705
 42
0.001911
  0
VERTEX
  8
0
 10
21.894966
 20
37.858796
 42
-0.012736
  0
VERTEX
  8
0
 10
21.843045
 20
37.985832
 42
-0.013837
  0
VERTEX
  8
0
 10
21.799175
 20
38.111909
 42
-0.013406
  0
VERTEX
  8
0
 10
21.767587
 20
38.221609
 42
-0.063475
  0
VERTEX
  8
0
 10
21.759333
 20
38.286362
 42
0.049824
  0
VERTEX
  8
0
 10
21.754215
 20
38.337600
 42
0.034781
  0
VERTEX
  8
0
 10
21.738787
 20
38.393636
 42
0.035191
  0
VERTEX
  8
0
 10
21.716192
 20
38.445829
 42
0.059284
  0
VERTEX
  8
0
 10
21.689389
 20
38.485233
 42
-0.073120
  0
VERTEX
  8
0
 10
21.655744
 20
38.537748
 42
-0.010819
  0
VERTEX
  8
0
 10
21.606315
 20
38.653958
 42
-0.011999
  0
VERTEX
  8
0
 10
21.553823
 20
38.794897
 42
-0.010065
  0
VERTEX
  8
0
 10
21.504804
 20
38.946667
 42
0.007512
  0
VERTEX
  8
0
 10
21.456542
 20
39.098748
 42
0.008950
  0
VERTEX
  8
0
 10
21.406321
 20
39.240619
 42
0.007925
  0
VERTEX
  8
0
 10
21.360069
 20
39.358479
 42
0.056022
  0
VERTEX
  8
0
 10
21.330526
 20
39.412333
 42
-0.063357
  0
VERTEX
  8
0
 10
21.303644
 20
39.463082
 42
-0.012955
  0
VERTEX
  8
0
 10
21.270227
 20
39.559177
 42
-0.013450
  0
VERTEX
  8
0
 10
21.237071
 20
39.673675
 42
-0.012272
  0
VERTEX
  8
0
 10
21.209000
 20
39.793333
 42
0.012483
  0
VERTEX
  8
0
 10
21.180876
 20
39.912991
 42
0.013670
  0
VERTEX
  8
0
 10
21.147561
 20
40.027490
 42
0.013185
  0
VERTEX
  8
0
 10
21.113916
 20
40.123560
 42
0.064123
  0
VERTEX
  8
0
 10
21.086750
 20
40.174333
 42
-0.068002
  0
VERTEX
  8
0
 10
21.053894
 20
40.236897
 42
-0.003322
  0
VERTEX
  8
0
 10
20.975411
 20
40.457967
 42
-0.005342
  0
VERTEX
  8
0
 10
20.886485
 20
40.722929
 42
-0.003826
  0
VERTEX
  8
0
 10
20.792490
 20
41.021000
 42
0.001761
  0
VERTEX
  8
0
 10
20.697951
 20
41.325173
 42
0.002153
  0
VERTEX
  8
0
 10
20.607324
 20
41.608904
 42
0.001798
  0
VERTEX
  8
0
 10
20.529244
 20
41.846850
 42
0.015313
  0
VERTEX
  8
0
 10
20.490585
 20
41.952333
 42
-0.020346
  0
VERTEX
  8
0
 10
20.365807
 20
42.303705
 42
-0.004601
  0
VERTEX
  8
0
 10
20.183860
 20
42.910456
 42
-0.002418
  0
VERTEX
  8
0
 10
20.004387
 20
43.540997
 42
-0.068222
  0
VERTEX
  8
0
 10
19.981333
 20
43.709174
 42
0.049198
  0
VERTEX
  8
0
 10
19.975782
 20
43.765459
 42
0.047311
  0
VERTEX
  8
0
 10
19.959330
 20
43.820352
 42
0.051058
  0
VERTEX
  8
0
 10
19.935146
 20
43.865937
 42
0.107267
  0
VERTEX
  8
0
 10
19.906428
 20
43.893634
 42
-0.124110
  0
VERTEX
  8
0
 10
19.874579
 20
43.926462
 42
-0.029603
  0
VERTEX
  8
0
 10
19.840256
 20
43.995028
 42
-0.028638
  0
VERTEX
  8
0
 10
19.809146
 20
44.080873
 42
-0.024901
  0
VERTEX
  8
0
 10
19.786345
 20
44.173797
 42
0.010314
  0
VERTEX
  8
0
 10
19.684028
 20
44.650441
 42
0.006405
  0
VERTEX
  8
0
 10
19.545300
 20
45.205561
 42
0.005852
  0
VERTEX
  8
0
 10
19.403242
 20
45.720046
 42
0.026006
  0
VERTEX
  8
0
 10
19.300727
 20
46.016333
 42
-0.017902
  0
VERTEX
  8
0
 10
19.270587
 20
46.099079
 42
-0.007870
  0
VERTEX
  8
0
 10
19.236382
 20
46.210538
 42
-0.007777
  0
VERTEX
  8
0
 10
19.203766
 20
46.330028
 42
-0.010340
  0
VERTEX
  8
0
 10
19.178067
 20
46.439667
 42
-0.000385
  0
VERTEX
  8
0
 10
19.150554
 20
46.569519
 42
-0.000128
  0
VERTEX
  8
0
 10
19.110385
 20
46.760066
 42
-0.000127
  0
VERTEX
  8
0
 10
19.065970
 20
46.971295
 42
-0.000145
  0
VERTEX
  8
0
 10
19.023523
 20
47.173707
 42
0.009282
  0
VERTEX
  8
0
 10
18.980389
 20
47.362180
 42
0.012417
  0
VERTEX
  8
0
 10
18.933875
 20
47.531312
 42
0.009647
  0
VERTEX
  8
0
 10
18.889208
 20
47.669561
 42
0.114414
  0
VERTEX
  8
0
 10
18.859500
 20
47.716985
 42
-0.105767
  0
VERTEX
  8
0
 10
18.835019
 20
47.754620
 42
-0.032045
  0
VERTEX
  8
0
 10
18.814653
 20
47.820016
 42
-0.030514
  0
VERTEX
  8
0
 10
18.800679
 20
47.898220
 42
-0.028962
  0
VERTEX
  8
0
 10
18.796000
 20
47.978927
 42
0.032272
  0
VERTEX
  8
0
 10
18.790390
 20
48.065752
 42
0.022519
  0
VERTEX
  8
0
 10
18.773386
 20
48.162448
 42
0.022800
  0
VERTEX
  8
0
 10
18.748551
 20
48.254069
 42
0.043050
  0
VERTEX
  8
0
 10
18.719015
 20
48.324649
 42
-0.058882
  0
VERTEX
  8
0
 10
18.636702
 20
48.540218
 42
-0.006125
  0
VERTEX
  8
0
 10
18.510316
 20
49.068388
 42
-0.006674
  0
VERTEX
  8
0
 10
18.397932
 20
49.597541
 42
-0.049021
  0
VERTEX
  8
0
 10
18.372667
 20
49.854617
 42
0.039820
  0
VERTEX
  8
0
 10
18.367100
 20
49.924400
 42
0.042706
  0
VERTEX
  8
0
 10
18.350544
 20
49.990746
 42
0.046846
  0
VERTEX
  8
0
 10
18.326292
 20
50.044542
 42
0.125671
  0
VERTEX
  8
0
 10
18.297355
 20
50.074552
 42
-0.138142
  0
VERTEX
  8
0
 10
18.265317
 20
50.109451
 42
-0.026846
  0
VERTEX
  8
0
 10
18.230547
 20
50.188485
 42
-0.026683
  0
VERTEX
  8
0
 10
18.198956
 20
50.287989
 42
-0.021907
  0
VERTEX
  8
0
 10
18.175681
 20
50.397049
 42
0.008448
  0
VERTEX
  8
0
 10
18.124648
 20
50.672266
 42
0.001600
  0
VERTEX
  8
0
 10
18.021518
 20
51.172178
 42
0.001748
  0
VERTEX
  8
0
 10
17.899908
 20
51.742349
 42
0.001832
  0
VERTEX
  8
0
 10
17.776162
 20
52.302833
 42
-0.001098
  0
VERTEX
  8
0
 10
17.648501
 20
52.877051
 42
-0.002626
  0
VERTEX
  8
0
 10
17.556940
 20
53.303871
 42
-0.003019
  0
VERTEX
  8
0
 10
17.477776
 20
53.694345
 42
-0.001990
  0
VERTEX
  8
0
 10
17.391231
 20
54.144333
 42
-0.001554
  0
VERTEX
  8
0
 10
17.339240
 20
54.425387
 42
-0.001506
  0
VERTEX
  8
0
 10
17.288434
 20
54.709748
 42
-0.001486
  0
VERTEX
  8
0
 10
17.245228
 20
54.960215
 42
-0.005556
  0
VERTEX
  8
0
 10
17.220294
 20
55.118000
 42
0.014116
  0
VERTEX
  8
0
 10
17.198188
 20
55.243866
 42
0.011560
  0
VERTEX
  8
0
 10
17.167683
 20
55.377027
 42
0.011728
  0
VERTEX
  8
0
 10
17.133909
 20
55.498222
 42
0.029957
  0
VERTEX
  8
0
 10
17.102222
 20
55.583667
 42
-0.034178
  0
VERTEX
  8
0
 10
17.070444
 20
55.671626
 42
-0.011733
  0
VERTEX
  8
0
 10
17.036279
 20
55.802742
 42
-0.011599
  0
VERTEX
  8
0
 10
17.005250
 20
55.949587
 42
-0.013162
  0
VERTEX
  8
0
 10
16.982508
 20
56.091667
 42
0.003314
  0
VERTEX
  8
0
 10
16.911242
 20
56.600975
 42
0.000946
  0
VERTEX
  8
0
 10
16.793938
 20
57.390242
 42
0.000938
  0
VERTEX
  8
0
 10
16.673904
 20
58.177457
 42
0.003463
  0
VERTEX
  8
0
 10
16.593714
 20
58.674000
 42
-0.004348
  0
VERTEX
  8
0
 10
16.557632
 20
58.899964
 42
-0.001873
  0
VERTEX
  8
0
 10
16.513272
 20
59.201844
 42
-0.001853
  0
VERTEX
  8
0
 10
16.468438
 20
59.523602
 42
-0.002450
  0
VERTEX
  8
0
 10
16.430126
 20
59.817000
 42
0.024152
  0
VERTEX
  8
0
 10
16.199751
 20
61.133501
 42
0.053025
  0
VERTEX
  8
0
 10
15.871269
 20
62.100438
 42
0.063030
  0
VERTEX
  8
0
 10
15.389938
 20
62.869325
 42
0.049933
  0
VERTEX
  8
0
 10
14.696314
 20
63.563500
 42
0.022883
  0
VERTEX
  8
0
 10
14.598432
 20
63.636416
 42
0.024765
  0
VERTEX
  8
0
 10
14.496777
 20
63.698041
 42
0.025297
  0
VERTEX
  8
0
 10
14.405063
 20
63.741765
 42
0.098893
  0
VERTEX
  8
0
 10
14.343807
 20
63.754000
 42
-0.068939
  0
VERTEX
  8
0
 10
14.298016
 20
63.760344
 42
-0.085175
  0
VERTEX
  8
0
 10
14.259193
 20
63.778871
 42
-0.099929
  0
VERTEX
  8
0
 10
14.233235
 20
63.806380
 42
-0.140208
  0
VERTEX
  8
0
 10
14.224000
 20
63.838667
 42
0.149454
  0
VERTEX
  8
0
 10
14.214128
 20
63.870955
 42
0.098698
  0
VERTEX
  8
0
 10
14.186356
 20
63.898462
 42
0.081991
  0
VERTEX
  8
0
 10
14.144845
 20
63.917012
 42
0.064244
  0
VERTEX
  8
0
 10
14.095851
 20
63.923333
 42
-0.045310
  0
VERTEX
  8
0
 10
14.036246
 20
63.928746
 42
-0.022444
  0
VERTEX
  8
0
 10
13.962160
 20
63.945780
 42
-0.022070
  0
VERTEX
  8
0
 10
13.886350
 20
63.970484
 42
-0.030056
  0
VERTEX
  8
0
 10
13.820684
 20
63.999748
 42
0.044987
  0
VERTEX
  8
0
 10
13.577782
 20
64.099430
 42
0.017517
  0
VERTEX
  8
0
 10
13.227035
 20
64.194419
 42
0.015071
  0
VERTEX
  8
0
 10
12.791156
 20
64.282461
 42
0.009443
  0
VERTEX
  8
0
 10
12.276667
 20
64.360366
 42
0.020611
  0
VERTEX
  8
0
 10
11.334598
 20
64.445552
 42
0.007384
  0
VERTEX
  8
0
 10
9.986818
 20
64.491660
 42
0.005678
  0
VERTEX
  8
0
 10
8.664060
 20
64.502339
 42
0.050539
  0
VERTEX
  8
0
 10
8.085667
 20
64.441806
 42
-0.003860
  0
VERTEX
  8
0
 10
7.884428
 20
64.401526
 42
-0.001841
  0
VERTEX
  8
0
 10
7.625027
 20
64.352674
 42
-0.001824
  0
VERTEX
  8
0
 10
7.353612
 20
64.303616
 42
-0.002594
  0
VERTEX
  8
0
 10
7.112000
 20
64.262147
 42
0.000996
  0
VERTEX
  8
0
 10
6.496291
 20
64.158495
 42
0.007707
  0
VERTEX
  8
0
 10
6.209312
 20
64.105031
 42
0.016654
  0
VERTEX
  8
0
 10
6.030507
 20
64.062617
 42
0.028068
  0
VERTEX
  8
0
 10
5.884333
 20
64.013798
 42
-0.011118
  0
VERTEX
  8
0
 10
5.790126
 20
63.978744
 42
-0.002491
  0
VERTEX
  8
0
 10
5.627952
 20
63.923377
 42
-0.002583
  0
VERTEX
  8
0
 10
5.440032
 20
63.861343
 42
-0.002497
  0
VERTEX
  8
0
 10
5.249333
 20
63.800532
 42
0.016519
  0
VERTEX
  8
0
 10
4.891043
 20
63.675108
 42
0.010423
  0
VERTEX
  8
0
 10
4.481276
 20
63.506379
 42
0.006860
  0
VERTEX
  8
0
 10
4.102401
 20
63.334826
 42
0.092472
  0
VERTEX
  8
0
 10
3.979333
 20
63.246350
 42
-0.048243
  0
VERTEX
  8
0
 10
3.948115
 20
63.219445
 42
-0.002734
  0
VERTEX
  8
0
 10
3.843543
 20
63.146444
 42
-0.004169
  0
VERTEX
  8
0
 10
3.717684
 20
63.061143
 42
-0.003045
  0
VERTEX
  8
0
 10
3.576515
 20
62.968409
 42
0.047146
  0
VERTEX
  8
0
 10
3.291707
 20
62.743071
 42
0.030940
  0
VERTEX
  8
0
 10
3.007803
 20
62.435476
 42
0.030579
  0
VERTEX
  8
0
 10
2.759242
 20
62.089044
 42
0.040849
  0
VERTEX
  8
0
 10
2.580738
 20
61.745814
 42
0.034910
  0
VERTEX
  8
0
 10
2.530452
 20
61.598104
 42
0.009651
  0
VERTEX
  8
0
 10
2.472383
 20
61.359820
 42
0.009698
  0
VERTEX
  8
0
 10
2.416921
 20
61.086696
 42
0.010009
  0
VERTEX
  8
0
 10
2.372732
 20
60.814480
 42
-0.001038
  0
VERTEX
  8
0
 10
2.331077
 20
60.525152
 42
-0.000731
  0
VERTEX
  8
0
 10
2.283084
 20
60.199968
 42
-0.000738
  0
VERTEX
  8
0
 10
2.236260
 20
59.889030
 42
-0.001552
  0
VERTEX
  8
0
 10
2.198783
 20
59.647667
 42
0.005532
  0
VERTEX
  8
0
 10
2.052586
 20
58.654027
 42
0.003533
  0
VERTEX
  8
0
 10
1.903596
 20
57.496001
 42
0.003192
  0
VERTEX
  8
0
 10
1.754362
 20
56.198407
 42
0.002451
  0
VERTEX
  8
0
 10
1.607367
 20
54.779333
 42
-0.000049
  0
VERTEX
  8
0
 10
1.576494
 20
54.466643
 42
-0.000037
  0
VERTEX
  8
0
 10
1.542391
 20
54.121844
 42
-0.000037
  0
VERTEX
  8
0
 10
1.510206
 20
53.796927
 42
-0.000085
  0
VERTEX
  8
0
 10
1.485851
 20
53.551667
 42
0.004913
  0
VERTEX
  8
0
 10
1.359957
 20
52.145959
 42
0.004035
  0
VERTEX
  8
0
 10
1.252396
 20
50.642568
 42
0.002839
  0
VERTEX
  8
0
 10
1.140786
 20
48.709571
 42
0.000918
  0
VERTEX
  8
0
 10
0.997079
 20
45.847000
 42
0.010741
  0
VERTEX
  8
0
 10
0.916468
 20
42.844664
 42
0.001341
  0
VERTEX
  8
0
 10
0.898993
 20
36.325811
 42
0.001529
  0
VERTEX
  8
0
 10
0.918926
 20
29.812246
 42
0.007649
  0
VERTEX
  8
0
 10
0.997110
 20
26.162000
 42
0.001303
  0
VERTEX
  8
0
 10
1.171634
 20
21.725396
 42
0.004649
  0
VERTEX
  8
0
 10
1.317083
 20
18.888260
 42
0.005298
  0
VERTEX
  8
0
 10
1.505382
 20
16.244952
 42
0.002096
  0
VERTEX
  8
0
 10
1.817953
 20
12.615333
 42
0.001407
  0
VERTEX
  8
0
 10
1.913687
 20
11.587918
 42
0.003156
  0
VERTEX
  8
0
 10
1.993473
 20
10.808688
 42
0.003363
  0
VERTEX
  8
0
 10
2.079865
 20
10.061258
 42
0.001827
  0
VERTEX
  8
0
 10
2.195546
 20
9.144000
 42
-0.000068
  0
VERTEX
  8
0
 10
2.236244
 20
8.830198
 42
-0.000026
  0
VERTEX
  8
0
 10
2.292333
 20
8.397081
 42
-0.000026
  0
VERTEX
  8
0
 10
2.352965
 20
7.928505
 42
-0.000033
  0
VERTEX
  8
0
 10
2.409265
 20
7.493000
 42
0.001350
  0
VERTEX
  8
0
 10
2.465508
 20
7.066762
 42
0.001220
  0
VERTEX
  8
0
 10
2.525944
 20
6.626225
 42
0.001221
  0
VERTEX
  8
0
 10
2.582006
 20
6.231881
 42
0.003896
  0
VERTEX
  8
0
 10
2.622127
 20
5.969000
 42
-0.000666
  0
VERTEX
  8
0
 10
2.657046
 20
5.749714
 42
-0.000515
  0
VERTEX
  8
0
 10
2.694521
 20
5.510742
 42
-0.000521
  0
VERTEX
  8
0
 10
2.729039
 20
5.287606
 42
-0.001254
  0
VERTEX
  8
0
 10
2.754005
 20
5.122333
 42
0.020423
  0
VERTEX
  8
0
 10
2.922359
 20
4.238658
 42
0.033754
  0
VERTEX
  8
0
 10
3.144289
 20
3.512433
 42
0.038285
  0
VERTEX
  8
0
 10
3.436840
 20
2.891976
 42
0.039534
  0
VERTEX
  8
0
 10
3.817864
 20
2.330413
 42
0.045731
  0
VERTEX
  8
0
 10
4.216552
 20
1.916430
 42
0.035994
  0
VERTEX
  8
0
 10
4.715841
 20
1.544019
 42
0.036855
  0
VERTEX
  8
0
 10
5.216167
 20
1.273782
 42
0.102593
  0
VERTEX
  8
0
 10
5.604170
 20
1.188206
 42
-0.029782
  0
VERTEX
  8
0
 10
5.694744
 20
1.181659
 42
-0.035610
  0
VERTEX
  8
0
 10
5.778524
 20
1.164424
 42
-0.038390
  0
VERTEX
  8
0
 10
5.845132
 20
1.140048
 42
-0.148491
  0
VERTEX
  8
0
 10
5.877774
 20
1.111281
 42
0.228252
  0
VERTEX
  8
0
 10
6.027222
 20
1.015824
 42
0.011159
  0
VERTEX
  8
0
 10
6.627744
 20
0.957223
 42
0.013725
  0
VERTEX
  8
0
 10
7.452113
 20
0.918026
 42
0.005340
  0
VERTEX
  8
0
 10
8.593667
 20
0.907314
 42
0.004573
  0
VERTEX
  8
0
 10
9.677364
 20
0.918631
 42
0.014008
  0
VERTEX
  8
0
 10
10.411108
 20
0.953584
 42
0.016522
  0
VERTEX
  8
0
 10
10.916648
 20
1.008732
 42
0.128395
  0
VERTEX
  8
0
 10
11.133667
 20
1.099743
 42
-0.099204
  0
VERTEX
  8
0
 10
11.191657
 20
1.128094
 42
-0.010954
  0
VERTEX
  8
0
 10
11.336078
 20
1.162679
 42
-0.013017
  0
VERTEX
  8
0
 10
11.511723
 20
1.195934
 42
-0.010187
  0
VERTEX
  8
0
 10
11.703832
 20
1.223145
 42
0.013754
  0
VERTEX
  8
0
 10
11.893347
 20
1.251369
 42
0.019128
  0
VERTEX
  8
0
 10
12.061011
 20
1.287736
 42
0.015878
  0
VERTEX
  8
0
 10
12.195002
 20
1.326789
 42
0.177290
  0
VERTEX
  8
0
 10
12.237996
 20
1.360592
 42
-0.129544
  0
VERTEX
  8
0
 10
12.269873
 20
1.390864
 42
-0.045759
  0
VERTEX
  8
0
 10
12.328100
 20
1.416203
 42
-0.041688
  0
VERTEX
  8
0
 10
12.400201
 20
1.433518
 42
-0.038107
  0
VERTEX
  8
0
 10
12.476397
 20
1.439333
 42
0.033719
  0
VERTEX
  8
0
 10
12.554938
 20
1.444636
 42
0.031358
  0
VERTEX
  8
0
 10
12.634026
 20
1.460464
 42
0.032848
  0
VERTEX
  8
0
 10
12.702508
 20
1.483607
 42
0.084730
  0
VERTEX
  8
0
 10
12.746567
 20
1.511268
 42
-0.063508
  0
VERTEX
  8
0
 10
12.798936
 20
1.547313
 42
-0.009217
  0
VERTEX
  8
0
 10
12.915291
 20
1.604607
 42
-0.010313
  0
VERTEX
  8
0
 10
13.056230
 20
1.667292
 42
-0.008668
  0
VERTEX
  8
0
 10
13.208000
 20
1.728004
 42
0.004106
  0
VERTEX
  8
0
 10
13.627708
 20
1.891475
 42
0.017678
  0
VERTEX
  8
0
 10
13.872923
 20
1.999507
 42
0.023223
  0
VERTEX
  8
0
 10
14.022709
 20
2.080708
 42
0.262703
  0
VERTEX
  8
0
 10
14.054667
 20
2.137335
 42
-0.161049
  0
VERTEX
  8
0
 10
14.062780
 20
2.161869
 42
-0.094686
  0
VERTEX
  8
0
 10
14.085755
 20
2.182986
 42
-0.076737
  0
VERTEX
  8
0
 10
14.120024
 20
2.197527
 42
-0.058457
  0
VERTEX
  8
0
 10
14.160500
 20
2.202874
 42
0.178198
  0
VERTEX
  8
0
 10
14.485744
 20
2.327997
 42
0.021380
  0
VERTEX
  8
0
 10
15.051414
 20
2.868554
 42
0.026342
  0
VERTEX
  8
0
 10
15.588279
 20
3.489794
 42
0.059610
  0
VERTEX
  8
0
 10
15.907766
 20
4.021667
 42
-0.001844
  0
VERTEX
  8
0
 10
15.956284
 20
4.128720
 42
-0.001611
  0
VERTEX
  8
0
 10
16.007808
 20
4.240345
 42
-0.001620
  0
VERTEX
  8
0
 10
16.055026
 20
4.340929
 42
-0.004820
  0
VERTEX
  8
0
 10
16.088263
 20
4.409423
 42
0.061916
  0
VERTEX
  8
0
 10
16.117225
 20
4.491888
 42
0.009393
  0
VERTEX
  8
0
 10
16.151184
 20
4.663564
 42
0.010401
  0
VERTEX
  8
0
 10
16.183405
 20
4.868833
 42
0.008833
  0
VERTEX
  8
0
 10
16.209070
 20
5.086756
 42
0.026959
  0
VERTEX
  8
0
 10
16.227359
 20
5.487026
 42
0.018147
  0
VERTEX
  8
0
 10
16.206984
 20
5.944221
 42
0.011211
  0
VERTEX
  8
0
 10
16.141127
 20
6.579812
 42
0.002764
  0
VERTEX
  8
0
 10
16.003871
 20
7.620000
 42
-0.007001
  0
VERTEX
  8
0
 10
15.883803
 20
8.593471
 42
-0.001986
  0
VERTEX
  8
0
 10
15.724290
 20
10.110768
 42
-0.002014
  0
VERTEX
  8
0
 10
15.559012
 20
11.813810
 42
-0.002227
  0
VERTEX
  8
0
 10
15.413156
 20
13.462000
 42
0.000423
  0
VERTEX
  8
0
 10
15.378360
 20
13.872028
 42
0.000375
  0
VERTEX
  8
0
 10
15.341450
 20
14.298877
 42
0.000377
  0
VERTEX
  8
0
 10
15.307636
 20
14.683191
 42
0.001153
  0
VERTEX
  8
0
 10
15.283915
 20
14.943667
 42
-0.011665
  0
VERTEX
  8
0
 10
15.230014
 20
15.714691
 42
-0.001036
  0
VERTEX
  8
0
 10
15.143604
 20
17.659931
 42
-0.001435
  0
VERTEX
  8
0
 10
15.056819
 20
19.858703
 42
-0.001526
  0
VERTEX
  8
0
 10
14.984553
 20
22.013333
 42
0.001717
  0
VERTEX
  8
0
 10
14.953749
 20
22.921411
 42
0.001930
  0
VERTEX
  8
0
 10
14.917753
 20
23.794539
 42
0.001768
  0
VERTEX
  8
0
 10
14.881622
 20
24.537407
 42
0.010414
  0
VERTEX
  8
0
 10
14.853195
 20
24.926332
 42
-0.006963
  0
VERTEX
  8
0
 10
14.828458
 20
25.235415
 42
-0.028072
  0
VERTEX
  8
0
 10
14.826602
 20
25.424629
 42
-0.062015
  0
VERTEX
  8
0
 10
14.843835
 20
25.524910
 42
-0.492434
  0
VERTEX
  8
0
 10
14.881603
 20
25.539194
 42
-0.112970
  0
VERTEX
  8
0
 10
14.920514
 20
25.500811
 42
-0.031005
  0
VERTEX
  8
0
 10
14.962457
 20
25.424985
 42
-0.029672
  0
VERTEX
  8
0
 10
15.000549
 20
25.330697
 42
-0.027110
  0
VERTEX
  8
0
 10
15.028547
 20
25.229696
 42
0.024109
  0
VERTEX
  8
0
 10
15.054790
 20
25.132767
 42
0.035489
  0
VERTEX
  8
0
 10
15.087790
 20
25.050994
 42
0.038724
  0
VERTEX
  8
0
 10
15.122386
 20
24.992209
 42
0.245104
  0
VERTEX
  8
0
 10
15.152186
 20
24.976667
 42
-0.171965
  0
VERTEX
  8
0
 10
15.181618
 20
24.966236
 42
-0.057630
  0
VERTEX
  8
0
 10
15.213995
 20
24.933143
 42
-0.049290
  0
VERTEX
  8
0
 10
15.244105
 20
24.885205
 42
-0.039163
  0
VERTEX
  8
0
 10
15.267021
 20
24.828500
 42
0.043858
  0
VERTEX
  8
0
 10
15.331542
 20
24.673049
 42
0.006251
  0
VERTEX
  8
0
 10
15.495284
 20
24.368696
 42
0.005141
  0
VERTEX
  8
0
 10
15.667756
 20
24.064913
 42
0.064777
  0
VERTEX
  8
0
 10
15.748000
 20
23.960667
 42
-0.051711
  0
VERTEX
  8
0
 10
15.812710
 20
23.880984
 42
-0.010325
  0
VERTEX
  8
0
 10
15.909873
 20
23.725345
 42
-0.011586
  0
VERTEX
  8
0
 10
16.006349
 20
23.554585
 42
-0.019628
  0
VERTEX
  8
0
 10
16.078049
 20
23.406854
 42
0.034252
  0
VERTEX
  8
0
 10
16.116879
 20
23.332462
 42
0.021979
  0
VERTEX
  8
0
 10
16.171370
 20
23.251693
 42
0.022081
  0
VERTEX
  8
0
 10
16.231996
 20
23.176968
 42
0.038096
  0
VERTEX
  8
0
 10
16.289513
 20
23.121320
 42
-0.031769
  0
VERTEX
  8
0
 10
16.341491
 20
23.072288
 42
-0.034265
  0
VERTEX
  8
0
 10
16.385436
 20
23.018226
 42
-0.036545
  0
VERTEX
  8
0
 10
16.416183
 20
22.967046
 42
-0.117516
  0
VERTEX
  8
0
 10
16.425333
 20
22.928651
 42
0.146705
  0
VERTEX
  8
0
 10
16.451019
 20
22.842992
 42
0.005621
  0
VERTEX
  8
0
 10
16.638897
 20
22.564748
 42
0.009189
  0
VERTEX
  8
0
 10
16.828722
 20
22.300823
 42
0.059830
  0
VERTEX
  8
0
 10
16.941343
 20
22.182667
 42
-0.061769
  0
VERTEX
  8
0
 10
16.966731
 20
22.155825
 42
-0.012560
  0
VERTEX
  8
0
 10
17.004256
 20
22.102026
 42
-0.013063
  0
VERTEX
  8
0
 10
17.044933
 20
22.036828
 42
-0.011916
  0
VERTEX
  8
0
 10
17.083467
 20
21.967591
 42
0.040510
  0
VERTEX
  8
0
 10
17.187746
 20
21.803096
 42
0.002561
  0
VERTEX
  8
0
 10
17.534919
 20
21.347450
 42
0.003492
  0
VERTEX
  8
0
 10
17.978446
 20
20.779734
 42
0.001972
  0
VERTEX
  8
0
 10
18.523714
 20
20.097294
 42
0.015393
  0
VERTEX
  8
0
 10
18.837968
 20
19.730835
 42
0.014194
  0
VERTEX
  8
0
 10
19.182540
 20
19.374080
 42
0.014626
  0
VERTEX
  8
0
 10
19.511535
 20
19.070567
 42
0.038062
  0
VERTEX
  8
0
 10
19.769817
 20
18.878348
 42
0.006672
  0
VERTEX
  8
0
 10
20.146188
 20
18.647404
 42
0.031643
  0
VERTEX
  8
0
 10
20.371080
 20
18.532102
 42
0.052776
  0
VERTEX
  8
0
 10
20.548564
 20
18.476219
 42
0.049937
  0
VERTEX
  8
0
 10
20.737188
 20
18.457333
 42
-0.034114
  0
VERTEX
  8
0
 10
20.837140
 20
18.450506
 42
-0.039080
  0
VERTEX
  8
0
 10
20.930672
 20
18.430128
 42
-0.042770
  0
VERTEX
  8
0
 10
21.005556
 20
18.400380
 42
-0.139292
  0
VERTEX
  8
0
 10
21.044579
 20
18.364719
 42
0.224440
  0
VERTEX
  8
0
 10
21.120346
 20
18.315547
 42
0.047086
  0
VERTEX
  8
0
 10
21.282582
 20
18.309055
 42
0.026225
  0
VERTEX
  8
0
 10
21.548560
 20
18.337502
 42
0.005406
  0
VERTEX
  8
0
 10
22.013333
 20
18.417187
 42
0.047789
  0
VERTEX
  8
0
 10
22.412980
 20
18.530428
 42
0.028375
  0
VERTEX
  8
0
 10
22.863677
 20
18.736230
 42
0.026060
  0
VERTEX
  8
0
 10
23.335192
 20
19.017078
 42
0.022571
  0
VERTEX
  8
0
 10
23.798967
 20
19.358389
 42
0.005159
  0
VERTEX
  8
0
 10
24.023254
 20
19.543461
 42
0.008023
  0
VERTEX
  8
0
 10
24.212362
 20
19.708074
 42
0.003279
  0
VERTEX
  8
0
 10
24.369763
 20
19.851467
 42
0.205775
  0
VERTEX
  8
0
 10
24.384734
 20
19.885037
 42
-0.157147
  0
VERTEX
  8
0
 10
24.395890
 20
19.918106
 42
-0.007840
  0
VERTEX
  8
0
 10
24.466302
 20
20.010196
 42
-0.011988
  0
VERTEX
  8
0
 10
24.555617
 20
20.117879
 42
-0.008330
  0
VERTEX
  8
0
 10
24.661379
 20
20.235333
 42
0.009816
  0
VERTEX
  8
0
 10
24.792234
 20
20.381526
 42
0.004221
  0
VERTEX
  8
0
 10
24.961284
 20
20.581408
 42
0.004174
  0
VERTEX
  8
0
 10
25.137789
 20
20.797358
 42
0.005503
  0
VERTEX
  8
0
 10
25.294882
 20
20.997333
 42
-0.000769
  0
VERTEX
  8
0
 10
25.437777
 20
21.182824
 42
-0.000953
  0
VERTEX
  8
0
 10
25.571377
 20
21.355018
 42
-0.000778
  0
VERTEX
  8
0
 10
25.684086
 20
21.499253
 42
-0.007151
  0
VERTEX
  8
0
 10
25.733989
 20
21.561068
 42
0.025782
  0
VERTEX
  8
0
 10
25.869202
 20
21.741948
 42
0.002710
  0
VERTEX
  8
0
 10
26.160899
 20
22.182404
 42
0.003654
  0
VERTEX
  8
0
 10
26.454490
 20
22.638218
 42
0.009007
  0
VERTEX
  8
0
 10
26.661441
 20
22.978127
 42
-0.005187
  0
VERTEX
  8
0
 10
26.742946
 20
23.114328
 42
-0.006949
  0
VERTEX
  8
0
 10
26.819835
 20
23.236012
 42
-0.004991
  0
VERTEX
  8
0
 10
26.886462
 20
23.336082
 42
-0.070005
  0
VERTEX
  8
0
 10
26.915441
 20
23.368000
 42
0.081965
  0
VERTEX
  8
0
 10
26.961054
 20
23.420706
 42
0.005717
  0
VERTEX
  8
0
 10
27.061814
 20
23.589413
 42
0.006340
  0
VERTEX
  8
0
 10
27.196333
 20
23.827505
 42
0.002232
  0
VERTEX
  8
0
 10
27.383432
 20
24.172333
 42
-0.008148
  0
VERTEX
  8
0
 10
27.421339
 20
24.240267
 42
-0.009134
  0
VERTEX
  8
0
 10
27.460066
 20
24.304360
 42
-0.008530
  0
VERTEX
  8
0
 10
27.494905
 20
24.357668
 42
-0.047406
  0
VERTEX
  8
0
 10
27.516667
 20
24.384000
 42
0.075335
  0
VERTEX
  8
0
 10
27.564253
 20
24.448583
 42
0.000919
  0
VERTEX
  8
0
 10
27.805565
 20
24.908962
 42
0.001729
  0
VERTEX
  8
0
 10
28.158626
 20
25.591300
 42
0.000328
  0
VERTEX
  8
0
 10
28.797317
 20
26.838197
 42
0.000000
  0
VERTEX
  8
0
 10
29.294667
 20
27.810728
 42
0.000000
  0
VERTEX
  8
0
 10
29.292901
 20
26.965197
 42
-0.009277
  0
VERTEX
  8
0
 10
29.263373
 20
25.534934
 42
-0.002643
  0
VERTEX
  8
0
 10
29.164587
 20
23.315618
 42
-0.002695
  0
VERTEX
  8
0
 10
29.028280
 20
20.846989
 42
-0.003128
  0
VERTEX
  8
0
 10
28.871230
 20
18.499667
 42
-0.001487
  0
VERTEX
  8
0
 10
28.720210
 20
16.517324
 42
-0.002366
  0
VERTEX
  8
0
 10
28.577955
 20
14.822549
 42
-0.002694
  0
VERTEX
  8
0
 10
28.435822
 20
13.312691
 42
-0.003246
  0
VERTEX
  8
0
 10
28.285425
 20
11.895667
 42
0.000672
  0
VERTEX
  8
0
 10
28.246667
 20
11.547575
 42
0.000217
  0
VERTEX
  8
0
 10
28.190168
 20
11.031802
 42
0.000216
  0
VERTEX
  8
0
 10
28.127827
 20
10.458107
 42
0.000243
  0
VERTEX
  8
0
 10
28.068345
 20
9.906000
 42
-0.000504
  0
VERTEX
  8
0
 10
28.008907
 20
9.356994
 42
-0.000464
  0
VERTEX
  8
0
 10
27.946700
 20
8.792633
 42
-0.000463
  0
VERTEX
  8
0
 10
27.890302
 20
8.289547
 42
-0.001536
  0
VERTEX
  8
0
 10
27.851869
 20
7.958667
 42
0.002763
  0
VERTEX
  8
0
 10
27.817062
 20
7.652446
 42
0.001222
  0
VERTEX
  8
0
 10
27.774317
 20
7.247666
 42
0.001210
  0
VERTEX
  8
0
 10
27.731113
 20
6.818555
 42
0.001630
  0
VERTEX
  8
0
 10
27.694214
 20
6.429941
 42
-0.001440
  0
VERTEX
  8
0
 10
27.661282
 20
6.081696
 42
-0.002105
  0
VERTEX
  8
0
 10
27.630111
 20
5.775265
 42
-0.001014
  0
VERTEX
  8
0
 10
27.601978
 20
5.514855
 42
-0.037615
  0
VERTEX
  8
0
 10
27.591026
 20
5.456275
 42
0.096579
  0
VERTEX
  8
0
 10
27.579858
 20
5.291012
 42
0.008507
  0
VERTEX
  8
0
 10
27.639467
 20
4.874370
 42
0.010969
  0
VERTEX
  8
0
 10
27.714877
 20
4.462429
 42
0.051597
  0
VERTEX
  8
0
 10
27.787278
 20
4.233333
 42
0.012109
  0
VERTEX
  8
0
 10
27.991475
 20
3.792076
 42
0.033288
  0
VERTEX
  8
0
 10
28.163070
 20
3.495266
 42
0.034707
  0
VERTEX
  8
0
 10
28.368382
 20
3.230791
 42
0.014144
  0
VERTEX
  8
0
 10
28.681554
 20
2.899833
 42
0.011073
  0
VERTEX
  8
0
 10
28.893729
 20
2.697129
 42
0.015443
  0
VERTEX
  8
0
 10
29.092881
 20
2.526109
 42
0.011793
  0
VERTEX
  8
0
 10
29.263770
 20
2.394824
 42
0.159198
  0
VERTEX
  8
0
 10
29.337720
 20
2.370667
 42
-0.065240
  0
VERTEX
  8
0
 10
29.385997
 20
2.364341
 42
-0.082697
  0
VERTEX
  8
0
 10
29.426905
 20
2.345796
 42
-0.099013
  0
VERTEX
  8
0
 10
29.454270
 20
2.318288
 42
-0.147404
  0
VERTEX
  8
0
 10
29.464000
 20
2.286000
 42
0.191087
  0
VERTEX
  8
0
 10
29.476825
 20
2.253667
 42
0.088204
  0
VERTEX
  8
0
 10
29.513742
 20
2.226204
 42
0.068025
  0
VERTEX
  8
0
 10
29.568528
 20
2.207573
 42
0.048028
  0
VERTEX
  8
0
 10
29.633333
 20
2.201333
 42
-0.048028
  0
VERTEX
  8
0
 10
29.698139
 20
2.195094
 42
-0.068025
  0
VERTEX
  8
0
 10
29.752925
 20
2.176462
 42
-0.088204
  0
VERTEX
  8
0
 10
29.789842
 20
2.148999
 42
-0.191087
  0
VERTEX
  8
0
 10
29.802667
 20
2.116667
 42
0.186414
  0
VERTEX
  8
0
 10
29.815152
 20
2.084342
 42
0.089706
  0
VERTEX
  8
0
 10
29.850941
 20
2.056871
 42
0.069539
  0
VERTEX
  8
0
 10
29.904116
 20
2.038247
 42
0.049547
  0
VERTEX
  8
0
 10
29.967003
 20
2.032000
 42
-0.042685
  0
VERTEX
  8
0
 10
30.033386
 20
2.026323
 42
-0.044282
  0
VERTEX
  8
0
 10
30.096997
 20
2.009459
 42
-0.048426
  0
VERTEX
  8
0
 10
30.148938
 20
1.984725
 42
-0.119570
  0
VERTEX
  8
0
 10
30.178764
 20
1.955265
 42
0.168100
  0
VERTEX
  8
0
 10
30.219308
 20
1.922201
 42
0.017952
  0
VERTEX
  8
0
 10
30.336557
 20
1.883976
 42
0.020527
  0
VERTEX
  8
0
 10
30.483807
 20
1.848222
 42
0.015120
  0
VERTEX
  8
0
 10
30.649333
 20
1.820333
 42
-0.015120
  0
VERTEX
  8
0
 10
30.814860
 20
1.792445
 42
-0.020527
  0
VERTEX
  8
0
 10
30.962110
 20
1.756691
 42
-0.017952
  0
VERTEX
  8
0
 10
31.079358
 20
1.718466
 42
-0.168100
  0
VERTEX
  8
0
 10
31.119902
 20
1.685401
 42
0.162870
  0
VERTEX
  8
0
 10
31.155568
 20
1.655705
 42
0.034351
  0
VERTEX
  8
0
 10
31.234002
 20
1.631207
 42
0.032615
  0
VERTEX
  8
0
 10
31.333198
 20
1.614296
 42
0.025919
  0
VERTEX
  8
0
 10
31.441730
 20
1.608667
 42
-0.029414
  0
VERTEX
  8
0
 10
31.553317
 20
1.602097
 42
-0.030726
  0
VERTEX
  8
0
 10
31.661717
 20
1.582477
 42
-0.032296
  0
VERTEX
  8
0
 10
31.752553
 20
1.553874
 42
-0.104320
  0
VERTEX
  8
0
 10
31.805289
 20
1.519511
 42
0.178523
  0
VERTEX
  8
0
 10
31.890090
 20
1.480406
 42
0.010027
  0
VERTEX
  8
0
 10
32.184245
 20
1.463120
 42
0.012373
  0
VERTEX
  8
0
 10
32.580442
 20
1.457613
 42
0.005199
  0
VERTEX
  8
0
 10
33.113389
 20
1.468935
 42
0.005318
  0
VERTEX
  8
0
 10
33.979652
 20
1.505579
 42
0.016006
  0
VERTEX
  8
0
 10
34.569012
 20
1.555748
 42
0.016561
  0
VERTEX
  8
0
 10
34.975578
 20
1.617215
 42
0.211589
  0
VERTEX
  8
0
 10
35.099861
 20
1.702277
 42
-0.143569
  0
VERTEX
  8
0
 10
35.132334
 20
1.731457
 42
-0.041356
  0
VERTEX
  8
0
 10
35.196081
 20
1.755756
 42
-0.037920
  0
VERTEX
  8
0
 10
35.275953
 20
1.772422
 42
-0.032488
  0
VERTEX
  8
0
 10
35.361701
 20
1.778000
 42
0.078292
  0
VERTEX
  8
0
 10
35.634992
 20
1.821057
 42
0.026517
  0
VERTEX
  8
0
 10
36.012112
 20
1.965401
 42
0.025721
  0
VERTEX
  8
0
 10
36.416948
 20
2.171046
 42
0.027526
  0
VERTEX
  8
0
 10
36.789107
 20
2.413000
 42
0.012389
  0
VERTEX
  8
0
 10
37.159829
 20
2.698518
 42
0.028338
  0
VERTEX
  8
0
 10
37.420806
 20
2.935726
 42
0.031488
  0
VERTEX
  8
0
 10
37.636387
 20
3.184792
 42
0.019180
  0
VERTEX
  8
0
 10
37.860092
 20
3.503406
 42
0.036562
  0
VERTEX
  8
0
 10
38.168265
 20
4.066575
 42
0.046639
  0
VERTEX
  8
0
 10
38.362415
 20
4.625365
 42
0.029267
  0
VERTEX
  8
0
 10
38.502982
 20
5.386298
 42
0.006157
  0
VERTEX
  8
0
 10
38.654003
 20
6.731000
 42
-0.000819
  0
VERTEX
  8
0
 10
38.709028
 20
7.273072
 42
-0.000672
  0
VERTEX
  8
0
 10
38.769516
 20
7.851775
 42
-0.000679
  0
VERTEX
  8
0
 10
38.826531
 20
8.383355
 42
-0.001802
  0
VERTEX
  8
0
 10
38.869157
 20
8.763000
 42
0.001325
  0
VERTEX
  8
0
 10
38.977666
 20
9.721181
 42
0.002236
  0
VERTEX
  8
0
 10
39.062931
 20
10.525302
 42
0.002094
  0
VERTEX
  8
0
 10
39.144686
 20
11.365655
 42
0.001002
  0
VERTEX
  8
0
 10
39.243040
 20
12.446000
 42
-0.000004
  0
VERTEX
  8
0
 10
39.301956
 20
13.107764
 42
-0.000004
  0
VERTEX
  8
0
 10
39.363679
 20
13.800931
 42
-0.000004
  0
VERTEX
  8
0
 10
39.419536
 20
14.428098
 42
-0.000011
  0
VERTEX
  8
0
 10
39.457926
 20
14.859000
 42
0.001918
  0
VERTEX
  8
0
 10
39.567456
 20
16.143804
 42
0.003201
  0
VERTEX
  8
0
 10
39.648572
 20
17.226097
 42
0.003156
  0
VERTEX
  8
0
 10
39.716586
 20
18.320015
 42
0.001800
  0
VERTEX
  8
0
 10
39.785671
 20
19.642667
 42
-0.001823
  0
VERTEX
  8
0
 10
39.829228
 20
20.475831
 42
-0.001667
  0
VERTEX
  8
0
 10
39.880094
 20
21.333883
 42
-0.001666
  0
VERTEX
  8
0
 10
39.930627
 20
22.099838
 42
-0.005446
  0
VERTEX
  8
0
 10
39.971258
 20
22.606000
 42
0.022110
  0
VERTEX
  8
0
 10
40.060998
 20
24.522884
 42
0.000526
  0
VERTEX
  8
0
 10
40.074577
 20
33.475511
 42
0.000588
  0
VERTEX
  8
0
 10
40.068263
 20
42.353648
 42
0.019350
  0
VERTEX
  8
0
 10
39.981424
 20
44.492333
 42
-0.004622
  0
VERTEX
  8
0
 10
39.936166
 20
45.137530
 42
-0.001583
  0
VERTEX
  8
0
 10
39.882191
 20
46.073219
 42
-0.001574
  0
VERTEX
  8
0
 10
39.829150
 20
47.106128
 42
-0.001819
  0
VERTEX
  8
0
 10
39.785287
 20
48.090667
 42
0.001563
  0
VERTEX
  8
0
 10
39.713896
 20
49.711755
 42
0.002778
  0
VERTEX
  8
0
 10
39.643501
 20
51.046451
 42
0.003073
  0
VERTEX
  8
0
 10
39.563779
 20
52.282760
 42
0.002570
  0
VERTEX
  8
0
 10
39.464355
 20
53.594000
 42
0.000780
  0
VERTEX
  8
0
 10
39.338748
 20
55.115291
 42
0.000843
  0
VERTEX
  8
0
 10
39.211538
 20
56.597293
 42
0.000777
  0
VERTEX
  8
0
 10
39.098386
 20
57.867214
 42
0.004343
  0
VERTEX
  8
0
 10
39.030793
 20
58.547000
 42
0.001078
  0
VERTEX
  8
0
 10
38.823967
 20
60.420487
 42
0.005493
  0
VERTEX
  8
0
 10
38.695204
 20
61.461268
 42
0.007459
  0
VERTEX
  8
0
 10
38.596498
 20
62.118828
 42
0.065798
  0
VERTEX
  8
0
 10
38.511164
 20
62.399333
 42
0.008213
  0
VERTEX
  8
0
 10
38.306831
 20
62.829837
 42
0.025431
  0
VERTEX
  8
0
 10
38.149700
 20
63.110465
 42
0.029411
  0
VERTEX
  8
0
 10
37.977772
 20
63.351248
 42
0.014230
  0
VERTEX
  8
0
 10
37.731671
 20
63.639110
 42
0.012178
  0
VERTEX
  8
0
 10
37.566488
 20
63.812848
 42
0.016972
  0
VERTEX
  8
0
 10
37.409875
 20
63.959434
 42
0.013420
  0
VERTEX
  8
0
 10
37.274761
 20
64.071305
 42
0.167728
  0
VERTEX
  8
0
 10
37.212871
 20
64.092667
 42
-0.083937
  0
VERTEX
  8
0
 10
37.164651
 20
64.100819
 42
-0.043864
  0
VERTEX
  8
0
 10
37.108939
 20
64.125875
 42
-0.042004
  0
VERTEX
  8
0
 10
37.054800
 20
64.162459
 42
-0.050004
  0
VERTEX
  8
0
 10
37.010912
 20
64.205715
 42
0.083835
  0
VERTEX
  8
0
 10
36.951777
 20
64.256625
 42
0.020429
  0
VERTEX
  8
0
 10
36.838593
 20
64.318849
 42
0.020370
  0
VERTEX
  8
0
 10
36.701143
 20
64.380408
 42
0.019042
  0
VERTEX
  8
0
 10
36.556045
 20
64.432104
 42
-0.010281
  0
VERTEX
  8
0
 10
36.411918
 20
64.480625
 42
-0.012052
  0
VERTEX
  8
0
 10
36.277430
 20
64.532696
 42
-0.011033
  0
VERTEX
  8
0
 10
36.166315
 20
64.581728
 42
-0.069644
  0
VERTEX
  8
0
 10
36.114567
 20
64.615389
 42
0.095039
  0
VERTEX
  8
0
 10
36.068139
 20
64.642359
 42
0.029059
  0
VERTEX
  8
0
 10
35.989741
 20
64.664787
 42
0.027924
  0
VERTEX
  8
0
 10
35.897124
 20
64.680181
 42
0.027225
  0
VERTEX
  8
0
 10
35.802578
 20
64.685333
 42
-0.028863
  0
VERTEX
  8
0
 10
35.697886
 20
64.691382
 42
-0.017060
  0
VERTEX
  8
0
 10
35.574068
 20
64.710037
 42
-0.017039
  0
VERTEX
  8
0
 10
35.451326
 20
64.737192
 42
-0.027887
  0
VERTEX
  8
0
 10
35.349834
 20
64.769429
 42
0.062771
  0
VERTEX
  8
0
 10
34.839221
 20
64.893272
 42
0.005909
  0
VERTEX
  8
0
 10
33.553192
 20
65.023276
 42
0.002521
  0
VERTEX
  8
0
 10
32.181655
 20
65.138601
 42
0.219487
  0
SEQEND
  0
ENDSEC
  0
EOF
