999
DXF data, created by potrace 1.16, written by Peter Selinger 2001-2019
  0
SECTION
  2
HEADER
  9
$ACADVER
  1
AC1006
  9
$EXTMIN
 10
0.000000
 20
0.000000
 30
0.000000
  9
$EXTMAX
 10
55.541333
 20
48.260000
 30
0.000000
  0
ENDSEC
  0
SECTION
  2
ENTITIES
  0
POLYLINE
  8
0
 66
1
 70
1
  0
VERTEX
  8
0
 10
13.462000
 20
47.328667
 42
-0.052333
  0
VERTEX
  8
0
 10
13.399695
 20
47.297083
 42
-0.026958
  0
VERTEX
  8
0
 10
13.316347
 20
47.270321
 42
-0.026469
  0
VERTEX
  8
0
 10
13.226738
 20
47.251796
 42
-0.036048
  0
VERTEX
  8
0
 10
13.144500
 20
47.245297
 42
0.042491
  0
VERTEX
  8
0
 10
13.071570
 20
47.238587
 42
0.061885
  0
VERTEX
  8
0
 10
13.009959
 20
47.219510
 42
0.081007
  0
VERTEX
  8
0
 10
12.968183
 20
47.191807
 42
0.208855
  0
VERTEX
  8
0
 10
12.954000
 20
47.159333
 42
-0.154765
  0
VERTEX
  8
0
 10
12.943760
 20
47.127043
 42
-0.097780
  0
VERTEX
  8
0
 10
12.914917
 20
47.099538
 42
-0.080164
  0
VERTEX
  8
0
 10
12.871827
 20
47.080976
 42
-0.061768
  0
VERTEX
  8
0
 10
12.820952
 20
47.074667
 42
0.072306
  0
VERTEX
  8
0
 10
12.761267
 20
47.065990
 42
0.038751
  0
VERTEX
  8
0
 10
12.691592
 20
47.039271
 42
0.037603
  0
VERTEX
  8
0
 10
12.623322
 20
47.000290
 42
0.047889
  0
VERTEX
  8
0
 10
12.567409
 20
46.954171
 42
-0.012495
  0
VERTEX
  8
0
 10
12.507341
 20
46.897033
 42
-0.005264
  0
VERTEX
  8
0
 10
12.423926
 20
46.823147
 42
-0.005204
  0
VERTEX
  8
0
 10
12.333079
 20
46.746011
 42
-0.006758
  0
VERTEX
  8
0
 10
12.248162
 20
46.677337
 42
0.059997
  0
VERTEX
  8
0
 10
12.045353
 20
46.474135
 42
0.026197
  0
VERTEX
  8
0
 10
11.826083
 20
46.161871
 42
0.023968
  0
VERTEX
  8
0
 10
11.646730
 20
45.842646
 42
0.116513
  0
VERTEX
  8
0
 10
11.599333
 20
45.642013
 42
-0.046430
  0
VERTEX
  8
0
 10
11.593062
 20
45.574625
 42
-0.046114
  0
VERTEX
  8
0
 10
11.574463
 20
45.509391
 42
-0.050089
  0
VERTEX
  8
0
 10
11.547144
 20
45.455611
 42
-0.112247
  0
VERTEX
  8
0
 10
11.514667
 20
45.423667
 42
0.134683
  0
VERTEX
  8
0
 10
11.482091
 20
45.388662
 42
0.044226
  0
VERTEX
  8
0
 10
11.454871
 20
45.323061
 42
0.040320
  0
VERTEX
  8
0
 10
11.436247
 20
45.241439
 42
0.035949
  0
VERTEX
  8
0
 10
11.430000
 20
45.154661
 42
-0.039835
  0
VERTEX
  8
0
 10
11.407530
 20
44.873063
 42
-0.004394
  0
VERTEX
  8
0
 10
11.299245
 20
44.234749
 42
-0.005436
  0
VERTEX
  8
0
 10
11.178261
 20
43.597783
 42
-0.022304
  0
VERTEX
  8
0
 10
11.083627
 20
43.216322
 42
0.016474
  0
VERTEX
  8
0
 10
11.054155
 20
43.103182
 42
0.012720
  0
VERTEX
  8
0
 10
11.029274
 20
42.978158
 42
0.012909
  0
VERTEX
  8
0
 10
11.012010
 20
42.860091
 42
0.029853
  0
VERTEX
  8
0
 10
11.006667
 20
42.770673
 42
-0.041230
  0
VERTEX
  8
0
 10
10.999666
 20
42.685918
 42
-0.022595
  0
VERTEX
  8
0
 10
10.977930
 20
42.583945
 42
-0.022379
  0
VERTEX
  8
0
 10
10.946317
 20
42.481727
 42
-0.033057
  0
VERTEX
  8
0
 10
10.908841
 20
42.395684
 42
0.002455
  0
VERTEX
  8
0
 10
10.867364
 20
42.314427
 42
0.001986
  0
VERTEX
  8
0
 10
10.823624
 20
42.226823
 42
0.002006
  0
VERTEX
  8
0
 10
10.783919
 20
42.145685
 42
0.005186
  0
VERTEX
  8
0
 10
10.756116
 20
42.086735
 42
-0.081692
  0
VERTEX
  8
0
 10
10.723139
 20
42.037840
 42
-0.044860
  0
VERTEX
  8
0
 10
10.668941
 20
41.989847
 42
-0.043190
  0
VERTEX
  8
0
 10
10.603546
 20
41.949864
 42
-0.052852
  0
VERTEX
  8
0
 10
10.536442
 20
41.924848
 42
-0.057901
  0
VERTEX
  8
0
 10
10.406959
 20
41.907187
 42
-0.000410
  0
VERTEX
  8
0
 10
9.300882
 20
41.886096
 42
-0.001572
  0
VERTEX
  8
0
 10
8.033947
 20
41.866960
 42
-0.001005
  0
VERTEX
  8
0
 10
6.561667
 20
41.852312
 42
0.001558
  0
VERTEX
  8
0
 10
4.856878
 20
41.833468
 42
0.004201
  0
VERTEX
  8
0
 10
3.645991
 20
41.806132
 42
0.002420
  0
VERTEX
  8
0
 10
2.735645
 20
41.773515
 42
0.094960
  0
VERTEX
  8
0
 10
2.540000
 20
41.727705
 42
0.000045
  0
VERTEX
  8
0
 10
2.443643
 20
41.684739
 42
0.000026
  0
VERTEX
  8
0
 10
2.328333
 20
41.633302
 42
0.000026
  0
VERTEX
  8
0
 10
2.213024
 20
41.581850
 42
0.000045
  0
VERTEX
  8
0
 10
2.116667
 20
41.538839
 42
0.053070
  0
VERTEX
  8
0
 10
2.007646
 20
41.475551
 42
0.012265
  0
VERTEX
  8
0
 10
1.839255
 20
41.345795
 42
0.012531
  0
VERTEX
  8
0
 10
1.651774
 20
41.185907
 42
0.011958
  0
VERTEX
  8
0
 10
1.469522
 20
41.014377
 42
0.016787
  0
VERTEX
  8
0
 10
1.235443
 20
40.767209
 42
0.047970
  0
VERTEX
  8
0
 10
1.096338
 20
40.575930
 42
0.054704
  0
VERTEX
  8
0
 10
1.006350
 20
40.376355
 42
0.027410
  0
VERTEX
  8
0
 10
0.935258
 20
40.108572
 42
0.069100
  0
VERTEX
  8
0
 10
0.890033
 20
39.431648
 42
0.072712
  0
VERTEX
  8
0
 10
1.033234
 20
38.780391
 42
0.071495
  0
VERTEX
  8
0
 10
1.359979
 20
38.188429
 42
0.063546
  0
VERTEX
  8
0
 10
1.851866
 20
37.685221
 42
0.016048
  0
VERTEX
  8
0
 10
1.987514
 20
37.584697
 42
0.019511
  0
VERTEX
  8
0
 10
2.120960
 20
37.499792
 42
0.018413
  0
VERTEX
  8
0
 10
2.237002
 20
37.437776
 42
0.113987
  0
VERTEX
  8
0
 10
2.302417
 20
37.422667
 42
-0.071278
  0
VERTEX
  8
0
 10
2.355683
 20
37.415034
 42
-0.038849
  0
VERTEX
  8
0
 10
2.417570
 20
37.391578
 42
-0.037775
  0
VERTEX
  8
0
 10
2.478000
 20
37.357341
 42
-0.048703
  0
VERTEX
  8
0
 10
2.527250
 20
37.316833
 42
0.185606
  0
VERTEX
  8
0
 10
2.655862
 20
37.259614
 42
0.003961
  0
VERTEX
  8
0
 10
3.359676
 20
37.228876
 42
0.005942
  0
VERTEX
  8
0
 10
4.387488
 20
37.204368
 42
0.001368
  0
VERTEX
  8
0
 10
6.121350
 20
37.188380
 42
-0.001013
  0
VERTEX
  8
0
 10
8.508167
 20
37.168066
 42
-0.010435
  0
VERTEX
  8
0
 10
9.493219
 20
37.137118
 42
-0.018203
  0
VERTEX
  8
0
 10
10.039773
 20
37.088522
 42
-0.277885
  0
VERTEX
  8
0
 10
10.182801
 20
36.975864
 42
-0.104353
  0
VERTEX
  8
0
 10
10.203454
 20
36.842437
 42
-0.002142
  0
VERTEX
  8
0
 10
10.163573
 20
36.163348
 42
-0.003939
  0
VERTEX
  8
0
 10
10.098636
 20
35.247971
 42
-0.001313
  0
VERTEX
  8
0
 10
9.989505
 20
33.909000
 42
0.004776
  0
VERTEX
  8
0
 10
9.837570
 20
31.870577
 42
0.007546
  0
VERTEX
  8
0
 10
9.750394
 20
30.119871
 42
0.006334
  0
VERTEX
  8
0
 10
9.707363
 20
28.163626
 42
0.002327
  0
VERTEX
  8
0
 10
9.694454
 20
25.400000
 42
0.002054
  0
VERTEX
  8
0
 10
9.705832
 20
22.618077
 42
0.007621
  0
VERTEX
  8
0
 10
9.746932
 20
20.864913
 42
0.010374
  0
VERTEX
  8
0
 10
9.833750
 20
19.405762
 42
0.006906
  0
VERTEX
  8
0
 10
9.990993
 20
17.737667
 42
0.001238
  0
VERTEX
  8
0
 10
10.180217
 20
16.028704
 42
0.003961
  0
VERTEX
  8
0
 10
10.318242
 20
14.890464
 42
0.005723
  0
VERTEX
  8
0
 10
10.441476
 20
14.016239
 42
0.007153
  0
VERTEX
  8
0
 10
10.576719
 20
13.208000
 42
-0.003790
  0
VERTEX
  8
0
 10
10.615625
 20
12.984727
 42
-0.001731
  0
VERTEX
  8
0
 10
10.663213
 20
12.692592
 42
-0.001714
  0
VERTEX
  8
0
 10
10.711227
 20
12.384487
 42
-0.002360
  0
VERTEX
  8
0
 10
10.752107
 20
12.107333
 42
0.008605
  0
VERTEX
  8
0
 10
10.792804
 20
11.853433
 42
0.010266
  0
VERTEX
  8
0
 10
10.840176
 20
11.615678
 42
0.009147
  0
VERTEX
  8
0
 10
10.887719
 20
11.417545
 42
0.063804
  0
VERTEX
  8
0
 10
10.924688
 20
11.325316
 42
-0.047415
  0
VERTEX
  8
0
 10
10.956150
 20
11.253694
 42
-0.023964
  0
VERTEX
  8
0
 10
10.982586
 20
11.158632
 42
-0.023564
  0
VERTEX
  8
0
 10
11.000677
 20
11.057016
 42
-0.032279
  0
VERTEX
  8
0
 10
11.006667
 20
10.964333
 42
0.030217
  0
VERTEX
  8
0
 10
11.012273
 20
10.871652
 42
0.022164
  0
VERTEX
  8
0
 10
11.029209
 20
10.770035
 42
0.022538
  0
VERTEX
  8
0
 10
11.053950
 20
10.674945
 42
0.045399
  0
VERTEX
  8
0
 10
11.083407
 20
10.603351
 42
-0.047053
  0
VERTEX
  8
0
 10
11.121365
 20
10.510228
 42
-0.005891
  0
VERTEX
  8
0
 10
11.181936
 20
10.300553
 42
-0.006891
  0
VERTEX
  8
0
 10
11.247656
 20
10.049117
 42
-0.005665
  0
VERTEX
  8
0
 10
11.311059
 20
9.779000
 42
0.006619
  0
VERTEX
  8
0
 10
11.373869
 20
9.513686
 42
0.009092
  0
VERTEX
  8
0
 10
11.437815
 20
9.277006
 42
0.006312
  0
VERTEX
  8
0
 10
11.497133
 20
9.081577
 42
0.100193
  0
VERTEX
  8
0
 10
11.530652
 20
9.021233
 42
-0.083230
  0
VERTEX
  8
0
 10
11.557071
 20
8.977227
 42
-0.031424
  0
VERTEX
  8
0
 10
11.579158
 20
8.908692
 42
-0.030068
  0
VERTEX
  8
0
 10
11.594272
 20
8.829605
 42
-0.032188
  0
VERTEX
  8
0
 10
11.599333
 20
8.751063
 42
0.036385
  0
VERTEX
  8
0
 10
11.604873
 20
8.675034
 42
0.040604
  0
VERTEX
  8
0
 10
11.621385
 20
8.603433
 42
0.044552
  0
VERTEX
  8
0
 10
11.645524
 20
8.545834
 42
0.133619
  0
VERTEX
  8
0
 10
11.674402
 20
8.514932
 42
-0.142149
  0
VERTEX
  8
0
 10
11.706969
 20
8.478891
 42
-0.023408
  0
VERTEX
  8
0
 10
11.744375
 20
8.391781
 42
-0.024117
  0
VERTEX
  8
0
 10
11.779593
 20
8.282054
 42
-0.019228
  0
VERTEX
  8
0
 10
11.807194
 20
8.160845
 42
0.011913
  0
VERTEX
  8
0
 10
11.834358
 20
8.032942
 42
0.011017
  0
VERTEX
  8
0
 10
11.868229
 20
7.903076
 42
0.011080
  0
VERTEX
  8
0
 10
11.903490
 20
7.788813
 42
0.035738
  0
VERTEX
  8
0
 10
11.933914
 20
7.715410
 42
-0.008806
  0
VERTEX
  8
0
 10
11.966916
 20
7.646522
 42
-0.003385
  0
VERTEX
  8
0
 10
12.010415
 20
7.549734
 42
-0.003351
  0
VERTEX
  8
0
 10
12.056203
 20
7.444069
 42
-0.004121
  0
VERTEX
  8
0
 10
12.097455
 20
7.344833
 42
0.000316
  0
VERTEX
  8
0
 10
12.139369
 20
7.241801
 42
0.000214
  0
VERTEX
  8
0
 10
12.187258
 20
7.124435
 42
0.000216
  0
VERTEX
  8
0
 10
12.233625
 20
7.011079
 42
0.000431
  0
VERTEX
  8
0
 10
12.270402
 20
6.921500
 42
0.014202
  0
VERTEX
  8
0
 10
12.463379
 20
6.488010
 42
0.003669
  0
VERTEX
  8
0
 10
12.799328
 20
5.800583
 42
0.003290
  0
VERTEX
  8
0
 10
13.142440
 20
5.122585
 42
0.020446
  0
VERTEX
  8
0
 10
13.334676
 20
4.783667
 42
-0.004049
  0
VERTEX
  8
0
 10
13.419641
 20
4.644694
 42
-0.004307
  0
VERTEX
  8
0
 10
13.500590
 20
4.507177
 42
-0.004105
  0
VERTEX
  8
0
 10
13.568247
 20
4.387687
 42
-0.019814
  0
VERTEX
  8
0
 10
13.603416
 20
4.318000
 42
0.016915
  0
VERTEX
  8
0
 10
13.629145
 20
4.266275
 42
0.016410
  0
VERTEX
  8
0
 10
13.658557
 20
4.215871
 42
0.016563
  0
VERTEX
  8
0
 10
13.687313
 20
4.173306
 42
0.056558
  0
VERTEX
  8
0
 10
13.709824
 20
4.148667
 42
-0.046872
  0
VERTEX
  8
0
 10
13.742293
 20
4.114478
 42
-0.000965
  0
VERTEX
  8
0
 10
13.887799
 20
3.928535
 42
-0.002255
  0
VERTEX
  8
0
 10
14.056582
 20
3.709959
 42
-0.001514
  0
VERTEX
  8
0
 10
14.247576
 20
3.458729
 42
0.021079
  0
VERTEX
  8
0
 10
14.673684
 20
2.941541
 42
0.018941
  0
VERTEX
  8
0
 10
15.156720
 20
2.442568
 42
0.019712
  0
VERTEX
  8
0
 10
15.638152
 20
2.016616
 42
0.039643
  0
VERTEX
  8
0
 10
16.054863
 20
1.728049
 42
0.005314
  0
VERTEX
  8
0
 10
16.499115
 20
1.476162
 42
0.014826
  0
VERTEX
  8
0
 10
16.817675
 20
1.312129
 42
0.018903
  0
VERTEX
  8
0
 10
17.050298
 20
1.211559
 42
0.092830
  0
VERTEX
  8
0
 10
17.190338
 20
1.185333
 42
-0.042268
  0
VERTEX
  8
0
 10
17.254016
 20
1.179940
 42
-0.061882
  0
VERTEX
  8
0
 10
17.307807
 20
1.163737
 42
-0.081280
  0
VERTEX
  8
0
 10
17.344277
 20
1.139927
 42
-0.210583
  0
VERTEX
  8
0
 10
17.356667
 20
1.111815
 42
0.358279
  0
VERTEX
  8
0
 10
17.430890
 20
1.021528
 42
0.018442
  0
VERTEX
  8
0
 10
17.831370
 20
0.957806
 42
0.020733
  0
VERTEX
  8
0
 10
18.380456
 20
0.914088
 42
0.009752
  0
VERTEX
  8
0
 10
19.092333
 20
0.900924
 42
0.006832
  0
VERTEX
  8
0
 10
19.728019
 20
0.910254
 42
0.021551
  0
VERTEX
  8
0
 10
20.153082
 20
0.940671
 42
0.030822
  0
VERTEX
  8
0
 10
20.480775
 20
0.999000
 42
0.034711
  0
VERTEX
  8
0
 10
20.785667
 20
1.095716
 42
0.011190
  0
VERTEX
  8
0
 10
21.235593
 20
1.285384
 42
0.007717
  0
VERTEX
  8
0
 10
21.736699
 20
1.519314
 42
0.006228
  0
VERTEX
  8
0
 10
22.190548
 20
1.746805
 42
0.045991
  0
VERTEX
  8
0
 10
22.394333
 20
1.877144
 42
0.008733
  0
VERTEX
  8
0
 10
23.115339
 20
2.458291
 42
0.014385
  0
VERTEX
  8
0
 10
23.701516
 20
2.977233
 42
0.015684
  0
VERTEX
  8
0
 10
24.219466
 20
3.494531
 42
0.013561
  0
VERTEX
  8
0
 10
24.730508
 20
4.068413
 42
0.012355
  0
VERTEX
  8
0
 10
25.078478
 20
4.502509
 42
0.005529
  0
VERTEX
  8
0
 10
25.515497
 20
5.089538
 42
0.001472
  0
VERTEX
  8
0
 10
25.961345
 20
5.706269
 42
0.157022
  0
VERTEX
  8
0
 10
25.992667
 20
5.803546
 42
-0.110896
  0
VERTEX
  8
0
 10
25.998048
 20
5.827512
 42
-0.023152
  0
VERTEX
  8
0
 10
26.018371
 20
5.865791
 42
-0.023233
  0
VERTEX
  8
0
 10
26.046673
 20
5.908912
 42
-0.020130
  0
VERTEX
  8
0
 10
26.080171
 20
5.951407
 42
0.051576
  0
VERTEX
  8
0
 10
26.400823
 20
6.415374
 42
0.003896
  0
VERTEX
  8
0
 10
27.126198
 20
7.762694
 42
0.002138
  0
VERTEX
  8
0
 10
27.868898
 20
9.183002
 42
0.117083
  0
VERTEX
  8
0
 10
27.941534
 20
9.474224
 42
-0.582003
  0
VERTEX
  8
0
 10
27.963495
 20
9.486373
 42
-0.085367
  0
VERTEX
  8
0
 10
28.012180
 20
9.443745
 42
-0.031642
  0
VERTEX
  8
0
 10
28.088665
 20
9.336163
 42
-0.012698
  0
VERTEX
  8
0
 10
28.179878
 20
9.180269
 42
0.039974
  0
VERTEX
  8
0
 10
28.675348
 20
8.430407
 42
0.021127
  0
VERTEX
  8
0
 10
29.399299
 20
7.581375
 42
0.020157
  0
VERTEX
  8
0
 10
30.153769
 20
6.831724
 42
0.072761
  0
VERTEX
  8
0
 10
30.712833
 20
6.452017
 42
-0.018948
  0
VERTEX
  8
0
 10
30.818234
 20
6.395900
 42
-0.026750
  0
VERTEX
  8
0
 10
30.907170
 20
6.337553
 42
-0.025462
  0
VERTEX
  8
0
 10
30.972794
 20
6.283938
 42
-0.211800
  0
VERTEX
  8
0
 10
30.988000
 20
6.249652
 42
0.178251
  0
VERTEX
  8
0
 10
30.997694
 20
6.223324
 42
0.092160
  0
VERTEX
  8
0
 10
31.025306
 20
6.200931
 42
0.072221
  0
VERTEX
  8
0
 10
31.066409
 20
6.185768
 42
0.052352
  0
VERTEX
  8
0
 10
31.115000
 20
6.180667
 42
-0.064853
  0
VERTEX
  8
0
 10
31.163553
 20
6.174343
 42
-0.082425
  0
VERTEX
  8
0
 10
31.204694
 20
6.155796
 42
-0.098894
  0
VERTEX
  8
0
 10
31.232215
 20
6.128288
 42
-0.148195
  0
VERTEX
  8
0
 10
31.242000
 20
6.096000
 42
0.174820
  0
VERTEX
  8
0
 10
31.253652
 20
6.063692
 42
0.093122
  0
VERTEX
  8
0
 10
31.286767
 20
6.036204
 42
0.073362
  0
VERTEX
  8
0
 10
31.336096
 20
6.017601
 42
0.053595
  0
VERTEX
  8
0
 10
31.394400
 20
6.011333
 42
-0.041423
  0
VERTEX
  8
0
 10
31.458651
 20
6.006001
 42
-0.034010
  0
VERTEX
  8
0
 10
31.525660
 20
5.990057
 42
-0.035240
  0
VERTEX
  8
0
 10
31.585524
 20
5.966698
 42
-0.072776
  0
VERTEX
  8
0
 10
31.627233
 20
5.938905
 42
0.098644
  0
VERTEX
  8
0
 10
31.770224
 20
5.853885
 42
0.009578
  0
VERTEX
  8
0
 10
32.154499
 20
5.726275
 42
0.011463
  0
VERTEX
  8
0
 10
32.541935
 20
5.615477
 42
0.063992
  0
VERTEX
  8
0
 10
32.755745
 20
5.588000
 42
-0.045499
  0
VERTEX
  8
0
 10
32.824501
 20
5.581730
 42
-0.045682
  0
VERTEX
  8
0
 10
32.890892
 20
5.563129
 42
-0.049716
  0
VERTEX
  8
0
 10
32.945493
 20
5.535817
 42
-0.114003
  0
VERTEX
  8
0
 10
32.977667
 20
5.503333
 42
0.255603
  0
VERTEX
  8
0
 10
33.109037
 20
5.428685
 42
0.003570
  0
VERTEX
  8
0
 10
34.054117
 20
5.420081
 42
0.008077
  0
VERTEX
  8
0
 10
34.944818
 20
5.432722
 42
0.067156
  0
VERTEX
  8
0
 10
35.342322
 20
5.498690
 42
-0.002419
  0
VERTEX
  8
0
 10
35.476210
 20
5.539188
 42
-0.000778
  0
VERTEX
  8
0
 10
35.675180
 20
5.597986
 42
-0.000776
  0
VERTEX
  8
0
 10
35.896774
 20
5.662721
 42
-0.000870
  0
VERTEX
  8
0
 10
36.110333
 20
5.724347
 42
0.056625
  0
VERTEX
  8
0
 10
37.008780
 20
6.096100
 42
0.036783
  0
VERTEX
  8
0
 10
37.950388
 20
6.711647
 42
0.033639
  0
VERTEX
  8
0
 10
38.882767
 20
7.529029
 42
0.028451
  0
VERTEX
  8
0
 10
39.754280
 20
8.509000
 42
-0.002008
  0
VERTEX
  8
0
 10
39.886290
 20
8.674258
 42
-0.002831
  0
VERTEX
  8
0
 10
40.005376
 20
8.820415
 42
-0.001646
  0
VERTEX
  8
0
 10
40.106868
 20
8.942724
 42
-0.039178
  0
VERTEX
  8
0
 10
40.138107
 20
8.974667
 42
0.083020
  0
VERTEX
  8
0
 10
40.371121
 20
9.258777
 42
0.005180
  0
VERTEX
  8
0
 10
40.904155
 20
10.209728
 42
0.008422
  0
VERTEX
  8
0
 10
41.419183
 20
11.190168
 42
0.020158
  0
VERTEX
  8
0
 10
41.759017
 20
11.938000
 42
-0.002067
  0
VERTEX
  8
0
 10
41.796191
 20
12.028345
 42
-0.001684
  0
VERTEX
  8
0
 10
41.836727
 20
12.124796
 42
-0.001701
  0
VERTEX
  8
0
 10
41.874657
 20
12.213366
 42
-0.004446
  0
VERTEX
  8
0
 10
41.902692
 20
12.276667
 42
0.022571
  0
VERTEX
  8
0
 10
41.933613
 20
12.353932
 42
0.003215
  0
VERTEX
  8
0
 10
41.988823
 20
12.515585
 42
0.003652
  0
VERTEX
  8
0
 10
42.051556
 20
12.707859
 42
0.003107
  0
VERTEX
  8
0
 10
42.115016
 20
12.911667
 42
-0.004787
  0
VERTEX
  8
0
 10
42.179689
 20
13.116936
 42
-0.005334
  0
VERTEX
  8
0
 10
42.246065
 20
13.313628
 42
-0.004945
  0
VERTEX
  8
0
 10
42.306059
 20
13.480037
 42
-0.027787
  0
VERTEX
  8
0
 10
42.343870
 20
13.566684
 42
0.037475
  0
VERTEX
  8
0
 10
42.372290
 20
13.635411
 42
0.022159
  0
VERTEX
  8
0
 10
42.396224
 20
13.720932
 42
0.022095
  0
VERTEX
  8
0
 10
42.412634
 20
13.808916
 42
0.035067
  0
VERTEX
  8
0
 10
42.418000
 20
13.885333
 42
-0.038013
  0
VERTEX
  8
0
 10
42.423818
 20
13.961751
 42
-0.023781
  0
VERTEX
  8
0
 10
42.441610
 20
14.049734
 42
-0.023824
  0
VERTEX
  8
0
 10
42.467566
 20
14.135238
 42
-0.039508
  0
VERTEX
  8
0
 10
42.498376
 20
14.203982
 42
0.053458
  0
VERTEX
  8
0
 10
42.535286
 20
14.292891
 42
0.009161
  0
VERTEX
  8
0
 10
42.583846
 20
14.469474
 42
0.009893
  0
VERTEX
  8
0
 10
42.633163
 20
14.679856
 42
0.008686
  0
VERTEX
  8
0
 10
42.676471
 20
14.901333
 42
-0.000923
  0
VERTEX
  8
0
 10
42.719833
 20
15.142948
 42
-0.000651
  0
VERTEX
  8
0
 10
42.769426
 20
15.414360
 42
-0.000657
  0
VERTEX
  8
0
 10
42.817528
 20
15.673777
 42
-0.001384
  0
VERTEX
  8
0
 10
42.855691
 20
15.875000
 42
0.023525
  0
VERTEX
  8
0
 10
43.023730
 20
17.040794
 42
0.011699
  0
VERTEX
  8
0
 10
43.132205
 20
18.529899
 42
0.011367
  0
VERTEX
  8
0
 10
43.170660
 20
19.975791
 42
0.034682
  0
VERTEX
  8
0
 10
43.106450
 20
20.955000
 42
-0.005165
  0
VERTEX
  8
0
 10
43.068339
 20
21.259561
 42
-0.003246
  0
VERTEX
  8
0
 10
43.029786
 20
21.616258
 42
-0.003258
  0
VERTEX
  8
0
 10
42.996411
 20
21.967784
 42
-0.005957
  0
VERTEX
  8
0
 10
42.974479
 20
22.254941
 42
0.000000
  0
VERTEX
  8
0
 10
42.934381
 20
22.877548
 42
0.000000
  0
VERTEX
  8
0
 10
43.205357
 20
22.831027
 42
-0.003236
  0
VERTEX
  8
0
 10
43.704043
 20
22.742087
 42
-0.004297
  0
VERTEX
  8
0
 10
44.156350
 20
22.654369
 42
-0.004651
  0
VERTEX
  8
0
 10
44.534657
 20
22.573952
 42
-0.014269
  0
VERTEX
  8
0
 10
44.788667
 20
22.509826
 42
0.070467
  0
VERTEX
  8
0
 10
45.259486
 20
22.445816
 42
0.002326
  0
VERTEX
  8
0
 10
47.158019
 20
22.465231
 42
0.004433
  0
VERTEX
  8
0
 10
48.983440
 20
22.508582
 42
0.022370
  0
VERTEX
  8
0
 10
50.000017
 20
22.587364
 42
0.008106
  0
VERTEX
  8
0
 10
50.606005
 20
22.671702
 42
0.010384
  0
VERTEX
  8
0
 10
51.160606
 20
22.769913
 42
0.009575
  0
VERTEX
  8
0
 10
51.616909
 20
22.869645
 42
0.062606
  0
VERTEX
  8
0
 10
51.836018
 20
22.951964
 42
-0.037449
  0
VERTEX
  8
0
 10
51.904327
 20
22.981619
 42
-0.023006
  0
VERTEX
  8
0
 10
51.988460
 20
23.006606
 42
-0.023012
  0
VERTEX
  8
0
 10
52.074471
 20
23.023744
 42
-0.037684
  0
VERTEX
  8
0
 10
52.148521
 20
23.029333
 42
0.046572
  0
VERTEX
  8
0
 10
52.215704
 20
23.035605
 42
0.046179
  0
VERTEX
  8
0
 10
52.280766
 20
23.054204
 42
0.050144
  0
VERTEX
  8
0
 10
52.334423
 20
23.081524
 42
0.111983
  0
VERTEX
  8
0
 10
52.366333
 20
23.114000
 42
-0.100030
  0
VERTEX
  8
0
 10
52.396772
 20
23.146479
 42
-0.051918
  0
VERTEX
  8
0
 10
52.445345
 20
23.173949
 42
-0.048678
  0
VERTEX
  8
0
 10
52.503184
 20
23.192710
 42
-0.053235
  0
VERTEX
  8
0
 10
52.561830
 20
23.199188
 42
0.058781
  0
VERTEX
  8
0
 10
52.633285
 20
23.207882
 42
0.019904
  0
VERTEX
  8
0
 10
52.734182
 20
23.236710
 42
0.019481
  0
VERTEX
  8
0
 10
52.844157
 20
23.277736
 42
0.021180
  0
VERTEX
  8
0
 10
52.947511
 20
23.326188
 42
-0.017749
  0
VERTEX
  8
0
 10
53.048965
 20
23.374601
 42
-0.017936
  0
VERTEX
  8
0
 10
53.153248
 20
23.415514
 42
-0.018053
  0
VERTEX
  8
0
 10
53.246378
 20
23.444516
 42
-0.066548
  0
VERTEX
  8
0
 10
53.307345
 20
23.452667
 42
0.070471
  0
VERTEX
  8
0
 10
53.352182
 20
23.459018
 42
0.086136
  0
VERTEX
  8
0
 10
53.390203
 20
23.477538
 42
0.100202
  0
VERTEX
  8
0
 10
53.415623
 20
23.505047
 42
0.137407
  0
VERTEX
  8
0
 10
53.424667
 20
23.537333
 42
-0.123661
  0
VERTEX
  8
0
 10
53.432804
 20
23.569731
 42
-0.099366
  0
VERTEX
  8
0
 10
53.455755
 20
23.597526
 42
-0.089502
  0
VERTEX
  8
0
 10
53.490071
 20
23.616450
 42
-0.078322
  0
VERTEX
  8
0
 10
53.530500
 20
23.623352
 42
0.161439
  0
VERTEX
  8
0
 10
53.666571
 20
23.670401
 42
0.021545
  0
VERTEX
  8
0
 10
53.902834
 20
23.867830
 42
0.024131
  0
VERTEX
  8
0
 10
54.159883
 20
24.125925
 42
0.022401
  0
VERTEX
  8
0
 10
54.397675
 20
24.413852
 42
0.034665
  0
VERTEX
  8
0
 10
54.532559
 20
24.621435
 42
0.062427
  0
VERTEX
  8
0
 10
54.608155
 20
24.809486
 42
0.043158
  0
VERTEX
  8
0
 10
54.650336
 20
25.053354
 42
0.009309
  0
VERTEX
  8
0
 10
54.678779
 20
25.481130
 42
0.037160
  0
VERTEX
  8
0
 10
54.661645
 20
26.127218
 42
0.081589
  0
VERTEX
  8
0
 10
54.533182
 20
26.603187
 42
0.081775
  0
VERTEX
  8
0
 10
54.259431
 20
27.012378
 42
0.037464
  0
VERTEX
  8
0
 10
53.785141
 20
27.448148
 42
0.090855
  0
VERTEX
  8
0
 10
53.347375
 20
27.679956
 42
0.043315
  0
VERTEX
  8
0
 10
52.723270
 20
27.818995
 42
0.042014
  0
VERTEX
  8
0
 10
52.045068
 20
27.852014
 42
0.055897
  0
VERTEX
  8
0
 10
51.435000
 20
27.761678
 42
-0.003877
  0
VERTEX
  8
0
 10
51.288296
 20
27.724073
 42
-0.002972
  0
VERTEX
  8
0
 10
51.127422
 20
27.685176
 42
-0.003005
  0
VERTEX
  8
0
 10
50.976437
 20
27.650575
 42
-0.007115
  0
VERTEX
  8
0
 10
50.863500
 20
27.627088
 42
0.025621
  0
VERTEX
  8
0
 10
50.774311
 20
27.605069
 42
0.037712
  0
VERTEX
  8
0
 10
50.699061
 20
27.575998
 42
0.042373
  0
VERTEX
  8
0
 10
50.645352
 20
27.544619
 42
0.244015
  0
VERTEX
  8
0
 10
50.630667
 20
27.516320
 42
-0.326864
  0
VERTEX
  8
0
 10
50.592383
 20
27.464015
 42
-0.023428
  0
VERTEX
  8
0
 10
50.408057
 20
27.414925
 42
-0.015075
  0
VERTEX
  8
0
 10
50.087557
 20
27.355514
 42
-0.002304
  0
VERTEX
  8
0
 10
49.445333
 20
27.259416
 42
0.003479
  0
VERTEX
  8
0
 10
49.171028
 20
27.217712
 42
0.002663
  0
VERTEX
  8
0
 10
48.871695
 20
27.168433
 42
0.002693
  0
VERTEX
  8
0
 10
48.591968
 20
27.119299
 42
0.006364
  0
VERTEX
  8
0
 10
48.384224
 20
27.078917
 42
-0.057767
  0
VERTEX
  8
0
 10
47.735833
 20
27.020853
 42
-0.012200
  0
VERTEX
  8
0
 10
46.599206
 20
27.078292
 42
-0.011343
  0
VERTEX
  8
0
 10
45.469522
 20
27.188871
 42
-0.072485
  0
VERTEX
  8
0
 10
44.915667
 20
27.339163
 42
0.016165
  0
VERTEX
  8
0
 10
44.825568
 20
27.374875
 42
0.004666
  0
VERTEX
  8
0
 10
44.684156
 20
27.424215
 42
0.004688
  0
VERTEX
  8
0
 10
44.523620
 20
27.476881
 42
0.004982
  0
VERTEX
  8
0
 10
44.365333
 20
27.525439
 42
-0.009424
  0
VERTEX
  8
0
 10
44.203949
 20
27.576520
 42
-0.007807
  0
VERTEX
  8
0
 10
44.034075
 20
27.636803
 42
-0.007898
  0
VERTEX
  8
0
 10
43.880059
 20
27.696968
 42
-0.020954
  0
VERTEX
  8
0
 10
43.772667
 20
27.746234
 42
0.016095
  0
VERTEX
  8
0
 10
43.684687
 20
27.787635
 42
0.016749
  0
VERTEX
  8
0
 10
43.595374
 20
27.822702
 42
0.016673
  0
VERTEX
  8
0
 10
43.516357
 20
27.847778
 42
0.067212
  0
VERTEX
  8
0
 10
43.466351
 20
27.854812
 42
-0.119592
  0
VERTEX
  8
0
 10
43.256599
 20
27.906935
 42
-0.001610
  0
VERTEX
  8
0
 10
42.071129
 20
28.531412
 42
-0.005181
  0
VERTEX
  8
0
 10
40.913736
 20
29.161329
 42
-0.010060
  0
VERTEX
  8
0
 10
40.005000
 20
29.692434
 42
0.006392
  0
VERTEX
  8
0
 10
39.930880
 20
29.736485
 42
0.004775
  0
VERTEX
  8
0
 10
39.848102
 20
29.783213
 42
0.004827
  0
VERTEX
  8
0
 10
39.769253
 20
29.825748
 42
0.010961
  0
VERTEX
  8
0
 10
39.708667
 20
29.856002
 42
-0.033038
  0
VERTEX
  8
0
 10
39.626755
 20
29.901525
 42
-0.002074
  0
VERTEX
  8
0
 10
39.395135
 20
30.052436
 42
-0.003051
  0
VERTEX
  8
0
 10
39.120795
 20
30.235214
 42
-0.002261
  0
VERTEX
  8
0
 10
38.819667
 20
30.440491
 42
0.006953
  0
VERTEX
  8
0
 10
38.503092
 20
30.651974
 42
0.007038
  0
VERTEX
  8
0
 10
38.182021
 20
30.853703
 42
0.006885
  0
VERTEX
  8
0
 10
37.897793
 20
31.021433
 42
0.028329
  0
VERTEX
  8
0
 10
37.719000
 20
31.110620
 42
-0.003154
  0
VERTEX
  8
0
 10
37.578558
 20
31.172058
 42
-0.003006
  0
VERTEX
  8
0
 10
37.436630
 20
31.236241
 42
-0.002981
  0
VERTEX
  8
0
 10
37.311921
 20
31.294446
 42
-0.010689
  0
VERTEX
  8
0
 10
37.233316
 20
31.333784
 42
0.037505
  0
VERTEX
  8
0
 10
37.165006
 20
31.363508
 42
0.023053
  0
VERTEX
  8
0
 10
37.080873
 20
31.388553
 42
0.023061
  0
VERTEX
  8
0
 10
36.994863
 20
31.405731
 42
0.037771
  0
VERTEX
  8
0
 10
36.920812
 20
31.411333
 42
-0.046572
  0
VERTEX
  8
0
 10
36.853629
 20
31.417605
 42
-0.046179
  0
VERTEX
  8
0
 10
36.788567
 20
31.436204
 42
-0.050144
  0
VERTEX
  8
0
 10
36.734911
 20
31.463524
 42
-0.111983
  0
VERTEX
  8
0
 10
36.703000
 20
31.496000
 42
0.257949
  0
VERTEX
  8
0
 10
36.557331
 20
31.577927
 42
0.002940
  0
VERTEX
  8
0
 10
35.401610
 20
31.579729
 42
0.006835
  0
VERTEX
  8
0
 10
34.315454
 20
31.560187
 42
0.069732
  0
VERTEX
  8
0
 10
33.872678
 20
31.483771
 42
0.021172
  0
VERTEX
  8
0
 10
32.817155
 20
31.095512
 42
0.036460
  0
VERTEX
  8
0
 10
31.981658
 20
30.673523
 42
0.037401
  0
VERTEX
  8
0
 10
31.230821
 20
30.142738
 42
0.023697
  0
VERTEX
  8
0
 10
30.437156
 20
29.421667
 42
0.005804
  0
VERTEX
  8
0
 10
30.040652
 20
29.016256
 42
0.012066
  0
VERTEX
  8
0
 10
29.742925
 20
28.689241
 42
0.015158
  0
VERTEX
  8
0
 10
29.512531
 20
28.406714
 42
0.021621
  0
VERTEX
  8
0
 10
29.326980
 20
28.141548
 42
-0.008293
  0
VERTEX
  8
0
 10
29.263195
 20
28.045018
 42
-0.010027
  0
VERTEX
  8
0
 10
29.200050
 20
27.956671
 42
-0.008796
  0
VERTEX
  8
0
 10
29.144326
 20
27.884603
 42
-0.065285
  0
VERTEX
  8
0
 10
29.113103
 20
27.854651
 42
0.107626
  0
VERTEX
  8
0
 10
28.974664
 20
27.697484
 42
0.002244
  0
VERTEX
  8
0
 10
28.469479
 20
26.779774
 42
0.005212
  0
VERTEX
  8
0
 10
28.003875
 20
25.903279
 42
0.026508
  0
VERTEX
  8
0
 10
27.776174
 20
25.400000
 42
-0.001694
  0
VERTEX
  8
0
 10
27.723036
 20
25.265107
 42
-0.000988
  0
VERTEX
  8
0
 10
27.658438
 20
25.103667
 42
-0.000987
  0
VERTEX
  8
0
 10
27.593104
 20
24.942241
 42
-0.001672
  0
VERTEX
  8
0
 10
27.537667
 20
24.807333
 42
0.000169
  0
VERTEX
  8
0
 10
27.485502
 20
24.681466
 42
0.000143
  0
VERTEX
  8
0
 10
27.430411
 20
24.548306
 42
0.000144
  0
VERTEX
  8
0
 10
27.380249
 20
24.426861
 42
0.000403
  0
VERTEX
  8
0
 10
27.345169
 20
24.341667
 42
0.018079
  0
VERTEX
  8
0
 10
27.309638
 20
24.245421
 42
0.003707
  0
VERTEX
  8
0
 10
27.254344
 20
24.072850
 42
0.003898
  0
VERTEX
  8
0
 10
27.193110
 20
23.871238
 42
0.003655
  0
VERTEX
  8
0
 10
27.133666
 20
23.664333
 42
-0.003696
  0
VERTEX
  8
0
 10
27.074204
 20
23.457428
 42
-0.003942
  0
VERTEX
  8
0
 10
27.012913
 20
23.255817
 42
-0.003749
  0
VERTEX
  8
0
 10
26.957540
 20
23.083251
 42
-0.018273
  0
VERTEX
  8
0
 10
26.921909
 20
22.987000
 42
0.043476
  0
VERTEX
  8
0
 10
26.828052
 20
22.688029
 42
0.005068
  0
VERTEX
  8
0
 10
26.683829
 20
22.001817
 42
0.006368
  0
VERTEX
  8
0
 10
26.537706
 20
21.217898
 42
0.006788
  0
VERTEX
  8
0
 10
26.414899
 20
20.447000
 42
-0.004207
  0
VERTEX
  8
0
 10
26.338536
 20
19.951190
 42
-0.012163
  0
VERTEX
  8
0
 10
26.274445
 20
19.609761
 42
-0.014692
  0
VERTEX
  8
0
 10
26.216629
 20
19.372748
 42
-0.093014
  0
VERTEX
  8
0
 10
26.162403
 20
19.261667
 42
0.076528
  0
VERTEX
  8
0
 10
26.134488
 20
19.208936
 42
0.013668
  0
VERTEX
  8
0
 10
26.100735
 20
19.102388
 42
0.014485
  0
VERTEX
  8
0
 10
26.067938
 20
18.974200
 42
0.012625
  0
VERTEX
  8
0
 10
26.040925
 20
18.838333
 42
-0.014863
  0
VERTEX
  8
0
 10
25.980317
 20
18.540473
 42
-0.012935
  0
VERTEX
  8
0
 10
25.899596
 20
18.232487
 42
-0.013251
  0
VERTEX
  8
0
 10
25.811219
 20
17.955350
 42
-0.033162
  0
VERTEX
  8
0
 10
25.728273
 20
17.759982
 42
0.025720
  0
VERTEX
  8
0
 10
25.699837
 20
17.695679
 42
0.020735
  0
VERTEX
  8
0
 10
25.675818
 20
17.624035
 42
0.021204
  0
VERTEX
  8
0
 10
25.659169
 20
17.555889
 42
0.049342
  0
VERTEX
  8
0
 10
25.654000
 20
17.503633
 42
-0.073193
  0
VERTEX
  8
0
 10
25.631435
 20
17.350313
 42
-0.002304
  0
VERTEX
  8
0
 10
25.446118
 20
16.744501
 42
-0.004255
  0
VERTEX
  8
0
 10
25.260775
 20
16.165855
 42
-0.026328
  0
VERTEX
  8
0
 10
25.147583
 20
15.875000
 42
0.025355
  0
VERTEX
  8
0
 10
25.114216
 20
15.789750
 42
0.009940
  0
VERTEX
  8
0
 10
25.076588
 20
15.669177
 42
0.009809
  0
VERTEX
  8
0
 10
25.040978
 20
15.536913
 42
0.012055
  0
VERTEX
  8
0
 10
25.013165
 20
15.412112
 42
-0.011072
  0
VERTEX
  8
0
 10
24.986249
 20
15.290205
 42
-0.010313
  0
VERTEX
  8
0
 10
24.953375
 20
15.166667
 42
-0.010350
  0
VERTEX
  8
0
 10
24.919629
 20
15.058114
 42
-0.034061
  0
VERTEX
  8
0
 10
24.891112
 20
14.988779
 42
0.008402
  0
VERTEX
  8
0
 10
24.859487
 20
14.921861
 42
0.002772
  0
VERTEX
  8
0
 10
24.815222
 20
14.822510
 42
0.002760
  0
VERTEX
  8
0
 10
24.767341
 20
14.711762
 42
0.003127
  0
VERTEX
  8
0
 10
24.722667
 20
14.605000
 42
-0.003127
  0
VERTEX
  8
0
 10
24.677993
 20
14.498238
 42
-0.002760
  0
VERTEX
  8
0
 10
24.630111
 20
14.387490
 42
-0.002772
  0
VERTEX
  8
0
 10
24.585846
 20
14.288139
 42
-0.008402
  0
VERTEX
  8
0
 10
24.554221
 20
14.221221
 42
0.031247
  0
VERTEX
  8
0
 10
24.525321
 20
14.152061
 42
0.009534
  0
VERTEX
  8
0
 10
24.490245
 20
14.044149
 42
0.009504
  0
VERTEX
  8
0
 10
24.455483
 20
13.921510
 42
0.010248
  0
VERTEX
  8
0
 10
24.426333
 20
13.800667
 42
-0.011097
  0
VERTEX
  8
0
 10
24.396966
 20
13.679824
 42
-0.010262
  0
VERTEX
  8
0
 10
24.361553
 20
13.557184
 42
-0.010309
  0
VERTEX
  8
0
 10
24.325534
 20
13.449310
 42
-0.033411
  0
VERTEX
  8
0
 10
24.295486
 20
13.380112
 42
0.013646
  0
VERTEX
  8
0
 10
24.184812
 20
13.150517
 42
0.004781
  0
VERTEX
  8
0
 10
24.038008
 20
12.814886
 42
0.001684
  0
VERTEX
  8
0
 10
23.889587
 20
12.463243
 42
0.099332
  0
VERTEX
  8
0
 10
23.876000
 20
12.395527
 42
-0.107819
  0
VERTEX
  8
0
 10
23.858885
 20
12.317079
 42
-0.001223
  0
VERTEX
  8
0
 10
23.632437
 20
11.825994
 42
-0.002995
  0
VERTEX
  8
0
 10
23.328120
 20
11.180415
 42
-0.001015
  0
VERTEX
  8
0
 10
22.877815
 20
10.244667
 42
-0.013152
  0
VERTEX
  8
0
 10
22.516211
 20
9.544710
 42
-0.006475
  0
VERTEX
  8
0
 10
22.021706
 20
8.673174
 42
-0.003247
  0
VERTEX
  8
0
 10
21.517323
 20
7.823169
 42
-0.083272
  0
VERTEX
  8
0
 10
21.343328
 20
7.620000
 42
0.046613
  0
VERTEX
  8
0
 10
21.313044
 20
7.589461
 42
0.003488
  0
VERTEX
  8
0
 10
21.239279
 20
7.498440
 42
0.004804
  0
VERTEX
  8
0
 10
21.152948
 20
7.388228
 42
0.003632
  0
VERTEX
  8
0
 10
21.060207
 20
7.265627
 42
-0.024784
  0
VERTEX
  8
0
 10
20.740744
 20
6.878481
 42
-0.014261
  0
VERTEX
  8
0
 10
20.320573
 20
6.443415
 42
-0.014024
  0
VERTEX
  8
0
 10
19.894558
 20
6.049517
 42
-0.038795
  0
VERTEX
  8
0
 10
19.567369
 20
5.805581
 42
-0.042627
  0
VERTEX
  8
0
 10
19.237103
 20
5.634524
 42
-0.131636
  0
VERTEX
  8
0
 10
18.990024
 20
5.601989
 42
-0.131901
  0
VERTEX
  8
0
 10
18.760074
 20
5.697353
 42
-0.042874
  0
VERTEX
  8
0
 10
18.486364
 20
5.947833
 42
-0.046157
  0
VERTEX
  8
0
 10
17.853936
 20
6.776753
 42
-0.027798
  0
VERTEX
  8
0
 10
17.256395
 20
7.860450
 42
-0.025011
  0
VERTEX
  8
0
 10
16.716039
 20
9.144526
 42
-0.019646
  0
VERTEX
  8
0
 10
16.256703
 20
10.583333
 42
0.002793
  0
VERTEX
  8
0
 10
16.212866
 20
10.738512
 42
0.002989
  0
VERTEX
  8
0
 10
16.168256
 20
10.889721
 42
0.002834
  0
VERTEX
  8
0
 10
16.128405
 20
11.019221
 42
0.014018
  0
VERTEX
  8
0
 10
16.103525
 20
11.091333
 42
-0.024073
  0
VERTEX
  8
0
 10
16.078617
 20
11.168526
 42
-0.003393
  0
VERTEX
  8
0
 10
16.036078
 20
11.330252
 42
-0.003864
  0
VERTEX
  8
0
 10
15.988477
 20
11.522525
 42
-0.003279
  0
VERTEX
  8
0
 10
15.941100
 20
11.726333
 42
0.000067
  0
VERTEX
  8
0
 10
15.891262
 20
11.947146
 42
0.000050
  0
VERTEX
  8
0
 10
15.836207
 20
12.190809
 42
0.000051
  0
VERTEX
  8
0
 10
15.784249
 20
12.420552
 42
0.000115
  0
VERTEX
  8
0
 10
15.744924
 20
12.594167
 42
-0.004276
  0
VERTEX
  8
0
 10
15.578691
 20
13.357498
 42
-0.007990
  0
VERTEX
  8
0
 10
15.459328
 20
13.978500
 42
-0.005756
  0
VERTEX
  8
0
 10
15.337326
 20
14.723114
 42
-0.001273
  0
VERTEX
  8
0
 10
15.146205
 20
16.002000
 42
-0.004372
  0
VERTEX
  8
0
 10
15.026231
 20
16.871872
 42
-0.007491
  0
VERTEX
  8
0
 10
14.943404
 20
17.599587
 42
-0.007016
  0
VERTEX
  8
0
 10
14.879019
 20
18.361382
 42
-0.003311
  0
VERTEX
  8
0
 10
14.816229
 20
19.346333
 42
0.002561
  0
VERTEX
  8
0
 10
14.776800
 20
19.979803
 42
0.002442
  0
VERTEX
  8
0
 10
14.730307
 20
20.622916
 42
0.002420
  0
VERTEX
  8
0
 10
14.683713
 20
21.190598
 42
0.008702
  0
VERTEX
  8
0
 10
14.645935
 20
21.552061
 42
-0.028524
  0
VERTEX
  8
0
 10
14.576341
 20
22.629400
 42
-0.001884
  0
VERTEX
  8
0
 10
14.564806
 20
25.740335
 42
-0.001877
  0
VERTEX
  8
0
 10
14.576675
 20
28.852155
 42
-0.028682
  0
VERTEX
  8
0
 10
14.646436
 20
29.925273
 42
0.009783
  0
VERTEX
  8
0
 10
14.684360
 20
30.293241
 42
0.002486
  0
VERTEX
  8
0
 10
14.731235
 20
30.891724
 42
0.002533
  0
VERTEX
  8
0
 10
14.777919
 20
31.575912
 42
0.002562
  0
VERTEX
  8
0
 10
14.817481
 20
32.258000
 42
-0.002178
  0
VERTEX
  8
0
 10
14.856677
 20
32.942874
 42
-0.002103
  0
VERTEX
  8
0
 10
14.902264
 20
33.635421
 42
-0.002077
  0
VERTEX
  8
0
 10
14.947506
 20
34.244926
 42
-0.007701
  0
VERTEX
  8
0
 10
14.983548
 20
34.628667
 42
0.001355
  0
VERTEX
  8
0
 10
15.017571
 20
34.947407
 42
0.000916
  0
VERTEX
  8
0
 10
15.054715
 20
35.311027
 42
0.000922
  0
VERTEX
  8
0
 10
15.089327
 20
35.662634
 42
0.001840
  0
VERTEX
  8
0
 10
15.115177
 20
35.941000
 42
-0.023437
  0
VERTEX
  8
0
 10
15.180615
 20
36.419975
 42
-0.052582
  0
VERTEX
  8
0
 10
15.284629
 20
36.771460
 42
-0.076031
  0
VERTEX
  8
0
 10
15.424301
 20
37.002082
 42
-0.163025
  0
VERTEX
  8
0
 10
15.599398
 20
37.109740
 42
-0.054838
  0
VERTEX
  8
0
 10
15.751979
 20
37.127905
 42
-0.000196
  0
VERTEX
  8
0
 10
17.574688
 20
37.143462
 42
-0.001048
  0
VERTEX
  8
0
 10
19.640122
 20
37.155948
 42
-0.000658
  0
VERTEX
  8
0
 10
22.055667
 20
37.162307
 42
0.000810
  0
VERTEX
  8
0
 10
26.051491
 20
37.174046
 42
0.005077
  0
VERTEX
  8
0
 10
28.093811
 20
37.204093
 42
0.003299
  0
VERTEX
  8
0
 10
29.419771
 20
37.245825
 42
0.249800
  0
VERTEX
  8
0
 10
29.598349
 20
37.349891
 42
-0.125000
  0
VERTEX
  8
0
 10
29.627270
 20
37.377851
 42
-0.047027
  0
VERTEX
  8
0
 10
29.678944
 20
37.401289
 42
-0.042881
  0
VERTEX
  8
0
 10
29.742629
 20
37.417287
 42
-0.040124
  0
VERTEX
  8
0
 10
29.809555
 20
37.422667
 42
0.162290
  0
VERTEX
  8
0
 10
30.011546
 20
37.490002
 42
0.026209
  0
VERTEX
  8
0
 10
30.334091
 20
37.759456
 42
0.029841
  0
VERTEX
  8
0
 10
30.641011
 20
38.080591
 42
0.063703
  0
VERTEX
  8
0
 10
30.827594
 20
38.367959
 42
0.023969
  0
VERTEX
  8
0
 10
31.030850
 20
38.847761
 42
0.051782
  0
VERTEX
  8
0
 10
31.129655
 20
39.235838
 42
0.061978
  0
VERTEX
  8
0
 10
31.137440
 20
39.589081
 42
0.051767
  0
VERTEX
  8
0
 10
31.060935
 20
39.956656
 42
0.016287
  0
VERTEX
  8
0
 10
30.935148
 20
40.310876
 42
0.039562
  0
VERTEX
  8
0
 10
30.813868
 20
40.560114
 42
0.041895
  0
VERTEX
  8
0
 10
30.659251
 20
40.778674
 42
0.020328
  0
VERTEX
  8
0
 10
30.428300
 20
41.031564
 42
0.030977
  0
VERTEX
  8
0
 10
30.151003
 20
41.278786
 42
0.040197
  0
VERTEX
  8
0
 10
29.867366
 20
41.466992
 42
0.040594
  0
VERTEX
  8
0
 10
29.559594
 20
41.606041
 42
0.032586
  0
VERTEX
  8
0
 10
29.210000
 20
41.705831
 42
0.049447
  0
VERTEX
  8
0
 10
28.978955
 20
41.732305
 42
0.000385
  0
VERTEX
  8
0
 10
27.102285
 20
41.759523
 42
0.001413
  0
VERTEX
  8
0
 10
24.949463
 20
41.783003
 42
0.000907
  0
VERTEX
  8
0
 10
22.450927
 20
41.798657
 42
0.000000
  0
VERTEX
  8
0
 10
15.988187
 20
41.827423
 42
0.000000
  0
VERTEX
  8
0
 10
16.031920
 20
42.397878
 42
-0.007519
  0
VERTEX
  8
0
 10
16.055632
 20
42.656165
 42
-0.004499
  0
VERTEX
  8
0
 10
16.091190
 20
42.962423
 42
-0.004503
  0
VERTEX
  8
0
 10
16.132087
 20
43.266728
 42
-0.007803
  0
VERTEX
  8
0
 10
16.172281
 20
43.518667
 42
0.017033
  0
VERTEX
  8
0
 10
16.266631
 20
44.189412
 42
0.017487
  0
VERTEX
  8
0
 10
16.314071
 20
44.859160
 42
0.015528
  0
VERTEX
  8
0
 10
16.316777
 20
45.435912
 42
0.104069
  0
VERTEX
  8
0
 10
16.250758
 20
45.713182
 42
0.000525
  0
VERTEX
  8
0
 10
16.201573
 20
45.817065
 42
0.000247
  0
VERTEX
  8
0
 10
16.137861
 20
45.951095
 42
0.000245
  0
VERTEX
  8
0
 10
16.071014
 20
46.091363
 42
0.000346
  0
VERTEX
  8
0
 10
16.011297
 20
46.216291
 42
0.069736
  0
VERTEX
  8
0
 10
15.853851
 20
46.453566
 42
0.029399
  0
VERTEX
  8
0
 10
15.583110
 20
46.725135
 42
0.029411
  0
VERTEX
  8
0
 10
15.272616
 20
46.970790
 42
0.051224
  0
VERTEX
  8
0
 10
14.986000
 20
47.130425
 42
0.031422
  0
VERTEX
  8
0
 10
14.726272
 20
47.223174
 42
0.012771
  0
VERTEX
  8
0
 10
14.362736
 20
47.317793
 42
0.012074
  0
VERTEX
  8
0
 10
14.004020
 20
47.392355
 42
0.046945
  0
VERTEX
  8
0
 10
13.778285
 20
47.412037
 42
0.036243
  0
VERTEX
  8
0
 10
13.696513
 20
47.405538
 42
0.026499
  0
VERTEX
  8
0
 10
13.607296
 20
47.387012
 42
0.026977
  0
VERTEX
  8
0
 10
13.524224
 20
47.360249
 42
0.052078
  0
SEQEND
  0
POLYLINE
  8
0
 66
1
 70
1
  0
VERTEX
  8
0
 10
35.341575
 20
26.765602
 42
0.130975
  0
VERTEX
  8
0
 10
35.375228
 20
26.733823
 42
0.026493
  0
VERTEX
  8
0
 10
35.450138
 20
26.698254
 42
0.026285
  0
VERTEX
  8
0
 10
35.544275
 20
26.665189
 42
0.021961
  0
VERTEX
  8
0
 10
35.647161
 20
26.639868
 42
-0.131521
  0
VERTEX
  8
0
 10
36.055837
 20
26.437931
 42
-0.044344
  0
VERTEX
  8
0
 10
36.518327
 20
25.952975
 42
-0.039486
  0
VERTEX
  8
0
 10
36.967921
 20
25.287455
 42
-0.031878
  0
VERTEX
  8
0
 10
37.344395
 20
24.511000
 42
-0.026756
  0
VERTEX
  8
0
 10
37.450768
 20
24.204677
 42
-0.005901
  0
VERTEX
  8
0
 10
37.598619
 20
23.668222
 42
-0.005865
  0
VERTEX
  8
0
 10
37.761097
 20
23.019471
 42
-0.004548
  0
VERTEX
  8
0
 10
37.923236
 20
22.309667
 42
-0.044349
  0
VERTEX
  8
0
 10
38.075523
 20
21.115471
 42
-0.009438
  0
VERTEX
  8
0
 10
38.116041
 20
19.019077
 42
-0.005915
  0
VERTEX
  8
0
 10
38.091664
 20
16.876925
 42
-0.117585
  0
VERTEX
  8
0
 10
37.925966
 20
16.247217
 42
0.046310
  0
VERTEX
  8
0
 10
37.895272
 20
16.174383
 42
0.023055
  0
VERTEX
  8
0
 10
37.869490
 20
16.077541
 42
0.022666
  0
VERTEX
  8
0
 10
37.851843
 20
15.973967
 42
0.030869
  0
VERTEX
  8
0
 10
37.846000
 20
15.879417
 42
-0.029199
  0
VERTEX
  8
0
 10
37.840484
 20
15.785041
 42
-0.021728
  0
VERTEX
  8
0
 10
37.823832
 20
15.681999
 42
-0.022117
  0
VERTEX
  8
0
 10
37.799509
 20
15.585895
 42
-0.045560
  0
VERTEX
  8
0
 10
37.770536
 20
15.514018
 42
0.032911
  0
VERTEX
  8
0
 10
37.732987
 20
15.427253
 42
0.005947
  0
VERTEX
  8
0
 10
37.675891
 20
15.260962
 42
0.006388
  0
VERTEX
  8
0
 10
37.613737
 20
15.064269
 42
0.005746
  0
VERTEX
  8
0
 10
37.554312
 20
14.859000
 42
-0.004459
  0
VERTEX
  8
0
 10
37.494544
 20
14.650541
 42
-0.004529
  0
VERTEX
  8
0
 10
37.431367
 20
14.444266
 42
-0.004409
  0
VERTEX
  8
0
 10
37.373226
 20
14.265882
 42
-0.018546
  0
VERTEX
  8
0
 10
37.333442
 20
14.160500
 42
0.001257
  0
VERTEX
  8
0
 10
37.297229
 20
14.073775
 42
0.000741
  0
VERTEX
  8
0
 10
37.254383
 20
13.970000
 42
0.000742
  0
VERTEX
  8
0
 10
37.211893
 20
13.866218
 42
0.001270
  0
VERTEX
  8
0
 10
37.176797
 20
13.779500
 42
-0.013494
  0
VERTEX
  8
0
 10
37.124976
 20
13.659947
 42
-0.001284
  0
VERTEX
  8
0
 10
36.989783
 20
13.371710
 42
-0.001639
  0
VERTEX
  8
0
 10
36.826561
 20
13.028940
 42
-0.001292
  0
VERTEX
  8
0
 10
36.647630
 20
12.658790
 42
-0.011023
  0
VERTEX
  8
0
 10
36.377810
 20
12.134004
 42
-0.028826
  0
VERTEX
  8
0
 10
36.154638
 20
11.773721
 42
-0.030071
  0
VERTEX
  8
0
 10
35.897096
 20
11.450207
 42
-0.012944
  0
VERTEX
  8
0
 10
35.517667
 20
11.049682
 42
-0.034255
  0
VERTEX
  8
0
 10
34.779822
 20
10.405059
 42
-0.130960
  0
VERTEX
  8
0
 10
34.219800
 20
10.175417
 42
-0.165995
  0
VERTEX
  8
0
 10
33.698035
 20
10.281336
 42
-0.064593
  0
VERTEX
  8
0
 10
33.107809
 20
10.737787
 42
-0.035136
  0
VERTEX
  8
0
 10
32.796455
 20
11.097637
 42
-0.026048
  0
VERTEX
  8
0
 10
32.503336
 20
11.534525
 42
-0.021967
  0
VERTEX
  8
0
 10
32.212951
 20
12.072533
 42
-0.012703
  0
VERTEX
  8
0
 10
31.909326
 20
12.742333
 42
-0.029785
  0
VERTEX
  8
0
 10
31.849973
 20
12.909778
 42
-0.006402
  0
VERTEX
  8
0
 10
31.768324
 20
13.206775
 42
-0.006781
  0
VERTEX
  8
0
 10
31.684177
 20
13.547790
 42
-0.007129
  0
VERTEX
  8
0
 10
31.610784
 20
13.885333
 42
0.014351
  0
VERTEX
  8
0
 10
31.589063
 20
13.978715
 42
0.009522
  0
VERTEX
  8
0
 10
31.559050
 20
14.084565
 42
0.009588
  0
VERTEX
  8
0
 10
31.525948
 20
14.186321
 42
0.018386
  0
VERTEX
  8
0
 10
31.494873
 20
14.266333
 42
-0.066389
  0
VERTEX
  8
0
 10
31.374174
 20
14.694707
 42
-0.010449
  0
VERTEX
  8
0
 10
31.268084
 20
15.566033
 42
-0.011973
  0
VERTEX
  8
0
 10
31.192026
 20
16.560688
 42
-0.013199
  0
VERTEX
  8
0
 10
31.166945
 20
17.526000
 42
-0.007677
  0
VERTEX
  8
0
 10
31.178895
 20
18.283403
 42
-0.019933
  0
VERTEX
  8
0
 10
31.217594
 20
18.827604
 42
-0.025045
  0
VERTEX
  8
0
 10
31.292499
 20
19.289018
 42
-0.020921
  0
VERTEX
  8
0
 10
31.416688
 20
19.769667
 42
0.026242
  0
VERTEX
  8
0
 10
31.458858
 20
19.940356
 42
0.009885
  0
VERTEX
  8
0
 10
31.500493
 20
20.182946
 42
0.009760
  0
VERTEX
  8
0
 10
31.535495
 20
20.449266
 42
0.011718
  0
VERTEX
  8
0
 10
31.557636
 20
20.701000
 42
-0.009658
  0
VERTEX
  8
0
 10
31.577176
 20
20.934174
 42
-0.012967
  0
VERTEX
  8
0
 10
31.604421
 20
21.144442
 42
-0.010097
  0
VERTEX
  8
0
 10
31.634956
 20
21.317165
 42
-0.120100
  0
VERTEX
  8
0
 10
31.663323
 20
21.378333
 42
0.086235
  0
VERTEX
  8
0
 10
31.693177
 20
21.432820
 42
0.013832
  0
VERTEX
  8
0
 10
31.729339
 20
21.549092
 42
0.014943
  0
VERTEX
  8
0
 10
31.764397
 20
21.689913
 42
0.012615
  0
VERTEX
  8
0
 10
31.793229
 20
21.840744
 42
-0.009895
  0
VERTEX
  8
0
 10
31.821831
 20
21.994915
 42
-0.010297
  0
VERTEX
  8
0
 10
31.856174
 20
22.145789
 42
-0.010039
  0
VERTEX
  8
0
 10
31.891139
 20
22.274888
 42
-0.043554
  0
VERTEX
  8
0
 10
31.919923
 20
22.348744
 42
0.012883
  0
VERTEX
  8
0
 10
31.991425
 20
22.503460
 42
0.006087
  0
VERTEX
  8
0
 10
32.076052
 20
22.706460
 42
0.005521
  0
VERTEX
  8
0
 10
32.167884
 20
22.941994
 42
0.004365
  0
VERTEX
  8
0
 10
32.262156
 20
23.198667
 42
-0.007807
  0
VERTEX
  8
0
 10
32.394275
 20
23.550875
 42
-0.008583
  0
VERTEX
  8
0
 10
32.533403
 20
23.887756
 42
-0.007389
  0
VERTEX
  8
0
 10
32.700983
 20
24.259421
 42
-0.003744
  0
VERTEX
  8
0
 10
32.922349
 20
24.722568
 42
-0.043154
  0
VERTEX
  8
0
 10
33.273740
 20
25.309307
 42
-0.026362
  0
VERTEX
  8
0
 10
33.780729
 20
25.938092
 42
-0.023205
  0
VERTEX
  8
0
 10
34.303335
 20
26.468823
 42
-0.138199
  0
VERTEX
  8
0
 10
34.646199
 20
26.643873
 42
0.023736
  0
VERTEX
  8
0
 10
34.741414
 20
26.667665
 42
0.027666
  0
VERTEX
  8
0
 10
34.829079
 20
26.699430
 42
0.028351
  0
VERTEX
  8
0
 10
34.899000
 20
26.734042
 42
0.125882
  0
VERTEX
  8
0
 10
34.931759
 20
26.765602
 42
-0.120330
  0
VERTEX
  8
0
 10
34.960506
 20
26.793912
 42
-0.048239
  0
VERTEX
  8
0
 10
35.010747
 20
26.817675
 42
-0.044088
  0
VERTEX
  8
0
 10
35.072333
 20
26.833879
 42
-0.042316
  0
VERTEX
  8
0
 10
35.136667
 20
26.839333
 42
-0.042316
  0
VERTEX
  8
0
 10
35.201000
 20
26.833879
 42
-0.044088
  0
VERTEX
  8
0
 10
35.262586
 20
26.817675
 42
-0.048239
  0
VERTEX
  8
0
 10
35.312827
 20
26.793912
 42
-0.120330
  0
SEQEND
  0
ENDSEC
  0
EOF
