999
DXF data, created by potrace 1.16, written by Peter Selinger 2001-2019
  0
SECTION
  2
HEADER
  9
$ACADVER
  1
AC1006
  9
$EXTMIN
 10
0.000000
 20
0.000000
 30
0.000000
  9
$EXTMAX
 10
39.539333
 20
38.100000
 30
0.000000
  0
ENDSEC
  0
SECTION
  2
ENTITIES
  0
POLYLINE
  8
0
 66
1
 70
1
  0
VERTEX
  8
0
 10
17.496810
 20
37.115535
 42
0.032272
  0
VERTEX
  8
0
 10
17.001985
 20
36.927835
 42
0.021479
  0
VERTEX
  8
0
 10
16.460948
 20
36.652985
 42
0.021666
  0
VERTEX
  8
0
 10
15.959361
 20
36.341089
 42
0.040827
  0
VERTEX
  8
0
 10
15.589273
 20
36.041054
 42
0.034630
  0
VERTEX
  8
0
 10
15.299980
 20
35.723407
 42
0.014188
  0
VERTEX
  8
0
 10
14.950958
 20
35.255719
 42
0.014245
  0
VERTEX
  8
0
 10
14.627134
 20
34.766007
 42
0.032303
  0
VERTEX
  8
0
 10
14.417806
 20
34.374667
 42
0.025744
  0
VERTEX
  8
0
 10
14.346777
 20
34.194281
 42
0.009139
  0
VERTEX
  8
0
 10
14.263394
 20
33.929757
 42
0.005743
  0
VERTEX
  8
0
 10
14.151582
 20
33.534379
 42
0.001419
  0
VERTEX
  8
0
 10
13.977457
 20
32.883177
 42
0.032239
  0
VERTEX
  8
0
 10
13.941927
 20
32.702321
 42
0.010475
  0
VERTEX
  8
0
 10
13.912395
 20
32.431403
 42
0.010393
  0
VERTEX
  8
0
 10
13.892096
 20
32.128188
 42
0.011515
  0
VERTEX
  8
0
 10
13.885333
 20
31.834592
 42
0.000000
  0
VERTEX
  8
0
 10
13.885333
 20
31.134497
 42
0.000000
  0
VERTEX
  8
0
 10
13.724650
 20
31.336415
 42
0.042799
  0
VERTEX
  8
0
 10
13.640096
 20
31.425785
 42
0.019273
  0
VERTEX
  8
0
 10
13.515360
 20
31.528524
 42
0.018916
  0
VERTEX
  8
0
 10
13.374463
 20
31.627551
 42
0.024474
  0
VERTEX
  8
0
 10
13.237816
 20
31.706856
 42
-0.005878
  0
VERTEX
  8
0
 10
13.109811
 20
31.774915
 42
-0.007789
  0
VERTEX
  8
0
 10
12.995038
 20
31.840024
 42
-0.005794
  0
VERTEX
  8
0
 10
12.900791
 20
31.896926
 42
-0.073881
  0
VERTEX
  8
0
 10
12.869333
 20
31.923544
 42
0.088499
  0
VERTEX
  8
0
 10
12.729232
 20
32.035275
 42
0.010123
  0
VERTEX
  8
0
 10
12.368836
 20
32.221268
 42
0.009306
  0
VERTEX
  8
0
 10
11.999734
 20
32.393941
 42
0.105125
  0
VERTEX
  8
0
 10
11.842669
 20
32.427333
 42
-0.051390
  0
VERTEX
  8
0
 10
11.781958
 20
32.433590
 42
-0.071318
  0
VERTEX
  8
0
 10
11.730609
 20
32.452204
 42
-0.091364
  0
VERTEX
  8
0
 10
11.696094
 20
32.479684
 42
-0.180984
  0
VERTEX
  8
0
 10
11.684000
 20
32.512000
 42
0.196168
  0
VERTEX
  8
0
 10
11.670803
 20
32.544342
 42
0.086497
  0
VERTEX
  8
0
 10
11.632623
 20
32.571796
 42
0.066398
  0
VERTEX
  8
0
 10
11.576043
 20
32.590435
 42
0.046442
  0
VERTEX
  8
0
 10
11.509101
 20
32.596667
 42
-0.042349
  0
VERTEX
  8
0
 10
11.429379
 20
32.603431
 42
-0.023328
  0
VERTEX
  8
0
 10
11.333735
 20
32.624412
 42
-0.023104
  0
VERTEX
  8
0
 10
11.238050
 20
32.654935
 42
-0.034114
  0
VERTEX
  8
0
 10
11.157716
 20
32.691119
 42
0.084221
  0
VERTEX
  8
0
 10
10.736749
 20
32.832190
 42
0.017177
  0
VERTEX
  8
0
 10
9.953892
 20
32.927347
 42
0.018690
  0
VERTEX
  8
0
 10
9.149329
 20
32.966988
 42
0.053747
  0
VERTEX
  8
0
 10
8.593667
 20
32.913740
 42
0.055789
  0
VERTEX
  8
0
 10
7.567320
 20
32.579999
 42
0.054832
  0
VERTEX
  8
0
 10
6.633679
 20
32.026160
 42
0.054627
  0
VERTEX
  8
0
 10
5.839710
 20
31.280389
 42
0.054558
  0
VERTEX
  8
0
 10
5.225705
 20
30.380077
 42
0.055377
  0
VERTEX
  8
0
 10
4.924992
 20
29.624748
 42
0.046612
  0
VERTEX
  8
0
 10
4.774915
 20
28.776384
 42
0.048175
  0
VERTEX
  8
0
 10
4.786767
 20
27.950079
 42
0.074884
  0
VERTEX
  8
0
 10
4.969712
 20
27.262667
 42
0.010561
  0
VERTEX
  8
0
 10
5.129078
 20
26.915834
 42
0.007060
  0
VERTEX
  8
0
 10
5.325368
 20
26.525511
 42
0.003230
  0
VERTEX
  8
0
 10
5.521541
 20
26.154637
 42
0.104915
  0
VERTEX
  8
0
 10
5.586926
 20
26.077333
 42
-0.064452
  0
VERTEX
  8
0
 10
5.619257
 20
26.044808
 42
-0.003960
  0
VERTEX
  8
0
 10
5.701611
 20
25.935517
 42
-0.005833
  0
VERTEX
  8
0
 10
5.797438
 20
25.803024
 42
-0.004284
  0
VERTEX
  8
0
 10
5.900695
 20
25.654000
 42
0.021068
  0
VERTEX
  8
0
 10
6.030745
 20
25.479147
 42
0.010140
  0
VERTEX
  8
0
 10
6.211153
 20
25.265786
 42
0.010034
  0
VERTEX
  8
0
 10
6.408595
 20
25.050526
 42
0.014157
  0
VERTEX
  8
0
 10
6.593608
 20
24.867440
 42
-0.004477
  0
VERTEX
  8
0
 10
6.759850
 20
24.709180
 42
-0.006977
  0
VERTEX
  8
0
 10
6.899926
 20
24.569575
 42
-0.002624
  0
VERTEX
  8
0
 10
7.017265
 20
24.448053
 42
-0.193003
  0
VERTEX
  8
0
 10
7.027333
 20
24.422940
 42
-0.392793
  0
VERTEX
  8
0
 10
7.012741
 20
24.407231
 42
-0.003465
  0
VERTEX
  8
0
 10
6.836350
 20
24.395439
 42
-0.009341
  0
VERTEX
  8
0
 10
6.626472
 20
24.386799
 42
-0.005615
  0
VERTEX
  8
0
 10
6.377178
 20
24.384000
 42
0.011085
  0
VERTEX
  8
0
 10
6.109196
 20
24.378058
 42
0.011071
  0
VERTEX
  8
0
 10
5.841627
 20
24.360244
 42
0.010963
  0
VERTEX
  8
0
 10
5.608894
 20
24.334411
 42
0.042294
  0
VERTEX
  8
0
 10
5.467011
 20
24.303129
 42
-0.001972
  0
VERTEX
  8
0
 10
5.335546
 20
24.262807
 42
-0.000694
  0
VERTEX
  8
0
 10
5.146589
 20
24.205953
 42
-0.000689
  0
VERTEX
  8
0
 10
4.938680
 20
24.144023
 42
-0.000807
  0
VERTEX
  8
0
 10
4.741333
 20
24.085881
 42
0.008969
  0
VERTEX
  8
0
 10
4.343139
 20
23.961468
 42
0.021202
  0
VERTEX
  8
0
 10
4.052618
 20
23.851064
 42
0.021096
  0
VERTEX
  8
0
 10
3.850917
 20
23.754191
 42
0.276991
  0
VERTEX
  8
0
 10
3.810000
 20
23.685999
 42
-0.166643
  0
VERTEX
  8
0
 10
3.801631
 20
23.661584
 42
-0.095230
  0
VERTEX
  8
0
 10
3.777952
 20
23.640800
 42
-0.076110
  0
VERTEX
  8
0
 10
3.742632
 20
23.626750
 42
-0.056727
  0
VERTEX
  8
0
 10
3.700902
 20
23.622000
 42
0.109074
  0
VERTEX
  8
0
 10
3.516746
 20
23.581343
 42
0.023744
  0
VERTEX
  8
0
 10
3.226848
 20
23.429660
 42
0.024939
  0
VERTEX
  8
0
 10
2.918427
 20
23.227854
 42
0.029806
  0
VERTEX
  8
0
 10
2.650372
 20
23.007129
 42
-0.001373
  0
VERTEX
  8
0
 10
2.507099
 20
22.874797
 42
-0.000917
  0
VERTEX
  8
0
 10
2.342393
 20
22.724063
 42
-0.000923
  0
VERTEX
  8
0
 10
2.182189
 20
22.578528
 42
-0.001816
  0
VERTEX
  8
0
 10
2.054158
 20
22.463494
 42
0.042297
  0
VERTEX
  8
0
 10
1.817458
 20
22.213409
 42
0.019317
  0
VERTEX
  8
0
 10
1.550607
 20
21.851032
 42
0.014889
  0
VERTEX
  8
0
 10
1.319413
 20
21.487405
 42
0.134949
  0
VERTEX
  8
0
 10
1.270000
 20
21.307660
 42
-0.061785
  0
VERTEX
  8
0
 10
1.264183
 20
21.260764
 42
-0.038892
  0
VERTEX
  8
0
 10
1.246555
 20
21.208374
 42
-0.038616
  0
VERTEX
  8
0
 10
1.220748
 20
21.158743
 42
-0.056263
  0
VERTEX
  8
0
 10
1.190189
 20
21.120100
 42
0.161280
  0
VERTEX
  8
0
 10
1.007398
 20
20.752739
 42
0.019941
  0
VERTEX
  8
0
 10
0.915059
 20
19.850832
 42
0.024614
  0
VERTEX
  8
0
 10
0.902698
 20
18.895020
 42
0.051839
  0
VERTEX
  8
0
 10
1.006043
 20
18.161000
 42
0.069451
  0
VERTEX
  8
0
 10
1.451611
 20
17.052328
 42
0.054020
  0
VERTEX
  8
0
 10
2.216707
 20
16.000222
 42
0.053657
  0
VERTEX
  8
0
 10
3.196056
 20
15.129242
 42
0.065973
  0
VERTEX
  8
0
 10
4.275667
 20
14.556255
 42
0.019569
  0
VERTEX
  8
0
 10
4.688485
 20
14.420805
 42
0.018225
  0
VERTEX
  8
0
 10
5.120494
 20
14.314414
 42
0.018495
  0
VERTEX
  8
0
 10
5.551875
 20
14.241238
 42
0.022077
  0
VERTEX
  8
0
 10
5.962730
 20
14.205445
 42
-0.008430
  0
VERTEX
  8
0
 10
6.218159
 20
14.190201
 42
-0.040800
  0
VERTEX
  8
0
 10
6.361562
 20
14.167349
 42
-0.166129
  0
VERTEX
  8
0
 10
6.411516
 20
14.135413
 42
-0.421555
  0
VERTEX
  8
0
 10
6.406682
 20
14.097000
 42
0.070159
  0
VERTEX
  8
0
 10
6.162854
 20
13.851997
 42
0.006524
  0
VERTEX
  8
0
 10
5.658962
 20
13.160691
 42
0.008322
  0
VERTEX
  8
0
 10
5.177893
 20
12.457768
 42
0.038511
  0
VERTEX
  8
0
 10
4.939114
 20
12.027401
 42
0.016648
  0
VERTEX
  8
0
 10
4.625998
 20
11.279028
 42
0.034352
  0
VERTEX
  8
0
 10
4.442088
 20
10.672253
 42
0.036268
  0
VERTEX
  8
0
 10
4.348759
 20
10.067483
 42
0.020858
  0
VERTEX
  8
0
 10
4.320070
 20
9.330333
 42
0.017849
  0
VERTEX
  8
0
 10
4.346919
 20
8.633371
 42
0.044261
  0
VERTEX
  8
0
 10
4.429578
 20
8.129700
 42
0.038017
  0
VERTEX
  8
0
 10
4.607422
 20
7.605571
 42
0.010384
  0
VERTEX
  8
0
 10
4.966939
 20
6.808845
 42
0.047461
  0
VERTEX
  8
0
 10
5.047024
 20
6.675092
 42
0.011527
  0
VERTEX
  8
0
 10
5.204532
 20
6.471055
 42
0.011718
  0
VERTEX
  8
0
 10
5.396879
 20
6.244489
 42
0.011419
  0
VERTEX
  8
0
 10
5.601251
 20
6.025184
 42
0.039368
  0
VERTEX
  8
0
 10
6.057481
 20
5.625766
 42
0.032786
  0
VERTEX
  8
0
 10
6.598571
 20
5.275228
 42
0.031850
  0
VERTEX
  8
0
 10
7.198361
 20
4.988725
 42
0.031796
  0
VERTEX
  8
0
 10
7.830019
 20
4.780539
 42
0.047723
  0
VERTEX
  8
0
 10
8.493491
 20
4.673855
 42
0.027696
  0
VERTEX
  8
0
 10
9.301331
 20
4.666844
 42
0.027710
  0
VERTEX
  8
0
 10
10.081227
 20
4.746754
 42
0.063600
  0
VERTEX
  8
0
 10
10.646833
 20
4.912180
 42
-0.004170
  0
VERTEX
  8
0
 10
10.831061
 20
4.990773
 42
-0.003572
  0
VERTEX
  8
0
 10
11.026310
 20
5.070516
 42
-0.003295
  0
VERTEX
  8
0
 10
11.238109
 20
5.153644
 42
-0.002471
  0
VERTEX
  8
0
 10
11.472333
 20
5.242469
 42
0.050545
  0
VERTEX
  8
0
 10
11.851633
 20
5.429703
 42
0.009012
  0
VERTEX
  8
0
 10
12.514839
 20
5.861912
 42
0.010412
  0
VERTEX
  8
0
 10
13.192464
 20
6.342014
 42
0.021218
  0
VERTEX
  8
0
 10
13.699681
 20
6.751901
 42
0.000000
  0
VERTEX
  8
0
 10
14.204046
 20
7.196135
 42
0.000000
  0
VERTEX
  8
0
 10
14.208906
 20
6.843972
 42
0.027760
  0
VERTEX
  8
0
 10
14.243118
 20
6.351124
 42
0.021996
  0
VERTEX
  8
0
 10
14.332836
 20
5.824659
 42
0.020358
  0
VERTEX
  8
0
 10
14.452759
 20
5.361750
 42
0.101127
  0
VERTEX
  8
0
 10
14.579951
 20
5.126567
 42
-0.069993
  0
VERTEX
  8
0
 10
14.605814
 20
5.085090
 42
-0.033207
  0
VERTEX
  8
0
 10
14.627540
 20
5.025837
 42
-0.032102
  0
VERTEX
  8
0
 10
14.642376
 20
4.959756
 42
-0.039189
  0
VERTEX
  8
0
 10
14.647333
 20
4.896606
 42
0.084867
  0
VERTEX
  8
0
 10
14.672466
 20
4.749602
 42
0.012124
  0
VERTEX
  8
0
 10
14.781370
 20
4.462803
 42
0.011823
  0
VERTEX
  8
0
 10
14.903948
 20
4.181389
 42
0.090354
  0
VERTEX
  8
0
 10
14.986811
 20
4.064000
 42
-0.067087
  0
VERTEX
  8
0
 10
15.011116
 20
4.032741
 42
-0.004591
  0
VERTEX
  8
0
 10
15.066784
 20
3.935005
 42
-0.006494
  0
VERTEX
  8
0
 10
15.130783
 20
3.816616
 42
-0.004827
  0
VERTEX
  8
0
 10
15.198477
 20
3.684316
 42
0.067078
  0
VERTEX
  8
0
 10
15.479079
 20
3.271724
 42
0.011610
  0
VERTEX
  8
0
 10
16.127062
 20
2.582291
 42
0.010527
  0
VERTEX
  8
0
 10
16.805816
 20
1.921345
 42
0.086308
  0
VERTEX
  8
0
 10
17.166167
 20
1.685840
 42
-0.017238
  0
VERTEX
  8
0
 10
17.271584
 20
1.636064
 42
-0.025075
  0
VERTEX
  8
0
 10
17.360503
 20
1.584470
 42
-0.022790
  0
VERTEX
  8
0
 10
17.426888
 20
1.536930
 42
-0.229863
  0
VERTEX
  8
0
 10
17.441333
 20
1.507168
 42
0.279476
  0
VERTEX
  8
0
 10
17.457411
 20
1.480651
 42
0.027223
  0
VERTEX
  8
0
 10
17.528656
 20
1.448297
 42
0.028256
  0
VERTEX
  8
0
 10
17.624687
 20
1.416969
 42
0.018352
  0
VERTEX
  8
0
 10
17.738602
 20
1.391238
 42
-0.019886
  0
VERTEX
  8
0
 10
17.855817
 20
1.364384
 42
-0.024702
  0
VERTEX
  8
0
 10
17.962176
 20
1.329801
 42
-0.024227
  0
VERTEX
  8
0
 10
18.046627
 20
1.292874
 42
-0.140047
  0
VERTEX
  8
0
 10
18.082265
 20
1.260402
 42
0.156674
  0
VERTEX
  8
0
 10
18.116260
 20
1.231394
 42
0.036697
  0
VERTEX
  8
0
 10
18.188176
 20
1.207385
 42
0.034329
  0
VERTEX
  8
0
 10
18.278936
 20
1.190848
 42
0.027906
  0
VERTEX
  8
0
 10
18.377663
 20
1.185333
 42
-0.032276
  0
VERTEX
  8
0
 10
18.473049
 20
1.179170
 42
-0.049716
  0
VERTEX
  8
0
 10
18.553522
 20
1.160463
 42
-0.064068
  0
VERTEX
  8
0
 10
18.609172
 20
1.133187
 42
-0.251914
  0
VERTEX
  8
0
 10
18.626667
 20
1.100667
 42
0.252424
  0
VERTEX
  8
0
 10
18.644203
 20
1.068144
 42
0.063841
  0
VERTEX
  8
0
 10
18.700055
 20
1.040871
 42
0.049572
  0
VERTEX
  8
0
 10
18.780795
 20
1.022163
 42
0.032166
  0
VERTEX
  8
0
 10
18.876499
 20
1.016000
 42
-0.024783
  0
VERTEX
  8
0
 10
19.001694
 20
1.009791
 42
-0.008904
  0
VERTEX
  8
0
 10
19.179008
 20
0.988964
 42
-0.008808
  0
VERTEX
  8
0
 10
19.372864
 20
0.959200
 42
-0.010326
  0
VERTEX
  8
0
 10
19.555487
 20
0.923963
 42
0.058745
  0
VERTEX
  8
0
 10
20.048301
 20
0.877548
 42
0.032450
  0
VERTEX
  8
0
 10
20.651537
 20
0.930968
 42
0.030391
  0
VERTEX
  8
0
 10
21.298901
 20
1.071636
 42
0.029820
  0
VERTEX
  8
0
 10
21.928667
 20
1.290415
 42
0.055804
  0
VERTEX
  8
0
 10
22.914177
 20
1.835821
 42
0.054927
  0
VERTEX
  8
0
 10
23.760492
 20
2.588197
 42
0.054401
  0
VERTEX
  8
0
 10
24.429460
 20
3.514134
 42
0.052746
  0
VERTEX
  8
0
 10
24.891209
 20
4.572000
 42
0.020981
  0
VERTEX
  8
0
 10
25.013484
 20
5.023973
 42
0.011833
  0
VERTEX
  8
0
 10
25.125563
 20
5.580897
 42
0.011817
  0
VERTEX
  8
0
 10
25.211688
 20
6.145795
 42
0.019905
  0
VERTEX
  8
0
 10
25.253749
 20
6.623317
 42
0.000000
  0
VERTEX
  8
0
 10
25.273000
 20
7.023634
 42
0.000000
  0
VERTEX
  8
0
 10
25.611667
 20
6.706209
 42
0.017263
  0
VERTEX
  8
0
 10
25.913942
 20
6.441888
 42
0.024855
  0
VERTEX
  8
0
 10
26.200156
 20
6.231319
 42
0.019709
  0
VERTEX
  8
0
 10
26.551675
 20
6.018125
 42
0.006681
  0
VERTEX
  8
0
 10
27.078807
 20
5.735328
 42
0.021420
  0
VERTEX
  8
0
 10
27.620333
 20
5.482889
 42
0.031399
  0
VERTEX
  8
0
 10
28.117322
 20
5.312324
 42
0.029650
  0
VERTEX
  8
0
 10
28.652621
 20
5.199045
 42
0.016539
  0
VERTEX
  8
0
 10
29.314618
 20
5.121784
 42
0.028628
  0
VERTEX
  8
0
 10
29.935884
 20
5.105710
 42
0.016866
  0
VERTEX
  8
0
 10
30.677193
 20
5.154037
 42
0.009346
  0
VERTEX
  8
0
 10
31.381388
 20
5.237177
 42
0.223885
  0
VERTEX
  8
0
 10
31.543777
 20
5.342809
 42
-0.099358
  0
VERTEX
  8
0
 10
31.570942
 20
5.371872
 42
-0.052293
  0
VERTEX
  8
0
 10
31.614091
 20
5.396383
 42
-0.049099
  0
VERTEX
  8
0
 10
31.665387
 20
5.413041
 42
-0.054020
  0
VERTEX
  8
0
 10
31.717309
 20
5.418667
 42
0.144251
  0
VERTEX
  8
0
 10
31.924338
 20
5.479664
 42
0.013392
  0
VERTEX
  8
0
 10
32.369228
 20
5.783920
 42
0.018282
  0
VERTEX
  8
0
 10
32.829155
 20
6.143216
 42
0.027929
  0
VERTEX
  8
0
 10
33.197572
 20
6.490290
 42
0.022268
  0
VERTEX
  8
0
 10
33.522006
 20
6.864067
 42
0.030785
  0
VERTEX
  8
0
 10
33.775909
 20
7.228303
 42
0.031744
  0
VERTEX
  8
0
 10
33.977406
 20
7.611826
 42
0.026116
  0
VERTEX
  8
0
 10
34.143811
 20
8.043333
 42
-0.003034
  0
VERTEX
  8
0
 10
34.207411
 20
8.234032
 42
-0.003131
  0
VERTEX
  8
0
 10
34.272671
 20
8.421952
 42
-0.003024
  0
VERTEX
  8
0
 10
34.331216
 20
8.584071
 42
-0.013372
  0
VERTEX
  8
0
 10
34.368794
 20
8.678333
 42
0.064743
  0
VERTEX
  8
0
 10
34.524557
 20
9.226655
 42
0.025344
  0
VERTEX
  8
0
 10
34.600731
 20
10.011147
 42
0.025155
  0
VERTEX
  8
0
 10
34.597212
 20
10.852864
 42
0.035149
  0
VERTEX
  8
0
 10
34.503605
 20
11.599333
 42
0.044104
  0
VERTEX
  8
0
 10
34.319328
 20
12.232613
 42
0.017993
  0
VERTEX
  8
0
 10
33.963786
 20
13.056719
 42
0.011859
  0
VERTEX
  8
0
 10
33.569194
 20
13.839335
 42
0.176652
  0
VERTEX
  8
0
 10
33.344519
 20
14.040556
 42
-0.170002
  0
VERTEX
  8
0
 10
33.284100
 20
14.093277
 42
-0.327849
  0
VERTEX
  8
0
 10
33.291220
 20
14.153811
 42
-0.120829
  0
VERTEX
  8
0
 10
33.383851
 20
14.214450
 42
-0.035348
  0
VERTEX
  8
0
 10
33.549167
 20
14.259929
 42
-0.000577
  0
VERTEX
  8
0
 10
33.681458
 20
14.286284
 42
-0.000258
  0
VERTEX
  8
0
 10
33.855422
 20
14.320639
 42
-0.000256
  0
VERTEX
  8
0
 10
34.039344
 20
14.356764
 42
-0.000348
  0
VERTEX
  8
0
 10
34.205333
 20
14.389158
 42
0.013297
  0
VERTEX
  8
0
 10
34.689400
 20
14.496711
 42
0.020606
  0
VERTEX
  8
0
 10
35.099965
 20
14.617635
 42
0.021877
  0
VERTEX
  8
0
 10
35.480647
 20
14.765894
 42
0.018014
  0
VERTEX
  8
0
 10
35.872975
 20
14.955969
 42
0.011980
  0
VERTEX
  8
0
 10
36.298928
 20
15.194867
 42
0.031565
  0
VERTEX
  8
0
 10
36.587960
 20
15.391845
 42
0.025942
  0
VERTEX
  8
0
 10
36.880120
 20
15.644589
 42
0.006009
  0
VERTEX
  8
0
 10
37.343676
 20
16.100495
 42
0.042977
  0
VERTEX
  8
0
 10
37.933634
 20
16.806917
 42
0.051144
  0
VERTEX
  8
0
 10
38.355670
 20
17.565503
 42
0.052409
  0
VERTEX
  8
0
 10
38.607576
 20
18.377605
 42
0.049054
  0
VERTEX
  8
0
 10
38.692667
 20
19.242836
 42
0.033736
  0
VERTEX
  8
0
 10
38.652258
 20
19.841048
 42
0.025805
  0
VERTEX
  8
0
 10
38.530640
 20
20.485604
 42
0.024243
  0
VERTEX
  8
0
 10
38.363997
 20
21.051112
 42
0.113871
  0
VERTEX
  8
0
 10
38.184667
 20
21.336000
 42
-0.055596
  0
VERTEX
  8
0
 10
38.162119
 20
21.364026
 42
-0.007415
  0
VERTEX
  8
0
 10
38.122284
 20
21.428767
 42
-0.008505
  0
VERTEX
  8
0
 10
38.077340
 20
21.507309
 42
-0.007054
  0
VERTEX
  8
0
 10
38.032125
 20
21.592357
 42
0.035352
  0
VERTEX
  8
0
 10
37.966641
 20
21.700322
 42
0.010055
  0
VERTEX
  8
0
 10
37.850025
 20
21.858269
 42
0.010074
  0
VERTEX
  8
0
 10
37.710791
 20
22.031776
 42
0.010511
  0
VERTEX
  8
0
 10
37.566593
 20
22.197046
 42
0.059671
  0
VERTEX
  8
0
 10
36.547045
 20
23.078994
 42
0.047212
  0
VERTEX
  8
0
 10
35.266511
 20
23.777896
 42
0.046688
  0
VERTEX
  8
0
 10
33.860706
 20
24.231226
 42
0.054713
  0
VERTEX
  8
0
 10
32.468749
 20
24.384000
 42
0.000000
  0
VERTEX
  8
0
 10
31.665615
 20
24.384000
 42
0.000000
  0
VERTEX
  8
0
 10
31.982974
 20
24.815176
 42
0.020630
  0
VERTEX
  8
0
 10
32.309141
 20
25.298909
 42
0.018462
  0
VERTEX
  8
0
 10
32.607390
 20
25.825814
 42
0.018421
  0
VERTEX
  8
0
 10
32.866638
 20
26.374617
 42
0.020269
  0
VERTEX
  8
0
 10
33.075907
 20
26.924000
 42
0.018477
  0
VERTEX
  8
0
 10
33.188175
 20
27.305131
 42
0.030974
  0
VERTEX
  8
0
 10
33.250425
 20
27.633075
 42
0.024288
  0
VERTEX
  8
0
 10
33.280094
 20
28.017169
 42
0.007216
  0
VERTEX
  8
0
 10
33.288394
 20
28.606080
 42
0.006859
  0
VERTEX
  8
0
 10
33.282241
 20
29.043781
 42
0.013220
  0
VERTEX
  8
0
 10
33.263247
 20
29.393810
 42
0.010315
  0
VERTEX
  8
0
 10
33.235793
 20
29.663957
 42
0.167411
  0
VERTEX
  8
0
 10
33.196353
 20
29.744847
 42
-0.091350
  0
VERTEX
  8
0
 10
33.161107
 20
29.796014
 42
-0.035696
  0
VERTEX
  8
0
 10
33.131600
 20
29.876937
 42
-0.033850
  0
VERTEX
  8
0
 10
33.111431
 20
29.971280
 42
-0.035749
  0
VERTEX
  8
0
 10
33.104667
 20
30.065765
 42
0.107277
  0
VERTEX
  8
0
 10
33.031058
 20
30.404894
 42
0.019135
  0
VERTEX
  8
0
 10
32.738107
 20
30.987748
 42
0.021780
  0
VERTEX
  8
0
 10
32.376936
 20
31.580076
 42
0.040616
  0
VERTEX
  8
0
 10
32.027160
 20
32.019495
 42
0.034915
  0
VERTEX
  8
0
 10
31.622029
 20
32.395036
 42
0.020484
  0
VERTEX
  8
0
 10
31.090258
 20
32.788282
 42
0.019066
  0
VERTEX
  8
0
 10
30.564550
 20
33.116163
 42
0.080709
  0
VERTEX
  8
0
 10
30.218180
 20
33.245931
 42
-0.022841
  0
VERTEX
  8
0
 10
30.119244
 20
33.270464
 42
-0.026981
  0
VERTEX
  8
0
 10
30.028441
 20
33.302860
 42
-0.027435
  0
VERTEX
  8
0
 10
29.956108
 20
33.337935
 42
-0.128416
  0
VERTEX
  8
0
 10
29.922908
 20
33.369602
 42
0.180126
  0
VERTEX
  8
0
 10
29.886020
 20
33.398278
 42
0.027466
  0
VERTEX
  8
0
 10
29.794178
 20
33.421675
 42
0.027789
  0
VERTEX
  8
0
 10
29.677862
 20
33.437943
 42
0.020852
  0
VERTEX
  8
0
 10
29.548667
 20
33.443333
 42
-0.023905
  0
VERTEX
  8
0
 10
29.418990
 20
33.449537
 42
-0.030777
  0
VERTEX
  8
0
 10
29.301170
 20
33.468204
 42
-0.031768
  0
VERTEX
  8
0
 10
29.208135
 20
33.495177
 42
-0.169477
  0
VERTEX
  8
0
 10
29.167667
 20
33.528000
 42
0.258014
  0
VERTEX
  8
0
 10
29.010639
 20
33.616291
 42
0.012349
  0
VERTEX
  8
0
 10
28.386768
 20
33.605371
 42
0.020289
  0
VERTEX
  8
0
 10
27.716333
 20
33.549751
 42
0.029907
  0
VERTEX
  8
0
 10
27.135667
 20
33.442201
 42
0.025069
  0
VERTEX
  8
0
 10
26.354826
 20
33.206579
 42
0.035297
  0
VERTEX
  8
0
 10
25.689088
 20
32.914250
 42
0.034043
  0
VERTEX
  8
0
 10
25.053506
 20
32.522486
 42
0.021172
  0
VERTEX
  8
0
 10
24.362833
 20
31.983369
 42
0.000000
  0
VERTEX
  8
0
 10
23.876000
 20
31.569038
 42
0.000000
  0
VERTEX
  8
0
 10
23.876000
 20
31.805751
 42
0.041585
  0
VERTEX
  8
0
 10
23.852126
 20
32.092306
 42
0.005594
  0
VERTEX
  8
0
 10
23.745331
 20
32.687866
 42
0.005797
  0
VERTEX
  8
0
 10
23.625099
 20
33.280345
 42
0.038168
  0
VERTEX
  8
0
 10
23.539161
 20
33.570333
 42
0.046690
  0
VERTEX
  8
0
 10
22.909708
 20
34.848143
 42
0.056874
  0
VERTEX
  8
0
 10
22.087631
 20
35.897266
 42
0.061806
  0
VERTEX
  8
0
 10
21.117164
 20
36.664646
 42
0.075118
  0
VERTEX
  8
0
 10
20.048600
 20
37.110964
 42
0.039227
  0
VERTEX
  8
0
 10
19.455256
 20
37.211159
 42
0.021773
  0
VERTEX
  8
0
 10
18.721579
 20
37.244440
 42
0.021639
  0
VERTEX
  8
0
 10
18.009563
 20
37.214888
 42
0.053372
  0
SEQEND
  0
ENDSEC
  0
EOF
