999
DXF data, created by potrace 1.16, written by Peter Selinger 2001-2019
  0
SECTION
  2
HEADER
  9
$ACADVER
  1
AC1006
  9
$EXTMIN
 10
0.000000
 20
0.000000
 30
0.000000
  9
$EXTMAX
 10
35.306000
 20
66.124667
 30
0.000000
  0
ENDSEC
  0
SECTION
  2
ENTITIES
  0
POLYLINE
  8
0
 66
1
 70
1
  0
VERTEX
  8
0
 10
17.610667
 20
65.193333
 42
-0.073529
  0
VERTEX
  8
0
 10
17.540908
 20
65.161599
 42
-0.023175
  0
VERTEX
  8
0
 10
17.429175
 20
65.134988
 42
-0.022588
  0
VERTEX
  8
0
 10
17.300120
 20
65.116499
 42
-0.023249
  0
VERTEX
  8
0
 10
17.171163
 20
65.109963
 42
0.025054
  0
VERTEX
  8
0
 10
17.047683
 20
65.103258
 42
0.031776
  0
VERTEX
  8
0
 10
16.935087
 20
65.084177
 42
0.033190
  0
VERTEX
  8
0
 10
16.846105
 20
65.056869
 42
0.164743
  0
VERTEX
  8
0
 10
16.806333
 20
65.024000
 42
-0.121742
  0
VERTEX
  8
0
 10
16.773163
 20
64.991517
 42
-0.048086
  0
VERTEX
  8
0
 10
16.714886
 20
64.964327
 42
-0.043899
  0
VERTEX
  8
0
 10
16.643347
 20
64.945854
 42
-0.041829
  0
VERTEX
  8
0
 10
16.568503
 20
64.939752
 42
0.065325
  0
VERTEX
  8
0
 10
16.341524
 20
64.910491
 42
0.014391
  0
VERTEX
  8
0
 10
15.964056
 20
64.798897
 42
0.014785
  0
VERTEX
  8
0
 10
15.533351
 20
64.643725
 42
0.014000
  0
VERTEX
  8
0
 10
15.104561
 20
64.460732
 42
-0.007894
  0
VERTEX
  8
0
 10
14.932093
 20
64.384627
 42
-0.010133
  0
VERTEX
  8
0
 10
14.771012
 20
64.320378
 42
-0.008209
  0
VERTEX
  8
0
 10
14.634927
 20
64.271804
 42
-0.081788
  0
VERTEX
  8
0
 10
14.575394
 20
64.262000
 42
0.085634
  0
VERTEX
  8
0
 10
14.538203
 20
64.255583
 42
0.093748
  0
VERTEX
  8
0
 10
14.506610
 20
64.237129
 42
0.100347
  0
VERTEX
  8
0
 10
14.485479
 20
64.209630
 42
0.114280
  0
VERTEX
  8
0
 10
14.478000
 20
64.177333
 42
-0.191087
  0
VERTEX
  8
0
 10
14.465175
 20
64.145001
 42
-0.088204
  0
VERTEX
  8
0
 10
14.428258
 20
64.117538
 42
-0.068025
  0
VERTEX
  8
0
 10
14.373472
 20
64.098906
 42
-0.048028
  0
VERTEX
  8
0
 10
14.308667
 20
64.092667
 42
0.035971
  0
VERTEX
  8
0
 10
14.243814
 20
64.087995
 42
0.054436
  0
VERTEX
  8
0
 10
14.189075
 20
64.073867
 42
0.071241
  0
VERTEX
  8
0
 10
14.151563
 20
64.053199
 42
0.235453
  0
VERTEX
  8
0
 10
14.139333
 20
64.028668
 42
-0.224342
  0
VERTEX
  8
0
 10
14.124453
 20
63.997173
 42
-0.024599
  0
VERTEX
  8
0
 10
14.058503
 20
63.948187
 42
-0.026279
  0
VERTEX
  8
0
 10
13.969577
 20
63.895230
 42
-0.018255
  0
VERTEX
  8
0
 10
13.864167
 20
63.844562
 42
0.040091
  0
VERTEX
  8
0
 10
13.528083
 20
63.664563
 42
0.009445
  0
VERTEX
  8
0
 10
12.998435
 20
63.309374
 42
0.010192
  0
VERTEX
  8
0
 10
12.467166
 20
62.922016
 42
0.024054
  0
VERTEX
  8
0
 10
12.091846
 20
62.606859
 42
-0.007347
  0
VERTEX
  8
0
 10
11.967217
 20
62.494901
 42
-0.010785
  0
VERTEX
  8
0
 10
11.854138
 20
62.400498
 42
-0.006407
  0
VERTEX
  8
0
 10
11.757313
 20
62.325158
 42
-0.163543
  0
VERTEX
  8
0
 10
11.726095
 20
62.314667
 42
0.193166
  0
VERTEX
  8
0
 10
11.630213
 20
62.276189
 42
0.004980
  0
VERTEX
  8
0
 10
11.291969
 20
61.946084
 42
0.005203
  0
VERTEX
  8
0
 10
10.961609
 20
61.610270
 42
0.180369
  0
VERTEX
  8
0
 10
10.918185
 20
61.510333
 42
-0.147018
  0
VERTEX
  8
0
 10
10.900534
 20
61.461210
 42
-0.011742
  0
VERTEX
  8
0
 10
10.814975
 20
61.351054
 42
-0.015092
  0
VERTEX
  8
0
 10
10.703913
 20
61.222893
 42
-0.010988
  0
VERTEX
  8
0
 10
10.573140
 20
61.087000
 42
0.036077
  0
VERTEX
  8
0
 10
10.106871
 20
60.551125
 42
0.010532
  0
VERTEX
  8
0
 10
9.468915
 20
59.662910
 42
0.010949
  0
VERTEX
  8
0
 10
8.855605
 20
58.726604
 42
0.025805
  0
VERTEX
  8
0
 10
8.450742
 20
57.996667
 42
-0.007198
  0
VERTEX
  8
0
 10
8.375195
 20
57.847648
 42
-0.009696
  0
VERTEX
  8
0
 10
8.302294
 20
57.715150
 42
-0.007126
  0
VERTEX
  8
0
 10
8.237972
 20
57.607021
 42
-0.096445
  0
VERTEX
  8
0
 10
8.207014
 20
57.573333
 42
0.095449
  0
VERTEX
  8
0
 10
8.174698
 20
57.538306
 42
0.004967
  0
VERTEX
  8
0
 10
8.094896
 20
57.406646
 42
0.007718
  0
VERTEX
  8
0
 10
8.003474
 20
57.246803
 42
0.005519
  0
VERTEX
  8
0
 10
7.905965
 20
57.065333
 42
-0.007643
  0
VERTEX
  8
0
 10
7.808010
 20
56.884877
 42
-0.010936
  0
VERTEX
  8
0
 10
7.715247
 20
56.728166
 42
-0.007059
  0
VERTEX
  8
0
 10
7.633525
 20
56.600797
 42
-0.142961
  0
VERTEX
  8
0
 10
7.598833
 20
56.571444
 42
0.103085
  0
VERTEX
  8
0
 10
7.574538
 20
56.553965
 42
0.062575
  0
VERTEX
  8
0
 10
7.553987
 20
56.524975
 42
0.058797
  0
VERTEX
  8
0
 10
7.540065
 20
56.489530
 42
0.064287
  0
VERTEX
  8
0
 10
7.535333
 20
56.452883
 42
-0.106833
  0
VERTEX
  8
0
 10
7.507008
 20
56.321825
 42
-0.004645
  0
VERTEX
  8
0
 10
7.308206
 20
55.894011
 42
-0.004337
  0
VERTEX
  8
0
 10
7.100615
 20
55.467502
 42
-0.117818
  0
VERTEX
  8
0
 10
7.020793
 20
55.372000
 42
0.130831
  0
VERTEX
  8
0
 10
6.995150
 20
55.339670
 42
0.016427
  0
VERTEX
  8
0
 10
6.961918
 20
55.255871
 42
0.018408
  0
VERTEX
  8
0
 10
6.928769
 20
55.151621
 42
0.014316
  0
VERTEX
  8
0
 10
6.900204
 20
55.036112
 42
-0.025609
  0
VERTEX
  8
0
 10
6.845511
 20
54.834583
 42
-0.023638
  0
VERTEX
  8
0
 10
6.769257
 20
54.634116
 42
-0.024342
  0
VERTEX
  8
0
 10
6.684232
 20
54.462255
 42
-0.069436
  0
VERTEX
  8
0
 10
6.604000
 20
54.356000
 42
0.064096
  0
VERTEX
  8
0
 10
6.531863
 20
54.262548
 42
0.017837
  0
VERTEX
  8
0
 10
6.444026
 20
54.099326
 42
0.015962
  0
VERTEX
  8
0
 10
6.368327
 20
53.932556
 42
0.098866
  0
VERTEX
  8
0
 10
6.350000
 20
53.840778
 42
-0.070235
  0
VERTEX
  8
0
 10
6.342360
 20
53.786658
 42
-0.010984
  0
VERTEX
  8
0
 10
6.310158
 20
53.683452
 42
-0.012033
  0
VERTEX
  8
0
 10
6.266296
 20
53.562721
 42
-0.010231
  0
VERTEX
  8
0
 10
6.214367
 20
53.437462
 42
0.003374
  0
VERTEX
  8
0
 10
6.091829
 20
53.152975
 42
0.007203
  0
VERTEX
  8
0
 10
6.001827
 20
52.931229
 42
0.006677
  0
VERTEX
  8
0
 10
5.914175
 20
52.696800
 42
0.002511
  0
VERTEX
  8
0
 10
5.797489
 20
52.366333
 42
-0.008809
  0
VERTEX
  8
0
 10
5.735785
 20
52.198349
 42
-0.010786
  0
VERTEX
  8
0
 10
5.672007
 20
52.043727
 42
-0.009378
  0
VERTEX
  8
0
 10
5.613453
 20
51.916569
 42
-0.072707
  0
VERTEX
  8
0
 10
5.576867
 20
51.862567
 42
0.073525
  0
VERTEX
  8
0
 10
5.548650
 20
51.820772
 42
0.035651
  0
VERTEX
  8
0
 10
5.524934
 20
51.760656
 42
0.034386
  0
VERTEX
  8
0
 10
5.508748
 20
51.693275
 42
0.041776
  0
VERTEX
  8
0
 10
5.503333
 20
51.628584
 42
-0.041185
  0
VERTEX
  8
0
 10
5.497603
 20
51.559139
 42
-0.023645
  0
VERTEX
  8
0
 10
5.479920
 20
51.476954
 42
-0.023498
  0
VERTEX
  8
0
 10
5.454168
 20
51.395496
 42
-0.035915
  0
VERTEX
  8
0
 10
5.423630
 20
51.328018
 42
0.035088
  0
VERTEX
  8
0
 10
5.384147
 20
51.241158
 42
0.006423
  0
VERTEX
  8
0
 10
5.324675
 20
51.074962
 42
0.006878
  0
VERTEX
  8
0
 10
5.260137
 20
50.878268
 42
0.006202
  0
VERTEX
  8
0
 10
5.198685
 20
50.673000
 42
-0.008117
  0
VERTEX
  8
0
 10
5.137847
 20
50.472579
 42
-0.010451
  0
VERTEX
  8
0
 10
5.075138
 20
50.290598
 42
-0.008453
  0
VERTEX
  8
0
 10
5.017231
 20
50.141146
 42
-0.085038
  0
VERTEX
  8
0
 10
4.982055
 20
50.084567
 42
0.084492
  0
VERTEX
  8
0
 10
4.954603
 20
50.040517
 42
0.032611
  0
VERTEX
  8
0
 10
4.931637
 20
49.972026
 42
0.031143
  0
VERTEX
  8
0
 10
4.915929
 20
49.892938
 42
0.033463
  0
VERTEX
  8
0
 10
4.910667
 20
49.814397
 42
-0.040867
  0
VERTEX
  8
0
 10
4.904406
 20
49.737933
 42
-0.043300
  0
VERTEX
  8
0
 10
4.885796
 20
49.665024
 42
-0.047457
  0
VERTEX
  8
0
 10
4.858521
 20
49.605759
 42
-0.123387
  0
VERTEX
  8
0
 10
4.826000
 20
49.572333
 42
0.121742
  0
VERTEX
  8
0
 10
4.793517
 20
49.539163
 42
0.048086
  0
VERTEX
  8
0
 10
4.766327
 20
49.480886
 42
0.043899
  0
VERTEX
  8
0
 10
4.747854
 20
49.409347
 42
0.041829
  0
VERTEX
  8
0
 10
4.741752
 20
49.334503
 42
-0.040793
  0
VERTEX
  8
0
 10
4.734090
 20
49.238069
 42
-0.011895
  0
VERTEX
  8
0
 10
4.706734
 20
49.091573
 42
-0.011868
  0
VERTEX
  8
0
 10
4.667942
 20
48.927475
 42
-0.012444
  0
VERTEX
  8
0
 10
4.621953
 20
48.768000
 42
0.000006
  0
VERTEX
  8
0
 10
4.563069
 20
48.581373
 42
0.000002
  0
VERTEX
  8
0
 10
4.483059
 20
48.327775
 42
0.000002
  0
VERTEX
  8
0
 10
4.397109
 20
48.055343
 42
0.000003
  0
VERTEX
  8
0
 10
4.317937
 20
47.804384
 42
0.012625
  0
VERTEX
  8
0
 10
4.244095
 20
47.547923
 42
0.009121
  0
VERTEX
  8
0
 10
4.174272
 20
47.258659
 42
0.009222
  0
VERTEX
  8
0
 10
4.117968
 20
46.981141
 42
0.019723
  0
VERTEX
  8
0
 10
4.086967
 20
46.764736
 42
-0.013684
  0
VERTEX
  8
0
 10
4.063614
 20
46.586399
 42
-0.019157
  0
VERTEX
  8
0
 10
4.032338
 20
46.428782
 42
-0.015788
  0
VERTEX
  8
0
 10
3.998035
 20
46.302768
 42
-0.181938
  0
VERTEX
  8
0
 10
3.967232
 20
46.262854
 42
0.144287
  0
VERTEX
  8
0
 10
3.939265
 20
46.231642
 42
0.041113
  0
VERTEX
  8
0
 10
3.915983
 20
46.170134
 42
0.037725
  0
VERTEX
  8
0
 10
3.900011
 20
46.093029
 42
0.032222
  0
VERTEX
  8
0
 10
3.894667
 20
46.010188
 42
-0.031125
  0
VERTEX
  8
0
 10
3.889039
 20
45.919864
 42
-0.022386
  0
VERTEX
  8
0
 10
3.872015
 20
45.820229
 42
-0.022727
  0
VERTEX
  8
0
 10
3.847148
 20
45.726540
 42
-0.044574
  0
VERTEX
  8
0
 10
3.817555
 20
45.655351
 42
0.053046
  0
VERTEX
  8
0
 10
3.780107
 20
45.560791
 42
0.006148
  0
VERTEX
  8
0
 10
3.721692
 20
45.340118
 42
0.007339
  0
VERTEX
  8
0
 10
3.659111
 20
45.074999
 42
0.005932
  0
VERTEX
  8
0
 10
3.599498
 20
44.788667
 42
-0.001928
  0
VERTEX
  8
0
 10
3.540089
 20
44.491407
 42
-0.001904
  0
VERTEX
  8
0
 10
3.478143
 20
44.193354
 42
-0.001868
  0
VERTEX
  8
0
 10
3.421928
 20
43.932763
 42
-0.007332
  0
VERTEX
  8
0
 10
3.384297
 20
43.772667
 42
0.010909
  0
VERTEX
  8
0
 10
3.280890
 20
43.318162
 42
0.002927
  0
VERTEX
  8
0
 10
3.136620
 20
42.591674
 42
0.003064
  0
VERTEX
  8
0
 10
2.998626
 20
41.850413
 42
0.008076
  0
VERTEX
  8
0
 10
2.911627
 20
41.317333
 42
-0.014225
  0
VERTEX
  8
0
 10
2.889493
 20
41.191468
 42
-0.011645
  0
VERTEX
  8
0
 10
2.858903
 20
41.058306
 42
-0.011816
  0
VERTEX
  8
0
 10
2.825006
 20
40.937114
 42
-0.030151
  0
VERTEX
  8
0
 10
2.793170
 20
40.851667
 42
0.039315
  0
VERTEX
  8
0
 10
2.761377
 20
40.761311
 42
0.011967
  0
VERTEX
  8
0
 10
2.727460
 20
40.620156
 42
0.011903
  0
VERTEX
  8
0
 10
2.696906
 20
40.459621
 42
0.012723
  0
VERTEX
  8
0
 10
2.674789
 20
40.301333
 42
-0.007201
  0
VERTEX
  8
0
 10
2.649173
 20
40.101964
 42
-0.002102
  0
VERTEX
  8
0
 10
2.604058
 20
39.795979
 42
-0.002111
  0
VERTEX
  8
0
 10
2.550357
 20
39.451887
 42
-0.002260
  0
VERTEX
  8
0
 10
2.494924
 20
39.116000
 42
0.003319
  0
VERTEX
  8
0
 10
2.439717
 20
38.777011
 42
0.002946
  0
VERTEX
  8
0
 10
2.386696
 20
38.423585
 42
0.002958
  0
VERTEX
  8
0
 10
2.342731
 20
38.104927
 42
0.009066
  0
VERTEX
  8
0
 10
2.318138
 20
37.888333
 42
-0.012566
  0
VERTEX
  8
0
 10
2.297088
 20
37.713841
 42
-0.012351
  0
VERTEX
  8
0
 10
2.267201
 20
37.539613
 42
-0.012316
  0
VERTEX
  8
0
 10
2.233492
 20
37.388317
 42
-0.045148
  0
VERTEX
  8
0
 10
2.201333
 20
37.295667
 42
0.044871
  0
VERTEX
  8
0
 10
2.169118
 20
37.203019
 42
0.012235
  0
VERTEX
  8
0
 10
2.135208
 20
37.051721
 42
0.012272
  0
VERTEX
  8
0
 10
2.105035
 20
36.877493
 42
0.012488
  0
VERTEX
  8
0
 10
2.083649
 20
36.703000
 42
-0.004132
  0
VERTEX
  8
0
 10
2.059138
 20
36.470974
 42
-0.000955
  0
VERTEX
  8
0
 10
2.013891
 20
36.080700
 42
-0.000986
  0
VERTEX
  8
0
 10
1.960038
 20
35.631438
 42
-0.000964
  0
VERTEX
  8
0
 10
1.904013
 20
35.179000
 42
0.002748
  0
VERTEX
  8
0
 10
1.848133
 20
34.714143
 42
0.002405
  0
VERTEX
  8
0
 10
1.794722
 20
34.227558
 42
0.002418
  0
VERTEX
  8
0
 10
1.750708
 20
33.787492
 42
0.007208
  0
VERTEX
  8
0
 10
1.726379
 20
33.485667
 42
-0.009758
  0
VERTEX
  8
0
 10
1.705859
 20
33.246347
 42
-0.010990
  0
VERTEX
  8
0
 10
1.676614
 20
33.017354
 42
-0.010308
  0
VERTEX
  8
0
 10
1.643525
 20
32.824152
 42
-0.056993
  0
VERTEX
  8
0
 10
1.611990
 20
32.723667
 42
0.070434
  0
VERTEX
  8
0
 10
1.563140
 20
32.552060
 42
0.009654
  0
VERTEX
  8
0
 10
1.519447
 20
32.181545
 42
0.006019
  0
VERTEX
  8
0
 10
1.466566
 20
31.568449
 42
0.000933
  0
VERTEX
  8
0
 10
1.378737
 20
30.353000
 42
0.003200
  0
VERTEX
  8
0
 10
1.362077
 20
30.092517
 42
0.001046
  0
VERTEX
  8
0
 10
1.340774
 20
29.708210
 42
0.001042
  0
VERTEX
  8
0
 10
1.318900
 20
29.281361
 42
0.001176
  0
VERTEX
  8
0
 10
1.299711
 20
28.871333
 42
-0.007097
  0
VERTEX
  8
0
 10
1.277480
 20
28.492423
 42
-0.010410
  0
VERTEX
  8
0
 10
1.246273
 20
28.160054
 42
-0.006122
  0
VERTEX
  8
0
 10
1.211102
 20
27.883910
 42
-0.158917
  0
VERTEX
  8
0
 10
1.178554
 20
27.817233
 42
0.169219
  0
VERTEX
  8
0
 10
1.147544
 20
27.750334
 42
0.006406
  0
VERTEX
  8
0
 10
1.123546
 20
27.471926
 42
0.010901
  0
VERTEX
  8
0
 10
1.106317
 20
27.136828
 42
0.007392
  0
VERTEX
  8
0
 10
1.100667
 20
26.754667
 42
-0.006623
  0
VERTEX
  8
0
 10
1.094718
 20
26.305572
 42
-0.017622
  0
VERTEX
  8
0
 10
1.074938
 20
25.985565
 42
-0.020170
  0
VERTEX
  8
0
 10
1.043838
 20
25.760484
 42
-0.153129
  0
VERTEX
  8
0
 10
0.994833
 20
25.666708
 42
0.198773
  0
VERTEX
  8
0
 10
0.882384
 20
25.395469
 42
0.000110
  0
VERTEX
  8
0
 10
0.879177
 20
16.398226
 42
0.000172
  0
VERTEX
  8
0
 10
0.881029
 20
7.483172
 42
0.117910
  0
VERTEX
  8
0
 10
0.992300
 20
7.019015
 42
-0.066778
  0
VERTEX
  8
0
 10
1.034800
 20
6.897584
 42
-0.012358
  0
VERTEX
  8
0
 10
1.076966
 20
6.663998
 42
-0.013060
  0
VERTEX
  8
0
 10
1.112622
 20
6.386435
 42
-0.011577
  0
VERTEX
  8
0
 10
1.135464
 20
6.096000
 42
0.003112
  0
VERTEX
  8
0
 10
1.154359
 20
5.789442
 42
0.002581
  0
VERTEX
  8
0
 10
1.178186
 20
5.463381
 42
0.002605
  0
VERTEX
  8
0
 10
1.203121
 20
5.164784
 42
0.007023
  0
VERTEX
  8
0
 10
1.224921
 20
4.953000
 42
0.026395
  0
VERTEX
  8
0
 10
1.286930
 20
4.590446
 42
0.012202
  0
VERTEX
  8
0
 10
1.403705
 20
4.126496
 42
0.007033
  0
VERTEX
  8
0
 10
1.535452
 20
3.676884
 42
0.136539
  0
VERTEX
  8
0
 10
1.613022
 20
3.556000
 42
-0.084181
  0
VERTEX
  8
0
 10
1.639198
 20
3.523226
 42
-0.005125
  0
VERTEX
  8
0
 10
1.699076
 20
3.412500
 42
-0.007527
  0
VERTEX
  8
0
 10
1.767389
 20
3.278158
 42
-0.005491
  0
VERTEX
  8
0
 10
1.839394
 20
3.126936
 42
0.067552
  0
VERTEX
  8
0
 10
2.064131
 20
2.775008
 42
0.019759
  0
VERTEX
  8
0
 10
2.499285
 20
2.301034
 42
0.014280
  0
VERTEX
  8
0
 10
2.961698
 20
1.861532
 42
0.184926
  0
VERTEX
  8
0
 10
3.179826
 20
1.778000
 42
-0.067540
  0
VERTEX
  8
0
 10
3.226526
 20
1.771663
 42
-0.084264
  0
VERTEX
  8
0
 10
3.266111
 20
1.753129
 42
-0.099627
  0
VERTEX
  8
0
 10
3.292583
 20
1.725620
 42
-0.142856
  0
VERTEX
  8
0
 10
3.302000
 20
1.693333
 42
0.191087
  0
VERTEX
  8
0
 10
3.314825
 20
1.661001
 42
0.088204
  0
VERTEX
  8
0
 10
3.351742
 20
1.633537
 42
0.068025
  0
VERTEX
  8
0
 10
3.406528
 20
1.614906
 42
0.048028
  0
VERTEX
  8
0
 10
3.471333
 20
1.608667
 42
-0.036372
  0
VERTEX
  8
0
 10
3.536185
 20
1.603943
 42
-0.054933
  0
VERTEX
  8
0
 10
3.590925
 20
1.589663
 42
-0.071963
  0
VERTEX
  8
0
 10
3.628406
 20
1.568765
 42
-0.233749
  0
VERTEX
  8
0
 10
3.640667
 20
1.543973
 42
0.289069
  0
VERTEX
  8
0
 10
3.692818
 20
1.461304
 42
0.015007
  0
VERTEX
  8
0
 10
3.993943
 20
1.328563
 42
0.022653
  0
VERTEX
  8
0
 10
4.307733
 20
1.217605
 42
0.073779
  0
VERTEX
  8
0
 10
4.525251
 20
1.185333
 42
-0.037736
  0
VERTEX
  8
0
 10
4.607974
 20
1.179081
 42
-0.041459
  0
VERTEX
  8
0
 10
4.686172
 20
1.160463
 42
-0.045509
  0
VERTEX
  8
0
 10
4.749270
 20
1.133220
 42
-0.130406
  0
VERTEX
  8
0
 10
4.783667
 20
1.100667
 42
0.169477
  0
VERTEX
  8
0
 10
4.824135
 20
1.067843
 42
0.031768
  0
VERTEX
  8
0
 10
4.917170
 20
1.040871
 42
0.030777
  0
VERTEX
  8
0
 10
5.034990
 20
1.022203
 42
0.023905
  0
VERTEX
  8
0
 10
5.164667
 20
1.016000
 42
-0.023905
  0
VERTEX
  8
0
 10
5.294343
 20
1.009797
 42
-0.030777
  0
VERTEX
  8
0
 10
5.412163
 20
0.991129
 42
-0.031768
  0
VERTEX
  8
0
 10
5.505198
 20
0.964157
 42
-0.169477
  0
VERTEX
  8
0
 10
5.545667
 20
0.931333
 42
0.247775
  0
VERTEX
  8
0
 10
5.611300
 20
0.892750
 42
0.002335
  0
VERTEX
  8
0
 10
6.187374
 20
0.869107
 42
0.006336
  0
VERTEX
  8
0
 10
6.911290
 20
0.851964
 42
0.002751
  0
VERTEX
  8
0
 10
7.874000
 20
0.846667
 42
0.002751
  0
VERTEX
  8
0
 10
8.836710
 20
0.851964
 42
0.006336
  0
VERTEX
  8
0
 10
9.560626
 20
0.869107
 42
0.002335
  0
VERTEX
  8
0
 10
10.136700
 20
0.892750
 42
0.247775
  0
VERTEX
  8
0
 10
10.202333
 20
0.931333
 42
-0.169477
  0
VERTEX
  8
0
 10
10.242802
 20
0.964157
 42
-0.031768
  0
VERTEX
  8
0
 10
10.335837
 20
0.991129
 42
-0.030777
  0
VERTEX
  8
0
 10
10.453657
 20
1.009797
 42
-0.023905
  0
VERTEX
  8
0
 10
10.583333
 20
1.016000
 42
0.023905
  0
VERTEX
  8
0
 10
10.713010
 20
1.022203
 42
0.030777
  0
VERTEX
  8
0
 10
10.830830
 20
1.040871
 42
0.031768
  0
VERTEX
  8
0
 10
10.923865
 20
1.067843
 42
0.169477
  0
VERTEX
  8
0
 10
10.964333
 20
1.100667
 42
-0.121742
  0
VERTEX
  8
0
 10
10.997503
 20
1.133149
 42
-0.048086
  0
VERTEX
  8
0
 10
11.055781
 20
1.160339
 42
-0.043899
  0
VERTEX
  8
0
 10
11.127320
 20
1.178812
 42
-0.041829
  0
VERTEX
  8
0
 10
11.202163
 20
1.184915
 42
0.067138
  0
VERTEX
  8
0
 10
11.395675
 20
1.210572
 42
0.009801
  0
VERTEX
  8
0
 10
11.776939
 20
1.322477
 42
0.007485
  0
VERTEX
  8
0
 10
12.159952
 20
1.449430
 42
0.115134
  0
VERTEX
  8
0
 10
12.276667
 20
1.523304
 42
-0.066887
  0
VERTEX
  8
0
 10
12.309665
 20
1.548913
 42
-0.002716
  0
VERTEX
  8
0
 10
12.440832
 20
1.624183
 42
-0.004709
  0
VERTEX
  8
0
 10
12.597889
 20
1.711235
 42
-0.003315
  0
VERTEX
  8
0
 10
12.776080
 20
1.806296
 42
0.034625
  0
VERTEX
  8
0
 10
13.173366
 20
2.051331
 42
0.026989
  0
VERTEX
  8
0
 10
13.569246
 20
2.368754
 42
0.027566
  0
VERTEX
  8
0
 10
13.915319
 20
2.714503
 42
0.046319
  0
VERTEX
  8
0
 10
14.159851
 20
3.044188
 42
-0.004771
  0
VERTEX
  8
0
 10
14.233062
 20
3.162230
 42
-0.006247
  0
VERTEX
  8
0
 10
14.302325
 20
3.268601
 42
-0.004698
  0
VERTEX
  8
0
 10
14.362147
 20
3.356217
 42
-0.057178
  0
VERTEX
  8
0
 10
14.388999
 20
3.386667
 42
0.096383
  0
VERTEX
  8
0
 10
14.468699
 20
3.492656
 42
0.016933
  0
VERTEX
  8
0
 10
14.570569
 20
3.721558
 42
0.016756
  0
VERTEX
  8
0
 10
14.678402
 20
4.015734
 42
0.011056
  0
VERTEX
  8
0
 10
14.783388
 20
4.360333
 42
0.041352
  0
VERTEX
  8
0
 10
14.858737
 20
4.750102
 42
0.020798
  0
VERTEX
  8
0
 10
14.892167
 20
5.250457
 42
0.010132
  0
VERTEX
  8
0
 10
14.896038
 20
6.046683
 42
0.001482
  0
VERTEX
  8
0
 10
14.866364
 20
7.662333
 42
0.002529
  0
VERTEX
  8
0
 10
14.837465
 20
8.757327
 42
0.003543
  0
VERTEX
  8
0
 10
14.799774
 20
9.735079
 42
0.002129
  0
VERTEX
  8
0
 10
14.758721
 20
10.557527
 42
0.046865
  0
VERTEX
  8
0
 10
14.723366
 20
10.795000
 42
-0.061249
  0
VERTEX
  8
0
 10
14.662502
 20
11.303573
 42
-0.000410
  0
VERTEX
  8
0
 10
14.680585
 20
15.762359
 42
-0.001375
  0
VERTEX
  8
0
 10
14.711868
 20
19.864635
 42
-0.013192
  0
VERTEX
  8
0
 10
14.776096
 20
21.611167
 42
0.000000
  0
VERTEX
  8
0
 10
14.828286
 20
22.436667
 42
0.000000
  0
VERTEX
  8
0
 10
19.394476
 20
22.436667
 42
0.000000
  0
VERTEX
  8
0
 10
23.960667
 20
22.436667
 42
0.000000
  0
VERTEX
  8
0
 10
23.960667
 20
21.975997
 42
0.017115
  0
VERTEX
  8
0
 10
23.966839
 20
21.795732
 42
0.023783
  0
VERTEX
  8
0
 10
23.985537
 20
21.635278
 42
0.021638
  0
VERTEX
  8
0
 10
24.012235
 20
21.508047
 42
0.194165
  0
VERTEX
  8
0
 10
24.045333
 20
21.463000
 42
-0.258993
  0
VERTEX
  8
0
 10
24.125924
 20
21.319048
 42
-0.000693
  0
VERTEX
  8
0
 10
24.130928
 20
18.978929
 42
-0.000829
  0
VERTEX
  8
0
 10
24.128824
 20
16.654745
 42
-0.198246
  0
VERTEX
  8
0
 10
24.049098
 20
16.462965
 42
0.176887
  0
VERTEX
  8
0
 10
24.015545
 20
16.390806
 42
0.002976
  0
VERTEX
  8
0
 10
23.980258
 20
15.945855
 42
0.007238
  0
VERTEX
  8
0
 10
23.949475
 20
15.422189
 42
0.004700
  0
VERTEX
  8
0
 10
23.928355
 20
14.816198
 42
-0.002233
  0
VERTEX
  8
0
 10
23.857242
 20
12.438882
 42
-0.003093
  0
VERTEX
  8
0
 10
23.770773
 20
10.307953
 42
-0.000779
  0
VERTEX
  8
0
 10
23.678754
 20
8.404285
 42
-0.114180
  0
VERTEX
  8
0
 10
23.618531
 20
8.192649
 42
0.100561
  0
VERTEX
  8
0
 10
23.586527
 20
8.090691
 42
0.007784
  0
VERTEX
  8
0
 10
23.561185
 20
7.803933
 42
0.010397
  0
VERTEX
  8
0
 10
23.543256
 20
7.457991
 42
0.007747
  0
VERTEX
  8
0
 10
23.537333
 20
7.075812
 42
-0.007645
  0
VERTEX
  8
0
 10
23.531432
 20
6.689883
 42
-0.013017
  0
VERTEX
  8
0
 10
23.513177
 20
6.367767
 42
-0.007958
  0
VERTEX
  8
0
 10
23.487550
 20
6.108589
 42
-0.229599
  0
VERTEX
  8
0
 10
23.452667
 20
6.053667
 42
0.244714
  0
VERTEX
  8
0
 10
23.382300
 20
5.935536
 42
0.014309
  0
VERTEX
  8
0
 10
23.369929
 20
5.503333
 42
0.014309
  0
VERTEX
  8
0
 10
23.382300
 20
5.071131
 42
0.244714
  0
VERTEX
  8
0
 10
23.452667
 20
4.953000
 42
-0.184643
  0
VERTEX
  8
0
 10
23.485646
 20
4.909802
 42
-0.025604
  0
VERTEX
  8
0
 10
23.512463
 20
4.798132
 42
-0.026510
  0
VERTEX
  8
0
 10
23.531149
 20
4.656818
 42
-0.019619
  0
VERTEX
  8
0
 10
23.537333
 20
4.499270
 42
0.015431
  0
VERTEX
  8
0
 10
23.542260
 20
4.339684
 42
0.019254
  0
VERTEX
  8
0
 10
23.557096
 20
4.192152
 42
0.017800
  0
VERTEX
  8
0
 10
23.578382
 20
4.071282
 42
0.122264
  0
VERTEX
  8
0
 10
23.604610
 20
4.017433
 42
-0.072446
  0
VERTEX
  8
0
 10
23.638805
 20
3.961900
 42
-0.007260
  0
VERTEX
  8
0
 10
23.698579
 20
3.817620
 42
-0.009000
  0
VERTEX
  8
0
 10
23.764551
 20
3.642480
 42
-0.007040
  0
VERTEX
  8
0
 10
23.830029
 20
3.450167
 42
0.012336
  0
VERTEX
  8
0
 10
23.895767
 20
3.263588
 42
0.019089
  0
VERTEX
  8
0
 10
23.962547
 20
3.106341
 42
0.013999
  0
VERTEX
  8
0
 10
24.024322
 20
2.984054
 42
0.275421
  0
VERTEX
  8
0
 10
24.059085
 20
2.963333
 42
-0.130414
  0
VERTEX
  8
0
 10
24.086129
 20
2.956158
 42
-0.100660
  0
VERTEX
  8
0
 10
24.109169
 20
2.935975
 42
-0.088514
  0
VERTEX
  8
0
 10
24.124665
 20
2.905785
 42
-0.074548
  0
VERTEX
  8
0
 10
24.130000
 20
2.870200
 42
0.183674
  0
VERTEX
  8
0
 10
24.176713
 20
2.747328
 42
0.014701
  0
VERTEX
  8
0
 10
24.419012
 20
2.490346
 42
0.014701
  0
VERTEX
  8
0
 10
24.675994
 20
2.248046
 42
0.183674
  0
VERTEX
  8
0
 10
24.798867
 20
2.201333
 42
-0.089722
  0
VERTEX
  8
0
 10
24.834424
 20
2.194901
 42
-0.095258
  0
VERTEX
  8
0
 10
24.864642
 20
2.176462
 42
-0.099798
  0
VERTEX
  8
0
 10
24.884860
 20
2.148968
 42
-0.109208
  0
VERTEX
  8
0
 10
24.892000
 20
2.116667
 42
0.148195
  0
VERTEX
  8
0
 10
24.901785
 20
2.084379
 42
0.098894
  0
VERTEX
  8
0
 10
24.929306
 20
2.056871
 42
0.082425
  0
VERTEX
  8
0
 10
24.970447
 20
2.038324
 42
0.064853
  0
VERTEX
  8
0
 10
25.019000
 20
2.032000
 42
-0.057319
  0
VERTEX
  8
0
 10
25.067575
 20
2.026413
 42
-0.076610
  0
VERTEX
  8
0
 10
25.108694
 20
2.009897
 42
-0.095581
  0
VERTEX
  8
0
 10
25.136252
 20
1.985459
 42
-0.165169
  0
VERTEX
  8
0
 10
25.146000
 20
1.956756
 42
0.256887
  0
VERTEX
  8
0
 10
25.163910
 20
1.924196
 42
0.037322
  0
VERTEX
  8
0
 10
25.233048
 20
1.887285
 42
0.034546
  0
VERTEX
  8
0
 10
25.328804
 20
1.852687
 42
0.023055
  0
VERTEX
  8
0
 10
25.442333
 20
1.825919
 42
-0.024780
  0
VERTEX
  8
0
 10
25.555853
 20
1.798741
 42
-0.036741
  0
VERTEX
  8
0
 10
25.651619
 20
1.762913
 42
-0.040853
  0
VERTEX
  8
0
 10
25.720209
 20
1.724267
 42
-0.248969
  0
VERTEX
  8
0
 10
25.738667
 20
1.689497
 42
0.198381
  0
VERTEX
  8
0
 10
25.751421
 20
1.658616
 42
0.085730
  0
VERTEX
  8
0
 10
25.788408
 20
1.632411
 42
0.065694
  0
VERTEX
  8
0
 10
25.843185
 20
1.614612
 42
0.045771
  0
VERTEX
  8
0
 10
25.908000
 20
1.608667
 42
-0.042810
  0
VERTEX
  8
0
 10
25.972827
 20
1.603106
 42
-0.062487
  0
VERTEX
  8
0
 10
26.027592
 20
1.586408
 42
-0.082018
  0
VERTEX
  8
0
 10
26.064695
 20
1.561863
 42
-0.208625
  0
VERTEX
  8
0
 10
26.077333
 20
1.532893
 42
0.271278
  0
VERTEX
  8
0
 10
26.096191
 20
1.500694
 42
0.035912
  0
VERTEX
  8
0
 10
26.170599
 20
1.465719
 42
0.033589
  0
VERTEX
  8
0
 10
26.273179
 20
1.433937
 42
0.021974
  0
VERTEX
  8
0
 10
26.394833
 20
1.410622
 42
-0.002146
  0
VERTEX
  8
0
 10
26.556709
 20
1.386206
 42
-0.000718
  0
VERTEX
  8
0
 10
26.793163
 20
1.349154
 42
-0.000714
  0
VERTEX
  8
0
 10
27.054812
 20
1.307387
 42
-0.000816
  0
VERTEX
  8
0
 10
27.305000
 20
1.266663
 42
0.025538
  0
VERTEX
  8
0
 10
27.647063
 20
1.228218
 42
0.008056
  0
VERTEX
  8
0
 10
28.161058
 20
1.205203
 42
0.007416
  0
VERTEX
  8
0
 10
28.778548
 20
1.196678
 42
0.005428
  0
VERTEX
  8
0
 10
29.464000
 20
1.204824
 42
0.002989
  0
VERTEX
  8
0
 10
30.397141
 20
1.231629
 42
0.020957
  0
VERTEX
  8
0
 10
30.850891
 20
1.266455
 42
0.041365
  0
VERTEX
  8
0
 10
31.157730
 20
1.329037
 42
0.040011
  0
VERTEX
  8
0
 10
31.453667
 20
1.441734
 42
0.009681
  0
VERTEX
  8
0
 10
31.617891
 20
1.523754
 42
0.013585
  0
VERTEX
  8
0
 10
31.760936
 20
1.603717
 42
0.009830
  0
VERTEX
  8
0
 10
31.875689
 20
1.675113
 42
0.150754
  0
VERTEX
  8
0
 10
31.905222
 20
1.710510
 42
-0.132784
  0
VERTEX
  8
0
 10
31.925300
 20
1.736374
 42
-0.059760
  0
VERTEX
  8
0
 10
31.962738
 20
1.758175
 42
-0.053148
  0
VERTEX
  8
0
 10
32.010355
 20
1.772995
 42
-0.048922
  0
VERTEX
  8
0
 10
32.061389
 20
1.778000
 42
0.185260
  0
VERTEX
  8
0
 10
32.253877
 20
1.851856
 42
0.011314
  0
VERTEX
  8
0
 10
32.710140
 20
2.281501
 42
0.016697
  0
VERTEX
  8
0
 10
33.139015
 20
2.733262
 42
0.067457
  0
VERTEX
  8
0
 10
33.350349
 20
3.048000
 42
-0.001644
  0
VERTEX
  8
0
 10
33.413455
 20
3.175404
 42
-0.001288
  0
VERTEX
  8
0
 10
33.482739
 20
3.313245
 42
-0.001302
  0
VERTEX
  8
0
 10
33.547876
 20
3.441178
 42
-0.003191
  0
VERTEX
  8
0
 10
33.596625
 20
3.534833
 42
0.000809
  0
VERTEX
  8
0
 10
33.642147
 20
3.621281
 42
0.000485
  0
VERTEX
  8
0
 10
33.695979
 20
3.724156
 42
0.000485
  0
VERTEX
  8
0
 10
33.749363
 20
3.826656
 42
0.000844
  0
VERTEX
  8
0
 10
33.793433
 20
3.911825
 42
0.094647
  0
VERTEX
  8
0
 10
33.871743
 20
4.177070
 42
0.004490
  0
VERTEX
  8
0
 10
33.954999
 20
5.106168
 42
0.007097
  0
VERTEX
  8
0
 10
34.029781
 20
6.234238
 42
0.004656
  0
VERTEX
  8
0
 10
34.085357
 20
7.535333
 42
-0.006200
  0
VERTEX
  8
0
 10
34.105976
 20
7.985476
 42
-0.008345
  0
VERTEX
  8
0
 10
34.136492
 20
8.392319
 42
-0.006028
  0
VERTEX
  8
0
 10
34.171670
 20
8.730632
 42
-0.084413
  0
VERTEX
  8
0
 10
34.205843
 20
8.847667
 42
0.107814
  0
VERTEX
  8
0
 10
34.303244
 20
9.249645
 42
0.001947
  0
VERTEX
  8
0
 10
34.345465
 20
11.467843
 42
0.003145
  0
VERTEX
  8
0
 10
34.374338
 20
14.730650
 42
0.000658
  0
VERTEX
  8
0
 10
34.381449
 20
20.447000
 42
0.000679
  0
VERTEX
  8
0
 10
34.373080
 20
26.304377
 42
0.002898
  0
VERTEX
  8
0
 10
34.343076
 20
29.800651
 42
0.001510
  0
VERTEX
  8
0
 10
34.300479
 20
32.248853
 42
0.108824
  0
VERTEX
  8
0
 10
34.206155
 20
32.639000
 42
-0.084734
  0
VERTEX
  8
0
 10
34.171867
 20
32.756058
 42
-0.006058
  0
VERTEX
  8
0
 10
34.136637
 20
33.094348
 42
-0.008382
  0
VERTEX
  8
0
 10
34.106113
 20
33.501190
 42
-0.006227
  0
VERTEX
  8
0
 10
34.085542
 20
33.951333
 42
0.004681
  0
VERTEX
  8
0
 10
34.025931
 20
35.350601
 42
0.005303
  0
VERTEX
  8
0
 10
33.941961
 20
36.691435
 42
0.002111
  0
VERTEX
  8
0
 10
33.848555
 20
37.896285
 42
0.108159
  0
VERTEX
  8
0
 10
33.780063
 20
38.120018
 42
-0.086278
  0
VERTEX
  8
0
 10
33.747851
 20
38.210957
 42
-0.014085
  0
VERTEX
  8
0
 10
33.721635
 20
38.396815
 42
-0.015153
  0
VERTEX
  8
0
 10
33.703400
 20
38.619641
 42
-0.012839
  0
VERTEX
  8
0
 10
33.697333
 20
38.855854
 42
0.013411
  0
VERTEX
  8
0
 10
33.691179
 20
39.085244
 42
0.019416
  0
VERTEX
  8
0
 10
33.672463
 20
39.287079
 42
0.015468
  0
VERTEX
  8
0
 10
33.645989
 20
39.448832
 42
0.208980
  0
VERTEX
  8
0
 10
33.612667
 20
39.497000
 42
-0.199176
  0
VERTEX
  8
0
 10
33.579499
 20
39.543067
 42
-0.019542
  0
VERTEX
  8
0
 10
33.552871
 20
39.680245
 42
-0.022326
  0
VERTEX
  8
0
 10
33.534166
 20
39.852757
 42
-0.015841
  0
VERTEX
  8
0
 10
33.528000
 20
40.047333
 42
0.014111
  0
VERTEX
  8
0
 10
33.522519
 20
40.241507
 42
0.020272
  0
VERTEX
  8
0
 10
33.505862
 20
40.412732
 42
0.016646
  0
VERTEX
  8
0
 10
33.482255
 20
40.549599
 42
0.206130
  0
VERTEX
  8
0
 10
33.452636
 20
40.591917
 42
-0.217315
  0
VERTEX
  8
0
 10
33.420591
 20
40.639856
 42
-0.005748
  0
VERTEX
  8
0
 10
33.381510
 20
40.898834
 42
-0.011049
  0
VERTEX
  8
0
 10
33.345141
 20
41.210454
 42
-0.007213
  0
VERTEX
  8
0
 10
33.316333
 20
41.571333
 42
0.007213
  0
VERTEX
  8
0
 10
33.287525
 20
41.932212
 42
0.011049
  0
VERTEX
  8
0
 10
33.251157
 20
42.243833
 42
0.005748
  0
VERTEX
  8
0
 10
33.212076
 20
42.502811
 42
0.217315
  0
VERTEX
  8
0
 10
33.180030
 20
42.550749
 42
-0.206130
  0
VERTEX
  8
0
 10
33.150412
 20
42.593068
 42
-0.016646
  0
VERTEX
  8
0
 10
33.126805
 20
42.729934
 42
-0.020272
  0
VERTEX
  8
0
 10
33.110148
 20
42.901160
 42
-0.014111
  0
VERTEX
  8
0
 10
33.104667
 20
43.095333
 42
0.015841
  0
VERTEX
  8
0
 10
33.098501
 20
43.289910
 42
0.022326
  0
VERTEX
  8
0
 10
33.079796
 20
43.462421
 42
0.019542
  0
VERTEX
  8
0
 10
33.053168
 20
43.599600
 42
0.199176
  0
VERTEX
  8
0
 10
33.020000
 20
43.645667
 42
-0.164729
  0
VERTEX
  8
0
 10
32.987129
 20
43.685438
 42
-0.033187
  0
VERTEX
  8
0
 10
32.959816
 20
43.774420
 42
-0.031773
  0
VERTEX
  8
0
 10
32.940726
 20
43.887016
 42
-0.025053
  0
VERTEX
  8
0
 10
32.934011
 20
44.010497
 42
0.026445
  0
VERTEX
  8
0
 10
32.925156
 20
44.165371
 42
0.009997
  0
VERTEX
  8
0
 10
32.897045
 20
44.380427
 42
0.009869
  0
VERTEX
  8
0
 10
32.857089
 20
44.613600
 42
0.011870
  0
VERTEX
  8
0
 10
32.810027
 20
44.831000
 42
-0.013022
  0
VERTEX
  8
0
 10
32.762832
 20
45.051472
 42
-0.010050
  0
VERTEX
  8
0
 10
32.722511
 20
45.294008
 42
-0.010185
  0
VERTEX
  8
0
 10
32.694005
 20
45.522217
 42
-0.023855
  0
VERTEX
  8
0
 10
32.684349
 20
45.693837
 42
0.022039
  0
VERTEX
  8
0
 10
32.676998
 20
45.833538
 42
0.028875
  0
VERTEX
  8
0
 10
32.657348
 20
45.959811
 42
0.029079
  0
VERTEX
  8
0
 10
32.629730
 20
46.059507
 42
0.173930
  0
VERTEX
  8
0
 10
32.596667
 20
46.101000
 42
-0.160038
  0
VERTEX
  8
0
 10
32.563924
 20
46.139886
 42
-0.035433
  0
VERTEX
  8
0
 10
32.536871
 20
46.223873
 42
-0.033399
  0
VERTEX
  8
0
 10
32.518215
 20
46.330001
 42
-0.026815
  0
VERTEX
  8
0
 10
32.512000
 20
46.445812
 42
0.024673
  0
VERTEX
  8
0
 10
32.505938
 20
46.568578
 42
0.021711
  0
VERTEX
  8
0
 10
32.487773
 20
46.695567
 42
0.022290
  0
VERTEX
  8
0
 10
32.461266
 20
46.808737
 42
0.059219
  0
VERTEX
  8
0
 10
32.429524
 20
46.885316
 42
-0.055583
  0
VERTEX
  8
0
 10
32.392601
 20
46.972600
 42
-0.010709
  0
VERTEX
  8
0
 10
32.347128
 20
47.138372
 42
-0.011280
  0
VERTEX
  8
0
 10
32.302369
 20
47.335066
 42
-0.010191
  0
VERTEX
  8
0
 10
32.264845
 20
47.540333
 42
0.003577
  0
VERTEX
  8
0
 10
32.186596
 20
48.002888
 42
0.010469
  0
VERTEX
  8
0
 10
32.123715
 20
48.320138
 42
0.014983
  0
VERTEX
  8
0
 10
32.065624
 20
48.550940
 42
0.031275
  0
VERTEX
  8
0
 10
32.004000
 20
48.725667
 42
-0.020231
  0
VERTEX
  8
0
 10
31.972739
 20
48.808431
 42
-0.008976
  0
VERTEX
  8
0
 10
31.937933
 20
48.919871
 42
-0.008867
  0
VERTEX
  8
0
 10
31.905242
 20
49.039362
 42
-0.011832
  0
VERTEX
  8
0
 10
31.880074
 20
49.149000
 42
0.003564
  0
VERTEX
  8
0
 10
31.852192
 20
49.280384
 42
0.001104
  0
VERTEX
  8
0
 10
31.808408
 20
49.477612
 42
0.001104
  0
VERTEX
  8
0
 10
31.758487
 20
49.697881
 42
0.001215
  0
VERTEX
  8
0
 10
31.709147
 20
49.911000
 42
-0.000973
  0
VERTEX
  8
0
 10
31.659697
 20
50.124119
 42
-0.000884
  0
VERTEX
  8
0
 10
31.609451
 20
50.344387
 42
-0.000884
  0
VERTEX
  8
0
 10
31.565194
 20
50.541610
 42
-0.002849
  0
VERTEX
  8
0
 10
31.536740
 20
50.673000
 42
0.010808
  0
VERTEX
  8
0
 10
31.511162
 20
50.782638
 42
0.008120
  0
VERTEX
  8
0
 10
31.478472
 20
50.902129
 42
0.008218
  0
VERTEX
  8
0
 10
31.444029
 20
51.013581
 42
0.018639
  0
VERTEX
  8
0
 10
31.413500
 20
51.096333
 42
-0.011636
  0
VERTEX
  8
0
 10
31.306697
 20
51.373809
 42
-0.015465
  0
VERTEX
  8
0
 10
31.223399
 20
51.630982
 42
-0.016380
  0
VERTEX
  8
0
 10
31.159915
 20
51.880074
 42
-0.016327
  0
VERTEX
  8
0
 10
31.112797
 20
52.133056
 42
0.017625
  0
VERTEX
  8
0
 10
31.086134
 20
52.274173
 42
0.022975
  0
VERTEX
  8
0
 10
31.051342
 20
52.400909
 42
0.021533
  0
VERTEX
  8
0
 10
31.013841
 20
52.501475
 42
0.155545
  0
VERTEX
  8
0
 10
30.980633
 20
52.540220
 42
-0.124364
  0
VERTEX
  8
0
 10
30.950938
 20
52.570858
 42
-0.047198
  0
VERTEX
  8
0
 10
30.926040
 20
52.625437
 42
-0.043047
  0
VERTEX
  8
0
 10
30.909048
 20
52.692653
 42
-0.040415
  0
VERTEX
  8
0
 10
30.903333
 20
52.763234
 42
0.071048
  0
VERTEX
  8
0
 10
30.867199
 20
53.016242
 42
0.006523
  0
VERTEX
  8
0
 10
30.681174
 20
53.624588
 42
0.008960
  0
VERTEX
  8
0
 10
30.474387
 20
54.232814
 42
0.027663
  0
VERTEX
  8
0
 10
30.304984
 20
54.632421
 42
-0.018594
  0
VERTEX
  8
0
 10
30.241009
 20
54.776032
 42
-0.012464
  0
VERTEX
  8
0
 10
30.178180
 20
54.944495
 42
-0.012562
  0
VERTEX
  8
0
 10
30.125424
 20
55.110948
 42
-0.024093
  0
VERTEX
  8
0
 10
30.093003
 20
55.247190
 42
0.019969
  0
VERTEX
  8
0
 10
30.066239
 20
55.363925
 42
0.024774
  0
VERTEX
  8
0
 10
30.031732
 20
55.469878
 42
0.024327
  0
VERTEX
  8
0
 10
29.994862
 20
55.554009
 42
0.139786
  0
VERTEX
  8
0
 10
29.962402
 20
55.589599
 42
-0.121414
  0
VERTEX
  8
0
 10
29.933575
 20
55.618997
 42
-0.047966
  0
VERTEX
  8
0
 10
29.909385
 20
55.670639
 42
-0.043810
  0
VERTEX
  8
0
 10
29.892886
 20
55.734023
 42
-0.041796
  0
VERTEX
  8
0
 10
29.887333
 20
55.800330
 42
0.037095
  0
VERTEX
  8
0
 10
29.882658
 20
55.863265
 42
0.055821
  0
VERTEX
  8
0
 10
29.868534
 20
55.916393
 42
0.073234
  0
VERTEX
  8
0
 10
29.847853
 20
55.952717
 42
0.230722
  0
VERTEX
  8
0
 10
29.823335
 20
55.964667
 42
-0.272289
  0
VERTEX
  8
0
 10
29.758492
 20
56.002806
 42
-0.020726
  0
VERTEX
  8
0
 10
29.663507
 20
56.191676
 42
-0.025676
  0
VERTEX
  8
0
 10
29.570840
 20
56.428352
 42
-0.022375
  0
VERTEX
  8
0
 10
29.498033
 20
56.684333
 42
0.015241
  0
VERTEX
  8
0
 10
29.471031
 20
56.784688
 42
0.018895
  0
VERTEX
  8
0
 10
29.439588
 20
56.876156
 42
0.017486
  0
VERTEX
  8
0
 10
29.408077
 20
56.949892
 42
0.118334
  0
VERTEX
  8
0
 10
29.383474
 20
56.980667
 42
-0.113126
  0
VERTEX
  8
0
 10
29.304196
 20
57.077770
 42
-0.004226
  0
VERTEX
  8
0
 10
29.097558
 20
57.504524
 42
-0.004407
  0
VERTEX
  8
0
 10
28.898985
 20
57.933343
 42
-0.106615
  0
VERTEX
  8
0
 10
28.871333
 20
58.061550
 42
0.068378
  0
VERTEX
  8
0
 10
28.866298
 20
58.098196
 42
0.061179
  0
VERTEX
  8
0
 10
28.851508
 20
58.133642
 42
0.064498
  0
VERTEX
  8
0
 10
28.829657
 20
58.162607
 42
0.100233
  0
VERTEX
  8
0
 10
28.803843
 20
58.180111
 42
-0.145689
  0
VERTEX
  8
0
 10
28.768785
 20
58.208776
 42
-0.011249
  0
VERTEX
  8
0
 10
28.702129
 20
58.311962
 42
-0.014649
  0
VERTEX
  8
0
 10
28.627752
 20
58.441337
 42
-0.010639
  0
VERTEX
  8
0
 10
28.552356
 20
58.589333
 42
0.008412
  0
VERTEX
  8
0
 10
28.393580
 20
58.904457
 42
0.010084
  0
VERTEX
  8
0
 10
28.233259
 20
59.195348
 42
0.007805
  0
VERTEX
  8
0
 10
28.089015
 20
59.436261
 42
0.084946
  0
VERTEX
  8
0
 10
28.014298
 20
59.520667
 42
-0.084212
  0
VERTEX
  8
0
 10
27.984172
 20
59.554599
 42
-0.004384
  0
VERTEX
  8
0
 10
27.907740
 20
59.679475
 42
-0.006840
  0
VERTEX
  8
0
 10
27.819812
 20
59.830650
 42
-0.004909
  0
VERTEX
  8
0
 10
27.725553
 20
60.001843
 42
0.012695
  0
VERTEX
  8
0
 10
27.620659
 20
60.185520
 42
0.010709
  0
VERTEX
  8
0
 10
27.500659
 20
60.374529
 42
0.010849
  0
VERTEX
  8
0
 10
27.383712
 20
60.542283
 42
0.029302
  0
VERTEX
  8
0
 10
27.291421
 20
60.654314
 42
-0.011955
  0
VERTEX
  8
0
 10
27.215550
 20
60.740166
 42
-0.016223
  0
VERTEX
  8
0
 10
27.151522
 20
60.821416
 42
-0.013141
  0
VERTEX
  8
0
 10
27.102945
 20
60.891114
 42
-0.146638
  0
VERTEX
  8
0
 10
27.093333
 20
60.923182
 42
0.173153
  0
VERTEX
  8
0
 10
27.054000
 20
61.033358
 42
0.002141
  0
VERTEX
  8
0
 10
26.568699
 20
61.621249
 42
0.006925
  0
VERTEX
  8
0
 10
26.092549
 20
62.177209
 42
0.017615
  0
VERTEX
  8
0
 10
25.727656
 20
62.563205
 42
0.016300
  0
VERTEX
  8
0
 10
24.970507
 20
63.262465
 42
0.022494
  0
VERTEX
  8
0
 10
24.244191
 20
63.835643
 42
0.022271
  0
VERTEX
  8
0
 10
23.617377
 20
64.245040
 42
0.134310
  0
VERTEX
  8
0
 10
23.245873
 20
64.346667
 42
-0.062344
  0
VERTEX
  8
0
 10
23.195450
 20
64.352978
 42
-0.080598
  0
VERTEX
  8
0
 10
23.152738
 20
64.371538
 42
-0.098012
  0
VERTEX
  8
0
 10
23.124152
 20
64.399043
 42
-0.153500
  0
VERTEX
  8
0
 10
23.114000
 20
64.431333
 42
0.148195
  0
VERTEX
  8
0
 10
23.104215
 20
64.463621
 42
0.098894
  0
VERTEX
  8
0
 10
23.076694
 20
64.491129
 42
0.082425
  0
VERTEX
  8
0
 10
23.035553
 20
64.509676
 42
0.064853
  0
VERTEX
  8
0
 10
22.987000
 20
64.516000
 42
-0.047989
  0
VERTEX
  8
0
 10
22.938344
 20
64.520681
 42
-0.067494
  0
VERTEX
  8
0
 10
22.897094
 20
64.534653
 42
-0.087092
  0
VERTEX
  8
0
 10
22.869151
 20
64.555246
 42
-0.189866
  0
VERTEX
  8
0
 10
22.859276
 20
64.579500
 42
0.289535
  0
VERTEX
  8
0
 10
22.839173
 20
64.610518
 42
0.010400
  0
VERTEX
  8
0
 10
22.703535
 20
64.669678
 42
0.016259
  0
VERTEX
  8
0
 10
22.532711
 20
64.733581
 42
0.010334
  0
VERTEX
  8
0
 10
22.330110
 20
64.797318
 42
-0.005625
  0
VERTEX
  8
0
 10
22.117013
 20
64.862158
 42
-0.006331
  0
VERTEX
  8
0
 10
21.913710
 20
64.929369
 42
-0.005840
  0
VERTEX
  8
0
 10
21.742282
 20
64.990711
 42
-0.033815
  0
VERTEX
  8
0
 10
21.654649
 20
65.030152
 42
0.057264
  0
VERTEX
  8
0
 10
21.578116
 20
65.060375
 42
0.021235
  0
VERTEX
  8
0
 10
21.464900
 20
65.085603
 42
0.020716
  0
VERTEX
  8
0
 10
21.337911
 20
65.102897
 42
0.023486
  0
VERTEX
  8
0
 10
21.215146
 20
65.108667
 42
-0.026815
  0
VERTEX
  8
0
 10
21.099334
 20
65.114882
 42
-0.033399
  0
VERTEX
  8
0
 10
20.993207
 20
65.133538
 42
-0.035433
  0
VERTEX
  8
0
 10
20.909219
 20
65.160591
 42
-0.160038
  0
VERTEX
  8
0
 10
20.870333
 20
65.193333
 42
0.258141
  0
VERTEX
  8
0
 10
20.731484
 20
65.271359
 42
0.001679
  0
VERTEX
  8
0
 10
19.279024
 20
65.276238
 42
0.002558
  0
VERTEX
  8
0
 10
17.862375
 20
65.268990
 42
0.141815
  0
SEQEND
  0
POLYLINE
  8
0
 66
1
 70
1
  0
VERTEX
  8
0
 10
20.643376
 20
50.800000
 42
0.008523
  0
VERTEX
  8
0
 10
20.698291
 20
50.683423
 42
0.010957
  0
VERTEX
  8
0
 10
20.752922
 20
50.578279
 42
0.008933
  0
VERTEX
  8
0
 10
20.801836
 20
50.492644
 42
0.087970
  0
VERTEX
  8
0
 10
20.828875
 20
50.461333
 42
-0.129603
  0
VERTEX
  8
0
 10
20.855128
 20
50.425331
 42
-0.005974
  0
VERTEX
  8
0
 10
20.909051
 20
50.282210
 42
-0.009590
  0
VERTEX
  8
0
 10
20.968327
 20
50.108702
 42
-0.006703
  0
VERTEX
  8
0
 10
21.028750
 20
49.911000
 42
0.006062
  0
VERTEX
  8
0
 10
21.091198
 20
49.705732
 42
0.006723
  0
VERTEX
  8
0
 10
21.156577
 20
49.509038
 42
0.006276
  0
VERTEX
  8
0
 10
21.216666
 20
49.342826
 42
0.034347
  0
VERTEX
  8
0
 10
21.256297
 20
49.255982
 42
-0.031094
  0
VERTEX
  8
0
 10
21.286819
 20
49.190231
 42
-0.022909
  0
VERTEX
  8
0
 10
21.312587
 20
49.114170
 42
-0.023312
  0
VERTEX
  8
0
 10
21.330351
 20
49.039718
 42
-0.046934
  0
VERTEX
  8
0
 10
21.336000
 20
48.979667
 42
0.044016
  0
VERTEX
  8
0
 10
21.341297
 20
48.919614
 42
0.022031
  0
VERTEX
  8
0
 10
21.357946
 20
48.845164
 42
0.021687
  0
VERTEX
  8
0
 10
21.382096
 20
48.769097
 42
0.029849
  0
VERTEX
  8
0
 10
21.410708
 20
48.703351
 42
-0.030155
  0
VERTEX
  8
0
 10
21.445909
 20
48.622331
 42
-0.007773
  0
VERTEX
  8
0
 10
21.492664
 20
48.487601
 42
-0.007883
  0
VERTEX
  8
0
 10
21.541266
 20
48.331981
 42
-0.007948
  0
VERTEX
  8
0
 10
21.584797
 20
48.175333
 42
-0.000578
  0
VERTEX
  8
0
 10
21.715959
 20
47.670097
 42
-0.002408
  0
VERTEX
  8
0
 10
21.793174
 20
47.365189
 42
-0.003910
  0
VERTEX
  8
0
 10
21.845957
 20
47.145115
 42
-0.005476
  0
VERTEX
  8
0
 10
21.889411
 20
46.947667
 42
0.008175
  0
VERTEX
  8
0
 10
21.913466
 20
46.841107
 42
0.007242
  0
VERTEX
  8
0
 10
21.941923
 20
46.730973
 42
0.007290
  0
VERTEX
  8
0
 10
21.970432
 20
46.632538
 42
0.021962
  0
VERTEX
  8
0
 10
21.993764
 20
46.566667
 42
-0.049203
  0
VERTEX
  8
0
 10
22.039807
 20
46.410092
 42
-0.002397
  0
VERTEX
  8
0
 10
22.138344
 20
45.877311
 42
-0.004261
  0
VERTEX
  8
0
 10
22.237952
 20
45.295514
 42
-0.005112
  0
VERTEX
  8
0
 10
22.321413
 20
44.746333
 42
0.017065
  0
VERTEX
  8
0
 10
22.345341
 20
44.610779
 42
0.019666
  0
VERTEX
  8
0
 10
22.377588
 20
44.483523
 42
0.019137
  0
VERTEX
  8
0
 10
22.412956
 20
44.378823
 42
0.098565
  0
VERTEX
  8
0
 10
22.445339
 20
44.327233
 42
-0.115216
  0
VERTEX
  8
0
 10
22.474754
 20
44.276753
 42
-0.026207
  0
VERTEX
  8
0
 10
22.499010
 20
44.180063
 42
-0.025784
  0
VERTEX
  8
0
 10
22.515748
 20
44.062843
 42
-0.022572
  0
VERTEX
  8
0
 10
22.521333
 20
43.939178
 42
0.019011
  0
VERTEX
  8
0
 10
22.525988
 20
43.816804
 42
0.023453
  0
VERTEX
  8
0
 10
22.539986
 20
43.703506
 42
0.022791
  0
VERTEX
  8
0
 10
22.560151
 20
43.611346
 42
0.133509
  0
VERTEX
  8
0
 10
22.584833
 20
43.568872
 42
-0.145829
  0
VERTEX
  8
0
 10
22.613831
 20
43.516076
 42
-0.005062
  0
VERTEX
  8
0
 10
22.661495
 20
43.283945
 42
-0.009068
  0
VERTEX
  8
0
 10
22.710533
 20
43.005392
 42
-0.006171
  0
VERTEX
  8
0
 10
22.756640
 20
42.686928
 42
0.001534
  0
VERTEX
  8
0
 10
22.833311
 20
42.120351
 42
0.002002
  0
VERTEX
  8
0
 10
22.907108
 20
41.602594
 42
0.001660
  0
VERTEX
  8
0
 10
22.995138
 20
41.015768
 42
0.000673
  0
VERTEX
  8
0
 10
23.118828
 20
40.216667
 42
-0.007403
  0
VERTEX
  8
0
 10
23.158781
 20
39.933376
 42
-0.002392
  0
VERTEX
  8
0
 10
23.209717
 20
39.512779
 42
-0.002385
  0
VERTEX
  8
0
 10
23.261898
 20
39.044454
 42
-0.002675
  0
VERTEX
  8
0
 10
23.307552
 20
38.593264
 42
0.004954
  0
VERTEX
  8
0
 10
23.351538
 20
38.177477
 42
0.007511
  0
VERTEX
  8
0
 10
23.398794
 20
37.816939
 42
0.003416
  0
VERTEX
  8
0
 10
23.445489
 20
37.512479
 42
0.159157
  0
VERTEX
  8
0
 10
23.473833
 20
37.457319
 42
-0.166268
  0
VERTEX
  8
0
 10
23.498957
 20
37.406716
 42
-0.009540
  0
VERTEX
  8
0
 10
23.518680
 20
37.231698
 42
-0.013707
  0
VERTEX
  8
0
 10
23.532717
 20
37.018454
 42
-0.009580
  0
VERTEX
  8
0
 10
23.537333
 20
36.777539
 42
0.011920
  0
VERTEX
  8
0
 10
23.543305
 20
36.527098
 42
0.013053
  0
VERTEX
  8
0
 10
23.561221
 20
36.284721
 42
0.012558
  0
VERTEX
  8
0
 10
23.587092
 20
36.078841
 42
0.061559
  0
VERTEX
  8
0
 10
23.618654
 20
35.966150
 42
-0.075230
  0
VERTEX
  8
0
 10
23.654124
 20
35.824804
 42
-0.002995
  0
VERTEX
  8
0
 10
23.701859
 20
35.294073
 42
-0.005223
  0
VERTEX
  8
0
 10
23.748187
 20
34.662872
 42
-0.003665
  0
VERTEX
  8
0
 10
23.787710
 20
33.951333
 42
0.001470
  0
VERTEX
  8
0
 10
23.825022
 20
33.221786
 42
0.001761
  0
VERTEX
  8
0
 10
23.864590
 20
32.535151
 42
0.001511
  0
VERTEX
  8
0
 10
23.901721
 20
31.956729
 42
0.011657
  0
VERTEX
  8
0
 10
23.926227
 20
31.686500
 42
0.000000
  0
VERTEX
  8
0
 10
23.977010
 20
31.242000
 42
0.000000
  0
VERTEX
  8
0
 10
19.640968
 20
31.242000
 42
0.000000
  0
VERTEX
  8
0
 10
15.304926
 20
31.242000
 42
0.000000
  0
VERTEX
  8
0
 10
15.366635
 20
31.474833
 42
0.025663
  0
VERTEX
  8
0
 10
15.393032
 20
31.600053
 42
0.006927
  0
VERTEX
  8
0
 10
15.421873
 20
31.800932
 42
0.006995
  0
VERTEX
  8
0
 10
15.448301
 20
32.030227
 42
0.007197
  0
VERTEX
  8
0
 10
15.468022
 20
32.258000
 42
-0.012049
  0
VERTEX
  8
0
 10
15.488900
 20
32.474643
 42
-0.016000
  0
VERTEX
  8
0
 10
15.518904
 20
32.670300
 42
-0.013307
  0
VERTEX
  8
0
 10
15.553007
 20
32.829696
 42
-0.133657
  0
VERTEX
  8
0
 10
15.585517
 20
32.888767
 42
0.141814
  0
VERTEX
  8
0
 10
15.615935
 20
32.946192
 42
0.017215
  0
VERTEX
  8
0
 10
15.640475
 20
33.088356
 42
0.019324
  0
VERTEX
  8
0
 10
15.657646
 20
33.263249
 42
0.014807
  0
VERTEX
  8
0
 10
15.663333
 20
33.455270
 42
-0.014455
  0
VERTEX
  8
0
 10
15.668816
 20
33.644868
 42
-0.020688
  0
VERTEX
  8
0
 10
15.685471
 20
33.812239
 42
-0.017225
  0
VERTEX
  8
0
 10
15.709099
 20
33.945868
 42
-0.204734
  0
VERTEX
  8
0
 10
15.738697
 20
33.987917
 42
0.217315
  0
VERTEX
  8
0
 10
15.770742
 20
34.035856
 42
0.005748
  0
VERTEX
  8
0
 10
15.809824
 20
34.294834
 42
0.011049
  0
VERTEX
  8
0
 10
15.846192
 20
34.606454
 42
0.007213
  0
VERTEX
  8
0
 10
15.875000
 20
34.967333
 42
-0.007213
  0
VERTEX
  8
0
 10
15.903808
 20
35.328212
 42
-0.011049
  0
VERTEX
  8
0
 10
15.940176
 20
35.639833
 42
-0.005748
  0
VERTEX
  8
0
 10
15.979258
 20
35.898811
 42
-0.217315
  0
VERTEX
  8
0
 10
16.011303
 20
35.946749
 42
0.192746
  0
VERTEX
  8
0
 10
16.040747
 20
35.986595
 42
0.022231
  0
VERTEX
  8
0
 10
16.064529
 20
36.097557
 42
0.024193
  0
VERTEX
  8
0
 10
16.081171
 20
36.237588
 42
0.017481
  0
VERTEX
  8
0
 10
16.086667
 20
36.394730
 42
-0.017638
  0
VERTEX
  8
0
 10
16.092298
 20
36.554313
 42
-0.021914
  0
VERTEX
  8
0
 10
16.109245
 20
36.701848
 42
-0.020891
  0
VERTEX
  8
0
 10
16.133616
 20
36.822100
 42
-0.130981
  0
VERTEX
  8
0
 10
16.163528
 20
36.876567
 42
0.115546
  0
VERTEX
  8
0
 10
16.195955
 20
36.931578
 42
0.016785
  0
VERTEX
  8
0
 10
16.230730
 20
37.057727
 42
0.018255
  0
VERTEX
  8
0
 10
16.261898
 20
37.212351
 42
0.014726
  0
VERTEX
  8
0
 10
16.284365
 20
37.380333
 42
-0.009972
  0
VERTEX
  8
0
 10
16.310632
 20
37.592016
 42
-0.003635
  0
VERTEX
  8
0
 10
16.355979
 20
37.890715
 42
-0.003603
  0
VERTEX
  8
0
 10
16.410320
 20
38.216772
 42
-0.004298
  0
VERTEX
  8
0
 10
16.466403
 20
38.523333
 42
0.002682
  0
VERTEX
  8
0
 10
16.522358
 20
38.823700
 42
0.002517
  0
VERTEX
  8
0
 10
16.576318
 20
39.131081
 42
0.002504
  0
VERTEX
  8
0
 10
16.621444
 20
39.404216
 42
0.008662
  0
VERTEX
  8
0
 10
16.646705
 20
39.581667
 42
-0.013939
  0
VERTEX
  8
0
 10
16.668463
 20
39.723746
 42
-0.012275
  0
VERTEX
  8
0
 10
16.698900
 20
39.870592
 42
-0.012428
  0
VERTEX
  8
0
 10
16.732903
 20
40.001685
 42
-0.035987
  0
VERTEX
  8
0
 10
16.765077
 20
40.089667
 42
0.050627
  0
VERTEX
  8
0
 10
16.822710
 20
40.262795
 42
0.006954
  0
VERTEX
  8
0
 10
16.900690
 20
40.635442
 42
0.007402
  0
VERTEX
  8
0
 10
16.985006
 20
41.105277
 42
0.004669
  0
VERTEX
  8
0
 10
17.070171
 20
41.656000
 42
-0.013754
  0
VERTEX
  8
0
 10
17.091983
 20
41.781866
 42
-0.011277
  0
VERTEX
  8
0
 10
17.121992
 20
41.915027
 42
-0.011438
  0
VERTEX
  8
0
 10
17.155156
 20
42.036232
 42
-0.029324
  0
VERTEX
  8
0
 10
17.186206
 20
42.121667
 42
0.020764
  0
VERTEX
  8
0
 10
17.217900
 20
42.204436
 42
0.009236
  0
VERTEX
  8
0
 10
17.253069
 20
42.315871
 42
0.009124
  0
VERTEX
  8
0
 10
17.286009
 20
42.435362
 42
0.012188
  0
VERTEX
  8
0
 10
17.311260
 20
42.545000
 42
-0.003758
  0
VERTEX
  8
0
 10
17.339681
 20
42.678671
 42
-0.001067
  0
VERTEX
  8
0
 10
17.385871
 20
42.886048
 42
-0.001075
  0
VERTEX
  8
0
 10
17.439034
 20
43.120006
 42
-0.001138
  0
VERTEX
  8
0
 10
17.492213
 20
43.349333
 42
0.002746
  0
VERTEX
  8
0
 10
17.544983
 20
43.580270
 42
0.002501
  0
VERTEX
  8
0
 10
17.596919
 20
43.819067
 42
0.002501
  0
VERTEX
  8
0
 10
17.641210
 20
44.032999
 42
0.008100
  0
VERTEX
  8
0
 10
17.667597
 20
44.175618
 42
-0.021900
  0
VERTEX
  8
0
 10
17.690904
 20
44.284678
 42
-0.026673
  0
VERTEX
  8
0
 10
17.722522
 20
44.384181
 42
-0.026834
  0
VERTEX
  8
0
 10
17.757312
 20
44.463216
 42
-0.138095
  0
VERTEX
  8
0
 10
17.789355
 20
44.498115
 42
0.123798
  0
VERTEX
  8
0
 10
17.818284
 20
44.527897
 42
0.047349
  0
VERTEX
  8
0
 10
17.842544
 20
44.580806
 42
0.043194
  0
VERTEX
  8
0
 10
17.859099
 20
44.645925
 42
0.040677
  0
VERTEX
  8
0
 10
17.864667
 20
44.714255
 42
-0.043439
  0
VERTEX
  8
0
 10
17.872739
 20
44.806995
 42
-0.009706
  0
VERTEX
  8
0
 10
17.903248
 20
44.963058
 42
-0.010003
  0
VERTEX
  8
0
 10
17.945730
 20
45.142490
 42
-0.009519
  0
VERTEX
  8
0
 10
17.996008
 20
45.323091
 42
-0.004307
  0
VERTEX
  8
0
 10
18.213297
 20
46.027600
 42
-0.001513
  0
VERTEX
  8
0
 10
18.536978
 20
47.035263
 42
-0.000661
  0
VERTEX
  8
0
 10
18.873597
 20
48.067764
 42
-0.023752
  0
VERTEX
  8
0
 10
18.962955
 20
48.302333
 42
0.009342
  0
VERTEX
  8
0
 10
19.001142
 20
48.394502
 42
0.002342
  0
VERTEX
  8
0
 10
19.059909
 20
48.546279
 42
0.002391
  0
VERTEX
  8
0
 10
19.125479
 20
48.720507
 42
0.002405
  0
VERTEX
  8
0
 10
19.189245
 20
48.895000
 42
-0.009232
  0
VERTEX
  8
0
 10
19.261531
 20
49.084735
 42
-0.005650
  0
VERTEX
  8
0
 10
19.353419
 20
49.305898
 42
-0.005663
  0
VERTEX
  8
0
 10
19.449397
 20
49.522916
 42
-0.010025
  0
VERTEX
  8
0
 10
19.534133
 20
49.699333
 42
0.010187
  0
VERTEX
  8
0
 10
19.607864
 20
49.852967
 42
0.012480
  0
VERTEX
  8
0
 10
19.670184
 20
49.999503
 42
0.010990
  0
VERTEX
  8
0
 10
19.716466
 20
50.124282
 42
0.082651
  0
VERTEX
  8
0
 10
19.726979
 20
50.186167
 42
-0.078462
  0
VERTEX
  8
0
 10
19.733501
 20
50.226595
 42
-0.090300
  0
VERTEX
  8
0
 10
19.752100
 20
50.260912
 42
-0.100408
  0
VERTEX
  8
0
 10
19.779682
 20
50.283856
 42
-0.124063
  0
VERTEX
  8
0
 10
19.812000
 20
50.292000
 42
0.092233
  0
VERTEX
  8
0
 10
19.844321
 20
50.298013
 42
0.096083
  0
VERTEX
  8
0
 10
19.871796
 20
50.315218
 42
0.099372
  0
VERTEX
  8
0
 10
19.890183
 20
50.340884
 42
0.106288
  0
VERTEX
  8
0
 10
19.896667
 20
50.371041
 42
-0.137856
  0
VERTEX
  8
0
 10
19.943999
 20
50.539450
 42
-0.013841
  0
VERTEX
  8
0
 10
20.173505
 20
50.893098
 42
-0.012486
  0
VERTEX
  8
0
 10
20.412846
 20
51.222536
 42
-0.612023
  0
VERTEX
  8
0
 10
20.475484
 20
51.211079
 42
0.019717
  0
VERTEX
  8
0
 10
20.496993
 20
51.148465
 42
0.004354
  0
VERTEX
  8
0
 10
20.539003
 20
51.042992
 42
0.004521
  0
VERTEX
  8
0
 10
20.589755
 20
50.921867
 42
0.004339
  0
SEQEND
  0
ENDSEC
  0
EOF
