999
DXF data, created by potrace 1.16, written by Peter Selinger 2001-2019
  0
SECTION
  2
HEADER
  9
$ACADVER
  1
AC1006
  9
$EXTMIN
 10
0.000000
 20
0.000000
 30
0.000000
  9
$EXTMAX
 10
38.184667
 20
65.362667
 30
0.000000
  0
ENDSEC
  0
SECTION
  2
ENTITIES
  0
POLYLINE
  8
0
 66
1
 70
1
  0
VERTEX
  8
0
 10
8.255000
 20
64.434141
 42
-0.064905
  0
VERTEX
  8
0
 10
8.155495
 20
64.404432
 42
-0.012544
  0
VERTEX
  8
0
 10
7.968998
 20
64.379020
 42
-0.013154
  0
VERTEX
  8
0
 10
7.748465
 20
64.360444
 42
-0.011807
  0
VERTEX
  8
0
 10
7.519163
 20
64.352617
 42
0.013842
  0
VERTEX
  8
0
 10
7.298330
 20
64.344180
 42
0.019885
  0
VERTEX
  8
0
 10
7.103700
 20
64.323544
 42
0.016175
  0
VERTEX
  8
0
 10
6.947996
 20
64.295573
 42
0.204566
  0
VERTEX
  8
0
 10
6.900333
 20
64.262000
 42
-0.154739
  0
VERTEX
  8
0
 10
6.862301
 20
64.229298
 42
-0.037412
  0
VERTEX
  8
0
 10
6.782772
 20
64.202204
 42
-0.034862
  0
VERTEX
  8
0
 10
6.682488
 20
64.183555
 42
-0.028549
  0
VERTEX
  8
0
 10
6.573603
 20
64.177333
 42
0.023310
  0
VERTEX
  8
0
 10
6.462655
 20
64.172158
 42
0.025634
  0
VERTEX
  8
0
 10
6.356179
 20
64.156667
 42
0.026228
  0
VERTEX
  8
0
 10
6.267435
 20
64.134179
 42
0.104890
  0
VERTEX
  8
0
 10
6.218767
 20
64.106979
 42
-0.083716
  0
VERTEX
  8
0
 10
6.161755
 20
64.071898
 42
-0.007721
  0
VERTEX
  8
0
 10
6.006518
 20
64.011843
 42
-0.009787
  0
VERTEX
  8
0
 10
5.817699
 20
63.946298
 42
-0.007523
  0
VERTEX
  8
0
 10
5.609167
 20
63.881907
 42
0.011619
  0
VERTEX
  8
0
 10
5.406350
 20
63.817456
 42
0.018172
  0
VERTEX
  8
0
 10
5.235443
 20
63.751705
 42
0.012733
  0
VERTEX
  8
0
 10
5.101555
 20
63.690453
 42
0.286544
  0
VERTEX
  8
0
 10
5.080000
 20
63.655928
 42
-0.218400
  0
VERTEX
  8
0
 10
5.067493
 20
63.628661
 42
-0.078249
  0
VERTEX
  8
0
 10
5.030258
 20
63.605600
 42
-0.059497
  0
VERTEX
  8
0
 10
4.975504
 20
63.589885
 42
-0.040180
  0
VERTEX
  8
0
 10
4.910667
 20
63.584667
 42
0.044077
  0
VERTEX
  8
0
 10
4.845845
 20
63.578941
 42
0.063880
  0
VERTEX
  8
0
 10
4.791075
 20
63.561772
 42
0.083673
  0
VERTEX
  8
0
 10
4.754025
 20
63.536516
 42
0.204147
  0
VERTEX
  8
0
 10
4.741333
 20
63.506727
 42
-0.231198
  0
VERTEX
  8
0
 10
4.724851
 20
63.472987
 42
-0.044812
  0
VERTEX
  8
0
 10
4.666169
 20
63.435174
 42
-0.039366
  0
VERTEX
  8
0
 10
4.583458
 20
63.399798
 42
-0.027321
  0
VERTEX
  8
0
 10
4.485453
 20
63.372587
 42
0.117358
  0
VERTEX
  8
0
 10
4.266655
 20
63.266935
 42
0.011918
  0
VERTEX
  8
0
 10
3.825008
 20
62.889370
 42
0.015930
  0
VERTEX
  8
0
 10
3.369234
 20
62.453545
 42
0.023797
  0
VERTEX
  8
0
 10
3.002395
 20
62.042248
 42
0.057080
  0
VERTEX
  8
0
 10
2.835787
 20
61.780423
 42
0.008769
  0
VERTEX
  8
0
 10
2.575314
 20
61.220081
 42
0.006709
  0
VERTEX
  8
0
 10
2.328746
 20
60.643619
 42
0.098002
  0
VERTEX
  8
0
 10
2.286000
 20
60.427625
 42
-0.035453
  0
VERTEX
  8
0
 10
2.280260
 20
60.346779
 42
-0.033231
  0
VERTEX
  8
0
 10
2.263141
 20
60.265743
 42
-0.034964
  0
VERTEX
  8
0
 10
2.238098
 20
60.195952
 42
-0.088842
  0
VERTEX
  8
0
 10
2.208184
 20
60.151433
 42
0.131135
  0
VERTEX
  8
0
 10
2.175314
 20
60.092405
 42
0.013029
  0
VERTEX
  8
0
 10
2.139453
 20
59.932967
 42
0.015704
  0
VERTEX
  8
0
 10
2.107118
 20
59.737309
 42
0.011846
  0
VERTEX
  8
0
 10
2.083480
 20
59.520667
 42
-0.001557
  0
VERTEX
  8
0
 10
2.056974
 20
59.220615
 42
-0.000371
  0
VERTEX
  8
0
 10
2.010955
 20
58.721625
 42
-0.000382
  0
VERTEX
  8
0
 10
1.957232
 20
58.148538
 42
-0.000377
  0
VERTEX
  8
0
 10
1.902429
 20
57.573333
 42
0.001801
  0
VERTEX
  8
0
 10
1.848131
 20
56.985706
 42
0.001610
  0
VERTEX
  8
0
 10
1.795927
 20
56.375300
 42
0.001614
  0
VERTEX
  8
0
 10
1.752564
 20
55.826618
 42
0.005029
  0
VERTEX
  8
0
 10
1.728267
 20
55.456667
 42
-0.008929
  0
VERTEX
  8
0
 10
1.707099
 20
55.168713
 42
-0.010703
  0
VERTEX
  8
0
 10
1.676550
 20
54.898660
 42
-0.009518
  0
VERTEX
  8
0
 10
1.641754
 20
54.673139
 42
-0.067278
  0
VERTEX
  8
0
 10
1.608378
 20
54.567667
 42
0.071040
  0
VERTEX
  8
0
 10
1.575006
 20
54.459395
 42
0.008584
  0
VERTEX
  8
0
 10
1.540122
 20
54.211802
 42
0.010062
  0
VERTEX
  8
0
 10
1.509476
 20
53.914384
 42
0.008128
  0
VERTEX
  8
0
 10
1.488203
 20
53.594000
 42
-0.002051
  0
VERTEX
  8
0
 10
1.464241
 20
53.151882
 42
-0.000469
  0
VERTEX
  8
0
 10
1.419936
 20
52.404169
 42
-0.000485
  0
VERTEX
  8
0
 10
1.367220
 20
51.542355
 42
-0.000472
  0
VERTEX
  8
0
 10
1.312374
 20
50.673000
 42
0.002815
  0
VERTEX
  8
0
 10
1.046117
 20
46.112728
 42
0.006835
  0
VERTEX
  8
0
 10
0.914601
 20
42.744100
 42
0.005688
  0
VERTEX
  8
0
 10
0.862713
 20
39.031749
 42
0.001448
  0
VERTEX
  8
0
 10
0.864496
 20
33.010881
 42
0.000582
  0
VERTEX
  8
0
 10
0.881844
 20
29.028513
 42
0.002388
  0
VERTEX
  8
0
 10
0.906713
 20
26.613351
 42
0.000689
  0
VERTEX
  8
0
 10
0.935599
 20
24.857669
 42
0.170343
  0
VERTEX
  8
0
 10
0.989586
 20
24.712160
 42
-0.126826
  0
VERTEX
  8
0
 10
1.030512
 20
24.625323
 42
-0.010739
  0
VERTEX
  8
0
 10
1.071837
 20
24.379626
 42
-0.013702
  0
VERTEX
  8
0
 10
1.107275
 20
24.080065
 42
-0.010171
  0
VERTEX
  8
0
 10
1.130589
 20
23.747612
 42
0.005956
  0
VERTEX
  8
0
 10
1.156192
 20
23.332378
 42
0.002390
  0
VERTEX
  8
0
 10
1.200683
 20
22.765136
 42
0.002365
  0
VERTEX
  8
0
 10
1.254439
 20
22.154349
 42
0.002988
  0
VERTEX
  8
0
 10
1.310202
 20
21.590000
 42
-0.000150
  0
VERTEX
  8
0
 10
1.365974
 20
21.056529
 42
-0.000164
  0
VERTEX
  8
0
 10
1.419770
 20
20.538810
 42
-0.000153
  0
VERTEX
  8
0
 10
1.465515
 20
20.095855
 42
-0.000819
  0
VERTEX
  8
0
 10
1.489982
 20
19.854333
 42
0.012328
  0
VERTEX
  8
0
 10
1.511727
 20
19.679841
 42
0.012116
  0
VERTEX
  8
0
 10
1.542148
 20
19.505612
 42
0.012075
  0
VERTEX
  8
0
 10
1.576181
 20
19.354305
 42
0.044348
  0
VERTEX
  8
0
 10
1.608330
 20
19.261667
 42
-0.040424
  0
VERTEX
  8
0
 10
1.640489
 20
19.171292
 42
-0.012355
  0
VERTEX
  8
0
 10
1.674481
 20
19.030156
 42
-0.012279
  0
VERTEX
  8
0
 10
1.704871
 20
18.869621
 42
-0.013131
  0
VERTEX
  8
0
 10
1.726575
 20
18.711333
 42
0.008854
  0
VERTEX
  8
0
 10
1.798701
 20
18.149666
 42
0.004235
  0
VERTEX
  8
0
 10
1.910227
 20
17.430694
 42
0.003865
  0
VERTEX
  8
0
 10
2.028397
 20
16.742669
 42
0.017065
  0
VERTEX
  8
0
 10
2.114899
 20
16.340667
 42
-0.002044
  0
VERTEX
  8
0
 10
2.156984
 20
16.170162
 42
-0.001314
  0
VERTEX
  8
0
 10
2.204460
 20
15.972102
 42
-0.001321
  0
VERTEX
  8
0
 10
2.249898
 20
15.778044
 42
-0.002483
  0
VERTEX
  8
0
 10
2.285410
 20
15.621000
 42
0.001058
  0
VERTEX
  8
0
 10
2.323430
 20
15.450614
 42
0.000378
  0
VERTEX
  8
0
 10
2.378362
 20
15.207721
 42
0.000375
  0
VERTEX
  8
0
 10
2.439014
 20
14.941401
 42
0.000444
  0
VERTEX
  8
0
 10
2.496777
 20
14.689667
 42
-0.001404
  0
VERTEX
  8
0
 10
2.552622
 20
14.444133
 42
-0.001373
  0
VERTEX
  8
0
 10
2.607503
 20
14.196483
 42
-0.001351
  0
VERTEX
  8
0
 10
2.654489
 20
13.978852
 42
-0.005181
  0
VERTEX
  8
0
 10
2.681967
 20
13.843000
 42
0.014633
  0
VERTEX
  8
0
 10
2.704934
 20
13.739549
 42
0.015115
  0
VERTEX
  8
0
 10
2.733700
 20
13.638742
 42
0.014992
  0
VERTEX
  8
0
 10
2.763809
 20
13.553128
 42
0.060522
  0
VERTEX
  8
0
 10
2.789776
 20
13.504333
 42
-0.065439
  0
VERTEX
  8
0
 10
2.820270
 20
13.445652
 42
-0.005403
  0
VERTEX
  8
0
 10
2.877440
 20
13.282877
 42
-0.007156
  0
VERTEX
  8
0
 10
2.940986
 20
13.086286
 42
-0.005454
  0
VERTEX
  8
0
 10
3.005118
 20
12.869333
 42
0.007380
  0
VERTEX
  8
0
 10
3.070067
 20
12.652691
 42
0.009689
  0
VERTEX
  8
0
 10
3.136082
 20
12.457033
 42
0.007508
  0
VERTEX
  8
0
 10
3.196608
 20
12.296135
 42
0.086171
  0
VERTEX
  8
0
 10
3.231646
 20
12.238567
 42
-0.080419
  0
VERTEX
  8
0
 10
3.258685
 20
12.195262
 42
-0.032932
  0
VERTEX
  8
0
 10
3.281333
 20
12.129532
 42
-0.031520
  0
VERTEX
  8
0
 10
3.296815
 20
12.054306
 42
-0.035002
  0
VERTEX
  8
0
 10
3.302000
 20
11.980333
 42
0.035161
  0
VERTEX
  8
0
 10
3.307208
 20
11.906360
 42
0.031648
  0
VERTEX
  8
0
 10
3.322760
 20
11.831135
 42
0.033071
  0
VERTEX
  8
0
 10
3.345512
 20
11.765409
 42
0.080553
  0
VERTEX
  8
0
 10
3.372673
 20
11.722100
 42
-0.066627
  0
VERTEX
  8
0
 10
3.408495
 20
11.668347
 42
-0.008294
  0
VERTEX
  8
0
 10
3.468194
 20
11.540940
 42
-0.009657
  0
VERTEX
  8
0
 10
3.533985
 20
11.386319
 42
-0.007861
  0
VERTEX
  8
0
 10
3.598610
 20
11.218333
 42
0.009312
  0
VERTEX
  8
0
 10
3.669390
 20
11.035931
 42
0.006985
  0
VERTEX
  8
0
 10
3.753816
 20
10.837768
 42
0.007067
  0
VERTEX
  8
0
 10
3.838540
 20
10.653447
 42
0.016052
  0
VERTEX
  8
0
 10
3.908938
 20
10.517258
 42
-0.014298
  0
VERTEX
  8
0
 10
3.968325
 20
10.403352
 42
-0.016174
  0
VERTEX
  8
0
 10
4.018554
 20
10.290771
 42
-0.015540
  0
VERTEX
  8
0
 10
4.054956
 20
10.192947
 42
-0.080605
  0
VERTEX
  8
0
 10
4.064354
 20
10.136258
 42
0.101868
  0
VERTEX
  8
0
 10
4.086581
 20
10.030141
 42
0.009571
  0
VERTEX
  8
0
 10
4.197910
 20
9.786522
 42
0.009430
  0
VERTEX
  8
0
 10
4.367304
 20
9.450256
 42
0.003330
  0
VERTEX
  8
0
 10
4.622267
 20
8.974731
 42
0.004730
  0
VERTEX
  8
0
 10
4.687205
 20
8.858167
 42
0.006205
  0
VERTEX
  8
0
 10
4.748824
 20
8.753036
 42
0.004646
  0
VERTEX
  8
0
 10
4.802221
 20
8.666304
 42
0.057271
  0
VERTEX
  8
0
 10
4.826454
 20
8.636064
 42
-0.068667
  0
VERTEX
  8
0
 10
4.851995
 20
8.602665
 42
-0.002512
  0
VERTEX
  8
0
 10
4.930186
 20
8.463114
 42
-0.004546
  0
VERTEX
  8
0
 10
5.020509
 20
8.296434
 42
-0.003171
  0
VERTEX
  8
0
 10
5.119498
 20
8.106833
 42
0.010144
  0
VERTEX
  8
0
 10
5.220239
 20
7.920265
 42
0.015464
  0
VERTEX
  8
0
 10
5.315861
 20
7.763007
 42
0.010009
  0
VERTEX
  8
0
 10
5.400442
 20
7.638646
 42
0.242999
  0
VERTEX
  8
0
 10
5.436544
 20
7.620000
 42
-0.130445
  0
VERTEX
  8
0
 10
5.462014
 20
7.613240
 42
-0.100659
  0
VERTEX
  8
0
 10
5.483714
 20
7.594227
 42
-0.088504
  0
VERTEX
  8
0
 10
5.498309
 20
7.565786
 42
-0.074530
  0
VERTEX
  8
0
 10
5.503333
 20
7.532263
 42
0.157917
  0
VERTEX
  8
0
 10
5.539067
 20
7.421943
 42
0.003217
  0
VERTEX
  8
0
 10
5.888434
 20
6.945710
 42
0.007770
  0
VERTEX
  8
0
 10
6.289360
 20
6.423647
 42
0.006912
  0
VERTEX
  8
0
 10
6.721993
 20
5.893286
 42
0.012524
  0
VERTEX
  8
0
 10
7.127289
 20
5.434093
 42
0.011852
  0
VERTEX
  8
0
 10
7.562414
 20
4.987044
 42
0.012011
  0
VERTEX
  8
0
 10
8.011666
 20
4.567522
 42
0.013934
  0
VERTEX
  8
0
 10
8.459320
 20
4.191000
 42
-0.004093
  0
VERTEX
  8
0
 10
8.673344
 20
4.018060
 42
-0.004627
  0
VERTEX
  8
0
 10
8.875860
 20
3.848497
 42
-0.004235
  0
VERTEX
  8
0
 10
9.045397
 20
3.701357
 42
-0.025226
  0
VERTEX
  8
0
 10
9.129191
 20
3.619500
 42
0.035396
  0
VERTEX
  8
0
 10
9.189642
 20
3.562802
 42
0.034822
  0
VERTEX
  8
0
 10
9.257803
 20
3.514857
 42
0.036945
  0
VERTEX
  8
0
 10
9.323405
 20
3.481572
 42
0.099243
  0
VERTEX
  8
0
 10
9.374483
 20
3.471333
 42
-0.063838
  0
VERTEX
  8
0
 10
9.415845
 20
3.466031
 42
-0.081699
  0
VERTEX
  8
0
 10
9.450888
 20
3.450464
 42
-0.098562
  0
VERTEX
  8
0
 10
9.474334
 20
3.427382
 42
-0.150302
  0
VERTEX
  8
0
 10
9.482667
 20
3.400288
 42
0.225222
  0
VERTEX
  8
0
 10
9.499771
 20
3.364242
 42
0.020269
  0
VERTEX
  8
0
 10
9.581865
 20
3.302587
 42
0.023235
  0
VERTEX
  8
0
 10
9.690987
 20
3.234602
 42
0.015982
  0
VERTEX
  8
0
 10
9.820362
 20
3.167455
 42
-0.014181
  0
VERTEX
  8
0
 10
9.949818
 20
3.100855
 42
-0.020877
  0
VERTEX
  8
0
 10
10.059145
 20
3.034539
 42
-0.016990
  0
VERTEX
  8
0
 10
10.142624
 20
2.974819
 42
-0.229019
  0
VERTEX
  8
0
 10
10.159029
 20
2.942167
 42
0.234292
  0
VERTEX
  8
0
 10
10.171569
 20
2.917817
 42
0.069623
  0
VERTEX
  8
0
 10
10.209456
 20
2.897320
 42
0.053629
  0
VERTEX
  8
0
 10
10.264410
 20
2.883303
 42
0.035661
  0
VERTEX
  8
0
 10
10.329333
 20
2.878667
 42
-0.036372
  0
VERTEX
  8
0
 10
10.394185
 20
2.873943
 42
-0.054933
  0
VERTEX
  8
0
 10
10.448925
 20
2.859663
 42
-0.071963
  0
VERTEX
  8
0
 10
10.486406
 20
2.838765
 42
-0.233749
  0
VERTEX
  8
0
 10
10.498667
 20
2.813973
 42
0.281423
  0
VERTEX
  8
0
 10
10.537254
 20
2.750845
 42
0.008471
  0
VERTEX
  8
0
 10
10.825739
 20
2.609155
 42
0.013998
  0
VERTEX
  8
0
 10
11.111469
 20
2.484420
 42
0.096200
  0
VERTEX
  8
0
 10
11.261247
 20
2.455333
 42
-0.099744
  0
VERTEX
  8
0
 10
11.293337
 20
2.448868
 42
-0.098108
  0
VERTEX
  8
0
 10
11.320633
 20
2.430462
 42
-0.097777
  0
VERTEX
  8
0
 10
11.338916
 20
2.402980
 42
-0.098337
  0
VERTEX
  8
0
 10
11.345333
 20
2.370667
 42
0.191087
  0
VERTEX
  8
0
 10
11.358158
 20
2.338334
 42
0.088204
  0
VERTEX
  8
0
 10
11.395075
 20
2.310871
 42
0.068025
  0
VERTEX
  8
0
 10
11.449861
 20
2.292239
 42
0.048028
  0
VERTEX
  8
0
 10
11.514667
 20
2.286000
 42
-0.047439
  0
VERTEX
  8
0
 10
11.579475
 20
2.279837
 42
-0.067426
  0
VERTEX
  8
0
 10
11.634258
 20
2.261423
 42
-0.087586
  0
VERTEX
  8
0
 10
11.671192
 20
2.234288
 42
-0.192951
  0
VERTEX
  8
0
 10
11.684000
 20
2.202334
 42
0.264949
  0
VERTEX
  8
0
 10
11.704366
 20
2.166599
 42
0.037096
  0
VERTEX
  8
0
 10
11.783483
 20
2.127337
 42
0.034344
  0
VERTEX
  8
0
 10
11.892910
 20
2.091338
 42
0.022653
  0
VERTEX
  8
0
 10
12.022667
 20
2.064513
 42
-0.019977
  0
VERTEX
  8
0
 10
12.152441
 20
2.038407
 42
-0.030734
  0
VERTEX
  8
0
 10
12.261850
 20
2.004574
 42
-0.031218
  0
VERTEX
  8
0
 10
12.342149
 20
1.968350
 42
-0.277998
  0
VERTEX
  8
0
 10
12.361333
 20
1.936512
 42
0.198912
  0
VERTEX
  8
0
 10
12.373020
 20
1.908299
 42
0.085544
  0
VERTEX
  8
0
 10
12.406930
 20
1.884359
 42
0.065526
  0
VERTEX
  8
0
 10
12.457142
 20
1.868098
 42
0.045612
  0
VERTEX
  8
0
 10
12.516556
 20
1.862667
 42
-0.033567
  0
VERTEX
  8
0
 10
12.580236
 20
1.858387
 42
-0.032875
  0
VERTEX
  8
0
 10
12.643226
 20
1.845622
 42
-0.034696
  0
VERTEX
  8
0
 10
12.696813
 20
1.826965
 42
-0.095539
  0
VERTEX
  8
0
 10
12.729803
 20
1.804641
 42
0.108028
  0
VERTEX
  8
0
 10
12.857389
 20
1.722831
 42
0.014910
  0
VERTEX
  8
0
 10
13.157864
 20
1.621540
 42
0.017801
  0
VERTEX
  8
0
 10
13.500388
 20
1.530524
 42
0.022313
  0
VERTEX
  8
0
 10
13.823734
 20
1.471850
 42
-0.015194
  0
VERTEX
  8
0
 10
13.981808
 20
1.445484
 42
-0.020620
  0
VERTEX
  8
0
 10
14.122451
 20
1.411529
 42
-0.018069
  0
VERTEX
  8
0
 10
14.234421
 20
1.375136
 42
-0.168269
  0
VERTEX
  8
0
 10
14.273230
 20
1.343507
 42
0.166352
  0
VERTEX
  8
0
 10
14.307902
 20
1.315034
 42
0.032999
  0
VERTEX
  8
0
 10
14.385921
 20
1.291593
 42
0.031647
  0
VERTEX
  8
0
 10
14.484674
 20
1.275389
 42
0.024845
  0
VERTEX
  8
0
 10
14.593063
 20
1.270000
 42
-0.025342
  0
VERTEX
  8
0
 10
14.704010
 20
1.264373
 42
-0.027727
  0
VERTEX
  8
0
 10
14.810488
 20
1.247540
 42
-0.028697
  0
VERTEX
  8
0
 10
14.899023
 20
1.223075
 42
-0.108695
  0
VERTEX
  8
0
 10
14.947900
 20
1.193542
 42
0.136258
  0
VERTEX
  8
0
 10
15.054088
 20
1.137010
 42
0.015968
  0
VERTEX
  8
0
 10
15.320329
 20
1.086790
 42
0.010623
  0
VERTEX
  8
0
 10
15.758610
 20
1.028038
 42
0.001816
  0
VERTEX
  8
0
 10
16.594667
 20
0.937071
 42
0.020668
  0
VERTEX
  8
0
 10
17.538982
 20
0.877105
 42
0.005618
  0
VERTEX
  8
0
 10
19.035245
 20
0.860869
 42
0.005069
  0
VERTEX
  8
0
 10
20.518501
 20
0.876477
 42
0.029842
  0
VERTEX
  8
0
 10
21.293667
 20
0.938878
 42
0.000012
  0
VERTEX
  8
0
 10
21.545400
 20
0.974358
 42
0.000010
  0
VERTEX
  8
0
 10
21.811721
 20
1.011906
 42
0.000010
  0
VERTEX
  8
0
 10
22.054604
 20
1.046159
 42
0.000029
  0
VERTEX
  8
0
 10
22.225000
 20
1.070203
 42
0.017074
  0
VERTEX
  8
0
 10
22.360554
 20
1.094084
 42
0.019678
  0
VERTEX
  8
0
 10
22.487811
 20
1.126291
 42
0.019150
  0
VERTEX
  8
0
 10
22.592509
 20
1.161630
 42
0.098620
  0
VERTEX
  8
0
 10
22.644100
 20
1.194005
 42
-0.077676
  0
VERTEX
  8
0
 10
22.686555
 20
1.223174
 42
-0.036194
  0
VERTEX
  8
0
 10
22.748877
 20
1.247677
 42
-0.034739
  0
VERTEX
  8
0
 10
22.819412
 20
1.264399
 42
-0.040857
  0
VERTEX
  8
0
 10
22.887837
 20
1.270000
 42
0.073561
  0
VERTEX
  8
0
 10
23.101879
 20
1.301662
 42
0.004493
  0
VERTEX
  8
0
 10
23.720235
 20
1.494774
 42
0.002871
  0
VERTEX
  8
0
 10
24.357588
 20
1.704170
 42
0.136686
  0
VERTEX
  8
0
 10
24.468667
 20
1.779327
 42
-0.102939
  0
VERTEX
  8
0
 10
24.556477
 20
1.847674
 42
-0.007962
  0
VERTEX
  8
0
 10
24.827809
 20
1.975516
 42
-0.008169
  0
VERTEX
  8
0
 10
25.102625
 20
2.094324
 42
-0.098243
  0
VERTEX
  8
0
 10
25.215240
 20
2.116667
 42
0.067352
  0
VERTEX
  8
0
 10
25.250220
 20
2.121400
 42
0.059684
  0
VERTEX
  8
0
 10
25.284255
 20
2.135320
 42
0.062826
  0
VERTEX
  8
0
 10
25.312275
 20
2.155876
 42
0.098856
  0
VERTEX
  8
0
 10
25.329444
 20
2.180167
 42
-0.147318
  0
VERTEX
  8
0
 10
25.359533
 20
2.215119
 42
-0.006095
  0
VERTEX
  8
0
 10
25.501421
 20
2.303153
 42
-0.010129
  0
VERTEX
  8
0
 10
25.674900
 20
2.403142
 42
-0.006972
  0
VERTEX
  8
0
 10
25.875264
 20
2.509672
 42
0.029689
  0
VERTEX
  8
0
 10
26.518072
 20
2.889840
 42
0.021899
  0
VERTEX
  8
0
 10
27.182782
 20
3.381894
 42
0.018737
  0
VERTEX
  8
0
 10
27.899531
 20
4.008626
 42
0.011345
  0
VERTEX
  8
0
 10
28.702000
 20
4.800343
 42
0.003625
  0
VERTEX
  8
0
 10
29.433010
 20
5.566077
 42
0.012735
  0
VERTEX
  8
0
 10
29.887177
 20
6.074100
 42
0.018455
  0
VERTEX
  8
0
 10
30.218419
 20
6.494693
 42
0.017915
  0
VERTEX
  8
0
 10
30.521210
 20
6.942667
 42
-0.009514
  0
VERTEX
  8
0
 10
30.617659
 20
7.090660
 42
-0.012969
  0
VERTEX
  8
0
 10
30.710521
 20
7.220038
 42
-0.009822
  0
VERTEX
  8
0
 10
30.792078
 20
7.323380
 42
-0.128074
  0
VERTEX
  8
0
 10
30.831321
 20
7.351889
 42
0.117168
  0
VERTEX
  8
0
 10
30.858878
 20
7.371018
 42
0.064807
  0
VERTEX
  8
0
 10
30.882180
 20
7.404982
 42
0.059081
  0
VERTEX
  8
0
 10
30.897971
 20
7.447730
 42
0.059024
  0
VERTEX
  8
0
 10
30.903333
 20
7.493000
 42
-0.051935
  0
VERTEX
  8
0
 10
30.908049
 20
7.538274
 42
-0.053877
  0
VERTEX
  8
0
 10
30.921986
 20
7.581018
 42
-0.059730
  0
VERTEX
  8
0
 10
30.942508
 20
7.615085
 42
-0.123391
  0
VERTEX
  8
0
 10
30.966833
 20
7.634111
 42
0.142945
  0
VERTEX
  8
0
 10
31.070466
 20
7.721788
 42
0.005421
  0
VERTEX
  8
0
 10
31.348301
 20
8.151649
 42
0.009033
  0
VERTEX
  8
0
 10
31.605041
 20
8.575244
 42
0.056031
  0
VERTEX
  8
0
 10
31.707356
 20
8.807542
 42
-0.017075
  0
VERTEX
  8
0
 10
31.736546
 20
8.890835
 42
-0.019756
  0
VERTEX
  8
0
 10
31.770112
 20
8.967907
 42
-0.019201
  0
VERTEX
  8
0
 10
31.803298
 20
9.030330
 42
-0.099954
  0
VERTEX
  8
0
 10
31.829060
 20
9.059333
 42
0.118867
  0
VERTEX
  8
0
 10
31.929451
 20
9.181241
 42
0.001213
  0
VERTEX
  8
0
 10
32.417348
 20
10.191635
 42
0.001285
  0
VERTEX
  8
0
 10
32.898562
 20
11.201032
 42
0.111026
  0
VERTEX
  8
0
 10
32.935333
 20
11.364590
 42
-0.053036
  0
VERTEX
  8
0
 10
32.940693
 20
11.414974
 42
-0.036205
  0
VERTEX
  8
0
 10
32.956858
 20
11.470291
 42
-0.036485
  0
VERTEX
  8
0
 10
32.980537
 20
11.521970
 42
-0.059144
  0
VERTEX
  8
0
 10
33.008610
 20
11.561233
 42
0.079228
  0
VERTEX
  8
0
 10
33.047510
 20
11.620510
 42
0.005466
  0
VERTEX
  8
0
 10
33.127879
 20
11.804571
 42
0.007677
  0
VERTEX
  8
0
 10
33.218353
 20
12.027580
 42
0.005691
  0
VERTEX
  8
0
 10
33.311732
 20
12.276667
 42
-0.000954
  0
VERTEX
  8
0
 10
33.484534
 20
12.751239
 42
-0.004154
  0
VERTEX
  8
0
 10
33.589779
 20
13.031342
 42
-0.006461
  0
VERTEX
  8
0
 10
33.674825
 20
13.243869
 42
-0.005797
  0
VERTEX
  8
0
 10
33.768380
 20
13.462000
 42
0.017050
  0
VERTEX
  8
0
 10
33.892591
 20
13.770596
 42
0.013076
  0
VERTEX
  8
0
 10
34.007779
 20
14.115394
 42
0.011808
  0
VERTEX
  8
0
 10
34.096218
 20
14.431683
 42
0.060587
  0
VERTEX
  8
0
 10
34.119435
 20
14.612056
 42
-0.030158
  0
VERTEX
  8
0
 10
34.124278
 20
14.683932
 42
-0.030973
  0
VERTEX
  8
0
 10
34.137728
 20
14.754053
 42
-0.032579
  0
VERTEX
  8
0
 10
34.157045
 20
14.813022
 42
-0.101268
  0
VERTEX
  8
0
 10
34.179978
 20
14.847756
 42
0.117281
  0
VERTEX
  8
0
 10
34.257984
 20
14.974445
 42
0.006936
  0
VERTEX
  8
0
 10
34.394133
 20
15.407610
 42
0.009601
  0
VERTEX
  8
0
 10
34.513651
 20
15.837020
 42
0.061462
  0
VERTEX
  8
0
 10
34.542753
 20
16.060503
 42
-0.036770
  0
VERTEX
  8
0
 10
34.548734
 20
16.134889
 42
-0.040673
  0
VERTEX
  8
0
 10
34.565535
 20
16.205051
 42
-0.044576
  0
VERTEX
  8
0
 10
34.589795
 20
16.261572
 42
-0.131423
  0
VERTEX
  8
0
 10
34.618557
 20
16.292085
 42
0.118510
  0
VERTEX
  8
0
 10
34.650933
 20
16.324727
 42
0.027518
  0
VERTEX
  8
0
 10
34.687589
 20
16.393391
 42
0.026893
  0
VERTEX
  8
0
 10
34.722041
 20
16.479258
 42
0.023505
  0
VERTEX
  8
0
 10
34.748861
 20
16.572249
 42
0.000823
  0
VERTEX
  8
0
 10
34.857365
 20
17.031220
 42
0.000930
  0
VERTEX
  8
0
 10
34.960010
 20
17.472307
 42
0.000922
  0
VERTEX
  8
0
 10
35.046291
 20
17.849397
 42
0.003879
  0
VERTEX
  8
0
 10
35.095927
 20
18.076333
 42
-0.011847
  0
VERTEX
  8
0
 10
35.121745
 20
18.185971
 42
-0.008872
  0
VERTEX
  8
0
 10
35.155163
 20
18.305463
 42
-0.008980
  0
VERTEX
  8
0
 10
35.190664
 20
18.416900
 42
-0.020217
  0
VERTEX
  8
0
 10
35.222461
 20
18.499667
 42
0.029158
  0
VERTEX
  8
0
 10
35.253542
 20
18.585100
 42
0.011370
  0
VERTEX
  8
0
 10
35.286811
 20
18.706306
 42
0.011210
  0
VERTEX
  8
0
 10
35.316970
 20
18.839468
 42
0.013672
  0
VERTEX
  8
0
 10
35.338960
 20
18.965333
 42
-0.005661
  0
VERTEX
  8
0
 10
35.364267
 20
19.125253
 42
-0.001412
  0
VERTEX
  8
0
 10
35.409322
 20
19.386021
 42
-0.001443
  0
VERTEX
  8
0
 10
35.462573
 20
19.684074
 42
-0.001450
  0
VERTEX
  8
0
 10
35.517459
 20
19.981333
 42
0.001057
  0
VERTEX
  8
0
 10
35.762279
 20
21.301456
 42
0.004416
  0
VERTEX
  8
0
 10
35.900955
 20
22.097748
 42
0.006713
  0
VERTEX
  8
0
 10
35.994670
 20
22.717125
 42
0.005847
  0
VERTEX
  8
0
 10
36.076485
 20
23.368000
 42
-0.006807
  0
VERTEX
  8
0
 10
36.117177
 20
23.686767
 42
-0.008690
  0
VERTEX
  8
0
 10
36.163765
 20
23.979247
 42
-0.007006
  0
VERTEX
  8
0
 10
36.210300
 20
24.222065
 42
-0.069855
  0
VERTEX
  8
0
 10
36.245025
 20
24.319351
 42
0.076357
  0
VERTEX
  8
0
 10
36.274913
 20
24.406635
 42
0.014958
  0
VERTEX
  8
0
 10
36.299389
 20
24.571277
 42
0.015555
  0
VERTEX
  8
0
 10
36.316348
 20
24.766728
 42
0.013863
  0
VERTEX
  8
0
 10
36.322000
 20
24.970521
 42
-0.013311
  0
VERTEX
  8
0
 10
36.327229
 20
25.166903
 42
-0.019292
  0
VERTEX
  8
0
 10
36.343135
 20
25.339641
 42
-0.015299
  0
VERTEX
  8
0
 10
36.365626
 20
25.478130
 42
-0.209389
  0
VERTEX
  8
0
 10
36.393949
 20
25.519140
 42
0.232350
  0
VERTEX
  8
0
 10
36.458798
 20
25.622434
 42
0.002045
  0
VERTEX
  8
0
 10
36.553720
 20
26.569115
 42
0.006680
  0
VERTEX
  8
0
 10
36.643044
 20
27.649581
 42
0.004651
  0
VERTEX
  8
0
 10
36.716221
 20
28.871333
 42
-0.008631
  0
VERTEX
  8
0
 10
36.737538
 20
29.185329
 42
-0.012318
  0
VERTEX
  8
0
 10
36.768119
 20
29.463021
 42
-0.008308
  0
VERTEX
  8
0
 10
36.802883
 20
29.691596
 42
-0.153218
  0
VERTEX
  8
0
 10
36.835780
 20
29.756100
 42
0.169780
  0
VERTEX
  8
0
 10
36.867163
 20
29.822876
 42
0.006789
  0
VERTEX
  8
0
 10
36.891494
 20
30.094284
 42
0.011283
  0
VERTEX
  8
0
 10
36.908942
 20
30.421551
 42
0.007676
  0
VERTEX
  8
0
 10
36.914667
 20
30.794416
 42
-0.008045
  0
VERTEX
  8
0
 10
36.920743
 20
31.172019
 42
-0.010766
  0
VERTEX
  8
0
 10
36.939134
 20
31.514106
 42
-0.008151
  0
VERTEX
  8
0
 10
36.965146
 20
31.797457
 42
-0.102257
  0
VERTEX
  8
0
 10
36.997959
 20
31.899316
 42
0.115699
  0
VERTEX
  8
0
 10
37.033498
 20
32.020582
 42
0.001019
  0
VERTEX
  8
0
 10
37.084286
 20
32.983892
 42
0.003458
  0
VERTEX
  8
0
 10
37.132934
 20
34.095969
 42
0.002202
  0
VERTEX
  8
0
 10
37.174892
 20
35.390667
 42
0.004840
  0
VERTEX
  8
0
 10
37.256173
 20
39.828597
 42
0.001111
  0
VERTEX
  8
0
 10
37.304233
 20
47.323836
 42
0.000099
  0
VERTEX
  8
0
 10
37.337875
 20
55.748277
 42
0.111587
  0
VERTEX
  8
0
 10
37.261642
 20
56.091667
 42
-0.095867
  0
VERTEX
  8
0
 10
37.228336
 20
56.222343
 42
-0.002011
  0
VERTEX
  8
0
 10
37.191819
 20
56.893019
 42
-0.004600
  0
VERTEX
  8
0
 10
37.159390
 20
57.680232
 42
-0.003073
  0
VERTEX
  8
0
 10
37.136100
 20
58.581887
 42
0.002845
  0
VERTEX
  8
0
 10
37.111470
 20
59.552589
 42
0.006082
  0
VERTEX
  8
0
 10
37.079066
 20
60.301788
 42
0.002522
  0
VERTEX
  8
0
 10
37.042755
 20
60.901915
 42
0.181949
  0
VERTEX
  8
0
 10
37.002546
 20
60.990654
 42
-0.055612
  0
VERTEX
  8
0
 10
36.968900
 20
61.032751
 42
-0.038753
  0
VERTEX
  8
0
 10
36.940481
 20
61.086585
 42
-0.039127
  0
VERTEX
  8
0
 10
36.921067
 20
61.143259
 42
-0.063038
  0
VERTEX
  8
0
 10
36.914667
 20
61.193821
 42
0.091510
  0
VERTEX
  8
0
 10
36.901152
 20
61.267046
 42
0.006508
  0
VERTEX
  8
0
 10
36.824287
 20
61.460590
 42
0.008997
  0
VERTEX
  8
0
 10
36.724840
 20
61.689995
 42
0.006663
  0
VERTEX
  8
0
 10
36.606993
 20
61.940078
 42
0.057473
  0
VERTEX
  8
0
 10
36.157808
 20
62.643164
 42
0.039272
  0
VERTEX
  8
0
 10
35.502885
 20
63.329699
 42
0.038923
  0
VERTEX
  8
0
 10
34.815492
 20
63.855136
 42
0.144708
  0
VERTEX
  8
0
 10
34.298371
 20
64.008000
 42
-0.045682
  0
VERTEX
  8
0
 10
34.230352
 20
64.014228
 42
-0.065600
  0
VERTEX
  8
0
 10
34.172867
 20
64.032871
 42
-0.085626
  0
VERTEX
  8
0
 10
34.134048
 20
64.060319
 42
-0.198678
  0
VERTEX
  8
0
 10
34.120667
 20
64.092667
 42
0.186414
  0
VERTEX
  8
0
 10
34.108181
 20
64.124991
 42
0.089706
  0
VERTEX
  8
0
 10
34.072393
 20
64.152462
 42
0.069539
  0
VERTEX
  8
0
 10
34.019217
 20
64.171086
 42
0.049547
  0
VERTEX
  8
0
 10
33.956330
 20
64.177333
 42
-0.040923
  0
VERTEX
  8
0
 10
33.890098
 20
64.182763
 42
-0.043331
  0
VERTEX
  8
0
 10
33.826935
 20
64.198905
 42
-0.047488
  0
VERTEX
  8
0
 10
33.775585
 20
64.222563
 42
-0.123267
  0
VERTEX
  8
0
 10
33.746607
 20
64.250770
 42
0.216906
  0
VERTEX
  8
0
 10
33.606674
 20
64.344469
 42
0.016097
  0
VERTEX
  8
0
 10
33.139114
 20
64.405901
 42
0.017625
  0
VERTEX
  8
0
 10
32.503142
 20
64.446151
 42
0.007899
  0
VERTEX
  8
0
 10
31.665333
 20
64.456338
 42
0.006609
  0
VERTEX
  8
0
 10
30.820180
 20
64.442090
 42
0.016922
  0
VERTEX
  8
0
 10
30.209526
 20
64.403007
 42
0.018864
  0
VERTEX
  8
0
 10
29.775639
 20
64.343862
 42
0.147003
  0
VERTEX
  8
0
 10
29.595233
 20
64.253328
 42
-0.087166
  0
VERTEX
  8
0
 10
29.550947
 20
64.224114
 42
-0.034417
  0
VERTEX
  8
0
 10
29.481904
 20
64.199657
 42
-0.032761
  0
VERTEX
  8
0
 10
29.401949
 20
64.182938
 42
-0.035174
  0
VERTEX
  8
0
 10
29.322381
 20
64.177333
 42
0.091645
  0
VERTEX
  8
0
 10
29.103678
 20
64.136908
 42
0.011928
  0
VERTEX
  8
0
 10
28.663077
 20
63.956099
 42
0.008363
  0
VERTEX
  8
0
 10
28.220111
 20
63.752949
 42
0.183238
  0
VERTEX
  8
0
 10
28.123444
 20
63.651574
 42
-0.134832
  0
VERTEX
  8
0
 10
28.103241
 20
63.625926
 42
-0.058972
  0
VERTEX
  8
0
 10
28.065306
 20
63.604321
 42
-0.052344
  0
VERTEX
  8
0
 10
28.017005
 20
63.589626
 42
-0.047720
  0
VERTEX
  8
0
 10
27.965159
 20
63.584667
 42
0.191718
  0
VERTEX
  8
0
 10
27.731906
 20
63.491817
 42
0.011619
  0
VERTEX
  8
0
 10
27.187234
 20
62.952008
 42
0.016701
  0
VERTEX
  8
0
 10
26.678822
 20
62.387597
 42
0.077332
  0
VERTEX
  8
0
 10
26.451668
 20
62.013324
 42
-0.014309
  0
VERTEX
  8
0
 10
26.387374
 20
61.869254
 42
-0.021430
  0
VERTEX
  8
0
 10
26.322391
 20
61.747780
 42
-0.017452
  0
VERTEX
  8
0
 10
26.263106
 20
61.655078
 42
-0.246553
  0
VERTEX
  8
0
 10
26.229308
 20
61.637333
 42
0.210710
  0
VERTEX
  8
0
 10
26.203570
 20
61.625983
 42
0.081231
  0
VERTEX
  8
0
 10
26.181772
 20
61.592566
 42
0.061843
  0
VERTEX
  8
0
 10
26.166937
 20
61.543279
 42
0.042234
  0
VERTEX
  8
0
 10
26.162000
 20
61.484933
 42
-0.058321
  0
VERTEX
  8
0
 10
26.154260
 20
61.418804
 42
-0.038865
  0
VERTEX
  8
0
 10
26.130912
 20
61.346092
 42
-0.038945
  0
VERTEX
  8
0
 10
26.096698
 20
61.278110
 42
-0.059914
  0
VERTEX
  8
0
 10
26.056167
 20
61.226292
 42
0.198240
  0
VERTEX
  8
0
 10
25.957421
 20
60.987474
 42
0.000761
  0
VERTEX
  8
0
 10
25.960013
 20
57.968714
 42
0.001130
  0
VERTEX
  8
0
 10
25.973759
 20
55.005846
 42
0.121720
  0
VERTEX
  8
0
 10
26.071887
 20
54.620177
 42
-0.108370
  0
VERTEX
  8
0
 10
26.111978
 20
54.478355
 42
-0.004670
  0
VERTEX
  8
0
 10
26.138141
 20
53.958234
 42
-0.006946
  0
VERTEX
  8
0
 10
26.156305
 20
53.286346
 42
-0.003284
  0
VERTEX
  8
0
 10
26.162000
 20
52.419230
 42
0.003130
  0
VERTEX
  8
0
 10
26.167353
 20
51.564184
 42
0.007017
  0
VERTEX
  8
0
 10
26.184593
 20
50.915087
 42
0.002808
  0
VERTEX
  8
0
 10
26.208461
 20
50.398870
 42
0.246149
  0
VERTEX
  8
0
 10
26.246667
 20
50.334333
 42
-0.259690
  0
VERTEX
  8
0
 10
26.330122
 20
50.184808
 42
-0.000148
  0
VERTEX
  8
0
 10
26.333351
 20
44.929369
 42
-0.000178
  0
VERTEX
  8
0
 10
26.333159
 20
39.692346
 42
-0.198810
  0
VERTEX
  8
0
 10
26.250122
 20
39.491988
 42
0.179120
  0
VERTEX
  8
0
 10
26.216464
 20
39.418777
 42
0.002503
  0
VERTEX
  8
0
 10
26.181133
 20
38.925009
 42
0.006629
  0
VERTEX
  8
0
 10
26.150358
 20
38.346708
 42
0.004272
  0
VERTEX
  8
0
 10
26.129310
 20
37.675888
 42
-0.003351
  0
VERTEX
  8
0
 10
26.070974
 20
35.700531
 42
-0.003913
  0
VERTEX
  8
0
 10
25.988334
 20
33.825798
 42
-0.001858
  0
VERTEX
  8
0
 10
25.896172
 20
32.169728
 42
-0.064100
  0
VERTEX
  8
0
 10
25.823494
 20
31.786322
 42
0.045034
  0
VERTEX
  8
0
 10
25.790664
 20
31.643113
 42
0.011231
  0
VERTEX
  8
0
 10
25.763585
 20
31.404245
 42
0.011386
  0
VERTEX
  8
0
 10
25.744899
 20
31.128461
 42
0.011220
  0
VERTEX
  8
0
 10
25.738667
 20
30.850756
 42
-0.010607
  0
VERTEX
  8
0
 10
25.733052
 20
30.586116
 42
-0.014808
  0
VERTEX
  8
0
 10
25.716014
 20
30.350017
 42
-0.011129
  0
VERTEX
  8
0
 10
25.691959
 20
30.156879
 42
-0.155784
  0
VERTEX
  8
0
 10
25.661552
 20
30.094767
 42
0.146941
  0
VERTEX
  8
0
 10
25.629077
 20
30.031236
 42
0.008570
  0
VERTEX
  8
0
 10
25.593236
 20
29.814123
 42
0.012396
  0
VERTEX
  8
0
 10
25.560952
 20
29.550102
 42
0.008767
  0
VERTEX
  8
0
 10
25.537274
 20
29.252333
 42
-0.008022
  0
VERTEX
  8
0
 10
25.478671
 20
28.501190
 42
-0.003120
  0
VERTEX
  8
0
 10
25.374464
 20
27.464106
 42
-0.003135
  0
VERTEX
  8
0
 10
25.256697
 20
26.423146
 42
-0.007532
  0
VERTEX
  8
0
 10
25.153019
 20
25.654000
 42
-0.000547
  0
VERTEX
  8
0
 10
25.111799
 20
25.381530
 42
-0.000212
  0
VERTEX
  8
0
 10
25.054128
 20
25.004183
 42
-0.000210
  0
VERTEX
  8
0
 10
24.991291
 20
24.595349
 42
-0.000259
  0
VERTEX
  8
0
 10
24.932416
 20
24.214667
 42
0.001165
  0
VERTEX
  8
0
 10
24.876613
 20
23.849475
 42
0.001197
  0
VERTEX
  8
0
 10
24.823024
 20
23.487327
 42
0.001157
  0
VERTEX
  8
0
 10
24.778023
 20
23.173002
 42
0.005072
  0
VERTEX
  8
0
 10
24.753754
 20
22.987000
 42
-0.013766
  0
VERTEX
  8
0
 10
24.732698
 20
22.844920
 42
-0.012137
  0
VERTEX
  8
0
 10
24.703094
 20
22.698075
 42
-0.012285
  0
VERTEX
  8
0
 10
24.669928
 20
22.566971
 42
-0.035685
  0
VERTEX
  8
0
 10
24.638445
 20
22.479000
 42
0.030356
  0
VERTEX
  8
0
 10
24.606834
 20
22.393552
 42
0.011894
  0
VERTEX
  8
0
 10
24.573313
 20
22.272360
 42
0.011722
  0
VERTEX
  8
0
 10
24.543169
 20
22.139199
 42
0.014314
  0
VERTEX
  8
0
 10
24.521492
 20
22.013333
 42
-0.011334
  0
VERTEX
  8
0
 10
24.496042
 20
21.860105
 42
-0.003477
  0
VERTEX
  8
0
 10
24.450773
 20
21.629952
 42
-0.003477
  0
VERTEX
  8
0
 10
24.396504
 20
21.372973
 42
-0.003803
  0
VERTEX
  8
0
 10
24.340203
 20
21.124333
 42
0.002779
  0
VERTEX
  8
0
 10
24.283709
 20
20.877189
 42
0.002625
  0
VERTEX
  8
0
 10
24.228858
 20
20.624702
 42
0.002608
  0
VERTEX
  8
0
 10
24.182627
 20
20.400617
 42
0.009163
  0
VERTEX
  8
0
 10
24.156273
 20
20.255715
 42
-0.022022
  0
VERTEX
  8
0
 10
24.133526
 20
20.146655
 42
-0.026847
  0
VERTEX
  8
0
 10
24.102381
 20
20.047152
 42
-0.027043
  0
VERTEX
  8
0
 10
24.067933
 20
19.968131
 42
-0.138896
  0
VERTEX
  8
0
 10
24.035979
 20
19.933219
 42
0.128609
  0
VERTEX
  8
0
 10
24.007029
 20
19.902846
 42
0.046027
  0
VERTEX
  8
0
 10
23.982790
 20
19.847620
 42
0.041934
  0
VERTEX
  8
0
 10
23.966230
 20
19.779300
 42
0.038513
  0
VERTEX
  8
0
 10
23.960667
 20
19.707181
 42
-0.032093
  0
VERTEX
  8
0
 10
23.955077
 20
19.620184
 42
-0.013412
  0
VERTEX
  8
0
 10
23.936911
 20
19.504037
 42
-0.013205
  0
VERTEX
  8
0
 10
23.910763
 20
19.380375
 42
-0.016691
  0
VERTEX
  8
0
 10
23.879795
 20
19.267678
 42
0.002513
  0
VERTEX
  8
0
 10
23.839628
 20
19.136207
 42
0.000885
  0
VERTEX
  8
0
 10
23.783299
 20
18.947255
 42
0.000879
  0
VERTEX
  8
0
 10
23.722117
 20
18.739346
 42
0.001031
  0
VERTEX
  8
0
 10
23.664861
 20
18.542000
 42
-0.004176
  0
VERTEX
  8
0
 10
23.608231
 20
18.351302
 42
-0.004296
  0
VERTEX
  8
0
 10
23.548944
 20
18.163381
 42
-0.004160
  0
VERTEX
  8
0
 10
23.494791
 20
18.001340
 42
-0.018164
  0
VERTEX
  8
0
 10
23.458508
 20
17.907000
 42
0.017979
  0
VERTEX
  8
0
 10
23.417849
 20
17.801402
 42
0.002132
  0
VERTEX
  8
0
 10
23.337099
 20
17.563571
 42
0.002545
  0
VERTEX
  8
0
 10
23.243714
 20
17.279839
 42
0.002085
  0
VERTEX
  8
0
 10
23.146714
 20
16.975667
 42
-0.004678
  0
VERTEX
  8
0
 10
23.050927
 20
16.680592
 42
-0.007018
  0
VERTEX
  8
0
 10
22.961319
 20
16.425069
 42
-0.003305
  0
VERTEX
  8
0
 10
22.880994
 20
16.210318
 42
-0.139115
  0
VERTEX
  8
0
 10
22.851908
 20
16.171333
 42
0.129998
  0
VERTEX
  8
0
 10
22.826906
 20
16.139045
 42
0.015675
  0
VERTEX
  8
0
 10
22.794167
 20
16.054388
 42
0.017789
  0
VERTEX
  8
0
 10
22.761401
 20
15.949241
 42
0.013769
  0
VERTEX
  8
0
 10
22.733000
 20
15.832667
 42
-0.013179
  0
VERTEX
  8
0
 10
22.704744
 20
15.716091
 42
-0.017073
  0
VERTEX
  8
0
 10
22.672416
 20
15.610946
 42
-0.014859
  0
VERTEX
  8
0
 10
22.640276
 20
15.526112
 42
-0.127653
  0
VERTEX
  8
0
 10
22.616076
 20
15.494000
 42
0.091145
  0
VERTEX
  8
0
 10
22.585585
 20
15.459092
 42
0.004004
  0
VERTEX
  8
0
 10
22.503941
 20
15.319154
 42
0.006670
  0
VERTEX
  8
0
 10
22.410225
 20
15.150345
 42
0.004702
  0
VERTEX
  8
0
 10
22.309213
 20
14.958226
 42
-0.009520
  0
VERTEX
  8
0
 10
22.201270
 20
14.757642
 42
-0.009758
  0
VERTEX
  8
0
 10
22.086622
 20
14.562973
 42
-0.009555
  0
VERTEX
  8
0
 10
21.980704
 20
14.398043
 42
-0.039916
  0
VERTEX
  8
0
 10
21.907500
 20
14.305600
 42
0.019273
  0
VERTEX
  8
0
 10
21.850773
 20
14.239738
 42
0.023137
  0
VERTEX
  8
0
 10
21.802848
 20
14.173482
 42
0.022698
  0
VERTEX
  8
0
 10
21.768186
 20
14.114937
 42
0.122784
  0
VERTEX
  8
0
 10
21.759301
 20
14.079374
 42
-0.187962
  0
VERTEX
  8
0
 10
21.723324
 20
13.987184
 42
-0.002846
  0
VERTEX
  8
0
 10
21.324461
 20
13.558475
 42
-0.008086
  0
VERTEX
  8
0
 10
20.935299
 20
13.158114
 42
-0.025964
  0
VERTEX
  8
0
 10
20.658667
 20
12.909804
 42
-0.038252
  0
VERTEX
  8
0
 10
20.385029
 20
12.721346
 42
-0.036503
  0
VERTEX
  8
0
 10
20.081664
 20
12.573427
 42
-0.038209
  0
VERTEX
  8
0
 10
19.776946
 20
12.477723
 42
-0.057046
  0
VERTEX
  8
0
 10
19.499803
 20
12.446000
 42
-0.044119
  0
VERTEX
  8
0
 10
19.318467
 20
12.462032
 42
-0.065247
  0
VERTEX
  8
0
 10
19.166446
 20
12.510170
 42
-0.053887
  0
VERTEX
  8
0
 10
19.012346
 20
12.603519
 42
-0.020828
  0
VERTEX
  8
0
 10
18.820067
 20
12.763500
 42
-0.040140
  0
VERTEX
  8
0
 10
18.540930
 20
13.060178
 42
-0.016939
  0
VERTEX
  8
0
 10
18.213568
 20
13.499094
 42
-0.011986
  0
VERTEX
  8
0
 10
17.921172
 20
13.942488
 42
-0.140672
  0
VERTEX
  8
0
 10
17.864667
 20
14.139356
 42
0.080159
  0
VERTEX
  8
0
 10
17.855879
 20
14.193816
 42
0.010602
  0
VERTEX
  8
0
 10
17.816667
 20
14.304261
 42
0.012071
  0
VERTEX
  8
0
 10
17.763830
 20
14.434090
 42
0.009859
  0
VERTEX
  8
0
 10
17.701264
 20
14.570385
 42
-0.015594
  0
VERTEX
  8
0
 10
17.634771
 20
14.719725
 42
-0.011464
  0
VERTEX
  8
0
 10
17.570128
 20
14.889007
 42
-0.011608
  0
VERTEX
  8
0
 10
17.516316
 20
15.052132
 42
-0.025177
  0
VERTEX
  8
0
 10
17.484303
 20
15.180129
 42
0.016373
  0
VERTEX
  8
0
 10
17.434850
 20
15.393761
 42
0.011293
  0
VERTEX
  8
0
 10
17.365543
 20
15.632258
 42
0.010764
  0
VERTEX
  8
0
 10
17.280935
 20
15.881776
 42
0.010564
  0
VERTEX
  8
0
 10
17.185166
 20
16.129000
 42
-0.028031
  0
VERTEX
  8
0
 10
17.129358
 20
16.289492
 42
-0.013702
  0
VERTEX
  8
0
 10
17.075489
 20
16.499402
 42
-0.008828
  0
VERTEX
  8
0
 10
17.012776
 20
16.799299
 42
-0.002448
  0
VERTEX
  8
0
 10
16.925003
 20
17.272000
 42
0.010160
  0
VERTEX
  8
0
 10
16.886872
 20
17.461059
 42
0.010890
  0
VERTEX
  8
0
 10
16.841870
 20
17.644064
 42
0.010501
  0
VERTEX
  8
0
 10
16.796562
 20
17.799347
 42
0.049420
  0
VERTEX
  8
0
 10
16.760113
 20
17.884684
 42
-0.057197
  0
VERTEX
  8
0
 10
16.729032
 20
17.960696
 42
-0.022091
  0
VERTEX
  8
0
 10
16.703062
 20
18.071756
 42
-0.021528
  0
VERTEX
  8
0
 10
16.685268
 20
18.195798
 42
-0.024863
  0
VERTEX
  8
0
 10
16.679333
 20
18.315073
 42
0.020588
  0
VERTEX
  8
0
 10
16.674673
 20
18.428193
 42
0.024727
  0
VERTEX
  8
0
 10
16.660680
 20
18.533762
 42
0.024579
  0
VERTEX
  8
0
 10
16.640471
 20
18.619928
 42
0.127802
  0
VERTEX
  8
0
 10
16.615833
 20
18.661618
 42
-0.157765
  0
VERTEX
  8
0
 10
16.555141
 20
18.779628
 42
-0.003375
  0
VERTEX
  8
0
 10
16.453036
 20
19.431698
 42
-0.008182
  0
VERTEX
  8
0
 10
16.358341
 20
20.143770
 42
-0.008450
  0
VERTEX
  8
0
 10
16.288139
 20
20.850957
 42
0.009850
  0
VERTEX
  8
0
 10
16.262062
 20
21.106371
 42
0.014562
  0
VERTEX
  8
0
 10
16.228284
 20
21.329017
 42
0.009682
  0
VERTEX
  8
0
 10
16.191710
 20
21.510326
 42
0.202400
  0
VERTEX
  8
0
 10
16.160351
 20
21.554454
 42
-0.232987
  0
VERTEX
  8
0
 10
16.130901
 20
21.601489
 42
-0.006150
  0
VERTEX
  8
0
 10
16.108312
 20
21.853754
 42
-0.011679
  0
VERTEX
  8
0
 10
16.091996
 20
22.157564
 42
-0.007573
  0
VERTEX
  8
0
 10
16.086667
 20
22.509397
 42
0.008149
  0
VERTEX
  8
0
 10
16.080481
 20
22.888926
 42
0.015116
  0
VERTEX
  8
0
 10
16.061143
 20
23.196344
 42
0.012865
  0
VERTEX
  8
0
 10
16.032901
 20
23.432989
 42
0.161607
  0
VERTEX
  8
0
 10
15.993064
 20
23.512402
 42
-0.197414
  0
VERTEX
  8
0
 10
15.891450
 20
23.755733
 42
-0.000184
  0
VERTEX
  8
0
 10
15.857802
 20
29.989112
 42
-0.001873
  0
VERTEX
  8
0
 10
15.850692
 20
35.528333
 42
-0.009554
  0
VERTEX
  8
0
 10
15.917134
 20
38.608000
 42
0.000551
  0
VERTEX
  8
0
 10
15.956241
 20
39.595631
 42
0.000469
  0
VERTEX
  8
0
 10
15.995381
 20
40.637883
 42
0.000473
  0
VERTEX
  8
0
 10
16.029215
 20
41.586531
 42
0.001339
  0
VERTEX
  8
0
 10
16.050428
 20
42.248667
 42
-0.005362
  0
VERTEX
  8
0
 10
16.071079
 20
42.763706
 42
-0.007411
  0
VERTEX
  8
0
 10
16.101407
 20
43.225244
 42
-0.004917
  0
VERTEX
  8
0
 10
16.136258
 20
43.610256
 42
-0.086629
  0
VERTEX
  8
0
 10
16.169869
 20
43.730333
 42
0.082505
  0
VERTEX
  8
0
 10
16.203633
 20
43.847257
 42
0.005860
  0
VERTEX
  8
0
 10
16.239219
 20
44.185681
 42
0.008135
  0
VERTEX
  8
0
 10
16.270516
 20
44.592524
 42
0.006044
  0
VERTEX
  8
0
 10
16.292329
 20
45.042667
 42
-0.003784
  0
VERTEX
  8
0
 10
16.362274
 20
46.634940
 42
-0.003414
  0
VERTEX
  8
0
 10
16.458370
 20
48.281496
 42
-0.000542
  0
VERTEX
  8
0
 10
16.565159
 20
49.892065
 42
-0.182338
  0
VERTEX
  8
0
 10
16.615833
 20
50.003143
 42
0.173318
  0
VERTEX
  8
0
 10
16.641107
 20
50.056071
 42
0.006686
  0
VERTEX
  8
0
 10
16.660680
 20
50.275675
 42
0.011254
  0
VERTEX
  8
0
 10
16.674727
 20
50.540372
 42
0.007627
  0
VERTEX
  8
0
 10
16.679333
 20
50.842333
 42
-0.007628
  0
VERTEX
  8
0
 10
16.683940
 20
51.144284
 42
-0.011257
  0
VERTEX
  8
0
 10
16.697987
 20
51.408950
 42
-0.006683
  0
VERTEX
  8
0
 10
16.717559
 20
51.628529
 42
-0.173610
  0
VERTEX
  8
0
 10
16.742833
 20
51.681381
 42
0.170601
  0
VERTEX
  8
0
 10
16.770735
 20
51.738863
 42
0.001869
  0
VERTEX
  8
0
 10
16.819312
 20
52.177816
 42
0.005580
  0
VERTEX
  8
0
 10
16.868154
 20
52.688677
 42
0.003572
  0
VERTEX
  8
0
 10
16.914016
 20
53.282992
 42
-0.000418
  0
VERTEX
  8
0
 10
17.036631
 20
55.014267
 42
-0.005622
  0
VERTEX
  8
0
 10
17.089198
 20
55.647797
 42
-0.014092
  0
VERTEX
  8
0
 10
17.131366
 20
55.991121
 42
-0.070525
  0
VERTEX
  8
0
 10
17.186881
 20
56.176333
 42
0.075815
  0
VERTEX
  8
0
 10
17.265840
 20
56.450212
 42
0.012897
  0
VERTEX
  8
0
 10
17.322146
 20
56.991996
 42
0.012131
  0
VERTEX
  8
0
 10
17.360204
 20
57.702690
 42
0.006335
  0
VERTEX
  8
0
 10
17.374897
 20
58.589333
 42
0.007271
  0
VERTEX
  8
0
 10
17.365711
 20
59.452629
 42
0.028124
  0
VERTEX
  8
0
 10
17.322171
 20
59.986244
 42
0.041001
  0
VERTEX
  8
0
 10
17.229336
 20
60.402170
 42
0.032349
  0
VERTEX
  8
0
 10
17.064097
 20
60.833000
 42
-0.001784
  0
VERTEX
  8
0
 10
16.981108
 20
61.015230
 42
-0.001413
  0
VERTEX
  8
0
 10
16.892650
 20
61.212809
 42
-0.001428
  0
VERTEX
  8
0
 10
16.811617
 20
61.396598
 42
-0.003562
  0
VERTEX
  8
0
 10
16.753739
 20
61.531500
 42
0.018472
  0
VERTEX
  8
0
 10
16.704743
 20
61.636912
 42
0.026654
  0
VERTEX
  8
0
 10
16.653197
 20
61.725837
 42
0.025111
  0
VERTEX
  8
0
 10
16.605281
 20
61.791714
 42
0.226705
  0
VERTEX
  8
0
 10
16.573999
 20
61.806667
 42
-0.139045
  0
VERTEX
  8
0
 10
16.549593
 20
61.813587
 42
-0.100048
  0
VERTEX
  8
0
 10
16.528800
 20
61.833039
 42
-0.085574
  0
VERTEX
  8
0
 10
16.514797
 20
61.862133
 42
-0.069569
  0
VERTEX
  8
0
 10
16.510000
 20
61.896446
 42
0.203641
  0
VERTEX
  8
0
 10
16.428692
 20
62.087803
 42
0.006423
  0
VERTEX
  8
0
 10
15.798147
 20
62.680391
 42
0.008642
  0
VERTEX
  8
0
 10
15.164742
 20
63.240707
 42
0.123309
  0
VERTEX
  8
0
 10
14.896769
 20
63.374003
 42
-0.028032
  0
VERTEX
  8
0
 10
14.801236
 20
63.400674
 42
-0.040195
  0
VERTEX
  8
0
 10
14.720605
 20
63.435589
 42
-0.046089
  0
VERTEX
  8
0
 10
14.663544
 20
63.473064
 42
-0.228237
  0
VERTEX
  8
0
 10
14.647333
 20
63.506727
 42
0.204147
  0
VERTEX
  8
0
 10
14.634642
 20
63.536516
 42
0.083673
  0
VERTEX
  8
0
 10
14.597592
 20
63.561772
 42
0.063880
  0
VERTEX
  8
0
 10
14.542821
 20
63.578941
 42
0.044077
  0
VERTEX
  8
0
 10
14.478000
 20
63.584667
 42
-0.038984
  0
VERTEX
  8
0
 10
14.413158
 20
63.589730
 42
-0.058094
  0
VERTEX
  8
0
 10
14.358408
 20
63.604996
 42
-0.076384
  0
VERTEX
  8
0
 10
14.321104
 20
63.627379
 42
-0.223063
  0
VERTEX
  8
0
 10
14.308667
 20
63.653871
 42
0.315595
  0
VERTEX
  8
0
 10
14.258525
 20
63.725399
 42
0.007918
  0
VERTEX
  8
0
 10
13.862551
 20
63.861983
 42
0.015505
  0
VERTEX
  8
0
 10
13.471352
 20
63.976727
 42
0.063661
  0
VERTEX
  8
0
 10
13.226722
 20
64.008000
 42
-0.043433
  0
VERTEX
  8
0
 10
13.154726
 20
64.014266
 42
-0.044668
  0
VERTEX
  8
0
 10
13.085595
 20
64.032871
 42
-0.048793
  0
VERTEX
  8
0
 10
13.029040
 20
64.060168
 42
-0.118051
  0
VERTEX
  8
0
 10
12.996333
 20
64.092667
 42
0.184643
  0
VERTEX
  8
0
 10
12.953135
 20
64.125646
 42
0.025604
  0
VERTEX
  8
0
 10
12.841465
 20
64.152462
 42
0.026510
  0
VERTEX
  8
0
 10
12.700152
 20
64.171149
 42
0.019619
  0
VERTEX
  8
0
 10
12.542603
 20
64.177333
 42
-0.018269
  0
VERTEX
  8
0
 10
12.383021
 20
64.183166
 42
-0.022668
  0
VERTEX
  8
0
 10
12.235485
 20
64.200716
 42
-0.021793
  0
VERTEX
  8
0
 10
12.115409
 20
64.225971
 42
-0.133106
  0
VERTEX
  8
0
 10
12.060767
 20
64.256934
 42
0.160444
  0
VERTEX
  8
0
 10
11.993826
 20
64.290268
 42
0.006292
  0
VERTEX
  8
0
 10
11.717946
 20
64.326689
 42
0.010608
  0
VERTEX
  8
0
 10
11.385576
 20
64.359184
 42
0.007237
  0
VERTEX
  8
0
 10
11.006667
 20
64.382618
 42
-0.000204
  0
VERTEX
  8
0
 10
10.575256
 20
64.403213
 42
-0.000138
  0
VERTEX
  8
0
 10
10.082742
 20
64.427063
 42
-0.000139
  0
VERTEX
  8
0
 10
9.606258
 20
64.450401
 42
-0.000275
  0
VERTEX
  8
0
 10
9.228667
 20
64.469208
 42
0.009587
  0
VERTEX
  8
0
 10
8.908280
 20
64.479189
 42
0.011993
  0
VERTEX
  8
0
 10
8.610865
 20
64.475616
 42
0.010265
  0
VERTEX
  8
0
 10
8.363273
 20
64.461605
 42
0.085888
  0
SEQEND
  0
ENDSEC
  0
EOF
