999
DXF data, created by potrace 1.16, written by Peter Selinger 2001-2019
  0
SECTION
  2
HEADER
  9
$ACADVER
  1
AC1006
  9
$EXTMIN
 10
0.000000
 20
0.000000
 30
0.000000
  9
$EXTMAX
 10
40.894000
 20
51.816000
 30
0.000000
  0
ENDSEC
  0
SECTION
  2
ENTITIES
  0
POLYLINE
  8
0
 66
1
 70
1
  0
VERTEX
  8
0
 10
24.765000
 20
50.912113
 42
0.024025
  0
VERTEX
  8
0
 10
24.497296
 20
50.839057
 42
0.003488
  0
VERTEX
  8
0
 10
23.961199
 20
50.660549
 42
0.002928
  0
VERTEX
  8
0
 10
23.422521
 20
50.473470
 42
0.034158
  0
VERTEX
  8
0
 10
23.218190
 20
50.385048
 42
-0.006195
  0
VERTEX
  8
0
 10
23.122254
 20
50.337001
 42
-0.000490
  0
VERTEX
  8
0
 10
22.866000
 20
50.212920
 42
-0.000665
  0
VERTEX
  8
0
 10
22.559960
 20
50.065604
 42
-0.000510
  0
VERTEX
  8
0
 10
22.225000
 20
49.905336
 42
0.027645
  0
VERTEX
  8
0
 10
21.193083
 20
49.340884
 42
0.053370
  0
VERTEX
  8
0
 10
20.451639
 20
48.762532
 42
0.064004
  0
VERTEX
  8
0
 10
19.938983
 20
48.120575
 42
0.063513
  0
VERTEX
  8
0
 10
19.603730
 20
47.368211
 42
0.023288
  0
VERTEX
  8
0
 10
19.548660
 20
47.148662
 42
0.050921
  0
VERTEX
  8
0
 10
19.531807
 20
46.976266
 42
0.046880
  0
VERTEX
  8
0
 10
19.549593
 20
46.795371
 42
0.017124
  0
VERTEX
  8
0
 10
19.607283
 20
46.544397
 42
-0.010013
  0
VERTEX
  8
0
 10
19.705661
 20
46.142663
 42
-0.104502
  0
VERTEX
  8
0
 10
19.707668
 20
45.973842
 42
-0.194860
  0
VERTEX
  8
0
 10
19.636780
 20
45.865940
 42
-0.051418
  0
VERTEX
  8
0
 10
19.452167
 20
45.764631
 42
0.075755
  0
VERTEX
  8
0
 10
19.134491
 20
45.569702
 42
0.040630
  0
VERTEX
  8
0
 10
18.807590
 20
45.244494
 42
0.027064
  0
VERTEX
  8
0
 10
18.422141
 20
44.740255
 42
0.008690
  0
VERTEX
  8
0
 10
17.904722
 20
43.952518
 42
-0.004265
  0
VERTEX
  8
0
 10
17.843425
 20
43.857373
 42
-0.000183
  0
VERTEX
  8
0
 10
17.624666
 20
43.524361
 42
-0.000313
  0
VERTEX
  8
0
 10
17.364913
 20
43.129797
 42
-0.000223
  0
VERTEX
  8
0
 10
17.073434
 20
42.688073
 42
-0.005786
  0
VERTEX
  8
0
 10
16.369405
 20
41.648542
 42
-0.386058
  0
VERTEX
  8
0
 10
16.176356
 20
41.603938
 42
-0.266822
  0
VERTEX
  8
0
 10
16.055049
 20
41.806534
 42
-0.003844
  0
VERTEX
  8
0
 10
16.039980
 20
43.265863
 42
0.009852
  0
VERTEX
  8
0
 10
16.013691
 20
44.442378
 42
0.026930
  0
VERTEX
  8
0
 10
15.934062
 20
45.270231
 42
0.035343
  0
VERTEX
  8
0
 10
15.783038
 20
45.944338
 42
0.032673
  0
VERTEX
  8
0
 10
15.535605
 20
46.609000
 42
-0.006515
  0
VERTEX
  8
0
 10
15.455718
 20
46.793476
 42
-0.004931
  0
VERTEX
  8
0
 10
15.372694
 20
46.997905
 42
-0.004987
  0
VERTEX
  8
0
 10
15.298539
 20
47.191421
 42
-0.011542
  0
VERTEX
  8
0
 10
15.247700
 20
47.338464
 42
0.036814
  0
VERTEX
  8
0
 10
15.075849
 20
47.764520
 42
0.003602
  0
VERTEX
  8
0
 10
14.579113
 20
48.756647
 42
0.004749
  0
VERTEX
  8
0
 10
14.064371
 20
49.743219
 42
0.017230
  0
VERTEX
  8
0
 10
13.709850
 20
50.355500
 42
0.138371
  0
VERTEX
  8
0
 10
13.546566
 20
50.503547
 42
0.201626
  0
VERTEX
  8
0
 10
13.355163
 20
50.515733
 42
0.097080
  0
VERTEX
  8
0
 10
13.103943
 20
50.369250
 42
0.020475
  0
VERTEX
  8
0
 10
12.734921
 20
50.016833
 42
0.015826
  0
VERTEX
  8
0
 10
12.141087
 20
49.360986
 42
0.007460
  0
VERTEX
  8
0
 10
11.414398
 20
48.479157
 42
0.007024
  0
VERTEX
  8
0
 10
10.738232
 20
47.608427
 42
0.026524
  0
VERTEX
  8
0
 10
10.352459
 20
47.036227
 42
0.036671
  0
VERTEX
  8
0
 10
9.820243
 20
45.980264
 42
0.040883
  0
VERTEX
  8
0
 10
9.470443
 20
44.895056
 42
0.031577
  0
VERTEX
  8
0
 10
9.244507
 20
43.554470
 42
0.011876
  0
VERTEX
  8
0
 10
9.092148
 20
41.656000
 42
-0.000061
  0
VERTEX
  8
0
 10
9.072999
 20
41.317164
 42
-0.000016
  0
VERTEX
  8
0
 10
9.042427
 20
40.777673
 42
-0.000016
  0
VERTEX
  8
0
 10
9.007638
 20
40.164473
 42
-0.000017
  0
VERTEX
  8
0
 10
8.973170
 20
39.557652
 42
0.002286
  0
VERTEX
  8
0
 10
8.941331
 20
38.948300
 42
0.002164
  0
VERTEX
  8
0
 10
8.914431
 20
38.327500
 42
0.002148
  0
VERTEX
  8
0
 10
8.895364
 20
37.777906
 42
0.007596
  0
VERTEX
  8
0
 10
8.890000
 20
37.424816
 42
-0.010964
  0
VERTEX
  8
0
 10
8.883715
 20
37.138241
 42
-0.022850
  0
VERTEX
  8
0
 10
8.863745
 20
36.915826
 42
-0.024215
  0
VERTEX
  8
0
 10
8.833611
 20
36.753600
 42
-0.198846
  0
VERTEX
  8
0
 10
8.790539
 20
36.693857
 42
-0.106964
  0
VERTEX
  8
0
 10
8.725730
 20
36.670898
 42
-0.013880
  0
VERTEX
  8
0
 10
8.578804
 20
36.656218
 42
-0.015658
  0
VERTEX
  8
0
 10
8.401124
 20
36.649016
 42
-0.012497
  0
VERTEX
  8
0
 10
8.209405
 20
36.652045
 42
0.027556
  0
VERTEX
  8
0
 10
7.628011
 20
36.643726
 42
0.010833
  0
VERTEX
  8
0
 10
6.829853
 20
36.570836
 42
0.010503
  0
VERTEX
  8
0
 10
6.048515
 20
36.465712
 42
0.035285
  0
VERTEX
  8
0
 10
5.545667
 20
36.350471
 42
0.009580
  0
VERTEX
  8
0
 10
5.110885
 20
36.208804
 42
0.008004
  0
VERTEX
  8
0
 10
4.654794
 20
36.042240
 42
0.003644
  0
VERTEX
  8
0
 10
4.233333
 20
35.877098
 42
0.127527
  0
VERTEX
  8
0
 10
4.148667
 20
35.814791
 42
-0.071698
  0
VERTEX
  8
0
 10
4.116812
 20
35.785414
 42
-0.005445
  0
VERTEX
  8
0
 10
4.019285
 20
35.719986
 42
-0.007408
  0
VERTEX
  8
0
 10
3.900467
 20
35.644627
 42
-0.005572
  0
VERTEX
  8
0
 10
3.767667
 20
35.565159
 42
0.048008
  0
VERTEX
  8
0
 10
3.427910
 20
35.320521
 42
0.022671
  0
VERTEX
  8
0
 10
3.037878
 20
34.945841
 42
0.017101
  0
VERTEX
  8
0
 10
2.695896
 20
34.560564
 42
0.174679
  0
VERTEX
  8
0
 10
2.624667
 20
34.362900
 42
-0.046318
  0
VERTEX
  8
0
 10
2.619107
 20
34.303009
 42
-0.046063
  0
VERTEX
  8
0
 10
2.602615
 20
34.245048
 42
-0.050046
  0
VERTEX
  8
0
 10
2.578394
 20
34.197279
 42
-0.112456
  0
VERTEX
  8
0
 10
2.549598
 20
34.168932
 42
0.142149
  0
VERTEX
  8
0
 10
2.517031
 20
34.132891
 42
0.023408
  0
VERTEX
  8
0
 10
2.479625
 20
34.045781
 42
0.024117
  0
VERTEX
  8
0
 10
2.444407
 20
33.936054
 42
0.019228
  0
VERTEX
  8
0
 10
2.416806
 20
33.814845
 42
-0.012360
  0
VERTEX
  8
0
 10
2.389522
 20
33.686942
 42
-0.011414
  0
VERTEX
  8
0
 10
2.355294
 20
33.557076
 42
-0.011488
  0
VERTEX
  8
0
 10
2.319514
 20
33.442834
 42
-0.036836
  0
VERTEX
  8
0
 10
2.288460
 20
33.369410
 42
0.039403
  0
VERTEX
  8
0
 10
2.139417
 20
33.011917
 42
0.063324
  0
VERTEX
  8
0
 10
2.077213
 20
32.688052
 42
0.056956
  0
VERTEX
  8
0
 10
2.095052
 20
32.335204
 42
0.025870
  0
VERTEX
  8
0
 10
2.194282
 20
31.883037
 42
0.013204
  0
VERTEX
  8
0
 10
2.351562
 20
31.363883
 42
0.032065
  0
VERTEX
  8
0
 10
2.501717
 20
30.992993
 42
0.030669
  0
VERTEX
  8
0
 10
2.702110
 20
30.634828
 42
0.011178
  0
VERTEX
  8
0
 10
3.027497
 20
30.152804
 42
0.000000
  0
VERTEX
  8
0
 10
3.409060
 20
29.613942
 42
0.000000
  0
VERTEX
  8
0
 10
3.315766
 20
29.179138
 42
0.005267
  0
VERTEX
  8
0
 10
3.273887
 20
28.973411
 42
0.002577
  0
VERTEX
  8
0
 10
3.224630
 20
28.710397
 42
0.002556
  0
VERTEX
  8
0
 10
3.176227
 20
28.436428
 42
0.003706
  0
VERTEX
  8
0
 10
3.136521
 20
28.194000
 42
0.000183
  0
VERTEX
  8
0
 10
3.028972
 20
27.503721
 42
0.000119
  0
VERTEX
  8
0
 10
2.905182
 20
26.706031
 42
0.000118
  0
VERTEX
  8
0
 10
2.787857
 20
25.947624
 42
0.000305
  0
VERTEX
  8
0
 10
2.703615
 20
25.400000
 42
-0.002720
  0
VERTEX
  8
0
 10
2.665252
 20
25.158388
 42
-0.001913
  0
VERTEX
  8
0
 10
2.619574
 20
24.886973
 42
-0.001930
  0
VERTEX
  8
0
 10
2.573865
 20
24.627572
 42
-0.004049
  0
VERTEX
  8
0
 10
2.535919
 20
24.426333
 42
0.009992
  0
VERTEX
  8
0
 10
2.460264
 20
23.997173
 42
0.001252
  0
VERTEX
  8
0
 10
2.317247
 20
23.063560
 42
0.001567
  0
VERTEX
  8
0
 10
2.163511
 20
22.020731
 42
0.001887
  0
VERTEX
  8
0
 10
2.025799
 20
21.039667
 42
-0.001479
  0
VERTEX
  8
0
 10
1.985918
 20
20.753855
 42
-0.000298
  0
VERTEX
  8
0
 10
1.913161
 20
20.245652
 42
-0.000315
  0
VERTEX
  8
0
 10
1.827792
 20
19.654509
 42
-0.000294
  0
VERTEX
  8
0
 10
1.739741
 20
19.050000
 42
0.000428
  0
VERTEX
  8
0
 10
1.650048
 20
18.433059
 42
0.000405
  0
VERTEX
  8
0
 10
1.559749
 20
17.804606
 42
0.000402
  0
VERTEX
  8
0
 10
1.480730
 20
17.248278
 42
0.001422
  0
VERTEX
  8
0
 10
1.431312
 20
16.891000
 42
-0.000152
  0
VERTEX
  8
0
 10
1.355798
 20
16.334648
 42
-0.000916
  0
VERTEX
  8
0
 10
1.315991
 20
16.045995
 42
-0.001359
  0
VERTEX
  8
0
 10
1.282029
 20
15.807743
 42
-0.000605
  0
VERTEX
  8
0
 10
1.236047
 20
15.494000
 42
0.006825
  0
VERTEX
  8
0
 10
1.007718
 20
13.788446
 42
0.016027
  0
VERTEX
  8
0
 10
0.895562
 20
12.508199
 42
0.021021
  0
VERTEX
  8
0
 10
0.881846
 20
11.476427
 42
0.030041
  0
VERTEX
  8
0
 10
0.963028
 20
10.564685
 42
0.040814
  0
VERTEX
  8
0
 10
1.326652
 20
9.014851
 42
0.056843
  0
VERTEX
  8
0
 10
1.914415
 20
7.718233
 42
0.054671
  0
VERTEX
  8
0
 10
2.798763
 20
6.551048
 42
0.034310
  0
VERTEX
  8
0
 10
4.059366
 20
5.389387
 42
0.029865
  0
VERTEX
  8
0
 10
4.810185
 20
4.857588
 42
0.010874
  0
VERTEX
  8
0
 10
5.932315
 20
4.192842
 42
0.006344
  0
VERTEX
  8
0
 10
7.074832
 20
3.568123
 42
0.122530
  0
VERTEX
  8
0
 10
7.463866
 20
3.471333
 42
-0.046105
  0
VERTEX
  8
0
 10
7.523627
 20
3.465811
 42
-0.066045
  0
VERTEX
  8
0
 10
7.574136
 20
3.449286
 42
-0.086115
  0
VERTEX
  8
0
 10
7.608229
 20
3.424952
 42
-0.197276
  0
VERTEX
  8
0
 10
7.620000
 20
3.396280
 42
0.289321
  0
VERTEX
  8
0
 10
7.640454
 20
3.363891
 42
0.027358
  0
VERTEX
  8
0
 10
7.731339
 20
3.326577
 42
0.028325
  0
VERTEX
  8
0
 10
7.853773
 20
3.291605
 42
0.018190
  0
VERTEX
  8
0
 10
7.999027
 20
3.264388
 42
-0.017300
  0
VERTEX
  8
0
 10
8.147778
 20
3.236790
 42
-0.022679
  0
VERTEX
  8
0
 10
8.281197
 20
3.200812
 42
-0.021093
  0
VERTEX
  8
0
 10
8.387092
 20
3.162047
 42
-0.157308
  0
VERTEX
  8
0
 10
8.427357
 20
3.127775
 42
0.133636
  0
VERTEX
  8
0
 10
8.460198
 20
3.097086
 42
0.044546
  0
VERTEX
  8
0
 10
8.521419
 20
3.071434
 42
0.040600
  0
VERTEX
  8
0
 10
8.597521
 20
3.053887
 42
0.036378
  0
VERTEX
  8
0
 10
8.678333
 20
3.048000
 42
-0.038534
  0
VERTEX
  8
0
 10
8.759366
 20
3.041746
 42
-0.041947
  0
VERTEX
  8
0
 10
8.836136
 20
3.023129
 42
-0.046040
  0
VERTEX
  8
0
 10
8.898195
 20
2.995878
 42
-0.128561
  0
VERTEX
  8
0
 10
8.932333
 20
2.963333
 42
0.130646
  0
VERTEX
  8
0
 10
8.966764
 20
2.930778
 42
0.045439
  0
VERTEX
  8
0
 10
9.029998
 20
2.903538
 42
0.041396
  0
VERTEX
  8
0
 10
9.108384
 20
2.884919
 42
0.037634
  0
VERTEX
  8
0
 10
9.191330
 20
2.878667
 42
-0.034527
  0
VERTEX
  8
0
 10
9.270489
 20
2.873194
 42
-0.052622
  0
VERTEX
  8
0
 10
9.337291
 20
2.856620
 42
-0.068551
  0
VERTEX
  8
0
 10
9.383219
 20
2.832403
 42
-0.241717
  0
VERTEX
  8
0
 10
9.398000
 20
2.803613
 42
0.289321
  0
VERTEX
  8
0
 10
9.418454
 20
2.771224
 42
0.027358
  0
VERTEX
  8
0
 10
9.509339
 20
2.733911
 42
0.028325
  0
VERTEX
  8
0
 10
9.631773
 20
2.698938
 42
0.018190
  0
VERTEX
  8
0
 10
9.777027
 20
2.671722
 42
-0.017300
  0
VERTEX
  8
0
 10
9.925778
 20
2.644123
 42
-0.022679
  0
VERTEX
  8
0
 10
10.059197
 20
2.608145
 42
-0.021093
  0
VERTEX
  8
0
 10
10.165092
 20
2.569380
 42
-0.157308
  0
VERTEX
  8
0
 10
10.205357
 20
2.535108
 42
0.133636
  0
VERTEX
  8
0
 10
10.238198
 20
2.504420
 42
0.044546
  0
VERTEX
  8
0
 10
10.299419
 20
2.478767
 42
0.040600
  0
VERTEX
  8
0
 10
10.375521
 20
2.461221
 42
0.036378
  0
VERTEX
  8
0
 10
10.456333
 20
2.455333
 42
-0.038534
  0
VERTEX
  8
0
 10
10.537366
 20
2.449079
 42
-0.041947
  0
VERTEX
  8
0
 10
10.614136
 20
2.430462
 42
-0.046040
  0
VERTEX
  8
0
 10
10.676195
 20
2.403211
 42
-0.128561
  0
VERTEX
  8
0
 10
10.710333
 20
2.370667
 42
0.130646
  0
VERTEX
  8
0
 10
10.744764
 20
2.338112
 42
0.045439
  0
VERTEX
  8
0
 10
10.807998
 20
2.310871
 42
0.041396
  0
VERTEX
  8
0
 10
10.886384
 20
2.292252
 42
0.037634
  0
VERTEX
  8
0
 10
10.969330
 20
2.286000
 42
-0.033957
  0
VERTEX
  8
0
 10
11.048492
 20
2.280618
 42
-0.051896
  0
VERTEX
  8
0
 10
11.115291
 20
2.264308
 42
-0.067450
  0
VERTEX
  8
0
 10
11.161280
 20
2.240490
 42
-0.244248
  0
VERTEX
  8
0
 10
11.176000
 20
2.212154
 42
0.282766
  0
VERTEX
  8
0
 10
11.195641
 20
2.180201
 42
0.029079
  0
VERTEX
  8
0
 10
11.280467
 20
2.143296
 42
0.029408
  0
VERTEX
  8
0
 10
11.395351
 20
2.108584
 42
0.019018
  0
VERTEX
  8
0
 10
11.531633
 20
2.081441
 42
-0.013115
  0
VERTEX
  8
0
 10
11.674303
 20
2.054772
 42
-0.015055
  0
VERTEX
  8
0
 10
11.808903
 20
2.021672
 42
-0.014250
  0
VERTEX
  8
0
 10
11.920724
 20
1.987114
 42
-0.079148
  0
VERTEX
  8
0
 10
11.976133
 20
1.957830
 42
0.081181
  0
VERTEX
  8
0
 10
12.036572
 20
1.926199
 42
0.008695
  0
VERTEX
  8
0
 10
12.188120
 20
1.878860
 42
0.010520
  0
VERTEX
  8
0
 10
12.371967
 20
1.829099
 42
0.008282
  0
VERTEX
  8
0
 10
12.573000
 20
1.782721
 42
-0.003728
  0
VERTEX
  8
0
 10
12.799255
 20
1.732690
 42
-0.002423
  0
VERTEX
  8
0
 10
13.059957
 20
1.671669
 42
-0.002437
  0
VERTEX
  8
0
 10
13.313831
 20
1.609637
 42
-0.004634
  0
VERTEX
  8
0
 10
13.517364
 20
1.556844
 42
0.010896
  0
VERTEX
  8
0
 10
13.700185
 20
1.511860
 42
0.010233
  0
VERTEX
  8
0
 10
13.888645
 20
1.473852
 42
0.010256
  0
VERTEX
  8
0
 10
14.057100
 20
1.447008
 42
0.034393
  0
VERTEX
  8
0
 10
14.168534
 20
1.439333
 42
-0.030257
  0
VERTEX
  8
0
 10
14.253951
 20
1.434160
 42
-0.036233
  0
VERTEX
  8
0
 10
14.333009
 20
1.418674
 42
-0.039215
  0
VERTEX
  8
0
 10
14.395863
 20
1.396139
 42
-0.149750
  0
VERTEX
  8
0
 10
14.426805
 20
1.369004
 42
0.187694
  0
VERTEX
  8
0
 10
14.498597
 20
1.314863
 42
0.008329
  0
VERTEX
  8
0
 10
14.805313
 20
1.233787
 42
0.012497
  0
VERTEX
  8
0
 10
15.192804
 20
1.148449
 42
0.007191
  0
VERTEX
  8
0
 10
15.663333
 20
1.064090
 42
-0.002318
  0
VERTEX
  8
0
 10
15.792266
 20
1.042269
 42
-0.001711
  0
VERTEX
  8
0
 10
15.934796
 20
1.016964
 42
-0.001728
  0
VERTEX
  8
0
 10
16.069352
 20
0.992119
 42
-0.003872
  0
VERTEX
  8
0
 10
16.171333
 20
0.972105
 42
0.025595
  0
VERTEX
  8
0
 10
16.301659
 20
0.952360
 42
0.003163
  0
VERTEX
  8
0
 10
16.587853
 20
0.925709
 42
0.003730
  0
VERTEX
  8
0
 10
16.928468
 20
0.898722
 42
0.003077
  0
VERTEX
  8
0
 10
17.292039
 20
0.874891
 42
0.008875
  0
VERTEX
  8
0
 10
17.775235
 20
0.854804
 42
0.021455
  0
VERTEX
  8
0
 10
18.132580
 20
0.861632
 42
0.026043
  0
VERTEX
  8
0
 10
18.443687
 20
0.897280
 42
0.020860
  0
VERTEX
  8
0
 10
18.773705
 20
0.966887
 42
0.071882
  0
VERTEX
  8
0
 10
20.048037
 20
1.495339
 42
0.062770
  0
VERTEX
  8
0
 10
21.187298
 20
2.383180
 42
0.038347
  0
VERTEX
  8
0
 10
22.474731
 20
3.890856
 42
0.009426
  0
VERTEX
  8
0
 10
24.346410
 20
6.561667
 42
-0.000898
  0
VERTEX
  8
0
 10
24.564494
 20
6.884440
 42
-0.000765
  0
VERTEX
  8
0
 10
24.795692
 20
7.224183
 42
-0.000770
  0
VERTEX
  8
0
 10
25.007017
 20
7.532683
 42
-0.002184
  0
VERTEX
  8
0
 10
25.155695
 20
7.747000
 42
0.016566
  0
VERTEX
  8
0
 10
25.698885
 20
8.580180
 42
0.002611
  0
VERTEX
  8
0
 10
26.703717
 20
10.258808
 42
0.003101
  0
VERTEX
  8
0
 10
27.719662
 20
12.000852
 42
0.007688
  0
VERTEX
  8
0
 10
28.436140
 20
13.292667
 42
0.006480
  0
VERTEX
  8
0
 10
29.098559
 20
14.571117
 42
0.002197
  0
VERTEX
  8
0
 10
30.029680
 20
16.447158
 42
0.000330
  0
VERTEX
  8
0
 10
31.033876
 20
18.496382
 42
0.114239
  0
VERTEX
  8
0
 10
31.072667
 20
18.663943
 42
-0.092771
  0
VERTEX
  8
0
 10
31.078814
 20
18.696792
 42
-0.004175
  0
VERTEX
  8
0
 10
31.121491
 20
18.804146
 42
-0.006882
  0
VERTEX
  8
0
 10
31.175200
 20
18.931009
 42
-0.004860
  0
VERTEX
  8
0
 10
31.238876
 20
19.072089
 42
0.004042
  0
VERTEX
  8
0
 10
31.321928
 20
19.255302
 42
0.001373
  0
VERTEX
  8
0
 10
31.439773
 20
19.522939
 42
0.001365
  0
VERTEX
  8
0
 10
31.568351
 20
19.819338
 42
0.001571
  0
VERTEX
  8
0
 10
31.689384
 20
20.102896
 42
-0.011855
  0
VERTEX
  8
0
 10
31.896930
 20
20.562708
 42
-0.085423
  0
VERTEX
  8
0
 10
32.037317
 20
20.760131
 42
-0.104864
  0
VERTEX
  8
0
 10
32.224360
 20
20.880882
 42
-0.021933
  0
VERTEX
  8
0
 10
32.596667
 20
21.004443
 42
0.048084
  0
VERTEX
  8
0
 10
33.128464
 20
21.212346
 42
0.020714
  0
VERTEX
  8
0
 10
33.793509
 20
21.584511
 42
0.020247
  0
VERTEX
  8
0
 10
34.413172
 20
22.001301
 42
0.062495
  0
VERTEX
  8
0
 10
34.779252
 20
22.347450
 42
0.017669
  0
VERTEX
  8
0
 10
34.959949
 20
22.583567
 42
0.004631
  0
VERTEX
  8
0
 10
35.232543
 20
22.974743
 42
0.001640
  0
VERTEX
  8
0
 10
35.515918
 20
23.392462
 42
0.104861
  0
VERTEX
  8
0
 10
35.548781
 20
23.473833
 42
0.003350
  0
VERTEX
  8
0
 10
35.553689
 20
23.502742
 42
0.001976
  0
VERTEX
  8
0
 10
35.559183
 20
23.537333
 42
0.001976
  0
VERTEX
  8
0
 10
35.564399
 20
23.571927
 42
0.003384
  0
VERTEX
  8
0
 10
35.568440
 20
23.600833
 42
-0.605869
  0
VERTEX
  8
0
 10
35.577793
 20
23.604239
 42
-0.093450
  0
VERTEX
  8
0
 10
35.593368
 20
23.583503
 42
-0.029289
  0
VERTEX
  8
0
 10
35.616019
 20
23.529822
 42
-0.011157
  0
VERTEX
  8
0
 10
35.641452
 20
23.452667
 42
0.008944
  0
VERTEX
  8
0
 10
35.681668
 20
23.328824
 42
0.207943
  0
VERTEX
  8
0
 10
35.706136
 20
23.302130
 42
0.394961
  0
VERTEX
  8
0
 10
35.731412
 20
23.310886
 42
0.021010
  0
VERTEX
  8
0
 10
35.771263
 20
23.394878
 42
0.079865
  0
VERTEX
  8
0
 10
35.789530
 20
23.469013
 42
0.047869
  0
VERTEX
  8
0
 10
35.788306
 20
23.559916
 42
0.045500
  0
VERTEX
  8
0
 10
35.769043
 20
23.654913
 42
0.050140
  0
VERTEX
  8
0
 10
35.733270
 20
23.741645
 42
-0.053892
  0
VERTEX
  8
0
 10
35.688151
 20
23.853400
 42
-0.067578
  0
VERTEX
  8
0
 10
35.672452
 20
23.963934
 42
-0.053477
  0
VERTEX
  8
0
 10
35.685557
 20
24.093611
 42
-0.020884
  0
VERTEX
  8
0
 10
35.730039
 20
24.268302
 42
0.075242
  0
VERTEX
  8
0
 10
35.806728
 20
24.808989
 42
0.031986
  0
VERTEX
  8
0
 10
35.753045
 20
25.540481
 42
0.031975
  0
VERTEX
  8
0
 10
35.602104
 20
26.280777
 42
0.056638
  0
VERTEX
  8
0
 10
35.372318
 20
26.859074
 42
0.032392
  0
VERTEX
  8
0
 10
35.005186
 20
27.449718
 42
0.024340
  0
VERTEX
  8
0
 10
34.530157
 20
28.049843
 42
0.024826
  0
VERTEX
  8
0
 10
34.022100
 20
28.576021
 42
0.047335
  0
VERTEX
  8
0
 10
33.557551
 20
28.935576
 42
-0.016146
  0
VERTEX
  8
0
 10
33.413999
 20
29.033023
 42
-0.019253
  0
VERTEX
  8
0
 10
33.285481
 20
29.134248
 42
-0.018347
  0
VERTEX
  8
0
 10
33.184763
 20
29.226648
 42
-0.106739
  0
VERTEX
  8
0
 10
33.145570
 20
29.286590
 42
-0.239206
  0
VERTEX
  8
0
 10
33.165857
 20
29.482509
 42
-0.011320
  0
VERTEX
  8
0
 10
33.548553
 20
30.047442
 42
-0.014201
  0
VERTEX
  8
0
 10
34.106253
 20
30.786495
 42
-0.005753
  0
VERTEX
  8
0
 10
34.906077
 20
31.762812
 42
0.009935
  0
VERTEX
  8
0
 10
35.191902
 20
32.117723
 42
0.005493
  0
VERTEX
  8
0
 10
35.527503
 20
32.561819
 42
0.003865
  0
VERTEX
  8
0
 10
35.963954
 20
33.162413
 42
0.001337
  0
VERTEX
  8
0
 10
36.585005
 20
34.036000
 42
-0.000908
  0
VERTEX
  8
0
 10
36.949585
 20
34.549764
 42
-0.001271
  0
VERTEX
  8
0
 10
37.277295
 20
35.007335
 42
-0.000753
  0
VERTEX
  8
0
 10
37.555077
 20
35.391894
 42
-0.017012
  0
VERTEX
  8
0
 10
37.639027
 20
35.499820
 42
0.038690
  0
VERTEX
  8
0
 10
37.697022
 20
35.581440
 42
0.012930
  0
VERTEX
  8
0
 10
37.769139
 20
35.708997
 42
0.012781
  0
VERTEX
  8
0
 10
37.841994
 20
35.854889
 42
0.014245
  0
VERTEX
  8
0
 10
37.904555
 20
35.999187
 42
0.024236
  0
VERTEX
  8
0
 10
37.972856
 20
36.197203
 42
0.056950
  0
VERTEX
  8
0
 10
37.999266
 20
36.351141
 42
0.056261
  0
VERTEX
  8
0
 10
37.990419
 20
36.508201
 42
0.023170
  0
VERTEX
  8
0
 10
37.944875
 20
36.716749
 42
-0.043328
  0
VERTEX
  8
0
 10
37.872940
 20
37.124213
 42
-0.143222
  0
VERTEX
  8
0
 10
37.925577
 20
37.388810
 42
-0.047968
  0
VERTEX
  8
0
 10
38.138689
 20
37.716411
 42
-0.001722
  0
VERTEX
  8
0
 10
39.076198
 20
38.885159
 42
0.004992
  0
VERTEX
  8
0
 10
39.518009
 20
39.443384
 42
0.048469
  0
VERTEX
  8
0
 10
39.678756
 20
39.698270
 42
0.134032
  0
VERTEX
  8
0
 10
39.713785
 20
39.871672
 42
0.136810
  0
VERTEX
  8
0
 10
39.655369
 20
40.037294
 42
0.055511
  0
VERTEX
  8
0
 10
39.583571
 20
40.118838
 42
0.021432
  0
VERTEX
  8
0
 10
39.467676
 20
40.215491
 42
0.020905
  0
VERTEX
  8
0
 10
39.331919
 20
40.310466
 42
0.024230
  0
VERTEX
  8
0
 10
39.195072
 20
40.388854
 42
-0.029533
  0
VERTEX
  8
0
 10
39.067568
 20
40.463697
 42
-0.037217
  0
VERTEX
  8
0
 10
38.959840
 20
40.548040
 42
-0.040675
  0
VERTEX
  8
0
 10
38.883777
 20
40.629549
 42
-0.168967
  0
VERTEX
  8
0
 10
38.862000
 20
40.692151
 42
-0.125541
  0
VERTEX
  8
0
 10
38.901291
 20
40.846170
 42
-0.025252
  0
VERTEX
  8
0
 10
39.050373
 20
41.089305
 42
-0.019937
  0
VERTEX
  8
0
 10
39.290059
 20
41.410957
 42
-0.007579
  0
VERTEX
  8
0
 10
39.648606
 20
41.840611
 42
0.033194
  0
VERTEX
  8
0
 10
39.984326
 20
42.287564
 42
0.301181
  0
VERTEX
  8
0
 10
39.982650
 20
42.519698
 42
0.135492
  0
VERTEX
  8
0
 10
39.742727
 20
42.725566
 42
0.006163
  0
VERTEX
  8
0
 10
38.748274
 20
43.178618
 42
0.009486
  0
VERTEX
  8
0
 10
38.514515
 20
43.276400
 42
0.011442
  0
VERTEX
  8
0
 10
38.291290
 20
43.358981
 42
0.010161
  0
VERTEX
  8
0
 10
38.101319
 20
43.420071
 42
0.072830
  0
VERTEX
  8
0
 10
38.006196
 20
43.434000
 42
0.181220
  0
VERTEX
  8
0
 10
37.872860
 20
43.384033
 42
0.056371
  0
VERTEX
  8
0
 10
37.726038
 20
43.223583
 42
0.032018
  0
VERTEX
  8
0
 10
37.543055
 20
42.934579
 42
0.007719
  0
VERTEX
  8
0
 10
37.278786
 20
42.433091
 42
-0.024100
  0
VERTEX
  8
0
 10
37.062445
 20
42.053257
 42
-0.157932
  0
VERTEX
  8
0
 10
36.895739
 20
41.915223
 42
-0.201054
  0
VERTEX
  8
0
 10
36.702409
 20
41.918801
 42
-0.042632
  0
VERTEX
  8
0
 10
36.400431
 20
42.083983
 42
0.016542
  0
VERTEX
  8
0
 10
36.246075
 20
42.179188
 42
0.018833
  0
VERTEX
  8
0
 10
36.092186
 20
42.259681
 42
0.018329
  0
VERTEX
  8
0
 10
35.957531
 20
42.317825
 42
0.092390
  0
VERTEX
  8
0
 10
35.877350
 20
42.332971
 42
0.202306
  0
VERTEX
  8
0
 10
35.787184
 20
42.295191
 42
0.019398
  0
VERTEX
  8
0
 10
35.623864
 20
42.114883
 42
0.019593
  0
VERTEX
  8
0
 10
35.422170
 20
41.853944
 42
0.008972
  0
VERTEX
  8
0
 10
35.178850
 20
41.498973
 42
0.004308
  0
VERTEX
  8
0
 10
34.968011
 20
41.173158
 42
0.006476
  0
VERTEX
  8
0
 10
34.790283
 20
40.885075
 42
0.002950
  0
VERTEX
  8
0
 10
34.644078
 20
40.637772
 42
0.132778
  0
VERTEX
  8
0
 10
34.628667
 20
40.580762
 42
-0.125904
  0
VERTEX
  8
0
 10
34.617870
 20
40.538564
 42
-0.029812
  0
VERTEX
  8
0
 10
34.578925
 20
40.476527
 42
-0.028826
  0
VERTEX
  8
0
 10
34.524150
 20
40.408490
 42
-0.024947
  0
VERTEX
  8
0
 10
34.459333
 20
40.343667
 42
0.021102
  0
VERTEX
  8
0
 10
34.394505
 20
40.279820
 42
0.025793
  0
VERTEX
  8
0
 10
34.339742
 20
40.214706
 42
0.025719
  0
VERTEX
  8
0
 10
34.300240
 20
40.156500
 42
0.137057
  0
VERTEX
  8
0
 10
34.290000
 20
40.119846
 42
-0.164662
  0
VERTEX
  8
0
 10
34.240465
 20
39.973508
 42
-0.082328
  0
VERTEX
  8
0
 10
34.096301
 20
39.838201
 42
-0.072441
  0
VERTEX
  8
0
 10
33.893978
 20
39.741760
 42
-0.075185
  0
VERTEX
  8
0
 10
33.675144
 20
39.708667
 42
0.070180
  0
VERTEX
  8
0
 10
33.339483
 20
39.661320
 42
0.057796
  0
VERTEX
  8
0
 10
33.005458
 20
39.521778
 42
0.051588
  0
VERTEX
  8
0
 10
32.678910
 20
39.291466
 42
0.037258
  0
VERTEX
  8
0
 10
32.365658
 20
38.974155
 42
-0.000363
  0
VERTEX
  8
0
 10
32.216691
 20
38.799154
 42
-0.000291
  0
VERTEX
  8
0
 10
32.056145
 20
38.611048
 42
-0.000294
  0
VERTEX
  8
0
 10
31.907529
 20
38.437332
 42
-0.000752
  0
VERTEX
  8
0
 10
31.799564
 20
38.311667
 42
0.003063
  0
VERTEX
  8
0
 10
31.690904
 20
38.184003
 42
0.001132
  0
VERTEX
  8
0
 10
31.539272
 20
38.002794
 42
0.001121
  0
VERTEX
  8
0
 10
31.374648
 20
37.804247
 42
0.001350
  0
VERTEX
  8
0
 10
31.220838
 20
37.616866
 42
-0.021112
  0
VERTEX
  8
0
 10
30.955202
 20
37.318142
 42
-0.066600
  0
VERTEX
  8
0
 10
30.745375
 20
37.152336
 42
-0.139757
  0
VERTEX
  8
0
 10
30.588271
 20
37.110876
 42
-0.254683
  0
VERTEX
  8
0
 10
30.476200
 20
37.174815
 42
-0.135520
  0
VERTEX
  8
0
 10
30.458117
 20
37.236726
 42
-0.035898
  0
VERTEX
  8
0
 10
30.464039
 20
37.340518
 42
-0.033680
  0
VERTEX
  8
0
 10
30.488224
 20
37.462267
 42
-0.029030
  0
VERTEX
  8
0
 10
30.529443
 20
37.586042
 42
0.042753
  0
VERTEX
  8
0
 10
30.772507
 20
38.388656
 42
0.026438
  0
VERTEX
  8
0
 10
30.925489
 20
39.362981
 42
0.026419
  0
VERTEX
  8
0
 10
30.974914
 20
40.349663
 42
0.042157
  0
VERTEX
  8
0
 10
30.901556
 20
41.190333
 42
0.015103
  0
VERTEX
  8
0
 10
30.714775
 20
42.104666
 42
0.008611
  0
VERTEX
  8
0
 10
30.436886
 20
43.197830
 42
0.008353
  0
VERTEX
  8
0
 10
30.136329
 20
44.231907
 42
0.025733
  0
VERTEX
  8
0
 10
29.885947
 20
44.915667
 42
-0.009202
  0
VERTEX
  8
0
 10
29.850983
 20
45.002182
 42
-0.003169
  0
VERTEX
  8
0
 10
29.803524
 20
45.128524
 42
-0.003148
  0
VERTEX
  8
0
 10
29.752943
 20
45.268527
 42
-0.003644
  0
VERTEX
  8
0
 10
29.706588
 20
45.402500
 42
0.086746
  0
VERTEX
  8
0
 10
29.584416
 20
45.626731
 42
0.201382
  0
VERTEX
  8
0
 10
29.419660
 20
45.717038
 42
0.135453
  0
VERTEX
  8
0
 10
29.189188
 20
45.678588
 42
0.033113
  0
VERTEX
  8
0
 10
28.848351
 20
45.492044
 42
0.005304
  0
VERTEX
  8
0
 10
27.185843
 20
44.408541
 42
0.015929
  0
VERTEX
  8
0
 10
26.083148
 20
43.621232
 42
0.022425
  0
VERTEX
  8
0
 10
25.268397
 20
42.939494
 42
0.026623
  0
VERTEX
  8
0
 10
24.565806
 20
42.223534
 42
0.016773
  0
VERTEX
  8
0
 10
24.051316
 20
41.599146
 42
0.028771
  0
VERTEX
  8
0
 10
23.671576
 20
41.041847
 42
0.021458
  0
VERTEX
  8
0
 10
23.291278
 20
40.341884
 42
0.005530
  0
VERTEX
  8
0
 10
22.739242
 20
39.180525
 42
0.004689
  0
VERTEX
  8
0
 10
22.623321
 20
38.923218
 42
0.006675
  0
VERTEX
  8
0
 10
22.525548
 20
38.692322
 42
0.003955
  0
VERTEX
  8
0
 10
22.447608
 20
38.496786
 42
0.093114
  0
VERTEX
  8
0
 10
22.436667
 20
38.438543
 42
-0.060019
  0
VERTEX
  8
0
 10
22.431446
 20
38.395206
 42
-0.020297
  0
VERTEX
  8
0
 10
22.413828
 20
38.334025
 42
-0.019853
  0
VERTEX
  8
0
 10
22.388679
 20
38.267345
 42
-0.021524
  0
VERTEX
  8
0
 10
22.358918
 20
38.204684
 42
0.015479
  0
VERTEX
  8
0
 10
22.250156
 20
37.982652
 42
0.003608
  0
VERTEX
  8
0
 10
22.081948
 20
37.603260
 42
0.003870
  0
VERTEX
  8
0
 10
21.903329
 20
37.183556
 42
0.005112
  0
VERTEX
  8
0
 10
21.747471
 20
36.798269
 42
-0.006267
  0
VERTEX
  8
0
 10
21.665010
 20
36.595769
 42
-0.003167
  0
VERTEX
  8
0
 10
21.556293
 20
36.342577
 42
-0.003145
  0
VERTEX
  8
0
 10
21.440688
 20
36.082452
 42
-0.004676
  0
VERTEX
  8
0
 10
21.335930
 20
35.856333
 42
0.007531
  0
VERTEX
  8
0
 10
21.239350
 20
35.644707
 42
0.007389
  0
VERTEX
  8
0
 10
21.148553
 20
35.428929
 42
0.007303
  0
VERTEX
  8
0
 10
21.074508
 20
35.237407
 42
0.027645
  0
VERTEX
  8
0
 10
21.036680
 20
35.114700
 42
-0.043434
  0
VERTEX
  8
0
 10
20.983603
 20
34.960029
 42
-0.074882
  0
VERTEX
  8
0
 10
20.910665
 20
34.845448
 42
-0.307721
  0
VERTEX
  8
0
 10
20.858602
 20
34.831743
 42
-0.317887
  0
VERTEX
  8
0
 10
20.828000
 20
34.875013
 42
0.193054
  0
VERTEX
  8
0
 10
20.816526
 20
34.903623
 42
0.144924
  0
VERTEX
  8
0
 10
20.786796
 20
34.920649
 42
0.096525
  0
VERTEX
  8
0
 10
20.741453
 20
34.922456
 42
0.053496
  0
VERTEX
  8
0
 10
20.687732
 20
34.908193
 42
-0.406391
  0
VERTEX
  8
0
 10
20.613509
 20
34.940065
 42
-0.083983
  0
VERTEX
  8
0
 10
20.578385
 20
35.093096
 42
-0.022382
  0
VERTEX
  8
0
 10
20.573777
 20
35.439871
 42
-0.001910
  0
VERTEX
  8
0
 10
20.605170
 20
36.329017
 42
-0.001353
  0
VERTEX
  8
0
 10
20.690438
 20
38.366863
 42
-0.021261
  0
VERTEX
  8
0
 10
20.750941
 20
39.060225
 42
-0.061309
  0
VERTEX
  8
0
 10
20.858491
 20
39.477907
 42
-0.053559
  0
VERTEX
  8
0
 10
21.067546
 20
39.878000
 42
0.002063
  0
VERTEX
  8
0
 10
21.189666
 20
40.062624
 42
0.002714
  0
VERTEX
  8
0
 10
21.299475
 20
40.232133
 42
0.001974
  0
VERTEX
  8
0
 10
21.390144
 20
40.375016
 42
0.026000
  0
VERTEX
  8
0
 10
21.420667
 20
40.429645
 42
-0.037164
  0
VERTEX
  8
0
 10
21.452781
 20
40.484227
 42
-0.002520
  0
VERTEX
  8
0
 10
21.556266
 20
40.631927
 42
-0.003602
  0
VERTEX
  8
0
 10
21.681923
 20
40.806680
 42
-0.002693
  0
VERTEX
  8
0
 10
21.822833
 20
40.997529
 42
0.005096
  0
VERTEX
  8
0
 10
21.960723
 20
41.186179
 42
0.007623
  0
VERTEX
  8
0
 10
22.076966
 20
41.354012
 42
0.003734
  0
VERTEX
  8
0
 10
22.171881
 20
41.497929
 42
0.144893
  0
VERTEX
  8
0
 10
22.182667
 20
41.534368
 42
-0.139018
  0
VERTEX
  8
0
 10
22.192380
 20
41.568630
 42
-0.007625
  0
VERTEX
  8
0
 10
22.253077
 20
41.663790
 42
-0.011353
  0
VERTEX
  8
0
 10
22.330536
 20
41.775628
 42
-0.008019
  0
VERTEX
  8
0
 10
22.422363
 20
41.897816
 42
0.012451
  0
VERTEX
  8
0
 10
22.536787
 20
42.052914
 42
0.004900
  0
VERTEX
  8
0
 10
22.686902
 20
42.271909
 42
0.004846
  0
VERTEX
  8
0
 10
22.844622
 20
42.511894
 42
0.006033
  0
VERTEX
  8
0
 10
22.986327
 20
42.738086
 42
0.014438
  0
VERTEX
  8
0
 10
23.161744
 20
43.045366
 42
0.046557
  0
VERTEX
  8
0
 10
23.252576
 20
43.262133
 42
0.053857
  0
VERTEX
  8
0
 10
23.294782
 20
43.474543
 42
0.024493
  0
VERTEX
  8
0
 10
23.305997
 20
43.757911
 42
0.000000
  0
VERTEX
  8
0
 10
23.301400
 20
44.245984
 42
0.000000
  0
VERTEX
  8
0
 10
23.808624
 20
44.493779
 42
0.043994
  0
VERTEX
  8
0
 10
24.335737
 20
44.811440
 42
0.031728
  0
VERTEX
  8
0
 10
24.863884
 20
45.250658
 42
0.031999
  0
VERTEX
  8
0
 10
25.325502
 20
45.746510
 42
0.049037
  0
VERTEX
  8
0
 10
25.650739
 20
46.234698
 42
0.042315
  0
VERTEX
  8
0
 10
25.917110
 20
46.855851
 42
0.047309
  0
VERTEX
  8
0
 10
26.062980
 20
47.490313
 42
0.041790
  0
VERTEX
  8
0
 10
26.097203
 20
48.204131
 42
0.023463
  0
VERTEX
  8
0
 10
26.025566
 20
49.070009
 42
-0.000094
  0
VERTEX
  8
0
 10
25.972053
 20
49.481647
 42
-0.000102
  0
VERTEX
  8
0
 10
25.920033
 20
49.883034
 42
-0.000096
  0
VERTEX
  8
0
 10
25.875532
 20
50.227463
 42
-0.000488
  0
VERTEX
  8
0
 10
25.851013
 20
50.419000
 42
0.031939
  0
VERTEX
  8
0
 10
25.824558
 20
50.556409
 42
0.031977
  0
VERTEX
  8
0
 10
25.780824
 20
50.689272
 42
0.033713
  0
VERTEX
  8
0
 10
25.727580
 20
50.799688
 42
0.098071
  0
VERTEX
  8
0
 10
25.672482
 20
50.863500
 42
0.118737
  0
VERTEX
  8
0
 10
25.534238
 20
50.926345
 42
0.034209
  0
VERTEX
  8
0
 10
25.299507
 20
50.955104
 42
0.033186
  0
VERTEX
  8
0
 10
25.028640
 20
50.951629
 42
0.034813
  0
SEQEND
  0
ENDSEC
  0
EOF
