999
DXF data, created by potrace 1.16, written by Peter Selinger 2001-2019
  0
SECTION
  2
HEADER
  9
$ACADVER
  1
AC1006
  9
$EXTMIN
 10
0.000000
 20
0.000000
 30
0.000000
  9
$EXTMAX
 10
41.063333
 20
66.124667
 30
0.000000
  0
ENDSEC
  0
SECTION
  2
ENTITIES
  0
POLYLINE
  8
0
 66
1
 70
1
  0
VERTEX
  8
0
 10
31.115000
 20
65.193333
 42
-0.189759
  0
VERTEX
  8
0
 10
31.070598
 20
65.160124
 42
-0.022798
  0
VERTEX
  8
0
 10
30.948940
 20
65.132726
 42
-0.024557
  0
VERTEX
  8
0
 10
30.795321
 20
65.113138
 42
-0.017859
  0
VERTEX
  8
0
 10
30.623170
 20
65.105903
 42
0.043728
  0
VERTEX
  8
0
 10
30.279589
 20
65.073618
 42
0.019211
  0
VERTEX
  8
0
 10
29.833262
 20
64.974041
 42
0.015681
  0
VERTEX
  8
0
 10
29.412785
 20
64.848893
 42
0.116714
  0
VERTEX
  8
0
 10
29.236558
 20
64.740114
 42
-0.099132
  0
VERTEX
  8
0
 10
29.204908
 20
64.719023
 42
-0.033761
  0
VERTEX
  8
0
 10
29.152273
 20
64.701425
 42
-0.032011
  0
VERTEX
  8
0
 10
29.089997
 20
64.689373
 42
-0.031803
  0
VERTEX
  8
0
 10
29.026556
 20
64.685333
 42
0.052580
  0
VERTEX
  8
0
 10
28.967168
 20
64.679071
 42
0.072432
  0
VERTEX
  8
0
 10
28.916930
 20
64.660462
 42
0.092341
  0
VERTEX
  8
0
 10
28.883185
 20
64.632978
 42
0.177615
  0
VERTEX
  8
0
 10
28.871333
 20
64.600667
 42
-0.098337
  0
VERTEX
  8
0
 10
28.864916
 20
64.568354
 42
-0.097777
  0
VERTEX
  8
0
 10
28.846633
 20
64.540871
 42
-0.098108
  0
VERTEX
  8
0
 10
28.819337
 20
64.522466
 42
-0.099744
  0
VERTEX
  8
0
 10
28.787247
 20
64.516000
 42
0.096200
  0
VERTEX
  8
0
 10
28.637469
 20
64.486914
 42
0.013998
  0
VERTEX
  8
0
 10
28.351739
 20
64.362179
 42
0.008471
  0
VERTEX
  8
0
 10
28.063254
 20
64.220489
 42
0.281423
  0
VERTEX
  8
0
 10
28.024667
 20
64.157360
 42
-0.134200
  0
VERTEX
  8
0
 10
28.017924
 20
64.132690
 42
-0.100453
  0
VERTEX
  8
0
 10
27.998967
 20
64.111670
 42
-0.087231
  0
VERTEX
  8
0
 10
27.970610
 20
64.097526
 42
-0.072294
  0
VERTEX
  8
0
 10
27.937178
 20
64.092667
 42
0.185656
  0
VERTEX
  8
0
 10
27.819729
 20
64.047500
 42
0.012784
  0
VERTEX
  8
0
 10
27.557236
 20
63.798097
 42
0.012784
  0
VERTEX
  8
0
 10
27.307834
 20
63.535604
 42
0.185656
  0
VERTEX
  8
0
 10
27.262667
 20
63.418156
 42
-0.078119
  0
VERTEX
  8
0
 10
27.257413
 20
63.384734
 42
-0.090390
  0
VERTEX
  8
0
 10
27.242204
 20
63.356367
 42
-0.100781
  0
VERTEX
  8
0
 10
27.219574
 20
63.337402
 42
-0.124793
  0
VERTEX
  8
0
 10
27.193008
 20
63.330667
 42
0.232143
  0
VERTEX
  8
0
 10
27.156338
 20
63.312672
 42
0.014585
  0
VERTEX
  8
0
 10
27.083443
 20
63.212530
 42
0.019082
  0
VERTEX
  8
0
 10
27.001639
 20
63.082598
 42
0.012831
  0
VERTEX
  8
0
 10
26.917841
 20
62.928500
 42
0.045290
  0
VERTEX
  8
0
 10
26.800899
 20
62.637317
 42
0.041940
  0
VERTEX
  8
0
 10
26.734553
 20
62.322245
 42
0.019741
  0
VERTEX
  8
0
 10
26.693657
 20
61.837900
 42
0.002504
  0
VERTEX
  8
0
 10
26.652007
 20
60.790667
 42
-0.002181
  0
VERTEX
  8
0
 10
26.622614
 20
60.039403
 42
-0.001660
  0
VERTEX
  8
0
 10
26.584094
 20
59.216660
 42
-0.001678
  0
VERTEX
  8
0
 10
26.542829
 20
58.445526
 42
-0.003935
  0
VERTEX
  8
0
 10
26.505528
 20
57.869667
 42
0.000078
  0
VERTEX
  8
0
 10
26.464877
 20
57.309158
 42
0.000038
  0
VERTEX
  8
0
 10
26.413099
 20
56.592917
 42
0.000038
  0
VERTEX
  8
0
 10
26.359307
 20
55.847262
 42
0.000054
  0
VERTEX
  8
0
 10
26.311855
 20
55.187795
 42
-0.003665
  0
VERTEX
  8
0
 10
26.266055
 20
54.609649
 42
-0.005715
  0
VERTEX
  8
0
 10
26.217265
 20
54.112435
 42
-0.001960
  0
VERTEX
  8
0
 10
26.168770
 20
53.685728
 42
-0.170201
  0
VERTEX
  8
0
 10
26.140833
 20
53.628517
 42
0.170462
  0
VERTEX
  8
0
 10
26.115634
 20
53.576845
 42
0.008018
  0
VERTEX
  8
0
 10
26.095986
 20
53.381096
 42
0.012446
  0
VERTEX
  8
0
 10
26.081944
 20
53.143812
 42
0.008555
  0
VERTEX
  8
0
 10
26.077333
 20
52.874333
 42
-0.008555
  0
VERTEX
  8
0
 10
26.072722
 20
52.604843
 42
-0.012441
  0
VERTEX
  8
0
 10
26.058680
 20
52.367525
 42
-0.008021
  0
VERTEX
  8
0
 10
26.039032
 20
52.171746
 42
-0.170144
  0
VERTEX
  8
0
 10
26.013833
 20
52.119994
 42
0.164593
  0
VERTEX
  8
0
 10
25.985717
 20
52.063800
 42
0.002696
  0
VERTEX
  8
0
 10
25.938728
 20
51.710624
 42
0.006688
  0
VERTEX
  8
0
 10
25.891397
 20
51.295422
 42
0.004352
  0
VERTEX
  8
0
 10
25.847325
 20
50.814716
 42
-0.003091
  0
VERTEX
  8
0
 10
25.775920
 20
50.013657
 42
-0.006135
  0
VERTEX
  8
0
 10
25.707614
 20
49.379843
 42
-0.005755
  0
VERTEX
  8
0
 10
25.620917
 20
48.722509
 42
-0.002391
  0
VERTEX
  8
0
 10
25.489366
 20
47.836667
 42
0.002184
  0
VERTEX
  8
0
 10
25.449423
 20
47.568461
 42
0.000918
  0
VERTEX
  8
0
 10
25.397930
 20
47.207336
 42
0.000908
  0
VERTEX
  8
0
 10
25.344284
 20
46.821018
 42
0.001182
  0
VERTEX
  8
0
 10
25.296640
 20
46.467072
 42
-0.006171
  0
VERTEX
  8
0
 10
25.250533
 20
46.148608
 42
-0.009068
  0
VERTEX
  8
0
 10
25.201495
 20
45.870055
 42
-0.005062
  0
VERTEX
  8
0
 10
25.153831
 20
45.637924
 42
-0.145829
  0
VERTEX
  8
0
 10
25.124833
 20
45.585128
 42
0.146824
  0
VERTEX
  8
0
 10
25.100007
 20
45.539717
 42
0.017520
  0
VERTEX
  8
0
 10
25.079986
 20
45.425623
 42
0.019689
  0
VERTEX
  8
0
 10
25.065973
 20
45.284967
 42
0.014983
  0
VERTEX
  8
0
 10
25.061333
 20
45.130156
 42
-0.017833
  0
VERTEX
  8
0
 10
25.055764
 20
44.974064
 42
-0.022021
  0
VERTEX
  8
0
 10
25.039010
 20
44.829474
 42
-0.021089
  0
VERTEX
  8
0
 10
25.014903
 20
44.711501
 42
-0.129032
  0
VERTEX
  8
0
 10
24.985339
 20
44.657433
 42
0.098977
  0
VERTEX
  8
0
 10
24.953011
 20
44.605837
 42
0.019232
  0
VERTEX
  8
0
 10
24.917857
 20
44.501144
 42
0.019756
  0
VERTEX
  8
0
 10
24.885908
 20
44.373887
 42
0.017136
  0
VERTEX
  8
0
 10
24.862331
 20
44.238333
 42
-0.006578
  0
VERTEX
  8
0
 10
24.781886
 20
43.709975
 42
-0.008282
  0
VERTEX
  8
0
 10
24.692892
 20
43.223167
 42
-0.006780
  0
VERTEX
  8
0
 10
24.606249
 20
42.818526
 42
-0.063806
  0
VERTEX
  8
0
 10
24.545090
 20
42.651982
 42
0.044306
  0
VERTEX
  8
0
 10
24.515760
 20
42.580797
 42
0.022538
  0
VERTEX
  8
0
 10
24.491116
 20
42.487104
 42
0.022200
  0
VERTEX
  8
0
 10
24.474244
 20
42.387469
 42
0.030847
  0
VERTEX
  8
0
 10
24.468667
 20
42.297146
 42
-0.037432
  0
VERTEX
  8
0
 10
24.462415
 20
42.213760
 42
-0.041270
  0
VERTEX
  8
0
 10
24.443796
 20
42.135003
 42
-0.045300
  0
VERTEX
  8
0
 10
24.416557
 20
42.071498
 42
-0.131119
  0
VERTEX
  8
0
 10
24.384000
 20
42.037000
 42
0.133596
  0
VERTEX
  8
0
 10
24.351430
 20
42.002151
 42
0.044558
  0
VERTEX
  8
0
 10
24.324204
 20
41.937199
 42
0.040610
  0
VERTEX
  8
0
 10
24.305582
 20
41.856462
 42
0.036395
  0
VERTEX
  8
0
 10
24.299333
 20
41.770733
 42
-0.049194
  0
VERTEX
  8
0
 10
24.275678
 20
41.530882
 42
-0.006853
  0
VERTEX
  8
0
 10
24.171322
 20
41.042056
 42
-0.007930
  0
VERTEX
  8
0
 10
24.051826
 20
40.553523
 42
-0.031136
  0
VERTEX
  8
0
 10
23.954877
 20
40.259000
 42
0.012892
  0
VERTEX
  8
0
 10
23.923306
 20
40.173697
 42
0.004806
  0
VERTEX
  8
0
 10
23.883220
 20
40.052360
 42
0.004758
  0
VERTEX
  8
0
 10
23.842036
 20
39.919199
 42
0.005740
  0
VERTEX
  8
0
 10
23.805985
 20
39.793333
 42
-0.003768
  0
VERTEX
  8
0
 10
23.765361
 20
39.649355
 42
-0.001585
  0
VERTEX
  8
0
 10
23.708666
 20
39.456356
 42
-0.001568
  0
VERTEX
  8
0
 10
23.646759
 20
39.250421
 42
-0.002043
  0
VERTEX
  8
0
 10
23.588722
 20
39.062303
 42
0.010239
  0
VERTEX
  8
0
 10
23.536640
 20
38.883107
 42
0.010630
  0
VERTEX
  8
0
 10
23.492633
 20
38.704145
 42
0.010383
  0
VERTEX
  8
0
 10
23.461110
 20
38.547906
 42
0.044611
  0
VERTEX
  8
0
 10
23.452667
 20
38.453467
 42
-0.044366
  0
VERTEX
  8
0
 10
23.446399
 20
38.382972
 42
-0.045136
  0
VERTEX
  8
0
 10
23.427796
 20
38.315109
 42
-0.049226
  0
VERTEX
  8
0
 10
23.400492
 20
38.259461
 42
-0.116195
  0
VERTEX
  8
0
 10
23.368000
 20
38.227000
 42
0.111983
  0
VERTEX
  8
0
 10
23.335524
 20
38.195089
 42
0.050144
  0
VERTEX
  8
0
 10
23.308204
 20
38.141433
 42
0.046179
  0
VERTEX
  8
0
 10
23.289605
 20
38.076371
 42
0.046572
  0
VERTEX
  8
0
 10
23.283333
 20
38.009188
 42
-0.038817
  0
VERTEX
  8
0
 10
23.277576
 20
37.935137
 42
-0.023638
  0
VERTEX
  8
0
 10
23.259920
 20
37.849127
 42
-0.023619
  0
VERTEX
  8
0
 10
23.234177
 20
37.765000
 42
-0.038169
  0
VERTEX
  8
0
 10
23.203630
 20
37.696684
 42
0.035088
  0
VERTEX
  8
0
 10
23.164147
 20
37.609825
 42
0.006423
  0
VERTEX
  8
0
 10
23.104675
 20
37.443628
 42
0.006878
  0
VERTEX
  8
0
 10
23.040137
 20
37.246935
 42
0.006202
  0
VERTEX
  8
0
 10
22.978685
 20
37.041667
 42
-0.011601
  0
VERTEX
  8
0
 10
22.817580
 20
36.523940
 42
-0.441915
  0
VERTEX
  8
0
 10
22.717697
 20
36.480088
 42
-0.194133
  0
VERTEX
  8
0
 10
22.606696
 20
36.594842
 42
-0.004154
  0
VERTEX
  8
0
 10
22.312474
 20
37.338000
 42
0.003900
  0
VERTEX
  8
0
 10
22.250548
 20
37.494648
 42
0.003903
  0
VERTEX
  8
0
 10
22.186203
 20
37.650268
 42
0.003818
  0
VERTEX
  8
0
 10
22.127952
 20
37.785209
 42
0.015458
  0
VERTEX
  8
0
 10
22.089308
 20
37.866018
 42
-0.029946
  0
VERTEX
  8
0
 10
22.060212
 20
37.931682
 42
-0.021962
  0
VERTEX
  8
0
 10
22.035651
 20
38.007493
 42
-0.022331
  0
VERTEX
  8
0
 10
22.018715
 20
38.081579
 42
-0.045052
  0
VERTEX
  8
0
 10
22.013333
 20
38.141184
 42
0.050303
  0
VERTEX
  8
0
 10
22.008387
 20
38.190221
 42
0.070276
  0
VERTEX
  8
0
 10
21.993655
 20
38.231690
 42
0.090407
  0
VERTEX
  8
0
 10
21.971916
 20
38.259584
 42
0.184157
  0
VERTEX
  8
0
 10
21.946343
 20
38.269333
 42
-0.299827
  0
VERTEX
  8
0
 10
21.913805
 20
38.290772
 42
-0.009388
  0
VERTEX
  8
0
 10
21.850766
 20
38.445525
 42
-0.015440
  0
VERTEX
  8
0
 10
21.782863
 20
38.639223
 42
-0.009730
  0
VERTEX
  8
0
 10
21.715045
 20
38.869136
 42
0.007804
  0
VERTEX
  8
0
 10
21.647369
 20
39.101869
 42
0.011376
  0
VERTEX
  8
0
 10
21.579899
 20
39.304554
 42
0.007045
  0
VERTEX
  8
0
 10
21.517685
 20
39.470754
 42
0.162649
  0
VERTEX
  8
0
 10
21.485702
 20
39.509133
 42
-0.133597
  0
VERTEX
  8
0
 10
21.460684
 20
39.535902
 42
-0.044558
  0
VERTEX
  8
0
 10
21.439771
 20
39.585794
 42
-0.040610
  0
VERTEX
  8
0
 10
21.425466
 20
39.647811
 42
-0.036394
  0
VERTEX
  8
0
 10
21.420667
 20
39.713663
 42
0.049547
  0
VERTEX
  8
0
 10
21.414420
 20
39.776551
 42
0.069539
  0
VERTEX
  8
0
 10
21.395796
 20
39.829726
 42
0.089706
  0
VERTEX
  8
0
 10
21.368325
 20
39.865515
 42
0.186414
  0
VERTEX
  8
0
 10
21.336000
 20
39.878000
 42
-0.144932
  0
VERTEX
  8
0
 10
21.303713
 20
39.887560
 42
-0.099362
  0
VERTEX
  8
0
 10
21.276204
 20
39.914437
 42
-0.083549
  0
VERTEX
  8
0
 10
21.257665
 20
39.954624
 42
-0.066475
  0
VERTEX
  8
0
 10
21.251333
 20
40.002041
 42
0.066877
  0
VERTEX
  8
0
 10
21.232924
 20
40.139061
 42
0.006110
  0
VERTEX
  8
0
 10
21.137869
 20
40.470462
 42
0.008671
  0
VERTEX
  8
0
 10
21.026651
 20
40.818993
 42
0.014760
  0
VERTEX
  8
0
 10
20.920134
 20
41.105667
 42
-0.016388
  0
VERTEX
  8
0
 10
20.831606
 20
41.346323
 42
-0.010445
  0
VERTEX
  8
0
 10
20.743778
 20
41.631425
 42
-0.010381
  0
VERTEX
  8
0
 10
20.666946
 20
41.923548
 42
-0.014791
  0
VERTEX
  8
0
 10
20.611850
 20
42.186102
 42
0.018763
  0
VERTEX
  8
0
 10
20.584510
 20
42.311427
 42
0.023787
  0
VERTEX
  8
0
 10
20.549510
 20
42.424625
 42
0.022882
  0
VERTEX
  8
0
 10
20.512245
 20
42.514465
 42
0.145584
  0
VERTEX
  8
0
 10
20.479735
 20
42.550932
 42
-0.133619
  0
VERTEX
  8
0
 10
20.450857
 20
42.581834
 42
-0.044552
  0
VERTEX
  8
0
 10
20.426718
 20
42.639433
 42
-0.040604
  0
VERTEX
  8
0
 10
20.410207
 20
42.711034
 42
-0.036385
  0
VERTEX
  8
0
 10
20.404667
 20
42.787063
 42
0.031577
  0
VERTEX
  8
0
 10
20.399702
 20
42.865605
 42
0.029548
  0
VERTEX
  8
0
 10
20.384873
 20
42.944692
 42
0.030849
  0
VERTEX
  8
0
 10
20.363207
 20
43.013248
 42
0.082576
  0
VERTEX
  8
0
 10
20.337284
 20
43.057233
 42
-0.085054
  0
VERTEX
  8
0
 10
20.263639
 20
43.183608
 42
-0.014443
  0
VERTEX
  8
0
 10
20.173177
 20
43.448533
 42
-0.015983
  0
VERTEX
  8
0
 10
20.087961
 20
43.758605
 42
-0.016701
  0
VERTEX
  8
0
 10
20.024121
 20
44.069000
 42
0.013571
  0
VERTEX
  8
0
 10
19.997063
 20
44.204866
 42
0.015520
  0
VERTEX
  8
0
 10
19.963680
 20
44.333054
 42
0.014765
  0
VERTEX
  8
0
 10
19.928972
 20
44.439450
 42
0.080322
  0
VERTEX
  8
0
 10
19.899727
 20
44.492333
 42
-0.069670
  0
VERTEX
  8
0
 10
19.871252
 20
44.541344
 42
-0.018353
  0
VERTEX
  8
0
 10
19.840029
 20
44.626742
 42
-0.018267
  0
VERTEX
  8
0
 10
19.811337
 20
44.727550
 42
-0.017828
  0
VERTEX
  8
0
 10
19.789816
 20
44.831000
 42
0.014401
  0
VERTEX
  8
0
 10
19.763439
 20
44.962297
 42
0.004378
  0
VERTEX
  8
0
 10
19.716028
 20
45.159613
 42
0.004380
  0
VERTEX
  8
0
 10
19.659003
 20
45.379880
 42
0.004765
  0
VERTEX
  8
0
 10
19.599649
 20
45.593000
 42
-0.003657
  0
VERTEX
  8
0
 10
19.540659
 20
45.803013
 42
-0.003653
  0
VERTEX
  8
0
 10
19.484722
 20
46.013952
 42
-0.003575
  0
VERTEX
  8
0
 10
19.438544
 20
46.198840
 42
-0.014406
  0
VERTEX
  8
0
 10
19.414426
 20
46.312667
 42
0.015346
  0
VERTEX
  8
0
 10
19.394456
 20
46.406049
 42
0.010184
  0
VERTEX
  8
0
 10
19.366101
 20
46.511898
 42
0.010255
  0
VERTEX
  8
0
 10
19.334334
 20
46.613651
 42
0.019621
  0
VERTEX
  8
0
 10
19.304000
 20
46.693667
 42
-0.019682
  0
VERTEX
  8
0
 10
19.272637
 20
46.776428
 42
-0.008720
  0
VERTEX
  8
0
 10
19.237498
 20
46.887871
 42
-0.008615
  0
VERTEX
  8
0
 10
19.204329
 20
47.007362
 42
-0.011492
  0
VERTEX
  8
0
 10
19.178594
 20
47.117000
 42
0.002849
  0
VERTEX
  8
0
 10
19.150139
 20
47.248390
 42
0.000884
  0
VERTEX
  8
0
 10
19.105883
 20
47.445613
 42
0.000884
  0
VERTEX
  8
0
 10
19.055636
 20
47.665881
 42
0.000973
  0
VERTEX
  8
0
 10
19.006187
 20
47.879000
 42
-0.001215
  0
VERTEX
  8
0
 10
18.956846
 20
48.092119
 42
-0.001104
  0
VERTEX
  8
0
 10
18.906925
 20
48.312387
 42
-0.001104
  0
VERTEX
  8
0
 10
18.863142
 20
48.509616
 42
-0.003564
  0
VERTEX
  8
0
 10
18.835260
 20
48.641000
 42
0.011832
  0
VERTEX
  8
0
 10
18.810091
 20
48.750638
 42
0.008867
  0
VERTEX
  8
0
 10
18.777400
 20
48.870129
 42
0.008976
  0
VERTEX
  8
0
 10
18.742594
 20
48.981569
 42
0.020231
  0
VERTEX
  8
0
 10
18.711333
 20
49.064333
 42
-0.019682
  0
VERTEX
  8
0
 10
18.679970
 20
49.147095
 42
-0.008720
  0
VERTEX
  8
0
 10
18.644832
 20
49.258538
 42
-0.008615
  0
VERTEX
  8
0
 10
18.611663
 20
49.378029
 42
-0.011492
  0
VERTEX
  8
0
 10
18.585927
 20
49.487667
 42
0.002849
  0
VERTEX
  8
0
 10
18.557472
 20
49.619057
 42
0.000884
  0
VERTEX
  8
0
 10
18.513216
 20
49.816279
 42
0.000884
  0
VERTEX
  8
0
 10
18.462969
 20
50.036548
 42
0.000973
  0
VERTEX
  8
0
 10
18.413520
 20
50.249667
 42
-0.001215
  0
VERTEX
  8
0
 10
18.364179
 20
50.462786
 42
-0.001104
  0
VERTEX
  8
0
 10
18.314259
 20
50.683054
 42
-0.001104
  0
VERTEX
  8
0
 10
18.270475
 20
50.880282
 42
-0.003564
  0
VERTEX
  8
0
 10
18.242593
 20
51.011667
 42
0.012188
  0
VERTEX
  8
0
 10
18.217342
 20
51.121305
 42
0.009124
  0
VERTEX
  8
0
 10
18.184402
 20
51.240796
 42
0.009236
  0
VERTEX
  8
0
 10
18.149234
 20
51.352231
 42
0.020764
  0
VERTEX
  8
0
 10
18.117539
 20
51.435000
 42
-0.029005
  0
VERTEX
  8
0
 10
18.086429
 20
51.520433
 42
-0.011306
  0
VERTEX
  8
0
 10
18.053063
 20
51.641640
 42
-0.011148
  0
VERTEX
  8
0
 10
18.022765
 20
51.774801
 42
-0.013597
  0
VERTEX
  8
0
 10
18.000611
 20
51.900667
 42
0.008734
  0
VERTEX
  8
0
 10
17.974790
 20
52.056206
 42
0.002497
  0
VERTEX
  8
0
 10
17.929335
 20
52.296483
 42
0.002513
  0
VERTEX
  8
0
 10
17.875317
 20
52.567153
 42
0.002665
  0
VERTEX
  8
0
 10
17.819602
 20
52.832000
 42
-0.003027
  0
VERTEX
  8
0
 10
17.764089
 20
53.096847
 42
-0.002857
  0
VERTEX
  8
0
 10
17.710672
 20
53.367517
 42
-0.002839
  0
VERTEX
  8
0
 10
17.666089
 20
53.607801
 42
-0.009943
  0
VERTEX
  8
0
 10
17.641325
 20
53.763333
 42
0.012977
  0
VERTEX
  8
0
 10
17.620501
 20
53.889199
 42
0.010671
  0
VERTEX
  8
0
 10
17.591944
 20
54.022360
 42
0.010819
  0
VERTEX
  8
0
 10
17.560442
 20
54.143588
 42
0.027965
  0
VERTEX
  8
0
 10
17.531015
 20
54.229000
 42
-0.037667
  0
VERTEX
  8
0
 10
17.498157
 20
54.330733
 42
-0.005986
  0
VERTEX
  8
0
 10
17.451348
 20
54.535123
 42
-0.006605
  0
VERTEX
  8
0
 10
17.402165
 20
54.777802
 42
-0.005738
  0
VERTEX
  8
0
 10
17.356914
 20
55.033333
 42
0.002124
  0
VERTEX
  8
0
 10
17.310935
 20
55.304369
 42
0.001739
  0
VERTEX
  8
0
 10
17.259546
 20
55.593721
 42
0.001756
  0
VERTEX
  8
0
 10
17.210428
 20
55.859479
 42
0.004633
  0
VERTEX
  8
0
 10
17.172824
 20
56.049333
 42
-0.002373
  0
VERTEX
  8
0
 10
17.137069
 20
56.225670
 42
-0.001287
  0
VERTEX
  8
0
 10
17.094700
 20
56.442769
 42
-0.001282
  0
VERTEX
  8
0
 10
17.052723
 20
56.663897
 42
-0.002029
  0
VERTEX
  8
0
 10
17.018000
 20
56.853667
 42
0.001518
  0
VERTEX
  8
0
 10
16.982942
 20
57.046376
 42
0.000888
  0
VERTEX
  8
0
 10
16.939840
 20
57.277000
 42
0.000888
  0
VERTEX
  8
0
 10
16.895891
 20
57.507615
 42
0.001510
  0
VERTEX
  8
0
 10
16.858205
 20
57.700333
 42
-0.013498
  0
VERTEX
  8
0
 10
16.825598
 20
57.891270
 42
-0.008477
  0
VERTEX
  8
0
 10
16.797319
 20
58.115981
 42
-0.008508
  0
VERTEX
  8
0
 10
16.776987
 20
58.338248
 42
-0.015376
  0
VERTEX
  8
0
 10
16.769047
 20
58.520837
 42
0.019659
  0
VERTEX
  8
0
 10
16.760928
 20
58.676762
 42
0.026422
  0
VERTEX
  8
0
 10
16.740612
 20
58.816709
 42
0.025547
  0
VERTEX
  8
0
 10
16.712595
 20
58.927316
 42
0.181468
  0
VERTEX
  8
0
 10
16.679333
 20
58.970333
 42
-0.184643
  0
VERTEX
  8
0
 10
16.646354
 20
59.013532
 42
-0.025604
  0
VERTEX
  8
0
 10
16.619537
 20
59.125201
 42
-0.026510
  0
VERTEX
  8
0
 10
16.600851
 20
59.266515
 42
-0.019619
  0
VERTEX
  8
0
 10
16.594667
 20
59.424063
 42
0.017858
  0
VERTEX
  8
0
 10
16.588965
 20
59.583646
 42
0.022177
  0
VERTEX
  8
0
 10
16.571808
 20
59.731182
 42
0.021204
  0
VERTEX
  8
0
 10
16.547129
 20
59.851372
 42
0.131740
  0
VERTEX
  8
0
 10
16.516850
 20
59.905900
 42
-0.133310
  0
VERTEX
  8
0
 10
16.484291
 20
59.964965
 42
-0.013269
  0
VERTEX
  8
0
 10
16.449946
 20
60.124366
 42
-0.015960
  0
VERTEX
  8
0
 10
16.419622
 20
60.320024
 42
-0.012021
  0
VERTEX
  8
0
 10
16.398366
 20
60.536667
 42
0.014429
  0
VERTEX
  8
0
 10
16.346447
 20
61.040825
 42
0.012659
  0
VERTEX
  8
0
 10
16.263771
 20
61.563790
 42
0.006629
  0
VERTEX
  8
0
 10
16.169905
 20
62.038119
 42
0.183298
  0
VERTEX
  8
0
 10
16.102583
 20
62.142876
 42
-0.094131
  0
VERTEX
  8
0
 10
16.069629
 20
62.178530
 42
-0.006725
  0
VERTEX
  8
0
 10
15.999373
 20
62.294443
 42
-0.009271
  0
VERTEX
  8
0
 10
15.919480
 20
62.436301
 42
-0.006862
  0
VERTEX
  8
0
 10
15.836234
 20
62.595950
 42
0.058531
  0
VERTEX
  8
0
 10
15.596519
 20
62.958779
 42
0.020529
  0
VERTEX
  8
0
 10
15.173751
 20
63.420087
 42
0.014699
  0
VERTEX
  8
0
 10
14.728447
 20
63.842072
 42
0.184326
  0
VERTEX
  8
0
 10
14.515507
 20
63.923333
 42
-0.067540
  0
VERTEX
  8
0
 10
14.468807
 20
63.929670
 42
-0.084264
  0
VERTEX
  8
0
 10
14.429222
 20
63.948204
 42
-0.099627
  0
VERTEX
  8
0
 10
14.402750
 20
63.975713
 42
-0.142856
  0
VERTEX
  8
0
 10
14.393333
 20
64.008000
 42
0.191087
  0
VERTEX
  8
0
 10
14.380508
 20
64.040333
 42
0.088204
  0
VERTEX
  8
0
 10
14.343592
 20
64.067796
 42
0.068025
  0
VERTEX
  8
0
 10
14.288805
 20
64.086427
 42
0.048028
  0
VERTEX
  8
0
 10
14.224000
 20
64.092667
 42
-0.038087
  0
VERTEX
  8
0
 10
14.159155
 20
64.097613
 42
-0.057023
  0
VERTEX
  8
0
 10
14.104408
 20
64.112541
 42
-0.074919
  0
VERTEX
  8
0
 10
14.067048
 20
64.134416
 42
-0.226655
  0
VERTEX
  8
0
 10
14.054667
 20
64.160325
 42
0.309800
  0
VERTEX
  8
0
 10
13.992296
 20
64.251327
 42
0.019591
  0
VERTEX
  8
0
 10
13.669170
 20
64.361980
 42
0.024081
  0
VERTEX
  8
0
 10
13.255512
 20
64.464349
 42
0.017208
  0
VERTEX
  8
0
 10
12.784667
 20
64.540349
 42
0.024500
  0
VERTEX
  8
0
 10
11.837609
 20
64.613063
 42
0.003396
  0
VERTEX
  8
0
 10
9.865814
 20
64.654175
 42
0.000807
  0
VERTEX
  8
0
 10
7.700243
 20
64.681121
 42
0.171268
  0
VERTEX
  8
0
 10
7.504917
 20
64.614562
 42
-0.112489
  0
VERTEX
  8
0
 10
7.436286
 20
64.581947
 42
-0.010331
  0
VERTEX
  8
0
 10
7.250173
 20
64.544428
 42
-0.012929
  0
VERTEX
  8
0
 10
7.023582
 20
64.509622
 42
-0.009779
  0
VERTEX
  8
0
 10
6.773333
 20
64.482744
 42
0.018072
  0
VERTEX
  8
0
 10
6.339620
 20
64.428870
 42
0.021466
  0
VERTEX
  8
0
 10
5.935438
 20
64.345824
 42
0.020823
  0
VERTEX
  8
0
 10
5.605050
 20
64.248234
 42
0.114635
  0
VERTEX
  8
0
 10
5.448470
 20
64.150692
 42
-0.109048
  0
VERTEX
  8
0
 10
5.413396
 20
64.128302
 42
-0.030853
  0
VERTEX
  8
0
 10
5.350925
 20
64.109712
 42
-0.029522
  0
VERTEX
  8
0
 10
5.275857
 20
64.096940
 42
-0.027381
  0
VERTEX
  8
0
 10
5.197886
 20
64.092667
 42
0.036901
  0
VERTEX
  8
0
 10
5.120675
 20
64.086961
 42
0.040935
  0
VERTEX
  8
0
 10
5.047857
 20
64.069960
 42
0.044926
  0
VERTEX
  8
0
 10
4.989212
 20
64.045097
 42
0.132379
  0
VERTEX
  8
0
 10
4.957553
 20
64.015367
 42
-0.149132
  0
VERTEX
  8
0
 10
4.919596
 20
63.981999
 42
-0.022479
  0
VERTEX
  8
0
 10
4.824460
 20
63.943989
 42
-0.023555
  0
VERTEX
  8
0
 10
4.704562
 20
63.908463
 42
-0.018398
  0
VERTEX
  8
0
 10
4.571556
 20
63.880925
 42
0.020860
  0
VERTEX
  8
0
 10
4.441960
 20
63.853427
 42
0.031850
  0
VERTEX
  8
0
 10
4.332686
 20
63.817883
 42
0.033009
  0
VERTEX
  8
0
 10
4.252891
 20
63.779912
 42
0.271558
  0
VERTEX
  8
0
 10
4.233333
 20
63.746558
 42
-0.161345
  0
VERTEX
  8
0
 10
4.223574
 20
63.717102
 42
-0.096447
  0
VERTEX
  8
0
 10
4.196027
 20
63.692018
 42
-0.077911
  0
VERTEX
  8
0
 10
4.154904
 20
63.675075
 42
-0.058897
  0
VERTEX
  8
0
 10
4.106333
 20
63.669333
 42
0.048420
  0
VERTEX
  8
0
 10
4.057731
 20
63.664616
 42
0.068420
  0
VERTEX
  8
0
 10
4.016640
 20
63.650534
 42
0.088604
  0
VERTEX
  8
0
 10
3.988960
 20
63.629773
 42
0.189864
  0
VERTEX
  8
0
 10
3.979333
 20
63.605335
 42
-0.215555
  0
VERTEX
  8
0
 10
3.965239
 20
63.574161
 42
-0.027773
  0
VERTEX
  8
0
 10
3.906192
 20
63.527760
 42
-0.028382
  0
VERTEX
  8
0
 10
3.825714
 20
63.478002
 42
-0.020075
  0
VERTEX
  8
0
 10
3.730340
 20
63.431121
 42
0.069626
  0
VERTEX
  8
0
 10
3.472040
 20
63.270706
 42
0.023799
  0
VERTEX
  8
0
 10
3.146340
 20
62.971898
 42
0.023900
  0
VERTEX
  8
0
 10
2.849664
 20
62.642415
 42
0.066746
  0
VERTEX
  8
0
 10
2.686937
 20
62.378167
 42
-0.016926
  0
VERTEX
  8
0
 10
2.643571
 20
62.288967
 42
-0.024601
  0
VERTEX
  8
0
 10
2.598923
 20
62.213728
 42
-0.022138
  0
VERTEX
  8
0
 10
2.557977
 20
62.157454
 42
-0.228219
  0
VERTEX
  8
0
 10
2.532805
 20
62.145333
 42
0.348006
  0
VERTEX
  8
0
 10
2.474816
 20
62.099411
 42
0.004971
  0
VERTEX
  8
0
 10
2.371218
 20
61.638869
 42
0.012083
  0
VERTEX
  8
0
 10
2.271802
 20
61.113898
 42
0.010064
  0
VERTEX
  8
0
 10
2.190939
 20
60.551745
 42
-0.002077
  0
VERTEX
  8
0
 10
2.154073
 20
60.262772
 42
-0.001372
  0
VERTEX
  8
0
 10
2.109414
 20
59.930967
 42
-0.001380
  0
VERTEX
  8
0
 10
2.064222
 20
59.608628
 42
-0.002677
  0
VERTEX
  8
0
 10
2.026017
 20
59.351333
 42
0.008688
  0
VERTEX
  8
0
 10
1.925902
 20
58.616370
 42
0.002988
  0
VERTEX
  8
0
 10
1.805910
 20
57.549824
 42
0.002978
  0
VERTEX
  8
0
 10
1.698828
 20
56.483655
 42
0.008908
  0
VERTEX
  8
0
 10
1.642951
 20
55.753000
 42
-0.009334
  0
VERTEX
  8
0
 10
1.621937
 20
55.481259
 42
-0.010981
  0
VERTEX
  8
0
 10
1.591595
 20
55.224892
 42
-0.009957
  0
VERTEX
  8
0
 10
1.557028
 20
55.010266
 42
-0.064851
  0
VERTEX
  8
0
 10
1.523837
 20
54.906333
 42
0.084172
  0
VERTEX
  8
0
 10
1.460090
 20
54.676617
 42
0.008222
  0
VERTEX
  8
0
 10
1.410276
 20
54.100833
 42
0.005687
  0
VERTEX
  8
0
 10
1.354757
 20
53.152622
 42
0.000873
  0
VERTEX
  8
0
 10
1.269094
 20
51.265667
 42
-0.003227
  0
VERTEX
  8
0
 10
1.229135
 20
50.468335
 42
-0.004473
  0
VERTEX
  8
0
 10
1.182308
 20
49.754188
 42
-0.002824
  0
VERTEX
  8
0
 10
1.134248
 20
49.155249
 42
-0.055176
  0
VERTEX
  8
0
 10
1.098200
 20
48.973656
 42
0.060631
  0
VERTEX
  8
0
 10
1.065792
 20
48.800559
 42
0.004737
  0
VERTEX
  8
0
 10
1.040146
 20
48.330434
 42
0.006404
  0
VERTEX
  8
0
 10
1.021999
 20
47.767286
 42
0.004852
  0
VERTEX
  8
0
 10
1.016000
 20
47.149089
 42
-0.004395
  0
VERTEX
  8
0
 10
1.010340
 20
46.505122
 42
-0.008536
  0
VERTEX
  8
0
 10
0.992522
 20
45.991102
 42
-0.004535
  0
VERTEX
  8
0
 10
0.967508
 20
45.580134
 42
-0.180817
  0
VERTEX
  8
0
 10
0.930585
 20
45.499119
 42
0.199821
  0
VERTEX
  8
0
 10
0.851214
 20
45.306547
 42
0.000055
  0
VERTEX
  8
0
 10
0.883793
 20
36.276855
 42
0.000877
  0
VERTEX
  8
0
 10
0.927395
 20
28.309501
 42
0.007826
  0
VERTEX
  8
0
 10
1.007533
 20
24.807333
 42
-0.000190
  0
VERTEX
  8
0
 10
1.045817
 20
23.804341
 42
-0.000101
  0
VERTEX
  8
0
 10
1.092541
 20
22.561285
 42
-0.000100
  0
VERTEX
  8
0
 10
1.139812
 20
21.290125
 42
-0.000155
  0
VERTEX
  8
0
 10
1.180049
 20
20.193000
 42
0.002856
  0
VERTEX
  8
0
 10
1.220434
 20
19.233408
 42
0.004081
  0
VERTEX
  8
0
 10
1.268076
 20
18.382543
 42
0.002271
  0
VERTEX
  8
0
 10
1.317399
 20
17.665090
 42
0.060768
  0
VERTEX
  8
0
 10
1.354335
 20
17.477656
 42
-0.051407
  0
VERTEX
  8
0
 10
1.387400
 20
17.324945
 42
-0.009137
  0
VERTEX
  8
0
 10
1.414365
 20
17.033401
 42
-0.009797
  0
VERTEX
  8
0
 10
1.433097
 20
16.689163
 42
-0.008692
  0
VERTEX
  8
0
 10
1.439333
 20
16.330422
 42
0.008316
  0
VERTEX
  8
0
 10
1.445085
 20
15.984646
 42
0.012102
  0
VERTEX
  8
0
 10
1.462599
 20
15.680194
 42
0.007704
  0
VERTEX
  8
0
 10
1.487092
 20
15.428687
 42
0.167853
  0
VERTEX
  8
0
 10
1.518537
 20
15.362767
 42
-0.155054
  0
VERTEX
  8
0
 10
1.551656
 20
15.297574
 42
-0.007726
  0
VERTEX
  8
0
 10
1.587222
 20
15.057252
 42
-0.011836
  0
VERTEX
  8
0
 10
1.618755
 20
14.765890
 42
-0.008232
  0
VERTEX
  8
0
 10
1.641136
 20
14.435667
 42
0.004029
  0
VERTEX
  8
0
 10
1.717820
 20
13.143312
 42
0.004092
  0
VERTEX
  8
0
 10
1.814978
 20
11.859019
 42
0.000819
  0
VERTEX
  8
0
 10
1.919455
 20
10.637580
 42
0.177958
  0
VERTEX
  8
0
 10
1.968500
 20
10.533183
 42
-0.166484
  0
VERTEX
  8
0
 10
1.993623
 20
10.482665
 42
-0.009561
  0
VERTEX
  8
0
 10
2.013347
 20
10.307956
 42
-0.013730
  0
VERTEX
  8
0
 10
2.027384
 20
10.095069
 42
-0.009596
  0
VERTEX
  8
0
 10
2.032000
 20
9.854552
 42
0.010916
  0
VERTEX
  8
0
 10
2.037224
 20
9.615328
 42
0.016240
  0
VERTEX
  8
0
 10
2.053154
 20
9.406505
 42
0.011306
  0
VERTEX
  8
0
 10
2.075508
 20
9.237143
 42
0.219262
  0
VERTEX
  8
0
 10
2.104014
 20
9.194153
 42
-0.217017
  0
VERTEX
  8
0
 10
2.134598
 20
9.148457
 42
-0.005913
  0
VERTEX
  8
0
 10
2.171534
 20
8.905029
 42
-0.011218
  0
VERTEX
  8
0
 10
2.205797
 20
8.611821
 42
-0.007332
  0
VERTEX
  8
0
 10
2.232744
 20
8.272400
 42
0.006571
  0
VERTEX
  8
0
 10
2.260545
 20
7.915341
 42
0.007078
  0
VERTEX
  8
0
 10
2.297162
 20
7.567897
 42
0.006734
  0
VERTEX
  8
0
 10
2.336795
 20
7.270816
 42
0.033314
  0
VERTEX
  8
0
 10
2.372396
 20
7.105969
 42
-0.026429
  0
VERTEX
  8
0
 10
2.404246
 20
6.967738
 42
-0.012838
  0
VERTEX
  8
0
 10
2.430971
 20
6.788406
 42
-0.012694
  0
VERTEX
  8
0
 10
2.449296
 20
6.599830
 42
-0.017873
  0
VERTEX
  8
0
 10
2.455333
 20
6.430992
 42
0.018419
  0
VERTEX
  8
0
 10
2.460994
 20
6.277389
 42
0.022620
  0
VERTEX
  8
0
 10
2.478016
 20
6.134899
 42
0.021854
  0
VERTEX
  8
0
 10
2.502529
 20
6.018658
 42
0.129077
  0
VERTEX
  8
0
 10
2.532550
 20
5.964767
 42
-0.121762
  0
VERTEX
  8
0
 10
2.565091
 20
5.908284
 42
-0.015476
  0
VERTEX
  8
0
 10
2.600012
 20
5.771171
 42
-0.017393
  0
VERTEX
  8
0
 10
2.631275
 20
5.602867
 42
-0.013663
  0
VERTEX
  8
0
 10
2.653775
 20
5.418667
 42
0.008566
  0
VERTEX
  8
0
 10
2.716501
 20
4.857706
 42
0.011906
  0
VERTEX
  8
0
 10
2.793198
 20
4.358016
 42
0.011824
  0
VERTEX
  8
0
 10
2.875113
 20
3.953415
 42
0.063145
  0
VERTEX
  8
0
 10
2.952123
 20
3.742135
 42
-0.002910
  0
VERTEX
  8
0
 10
3.103990
 20
3.443038
 42
-0.019243
  0
VERTEX
  8
0
 10
3.173183
 20
3.290368
 42
-0.039122
  0
VERTEX
  8
0
 10
3.206330
 20
3.186474
 42
-0.057723
  0
VERTEX
  8
0
 10
3.217333
 20
3.091482
 42
0.064244
  0
VERTEX
  8
0
 10
3.223654
 20
3.042488
 42
0.081991
  0
VERTEX
  8
0
 10
3.242204
 20
3.000977
 42
0.098698
  0
VERTEX
  8
0
 10
3.269712
 20
2.973205
 42
0.149454
  0
VERTEX
  8
0
 10
3.302000
 20
2.963333
 42
-0.111642
  0
VERTEX
  8
0
 10
3.334299
 20
2.956031
 42
-0.100091
  0
VERTEX
  8
0
 10
3.361796
 20
2.935376
 42
-0.094545
  0
VERTEX
  8
0
 10
3.380242
 20
2.904499
 42
-0.087719
  0
VERTEX
  8
0
 10
3.386667
 20
2.868159
 42
0.202208
  0
VERTEX
  8
0
 10
3.471619
 20
2.666687
 42
0.007435
  0
VERTEX
  8
0
 10
4.085812
 20
2.085428
 42
0.009859
  0
VERTEX
  8
0
 10
4.706393
 20
1.537535
 42
0.122444
  0
VERTEX
  8
0
 10
4.985989
 20
1.399052
 42
-0.022603
  0
VERTEX
  8
0
 10
5.089603
 20
1.371333
 42
-0.026507
  0
VERTEX
  8
0
 10
5.184793
 20
1.335547
 42
-0.026906
  0
VERTEX
  8
0
 10
5.260697
 20
1.297333
 42
-0.124898
  0
VERTEX
  8
0
 10
5.295692
 20
1.263486
 42
0.172862
  0
VERTEX
  8
0
 10
5.333591
 20
1.233159
 42
0.030416
  0
VERTEX
  8
0
 10
5.422846
 20
1.208291
 42
0.029830
  0
VERTEX
  8
0
 10
5.535915
 20
1.191055
 42
0.022910
  0
VERTEX
  8
0
 10
5.660730
 20
1.185333
 42
-0.022785
  0
VERTEX
  8
0
 10
5.787885
 20
1.179536
 42
-0.026242
  0
VERTEX
  8
0
 10
5.908053
 20
1.162160
 42
-0.026702
  0
VERTEX
  8
0
 10
6.006871
 20
1.136984
 42
-0.118763
  0
VERTEX
  8
0
 10
6.057900
 20
1.106446
 42
0.191954
  0
VERTEX
  8
0
 10
6.447518
 20
0.943371
 42
0.004330
  0
VERTEX
  8
0
 10
8.507689
 20
0.925979
 42
0.004359
  0
VERTEX
  8
0
 10
10.566872
 20
0.944379
 42
0.190042
  0
VERTEX
  8
0
 10
10.960100
 20
1.107517
 42
-0.118103
  0
VERTEX
  8
0
 10
11.011083
 20
1.137646
 42
-0.026294
  0
VERTEX
  8
0
 10
11.109947
 20
1.162475
 42
-0.025904
  0
VERTEX
  8
0
 10
11.230115
 20
1.179615
 42
-0.022475
  0
VERTEX
  8
0
 10
11.357270
 20
1.185333
 42
0.022663
  0
VERTEX
  8
0
 10
11.482048
 20
1.190992
 42
0.029591
  0
VERTEX
  8
0
 10
11.594999
 20
1.208040
 42
0.030073
  0
VERTEX
  8
0
 10
11.684158
 20
1.232629
 42
0.173716
  0
VERTEX
  8
0
 10
11.721780
 20
1.262633
 42
-0.154756
  0
VERTEX
  8
0
 10
11.760510
 20
1.295932
 42
-0.021394
  0
VERTEX
  8
0
 10
11.861091
 20
1.333824
 42
-0.022851
  0
VERTEX
  8
0
 10
11.987827
 20
1.369147
 42
-0.017544
  0
VERTEX
  8
0
 10
12.128944
 20
1.396438
 42
0.019373
  0
VERTEX
  8
0
 10
12.459060
 20
1.461533
 42
0.024713
  0
VERTEX
  8
0
 10
12.756888
 20
1.548094
 42
0.019833
  0
VERTEX
  8
0
 10
12.992662
 20
1.640064
 42
0.298198
  0
VERTEX
  8
0
 10
13.038667
 20
1.710342
 42
-0.257692
  0
VERTEX
  8
0
 10
13.053025
 20
1.736351
 42
-0.061478
  0
VERTEX
  8
0
 10
13.099376
 20
1.758125
 42
-0.048093
  0
VERTEX
  8
0
 10
13.166162
 20
1.773079
 42
-0.031049
  0
VERTEX
  8
0
 10
13.245337
 20
1.778000
 42
0.034823
  0
VERTEX
  8
0
 10
13.327989
 20
1.783763
 42
0.039568
  0
VERTEX
  8
0
 10
13.405486
 20
1.800957
 42
0.043350
  0
VERTEX
  8
0
 10
13.467622
 20
1.826069
 42
0.137483
  0
VERTEX
  8
0
 10
13.500308
 20
1.856153
 42
-0.122871
  0
VERTEX
  8
0
 10
13.534922
 20
1.889899
 42
-0.027635
  0
VERTEX
  8
0
 10
13.608747
 20
1.927673
 42
-0.027053
  0
VERTEX
  8
0
 10
13.701231
 20
1.962863
 42
-0.023326
  0
VERTEX
  8
0
 10
13.801638
 20
1.989880
 42
0.022785
  0
VERTEX
  8
0
 10
13.898573
 20
2.015850
 42
0.033829
  0
VERTEX
  8
0
 10
13.980339
 20
2.048032
 42
0.036080
  0
VERTEX
  8
0
 10
14.039491
 20
2.081487
 42
0.251071
  0
VERTEX
  8
0
 10
14.054667
 20
2.109804
 42
-0.196686
  0
VERTEX
  8
0
 10
14.067216
 20
2.140472
 42
-0.034505
  0
VERTEX
  8
0
 10
14.114849
 20
2.182671
 42
-0.032869
  0
VERTEX
  8
0
 10
14.181087
 20
2.227049
 42
-0.024267
  0
VERTEX
  8
0
 10
14.259542
 20
2.267500
 42
0.075754
  0
VERTEX
  8
0
 10
14.595054
 20
2.486716
 42
0.015746
  0
VERTEX
  8
0
 10
15.106077
 20
2.973836
 42
0.016529
  0
VERTEX
  8
0
 10
15.588246
 20
3.496837
 42
0.061291
  0
VERTEX
  8
0
 10
15.837081
 20
3.869030
 42
-0.009947
  0
VERTEX
  8
0
 10
15.921846
 20
4.029187
 42
-0.012458
  0
VERTEX
  8
0
 10
16.007046
 20
4.174072
 42
-0.010695
  0
VERTEX
  8
0
 10
16.083550
 20
4.291380
 42
-0.089037
  0
VERTEX
  8
0
 10
16.127858
 20
4.336449
 42
0.242785
  0
VERTEX
  8
0
 10
16.213742
 20
4.502168
 42
0.002000
  0
VERTEX
  8
0
 10
16.210406
 20
6.010759
 42
0.003499
  0
VERTEX
  8
0
 10
16.191210
 20
7.464012
 42
0.111652
  0
VERTEX
  8
0
 10
16.106303
 20
7.807121
 42
-0.052966
  0
VERTEX
  8
0
 10
16.065959
 20
7.914586
 42
-0.014078
  0
VERTEX
  8
0
 10
16.025033
 20
8.093273
 42
-0.014115
  0
VERTEX
  8
0
 10
15.989759
 20
8.300294
 42
-0.014110
  0
VERTEX
  8
0
 10
15.966218
 20
8.509000
 42
0.003168
  0
VERTEX
  8
0
 10
15.943736
 20
8.756904
 42
0.001315
  0
VERTEX
  8
0
 10
15.910354
 20
9.091613
 42
0.001301
  0
VERTEX
  8
0
 10
15.872709
 20
9.450070
 42
0.001679
  0
VERTEX
  8
0
 10
15.836181
 20
9.779000
 42
-0.002764
  0
VERTEX
  8
0
 10
15.768547
 20
10.400330
 42
-0.004832
  0
VERTEX
  8
0
 10
15.720349
 20
10.915785
 42
-0.003904
  0
VERTEX
  8
0
 10
15.675912
 20
11.501177
 42
-0.001201
  0
VERTEX
  8
0
 10
15.617899
 20
12.384866
 42
0.006526
  0
VERTEX
  8
0
 10
15.588469
 20
12.770312
 42
0.010083
  0
VERTEX
  8
0
 10
15.551992
 20
13.102347
 42
0.004824
  0
VERTEX
  8
0
 10
15.513074
 20
13.380046
 42
0.220560
  0
VERTEX
  8
0
 10
15.482086
 20
13.427030
 42
-0.232548
  0
VERTEX
  8
0
 10
15.453018
 20
13.473368
 42
-0.006304
  0
VERTEX
  8
0
 10
15.430704
 20
13.718799
 42
-0.011833
  0
VERTEX
  8
0
 10
15.414596
 20
14.014651
 42
-0.007682
  0
VERTEX
  8
0
 10
15.409333
 20
14.357146
 42
0.008682
  0
VERTEX
  8
0
 10
15.403260
 20
14.706880
 42
0.011424
  0
VERTEX
  8
0
 10
15.384897
 20
15.025471
 42
0.009012
  0
VERTEX
  8
0
 10
15.358852
 20
15.289178
 42
0.099944
  0
VERTEX
  8
0
 10
15.326145
 20
15.389316
 42
-0.118700
  0
VERTEX
  8
0
 10
15.260272
 20
15.619585
 42
-0.000648
  0
VERTEX
  8
0
 10
15.165198
 20
17.935129
 42
-0.002961
  0
VERTEX
  8
0
 10
15.080263
 20
20.445777
 42
-0.002470
  0
VERTEX
  8
0
 10
15.019005
 20
23.114000
 42
0.000000
  0
VERTEX
  8
0
 10
14.981634
 20
25.188333
 42
0.000000
  0
VERTEX
  8
0
 10
15.183530
 20
24.892000
 42
-0.015610
  0
VERTEX
  8
0
 10
15.265623
 20
24.763032
 42
-0.012820
  0
VERTEX
  8
0
 10
15.345328
 20
24.620538
 42
-0.013020
  0
VERTEX
  8
0
 10
15.411828
 20
24.485748
 42
-0.033169
  0
VERTEX
  8
0
 10
15.450820
 20
24.384000
 42
0.047239
  0
VERTEX
  8
0
 10
15.523269
 20
24.209765
 42
0.015355
  0
VERTEX
  8
0
 10
15.661761
 20
23.967421
 42
0.014269
  0
VERTEX
  8
0
 10
15.811942
 20
23.737404
 42
0.067967
  0
VERTEX
  8
0
 10
15.917885
 20
23.622000
 42
-0.072666
  0
VERTEX
  8
0
 10
15.950484
 20
23.585816
 42
-0.001274
  0
VERTEX
  8
0
 10
16.096486
 20
23.365717
 42
-0.003184
  0
VERTEX
  8
0
 10
16.264544
 20
23.107401
 42
-0.002113
  0
VERTEX
  8
0
 10
16.454213
 20
22.808996
 42
0.006895
  0
VERTEX
  8
0
 10
16.667470
 20
22.480461
 42
0.005431
  0
VERTEX
  8
0
 10
16.907124
 20
22.130467
 42
0.005494
  0
VERTEX
  8
0
 10
17.136924
 20
21.810110
 42
0.013505
  0
VERTEX
  8
0
 10
17.314575
 20
21.581329
 42
-0.002680
  0
VERTEX
  8
0
 10
17.478478
 20
21.379433
 42
-0.001875
  0
VERTEX
  8
0
 10
17.661139
 20
21.150195
 42
-0.001891
  0
VERTEX
  8
0
 10
17.834530
 20
20.929195
 42
-0.003938
  0
VERTEX
  8
0
 10
17.967660
 20
20.755376
 42
0.021773
  0
VERTEX
  8
0
 10
18.394946
 20
20.236897
 42
0.010749
  0
VERTEX
  8
0
 10
18.979622
 20
19.614688
 42
0.007398
  0
VERTEX
  8
0
 10
19.562680
 20
19.037666
 42
0.087392
  0
VERTEX
  8
0
 10
19.826247
 20
18.860789
 42
-0.020846
  0
VERTEX
  8
0
 10
19.918078
 20
18.815474
 42
-0.029267
  0
VERTEX
  8
0
 10
19.995573
 20
18.767038
 42
-0.029104
  0
VERTEX
  8
0
 10
20.052198
 20
18.721685
 42
-0.212434
  0
VERTEX
  8
0
 10
20.066000
 20
18.690665
 42
0.230722
  0
VERTEX
  8
0
 10
20.077950
 20
18.666147
 42
0.073234
  0
VERTEX
  8
0
 10
20.114274
 20
18.645466
 42
0.055821
  0
VERTEX
  8
0
 10
20.167401
 20
18.631342
 42
0.037095
  0
VERTEX
  8
0
 10
20.230337
 20
18.626667
 42
-0.046881
  0
VERTEX
  8
0
 10
20.297080
 20
18.620395
 42
-0.046318
  0
VERTEX
  8
0
 10
20.361770
 20
18.601796
 42
-0.050262
  0
VERTEX
  8
0
 10
20.415163
 20
18.574474
 42
-0.111412
  0
VERTEX
  8
0
 10
20.447000
 20
18.542000
 42
0.226441
  0
VERTEX
  8
0
 10
20.500288
 20
18.507705
 42
0.008901
  0
VERTEX
  8
0
 10
20.737651
 20
18.481807
 42
0.014015
  0
VERTEX
  8
0
 10
21.031099
 20
18.463341
 42
0.008705
  0
VERTEX
  8
0
 10
21.376131
 20
18.457333
 42
0.007717
  0
VERTEX
  8
0
 10
21.933520
 20
18.465937
 42
0.046760
  0
VERTEX
  8
0
 10
22.219897
 20
18.501723
 42
0.054643
  0
VERTEX
  8
0
 10
22.475714
 20
18.588476
 42
0.012774
  0
VERTEX
  8
0
 10
22.881769
 20
18.790501
 42
0.020667
  0
VERTEX
  8
0
 10
23.480137
 20
19.139928
 42
0.036821
  0
VERTEX
  8
0
 10
23.936118
 20
19.481902
 42
0.030157
  0
VERTEX
  8
0
 10
24.393221
 20
19.931742
 42
0.009595
  0
VERTEX
  8
0
 10
25.019000
 20
20.654040
 42
-0.002807
  0
VERTEX
  8
0
 10
25.224360
 20
20.897679
 42
-0.003322
  0
VERTEX
  8
0
 10
25.421299
 20
21.125599
 42
-0.002900
  0
VERTEX
  8
0
 10
25.589867
 20
21.315846
 42
-0.021026
  0
VERTEX
  8
0
 10
25.675167
 20
21.403306
 42
0.032647
  0
VERTEX
  8
0
 10
25.731868
 20
21.464210
 42
0.033206
  0
VERTEX
  8
0
 10
25.779809
 20
21.531647
 42
0.035170
  0
VERTEX
  8
0
 10
25.813235
 20
21.595646
 42
0.103113
  0
VERTEX
  8
0
 10
25.823333
 20
21.644094
 42
-0.059702
  0
VERTEX
  8
0
 10
25.828219
 20
21.684867
 42
-0.057808
  0
VERTEX
  8
0
 10
25.842610
 20
21.723806
 42
-0.062715
  0
VERTEX
  8
0
 10
25.863842
 20
21.755192
 42
-0.111614
  0
VERTEX
  8
0
 10
25.888957
 20
21.773444
 42
0.136593
  0
VERTEX
  8
0
 10
25.928073
 20
21.804924
 42
0.003025
  0
VERTEX
  8
0
 10
26.069423
 20
22.004778
 42
0.006637
  0
VERTEX
  8
0
 10
26.231435
 20
22.243500
 42
0.004410
  0
VERTEX
  8
0
 10
26.411156
 20
22.521333
 42
-0.002148
  0
VERTEX
  8
0
 10
26.589751
 20
22.800185
 42
-0.003217
  0
VERTEX
  8
0
 10
26.748332
 20
23.042033
 42
-0.001347
  0
VERTEX
  8
0
 10
26.885846
 20
23.247636
 42
-0.069398
  0
VERTEX
  8
0
 10
26.917842
 20
23.283333
 42
0.080447
  0
VERTEX
  8
0
 10
26.945228
 20
23.315272
 42
0.006283
  0
VERTEX
  8
0
 10
27.002737
 20
23.412158
 42
0.008438
  0
VERTEX
  8
0
 10
27.068276
 20
23.530365
 42
0.006349
  0
VERTEX
  8
0
 10
27.136477
 20
23.662440
 42
-0.008044
  0
VERTEX
  8
0
 10
27.219349
 20
23.821599
 42
-0.003758
  0
VERTEX
  8
0
 10
27.331545
 20
24.025197
 42
-0.003722
  0
VERTEX
  8
0
 10
27.452451
 20
24.237038
 42
-0.005204
  0
VERTEX
  8
0
 10
27.563889
 20
24.424440
 42
0.017720
  0
VERTEX
  8
0
 10
27.848235
 20
24.931057
 42
0.002627
  0
VERTEX
  8
0
 10
28.379963
 20
25.975871
 42
0.001751
  0
VERTEX
  8
0
 10
28.916799
 20
27.053970
 42
0.036047
  0
VERTEX
  8
0
 10
29.053394
 20
27.389667
 42
-0.853807
  0
VERTEX
  8
0
 10
29.110662
 20
27.380602
 42
-0.001195
  0
VERTEX
  8
0
 10
29.106489
 20
25.267218
 42
-0.003460
  0
VERTEX
  8
0
 10
29.083343
 20
23.216265
 42
-0.010095
  0
VERTEX
  8
0
 10
29.029003
 20
21.801667
 42
0.000845
  0
VERTEX
  8
0
 10
28.995581
 20
21.214866
 42
0.000641
  0
VERTEX
  8
0
 10
28.960848
 20
20.571354
 42
0.000648
  0
VERTEX
  8
0
 10
28.929818
 20
19.967530
 42
0.001515
  0
VERTEX
  8
0
 10
28.908557
 20
19.515667
 42
-0.007217
  0
VERTEX
  8
0
 10
28.886973
 20
19.146629
 42
-0.009279
  0
VERTEX
  8
0
 10
28.855947
 20
18.808171
 42
-0.007432
  0
VERTEX
  8
0
 10
28.820659
 20
18.526962
 42
-0.076210
  0
VERTEX
  8
0
 10
28.787026
 20
18.415000
 42
0.071910
  0
VERTEX
  8
0
 10
28.753478
 20
18.306692
 42
0.008711
  0
VERTEX
  8
0
 10
28.718748
 20
18.059135
 42
0.010200
  0
VERTEX
  8
0
 10
28.688438
 20
17.761717
 42
0.008239
  0
VERTEX
  8
0
 10
28.667686
 20
17.441333
 42
-0.006685
  0
VERTEX
  8
0
 10
28.612956
 20
16.553637
 42
-0.001756
  0
VERTEX
  8
0
 10
28.501274
 20
15.133090
 42
-0.001828
  0
VERTEX
  8
0
 10
28.377847
 20
13.695130
 42
-0.005276
  0
VERTEX
  8
0
 10
28.278169
 20
12.700000
 42
0.000451
  0
VERTEX
  8
0
 10
28.108761
 20
11.158847
 42
0.001473
  0
VERTEX
  8
0
 10
28.000624
 20
10.138981
 42
0.002132
  0
VERTEX
  8
0
 10
27.929876
 20
9.422508
 42
0.006396
  0
VERTEX
  8
0
 10
27.889902
 20
8.932333
 42
-0.010194
  0
VERTEX
  8
0
 10
27.868555
 20
8.693014
 42
-0.011468
  0
VERTEX
  8
0
 10
27.838085
 20
8.464021
 42
-0.010787
  0
VERTEX
  8
0
 10
27.803585
 20
8.270913
 42
-0.059035
  0
VERTEX
  8
0
 10
27.770667
 20
8.170333
 42
0.091729
  0
VERTEX
  8
0
 10
27.655964
 20
7.723520
 42
0.005078
  0
VERTEX
  8
0
 10
27.571786
 20
6.278399
 42
0.002851
  0
VERTEX
  8
0
 10
27.507830
 20
4.768360
 42
0.208449
  0
VERTEX
  8
0
 10
27.596321
 20
4.543146
 42
-0.068789
  0
VERTEX
  8
0
 10
27.630690
 20
4.497750
 42
-0.038994
  0
VERTEX
  8
0
 10
27.659657
 20
4.435042
 42
-0.038111
  0
VERTEX
  8
0
 10
27.679406
 20
4.365996
 42
-0.050645
  0
VERTEX
  8
0
 10
27.686000
 20
4.301067
 42
0.042234
  0
VERTEX
  8
0
 10
27.690937
 20
4.242721
 42
0.061843
  0
VERTEX
  8
0
 10
27.705772
 20
4.193434
 42
0.081231
  0
VERTEX
  8
0
 10
27.727570
 20
4.160017
 42
0.210710
  0
VERTEX
  8
0
 10
27.753308
 20
4.148667
 42
-0.248208
  0
VERTEX
  8
0
 10
27.787204
 20
4.130736
 42
-0.016760
  0
VERTEX
  8
0
 10
27.847613
 20
4.035256
 42
-0.020934
  0
VERTEX
  8
0
 10
27.913940
 20
3.910526
 42
-0.013935
  0
VERTEX
  8
0
 10
27.979829
 20
3.762586
 42
0.071328
  0
VERTEX
  8
0
 10
28.178455
 20
3.426328
 42
0.024475
  0
VERTEX
  8
0
 10
28.554395
 20
3.001913
 42
0.019492
  0
VERTEX
  8
0
 10
28.955369
 20
2.622352
 42
0.181710
  0
VERTEX
  8
0
 10
29.174490
 20
2.540000
 42
-0.068717
  0
VERTEX
  8
0
 10
29.220423
 20
2.533657
 42
-0.085032
  0
VERTEX
  8
0
 10
29.259365
 20
2.515129
 42
-0.099885
  0
VERTEX
  8
0
 10
29.285403
 20
2.487620
 42
-0.140623
  0
VERTEX
  8
0
 10
29.294667
 20
2.455333
 42
0.191087
  0
VERTEX
  8
0
 10
29.307492
 20
2.423001
 42
0.088204
  0
VERTEX
  8
0
 10
29.344408
 20
2.395538
 42
0.068025
  0
VERTEX
  8
0
 10
29.399195
 20
2.376906
 42
0.048028
  0
VERTEX
  8
0
 10
29.464000
 20
2.370667
 42
-0.048028
  0
VERTEX
  8
0
 10
29.528805
 20
2.364427
 42
-0.068025
  0
VERTEX
  8
0
 10
29.583592
 20
2.345796
 42
-0.088204
  0
VERTEX
  8
0
 10
29.620508
 20
2.318333
 42
-0.191087
  0
VERTEX
  8
0
 10
29.633333
 20
2.286000
 42
0.148195
  0
VERTEX
  8
0
 10
29.643118
 20
2.253712
 42
0.098894
  0
VERTEX
  8
0
 10
29.670640
 20
2.226204
 42
0.082425
  0
VERTEX
  8
0
 10
29.711781
 20
2.207657
 42
0.064853
  0
VERTEX
  8
0
 10
29.760333
 20
2.201333
 42
-0.058897
  0
VERTEX
  8
0
 10
29.808904
 20
2.195592
 42
-0.077911
  0
VERTEX
  8
0
 10
29.850027
 20
2.178649
 42
-0.096447
  0
VERTEX
  8
0
 10
29.877574
 20
2.153565
 42
-0.161345
  0
VERTEX
  8
0
 10
29.887333
 20
2.124109
 42
0.271558
  0
VERTEX
  8
0
 10
29.906891
 20
2.090755
 42
0.033009
  0
VERTEX
  8
0
 10
29.986686
 20
2.052783
 42
0.031850
  0
VERTEX
  8
0
 10
30.095960
 20
2.017240
 42
0.020860
  0
VERTEX
  8
0
 10
30.225556
 20
1.989742
 42
-0.018398
  0
VERTEX
  8
0
 10
30.358562
 20
1.962203
 42
-0.023555
  0
VERTEX
  8
0
 10
30.478460
 20
1.926678
 42
-0.022479
  0
VERTEX
  8
0
 10
30.573596
 20
1.888668
 42
-0.149132
  0
VERTEX
  8
0
 10
30.611553
 20
1.855300
 42
0.162271
  0
VERTEX
  8
0
 10
30.647391
 20
1.825390
 42
0.034581
  0
VERTEX
  8
0
 10
30.725899
 20
1.800707
 42
0.032781
  0
VERTEX
  8
0
 10
30.825173
 20
1.783672
 42
0.026106
  0
VERTEX
  8
0
 10
30.933730
 20
1.778000
 42
-0.025880
  0
VERTEX
  8
0
 10
31.044677
 20
1.772254
 42
-0.028276
  0
VERTEX
  8
0
 10
31.151155
 20
1.755066
 42
-0.029349
  0
VERTEX
  8
0
 10
31.239636
 20
1.730077
 42
-0.109577
  0
VERTEX
  8
0
 10
31.288567
 20
1.699928
 42
0.188169
  0
VERTEX
  8
0
 10
31.641011
 20
1.551535
 42
0.006616
  0
VERTEX
  8
0
 10
33.147268
 20
1.531510
 42
0.006607
  0
VERTEX
  8
0
 10
34.653684
 20
1.551322
 42
0.188594
  0
VERTEX
  8
0
 10
35.005433
 20
1.699696
 42
-0.104547
  0
VERTEX
  8
0
 10
35.053513
 20
1.730085
 42
-0.030148
  0
VERTEX
  8
0
 10
35.138095
 20
1.755789
 42
-0.028905
  0
VERTEX
  8
0
 10
35.239343
 20
1.773895
 42
-0.027191
  0
VERTEX
  8
0
 10
35.344100
 20
1.780693
 42
0.040386
  0
VERTEX
  8
0
 10
35.455014
 20
1.790831
 42
0.030025
  0
VERTEX
  8
0
 10
35.574755
 20
1.819110
 42
0.030652
  0
VERTEX
  8
0
 10
35.685168
 20
1.859818
 42
0.058327
  0
VERTEX
  8
0
 10
35.766682
 20
1.907693
 42
-0.038541
  0
VERTEX
  8
0
 10
35.840842
 20
1.955280
 42
-0.030083
  0
VERTEX
  8
0
 10
35.927742
 20
1.995485
 42
-0.030896
  0
VERTEX
  8
0
 10
36.013722
 20
2.023160
 42
-0.062488
  0
VERTEX
  8
0
 10
36.084182
 20
2.032000
 42
0.053321
  0
VERTEX
  8
0
 10
36.142775
 20
2.038266
 42
0.073113
  0
VERTEX
  8
0
 10
36.192345
 20
2.056871
 42
0.092916
  0
VERTEX
  8
0
 10
36.225628
 20
2.084358
 42
0.175567
  0
VERTEX
  8
0
 10
36.237333
 20
2.116667
 42
-0.148195
  0
VERTEX
  8
0
 10
36.247118
 20
2.148955
 42
-0.098894
  0
VERTEX
  8
0
 10
36.274640
 20
2.176462
 42
-0.082425
  0
VERTEX
  8
0
 10
36.315781
 20
2.195009
 42
-0.064853
  0
VERTEX
  8
0
 10
36.364333
 20
2.201333
 42
0.064853
  0
VERTEX
  8
0
 10
36.412886
 20
2.207657
 42
0.082425
  0
VERTEX
  8
0
 10
36.454027
 20
2.226204
 42
0.098894
  0
VERTEX
  8
0
 10
36.481549
 20
2.253712
 42
0.148195
  0
VERTEX
  8
0
 10
36.491333
 20
2.286000
 42
-0.159109
  0
VERTEX
  8
0
 10
36.501877
 20
2.318293
 42
-0.096923
  0
VERTEX
  8
0
 10
36.531612
 20
2.345796
 42
-0.078674
  0
VERTEX
  8
0
 10
36.576015
 20
2.364367
 42
-0.059850
  0
VERTEX
  8
0
 10
36.628452
 20
2.370667
 42
0.188271
  0
VERTEX
  8
0
 10
36.830161
 20
2.449410
 42
0.007977
  0
VERTEX
  8
0
 10
37.396011
 20
2.987572
 42
0.009898
  0
VERTEX
  8
0
 10
37.933470
 20
3.536628
 42
0.127947
  0
VERTEX
  8
0
 10
38.069830
 20
3.785987
 42
-0.034546
  0
VERTEX
  8
0
 10
38.093947
 20
3.860007
 42
-0.046604
  0
VERTEX
  8
0
 10
38.126277
 20
3.922538
 42
-0.055096
  0
VERTEX
  8
0
 10
38.161466
 20
3.966018
 42
-0.197592
  0
VERTEX
  8
0
 10
38.193845
 20
3.979333
 42
0.204465
  0
VERTEX
  8
0
 10
38.222697
 20
3.991647
 42
0.083557
  0
VERTEX
  8
0
 10
38.247159
 20
4.027607
 42
0.063780
  0
VERTEX
  8
0
 10
38.263789
 20
4.080761
 42
0.043985
  0
VERTEX
  8
0
 10
38.269333
 20
4.143670
 42
-0.041926
  0
VERTEX
  8
0
 10
38.274904
 20
4.209988
 42
-0.043880
  0
VERTEX
  8
0
 10
38.291456
 20
4.273405
 42
-0.048035
  0
VERTEX
  8
0
 10
38.315726
 20
4.325090
 42
-0.121142
  0
VERTEX
  8
0
 10
38.344645
 20
4.354552
 42
0.201025
  0
VERTEX
  8
0
 10
38.418683
 20
4.458158
 42
0.016369
  0
VERTEX
  8
0
 10
38.483357
 20
4.792703
 42
0.012602
  0
VERTEX
  8
0
 10
38.555454
 20
5.331470
 42
0.002447
  0
VERTEX
  8
0
 10
38.656292
 20
6.307667
 42
-0.001223
  0
VERTEX
  8
0
 10
38.710323
 20
6.843562
 42
-0.001070
  0
VERTEX
  8
0
 10
38.769380
 20
7.403571
 42
-0.001075
  0
VERTEX
  8
0
 10
38.824905
 20
7.909272
 42
-0.003211
  0
VERTEX
  8
0
 10
38.865868
 20
8.255000
 42
0.002689
  0
VERTEX
  8
0
 10
38.982104
 20
9.227355
 42
0.004702
  0
VERTEX
  8
0
 10
39.066465
 20
10.034072
 42
0.004718
  0
VERTEX
  8
0
 10
39.135452
 20
10.840350
 42
0.002730
  0
VERTEX
  8
0
 10
39.203955
 20
11.811000
 42
-0.004435
  0
VERTEX
  8
0
 10
39.245554
 20
12.373128
 42
-0.006348
  0
VERTEX
  8
0
 10
39.293184
 20
12.870716
 42
-0.003654
  0
VERTEX
  8
0
 10
39.341589
 20
13.288178
 42
-0.092200
  0
VERTEX
  8
0
 10
39.376154
 20
13.397351
 42
0.092239
  0
VERTEX
  8
0
 10
39.406946
 20
13.494632
 42
0.009716
  0
VERTEX
  8
0
 10
39.431604
 20
13.732819
 42
0.011757
  0
VERTEX
  8
0
 10
39.448928
 20
14.020196
 42
0.009175
  0
VERTEX
  8
0
 10
39.454667
 20
14.332918
 42
-0.008966
  0
VERTEX
  8
0
 10
39.460189
 20
14.640869
 42
-0.012837
  0
VERTEX
  8
0
 10
39.476984
 20
14.913458
 42
-0.008711
  0
VERTEX
  8
0
 10
39.500553
 20
15.137903
 42
-0.160057
  0
VERTEX
  8
0
 10
39.530640
 20
15.201900
 42
0.157070
  0
VERTEX
  8
0
 10
39.562925
 20
15.269544
 42
0.004768
  0
VERTEX
  8
0
 10
39.601926
 20
15.582027
 42
0.008994
  0
VERTEX
  8
0
 10
39.638123
 20
15.955402
 42
0.006047
  0
VERTEX
  8
0
 10
39.666628
 20
16.383000
 42
-0.000129
  0
VERTEX
  8
0
 10
39.692769
 20
16.860157
 42
-0.000097
  0
VERTEX
  8
0
 10
39.721716
 20
17.384183
 42
-0.000099
  0
VERTEX
  8
0
 10
39.749101
 20
17.876439
 42
-0.000229
  0
VERTEX
  8
0
 10
39.769884
 20
18.245667
 42
0.001992
  0
VERTEX
  8
0
 10
39.874471
 20
20.228297
 42
0.003371
  0
VERTEX
  8
0
 10
39.944264
 20
21.889911
 42
0.002919
  0
VERTEX
  8
0
 10
39.997739
 20
23.708333
 42
0.001108
  0
VERTEX
  8
0
 10
40.051929
 20
26.246667
 42
0.001255
  0
VERTEX
  8
0
 10
40.137407
 20
31.389288
 42
0.002024
  0
VERTEX
  8
0
 10
40.181471
 20
35.768815
 42
0.000349
  0
VERTEX
  8
0
 10
40.202020
 20
39.636115
 42
0.120102
  0
VERTEX
  8
0
 10
40.134138
 20
39.920333
 42
-0.105616
  0
VERTEX
  8
0
 10
40.096003
 20
40.061945
 42
-0.002186
  0
VERTEX
  8
0
 10
40.060519
 20
40.797113
 42
-0.004735
  0
VERTEX
  8
0
 10
40.029614
 20
41.695472
 42
-0.002578
  0
VERTEX
  8
0
 10
40.007804
 20
42.799000
 42
0.003190
  0
VERTEX
  8
0
 10
39.954656
 20
45.331395
 42
0.003058
  0
VERTEX
  8
0
 10
39.868670
 20
47.898657
 42
0.003198
  0
VERTEX
  8
0
 10
39.758088
 20
50.301280
 42
0.005318
  0
VERTEX
  8
0
 10
39.630438
 20
52.324000
 42
0.000735
  0
VERTEX
  8
0
 10
39.565569
 20
53.185792
 42
0.001013
  0
VERTEX
  8
0
 10
39.504598
 20
53.959628
 42
0.000568
  0
VERTEX
  8
0
 10
39.418657
 20
55.008016
 42
0.000086
  0
VERTEX
  8
0
 10
39.243776
 20
57.107667
 42
0.002236
  0
VERTEX
  8
0
 10
39.125843
 20
58.448296
 42
0.003678
  0
VERTEX
  8
0
 10
39.012685
 20
59.581018
 42
0.003617
  0
VERTEX
  8
0
 10
38.881509
 20
60.725087
 42
0.002075
  0
VERTEX
  8
0
 10
38.707607
 20
62.103000
 42
0.035726
  0
VERTEX
  8
0
 10
38.623230
 20
62.516878
 42
0.025585
  0
VERTEX
  8
0
 10
38.472944
 20
62.964832
 42
0.021007
  0
VERTEX
  8
0
 10
38.300432
 20
63.354412
 42
0.175185
  0
VERTEX
  8
0
 10
38.163500
 20
63.485889
 42
-0.105487
  0
VERTEX
  8
0
 10
38.139202
 20
63.503546
 42
-0.062374
  0
VERTEX
  8
0
 10
38.118653
 20
63.533099
 42
-0.058266
  0
VERTEX
  8
0
 10
38.104730
 20
63.569361
 42
-0.062633
  0
VERTEX
  8
0
 10
38.100000
 20
63.606972
 42
0.203221
  0
VERTEX
  8
0
 10
38.032456
 20
63.766292
 42
0.016178
  0
VERTEX
  8
0
 10
37.685752
 20
64.080634
 42
0.020558
  0
VERTEX
  8
0
 10
37.317213
 20
64.368445
 42
0.101775
  0
VERTEX
  8
0
 10
37.078071
 20
64.474969
 42
-0.028187
  0
VERTEX
  8
0
 10
36.983062
 20
64.501526
 42
-0.040375
  0
VERTEX
  8
0
 10
36.902871
 20
64.536344
 42
-0.046364
  0
VERTEX
  8
0
 10
36.846152
 20
64.573748
 42
-0.227596
  0
VERTEX
  8
0
 10
36.830000
 20
64.607394
 42
0.190426
  0
VERTEX
  8
0
 10
36.818238
 20
64.637156
 42
0.088420
  0
VERTEX
  8
0
 10
36.784403
 20
64.662439
 42
0.068238
  0
VERTEX
  8
0
 10
36.734182
 20
64.679589
 42
0.048239
  0
VERTEX
  8
0
 10
36.674778
 20
64.685333
 42
-0.033567
  0
VERTEX
  8
0
 10
36.611097
 20
64.689613
 42
-0.032875
  0
VERTEX
  8
0
 10
36.548107
 20
64.702378
 42
-0.034696
  0
VERTEX
  8
0
 10
36.494520
 20
64.721035
 42
-0.095539
  0
VERTEX
  8
0
 10
36.461530
 20
64.743359
 42
0.115509
  0
VERTEX
  8
0
 10
36.296989
 20
64.845466
 42
0.022279
  0
VERTEX
  8
0
 10
35.957867
 20
64.943294
 42
0.022164
  0
VERTEX
  8
0
 10
35.536036
 20
65.025286
 42
0.017094
  0
VERTEX
  8
0
 10
35.070308
 20
65.078361
 42
-0.009048
  0
VERTEX
  8
0
 10
34.798328
 20
65.104932
 42
-0.013519
  0
VERTEX
  8
0
 10
34.561910
 20
65.138855
 42
-0.008443
  0
VERTEX
  8
0
 10
34.368344
 20
65.175367
 42
-0.206330
  0
VERTEX
  8
0
 10
34.324478
 20
65.206044
 42
0.259437
  0
VERTEX
  8
0
 10
34.193473
 20
65.279243
 42
0.001455
  0
VERTEX
  8
0
 10
32.719857
 20
65.277695
 42
0.001462
  0
VERTEX
  8
0
 10
31.246601
 20
65.267554
 42
0.257317
  0
SEQEND
  0
ENDSEC
  0
EOF
