999
DXF data, created by potrace 1.16, written by Peter Selinger 2001-2019
  0
SECTION
  2
HEADER
  9
$ACADVER
  1
AC1006
  9
$EXTMIN
 10
0.000000
 20
0.000000
 30
0.000000
  9
$EXTMAX
 10
42.079333
 20
60.706000
 30
0.000000
  0
ENDSEC
  0
SECTION
  2
ENTITIES
  0
POLYLINE
  8
0
 66
1
 70
1
  0
VERTEX
  8
0
 10
20.023667
 20
59.758091
 42
0.009689
  0
VERTEX
  8
0
 10
19.883224
 20
59.720051
 42
0.009086
  0
VERTEX
  8
0
 10
19.741297
 20
59.675828
 42
0.009093
  0
VERTEX
  8
0
 10
19.616841
 20
59.632026
 42
0.030610
  0
VERTEX
  8
0
 10
19.537982
 20
59.597018
 42
-0.031777
  0
VERTEX
  8
0
 10
19.471688
 20
59.567773
 42
-0.022317
  0
VERTEX
  8
0
 10
19.393926
 20
59.543095
 42
-0.022609
  0
VERTEX
  8
0
 10
19.317047
 20
59.526108
 42
-0.043091
  0
VERTEX
  8
0
 10
19.254030
 20
59.520667
 42
0.142260
  0
VERTEX
  8
0
 10
18.754225
 20
59.375525
 42
0.024466
  0
VERTEX
  8
0
 10
17.938855
 20
58.800573
 42
0.027690
  0
VERTEX
  8
0
 10
17.144986
 20
58.106458
 42
0.057318
  0
VERTEX
  8
0
 10
16.626207
 20
57.468151
 42
0.000000
  0
VERTEX
  8
0
 10
16.424031
 20
57.151302
 42
0.000000
  0
VERTEX
  8
0
 10
15.929720
 20
57.645614
 42
0.050616
  0
VERTEX
  8
0
 10
14.804911
 20
58.563140
 42
0.063933
  0
VERTEX
  8
0
 10
13.600146
 20
59.153173
 42
0.065458
  0
VERTEX
  8
0
 10
12.309021
 20
59.410857
 42
0.056751
  0
VERTEX
  8
0
 10
10.928935
 20
59.345785
 42
0.009914
  0
VERTEX
  8
0
 10
10.513147
 20
59.269986
 42
0.034070
  0
VERTEX
  8
0
 10
10.248751
 20
59.197306
 42
0.024468
  0
VERTEX
  8
0
 10
9.956403
 20
59.078738
 42
0.003323
  0
VERTEX
  8
0
 10
9.358846
 20
58.796781
 42
0.018778
  0
VERTEX
  8
0
 10
9.015130
 20
58.615616
 42
0.024695
  0
VERTEX
  8
0
 10
8.717066
 20
58.423721
 42
0.024569
  0
VERTEX
  8
0
 10
8.438187
 20
58.202544
 42
0.018287
  0
VERTEX
  8
0
 10
8.152346
 20
57.932919
 42
0.010438
  0
VERTEX
  8
0
 10
7.948415
 20
57.717125
 42
0.014676
  0
VERTEX
  8
0
 10
7.776377
 20
57.515717
 42
0.010851
  0
VERTEX
  8
0
 10
7.643556
 20
57.343110
 42
0.159882
  0
VERTEX
  8
0
 10
7.620000
 20
57.271326
 42
-0.056621
  0
VERTEX
  8
0
 10
7.614728
 20
57.224919
 42
-0.076021
  0
VERTEX
  8
0
 10
7.599130
 20
57.185640
 42
-0.095166
  0
VERTEX
  8
0
 10
7.576058
 20
57.159307
 42
-0.166908
  0
VERTEX
  8
0
 10
7.548955
 20
57.150000
 42
0.225222
  0
VERTEX
  8
0
 10
7.512908
 20
57.132896
 42
0.020269
  0
VERTEX
  8
0
 10
7.451254
 20
57.050802
 42
0.023235
  0
VERTEX
  8
0
 10
7.383269
 20
56.941679
 42
0.015982
  0
VERTEX
  8
0
 10
7.316121
 20
56.812305
 42
-0.014181
  0
VERTEX
  8
0
 10
7.249522
 20
56.682849
 42
-0.020877
  0
VERTEX
  8
0
 10
7.183205
 20
56.573522
 42
-0.016990
  0
VERTEX
  8
0
 10
7.123485
 20
56.490043
 42
-0.229019
  0
VERTEX
  8
0
 10
7.090833
 20
56.473638
 42
0.189442
  0
VERTEX
  8
0
 10
7.066578
 20
56.463675
 42
0.086716
  0
VERTEX
  8
0
 10
7.045987
 20
56.435646
 42
0.067314
  0
VERTEX
  8
0
 10
7.032015
 20
56.394341
 42
0.047976
  0
VERTEX
  8
0
 10
7.027333
 20
56.345667
 42
-0.064853
  0
VERTEX
  8
0
 10
7.021009
 20
56.297114
 42
-0.082425
  0
VERTEX
  8
0
 10
7.002463
 20
56.255973
 42
-0.098894
  0
VERTEX
  8
0
 10
6.974955
 20
56.228451
 42
-0.148195
  0
VERTEX
  8
0
 10
6.942667
 20
56.218667
 42
0.109094
  0
VERTEX
  8
0
 10
6.910366
 20
56.211534
 42
0.099783
  0
VERTEX
  8
0
 10
6.882871
 20
56.191337
 42
0.095291
  0
VERTEX
  8
0
 10
6.864433
 20
56.161149
 42
0.089817
  0
VERTEX
  8
0
 10
6.858000
 20
56.125629
 42
-0.088409
  0
VERTEX
  8
0
 10
6.839697
 20
56.022927
 42
-0.007564
  0
VERTEX
  8
0
 10
6.743201
 20
55.772539
 42
-0.010798
  0
VERTEX
  8
0
 10
6.628058
 20
55.503632
 42
-0.014807
  0
VERTEX
  8
0
 10
6.512216
 20
55.267316
 42
0.035297
  0
VERTEX
  8
0
 10
6.482501
 20
55.199841
 42
0.022943
  0
VERTEX
  8
0
 10
6.457447
 20
55.118379
 42
0.023074
  0
VERTEX
  8
0
 10
6.440242
 20
55.036195
 42
0.040077
  0
VERTEX
  8
0
 10
6.434667
 20
54.966749
 42
-0.057992
  0
VERTEX
  8
0
 10
6.426923
 20
54.900210
 42
-0.038952
  0
VERTEX
  8
0
 10
6.403578
 20
54.827225
 42
-0.039081
  0
VERTEX
  8
0
 10
6.369366
 20
54.759127
 42
-0.060536
  0
VERTEX
  8
0
 10
6.328833
 20
54.707395
 42
0.169911
  0
VERTEX
  8
0
 10
6.276233
 20
54.598206
 42
0.012591
  0
VERTEX
  8
0
 10
6.246966
 20
54.263187
 42
0.012059
  0
VERTEX
  8
0
 10
6.228269
 20
53.769323
 42
0.003431
  0
VERTEX
  8
0
 10
6.223000
 20
53.001411
 42
0.003431
  0
VERTEX
  8
0
 10
6.228270
 20
52.233521
 42
0.012058
  0
VERTEX
  8
0
 10
6.246967
 20
51.739632
 42
0.012591
  0
VERTEX
  8
0
 10
6.276236
 20
51.404586
 42
0.169817
  0
VERTEX
  8
0
 10
6.328833
 20
51.295349
 42
-0.060492
  0
VERTEX
  8
0
 10
6.369366
 20
51.243587
 42
-0.039059
  0
VERTEX
  8
0
 10
6.403578
 20
51.175465
 42
-0.038933
  0
VERTEX
  8
0
 10
6.426923
 20
51.102462
 42
-0.057986
  0
VERTEX
  8
0
 10
6.434667
 20
51.035918
 42
0.040077
  0
VERTEX
  8
0
 10
6.440242
 20
50.966472
 42
0.023074
  0
VERTEX
  8
0
 10
6.457447
 20
50.884288
 42
0.022943
  0
VERTEX
  8
0
 10
6.482501
 20
50.802825
 42
0.035297
  0
VERTEX
  8
0
 10
6.512216
 20
50.735351
 42
-0.009985
  0
VERTEX
  8
0
 10
6.551688
 20
50.656756
 42
-0.002777
  0
VERTEX
  8
0
 10
6.610387
 20
50.532037
 42
-0.002802
  0
VERTEX
  8
0
 10
6.675262
 20
50.390109
 42
-0.002937
  0
VERTEX
  8
0
 10
6.737519
 20
50.249667
 42
0.029851
  0
VERTEX
  8
0
 10
6.966805
 20
49.799481
 42
0.018184
  0
VERTEX
  8
0
 10
7.287541
 20
49.295902
 42
0.017726
  0
VERTEX
  8
0
 10
7.658906
 20
48.796005
 42
0.021381
  0
VERTEX
  8
0
 10
8.043333
 20
48.355155
 42
0.029575
  0
VERTEX
  8
0
 10
8.608369
 20
47.826897
 42
0.015346
  0
VERTEX
  8
0
 10
9.370479
 20
47.233036
 42
0.015107
  0
VERTEX
  8
0
 10
10.144462
 20
46.702335
 42
0.040951
  0
VERTEX
  8
0
 10
10.731500
 20
46.389986
 42
-0.014496
  0
VERTEX
  8
0
 10
10.836934
 20
46.340850
 42
-0.021588
  0
VERTEX
  8
0
 10
10.925836
 20
46.291323
 42
-0.017739
  0
VERTEX
  8
0
 10
10.993552
 20
46.246285
 42
-0.241646
  0
VERTEX
  8
0
 10
11.006667
 20
46.220734
 42
0.279103
  0
VERTEX
  8
0
 10
11.021441
 20
46.196328
 42
0.015017
  0
VERTEX
  8
0
 10
11.106150
 20
46.155194
 42
0.019897
  0
VERTEX
  8
0
 10
11.215539
 20
46.111218
 42
0.012839
  0
VERTEX
  8
0
 10
11.345333
 20
46.068670
 42
-0.030475
  0
VERTEX
  8
0
 10
11.579798
 20
45.982545
 42
-0.209575
  0
VERTEX
  8
0
 10
11.661093
 20
45.894341
 42
-0.169183
  0
VERTEX
  8
0
 10
11.660608
 20
45.762958
 42
-0.018647
  0
VERTEX
  8
0
 10
11.548367
 20
45.478796
 42
0.002840
  0
VERTEX
  8
0
 10
11.433683
 20
45.213324
 42
0.005658
  0
VERTEX
  8
0
 10
11.346483
 20
45.001664
 42
0.005830
  0
VERTEX
  8
0
 10
11.265769
 20
44.792207
 42
0.003225
  0
VERTEX
  8
0
 10
11.171844
 20
44.534667
 42
-0.006039
  0
VERTEX
  8
0
 10
11.066983
 20
44.252089
 42
-0.004965
  0
VERTEX
  8
0
 10
10.948429
 20
43.952962
 42
-0.004835
  0
VERTEX
  8
0
 10
10.835933
 20
43.684598
 42
-0.017162
  0
VERTEX
  8
0
 10
10.756315
 20
43.515888
 42
0.033267
  0
VERTEX
  8
0
 10
10.726344
 20
43.446693
 42
0.010257
  0
VERTEX
  8
0
 10
10.690389
 20
43.338816
 42
0.010211
  0
VERTEX
  8
0
 10
10.655019
 20
43.216176
 42
0.011040
  0
VERTEX
  8
0
 10
10.625667
 20
43.095333
 42
-0.010248
  0
VERTEX
  8
0
 10
10.596517
 20
42.974490
 42
-0.009504
  0
VERTEX
  8
0
 10
10.561755
 20
42.851851
 42
-0.009534
  0
VERTEX
  8
0
 10
10.526679
 20
42.743939
 42
-0.031247
  0
VERTEX
  8
0
 10
10.497779
 20
42.674779
 42
0.011367
  0
VERTEX
  8
0
 10
10.445314
 20
42.562039
 42
0.004143
  0
VERTEX
  8
0
 10
10.375987
 20
42.400116
 42
0.003172
  0
VERTEX
  8
0
 10
10.286808
 20
42.183105
 42
0.001317
  0
VERTEX
  8
0
 10
10.168956
 20
41.888833
 42
0.006719
  0
VERTEX
  8
0
 10
10.130403
 20
41.787898
 42
0.001908
  0
VERTEX
  8
0
 10
10.073173
 20
41.629938
 42
0.001921
  0
VERTEX
  8
0
 10
10.009904
 20
41.451047
 42
0.002033
  0
VERTEX
  8
0
 10
9.949204
 20
41.275000
 42
-0.006057
  0
VERTEX
  8
0
 10
9.883119
 20
41.088230
 42
-0.004078
  0
VERTEX
  8
0
 10
9.803353
 20
40.876537
 42
-0.004107
  0
VERTEX
  8
0
 10
9.722807
 20
40.672942
 42
-0.008128
  0
VERTEX
  8
0
 10
9.654960
 20
40.513000
 42
0.007464
  0
VERTEX
  8
0
 10
9.593149
 20
40.367825
 42
0.006200
  0
VERTEX
  8
0
 10
9.531636
 20
40.211640
 42
0.006266
  0
VERTEX
  8
0
 10
9.478849
 20
40.067147
 42
0.016803
  0
VERTEX
  8
0
 10
9.446057
 20
39.962667
 42
-0.016553
  0
VERTEX
  8
0
 10
9.390017
 20
39.783806
 42
-0.010705
  0
VERTEX
  8
0
 10
9.313959
 20
39.580590
 42
-0.010445
  0
VERTEX
  8
0
 10
9.226116
 20
39.373075
 42
-0.012316
  0
VERTEX
  8
0
 10
9.134122
 20
39.180649
 42
0.022622
  0
VERTEX
  8
0
 10
9.105493
 20
39.117451
 42
0.019866
  0
VERTEX
  8
0
 10
9.081302
 20
39.049150
 42
0.020336
  0
VERTEX
  8
0
 10
9.064428
 20
38.985718
 42
0.054888
  0
VERTEX
  8
0
 10
9.059333
 20
38.939444
 42
-0.070235
  0
VERTEX
  8
0
 10
9.051693
 20
38.885325
 42
-0.010984
  0
VERTEX
  8
0
 10
9.019491
 20
38.782119
 42
-0.012033
  0
VERTEX
  8
0
 10
8.975629
 20
38.661388
 42
-0.010231
  0
VERTEX
  8
0
 10
8.923701
 20
38.536129
 42
0.001594
  0
VERTEX
  8
0
 10
8.865483
 20
38.402284
 42
0.001221
  0
VERTEX
  8
0
 10
8.802674
 20
38.255630
 42
0.001234
  0
VERTEX
  8
0
 10
8.744564
 20
38.118086
 42
0.002925
  0
VERTEX
  8
0
 10
8.702156
 20
38.015333
 42
-0.005130
  0
VERTEX
  8
0
 10
8.663798
 20
37.923543
 42
-0.003781
  0
VERTEX
  8
0
 10
8.619511
 20
37.822657
 42
-0.003821
  0
VERTEX
  8
0
 10
8.576183
 20
37.727896
 42
-0.008523
  0
VERTEX
  8
0
 10
8.541455
 20
37.656649
 42
0.022622
  0
VERTEX
  8
0
 10
8.512826
 20
37.593451
 42
0.019866
  0
VERTEX
  8
0
 10
8.488636
 20
37.525150
 42
0.020336
  0
VERTEX
  8
0
 10
8.471762
 20
37.461718
 42
0.054888
  0
VERTEX
  8
0
 10
8.466667
 20
37.415444
 42
-0.070235
  0
VERTEX
  8
0
 10
8.459027
 20
37.361325
 42
-0.010984
  0
VERTEX
  8
0
 10
8.426825
 20
37.258119
 42
-0.012033
  0
VERTEX
  8
0
 10
8.382963
 20
37.137388
 42
-0.010231
  0
VERTEX
  8
0
 10
8.331034
 20
37.012129
 42
0.001754
  0
VERTEX
  8
0
 10
8.273534
 20
36.879817
 42
0.001432
  0
VERTEX
  8
0
 10
8.212909
 20
36.737847
 42
0.001446
  0
VERTEX
  8
0
 10
8.157867
 20
36.606870
 42
0.003797
  0
VERTEX
  8
0
 10
8.119367
 20
36.512500
 42
-0.001180
  0
VERTEX
  8
0
 10
8.084518
 20
36.425782
 42
-0.000689
  0
VERTEX
  8
0
 10
8.042361
 20
36.322000
 42
-0.000689
  0
VERTEX
  8
0
 10
7.999872
 20
36.218225
 42
-0.001168
  0
VERTEX
  8
0
 10
7.963988
 20
36.131500
 42
0.010254
  0
VERTEX
  8
0
 10
7.929356
 20
36.043298
 42
0.005748
  0
VERTEX
  8
0
 10
7.890707
 20
35.934782
 42
0.005733
  0
VERTEX
  8
0
 10
7.854163
 20
35.824205
 42
0.009299
  0
VERTEX
  8
0
 10
7.825943
 20
35.729333
 42
-0.016428
  0
VERTEX
  8
0
 10
7.793236
 20
35.624850
 42
-0.006134
  0
VERTEX
  8
0
 10
7.740739
 20
35.480360
 42
-0.006070
  0
VERTEX
  8
0
 10
7.679639
 20
35.324175
 42
-0.007313
  0
VERTEX
  8
0
 10
7.618317
 20
35.179000
 42
0.004508
  0
VERTEX
  8
0
 10
7.550922
 20
35.021914
 42
0.002455
  0
VERTEX
  8
0
 10
7.470864
 20
34.827898
 42
0.002445
  0
VERTEX
  8
0
 10
7.391392
 20
34.629818
 42
0.003879
  0
VERTEX
  8
0
 10
7.325482
 20
34.459333
 42
-0.010622
  0
VERTEX
  8
0
 10
7.263444
 20
34.305079
 42
-0.011268
  0
VERTEX
  8
0
 10
7.196054
 20
34.156640
 42
-0.010930
  0
VERTEX
  8
0
 10
7.132464
 20
34.031628
 42
-0.049668
  0
VERTEX
  8
0
 10
7.086957
 20
33.963909
 42
-0.080412
  0
VERTEX
  8
0
 10
6.803407
 20
33.715523
 42
-0.010691
  0
VERTEX
  8
0
 10
6.116997
 20
33.306371
 42
-0.008753
  0
VERTEX
  8
0
 10
5.407205
 20
32.919861
 42
-0.120868
  0
VERTEX
  8
0
 10
5.125148
 20
32.850667
 42
0.063380
  0
VERTEX
  8
0
 10
5.075515
 20
32.844350
 42
0.081366
  0
VERTEX
  8
0
 10
5.033466
 20
32.825796
 42
0.098401
  0
VERTEX
  8
0
 10
5.005331
 20
32.798289
 42
0.151270
  0
VERTEX
  8
0
 10
4.995333
 20
32.766000
 42
-0.151270
  0
VERTEX
  8
0
 10
4.985336
 20
32.733711
 42
-0.098401
  0
VERTEX
  8
0
 10
4.957200
 20
32.706204
 42
-0.081366
  0
VERTEX
  8
0
 10
4.915152
 20
32.687650
 42
-0.063380
  0
VERTEX
  8
0
 10
4.865519
 20
32.681333
 42
0.105374
  0
VERTEX
  8
0
 10
4.693530
 20
32.644680
 42
0.010366
  0
VERTEX
  8
0
 10
4.308360
 20
32.463031
 42
0.012339
  0
VERTEX
  8
0
 10
3.933432
 20
32.264930
 42
0.068767
  0
VERTEX
  8
0
 10
3.752515
 20
32.127943
 42
0.131610
  0
VERTEX
  8
0
 10
3.666304
 20
31.978651
 42
0.107548
  0
VERTEX
  8
0
 10
3.657483
 20
31.793831
 42
0.060811
  0
VERTEX
  8
0
 10
3.733309
 20
31.537910
 42
0.015732
  0
VERTEX
  8
0
 10
3.917243
 20
31.148202
 42
-0.010448
  0
VERTEX
  8
0
 10
4.118186
 20
30.733855
 42
-0.016310
  0
VERTEX
  8
0
 10
4.271876
 20
30.368341
 42
-0.017730
  0
VERTEX
  8
0
 10
4.374672
 20
30.068189
 42
-0.073758
  0
VERTEX
  8
0
 10
4.402667
 20
29.879446
 42
0.115366
  0
VERTEX
  8
0
 10
4.418263
 20
29.812749
 42
0.019759
  0
VERTEX
  8
0
 10
4.480970
 20
29.697677
 42
0.020622
  0
VERTEX
  8
0
 10
4.567176
 20
29.566013
 42
0.017111
  0
VERTEX
  8
0
 10
4.669232
 20
29.433192
 42
0.019752
  0
VERTEX
  8
0
 10
4.818599
 20
29.265907
 42
0.071809
  0
VERTEX
  8
0
 10
4.930959
 20
29.178874
 42
0.101211
  0
VERTEX
  8
0
 10
5.041561
 20
29.142964
 42
0.064574
  0
VERTEX
  8
0
 10
5.177232
 20
29.145238
 42
-0.060810
  0
VERTEX
  8
0
 10
5.325572
 20
29.148837
 42
-0.214222
  0
VERTEX
  8
0
 10
5.406457
 20
29.102602
 42
-0.259613
  0
VERTEX
  8
0
 10
5.416581
 20
29.019645
 42
-0.082055
  0
VERTEX
  8
0
 10
5.348962
 20
28.909433
 42
0.078181
  0
VERTEX
  8
0
 10
5.313807
 20
28.853111
 42
0.007553
  0
VERTEX
  8
0
 10
5.252816
 20
28.703402
 42
0.009452
  0
VERTEX
  8
0
 10
5.185799
 20
28.521422
 42
0.007333
  0
VERTEX
  8
0
 10
5.119540
 20
28.321000
 42
-0.004359
  0
VERTEX
  8
0
 10
5.054500
 20
28.120265
 42
-0.005643
  0
VERTEX
  8
0
 10
4.991165
 20
27.937354
 42
-0.004326
  0
VERTEX
  8
0
 10
4.935151
 20
27.785448
 42
-0.049425
  0
VERTEX
  8
0
 10
4.906804
 20
27.728333
 42
0.054183
  0
VERTEX
  8
0
 10
4.879079
 20
27.671114
 42
0.004798
  0
VERTEX
  8
0
 10
4.826514
 20
27.519313
 42
0.006227
  0
VERTEX
  8
0
 10
4.767661
 20
27.336401
 42
0.004812
  0
VERTEX
  8
0
 10
4.707929
 20
27.135667
 42
-0.006169
  0
VERTEX
  8
0
 10
4.646242
 20
26.930398
 42
-0.006841
  0
VERTEX
  8
0
 10
4.581506
 20
26.733705
 42
-0.006388
  0
VERTEX
  8
0
 10
4.521888
 20
26.567505
 42
-0.034913
  0
VERTEX
  8
0
 10
4.482370
 20
26.480649
 42
0.031094
  0
VERTEX
  8
0
 10
4.451847
 20
26.414898
 42
0.022909
  0
VERTEX
  8
0
 10
4.426080
 20
26.338836
 42
0.023312
  0
VERTEX
  8
0
 10
4.408316
 20
26.264384
 42
0.046934
  0
VERTEX
  8
0
 10
4.402667
 20
26.204333
 42
-0.044062
  0
VERTEX
  8
0
 10
4.397364
 20
26.144280
 42
-0.022052
  0
VERTEX
  8
0
 10
4.380698
 20
26.069830
 42
-0.021707
  0
VERTEX
  8
0
 10
4.356521
 20
25.993764
 42
-0.029870
  0
VERTEX
  8
0
 10
4.327878
 20
25.928018
 42
0.015583
  0
VERTEX
  8
0
 10
4.228749
 20
25.717138
 42
0.012784
  0
VERTEX
  8
0
 10
4.135786
 20
25.486197
 42
0.010960
  0
VERTEX
  8
0
 10
4.042308
 20
25.217856
 42
0.006371
  0
VERTEX
  8
0
 10
3.941314
 20
24.892000
 42
-0.004027
  0
VERTEX
  8
0
 10
3.883187
 20
24.701302
 42
-0.004144
  0
VERTEX
  8
0
 10
3.822534
 20
24.513381
 42
-0.004012
  0
VERTEX
  8
0
 10
3.767297
 20
24.351333
 42
-0.017537
  0
VERTEX
  8
0
 10
3.730534
 20
24.257000
 42
0.021027
  0
VERTEX
  8
0
 10
3.693770
 20
24.160683
 42
0.004356
  0
VERTEX
  8
0
 10
3.637775
 20
23.988183
 42
0.004570
  0
VERTEX
  8
0
 10
3.576287
 20
23.786572
 42
0.004295
  0
VERTEX
  8
0
 10
3.517172
 20
23.579667
 42
-0.006463
  0
VERTEX
  8
0
 10
3.457561
 20
23.374398
 42
-0.007165
  0
VERTEX
  8
0
 10
3.394579
 20
23.177705
 42
-0.006698
  0
VERTEX
  8
0
 10
3.336245
 20
23.011536
 42
-0.036460
  0
VERTEX
  8
0
 10
3.297037
 20
22.924649
 42
0.038169
  0
VERTEX
  8
0
 10
3.266489
 20
22.856334
 42
0.023619
  0
VERTEX
  8
0
 10
3.240746
 20
22.772206
 42
0.023638
  0
VERTEX
  8
0
 10
3.223091
 20
22.686196
 42
0.038817
  0
VERTEX
  8
0
 10
3.217333
 20
22.612146
 42
-0.046572
  0
VERTEX
  8
0
 10
3.211062
 20
22.544962
 42
-0.046179
  0
VERTEX
  8
0
 10
3.192462
 20
22.479901
 42
-0.050144
  0
VERTEX
  8
0
 10
3.165143
 20
22.426244
 42
-0.111983
  0
VERTEX
  8
0
 10
3.132667
 20
22.394333
 42
0.106459
  0
VERTEX
  8
0
 10
3.100208
 20
22.363130
 42
0.051202
  0
VERTEX
  8
0
 10
3.072871
 20
22.311960
 42
0.047500
  0
VERTEX
  8
0
 10
3.054276
 20
22.250417
 42
0.049665
  0
VERTEX
  8
0
 10
3.048000
 20
22.187393
 42
-0.061616
  0
VERTEX
  8
0
 10
3.024125
 20
21.994384
 42
-0.008179
  0
VERTEX
  8
0
 10
2.917210
 20
21.596507
 42
-0.009377
  0
VERTEX
  8
0
 10
2.796053
 20
21.201510
 42
-0.041351
  0
VERTEX
  8
0
 10
2.701521
 20
20.977316
 42
0.037287
  0
VERTEX
  8
0
 10
2.672063
 20
20.909007
 42
0.022870
  0
VERTEX
  8
0
 10
2.647243
 20
20.824873
 42
0.022874
  0
VERTEX
  8
0
 10
2.630218
 20
20.738863
 42
0.037434
  0
VERTEX
  8
0
 10
2.624667
 20
20.664812
 42
-0.046572
  0
VERTEX
  8
0
 10
2.618395
 20
20.597629
 42
-0.046179
  0
VERTEX
  8
0
 10
2.599796
 20
20.532567
 42
-0.050144
  0
VERTEX
  8
0
 10
2.572476
 20
20.478911
 42
-0.111983
  0
VERTEX
  8
0
 10
2.540000
 20
20.447000
 42
0.106459
  0
VERTEX
  8
0
 10
2.507542
 20
20.415796
 42
0.051202
  0
VERTEX
  8
0
 10
2.480204
 20
20.364626
 42
0.047500
  0
VERTEX
  8
0
 10
2.461609
 20
20.303083
 42
0.049665
  0
VERTEX
  8
0
 10
2.455333
 20
20.240059
 42
-0.060199
  0
VERTEX
  8
0
 10
2.435819
 20
20.078570
 42
-0.006446
  0
VERTEX
  8
0
 10
2.341042
 20
19.712585
 42
-0.008664
  0
VERTEX
  8
0
 10
2.228392
 20
19.326102
 42
-0.014732
  0
VERTEX
  8
0
 10
2.119176
 20
19.007667
 42
0.012140
  0
VERTEX
  8
0
 10
2.025526
 20
18.739162
 42
0.010296
  0
VERTEX
  8
0
 10
1.939408
 20
18.451327
 42
0.010461
  0
VERTEX
  8
0
 10
1.866900
 20
18.166416
 42
0.014318
  0
VERTEX
  8
0
 10
1.814408
 20
17.907000
 42
-0.012436
  0
VERTEX
  8
0
 10
1.787448
 20
17.771133
 42
-0.014278
  0
VERTEX
  8
0
 10
1.754811
 20
17.642946
 42
-0.013451
  0
VERTEX
  8
0
 10
1.721285
 20
17.536367
 42
-0.075754
  0
VERTEX
  8
0
 10
1.693655
 20
17.483667
 42
0.053823
  0
VERTEX
  8
0
 10
1.666549
 20
17.437036
 42
0.016643
  0
VERTEX
  8
0
 10
1.635954
 20
17.361694
 42
0.016433
  0
VERTEX
  8
0
 10
1.607126
 20
17.274580
 42
0.017363
  0
VERTEX
  8
0
 10
1.584662
 20
17.187333
 42
-0.008074
  0
VERTEX
  8
0
 10
1.554294
 20
17.059606
 42
-0.001057
  0
VERTEX
  8
0
 10
1.484745
 20
16.789135
 42
-0.001229
  0
VERTEX
  8
0
 10
1.400780
 20
16.468684
 42
-0.001028
  0
VERTEX
  8
0
 10
1.310136
 20
16.129000
 42
0.013350
  0
VERTEX
  8
0
 10
1.048997
 20
15.043724
 42
0.022803
  0
VERTEX
  8
0
 10
0.897003
 20
14.124308
 42
0.027081
  0
VERTEX
  8
0
 10
0.849439
 20
13.383124
 42
0.076741
  0
VERTEX
  8
0
 10
0.923204
 20
12.871698
 42
-0.000292
  0
VERTEX
  8
0
 10
0.972268
 20
12.710722
 42
-0.000074
  0
VERTEX
  8
0
 10
1.051724
 20
12.449341
 42
-0.000076
  0
VERTEX
  8
0
 10
1.142389
 20
12.150766
 42
-0.000077
  0
VERTEX
  8
0
 10
1.232608
 20
11.853333
 42
0.003746
  0
VERTEX
  8
0
 10
1.377969
 20
11.386474
 42
0.010117
  0
VERTEX
  8
0
 10
1.490330
 20
11.057972
 42
0.013679
  0
VERTEX
  8
0
 10
1.592663
 20
10.799635
 42
0.016519
  0
VERTEX
  8
0
 10
1.703211
 20
10.563316
 42
-0.022622
  0
VERTEX
  8
0
 10
1.731841
 20
10.500117
 42
-0.019866
  0
VERTEX
  8
0
 10
1.756031
 20
10.431817
 42
-0.020336
  0
VERTEX
  8
0
 10
1.772905
 20
10.368385
 42
-0.054888
  0
VERTEX
  8
0
 10
1.778000
 20
10.322111
 42
0.065993
  0
VERTEX
  8
0
 10
1.784949
 20
10.269692
 42
0.012554
  0
VERTEX
  8
0
 10
1.812412
 20
10.177221
 42
0.013199
  0
VERTEX
  8
0
 10
1.850301
 20
10.070179
 42
0.011789
  0
VERTEX
  8
0
 10
1.895148
 20
9.961129
 42
0.000190
  0
VERTEX
  8
0
 10
1.951849
 20
9.832131
 42
0.000083
  0
VERTEX
  8
0
 10
2.027275
 20
9.660786
 42
0.000082
  0
VERTEX
  8
0
 10
2.107492
 20
9.478721
 42
0.000109
  0
VERTEX
  8
0
 10
2.180437
 20
9.313333
 42
-0.005436
  0
VERTEX
  8
0
 10
2.249574
 20
9.151943
 42
-0.004783
  0
VERTEX
  8
0
 10
2.318269
 20
8.982075
 42
-0.004810
  0
VERTEX
  8
0
 10
2.377301
 20
8.827642
 42
-0.014425
  0
VERTEX
  8
0
 10
2.413541
 20
8.720667
 42
0.019411
  0
VERTEX
  8
0
 10
2.453868
 20
8.605424
 42
0.004338
  0
VERTEX
  8
0
 10
2.531956
 20
8.412219
 42
0.004496
  0
VERTEX
  8
0
 10
2.626133
 20
8.190563
 42
0.004332
  0
VERTEX
  8
0
 10
2.725430
 20
7.967866
 42
-0.008448
  0
VERTEX
  8
0
 10
2.823509
 20
7.742938
 42
-0.008422
  0
VERTEX
  8
0
 10
2.914039
 20
7.514593
 42
-0.008300
  0
VERTEX
  8
0
 10
2.986414
 20
7.312573
 42
-0.032515
  0
VERTEX
  8
0
 10
3.020760
 20
7.184699
 42
0.027693
  0
VERTEX
  8
0
 10
3.044704
 20
7.091997
 42
0.040114
  0
VERTEX
  8
0
 10
3.076709
 20
7.013764
 42
0.046102
  0
VERTEX
  8
0
 10
3.111494
 20
6.958361
 42
0.233619
  0
VERTEX
  8
0
 10
3.143250
 20
6.942667
 42
-0.207449
  0
VERTEX
  8
0
 10
3.171572
 20
6.930388
 42
-0.082457
  0
VERTEX
  8
0
 10
3.195571
 20
6.894393
 42
-0.062851
  0
VERTEX
  8
0
 10
3.211895
 20
6.841242
 42
-0.043138
  0
VERTEX
  8
0
 10
3.217333
 20
6.778330
 42
0.038540
  0
VERTEX
  8
0
 10
3.222431
 20
6.712298
 42
0.041951
  0
VERTEX
  8
0
 10
3.237603
 20
6.649740
 42
0.046044
  0
VERTEX
  8
0
 10
3.259812
 20
6.599169
 42
0.128548
  0
VERTEX
  8
0
 10
3.286336
 20
6.571348
 42
-0.147056
  0
VERTEX
  8
0
 10
3.320570
 20
6.532723
 42
-0.009051
  0
VERTEX
  8
0
 10
3.383189
 20
6.390628
 42
-0.012820
  0
VERTEX
  8
0
 10
3.451377
 20
6.215522
 42
-0.009109
  0
VERTEX
  8
0
 10
3.519152
 20
6.016018
 42
0.010525
  0
VERTEX
  8
0
 10
3.586530
 20
5.819513
 42
0.016500
  0
VERTEX
  8
0
 10
3.653504
 20
5.653934
 42
0.010719
  0
VERTEX
  8
0
 10
3.715024
 20
5.522850
 42
0.285000
  0
VERTEX
  8
0
 10
3.746483
 20
5.503333
 42
-0.231917
  0
VERTEX
  8
0
 10
3.770820
 20
5.491403
 42
-0.072734
  0
VERTEX
  8
0
 10
3.791342
 20
5.455059
 42
-0.055470
  0
VERTEX
  8
0
 10
3.805361
 20
5.401933
 42
-0.036808
  0
VERTEX
  8
0
 10
3.810000
 20
5.338997
 42
0.043439
  0
VERTEX
  8
0
 10
3.815784
 20
5.272550
 42
0.044671
  0
VERTEX
  8
0
 10
3.832957
 20
5.208746
 42
0.048796
  0
VERTEX
  8
0
 10
3.858154
 20
5.156548
 42
0.118038
  0
VERTEX
  8
0
 10
3.888153
 20
5.126359
 42
-0.127219
  0
VERTEX
  8
0
 10
3.922117
 20
5.090920
 42
-0.026059
  0
VERTEX
  8
0
 10
3.960859
 20
5.012518
 42
-0.025878
  0
VERTEX
  8
0
 10
3.997359
 20
4.914091
 42
-0.021794
  0
VERTEX
  8
0
 10
4.025919
 20
4.806641
 42
0.011813
  0
VERTEX
  8
0
 10
4.053656
 20
4.693210
 42
0.010552
  0
VERTEX
  8
0
 10
4.087696
 20
4.576831
 42
0.010648
  0
VERTEX
  8
0
 10
4.122717
 20
4.473564
 42
0.032065
  0
VERTEX
  8
0
 10
4.152514
 20
4.405446
 42
-0.014562
  0
VERTEX
  8
0
 10
4.289641
 20
4.119635
 42
-0.009167
  0
VERTEX
  8
0
 10
4.433824
 20
3.778504
 42
-0.008638
  0
VERTEX
  8
0
 10
4.557164
 20
3.455028
 42
-0.033020
  0
VERTEX
  8
0
 10
4.616962
 20
3.247843
 42
0.010587
  0
VERTEX
  8
0
 10
4.642253
 20
3.142741
 42
0.007727
  0
VERTEX
  8
0
 10
4.674613
 20
3.027064
 42
0.007812
  0
VERTEX
  8
0
 10
4.708709
 20
2.918325
 42
0.017027
  0
VERTEX
  8
0
 10
4.738966
 20
2.836333
 42
-0.016521
  0
VERTEX
  8
0
 10
4.777757
 20
2.731543
 42
-0.002038
  0
VERTEX
  8
0
 10
4.853852
 20
2.499919
 42
-0.002407
  0
VERTEX
  8
0
 10
4.941819
 20
2.223907
 42
-0.001988
  0
VERTEX
  8
0
 10
5.032996
 20
1.928882
 42
0.010749
  0
VERTEX
  8
0
 10
5.156335
 20
1.553251
 42
0.033653
  0
VERTEX
  8
0
 10
5.261269
 20
1.309179
 42
0.050123
  0
VERTEX
  8
0
 10
5.369435
 20
1.141711
 42
0.069707
  0
VERTEX
  8
0
 10
5.498918
 20
1.019144
 42
0.104984
  0
VERTEX
  8
0
 10
5.719638
 20
0.923324
 42
0.133751
  0
VERTEX
  8
0
 10
5.940207
 20
0.937803
 42
0.059632
  0
VERTEX
  8
0
 10
6.244889
 20
1.085205
 42
0.007903
  0
VERTEX
  8
0
 10
6.842787
 20
1.481667
 42
-0.001399
  0
VERTEX
  8
0
 10
7.089564
 20
1.649965
 42
-0.001723
  0
VERTEX
  8
0
 10
7.320740
 20
1.805517
 42
-0.001422
  0
VERTEX
  8
0
 10
7.515808
 20
1.934998
 42
-0.012601
  0
VERTEX
  8
0
 10
7.603404
 20
1.989667
 42
0.008072
  0
VERTEX
  8
0
 10
7.661483
 20
2.025187
 42
0.008557
  0
VERTEX
  8
0
 10
7.717254
 20
2.061898
 42
0.008238
  0
VERTEX
  8
0
 10
7.764173
 20
2.095093
 42
0.038314
  0
VERTEX
  8
0
 10
7.789333
 20
2.116667
 42
-0.063440
  0
VERTEX
  8
0
 10
7.841736
 20
2.157227
 42
-0.003251
  0
VERTEX
  8
0
 10
8.027760
 20
2.265093
 42
-0.004507
  0
VERTEX
  8
0
 10
8.272394
 20
2.401917
 42
-0.002068
  0
VERTEX
  8
0
 10
8.593667
 20
2.576098
 42
0.008148
  0
VERTEX
  8
0
 10
8.661600
 20
2.614005
 42
0.009134
  0
VERTEX
  8
0
 10
8.725694
 20
2.652733
 42
0.008530
  0
VERTEX
  8
0
 10
8.779001
 20
2.687571
 42
0.047406
  0
VERTEX
  8
0
 10
8.805333
 20
2.709333
 42
-0.047406
  0
VERTEX
  8
0
 10
8.831666
 20
2.731095
 42
-0.008530
  0
VERTEX
  8
0
 10
8.884973
 20
2.765934
 42
-0.009134
  0
VERTEX
  8
0
 10
8.949067
 20
2.804661
 42
-0.008148
  0
VERTEX
  8
0
 10
9.017000
 20
2.842568
 42
0.002082
  0
VERTEX
  8
0
 10
9.340994
 20
3.018237
 42
0.004683
  0
VERTEX
  8
0
 10
9.584924
 20
3.154798
 42
0.003460
  0
VERTEX
  8
0
 10
9.768930
 20
3.261784
 42
0.065420
  0
VERTEX
  8
0
 10
9.821333
 20
3.302811
 42
-0.067454
  0
VERTEX
  8
0
 10
9.852625
 20
3.327105
 42
-0.004593
  0
VERTEX
  8
0
 10
9.950715
 20
3.382784
 42
-0.006508
  0
VERTEX
  8
0
 10
10.069529
 20
3.446783
 42
-0.004834
  0
VERTEX
  8
0
 10
10.202333
 20
3.514477
 42
0.004657
  0
VERTEX
  8
0
 10
10.335139
 20
3.582112
 42
0.006278
  0
VERTEX
  8
0
 10
10.453952
 20
3.645932
 42
0.004404
  0
VERTEX
  8
0
 10
10.552123
 20
3.701397
 42
0.065672
  0
VERTEX
  8
0
 10
10.583333
 20
3.725333
 42
-0.063440
  0
VERTEX
  8
0
 10
10.635736
 20
3.765893
 42
-0.003251
  0
VERTEX
  8
0
 10
10.821760
 20
3.873760
 42
-0.004507
  0
VERTEX
  8
0
 10
11.066394
 20
4.010583
 42
-0.002068
  0
VERTEX
  8
0
 10
11.387667
 20
4.184765
 42
0.008204
  0
VERTEX
  8
0
 10
11.455600
 20
4.222682
 42
0.009193
  0
VERTEX
  8
0
 10
11.519694
 20
4.261439
 42
0.008589
  0
VERTEX
  8
0
 10
11.572996
 20
4.296318
 42
0.047631
  0
VERTEX
  8
0
 10
11.599333
 20
4.318135
 42
-0.062118
  0
VERTEX
  8
0
 10
11.628620
 20
4.341002
 42
-0.006547
  0
VERTEX
  8
0
 10
11.703844
 20
4.384647
 42
-0.008018
  0
VERTEX
  8
0
 10
11.795304
 20
4.434211
 42
-0.006352
  0
VERTEX
  8
0
 10
11.895667
 20
4.484923
 42
0.011577
  0
VERTEX
  8
0
 10
12.022029
 20
4.550439
 42
0.004130
  0
VERTEX
  8
0
 10
12.199408
 20
4.649596
 42
0.004095
  0
VERTEX
  8
0
 10
12.392303
 20
4.761630
 42
0.004825
  0
VERTEX
  8
0
 10
12.573000
 20
4.870936
 42
-0.003042
  0
VERTEX
  8
0
 10
12.744389
 20
4.975448
 42
-0.003496
  0
VERTEX
  8
0
 10
12.909285
 20
5.073066
 42
-0.003147
  0
VERTEX
  8
0
 10
13.050139
 20
5.153944
 42
-0.020128
  0
VERTEX
  8
0
 10
13.123333
 20
5.191556
 42
0.020280
  0
VERTEX
  8
0
 10
13.193006
 20
5.227386
 42
0.004186
  0
VERTEX
  8
0
 10
13.312510
 20
5.296432
 42
0.004395
  0
VERTEX
  8
0
 10
13.450027
 20
5.379064
 42
0.004127
  0
VERTEX
  8
0
 10
13.589000
 20
5.465829
 42
-0.008810
  0
VERTEX
  8
0
 10
13.735718
 20
5.555531
 42
-0.007074
  0
VERTEX
  8
0
 10
13.896578
 20
5.646991
 42
-0.007159
  0
VERTEX
  8
0
 10
14.047710
 20
5.727315
 42
-0.018066
  0
VERTEX
  8
0
 10
14.160500
 20
5.780149
 42
0.022463
  0
VERTEX
  8
0
 10
14.249674
 20
5.822881
 42
0.031250
  0
VERTEX
  8
0
 10
14.324938
 20
5.869469
 42
0.032052
  0
VERTEX
  8
0
 10
14.379506
 20
5.913670
 42
0.209457
  0
VERTEX
  8
0
 10
14.393333
 20
5.945229
 42
-0.184823
  0
VERTEX
  8
0
 10
14.402992
 20
5.970465
 42
-0.090202
  0
VERTEX
  8
0
 10
14.430640
 20
5.991915
 42
-0.070058
  0
VERTEX
  8
0
 10
14.471736
 20
6.006454
 42
-0.050078
  0
VERTEX
  8
0
 10
14.520333
 20
6.011333
 42
0.060283
  0
VERTEX
  8
0
 10
14.568900
 20
6.017210
 42
0.079016
  0
VERTEX
  8
0
 10
14.610027
 20
6.034528
 42
0.097128
  0
VERTEX
  8
0
 10
14.637566
 20
6.060178
 42
0.158110
  0
VERTEX
  8
0
 10
14.647333
 20
6.090294
 42
-0.182516
  0
VERTEX
  8
0
 10
14.660363
 20
6.124799
 42
-0.053687
  0
VERTEX
  8
0
 10
14.702812
 20
6.163669
 42
-0.046145
  0
VERTEX
  8
0
 10
14.763903
 20
6.200448
 42
-0.035605
  0
VERTEX
  8
0
 10
14.836196
 20
6.229198
 42
0.048191
  0
VERTEX
  8
0
 10
14.989893
 20
6.294841
 42
0.015612
  0
VERTEX
  8
0
 10
15.203329
 20
6.420232
 42
0.015612
  0
VERTEX
  8
0
 10
15.429668
 20
6.572965
 42
0.018714
  0
VERTEX
  8
0
 10
15.632349
 20
6.731000
 42
-0.014554
  0
VERTEX
  8
0
 10
15.696709
 20
6.782049
 42
-0.001547
  0
VERTEX
  8
0
 10
15.850260
 20
6.895987
 42
-0.001908
  0
VERTEX
  8
0
 10
16.034107
 20
7.030445
 42
-0.001532
  0
VERTEX
  8
0
 10
16.232927
 20
7.173765
 42
0.019653
  0
VERTEX
  8
0
 10
16.713418
 20
7.547310
 42
0.055143
  0
VERTEX
  8
0
 10
17.006742
 20
7.855618
 42
0.037630
  0
VERTEX
  8
0
 10
17.281970
 20
8.280230
 42
0.005519
  0
VERTEX
  8
0
 10
17.763921
 20
9.186333
 42
0.006073
  0
VERTEX
  8
0
 10
17.840673
 20
9.339070
 42
0.003852
  0
VERTEX
  8
0
 10
17.926555
 20
9.518782
 42
0.003868
  0
VERTEX
  8
0
 10
18.008166
 20
9.696558
 42
0.007140
  0
VERTEX
  8
0
 10
18.071311
 20
9.842500
 42
-0.001564
  0
VERTEX
  8
0
 10
18.131080
 20
9.984980
 42
-0.000980
  0
VERTEX
  8
0
 10
18.201858
 20
10.151323
 42
-0.000984
  0
VERTEX
  8
0
 10
18.272196
 20
10.314848
 42
-0.001796
  0
VERTEX
  8
0
 10
18.330333
 20
10.447962
 42
0.006125
  0
VERTEX
  8
0
 10
18.378977
 20
10.562023
 42
0.008248
  0
VERTEX
  8
0
 10
18.420027
 20
10.666501
 42
0.005944
  0
VERTEX
  8
0
 10
18.451769
 20
10.754553
 42
0.083720
  0
VERTEX
  8
0
 10
18.457333
 20
10.787552
 42
-0.090738
  0
VERTEX
  8
0
 10
18.463705
 20
10.822374
 42
-0.003701
  0
VERTEX
  8
0
 10
18.509969
 20
10.941879
 42
-0.006356
  0
VERTEX
  8
0
 10
18.567869
 20
11.082946
 42
-0.004453
  0
VERTEX
  8
0
 10
18.636518
 20
11.240423
 42
0.000773
  0
VERTEX
  8
0
 10
18.862825
 20
11.749297
 42
0.005000
  0
VERTEX
  8
0
 10
18.974009
 20
12.007287
 42
0.006281
  0
VERTEX
  8
0
 10
19.038851
 20
12.167603
 42
0.093215
  0
VERTEX
  8
0
 10
19.050000
 20
12.226885
 42
-0.099975
  0
VERTEX
  8
0
 10
19.064514
 20
12.298749
 42
-0.001831
  0
VERTEX
  8
0
 10
19.217283
 20
12.657838
 42
-0.004973
  0
VERTEX
  8
0
 10
19.368392
 20
13.000023
 42
-0.015165
  0
VERTEX
  8
0
 10
19.480252
 20
13.228018
 42
0.023172
  0
VERTEX
  8
0
 10
19.510013
 20
13.291217
 42
0.020493
  0
VERTEX
  8
0
 10
19.535161
 20
13.359517
 42
0.020998
  0
VERTEX
  8
0
 10
19.552706
 20
13.422952
 42
0.057021
  0
VERTEX
  8
0
 10
19.558000
 20
13.469222
 42
-0.070235
  0
VERTEX
  8
0
 10
19.565640
 20
13.523342
 42
-0.010984
  0
VERTEX
  8
0
 10
19.597842
 20
13.626548
 42
-0.012033
  0
VERTEX
  8
0
 10
19.641704
 20
13.747279
 42
-0.010231
  0
VERTEX
  8
0
 10
19.693633
 20
13.872538
 42
0.002840
  0
VERTEX
  8
0
 10
19.808317
 20
14.138009
 42
0.005658
  0
VERTEX
  8
0
 10
19.895517
 20
14.349670
 42
0.005830
  0
VERTEX
  8
0
 10
19.976231
 20
14.559126
 42
0.003225
  0
VERTEX
  8
0
 10
20.070156
 20
14.816667
 42
-0.006039
  0
VERTEX
  8
0
 10
20.175017
 20
15.099245
 42
-0.004965
  0
VERTEX
  8
0
 10
20.293571
 20
15.398371
 42
-0.004835
  0
VERTEX
  8
0
 10
20.406067
 20
15.666735
 42
-0.017162
  0
VERTEX
  8
0
 10
20.485685
 20
15.835446
 42
0.033267
  0
VERTEX
  8
0
 10
20.515656
 20
15.904641
 42
0.010257
  0
VERTEX
  8
0
 10
20.551611
 20
16.012517
 42
0.010211
  0
VERTEX
  8
0
 10
20.586981
 20
16.135157
 42
0.011040
  0
VERTEX
  8
0
 10
20.616333
 20
16.256000
 42
-0.010248
  0
VERTEX
  8
0
 10
20.645483
 20
16.376843
 42
-0.009504
  0
VERTEX
  8
0
 10
20.680245
 20
16.499483
 42
-0.009534
  0
VERTEX
  8
0
 10
20.715321
 20
16.607394
 42
-0.031247
  0
VERTEX
  8
0
 10
20.744221
 20
16.676554
 42
0.008402
  0
VERTEX
  8
0
 10
20.775846
 20
16.743473
 42
0.002772
  0
VERTEX
  8
0
 10
20.820111
 20
16.842823
 42
0.002760
  0
VERTEX
  8
0
 10
20.867993
 20
16.953571
 42
0.003127
  0
VERTEX
  8
0
 10
20.912667
 20
17.060333
 42
-0.003127
  0
VERTEX
  8
0
 10
20.957341
 20
17.167096
 42
-0.002760
  0
VERTEX
  8
0
 10
21.005222
 20
17.277843
 42
-0.002772
  0
VERTEX
  8
0
 10
21.049487
 20
17.377194
 42
-0.008402
  0
VERTEX
  8
0
 10
21.081112
 20
17.444112
 42
0.031247
  0
VERTEX
  8
0
 10
21.110012
 20
17.513273
 42
0.009534
  0
VERTEX
  8
0
 10
21.145089
 20
17.621184
 42
0.009504
  0
VERTEX
  8
0
 10
21.179850
 20
17.743824
 42
0.010248
  0
VERTEX
  8
0
 10
21.209000
 20
17.864667
 42
-0.010248
  0
VERTEX
  8
0
 10
21.238150
 20
17.985510
 42
-0.009504
  0
VERTEX
  8
0
 10
21.272911
 20
18.108149
 42
-0.009534
  0
VERTEX
  8
0
 10
21.307988
 20
18.216061
 42
-0.031247
  0
VERTEX
  8
0
 10
21.336888
 20
18.285221
 42
0.013990
  0
VERTEX
  8
0
 10
21.440140
 20
18.510173
 42
0.010550
  0
VERTEX
  8
0
 10
21.541348
 20
18.762662
 42
0.008007
  0
VERTEX
  8
0
 10
21.655233
 20
19.080441
 42
0.003271
  0
VERTEX
  8
0
 10
21.800217
 20
19.515667
 42
-0.002276
  0
VERTEX
  8
0
 10
21.890140
 20
19.787411
 42
-0.002683
  0
VERTEX
  8
0
 10
21.977804
 20
20.043775
 42
-0.002349
  0
VERTEX
  8
0
 10
22.054004
 20
20.259495
 42
-0.016791
  0
VERTEX
  8
0
 10
22.094820
 20
20.362333
 42
0.015998
  0
VERTEX
  8
0
 10
22.135816
 20
20.465149
 42
0.002234
  0
VERTEX
  8
0
 10
22.212850
 20
20.680892
 42
0.002552
  0
VERTEX
  8
0
 10
22.301631
 20
20.937256
 42
0.002164
  0
VERTEX
  8
0
 10
22.392877
 20
21.209000
 42
-0.001364
  0
VERTEX
  8
0
 10
22.483639
 20
21.480745
 42
-0.001614
  0
VERTEX
  8
0
 10
22.570965
 20
21.737108
 42
-0.001405
  0
VERTEX
  8
0
 10
22.645978
 20
21.953046
 42
-0.010261
  0
VERTEX
  8
0
 10
22.684333
 20
22.055667
 42
0.013034
  0
VERTEX
  8
0
 10
22.719661
 20
22.151813
 42
0.002635
  0
VERTEX
  8
0
 10
22.777035
 20
22.324483
 42
0.002779
  0
VERTEX
  8
0
 10
22.841610
 20
22.526095
 42
0.002597
  0
VERTEX
  8
0
 10
22.905435
 20
22.733000
 42
-0.007537
  0
VERTEX
  8
0
 10
22.969437
 20
22.933422
 42
-0.009715
  0
VERTEX
  8
0
 10
23.034548
 20
23.115402
 42
-0.007783
  0
VERTEX
  8
0
 10
23.094080
 20
23.265061
 42
-0.080145
  0
VERTEX
  8
0
 10
23.128962
 20
23.321433
 42
0.072248
  0
VERTEX
  8
0
 10
23.155718
 20
23.363193
 42
0.034022
  0
VERTEX
  8
0
 10
23.178191
 20
23.423344
 42
0.032821
  0
VERTEX
  8
0
 10
23.193536
 20
23.490725
 42
0.039595
  0
VERTEX
  8
0
 10
23.198667
 20
23.555416
 42
-0.040595
  0
VERTEX
  8
0
 10
23.204314
 20
23.624861
 42
-0.023342
  0
VERTEX
  8
0
 10
23.221743
 20
23.707046
 42
-0.023203
  0
VERTEX
  8
0
 10
23.247123
 20
23.788506
 42
-0.035589
  0
VERTEX
  8
0
 10
23.277223
 20
23.855982
 42
0.031875
  0
VERTEX
  8
0
 10
23.315902
 20
23.940990
 42
0.006471
  0
VERTEX
  8
0
 10
23.372764
 20
24.096603
 42
0.006799
  0
VERTEX
  8
0
 10
23.434182
 20
24.279606
 42
0.006325
  0
VERTEX
  8
0
 10
23.492157
 20
24.468667
 42
-0.004129
  0
VERTEX
  8
0
 10
23.549720
 20
24.659365
 42
-0.004248
  0
VERTEX
  8
0
 10
23.609898
 20
24.847285
 42
-0.004113
  0
VERTEX
  8
0
 10
23.664792
 20
25.009327
 42
-0.017958
  0
VERTEX
  8
0
 10
23.701466
 20
25.103667
 42
0.021027
  0
VERTEX
  8
0
 10
23.738230
 20
25.199984
 42
0.004356
  0
VERTEX
  8
0
 10
23.794225
 20
25.372483
 42
0.004570
  0
VERTEX
  8
0
 10
23.855713
 20
25.574095
 42
0.004295
  0
VERTEX
  8
0
 10
23.914828
 20
25.781000
 42
-0.006463
  0
VERTEX
  8
0
 10
23.974439
 20
25.986268
 42
-0.007165
  0
VERTEX
  8
0
 10
24.037421
 20
26.182962
 42
-0.006698
  0
VERTEX
  8
0
 10
24.095755
 20
26.349130
 42
-0.036460
  0
VERTEX
  8
0
 10
24.134963
 20
26.436018
 42
0.031094
  0
VERTEX
  8
0
 10
24.165486
 20
26.501769
 42
0.022909
  0
VERTEX
  8
0
 10
24.191254
 20
26.577830
 42
0.023312
  0
VERTEX
  8
0
 10
24.209017
 20
26.652282
 42
0.046934
  0
VERTEX
  8
0
 10
24.214667
 20
26.712333
 42
-0.043678
  0
VERTEX
  8
0
 10
24.219923
 20
26.772386
 42
-0.021881
  0
VERTEX
  8
0
 10
24.236443
 20
26.846836
 42
-0.021543
  0
VERTEX
  8
0
 10
24.260406
 20
26.922904
 42
-0.029698
  0
VERTEX
  8
0
 10
24.288797
 20
26.988649
 42
0.030295
  0
VERTEX
  8
0
 10
24.326114
 20
27.075347
 42
0.005427
  0
VERTEX
  8
0
 10
24.384032
 20
27.241705
 42
0.005843
  0
VERTEX
  8
0
 10
24.447578
 20
27.438398
 42
0.005248
  0
VERTEX
  8
0
 10
24.508902
 20
27.643667
 42
-0.005593
  0
VERTEX
  8
0
 10
24.570380
 20
27.848935
 42
-0.006217
  0
VERTEX
  8
0
 10
24.634389
 20
28.045628
 42
-0.005786
  0
VERTEX
  8
0
 10
24.692957
 20
28.211928
 42
-0.032047
  0
VERTEX
  8
0
 10
24.731105
 20
28.298684
 42
0.037087
  0
VERTEX
  8
0
 10
24.760323
 20
28.366991
 42
0.022704
  0
VERTEX
  8
0
 10
24.784941
 20
28.451127
 42
0.022705
  0
VERTEX
  8
0
 10
24.801827
 20
28.537137
 42
0.037130
  0
VERTEX
  8
0
 10
24.807333
 20
28.611188
 42
-0.041426
  0
VERTEX
  8
0
 10
24.812872
 20
28.677926
 42
-0.043609
  0
VERTEX
  8
0
 10
24.829334
 20
28.741659
 42
-0.047767
  0
VERTEX
  8
0
 10
24.853467
 20
28.793537
 42
-0.122193
  0
VERTEX
  8
0
 10
24.882230
 20
28.822962
 42
0.159693
  0
VERTEX
  8
0
 10
24.914505
 20
28.861240
 42
0.020126
  0
VERTEX
  8
0
 10
24.951452
 20
28.964520
 42
0.021997
  0
VERTEX
  8
0
 10
24.985948
 20
29.094549
 42
0.016622
  0
VERTEX
  8
0
 10
25.012704
 20
29.239860
 42
-0.042445
  0
VERTEX
  8
0
 10
25.074438
 20
29.499206
 42
-0.039428
  0
VERTEX
  8
0
 10
25.180184
 20
29.751181
 42
-0.123170
  0
VERTEX
  8
0
 10
25.263804
 20
29.846278
 42
-0.596154
  0
VERTEX
  8
0
 10
25.312641
 20
29.821424
 42
0.092532
  0
VERTEX
  8
0
 10
25.336233
 20
29.710413
 42
0.003935
  0
VERTEX
  8
0
 10
25.493796
 20
29.339623
 42
0.005638
  0
VERTEX
  8
0
 10
25.712268
 20
28.851667
 42
0.002310
  0
VERTEX
  8
0
 10
26.019365
 20
28.194000
 42
0.009480
  0
VERTEX
  8
0
 10
26.061100
 20
28.109856
 42
0.011245
  0
VERTEX
  8
0
 10
26.103783
 20
28.032075
 42
0.010138
  0
VERTEX
  8
0
 10
26.142434
 20
27.968271
 42
0.067951
  0
VERTEX
  8
0
 10
26.166276
 20
27.940000
 42
-0.083959
  0
VERTEX
  8
0
 10
26.191463
 20
27.908130
 42
-0.006347
  0
VERTEX
  8
0
 10
26.243295
 20
27.810619
 42
-0.008611
  0
VERTEX
  8
0
 10
26.301965
 20
27.691802
 42
-0.006443
  0
VERTEX
  8
0
 10
26.362637
 20
27.559000
 42
0.008629
  0
VERTEX
  8
0
 10
26.668574
 20
26.897031
 42
0.029068
  0
VERTEX
  8
0
 10
26.900626
 20
26.480516
 42
0.044077
  0
VERTEX
  8
0
 10
27.091107
 20
26.232285
 42
0.210056
  0
VERTEX
  8
0
 10
27.251026
 20
26.162000
 42
0.095320
  0
VERTEX
  8
0
 10
27.333081
 20
26.177787
 42
0.021237
  0
VERTEX
  8
0
 10
27.463895
 20
26.236613
 42
0.021312
  0
VERTEX
  8
0
 10
27.611577
 20
26.318771
 42
0.019156
  0
VERTEX
  8
0
 10
27.757230
 20
26.416000
 42
-0.010701
  0
VERTEX
  8
0
 10
27.897754
 20
26.513279
 42
-0.014161
  0
VERTEX
  8
0
 10
28.029954
 20
26.595387
 42
-0.011506
  0
VERTEX
  8
0
 10
28.142543
 20
26.657548
 42
-0.120946
  0
VERTEX
  8
0
 10
28.193267
 20
26.670000
 42
0.075615
  0
VERTEX
  8
0
 10
28.225895
 20
26.674963
 42
0.089094
  0
VERTEX
  8
0
 10
28.253580
 20
26.689362
 42
0.100722
  0
VERTEX
  8
0
 10
28.272088
 20
26.710777
 42
0.128688
  0
VERTEX
  8
0
 10
28.278667
 20
26.735914
 42
-0.337240
  0
VERTEX
  8
0
 10
28.335419
 20
26.810486
 42
-0.005849
  0
VERTEX
  8
0
 10
28.859201
 20
26.948730
 42
-0.013636
  0
VERTEX
  8
0
 10
29.369881
 20
27.062435
 42
-0.048623
  0
VERTEX
  8
0
 10
29.702881
 20
27.094044
 42
0.135755
  0
VERTEX
  8
0
 10
30.037930
 20
27.185810
 42
0.181718
  0
VERTEX
  8
0
 10
30.232919
 20
27.429872
 42
0.163065
  0
VERTEX
  8
0
 10
30.230006
 20
27.764359
 42
0.108419
  0
VERTEX
  8
0
 10
30.028444
 20
28.094604
 42
-0.019702
  0
VERTEX
  8
0
 10
29.942008
 20
28.192250
 42
-0.023683
  0
VERTEX
  8
0
 10
29.868989
 20
28.290768
 42
-0.023328
  0
VERTEX
  8
0
 10
29.816234
 20
28.378018
 42
-0.124938
  0
VERTEX
  8
0
 10
29.802667
 20
28.431466
 42
0.060843
  0
VERTEX
  8
0
 10
29.797938
 20
28.470180
 42
0.079266
  0
VERTEX
  8
0
 10
29.784014
 20
28.502998
 42
0.097043
  0
VERTEX
  8
0
 10
29.763386
 20
28.525009
 42
0.156559
  0
VERTEX
  8
0
 10
29.739167
 20
28.532868
 42
-0.244100
  0
VERTEX
  8
0
 10
29.704657
 20
28.550922
 42
-0.009166
  0
VERTEX
  8
0
 10
29.620644
 20
28.675958
 42
-0.014729
  0
VERTEX
  8
0
 10
29.525572
 20
28.833190
 42
-0.009622
  0
VERTEX
  8
0
 10
29.424855
 20
29.019701
 42
0.004242
  0
VERTEX
  8
0
 10
29.325137
 20
29.209214
 42
0.006029
  0
VERTEX
  8
0
 10
29.233052
 20
29.375821
 42
0.003548
  0
VERTEX
  8
0
 10
29.152999
 20
29.514326
 42
0.084304
  0
VERTEX
  8
0
 10
29.124111
 20
29.548667
 42
-0.105010
  0
VERTEX
  8
0
 10
29.045209
 20
29.650681
 42
-0.011459
  0
VERTEX
  8
0
 10
28.921851
 20
29.922404
 42
-0.012313
  0
VERTEX
  8
0
 10
28.811825
 20
30.198981
 42
-0.088731
  0
VERTEX
  8
0
 10
28.786667
 20
30.339632
 42
0.058224
  0
VERTEX
  8
0
 10
28.780386
 20
30.393384
 42
0.050373
  0
VERTEX
  8
0
 10
28.761796
 20
30.447080
 42
0.052970
  0
VERTEX
  8
0
 10
28.734423
 20
30.492766
 42
0.093165
  0
VERTEX
  8
0
 10
28.702000
 20
30.522333
 42
-0.131119
  0
VERTEX
  8
0
 10
28.669443
 20
30.556831
 42
-0.045300
  0
VERTEX
  8
0
 10
28.642204
 20
30.620336
 42
-0.041270
  0
VERTEX
  8
0
 10
28.623585
 20
30.699093
 42
-0.037432
  0
VERTEX
  8
0
 10
28.617333
 20
30.782479
 42
0.031229
  0
VERTEX
  8
0
 10
28.611686
 20
30.872803
 42
0.022455
  0
VERTEX
  8
0
 10
28.594606
 20
30.972437
 42
0.022797
  0
VERTEX
  8
0
 10
28.569656
 20
31.066125
 42
0.044674
  0
VERTEX
  8
0
 10
28.539964
 20
31.137316
 42
-0.072997
  0
VERTEX
  8
0
 10
28.387893
 20
31.569004
 42
-0.012539
  0
VERTEX
  8
0
 10
28.242355
 20
32.427745
 42
-0.012738
  0
VERTEX
  8
0
 10
28.116311
 20
33.497059
 42
-0.008782
  0
VERTEX
  8
0
 10
28.025783
 20
34.713333
 42
-0.001383
  0
VERTEX
  8
0
 10
27.917760
 20
36.713141
 42
-0.006728
  0
VERTEX
  8
0
 10
27.874928
 20
37.847392
 42
-0.004468
  0
VERTEX
  8
0
 10
27.863215
 20
38.610200
 42
-0.261646
  0
VERTEX
  8
0
 10
27.928256
 20
38.727742
 42
0.101527
  0
VERTEX
  8
0
 10
27.965200
 20
38.762571
 42
0.051993
  0
VERTEX
  8
0
 10
27.996346
 20
38.818435
 42
0.048625
  0
VERTEX
  8
0
 10
28.017517
 20
38.885092
 42
0.052640
  0
VERTEX
  8
0
 10
28.024667
 20
38.952812
 42
-0.037379
  0
VERTEX
  8
0
 10
28.030210
 20
39.026863
 42
-0.022843
  0
VERTEX
  8
0
 10
28.047209
 20
39.112873
 42
-0.022840
  0
VERTEX
  8
0
 10
28.071993
 20
39.197008
 42
-0.037251
  0
VERTEX
  8
0
 10
28.101407
 20
39.265316
 42
0.029913
  0
VERTEX
  8
0
 10
28.137248
 20
39.345299
 42
0.008261
  0
VERTEX
  8
0
 10
28.183841
 20
39.474976
 42
0.008313
  0
VERTEX
  8
0
 10
28.231837
 20
39.623891
 42
0.008609
  0
VERTEX
  8
0
 10
28.274270
 20
39.772603
 42
0.000000
  0
VERTEX
  8
0
 10
28.370392
 20
40.132872
 42
0.000000
  0
VERTEX
  8
0
 10
28.726696
 20
40.085877
 42
-0.010403
  0
VERTEX
  8
0
 10
28.884698
 20
40.061683
 42
-0.006853
  0
VERTEX
  8
0
 10
29.065384
 20
40.027598
 42
-0.006897
  0
VERTEX
  8
0
 10
29.240319
 20
39.989587
 42
-0.013219
  0
VERTEX
  8
0
 10
29.379333
 20
39.953471
 42
0.075817
  0
VERTEX
  8
0
 10
30.146950
 20
39.853678
 42
0.007505
  0
VERTEX
  8
0
 10
32.009876
 20
39.922780
 42
0.006104
  0
VERTEX
  8
0
 10
33.898463
 20
40.044374
 42
0.108463
  0
VERTEX
  8
0
 10
34.479351
 20
40.219355
 42
-0.038844
  0
VERTEX
  8
0
 10
34.547672
 20
40.250772
 42
-0.024210
  0
VERTEX
  8
0
 10
34.631794
 20
40.277252
 42
-0.024241
  0
VERTEX
  8
0
 10
34.717804
 20
40.295411
 42
-0.039921
  0
VERTEX
  8
0
 10
34.791854
 20
40.301333
 42
0.046572
  0
VERTEX
  8
0
 10
34.859038
 20
40.307605
 42
0.046179
  0
VERTEX
  8
0
 10
34.924099
 20
40.326204
 42
0.050144
  0
VERTEX
  8
0
 10
34.977756
 20
40.353524
 42
0.111983
  0
VERTEX
  8
0
 10
35.009667
 20
40.386000
 42
-0.128561
  0
VERTEX
  8
0
 10
35.043805
 20
40.418545
 42
-0.046040
  0
VERTEX
  8
0
 10
35.105864
 20
40.445796
 42
-0.041947
  0
VERTEX
  8
0
 10
35.182634
 20
40.464412
 42
-0.038534
  0
VERTEX
  8
0
 10
35.263667
 20
40.470667
 42
0.034390
  0
VERTEX
  8
0
 10
35.344277
 20
40.476217
 42
0.039271
  0
VERTEX
  8
0
 10
35.419767
 20
40.492782
 42
0.042998
  0
VERTEX
  8
0
 10
35.480240
 20
40.516968
 42
0.138584
  0
VERTEX
  8
0
 10
35.511870
 20
40.545954
 42
-0.118501
  0
VERTEX
  8
0
 10
35.544713
 20
40.578531
 42
-0.028003
  0
VERTEX
  8
0
 10
35.613362
 20
40.615096
 42
-0.027284
  0
VERTEX
  8
0
 10
35.699183
 20
40.649263
 42
-0.023927
  0
VERTEX
  8
0
 10
35.792033
 20
40.675609
 42
0.041096
  0
VERTEX
  8
0
 10
36.044017
 20
40.756544
 42
0.014067
  0
VERTEX
  8
0
 10
36.394429
 20
40.913474
 42
0.008204
  0
VERTEX
  8
0
 10
36.737918
 20
41.086057
 42
0.169229
  0
VERTEX
  8
0
 10
36.815889
 20
41.169167
 42
-0.117609
  0
VERTEX
  8
0
 10
36.834464
 20
41.193482
 42
-0.060790
  0
VERTEX
  8
0
 10
36.867006
 20
41.214014
 42
-0.055361
  0
VERTEX
  8
0
 10
36.907573
 20
41.227946
 42
-0.055109
  0
VERTEX
  8
0
 10
36.950273
 20
41.232667
 42
0.154421
  0
VERTEX
  8
0
 10
37.165953
 20
41.300905
 42
0.011607
  0
VERTEX
  8
0
 10
37.666324
 20
41.670395
 42
0.016170
  0
VERTEX
  8
0
 10
38.218421
 20
42.127555
 42
0.015732
  0
VERTEX
  8
0
 10
38.745048
 20
42.623503
 42
0.021915
  0
VERTEX
  8
0
 10
39.273142
 20
43.201739
 42
0.022440
  0
VERTEX
  8
0
 10
39.744204
 20
43.819580
 42
0.022317
  0
VERTEX
  8
0
 10
40.160324
 20
44.480486
 42
0.021147
  0
VERTEX
  8
0
 10
40.523981
 20
45.187614
 42
0.010451
  0
VERTEX
  8
0
 10
40.700803
 20
45.592438
 42
0.019379
  0
VERTEX
  8
0
 10
40.824461
 20
45.928946
 42
0.015897
  0
VERTEX
  8
0
 10
40.936249
 20
46.315356
 42
0.004879
  0
VERTEX
  8
0
 10
41.080665
 20
46.905333
 42
0.039620
  0
VERTEX
  8
0
 10
41.163016
 20
47.446161
 42
0.010683
  0
VERTEX
  8
0
 10
41.206883
 20
48.313334
 42
0.004777
  0
VERTEX
  8
0
 10
41.224568
 20
49.214498
 42
0.201530
  0
VERTEX
  8
0
 10
41.153163
 20
49.389371
 42
-0.084290
  0
VERTEX
  8
0
 10
41.118670
 20
49.437972
 42
-0.037136
  0
VERTEX
  8
0
 10
41.089721
 20
49.511560
 42
-0.035395
  0
VERTEX
  8
0
 10
41.069960
 20
49.596032
 42
-0.039781
  0
VERTEX
  8
0
 10
41.063333
 20
49.679191
 42
0.082885
  0
VERTEX
  8
0
 10
40.991396
 20
50.110166
 42
0.018379
  0
VERTEX
  8
0
 10
40.721709
 20
50.810586
 42
0.019941
  0
VERTEX
  8
0
 10
40.387908
 20
51.512018
 42
0.046926
  0
VERTEX
  8
0
 10
40.071546
 20
51.997183
 42
0.016873
  0
VERTEX
  8
0
 10
39.761189
 20
52.361672
 42
0.010018
  0
VERTEX
  8
0
 10
39.368437
 20
52.775616
 42
0.006616
  0
VERTEX
  8
0
 10
38.984427
 20
53.154286
 42
0.087477
  0
VERTEX
  8
0
 10
38.819667
 20
53.264758
 42
-0.019687
  0
VERTEX
  8
0
 10
38.658584
 20
53.343668
 42
-0.014790
  0
VERTEX
  8
0
 10
38.487723
 20
53.442511
 42
-0.013035
  0
VERTEX
  8
0
 10
38.338387
 20
53.540374
 42
-0.074098
  0
VERTEX
  8
0
 10
38.269333
 20
53.605236
 42
0.106579
  0
VERTEX
  8
0
 10
38.142368
 20
53.709955
 42
0.004472
  0
VERTEX
  8
0
 10
37.616990
 20
53.975755
 42
0.008197
  0
VERTEX
  8
0
 10
37.094988
 20
54.223443
 42
0.028135
  0
VERTEX
  8
0
 10
36.745333
 20
54.359217
 42
0.073906
  0
VERTEX
  8
0
 10
35.940752
 20
54.494505
 42
0.016102
  0
VERTEX
  8
0
 10
34.530576
 20
54.475953
 42
0.011970
  0
VERTEX
  8
0
 10
33.116532
 20
54.377809
 42
0.158866
  0
VERTEX
  8
0
 10
32.643233
 20
54.173036
 42
-0.067650
  0
VERTEX
  8
0
 10
32.602396
 20
54.145791
 42
-0.035188
  0
VERTEX
  8
0
 10
32.545481
 20
54.122867
 42
-0.034217
  0
VERTEX
  8
0
 10
32.482677
 20
54.107221
 42
-0.043963
  0
VERTEX
  8
0
 10
32.423408
 20
54.102000
 42
0.079199
  0
VERTEX
  8
0
 10
32.296260
 20
54.081733
 42
0.015911
  0
VERTEX
  8
0
 10
32.080052
 20
54.003312
 42
0.016030
  0
VERTEX
  8
0
 10
31.826315
 20
53.892477
 42
0.012718
  0
VERTEX
  8
0
 10
31.559500
 20
53.757170
 42
-0.045173
  0
VERTEX
  8
0
 10
31.481156
 20
53.723633
 42
-0.268142
  0
VERTEX
  8
0
 10
31.439263
 20
53.732552
 42
-0.188375
  0
VERTEX
  8
0
 10
31.416547
 20
53.777867
 42
-0.023078
  0
VERTEX
  8
0
 10
31.411333
 20
53.890765
 42
0.030588
  0
VERTEX
  8
0
 10
31.405668
 20
53.983281
 42
0.022390
  0
VERTEX
  8
0
 10
31.388553
 20
54.084759
 42
0.022766
  0
VERTEX
  8
0
 10
31.363551
 20
54.179746
 42
0.045653
  0
VERTEX
  8
0
 10
31.333784
 20
54.251316
 42
-0.014562
  0
VERTEX
  8
0
 10
31.230808
 20
54.461125
 42
-0.007381
  0
VERTEX
  8
0
 10
31.112876
 20
54.730703
 42
-0.003690
  0
VERTEX
  8
0
 10
31.002782
 20
54.998351
 42
-0.096009
  0
VERTEX
  8
0
 10
30.988000
 20
55.074625
 42
0.161149
  0
VERTEX
  8
0
 10
30.921681
 20
55.275052
 42
0.006341
  0
VERTEX
  8
0
 10
30.445828
 20
55.898695
 42
0.012228
  0
VERTEX
  8
0
 10
29.936039
 20
56.517732
 42
0.023987
  0
VERTEX
  8
0
 10
29.495796
 20
56.979687
 42
0.023347
  0
VERTEX
  8
0
 10
28.970039
 20
57.436006
 42
0.012263
  0
VERTEX
  8
0
 10
28.277484
 20
57.955530
 42
0.006690
  0
VERTEX
  8
0
 10
27.586174
 20
58.434286
 42
0.149171
  0
VERTEX
  8
0
 10
27.355518
 20
58.504667
 42
-0.090005
  0
VERTEX
  8
0
 10
27.320069
 20
58.511100
 42
-0.095356
  0
VERTEX
  8
0
 10
27.289942
 20
58.529538
 42
-0.099753
  0
VERTEX
  8
0
 10
27.269784
 20
58.557032
 42
-0.108871
  0
VERTEX
  8
0
 10
27.262667
 20
58.589333
 42
0.114280
  0
VERTEX
  8
0
 10
27.255187
 20
58.621630
 42
0.100347
  0
VERTEX
  8
0
 10
27.234057
 20
58.649129
 42
0.093748
  0
VERTEX
  8
0
 10
27.202463
 20
58.667583
 42
0.085634
  0
VERTEX
  8
0
 10
27.165272
 20
58.674000
 42
-0.084911
  0
VERTEX
  8
0
 10
27.104659
 20
58.684368
 42
-0.007365
  0
VERTEX
  8
0
 10
26.957219
 20
58.738784
 42
-0.009524
  0
VERTEX
  8
0
 10
26.782459
 20
58.810076
 42
-0.007254
  0
VERTEX
  8
0
 10
26.593772
 20
58.894540
 42
0.011798
  0
VERTEX
  8
0
 10
26.020074
 20
59.145117
 42
0.015422
  0
VERTEX
  8
0
 10
25.483833
 20
59.345348
 42
0.016033
  0
VERTEX
  8
0
 10
25.029675
 20
59.483083
 42
0.065693
  0
VERTEX
  8
0
 10
24.744858
 20
59.520667
 42
-0.042170
  0
VERTEX
  8
0
 10
24.678594
 20
59.526265
 42
-0.035110
  0
VERTEX
  8
0
 10
24.609885
 20
59.542990
 42
-0.036480
  0
VERTEX
  8
0
 10
24.548854
 20
59.567500
 42
-0.075697
  0
VERTEX
  8
0
 10
24.506767
 20
59.596661
 42
0.101854
  0
VERTEX
  8
0
 10
24.453498
 20
59.629616
 42
0.016802
  0
VERTEX
  8
0
 10
24.338042
 20
59.667546
 42
0.017863
  0
VERTEX
  8
0
 10
24.197100
 20
59.703248
 42
0.014941
  0
VERTEX
  8
0
 10
24.045333
 20
59.731255
 42
0.031911
  0
VERTEX
  8
0
 10
23.353519
 20
59.792856
 42
0.004584
  0
VERTEX
  8
0
 10
21.932876
 20
59.815362
 42
0.003232
  0
VERTEX
  8
0
 10
20.479315
 20
59.815665
 42
0.059790
  0
SEQEND
  0
POLYLINE
  8
0
 66
1
 70
1
  0
VERTEX
  8
0
 10
11.303000
 20
56.218667
 42
0.101869
  0
VERTEX
  8
0
 10
11.333629
 20
56.186222
 42
0.051943
  0
VERTEX
  8
0
 10
11.382831
 20
56.158871
 42
0.048549
  0
VERTEX
  8
0
 10
11.441573
 20
56.140278
 42
0.052427
  0
VERTEX
  8
0
 10
11.501285
 20
56.134000
 42
-0.125378
  0
VERTEX
  8
0
 10
11.650599
 20
56.095961
 42
-0.030261
  0
VERTEX
  8
0
 10
11.868557
 20
55.959490
 42
-0.026876
  0
VERTEX
  8
0
 10
12.123746
 20
55.755793
 42
-0.016742
  0
VERTEX
  8
0
 10
12.401061
 20
55.491756
 42
-0.016779
  0
VERTEX
  8
0
 10
12.756645
 20
55.104578
 42
-0.013837
  0
VERTEX
  8
0
 10
13.109902
 20
54.669216
 42
-0.008403
  0
VERTEX
  8
0
 10
13.413452
 20
54.259109
 42
-0.156350
  0
VERTEX
  8
0
 10
13.462000
 20
54.107649
 42
0.068474
  0
VERTEX
  8
0
 10
13.466757
 20
54.073079
 42
0.084174
  0
VERTEX
  8
0
 10
13.480653
 20
54.043670
 42
0.098690
  0
VERTEX
  8
0
 10
13.501282
 20
54.023878
 42
0.140294
  0
VERTEX
  8
0
 10
13.525500
 20
54.016673
 42
-0.266865
  0
VERTEX
  8
0
 10
13.619206
 20
53.961520
 42
-0.054100
  0
VERTEX
  8
0
 10
13.698985
 20
53.777537
 42
-0.053491
  0
VERTEX
  8
0
 10
13.740333
 20
53.567275
 42
-0.138273
  0
VERTEX
  8
0
 10
13.711772
 20
53.416747
 42
-0.000331
  0
VERTEX
  8
0
 10
13.674862
 20
53.342803
 42
-0.000188
  0
VERTEX
  8
0
 10
13.630091
 20
53.253344
 42
-0.000187
  0
VERTEX
  8
0
 10
13.584915
 20
53.163244
 42
-0.000309
  0
VERTEX
  8
0
 10
13.546667
 20
53.087149
 42
0.027149
  0
VERTEX
  8
0
 10
13.514247
 20
53.012983
 42
0.021033
  0
VERTEX
  8
0
 10
13.486871
 20
52.929180
 42
0.021464
  0
VERTEX
  8
0
 10
13.467939
 20
52.848602
 42
0.046996
  0
VERTEX
  8
0
 10
13.462000
 20
52.785557
 42
-0.064089
  0
VERTEX
  8
0
 10
13.441991
 20
52.630099
 42
-0.006093
  0
VERTEX
  8
0
 10
13.340249
 20
52.259878
 42
-0.008535
  0
VERTEX
  8
0
 10
13.223054
 20
51.877568
 42
-0.017498
  0
VERTEX
  8
0
 10
13.115752
 20
51.583167
 42
0.006094
  0
VERTEX
  8
0
 10
12.849415
 20
50.901185
 42
0.023214
  0
VERTEX
  8
0
 10
12.708458
 20
50.466701
 42
0.034696
  0
VERTEX
  8
0
 10
12.638707
 20
50.118914
 42
0.032152
  0
VERTEX
  8
0
 10
12.615333
 20
49.755798
 42
0.022686
  0
VERTEX
  8
0
 10
12.625101
 20
49.540639
 42
0.022939
  0
VERTEX
  8
0
 10
12.654321
 20
49.328054
 42
0.024379
  0
VERTEX
  8
0
 10
12.698887
 20
49.138757
 42
0.049334
  0
VERTEX
  8
0
 10
12.755417
 20
48.996629
 42
-0.007621
  0
VERTEX
  8
0
 10
12.822169
 20
48.862539
 42
-0.082633
  0
VERTEX
  8
0
 10
12.838920
 20
48.804670
 42
-0.552994
  0
VERTEX
  8
0
 10
12.822701
 20
48.791624
 42
-0.079828
  0
VERTEX
  8
0
 10
12.776583
 20
48.816353
 42
-0.010686
  0
VERTEX
  8
0
 10
12.062982
 20
49.385070
 42
-0.023558
  0
VERTEX
  8
0
 10
11.548991
 20
49.855680
 42
-0.026504
  0
VERTEX
  8
0
 10
11.119762
 20
50.335961
 42
-0.017722
  0
VERTEX
  8
0
 10
10.678890
 20
50.927000
 42
-0.009577
  0
VERTEX
  8
0
 10
10.436805
 20
51.291473
 42
-0.018133
  0
VERTEX
  8
0
 10
10.258317
 20
51.595487
 42
-0.017105
  0
VERTEX
  8
0
 10
10.095821
 20
51.923125
 42
-0.007549
  0
VERTEX
  8
0
 10
9.902603
 20
52.366333
 42
-0.059689
  0
VERTEX
  8
0
 10
9.621874
 20
53.354583
 42
-0.061558
  0
VERTEX
  8
0
 10
9.586724
 20
54.370690
 42
-0.067225
  0
VERTEX
  8
0
 10
9.792023
 20
55.277568
 42
-0.107353
  0
VERTEX
  8
0
 10
10.219582
 20
55.943500
 42
-0.017430
  0
VERTEX
  8
0
 10
10.424306
 20
56.134714
 42
-0.059772
  0
VERTEX
  8
0
 10
10.574554
 20
56.236851
 42
-0.076802
  0
VERTEX
  8
0
 10
10.723545
 20
56.286941
 42
-0.042782
  0
VERTEX
  8
0
 10
10.914775
 20
56.303333
 42
-0.023397
  0
VERTEX
  8
0
 10
11.047220
 20
56.297132
 42
-0.030297
  0
VERTEX
  8
0
 10
11.167374
 20
56.278462
 42
-0.031084
  0
VERTEX
  8
0
 10
11.262234
 20
56.251506
 42
-0.171194
  0
SEQEND
  0
POLYLINE
  8
0
 66
1
 70
1
  0
VERTEX
  8
0
 10
37.789835
 20
49.873925
 42
-0.064400
  0
VERTEX
  8
0
 10
37.886346
 20
49.822207
 42
-0.024375
  0
VERTEX
  8
0
 10
38.006544
 20
49.727114
 42
-0.023661
  0
VERTEX
  8
0
 10
38.128743
 20
49.609717
 42
-0.026636
  0
VERTEX
  8
0
 10
38.234277
 20
49.485652
 42
-0.034051
  0
VERTEX
  8
0
 10
38.363863
 20
49.289374
 42
-0.069794
  0
VERTEX
  8
0
 10
38.431432
 20
49.118263
 42
-0.049111
  0
VERTEX
  8
0
 10
38.461970
 20
48.899319
 42
-0.010110
  0
VERTEX
  8
0
 10
38.469860
 20
48.509136
 42
-0.015247
  0
VERTEX
  8
0
 10
38.457629
 20
48.108127
 42
-0.041200
  0
VERTEX
  8
0
 10
38.416975
 20
47.826442
 42
-0.043150
  0
VERTEX
  8
0
 10
38.331917
 20
47.562667
 42
-0.018103
  0
VERTEX
  8
0
 10
38.174789
 20
47.223982
 42
0.022181
  0
VERTEX
  8
0
 10
38.146160
 20
47.160933
 42
0.019706
  0
VERTEX
  8
0
 10
38.121969
 20
47.093080
 42
0.020165
  0
VERTEX
  8
0
 10
38.105077
 20
47.030274
 42
0.055661
  0
VERTEX
  8
0
 10
38.100000
 20
46.984808
 42
-0.147402
  0
VERTEX
  8
0
 10
38.034110
 20
46.766158
 42
-0.009241
  0
VERTEX
  8
0
 10
37.647235
 20
46.205339
 42
-0.014732
  0
VERTEX
  8
0
 10
37.220268
 20
45.645804
 42
-0.030653
  0
VERTEX
  8
0
 10
36.849353
 20
45.241670
 42
-0.015873
  0
VERTEX
  8
0
 10
36.470572
 20
44.899126
 42
-0.016132
  0
VERTEX
  8
0
 10
36.072812
 20
44.583223
 42
-0.011729
  0
VERTEX
  8
0
 10
35.712563
 20
44.328489
 42
-0.149096
  0
VERTEX
  8
0
 10
35.555755
 20
44.280667
 42
0.091867
  0
VERTEX
  8
0
 10
35.525054
 20
44.274978
 42
0.095968
  0
VERTEX
  8
0
 10
35.498957
 20
44.258697
 42
0.099438
  0
VERTEX
  8
0
 10
35.481493
 20
44.234411
 42
0.106704
  0
VERTEX
  8
0
 10
35.475333
 20
44.205875
 42
-0.188758
  0
VERTEX
  8
0
 10
35.462413
 20
44.172870
 42
-0.050505
  0
VERTEX
  8
0
 10
35.419374
 20
44.134845
 42
-0.043804
  0
VERTEX
  8
0
 10
35.357761
 20
44.098318
 42
-0.033266
  0
VERTEX
  8
0
 10
35.284833
 20
44.069098
 42
0.003910
  0
VERTEX
  8
0
 10
35.208791
 20
44.043696
 42
0.004731
  0
VERTEX
  8
0
 10
35.137857
 20
44.018629
 42
0.004035
  0
VERTEX
  8
0
 10
35.078571
 20
43.996502
 42
0.032103
  0
VERTEX
  8
0
 10
35.052000
 20
43.984333
 42
-0.032103
  0
VERTEX
  8
0
 10
35.025429
 20
43.972164
 42
-0.004035
  0
VERTEX
  8
0
 10
34.966143
 20
43.950037
 42
-0.004731
  0
VERTEX
  8
0
 10
34.895209
 20
43.924971
 42
-0.003910
  0
VERTEX
  8
0
 10
34.819167
 20
43.899569
 42
0.033266
  0
VERTEX
  8
0
 10
34.746239
 20
43.870349
 42
0.043804
  0
VERTEX
  8
0
 10
34.684626
 20
43.833822
 42
0.050505
  0
VERTEX
  8
0
 10
34.641587
 20
43.795797
 42
0.188758
  0
VERTEX
  8
0
 10
34.628667
 20
43.762792
 42
-0.167401
  0
VERTEX
  8
0
 10
34.618838
 20
43.734259
 42
-0.095046
  0
VERTEX
  8
0
 10
34.591023
 20
43.709970
 42
-0.075854
  0
VERTEX
  8
0
 10
34.549535
 20
43.693549
 42
-0.056426
  0
VERTEX
  8
0
 10
34.500518
 20
43.688000
 42
0.048148
  0
VERTEX
  8
0
 10
34.440914
 20
43.682247
 42
0.023668
  0
VERTEX
  8
0
 10
34.366826
 20
43.664134
 42
0.023236
  0
VERTEX
  8
0
 10
34.291021
 20
43.637867
 42
0.031217
  0
VERTEX
  8
0
 10
34.225351
 20
43.606755
 42
-0.042051
  0
VERTEX
  8
0
 10
34.142055
 20
43.569477
 42
-0.009936
  0
VERTEX
  8
0
 10
33.997166
 20
43.521964
 42
-0.010159
  0
VERTEX
  8
0
 10
33.827853
 20
43.473884
 42
-0.009853
  0
VERTEX
  8
0
 10
33.655000
 20
43.432194
 42
0.000536
  0
VERTEX
  8
0
 10
33.462288
 20
43.389497
 42
0.000314
  0
VERTEX
  8
0
 10
33.231667
 20
43.337990
 42
0.000314
  0
VERTEX
  8
0
 10
33.001049
 20
43.286179
 42
0.000535
  0
VERTEX
  8
0
 10
32.808333
 20
43.242539
 42
-0.033066
  0
VERTEX
  8
0
 10
32.571691
 20
43.204920
 42
-0.007271
  0
VERTEX
  8
0
 10
32.161162
 20
43.173247
 42
-0.007535
  0
VERTEX
  8
0
 10
31.684515
 20
43.150643
 42
-0.007180
  0
VERTEX
  8
0
 10
31.199667
 20
43.141934
 42
0.000000
  0
VERTEX
  8
0
 10
30.014333
 20
43.137667
 42
0.000000
  0
VERTEX
  8
0
 10
30.041108
 20
43.476333
 42
-0.019502
  0
VERTEX
  8
0
 10
30.057163
 20
43.611886
 42
-0.022619
  0
VERTEX
  8
0
 10
30.083240
 20
43.739144
 42
-0.022406
  0
VERTEX
  8
0
 10
30.114646
 20
43.843562
 42
-0.110400
  0
VERTEX
  8
0
 10
30.146941
 20
43.895433
 42
0.099710
  0
VERTEX
  8
0
 10
30.177391
 20
43.942111
 42
0.032879
  0
VERTEX
  8
0
 10
30.202776
 20
44.020410
 42
0.031238
  0
VERTEX
  8
0
 10
30.220172
 20
44.113194
 42
0.030729
  0
VERTEX
  8
0
 10
30.226000
 20
44.207937
 42
-0.029032
  0
VERTEX
  8
0
 10
30.231355
 20
44.300078
 42
-0.035257
  0
VERTEX
  8
0
 10
30.247397
 20
44.385060
 42
-0.037937
  0
VERTEX
  8
0
 10
30.270716
 20
44.452499
 42
-0.153304
  0
VERTEX
  8
0
 10
30.298842
 20
44.485025
 42
0.166010
  0
VERTEX
  8
0
 10
30.330133
 20
44.523077
 42
0.018856
  0
VERTEX
  8
0
 10
30.365840
 20
44.630298
 42
0.021171
  0
VERTEX
  8
0
 10
30.399036
 20
44.765114
 42
0.015721
  0
VERTEX
  8
0
 10
30.424633
 20
44.916353
 42
-0.046378
  0
VERTEX
  8
0
 10
30.470229
 20
45.112052
 42
-0.014304
  0
VERTEX
  8
0
 10
30.574229
 20
45.396784
 42
-0.014165
  0
VERTEX
  8
0
 10
30.709490
 20
45.710445
 42
-0.015041
  0
VERTEX
  8
0
 10
30.859791
 20
46.009629
 42
0.009960
  0
VERTEX
  8
0
 10
31.069919
 20
46.417517
 42
0.038045
  0
VERTEX
  8
0
 10
31.175867
 20
46.682984
 42
0.049615
  0
VERTEX
  8
0
 10
31.225912
 20
46.924246
 42
0.026351
  0
VERTEX
  8
0
 10
31.242000
 20
47.229302
 42
0.015639
  0
VERTEX
  8
0
 10
31.235734
 20
47.429573
 42
0.022091
  0
VERTEX
  8
0
 10
31.216723
 20
47.607021
 42
0.019207
  0
VERTEX
  8
0
 10
31.189673
 20
47.748199
 42
0.199979
  0
VERTEX
  8
0
 10
31.155952
 20
47.795187
 42
-0.227889
  0
VERTEX
  8
0
 10
31.112746
 20
47.862729
 42
-0.220648
  0
VERTEX
  8
0
 10
31.137782
 20
47.939991
 42
-0.080649
  0
VERTEX
  8
0
 10
31.255824
 20
48.032011
 42
-0.019444
  0
VERTEX
  8
0
 10
31.478430
 20
48.142943
 42
0.001459
  0
VERTEX
  8
0
 10
31.643485
 20
48.217913
 42
0.000417
  0
VERTEX
  8
0
 10
31.899091
 20
48.335170
 42
0.000420
  0
VERTEX
  8
0
 10
32.187324
 20
48.467979
 42
0.000445
  0
VERTEX
  8
0
 10
32.469667
 20
48.598667
 42
-0.001226
  0
VERTEX
  8
0
 10
33.170207
 20
48.921597
 42
-0.006380
  0
VERTEX
  8
0
 10
33.559362
 20
49.093859
 42
-0.009781
  0
VERTEX
  8
0
 10
33.873064
 20
49.220762
 42
-0.005984
  0
VERTEX
  8
0
 10
34.247667
 20
49.358726
 42
0.004437
  0
VERTEX
  8
0
 10
34.452936
 20
49.433605
 42
0.004937
  0
VERTEX
  8
0
 10
34.649628
 20
49.509563
 42
0.004578
  0
VERTEX
  8
0
 10
34.816026
 20
49.577488
 42
0.025666
  0
VERTEX
  8
0
 10
34.902684
 20
49.619139
 42
-0.036053
  0
VERTEX
  8
0
 10
34.970164
 20
49.649865
 42
-0.023623
  0
VERTEX
  8
0
 10
35.051621
 20
49.675776
 42
-0.023775
  0
VERTEX
  8
0
 10
35.133806
 20
49.693568
 42
-0.041437
  0
VERTEX
  8
0
 10
35.203251
 20
49.699333
 42
0.044407
  0
VERTEX
  8
0
 10
35.267943
 20
49.705090
 42
0.036227
  0
VERTEX
  8
0
 10
35.335322
 20
49.722290
 42
0.037550
  0
VERTEX
  8
0
 10
35.395397
 20
49.747507
 42
0.074770
  0
VERTEX
  8
0
 10
35.437233
 20
49.777485
 42
-0.086204
  0
VERTEX
  8
0
 10
35.484891
 20
49.810021
 42
-0.024425
  0
VERTEX
  8
0
 10
35.568652
 20
49.843303
 42
-0.023836
  0
VERTEX
  8
0
 10
35.668529
 20
49.872207
 42
-0.023158
  0
VERTEX
  8
0
 10
35.771667
 20
49.891799
 42
-0.027660
  0
VERTEX
  8
0
 10
36.232744
 20
49.931604
 42
-0.009917
  0
VERTEX
  8
0
 10
36.892405
 20
49.938846
 42
-0.006956
  0
VERTEX
  8
0
 10
37.542618
 20
49.924039
 42
-0.081842
  0
SEQEND
  0
ENDSEC
  0
EOF
