999
DXF data, created by potrace 1.16, written by Peter Selinger 2001-2019
  0
SECTION
  2
HEADER
  9
$ACADVER
  1
AC1006
  9
$EXTMIN
 10
0.000000
 20
0.000000
 30
0.000000
  9
$EXTMAX
 10
35.306000
 20
66.548000
 30
0.000000
  0
ENDSEC
  0
SECTION
  2
ENTITIES
  0
POLYLINE
  8
0
 66
1
 70
1
  0
VERTEX
  8
0
 10
9.017000
 20
65.618842
 42
-0.083254
  0
VERTEX
  8
0
 10
8.900329
 20
65.588986
 42
-0.005760
  0
VERTEX
  8
0
 10
8.560409
 20
65.564167
 42
-0.008069
  0
VERTEX
  8
0
 10
8.152202
 20
65.545693
 42
-0.005975
  0
VERTEX
  8
0
 10
7.700433
 20
65.537951
 42
0.006146
  0
VERTEX
  8
0
 10
7.254975
 20
65.530164
 42
0.009220
  0
VERTEX
  8
0
 10
6.866572
 20
65.511425
 42
0.004761
  0
VERTEX
  8
0
 10
6.540971
 20
65.486575
 42
0.169428
  0
VERTEX
  8
0
 10
6.472767
 20
65.456005
 42
-0.100406
  0
VERTEX
  8
0
 10
6.421150
 20
65.423867
 42
-0.019562
  0
VERTEX
  8
0
 10
6.316477
 20
65.389455
 42
-0.020064
  0
VERTEX
  8
0
 10
6.189221
 20
65.358531
 42
-0.017383
  0
VERTEX
  8
0
 10
6.053667
 20
65.336167
 42
0.026693
  0
VERTEX
  8
0
 10
5.432500
 20
65.221776
 42
0.022649
  0
VERTEX
  8
0
 10
4.791359
 20
65.036873
 42
0.017143
  0
VERTEX
  8
0
 10
4.238882
 20
64.828697
 42
0.197534
  0
VERTEX
  8
0
 10
4.078111
 20
64.668157
 42
-0.123295
  0
VERTEX
  8
0
 10
4.058811
 20
64.642312
 42
-0.061767
  0
VERTEX
  8
0
 10
4.024058
 20
64.620492
 42
-0.055678
  0
VERTEX
  8
0
 10
3.980254
 20
64.605682
 42
-0.053748
  0
VERTEX
  8
0
 10
3.933731
 20
64.600667
 42
0.193972
  0
VERTEX
  8
0
 10
3.721752
 20
64.515216
 42
0.017334
  0
VERTEX
  8
0
 10
3.314082
 20
64.094594
 42
0.023479
  0
VERTEX
  8
0
 10
2.921994
 20
63.617734
 42
0.047853
  0
VERTEX
  8
0
 10
2.670647
 20
63.203667
 42
0.006138
  0
VERTEX
  8
0
 10
2.441517
 20
62.713991
 42
0.035223
  0
VERTEX
  8
0
 10
2.341981
 20
62.445460
 42
0.042158
  0
VERTEX
  8
0
 10
2.289335
 20
62.186126
 42
0.011118
  0
VERTEX
  8
0
 10
2.249661
 20
61.764333
 42
-0.001709
  0
VERTEX
  8
0
 10
2.225021
 20
61.436275
 42
-0.000376
  0
VERTEX
  8
0
 10
2.180369
 20
60.873217
 42
-0.000391
  0
VERTEX
  8
0
 10
2.127746
 20
60.222342
 42
-0.000376
  0
VERTEX
  8
0
 10
2.073420
 20
59.563000
 42
0.001412
  0
VERTEX
  8
0
 10
2.019221
 20
58.888123
 42
0.001280
  0
VERTEX
  8
0
 10
1.966983
 20
58.190606
 42
0.001281
  0
VERTEX
  8
0
 10
1.923429
 20
57.566118
 42
0.004115
  0
VERTEX
  8
0
 10
1.898917
 20
57.150000
 42
-0.008150
  0
VERTEX
  8
0
 10
1.877450
 20
56.829616
 42
-0.010088
  0
VERTEX
  8
0
 10
1.846593
 20
56.532198
 42
-0.008609
  0
VERTEX
  8
0
 10
1.811508
 20
56.284617
 42
-0.071177
  0
VERTEX
  8
0
 10
1.778000
 20
56.176333
 42
0.071224
  0
VERTEX
  8
0
 10
1.744502
 20
56.068049
 42
0.008615
  0
VERTEX
  8
0
 10
1.709468
 20
55.820469
 42
0.010095
  0
VERTEX
  8
0
 10
1.678679
 20
55.523050
 42
0.008155
  0
VERTEX
  8
0
 10
1.657292
 20
55.202667
 42
-0.000031
  0
VERTEX
  8
0
 10
1.635614
 20
54.773009
 42
-0.000008
  0
VERTEX
  8
0
 10
1.600972
 20
54.087448
 42
-0.000008
  0
VERTEX
  8
0
 10
1.561548
 20
53.307787
 42
-0.000009
  0
VERTEX
  8
0
 10
1.522479
 20
52.535667
 42
-0.003576
  0
VERTEX
  8
0
 10
1.480615
 20
51.811254
 42
-0.005296
  0
VERTEX
  8
0
 10
1.432656
 20
51.176972
 42
-0.002520
  0
VERTEX
  8
0
 10
1.383550
 20
50.639415
 42
-0.099693
  0
VERTEX
  8
0
 10
1.349098
 20
50.525982
 42
0.100585
  0
VERTEX
  8
0
 10
1.317847
 20
50.422432
 42
0.006731
  0
VERTEX
  8
0
 10
1.293235
 20
50.112098
 42
0.009477
  0
VERTEX
  8
0
 10
1.275764
 20
49.738480
 42
0.006944
  0
VERTEX
  8
0
 10
1.270000
 20
49.323466
 42
-0.007263
  0
VERTEX
  8
0
 10
1.263922
 20
48.905040
 42
-0.009351
  0
VERTEX
  8
0
 10
1.245564
 20
48.520891
 42
-0.007479
  0
VERTEX
  8
0
 10
1.219489
 20
48.201307
 42
-0.077107
  0
VERTEX
  8
0
 10
1.186812
 20
48.073484
 42
0.096314
  0
VERTEX
  8
0
 10
1.065619
 20
47.510824
 42
0.000915
  0
VERTEX
  8
0
 10
0.988351
 20
43.285974
 42
0.002762
  0
VERTEX
  8
0
 10
0.931765
 20
38.111131
 42
0.001316
  0
VERTEX
  8
0
 10
0.913264
 20
31.453667
 42
0.001252
  0
VERTEX
  8
0
 10
0.928607
 20
24.943872
 42
0.003124
  0
VERTEX
  8
0
 10
0.981454
 20
20.187006
 42
0.001645
  0
VERTEX
  8
0
 10
1.056873
 20
16.534683
 42
0.072898
  0
VERTEX
  8
0
 10
1.185272
 20
15.784322
 42
-0.053517
  0
VERTEX
  8
0
 10
1.218305
 20
15.627870
 42
-0.008284
  0
VERTEX
  8
0
 10
1.245111
 20
15.311691
 42
-0.009156
  0
VERTEX
  8
0
 10
1.263788
 20
14.936218
 42
-0.007848
  0
VERTEX
  8
0
 10
1.270000
 20
14.540486
 42
0.006887
  0
VERTEX
  8
0
 10
1.275239
 20
14.160169
 42
0.010699
  0
VERTEX
  8
0
 10
1.291290
 20
13.832501
 42
0.005206
  0
VERTEX
  8
0
 10
1.313442
 20
13.558780
 42
0.235741
  0
VERTEX
  8
0
 10
1.342475
 20
13.511868
 42
-0.234495
  0
VERTEX
  8
0
 10
1.373031
 20
13.462755
 42
-0.002347
  0
VERTEX
  8
0
 10
1.411622
 20
13.040753
 42
-0.007003
  0
VERTEX
  8
0
 10
1.447427
 20
12.547708
 42
-0.004410
  0
VERTEX
  8
0
 10
1.476095
 20
11.970973
 42
0.004306
  0
VERTEX
  8
0
 10
1.505202
 20
11.382935
 42
0.005890
  0
VERTEX
  8
0
 10
1.542204
 20
10.854049
 42
0.003947
  0
VERTEX
  8
0
 10
1.581882
 20
10.412017
 42
0.066574
  0
VERTEX
  8
0
 10
1.615286
 20
10.269589
 42
-0.056954
  0
VERTEX
  8
0
 10
1.645592
 20
10.150673
 42
-0.011317
  0
VERTEX
  8
0
 10
1.670407
 20
9.932237
 42
-0.011844
  0
VERTEX
  8
0
 10
1.687603
 20
9.675197
 42
-0.010779
  0
VERTEX
  8
0
 10
1.693333
 20
9.409422
 42
0.011137
  0
VERTEX
  8
0
 10
1.699052
 20
9.152704
 42
0.015458
  0
VERTEX
  8
0
 10
1.716397
 20
8.923279
 42
0.011905
  0
VERTEX
  8
0
 10
1.740923
 20
8.735949
 42
0.156084
  0
VERTEX
  8
0
 10
1.771848
 20
8.674100
 42
-0.143463
  0
VERTEX
  8
0
 10
1.804848
 20
8.611984
 42
-0.010322
  0
VERTEX
  8
0
 10
1.840633
 20
8.418327
 42
-0.013815
  0
VERTEX
  8
0
 10
1.872648
 20
8.181648
 42
-0.009978
  0
VERTEX
  8
0
 10
1.895754
 20
7.916333
 42
0.002784
  0
VERTEX
  8
0
 10
1.983277
 20
6.710951
 42
0.005440
  0
VERTEX
  8
0
 10
2.068829
 20
5.751495
 42
0.003172
  0
VERTEX
  8
0
 10
2.150017
 20
4.989568
 42
0.095113
  0
VERTEX
  8
0
 10
2.207240
 20
4.805982
 42
-0.071470
  0
VERTEX
  8
0
 10
2.237721
 20
4.722249
 42
-0.017436
  0
VERTEX
  8
0
 10
2.262864
 20
4.577122
 42
-0.017515
  0
VERTEX
  8
0
 10
2.280211
 20
4.407065
 42
-0.016657
  0
VERTEX
  8
0
 10
2.286000
 20
4.233333
 42
0.016326
  0
VERTEX
  8
0
 10
2.291674
 20
4.059601
 42
0.017177
  0
VERTEX
  8
0
 10
2.308677
 20
3.889545
 42
0.017073
  0
VERTEX
  8
0
 10
2.333317
 20
3.744380
 42
0.070423
  0
VERTEX
  8
0
 10
2.363197
 20
3.660684
 42
-0.015029
  0
VERTEX
  8
0
 10
2.403413
 20
3.578161
 42
-0.003322
  0
VERTEX
  8
0
 10
2.467113
 20
3.434268
 42
-0.003450
  0
VERTEX
  8
0
 10
2.538509
 20
3.266904
 42
-0.003317
  0
VERTEX
  8
0
 10
2.608550
 20
3.096355
 42
0.038233
  0
VERTEX
  8
0
 10
2.793436
 20
2.722694
 42
0.030084
  0
VERTEX
  8
0
 10
3.047066
 20
2.348809
 42
0.030908
  0
VERTEX
  8
0
 10
3.329037
 20
2.026017
 42
0.058664
  0
VERTEX
  8
0
 10
3.598333
 20
1.810993
 42
0.003442
  0
VERTEX
  8
0
 10
4.040200
 20
1.540246
 42
0.013739
  0
VERTEX
  8
0
 10
4.316509
 20
1.383736
 42
0.020073
  0
VERTEX
  8
0
 10
4.504644
 20
1.293377
 42
0.102258
  0
VERTEX
  8
0
 10
4.617755
 20
1.270000
 42
-0.047845
  0
VERTEX
  8
0
 10
4.676474
 20
1.264368
 42
-0.023206
  0
VERTEX
  8
0
 10
4.749841
 20
1.246597
 42
-0.022773
  0
VERTEX
  8
0
 10
4.825144
 20
1.220839
 42
-0.030379
  0
VERTEX
  8
0
 10
4.890649
 20
1.190332
 42
0.099087
  0
VERTEX
  8
0
 10
5.637755
 20
0.959986
 42
0.017345
  0
VERTEX
  8
0
 10
7.114150
 20
0.861136
 42
0.019849
  0
VERTEX
  8
0
 10
8.705357
 20
0.873110
 42
0.033308
  0
VERTEX
  8
0
 10
10.033000
 20
1.024863
 42
0.000463
  0
VERTEX
  8
0
 10
10.967290
 20
1.196154
 42
0.007055
  0
VERTEX
  8
0
 10
11.289669
 20
1.260283
 42
0.019743
  0
VERTEX
  8
0
 10
11.460635
 20
1.303929
 42
0.080300
  0
VERTEX
  8
0
 10
11.557000
 20
1.350442
 42
-0.063041
  0
VERTEX
  8
0
 10
11.615143
 20
1.381011
 42
-0.005508
  0
VERTEX
  8
0
 10
11.772239
 20
1.437840
 42
-0.007162
  0
VERTEX
  8
0
 10
11.961991
 20
1.501093
 42
-0.005508
  0
VERTEX
  8
0
 10
12.170833
 20
1.564877
 42
0.011612
  0
VERTEX
  8
0
 10
12.373650
 20
1.629539
 42
0.018159
  0
VERTEX
  8
0
 10
12.544557
 20
1.695467
 42
0.012718
  0
VERTEX
  8
0
 10
12.678451
 20
1.756860
 42
0.286322
  0
VERTEX
  8
0
 10
12.700000
 20
1.791405
 42
-0.218400
  0
VERTEX
  8
0
 10
12.712507
 20
1.818673
 42
-0.078249
  0
VERTEX
  8
0
 10
12.749742
 20
1.841734
 42
-0.059497
  0
VERTEX
  8
0
 10
12.804496
 20
1.857448
 42
-0.040180
  0
VERTEX
  8
0
 10
12.869333
 20
1.862667
 42
0.048028
  0
VERTEX
  8
0
 10
12.934139
 20
1.868906
 42
0.068025
  0
VERTEX
  8
0
 10
12.988925
 20
1.887537
 42
0.088204
  0
VERTEX
  8
0
 10
13.025842
 20
1.915001
 42
0.191087
  0
VERTEX
  8
0
 10
13.038667
 20
1.947333
 42
-0.098337
  0
VERTEX
  8
0
 10
13.045084
 20
1.979646
 42
-0.097777
  0
VERTEX
  8
0
 10
13.063367
 20
2.007129
 42
-0.098108
  0
VERTEX
  8
0
 10
13.090663
 20
2.025534
 42
-0.099744
  0
VERTEX
  8
0
 10
13.122753
 20
2.032000
 42
0.096200
  0
VERTEX
  8
0
 10
13.272531
 20
2.061086
 42
0.013998
  0
VERTEX
  8
0
 10
13.558261
 20
2.185821
 42
0.008471
  0
VERTEX
  8
0
 10
13.846746
 20
2.327511
 42
0.281423
  0
VERTEX
  8
0
 10
13.885333
 20
2.390640
 42
-0.185879
  0
VERTEX
  8
0
 10
13.894844
 20
2.415338
 42
-0.089874
  0
VERTEX
  8
0
 10
13.922093
 20
2.436330
 42
-0.069713
  0
VERTEX
  8
0
 10
13.962585
 20
2.450559
 42
-0.049725
  0
VERTEX
  8
0
 10
14.010472
 20
2.455333
 42
0.192349
  0
VERTEX
  8
0
 10
14.207952
 20
2.534222
 42
0.005010
  0
VERTEX
  8
0
 10
14.902675
 20
3.208050
 42
0.004965
  0
VERTEX
  8
0
 10
15.584277
 20
3.896064
 42
0.195118
  0
VERTEX
  8
0
 10
15.663333
 20
4.090939
 42
-0.057533
  0
VERTEX
  8
0
 10
15.669621
 20
4.145402
 42
-0.076789
  0
VERTEX
  8
0
 10
15.688204
 20
4.191505
 42
-0.095704
  0
VERTEX
  8
0
 10
15.715703
 20
4.222402
 42
-0.164641
  0
VERTEX
  8
0
 10
15.748000
 20
4.233333
 42
0.191087
  0
VERTEX
  8
0
 10
15.780333
 20
4.246158
 42
0.088204
  0
VERTEX
  8
0
 10
15.807796
 20
4.283075
 42
0.068025
  0
VERTEX
  8
0
 10
15.826427
 20
4.337861
 42
0.048028
  0
VERTEX
  8
0
 10
15.832667
 20
4.402667
 42
-0.042500
  0
VERTEX
  8
0
 10
15.838187
 20
4.467494
 42
-0.062142
  0
VERTEX
  8
0
 10
15.854770
 20
4.522258
 42
-0.081598
  0
VERTEX
  8
0
 10
15.879140
 20
4.559376
 42
-0.209741
  0
VERTEX
  8
0
 10
15.907911
 20
4.572000
 42
0.264307
  0
VERTEX
  8
0
 10
15.940643
 20
4.590602
 42
0.034087
  0
VERTEX
  8
0
 10
15.978481
 20
4.665266
 42
0.032541
  0
VERTEX
  8
0
 10
16.014290
 20
4.767851
 42
0.021515
  0
VERTEX
  8
0
 10
16.042487
 20
4.889500
 42
-0.017380
  0
VERTEX
  8
0
 10
16.071229
 20
5.018332
 42
-0.018184
  0
VERTEX
  8
0
 10
16.108485
 20
5.142900
 42
-0.018174
  0
VERTEX
  8
0
 10
16.148350
 20
5.247749
 42
-0.072829
  0
VERTEX
  8
0
 10
16.183844
 20
5.306287
 42
0.184811
  0
VERTEX
  8
0
 10
16.273347
 20
5.571937
 42
0.005551
  0
VERTEX
  8
0
 10
16.211959
 20
6.760015
 42
0.009041
  0
VERTEX
  8
0
 10
16.086541
 20
8.308712
 42
0.003879
  0
VERTEX
  8
0
 10
15.865700
 20
10.371667
 42
0.014497
  0
VERTEX
  8
0
 10
15.841445
 20
10.539649
 42
0.017946
  0
VERTEX
  8
0
 10
15.808767
 20
10.694273
 42
0.016467
  0
VERTEX
  8
0
 10
15.772881
 20
10.820453
 42
0.113653
  0
VERTEX
  8
0
 10
15.740195
 20
10.875433
 42
-0.132388
  0
VERTEX
  8
0
 10
15.710265
 20
10.930292
 42
-0.020342
  0
VERTEX
  8
0
 10
15.685911
 20
11.053254
 42
-0.021520
  0
VERTEX
  8
0
 10
15.668963
 20
11.204203
 42
-0.017197
  0
VERTEX
  8
0
 10
15.663333
 20
11.367833
 42
0.016262
  0
VERTEX
  8
0
 10
15.657862
 20
11.536009
 42
0.017097
  0
VERTEX
  8
0
 10
15.641469
 20
11.700673
 42
0.016992
  0
VERTEX
  8
0
 10
15.617710
 20
11.841272
 42
0.070035
  0
VERTEX
  8
0
 10
15.588901
 20
11.922399
 42
-0.067223
  0
VERTEX
  8
0
 10
15.557830
 20
12.008366
 42
-0.011928
  0
VERTEX
  8
0
 10
15.525642
 20
12.176893
 42
-0.012715
  0
VERTEX
  8
0
 10
15.497469
 20
12.377630
 42
-0.011152
  0
VERTEX
  8
0
 10
15.478074
 20
12.588514
 42
0.000000
  0
VERTEX
  8
0
 10
15.441679
 20
13.112028
 42
0.000000
  0
VERTEX
  8
0
 10
15.616006
 20
12.920701
 42
0.033515
  0
VERTEX
  8
0
 10
15.721421
 20
12.819531
 42
0.006521
  0
VERTEX
  8
0
 10
15.925656
 20
12.652745
 42
0.006902
  0
VERTEX
  8
0
 10
16.169443
 20
12.464337
 42
0.006336
  0
VERTEX
  8
0
 10
16.425333
 20
12.277182
 42
-0.004907
  0
VERTEX
  8
0
 10
16.670701
 20
12.098798
 42
-0.007252
  0
VERTEX
  8
0
 10
16.882092
 20
11.937114
 42
-0.003715
  0
VERTEX
  8
0
 10
17.057368
 20
11.796854
 42
-0.127608
  0
VERTEX
  8
0
 10
17.088556
 20
11.754495
 42
0.155050
  0
VERTEX
  8
0
 10
17.110828
 20
11.727424
 42
0.055122
  0
VERTEX
  8
0
 10
17.156157
 20
11.704708
 42
0.048184
  0
VERTEX
  8
0
 10
17.214876
 20
11.689205
 42
0.040482
  0
VERTEX
  8
0
 10
17.279056
 20
11.684000
 42
-0.041853
  0
VERTEX
  8
0
 10
17.341185
 20
11.678790
 42
-0.061414
  0
VERTEX
  8
0
 10
17.393664
 20
11.663130
 42
-0.080700
  0
VERTEX
  8
0
 10
17.429264
 20
11.640125
 42
-0.212106
  0
VERTEX
  8
0
 10
17.441333
 20
11.612955
 42
0.225222
  0
VERTEX
  8
0
 10
17.458438
 20
11.576908
 42
0.020269
  0
VERTEX
  8
0
 10
17.540531
 20
11.515254
 42
0.023235
  0
VERTEX
  8
0
 10
17.649654
 20
11.447269
 42
0.015982
  0
VERTEX
  8
0
 10
17.779029
 20
11.380121
 42
-0.014181
  0
VERTEX
  8
0
 10
17.908485
 20
11.313522
 42
-0.020877
  0
VERTEX
  8
0
 10
18.017811
 20
11.247205
 42
-0.016990
  0
VERTEX
  8
0
 10
18.101291
 20
11.187485
 42
-0.229019
  0
VERTEX
  8
0
 10
18.117695
 20
11.154833
 42
0.234292
  0
VERTEX
  8
0
 10
18.130235
 20
11.130484
 42
0.069623
  0
VERTEX
  8
0
 10
18.168123
 20
11.109987
 42
0.053629
  0
VERTEX
  8
0
 10
18.223077
 20
11.095970
 42
0.035661
  0
VERTEX
  8
0
 10
18.288000
 20
11.091333
 42
-0.048028
  0
VERTEX
  8
0
 10
18.352805
 20
11.085094
 42
-0.068025
  0
VERTEX
  8
0
 10
18.407592
 20
11.066463
 42
-0.088204
  0
VERTEX
  8
0
 10
18.444508
 20
11.038999
 42
-0.191087
  0
VERTEX
  8
0
 10
18.457333
 20
11.006667
 42
0.114280
  0
VERTEX
  8
0
 10
18.464813
 20
10.974370
 42
0.100347
  0
VERTEX
  8
0
 10
18.485943
 20
10.946871
 42
0.093748
  0
VERTEX
  8
0
 10
18.517537
 20
10.928417
 42
0.085634
  0
VERTEX
  8
0
 10
18.554728
 20
10.922000
 42
-0.082371
  0
VERTEX
  8
0
 10
18.614251
 20
10.912127
 42
-0.008251
  0
VERTEX
  8
0
 10
18.750346
 20
10.863180
 42
-0.010189
  0
VERTEX
  8
0
 10
18.911427
 20
10.798445
 42
-0.007933
  0
VERTEX
  8
0
 10
19.083894
 20
10.721763
 42
0.009054
  0
VERTEX
  8
0
 10
19.293979
 20
10.628919
 42
0.003973
  0
VERTEX
  8
0
 10
19.575365
 20
10.513230
 42
0.003930
  0
VERTEX
  8
0
 10
19.875961
 20
10.395162
 42
0.005255
  0
VERTEX
  8
0
 10
20.150667
 20
10.293046
 42
-0.002710
  0
VERTEX
  8
0
 10
20.403142
 20
10.200654
 42
-0.003383
  0
VERTEX
  8
0
 10
20.636541
 20
10.112003
 42
-0.002743
  0
VERTEX
  8
0
 10
20.831439
 20
10.035230
 42
-0.025900
  0
VERTEX
  8
0
 10
20.913005
 20
9.997573
 42
0.044635
  0
VERTEX
  8
0
 10
20.993799
 20
9.963879
 42
0.005491
  0
VERTEX
  8
0
 10
21.176934
 20
9.908249
 42
0.006459
  0
VERTEX
  8
0
 10
21.396544
 20
9.847232
 42
0.005296
  0
VERTEX
  8
0
 10
21.632672
 20
9.787567
 42
-0.004869
  0
VERTEX
  8
0
 10
21.871863
 20
9.727345
 42
-0.005467
  0
VERTEX
  8
0
 10
22.100745
 20
9.664660
 42
-0.005041
  0
VERTEX
  8
0
 10
22.294329
 20
9.607243
 42
-0.029104
  0
VERTEX
  8
0
 10
22.394333
 20
9.569988
 42
0.018966
  0
VERTEX
  8
0
 10
22.474350
 20
9.538318
 42
0.009922
  0
VERTEX
  8
0
 10
22.576102
 20
9.504700
 42
0.009855
  0
VERTEX
  8
0
 10
22.681952
 20
9.474314
 42
0.014877
  0
VERTEX
  8
0
 10
22.775333
 20
9.452440
 42
-0.005891
  0
VERTEX
  8
0
 10
22.898564
 20
9.425902
 42
-0.000966
  0
VERTEX
  8
0
 10
23.136225
 20
9.371299
 42
-0.001063
  0
VERTEX
  8
0
 10
23.415617
 20
9.305913
 42
-0.000938
  0
VERTEX
  8
0
 10
23.706667
 20
9.236570
 42
0.008646
  0
VERTEX
  8
0
 10
24.005481
 20
9.170228
 42
0.008493
  0
VERTEX
  8
0
 10
24.308197
 20
9.113828
 42
0.008406
  0
VERTEX
  8
0
 10
24.575165
 20
9.073370
 42
0.031697
  0
VERTEX
  8
0
 10
24.743833
 20
9.061507
 42
-0.025190
  0
VERTEX
  8
0
 10
24.865500
 20
9.054538
 42
-0.039870
  0
VERTEX
  8
0
 10
24.968068
 20
9.035101
 42
-0.047563
  0
VERTEX
  8
0
 10
25.040876
 20
9.007526
 42
-0.285851
  0
VERTEX
  8
0
 10
25.061333
 20
8.974667
 42
0.348474
  0
VERTEX
  8
0
 10
25.088437
 20
8.940501
 42
0.020884
  0
VERTEX
  8
0
 10
25.226433
 20
8.914279
 42
0.023436
  0
VERTEX
  8
0
 10
25.411108
 20
8.895909
 42
0.013073
  0
VERTEX
  8
0
 10
25.637067
 20
8.890000
 42
-0.014112
  0
VERTEX
  8
0
 10
25.863966
 20
8.883595
 42
-0.018753
  0
VERTEX
  8
0
 10
26.069444
 20
8.864234
 42
-0.016272
  0
VERTEX
  8
0
 10
26.236281
 20
8.836627
 42
-0.148290
  0
VERTEX
  8
0
 10
26.300514
 20
8.802286
 42
0.200239
  0
VERTEX
  8
0
 10
26.465365
 20
8.734495
 42
0.000981
  0
VERTEX
  8
0
 10
28.309873
 20
8.747525
 42
0.003525
  0
VERTEX
  8
0
 10
30.002635
 20
8.774740
 42
0.037052
  0
VERTEX
  8
0
 10
30.691667
 20
8.841924
 42
0.012669
  0
VERTEX
  8
0
 10
30.927311
 20
8.888859
 42
0.024981
  0
VERTEX
  8
0
 10
31.111152
 20
8.940114
 42
0.017915
  0
VERTEX
  8
0
 10
31.324197
 20
9.019739
 42
0.003792
  0
VERTEX
  8
0
 10
31.689372
 20
9.174598
 42
-0.012754
  0
VERTEX
  8
0
 10
31.821131
 20
9.227707
 42
-0.013780
  0
VERTEX
  8
0
 10
31.952098
 20
9.272580
 42
-0.013381
  0
VERTEX
  8
0
 10
32.066167
 20
9.304860
 42
-0.062334
  0
VERTEX
  8
0
 10
32.133872
 20
9.313333
 42
0.066426
  0
VERTEX
  8
0
 10
32.181322
 20
9.319665
 42
0.083516
  0
VERTEX
  8
0
 10
32.221538
 20
9.338204
 42
0.099349
  0
VERTEX
  8
0
 10
32.248434
 20
9.365713
 42
0.145028
  0
VERTEX
  8
0
 10
32.258000
 20
9.398000
 42
-0.148195
  0
VERTEX
  8
0
 10
32.267785
 20
9.430288
 42
-0.098894
  0
VERTEX
  8
0
 10
32.295306
 20
9.457796
 42
-0.082425
  0
VERTEX
  8
0
 10
32.336447
 20
9.476343
 42
-0.064853
  0
VERTEX
  8
0
 10
32.385000
 20
9.482667
 42
0.064853
  0
VERTEX
  8
0
 10
32.433553
 20
9.488991
 42
0.082425
  0
VERTEX
  8
0
 10
32.474694
 20
9.507537
 42
0.098894
  0
VERTEX
  8
0
 10
32.502215
 20
9.535045
 42
0.148195
  0
VERTEX
  8
0
 10
32.512000
 20
9.567333
 42
-0.105879
  0
VERTEX
  8
0
 10
32.518918
 20
9.599638
 42
-0.099306
  0
VERTEX
  8
0
 10
32.538541
 20
9.627129
 42
-0.096195
  0
VERTEX
  8
0
 10
32.567861
 20
9.645557
 42
-0.092594
  0
VERTEX
  8
0
 10
32.602352
 20
9.652000
 42
0.214765
  0
VERTEX
  8
0
 10
32.808026
 20
9.744615
 42
0.010209
  0
VERTEX
  8
0
 10
33.309817
 20
10.335342
 42
0.011804
  0
VERTEX
  8
0
 10
33.780295
 20
10.941360
 42
0.160492
  0
VERTEX
  8
0
 10
33.866667
 20
11.203513
 42
-0.056086
  0
VERTEX
  8
0
 10
33.872765
 20
11.257708
 42
-0.049757
  0
VERTEX
  8
0
 10
33.890816
 20
11.311541
 42
-0.052667
  0
VERTEX
  8
0
 10
33.917389
 20
11.357079
 42
-0.096239
  0
VERTEX
  8
0
 10
33.948879
 20
11.386150
 42
0.164918
  0
VERTEX
  8
0
 10
33.984013
 20
11.428691
 42
0.019753
  0
VERTEX
  8
0
 10
34.023376
 20
11.545924
 42
0.021828
  0
VERTEX
  8
0
 10
34.059608
 20
11.693480
 42
0.016314
  0
VERTEX
  8
0
 10
34.087039
 20
11.858713
 42
-0.014607
  0
VERTEX
  8
0
 10
34.113828
 20
12.023567
 42
-0.020004
  0
VERTEX
  8
0
 10
34.148144
 20
12.169922
 42
-0.017182
  0
VERTEX
  8
0
 10
34.184835
 20
12.286597
 42
-0.171190
  0
VERTEX
  8
0
 10
34.216493
 20
12.325897
 42
0.177574
  0
VERTEX
  8
0
 10
34.245059
 20
12.362271
 42
0.028510
  0
VERTEX
  8
0
 10
34.268407
 20
12.451023
 42
0.028508
  0
VERTEX
  8
0
 10
34.284623
 20
12.563452
 42
0.021564
  0
VERTEX
  8
0
 10
34.290000
 20
12.688063
 42
-0.025536
  0
VERTEX
  8
0
 10
34.296529
 20
12.815825
 42
-0.028337
  0
VERTEX
  8
0
 10
34.316065
 20
12.937823
 42
-0.029375
  0
VERTEX
  8
0
 10
34.344451
 20
13.038750
 42
-0.113609
  0
VERTEX
  8
0
 10
34.378730
 20
13.093530
 42
0.181389
  0
VERTEX
  8
0
 10
34.418144
 20
13.180264
 42
0.008071
  0
VERTEX
  8
0
 10
34.435405
 20
13.515115
 42
0.010907
  0
VERTEX
  8
0
 10
34.441480
 20
13.963553
 42
0.004496
  0
VERTEX
  8
0
 10
34.430995
 20
14.570964
 42
0.004852
  0
VERTEX
  8
0
 10
34.397373
 20
15.505678
 42
0.016825
  0
VERTEX
  8
0
 10
34.349444
 20
16.108770
 42
0.019740
  0
VERTEX
  8
0
 10
34.287835
 20
16.509821
 42
0.209309
  0
VERTEX
  8
0
 10
34.195979
 20
16.642781
 42
-0.106062
  0
VERTEX
  8
0
 10
34.167108
 20
16.670493
 42
-0.051271
  0
VERTEX
  8
0
 10
34.142790
 20
16.715855
 42
-0.047593
  0
VERTEX
  8
0
 10
34.126249
 20
16.770379
 42
-0.049896
  0
VERTEX
  8
0
 10
34.120667
 20
16.826181
 42
0.113843
  0
VERTEX
  8
0
 10
34.045214
 20
17.153277
 42
0.021237
  0
VERTEX
  8
0
 10
33.750188
 20
17.698638
 42
0.023832
  0
VERTEX
  8
0
 10
33.384742
 20
18.249180
 42
0.043867
  0
VERTEX
  8
0
 10
33.029899
 20
18.652665
 42
0.028436
  0
VERTEX
  8
0
 10
32.495236
 20
19.107521
 42
0.079153
  0
VERTEX
  8
0
 10
32.061582
 20
19.338876
 42
0.066881
  0
VERTEX
  8
0
 10
31.536451
 20
19.444532
 42
0.016248
  0
VERTEX
  8
0
 10
30.650364
 20
19.473333
 42
0.005522
  0
VERTEX
  8
0
 10
30.129060
 20
19.467576
 42
0.014603
  0
VERTEX
  8
0
 10
29.756539
 20
19.448452
 42
0.014686
  0
VERTEX
  8
0
 10
29.490955
 20
19.419156
 42
0.162961
  0
VERTEX
  8
0
 10
29.396737
 20
19.372204
 42
-0.194825
  0
VERTEX
  8
0
 10
29.169322
 20
19.275902
 42
-0.003935
  0
VERTEX
  8
0
 10
27.897667
 20
19.265894
 42
-0.003935
  0
VERTEX
  8
0
 10
26.626011
 20
19.275902
 42
-0.194825
  0
VERTEX
  8
0
 10
26.398596
 20
19.372204
 42
0.105417
  0
VERTEX
  8
0
 10
26.338478
 20
19.411192
 42
0.031970
  0
VERTEX
  8
0
 10
26.234132
 20
19.443627
 42
0.030449
  0
VERTEX
  8
0
 10
26.109401
 20
19.465882
 42
0.028931
  0
VERTEX
  8
0
 10
25.980730
 20
19.473333
 42
-0.024793
  0
VERTEX
  8
0
 10
25.855627
 20
19.479540
 42
-0.031600
  0
VERTEX
  8
0
 10
25.741664
 20
19.498204
 42
-0.032932
  0
VERTEX
  8
0
 10
25.651631
 20
19.525203
 42
-0.166523
  0
VERTEX
  8
0
 10
25.611667
 20
19.558000
 42
0.120720
  0
VERTEX
  8
0
 10
25.578508
 20
19.590603
 42
0.047539
  0
VERTEX
  8
0
 10
25.520219
 20
19.618162
 42
0.043473
  0
VERTEX
  8
0
 10
25.448680
 20
19.637175
 42
0.041561
  0
VERTEX
  8
0
 10
25.373837
 20
19.643914
 42
-0.054153
  0
VERTEX
  8
0
 10
25.223214
 20
19.661300
 42
-0.014841
  0
VERTEX
  8
0
 10
24.991496
 20
19.721160
 42
-0.008996
  0
VERTEX
  8
0
 10
24.637387
 20
19.830883
 42
-0.001904
  0
VERTEX
  8
0
 10
24.024167
 20
20.035647
 42
-0.037206
  0
VERTEX
  8
0
 10
23.967458
 20
20.059653
 42
-0.047086
  0
VERTEX
  8
0
 10
23.919524
 20
20.090306
 42
-0.054634
  0
VERTEX
  8
0
 10
23.886307
 20
20.122657
 42
-0.174087
  0
VERTEX
  8
0
 10
23.876000
 20
20.151363
 42
0.233455
  0
VERTEX
  8
0
 10
23.861677
 20
20.180367
 42
0.040179
  0
VERTEX
  8
0
 10
23.808604
 20
20.214618
 42
0.036481
  0
VERTEX
  8
0
 10
23.734446
 20
20.247721
 42
0.025259
  0
VERTEX
  8
0
 10
23.646566
 20
20.274561
 42
-0.083785
  0
VERTEX
  8
0
 10
23.294846
 20
20.428720
 42
-0.010604
  0
VERTEX
  8
0
 10
22.609155
 20
20.899310
 42
-0.011045
  0
VERTEX
  8
0
 10
21.945152
 20
21.398628
 42
-0.075843
  0
VERTEX
  8
0
 10
21.666643
 20
21.696068
 42
0.009904
  0
VERTEX
  8
0
 10
21.580139
 20
21.816995
 42
0.006435
  0
VERTEX
  8
0
 10
21.475646
 20
21.953417
 42
0.006470
  0
VERTEX
  8
0
 10
21.370169
 20
22.084001
 42
0.012216
  0
VERTEX
  8
0
 10
21.281218
 20
22.186076
 42
0.000000
  0
VERTEX
  8
0
 10
21.084345
 20
22.401152
 42
0.000000
  0
VERTEX
  8
0
 10
21.558672
 20
22.736409
 42
0.003570
  0
VERTEX
  8
0
 10
21.754856
 20
22.877185
 42
0.003407
  0
VERTEX
  8
0
 10
21.952092
 20
23.022926
 42
0.003378
  0
VERTEX
  8
0
 10
22.124526
 20
23.153997
 42
0.012145
  0
VERTEX
  8
0
 10
22.231898
 20
23.241000
 42
-0.004618
  0
VERTEX
  8
0
 10
22.341754
 20
23.332790
 42
-0.001073
  0
VERTEX
  8
0
 10
22.528130
 20
23.484946
 42
-0.001107
  0
VERTEX
  8
0
 10
22.743450
 20
23.659174
 42
-0.001084
  0
VERTEX
  8
0
 10
22.961041
 20
23.833667
 42
0.025106
  0
VERTEX
  8
0
 10
23.679223
 20
24.468600
 42
0.003055
  0
VERTEX
  8
0
 10
25.174859
 20
25.948954
 42
0.002580
  0
VERTEX
  8
0
 10
26.669836
 20
27.462387
 42
0.034253
  0
VERTEX
  8
0
 10
27.178000
 20
28.058859
 42
-0.005169
  0
VERTEX
  8
0
 10
27.306012
 20
28.228132
 42
-0.004289
  0
VERTEX
  8
0
 10
27.445639
 20
28.405681
 42
-0.004331
  0
VERTEX
  8
0
 10
27.576397
 20
28.566181
 42
-0.011648
  0
VERTEX
  8
0
 10
27.672982
 20
28.677287
 42
0.023837
  0
VERTEX
  8
0
 10
27.787828
 20
28.816089
 42
0.002931
  0
VERTEX
  8
0
 10
28.022224
 20
29.132422
 42
0.003462
  0
VERTEX
  8
0
 10
28.296031
 20
29.511993
 42
0.002854
  0
VERTEX
  8
0
 10
28.582936
 20
29.920497
 42
-0.000852
  0
VERTEX
  8
0
 10
28.861624
 20
30.320699
 42
-0.001220
  0
VERTEX
  8
0
 10
29.110228
 20
30.674562
 42
-0.000654
  0
VERTEX
  8
0
 10
29.321787
 20
30.973307
 42
-0.018828
  0
VERTEX
  8
0
 10
29.379120
 20
31.047927
 42
0.022790
  0
VERTEX
  8
0
 10
29.411609
 20
31.090911
 42
0.024829
  0
VERTEX
  8
0
 10
29.439067
 20
31.135495
 42
0.025341
  0
VERTEX
  8
0
 10
29.458564
 20
31.175685
 42
0.100589
  0
VERTEX
  8
0
 10
29.464000
 20
31.202434
 42
-0.131385
  0
VERTEX
  8
0
 10
29.473599
 20
31.238333
 42
-0.002542
  0
VERTEX
  8
0
 10
29.570926
 20
31.405350
 42
-0.005944
  0
VERTEX
  8
0
 10
29.688506
 20
31.599472
 42
-0.003927
  0
VERTEX
  8
0
 10
29.828004
 20
31.819841
 42
0.023054
  0
VERTEX
  8
0
 10
30.238385
 20
32.526557
 42
0.004477
  0
VERTEX
  8
0
 10
30.908015
 20
33.841408
 42
0.001611
  0
VERTEX
  8
0
 10
31.606563
 20
35.255356
 42
0.114407
  0
VERTEX
  8
0
 10
31.665333
 20
35.508842
 42
-0.053437
  0
VERTEX
  8
0
 10
31.670903
 20
35.560806
 42
-0.073218
  0
VERTEX
  8
0
 10
31.687436
 20
35.604768
 42
-0.093003
  0
VERTEX
  8
0
 10
31.711864
 20
35.634284
 42
-0.175251
  0
VERTEX
  8
0
 10
31.740577
 20
35.644667
 42
0.259176
  0
VERTEX
  8
0
 10
31.773195
 20
35.662791
 42
0.036298
  0
VERTEX
  8
0
 10
31.810401
 20
35.733591
 42
0.033911
  0
VERTEX
  8
0
 10
31.845387
 20
35.831409
 42
0.022565
  0
VERTEX
  8
0
 10
31.872613
 20
35.947389
 42
-0.025409
  0
VERTEX
  8
0
 10
31.905212
 20
36.082798
 42
-0.015196
  0
VERTEX
  8
0
 10
31.956909
 20
36.240141
 42
-0.015196
  0
VERTEX
  8
0
 10
32.018067
 20
36.394053
 42
-0.025408
  0
VERTEX
  8
0
 10
32.079828
 20
36.518889
 42
0.036065
  0
VERTEX
  8
0
 10
32.147855
 20
36.664090
 42
0.010672
  0
VERTEX
  8
0
 10
32.230845
 20
36.895245
 42
0.010650
  0
VERTEX
  8
0
 10
32.313289
 20
37.159842
 42
0.011287
  0
VERTEX
  8
0
 10
32.382693
 20
37.422667
 42
-0.005807
  0
VERTEX
  8
0
 10
32.445636
 20
37.672062
 42
-0.007839
  0
VERTEX
  8
0
 10
32.508702
 20
37.896006
 42
-0.005584
  0
VERTEX
  8
0
 10
32.566318
 20
38.081375
 42
-0.080950
  0
VERTEX
  8
0
 10
32.597596
 20
38.142333
 42
0.064355
  0
VERTEX
  8
0
 10
32.624755
 20
38.191221
 42
0.016370
  0
VERTEX
  8
0
 10
32.655567
 20
38.276742
 42
0.016414
  0
VERTEX
  8
0
 10
32.684583
 20
38.377549
 42
0.015953
  0
VERTEX
  8
0
 10
32.707231
 20
38.481000
 42
-0.005961
  0
VERTEX
  8
0
 10
32.734138
 20
38.616845
 42
-0.001553
  0
VERTEX
  8
0
 10
32.780656
 20
38.834483
 42
-0.001579
  0
VERTEX
  8
0
 10
32.835214
 20
39.082133
 42
-0.001613
  0
VERTEX
  8
0
 10
32.890950
 20
39.327667
 42
0.007126
  0
VERTEX
  8
0
 10
33.252594
 20
41.006329
 42
0.023375
  0
VERTEX
  8
0
 10
33.423432
 20
42.127585
 42
0.021153
  0
VERTEX
  8
0
 10
33.497387
 20
43.315838
 42
0.005044
  0
VERTEX
  8
0
 10
33.516742
 20
45.296667
 42
0.005359
  0
VERTEX
  8
0
 10
33.497225
 20
47.065520
 42
0.012272
  0
VERTEX
  8
0
 10
33.435536
 20
48.397146
 42
0.014444
  0
VERTEX
  8
0
 10
33.337478
 20
49.377198
 42
0.071174
  0
VERTEX
  8
0
 10
33.189333
 20
49.911000
 42
-0.030780
  0
VERTEX
  8
0
 10
33.158018
 20
49.996449
 42
-0.012063
  0
VERTEX
  8
0
 10
33.125048
 20
50.117640
 42
-0.011887
  0
VERTEX
  8
0
 10
33.095590
 20
50.250801
 42
-0.014508
  0
VERTEX
  8
0
 10
33.074640
 20
50.376667
 42
0.016120
  0
VERTEX
  8
0
 10
33.011774
 20
50.746991
 42
0.013393
  0
VERTEX
  8
0
 10
32.921772
 20
51.136330
 42
0.009397
  0
VERTEX
  8
0
 10
32.824924
 20
51.482554
 42
0.116484
  0
VERTEX
  8
0
 10
32.757079
 20
51.600100
 42
-0.082464
  0
VERTEX
  8
0
 10
32.727983
 20
51.643477
 42
-0.035255
  0
VERTEX
  8
0
 10
32.703584
 20
51.709135
 42
-0.033664
  0
VERTEX
  8
0
 10
32.686918
 20
51.784360
 42
-0.037697
  0
VERTEX
  8
0
 10
32.681333
 20
51.858333
 42
0.035022
  0
VERTEX
  8
0
 10
32.676146
 20
51.932306
 42
0.031535
  0
VERTEX
  8
0
 10
32.660655
 20
52.007532
 42
0.032950
  0
VERTEX
  8
0
 10
32.637994
 20
52.073262
 42
0.080435
  0
VERTEX
  8
0
 10
32.610940
 20
52.116567
 42
-0.076663
  0
VERTEX
  8
0
 10
32.577528
 20
52.169167
 42
-0.011487
  0
VERTEX
  8
0
 10
32.529807
 20
52.285291
 42
-0.012680
  0
VERTEX
  8
0
 10
32.479701
 20
52.426231
 42
-0.010636
  0
VERTEX
  8
0
 10
32.433593
 20
52.578000
 42
0.008442
  0
VERTEX
  8
0
 10
32.383962
 20
52.743979
 42
0.006044
  0
VERTEX
  8
0
 10
32.323105
 20
52.927912
 42
0.006105
  0
VERTEX
  8
0
 10
32.260858
 20
53.101761
 42
0.013025
  0
VERTEX
  8
0
 10
32.207653
 20
53.234167
 42
-0.001231
  0
VERTEX
  8
0
 10
32.152615
 20
53.362313
 42
-0.000648
  0
VERTEX
  8
0
 10
32.084837
 20
53.521769
 42
-0.000645
  0
VERTEX
  8
0
 10
32.015848
 20
53.685249
 42
-0.000993
  0
VERTEX
  8
0
 10
31.956644
 20
53.826833
 42
0.015482
  0
VERTEX
  8
0
 10
31.768870
 20
54.241693
 42
0.007366
  0
VERTEX
  8
0
 10
31.503007
 20
54.764145
 42
0.007247
  0
VERTEX
  8
0
 10
31.205958
 20
55.307958
 42
0.009501
  0
VERTEX
  8
0
 10
30.918138
 20
55.795333
 42
-0.004411
  0
VERTEX
  8
0
 10
30.843942
 20
55.918100
 42
-0.004436
  0
VERTEX
  8
0
 10
30.772066
 20
56.041925
 42
-0.004334
  0
VERTEX
  8
0
 10
30.711310
 20
56.150953
 42
-0.017746
  0
VERTEX
  8
0
 10
30.677404
 20
56.218667
 42
0.019248
  0
VERTEX
  8
0
 10
30.651309
 20
56.270392
 42
0.018363
  0
VERTEX
  8
0
 10
30.620927
 20
56.320796
 42
0.018664
  0
VERTEX
  8
0
 10
30.590826
 20
56.363273
 42
0.060107
  0
VERTEX
  8
0
 10
30.566662
 20
56.388000
 42
-0.071372
  0
VERTEX
  8
0
 10
30.533153
 20
56.423865
 42
-0.001518
  0
VERTEX
  8
0
 10
30.395123
 20
56.623082
 42
-0.003476
  0
VERTEX
  8
0
 10
30.235740
 20
56.858099
 42
-0.002333
  0
VERTEX
  8
0
 10
30.056691
 20
57.128833
 42
0.006343
  0
VERTEX
  8
0
 10
29.876529
 20
57.396557
 42
0.009875
  0
VERTEX
  8
0
 10
29.713848
 20
57.622149
 42
0.004532
  0
VERTEX
  8
0
 10
29.571625
 20
57.807848
 42
0.231021
  0
VERTEX
  8
0
 10
29.531705
 20
57.827333
 42
-0.136661
  0
VERTEX
  8
0
 10
29.505886
 20
57.834524
 42
-0.100266
  0
VERTEX
  8
0
 10
29.483888
 20
57.854738
 42
-0.086391
  0
VERTEX
  8
0
 10
29.469080
 20
57.884972
 42
-0.070889
  0
VERTEX
  8
0
 10
29.464000
 20
57.920624
 42
0.201752
  0
VERTEX
  8
0
 10
29.389079
 20
58.098742
 42
0.001254
  0
VERTEX
  8
0
 10
28.115192
 20
59.338863
 42
0.004522
  0
VERTEX
  8
0
 10
26.933636
 20
60.462811
 42
0.032882
  0
VERTEX
  8
0
 10
26.327915
 20
60.958303
 42
-0.002341
  0
VERTEX
  8
0
 10
26.117647
 20
61.109872
 42
-0.002993
  0
VERTEX
  8
0
 10
25.925449
 20
61.251556
 42
-0.002321
  0
VERTEX
  8
0
 10
25.765655
 20
61.371994
 42
-0.025273
  0
VERTEX
  8
0
 10
25.704078
 20
61.423970
 42
0.042550
  0
VERTEX
  8
0
 10
25.538641
 20
61.554107
 42
0.004377
  0
VERTEX
  8
0
 10
25.120613
 20
61.823662
 42
0.005925
  0
VERTEX
  8
0
 10
24.686697
 20
62.090968
 42
0.014922
  0
VERTEX
  8
0
 10
24.362833
 20
62.272308
 42
-0.015123
  0
VERTEX
  8
0
 10
24.241195
 20
62.340481
 42
-0.021952
  0
VERTEX
  8
0
 10
24.138599
 20
62.408430
 42
-0.018596
  0
VERTEX
  8
0
 10
24.061014
 20
62.469402
 42
-0.220354
  0
VERTEX
  8
0
 10
24.045333
 20
62.503254
 42
0.232002
  0
VERTEX
  8
0
 10
24.033042
 20
62.528317
 42
0.072698
  0
VERTEX
  8
0
 10
23.995592
 20
62.549452
 42
0.055445
  0
VERTEX
  8
0
 10
23.940850
 20
62.563889
 42
0.036788
  0
VERTEX
  8
0
 10
23.876000
 20
62.568667
 42
-0.036372
  0
VERTEX
  8
0
 10
23.811148
 20
62.573391
 42
-0.054933
  0
VERTEX
  8
0
 10
23.756408
 20
62.587670
 42
-0.071963
  0
VERTEX
  8
0
 10
23.718927
 20
62.608568
 42
-0.233749
  0
VERTEX
  8
0
 10
23.706667
 20
62.633360
 42
0.281423
  0
VERTEX
  8
0
 10
23.668079
 20
62.696489
 42
0.008471
  0
VERTEX
  8
0
 10
23.379594
 20
62.838179
 42
0.013998
  0
VERTEX
  8
0
 10
23.093864
 20
62.962914
 42
0.096200
  0
VERTEX
  8
0
 10
22.944086
 20
62.992000
 42
-0.099744
  0
VERTEX
  8
0
 10
22.911996
 20
62.998466
 42
-0.098108
  0
VERTEX
  8
0
 10
22.884700
 20
63.016871
 42
-0.097777
  0
VERTEX
  8
0
 10
22.866417
 20
63.044354
 42
-0.098337
  0
VERTEX
  8
0
 10
22.860000
 20
63.076667
 42
0.191087
  0
VERTEX
  8
0
 10
22.847175
 20
63.108999
 42
0.088204
  0
VERTEX
  8
0
 10
22.810258
 20
63.136463
 42
0.068025
  0
VERTEX
  8
0
 10
22.755472
 20
63.155094
 42
0.048028
  0
VERTEX
  8
0
 10
22.690667
 20
63.161333
 42
-0.035661
  0
VERTEX
  8
0
 10
22.625744
 20
63.165970
 42
-0.053629
  0
VERTEX
  8
0
 10
22.570790
 20
63.179986
 42
-0.069623
  0
VERTEX
  8
0
 10
22.532902
 20
63.200484
 42
-0.234292
  0
VERTEX
  8
0
 10
22.520362
 20
63.224833
 42
0.239262
  0
VERTEX
  8
0
 10
22.503338
 20
63.257138
 42
0.016357
  0
VERTEX
  8
0
 10
22.414260
 20
63.315934
 42
0.020531
  0
VERTEX
  8
0
 10
22.298104
 20
63.380851
 42
0.013776
  0
VERTEX
  8
0
 10
22.160529
 20
63.445792
 42
-0.002254
  0
VERTEX
  8
0
 10
22.012355
 20
63.511604
 42
-0.002214
  0
VERTEX
  8
0
 10
21.863896
 20
63.579138
 42
-0.002176
  0
VERTEX
  8
0
 10
21.734248
 20
63.639495
 42
-0.008424
  0
VERTEX
  8
0
 10
21.654649
 20
63.678625
 42
0.029794
  0
VERTEX
  8
0
 10
21.588985
 20
63.707492
 42
0.021814
  0
VERTEX
  8
0
 10
21.513174
 20
63.731859
 42
0.022176
  0
VERTEX
  8
0
 10
21.439088
 20
63.748661
 42
0.044698
  0
VERTEX
  8
0
 10
21.379482
 20
63.754000
 42
-0.047543
  0
VERTEX
  8
0
 10
21.330385
 20
63.758679
 42
-0.067047
  0
VERTEX
  8
0
 10
21.288764
 20
63.772653
 42
-0.086633
  0
VERTEX
  8
0
 10
21.260562
 20
63.793244
 42
-0.191260
  0
VERTEX
  8
0
 10
21.250610
 20
63.817500
 42
0.288928
  0
VERTEX
  8
0
 10
21.230523
 20
63.848569
 42
0.010369
  0
VERTEX
  8
0
 10
21.094868
 20
63.908108
 42
0.016228
  0
VERTEX
  8
0
 10
20.924044
 20
63.972485
 42
0.010318
  0
VERTEX
  8
0
 10
20.721443
 20
64.036783
 42
-0.003744
  0
VERTEX
  8
0
 10
20.506712
 20
64.101837
 42
-0.004047
  0
VERTEX
  8
0
 10
20.298488
 20
64.168479
 42
-0.003820
  0
VERTEX
  8
0
 10
20.120849
 20
64.228429
 42
-0.019451
  0
VERTEX
  8
0
 10
20.023667
 20
64.266349
 42
0.019229
  0
VERTEX
  8
0
 10
19.929302
 20
64.303217
 42
0.004422
  0
VERTEX
  8
0
 10
19.767285
 20
64.357839
 42
0.004563
  0
VERTEX
  8
0
 10
19.579365
 20
64.417455
 42
0.004440
  0
VERTEX
  8
0
 10
19.388667
 20
64.474194
 42
-0.001031
  0
VERTEX
  8
0
 10
19.191320
 20
64.531450
 42
-0.000879
  0
VERTEX
  8
0
 10
18.983411
 20
64.592632
 42
-0.000885
  0
VERTEX
  8
0
 10
18.794459
 20
64.648961
 42
-0.002513
  0
VERTEX
  8
0
 10
18.662989
 20
64.689129
 42
0.015714
  0
VERTEX
  8
0
 10
18.551159
 20
64.720093
 42
0.012940
  0
VERTEX
  8
0
 10
18.430137
 20
64.746244
 42
0.013143
  0
VERTEX
  8
0
 10
18.317701
 20
64.764464
 42
0.033604
  0
VERTEX
  8
0
 10
18.235422
 20
64.770000
 42
-0.039919
  0
VERTEX
  8
0
 10
18.165369
 20
64.775602
 42
-0.034456
  0
VERTEX
  8
0
 10
18.093459
 20
64.792323
 42
-0.035963
  0
VERTEX
  8
0
 10
18.030162
 20
64.816819
 42
-0.079136
  0
VERTEX
  8
0
 10
17.987433
 20
64.845995
 42
0.098098
  0
VERTEX
  8
0
 10
17.935850
 20
64.878440
 42
0.019029
  0
VERTEX
  8
0
 10
17.831144
 20
64.914051
 42
0.019565
  0
VERTEX
  8
0
 10
17.703887
 20
64.946634
 42
0.016983
  0
VERTEX
  8
0
 10
17.568333
 20
64.970961
 42
-0.001087
  0
VERTEX
  8
0
 10
16.601586
 20
65.112899
 42
-0.006446
  0
VERTEX
  8
0
 10
16.097207
 20
65.194733
 42
-0.006813
  0
VERTEX
  8
0
 10
15.780681
 20
65.254742
 42
-0.147809
  0
VERTEX
  8
0
 10
15.698285
 20
65.299167
 42
0.167312
  0
VERTEX
  8
0
 10
15.647057
 20
65.324320
 42
0.008901
  0
VERTEX
  8
0
 10
15.463821
 20
65.344014
 42
0.013170
  0
VERTEX
  8
0
 10
15.241022
 20
65.358052
 42
0.009147
  0
VERTEX
  8
0
 10
14.988822
 20
65.362667
 42
-0.011537
  0
VERTEX
  8
0
 10
14.735402
 20
65.368515
 42
-0.015970
  0
VERTEX
  8
0
 10
14.508753
 20
65.386248
 42
-0.012490
  0
VERTEX
  8
0
 10
14.323967
 20
65.411347
 42
-0.157395
  0
VERTEX
  8
0
 10
14.262100
 20
65.442945
 42
0.188950
  0
VERTEX
  8
0
 10
14.046642
 20
65.536830
 42
0.000979
  0
VERTEX
  8
0
 10
11.688097
 20
65.620549
 42
0.001504
  0
VERTEX
  8
0
 10
9.382743
 20
65.690917
 42
0.111497
  0
SEQEND
  0
POLYLINE
  8
0
 66
1
 70
1
  0
VERTEX
  8
0
 10
16.552333
 20
54.566112
 42
-0.008559
  0
VERTEX
  8
0
 10
16.959602
 20
54.474444
 42
-0.020762
  0
VERTEX
  8
0
 10
17.255743
 20
54.389278
 42
-0.017949
  0
VERTEX
  8
0
 10
17.567911
 20
54.272689
 42
-0.005033
  0
VERTEX
  8
0
 10
18.046796
 20
54.068299
 42
0.010111
  0
VERTEX
  8
0
 10
18.171971
 20
54.016370
 42
0.011937
  0
VERTEX
  8
0
 10
18.292448
 20
53.972509
 42
0.010854
  0
VERTEX
  8
0
 10
18.395361
 20
53.940271
 42
0.070582
  0
VERTEX
  8
0
 10
18.448962
 20
53.932667
 42
-0.089817
  0
VERTEX
  8
0
 10
18.484483
 20
53.926234
 42
-0.095291
  0
VERTEX
  8
0
 10
18.514670
 20
53.907796
 42
-0.099783
  0
VERTEX
  8
0
 10
18.534867
 20
53.880301
 42
-0.109094
  0
VERTEX
  8
0
 10
18.542000
 20
53.848000
 42
0.181272
  0
VERTEX
  8
0
 10
18.554114
 20
53.815683
 42
0.091278
  0
VERTEX
  8
0
 10
18.588696
 20
53.788204
 42
0.071223
  0
VERTEX
  8
0
 10
18.640141
 20
53.769589
 42
0.051290
  0
VERTEX
  8
0
 10
18.700966
 20
53.763333
 42
-0.067559
  0
VERTEX
  8
0
 10
18.769556
 20
53.754023
 42
-0.044533
  0
VERTEX
  8
0
 10
18.844198
 20
53.726027
 42
-0.044279
  0
VERTEX
  8
0
 10
18.913302
 20
53.684947
 42
-0.063393
  0
VERTEX
  8
0
 10
18.965333
 20
53.636333
 42
0.045514
  0
VERTEX
  8
0
 10
19.013761
 20
53.587740
 42
0.040659
  0
VERTEX
  8
0
 10
19.071961
 20
53.546640
 42
0.042932
  0
VERTEX
  8
0
 10
19.130747
 20
53.518403
 42
0.090741
  0
VERTEX
  8
0
 10
19.180311
 20
53.509333
 42
-0.057672
  0
VERTEX
  8
0
 10
19.224316
 20
53.504241
 42
-0.057683
  0
VERTEX
  8
0
 10
19.265991
 20
53.489232
 42
-0.063267
  0
VERTEX
  8
0
 10
19.299247
 20
53.467096
 42
-0.117025
  0
VERTEX
  8
0
 10
19.318111
 20
53.440905
 42
0.119453
  0
VERTEX
  8
0
 10
19.346180
 20
53.402323
 42
0.007665
  0
VERTEX
  8
0
 10
19.454489
 20
53.313163
 42
0.010861
  0
VERTEX
  8
0
 10
19.588840
 20
53.210673
 42
0.007856
  0
VERTEX
  8
0
 10
19.742744
 20
53.102131
 42
-0.063864
  0
VERTEX
  8
0
 10
20.168339
 20
52.724248
 42
-0.028106
  0
VERTEX
  8
0
 10
20.631479
 20
52.128677
 42
-0.026680
  0
VERTEX
  8
0
 10
21.069031
 20
51.417268
 42
-0.027824
  0
VERTEX
  8
0
 10
21.421631
 20
50.673000
 42
0.004317
  0
VERTEX
  8
0
 10
21.466721
 20
50.564979
 42
0.003549
  0
VERTEX
  8
0
 10
21.516668
 20
50.450426
 42
0.003584
  0
VERTEX
  8
0
 10
21.564054
 20
50.345845
 42
0.009498
  0
VERTEX
  8
0
 10
21.599878
 20
50.271982
 42
-0.022622
  0
VERTEX
  8
0
 10
21.628507
 20
50.208784
 42
-0.019866
  0
VERTEX
  8
0
 10
21.652698
 20
50.140483
 42
-0.020336
  0
VERTEX
  8
0
 10
21.669572
 20
50.077052
 42
-0.054888
  0
VERTEX
  8
0
 10
21.674667
 20
50.030778
 42
0.064603
  0
VERTEX
  8
0
 10
21.681469
 20
49.978349
 42
0.012338
  0
VERTEX
  8
0
 10
21.708330
 20
49.885887
 42
0.012969
  0
VERTEX
  8
0
 10
21.745395
 20
49.778845
 42
0.011609
  0
VERTEX
  8
0
 10
21.789267
 20
49.669796
 42
-0.019124
  0
VERTEX
  8
0
 10
21.958139
 20
49.231114
 42
-0.011224
  0
VERTEX
  8
0
 10
22.128017
 20
48.694844
 42
-0.011222
  0
VERTEX
  8
0
 10
22.273760
 20
48.151111
 42
-0.019006
  0
VERTEX
  8
0
 10
22.368069
 20
47.689273
 42
-0.039763
  0
VERTEX
  8
0
 10
22.465011
 20
46.537124
 42
-0.010971
  0
VERTEX
  8
0
 10
22.433209
 20
44.718369
 42
-0.005260
  0
VERTEX
  8
0
 10
22.339546
 20
42.844638
 42
-0.184917
  0
VERTEX
  8
0
 10
22.161500
 20
42.452461
 42
0.096901
  0
VERTEX
  8
0
 10
22.137069
 20
42.416648
 42
0.034882
  0
VERTEX
  8
0
 10
22.116653
 20
42.358142
 42
0.033023
  0
VERTEX
  8
0
 10
22.102684
 20
42.289224
 42
0.033503
  0
VERTEX
  8
0
 10
22.098000
 20
42.219400
 42
-0.032442
  0
VERTEX
  8
0
 10
22.092583
 20
42.136002
 42
-0.012914
  0
VERTEX
  8
0
 10
22.074814
 20
42.022693
 42
-0.012717
  0
VERTEX
  8
0
 10
22.049292
 20
41.901046
 42
-0.015622
  0
VERTEX
  8
0
 10
22.019070
 20
41.789011
 42
0.004552
  0
VERTEX
  8
0
 10
21.982760
 20
41.665358
 42
0.002178
  0
VERTEX
  8
0
 10
21.938257
 20
41.505895
 42
0.002159
  0
VERTEX
  8
0
 10
21.893231
 20
41.338980
 42
0.003077
  0
VERTEX
  8
0
 10
21.854799
 20
41.190333
 42
-0.005846
  0
VERTEX
  8
0
 10
21.747387
 20
40.784191
 42
-0.004581
  0
VERTEX
  8
0
 10
21.621697
 20
40.346101
 42
-0.003975
  0
VERTEX
  8
0
 10
21.501618
 20
39.953071
 42
-0.023475
  0
VERTEX
  8
0
 10
21.427535
 20
39.751000
 42
0.003563
  0
VERTEX
  8
0
 10
21.390440
 20
39.661070
 42
0.000989
  0
VERTEX
  8
0
 10
21.333544
 20
39.519490
 42
0.000998
  0
VERTEX
  8
0
 10
21.269769
 20
39.358953
 42
0.001047
  0
VERTEX
  8
0
 10
21.207637
 20
39.200667
 42
-0.002008
  0
VERTEX
  8
0
 10
21.142679
 20
39.036113
 42
-0.001535
  0
VERTEX
  8
0
 10
21.070341
 20
38.856599
 42
-0.001551
  0
VERTEX
  8
0
 10
21.001555
 20
38.688893
 42
-0.003661
  0
VERTEX
  8
0
 10
20.948969
 20
38.564395
 42
0.003838
  0
VERTEX
  8
0
 10
20.900001
 20
38.448349
 42
0.002305
  0
VERTEX
  8
0
 10
20.843562
 20
38.309871
 42
0.002307
  0
VERTEX
  8
0
 10
20.788691
 20
38.171605
 42
0.004023
  0
VERTEX
  8
0
 10
20.744649
 20
38.056395
 42
-0.006938
  0
VERTEX
  8
0
 10
20.618589
 20
37.732308
 42
-0.020110
  0
VERTEX
  8
0
 10
20.519394
 20
37.513162
 42
-0.022170
  0
VERTEX
  8
0
 10
20.438474
 20
37.368359
 42
-0.259838
  0
VERTEX
  8
0
 10
20.383999
 20
37.338000
 42
0.235453
  0
VERTEX
  8
0
 10
20.359468
 20
37.325770
 42
0.071241
  0
VERTEX
  8
0
 10
20.338800
 20
37.288258
 42
0.054436
  0
VERTEX
  8
0
 10
20.324672
 20
37.233520
 42
0.035971
  0
VERTEX
  8
0
 10
20.320000
 20
37.168667
 42
-0.037188
  0
VERTEX
  8
0
 10
20.315170
 20
37.103818
 42
-0.055934
  0
VERTEX
  8
0
 10
20.300582
 20
37.049075
 42
-0.073394
  0
VERTEX
  8
0
 10
20.279219
 20
37.011653
 42
-0.230338
  0
VERTEX
  8
0
 10
20.253895
 20
36.999333
 42
0.208703
  0
VERTEX
  8
0
 10
20.222264
 20
36.985529
 42
0.031812
  0
VERTEX
  8
0
 10
20.177739
 20
36.930938
 42
0.031084
  0
VERTEX
  8
0
 10
20.130715
 20
36.855674
 42
0.022366
  0
VERTEX
  8
0
 10
20.087466
 20
36.766500
 42
-0.012575
  0
VERTEX
  8
0
 10
20.037962
 20
36.659124
 42
-0.006518
  0
VERTEX
  8
0
 10
19.971045
 20
36.527449
 42
-0.006476
  0
VERTEX
  8
0
 10
19.898733
 20
36.393868
 42
-0.009784
  0
VERTEX
  8
0
 10
19.832021
 20
36.279667
 42
-0.006440
  0
VERTEX
  8
0
 10
19.583023
 20
35.883509
 42
-0.001580
  0
VERTEX
  8
0
 10
19.163032
 20
35.238500
 42
-0.000687
  0
VERTEX
  8
0
 10
18.720247
 20
34.565179
 42
-0.028137
  0
VERTEX
  8
0
 10
18.615940
 20
34.424891
 42
-0.001632
  0
VERTEX
  8
0
 10
18.572805
 20
34.373561
 42
-0.000351
  0
VERTEX
  8
0
 10
18.497705
 20
34.284910
 42
-0.000366
  0
VERTEX
  8
0
 10
18.410583
 20
34.182365
 42
-0.000350
  0
VERTEX
  8
0
 10
18.321940
 20
34.078333
 42
0.006560
  0
VERTEX
  8
0
 10
18.216667
 20
33.951630
 42
0.002586
  0
VERTEX
  8
0
 10
18.074967
 20
33.774592
 42
0.002559
  0
VERTEX
  8
0
 10
17.923796
 20
33.581686
 42
0.003197
  0
VERTEX
  8
0
 10
17.785530
 20
33.401000
 42
-0.032423
  0
VERTEX
  8
0
 10
17.411254
 20
32.966971
 42
-0.016292
  0
VERTEX
  8
0
 10
16.887359
 20
32.467251
 42
-0.016196
  0
VERTEX
  8
0
 10
16.316041
 20
31.989138
 42
-0.025058
  0
VERTEX
  8
0
 10
15.790333
 20
31.618319
 42
0.007188
  0
VERTEX
  8
0
 10
15.689975
 20
31.552769
 42
0.008893
  0
VERTEX
  8
0
 10
15.598510
 20
31.488740
 42
0.007528
  0
VERTEX
  8
0
 10
15.523747
 20
31.432656
 42
0.063369
  0
VERTEX
  8
0
 10
15.494000
 20
31.402921
 42
-0.090966
  0
VERTEX
  8
0
 10
15.459340
 20
31.371881
 42
-0.004494
  0
VERTEX
  8
0
 10
15.327312
 20
31.292752
 42
-0.007141
  0
VERTEX
  8
0
 10
15.167472
 20
31.201941
 42
-0.005089
  0
VERTEX
  8
0
 10
14.986000
 20
31.104632
 42
0.007643
  0
VERTEX
  8
0
 10
14.805544
 20
31.006677
 42
0.010936
  0
VERTEX
  8
0
 10
14.648833
 20
30.913914
 42
0.007059
  0
VERTEX
  8
0
 10
14.521464
 20
30.832192
 42
0.142961
  0
VERTEX
  8
0
 10
14.492111
 20
30.797500
 42
-0.067618
  0
VERTEX
  8
0
 10
14.477112
 20
30.773214
 42
-0.059685
  0
VERTEX
  8
0
 10
14.455599
 20
30.752632
 42
-0.062748
  0
VERTEX
  8
0
 10
14.431128
 20
30.738663
 42
-0.098340
  0
VERTEX
  8
0
 10
14.407444
 20
30.733927
 42
-0.419739
  0
VERTEX
  8
0
 10
14.340591
 20
30.801875
 42
-0.000134
  0
VERTEX
  8
0
 10
14.414590
 20
34.957800
 42
-0.000275
  0
VERTEX
  8
0
 10
14.490772
 20
39.048296
 42
-0.126896
  0
VERTEX
  8
0
 10
14.562362
 20
39.305351
 42
0.110919
  0
VERTEX
  8
0
 10
14.596077
 20
39.413149
 42
0.005599
  0
VERTEX
  8
0
 10
14.622373
 20
39.782920
 42
0.008746
  0
VERTEX
  8
0
 10
14.641153
 20
40.226561
 42
0.006204
  0
VERTEX
  8
0
 10
14.647333
 20
40.724667
 42
-0.005837
  0
VERTEX
  8
0
 10
14.653149
 20
41.222773
 42
-0.008231
  0
VERTEX
  8
0
 10
14.670820
 20
41.666413
 42
-0.005207
  0
VERTEX
  8
0
 10
14.695549
 20
42.036688
 42
-0.105640
  0
VERTEX
  8
0
 10
14.727287
 20
42.143982
 42
0.104296
  0
VERTEX
  8
0
 10
14.761824
 20
42.259607
 42
0.002027
  0
VERTEX
  8
0
 10
14.810699
 20
42.882020
 42
0.004784
  0
VERTEX
  8
0
 10
14.858024
 20
43.611979
 42
0.003179
  0
VERTEX
  8
0
 10
14.898966
 20
44.450000
 42
-0.000498
  0
VERTEX
  8
0
 10
15.002065
 20
46.821042
 42
-0.004806
  0
VERTEX
  8
0
 10
15.056555
 20
47.827954
 42
-0.005377
  0
VERTEX
  8
0
 10
15.100921
 20
48.422928
 42
-0.175322
  0
VERTEX
  8
0
 10
15.160523
 20
48.552100
 42
0.162925
  0
VERTEX
  8
0
 10
15.191946
 20
48.616101
 42
0.009783
  0
VERTEX
  8
0
 10
15.216654
 20
48.832221
 42
0.013840
  0
VERTEX
  8
0
 10
15.234220
 20
49.095664
 42
0.009726
  0
VERTEX
  8
0
 10
15.240000
 20
49.392756
 42
-0.009671
  0
VERTEX
  8
0
 10
15.245999
 20
49.702872
 42
-0.010302
  0
VERTEX
  8
0
 10
15.263994
 20
50.006041
 42
-0.009944
  0
VERTEX
  8
0
 10
15.289999
 20
50.265812
 42
-0.046211
  0
VERTEX
  8
0
 10
15.321680
 20
50.412989
 42
0.045301
  0
VERTEX
  8
0
 10
15.358118
 20
50.580782
 42
0.004393
  0
VERTEX
  8
0
 10
15.405708
 20
50.994555
 42
0.005548
  0
VERTEX
  8
0
 10
15.452723
 20
51.489889
 42
0.004359
  0
VERTEX
  8
0
 10
15.493033
 20
52.027667
 42
-0.000743
  0
VERTEX
  8
0
 10
15.625397
 20
53.983190
 42
-0.019766
  0
VERTEX
  8
0
 10
15.682070
 20
54.503003
 42
-0.123675
  0
VERTEX
  8
0
 10
15.763185
 20
54.697989
 42
-0.346151
  0
VERTEX
  8
0
 10
15.896880
 20
54.734126
 42
0.032195
  0
VERTEX
  8
0
 10
15.983681
 20
54.703605
 42
0.005707
  0
VERTEX
  8
0
 10
16.150244
 20
54.658877
 42
0.006155
  0
VERTEX
  8
0
 10
16.347032
 20
54.611007
 42
0.005509
  0
SEQEND
  0
ENDSEC
  0
EOF
