999
DXF data, created by potrace 1.16, written by Peter Selinger 2001-2019
  0
SECTION
  2
HEADER
  9
$ACADVER
  1
AC1006
  9
$EXTMIN
 10
0.000000
 20
0.000000
 30
0.000000
  9
$EXTMAX
 10
13.462000
 20
13.885333
 30
0.000000
  0
ENDSEC
  0
SECTION
  2
ENTITIES
  0
POLYLINE
  8
0
 66
1
 70
1
  0
VERTEX
  8
0
 10
6.801471
 20
12.820743
 42
0.048195
  0
VERTEX
  8
0
 10
6.413677
 20
12.584564
 42
0.029367
  0
VERTEX
  8
0
 10
6.003828
 20
12.237899
 42
0.029422
  0
VERTEX
  8
0
 10
5.651823
 20
11.860942
 42
0.070411
  0
VERTEX
  8
0
 10
5.451707
 20
11.535833
 42
-0.032161
  0
VERTEX
  8
0
 10
5.361158
 20
11.359966
 42
-0.132844
  0
VERTEX
  8
0
 10
5.275796
 20
11.277707
 42
-0.260351
  0
VERTEX
  8
0
 10
5.194932
 20
11.278245
 42
-0.125954
  0
VERTEX
  8
0
 10
5.118003
 20
11.352340
 42
0.148083
  0
VERTEX
  8
0
 10
4.943223
 20
11.506624
 42
0.036560
  0
VERTEX
  8
0
 10
4.580583
 20
11.641502
 42
0.035479
  0
VERTEX
  8
0
 10
4.138342
 20
11.736716
 42
0.035298
  0
VERTEX
  8
0
 10
3.686321
 20
11.768667
 42
0.027696
  0
VERTEX
  8
0
 10
3.211685
 20
11.742356
 42
0.054367
  0
VERTEX
  8
0
 10
2.842929
 20
11.660134
 42
0.058284
  0
VERTEX
  8
0
 10
2.517361
 20
11.505092
 42
0.036870
  0
VERTEX
  8
0
 10
2.178295
 20
11.255484
 42
0.083913
  0
VERTEX
  8
0
 10
1.441660
 20
10.372117
 42
0.092405
  0
VERTEX
  8
0
 10
1.067019
 20
9.324203
 42
0.092741
  0
VERTEX
  8
0
 10
1.095746
 20
8.214824
 42
0.085221
  0
VERTEX
  8
0
 10
1.520394
 20
7.154333
 42
0.009878
  0
VERTEX
  8
0
 10
1.604978
 20
7.022561
 42
0.013272
  0
VERTEX
  8
0
 10
1.687049
 20
6.906860
 42
0.010375
  0
VERTEX
  8
0
 10
1.759348
 20
6.814516
 42
0.122531
  0
VERTEX
  8
0
 10
1.795560
 20
6.787444
 42
-0.240526
  0
VERTEX
  8
0
 10
1.848848
 20
6.724257
 42
-0.155044
  0
VERTEX
  8
0
 10
1.841117
 20
6.626752
 42
-0.064829
  0
VERTEX
  8
0
 10
1.757199
 20
6.478894
 42
-0.015561
  0
VERTEX
  8
0
 10
1.580154
 20
6.258532
 42
0.017204
  0
VERTEX
  8
0
 10
1.460779
 20
6.108945
 42
0.011856
  0
VERTEX
  8
0
 10
1.335604
 20
5.931901
 42
0.011968
  0
VERTEX
  8
0
 10
1.223186
 20
5.755652
 42
0.023803
  0
VERTEX
  8
0
 10
1.144363
 20
5.610073
 42
-0.000322
  0
VERTEX
  8
0
 10
1.080383
 20
5.477387
 42
-0.000303
  0
VERTEX
  8
0
 10
1.014899
 20
5.342012
 42
-0.000301
  0
VERTEX
  8
0
 10
0.956690
 20
5.222048
 42
-0.001048
  0
VERTEX
  8
0
 10
0.918876
 20
5.144649
 42
0.106420
  0
VERTEX
  8
0
 10
0.858873
 20
4.904156
 42
0.008339
  0
VERTEX
  8
0
 10
0.848383
 20
4.239798
 42
0.004964
  0
VERTEX
  8
0
 10
0.855860
 20
3.548741
 42
0.254403
  0
VERTEX
  8
0
 10
0.920398
 20
3.435759
 42
-0.128601
  0
VERTEX
  8
0
 10
0.952073
 20
3.402526
 42
-0.027368
  0
VERTEX
  8
0
 10
0.987183
 20
3.330012
 42
-0.026931
  0
VERTEX
  8
0
 10
1.019626
 20
3.238974
 42
-0.022777
  0
VERTEX
  8
0
 10
1.044215
 20
3.139760
 42
0.112608
  0
VERTEX
  8
0
 10
1.164122
 20
2.872452
 42
0.023640
  0
VERTEX
  8
0
 10
1.493780
 20
2.475630
 42
0.020268
  0
VERTEX
  8
0
 10
1.854884
 20
2.111344
 42
0.189535
  0
VERTEX
  8
0
 10
2.056677
 20
2.032000
 42
-0.046510
  0
VERTEX
  8
0
 10
2.112043
 20
2.026839
 42
-0.066468
  0
VERTEX
  8
0
 10
2.158840
 20
2.011401
 42
-0.086573
  0
VERTEX
  8
0
 10
2.190416
 20
1.988662
 42
-0.195945
  0
VERTEX
  8
0
 10
2.201333
 20
1.961875
 42
0.287788
  0
VERTEX
  8
0
 10
2.221581
 20
1.929610
 42
0.018657
  0
VERTEX
  8
0
 10
2.327585
 20
1.883206
 42
0.022598
  0
VERTEX
  8
0
 10
2.466408
 20
1.835637
 42
0.014521
  0
VERTEX
  8
0
 10
2.631126
 20
1.792541
 42
0.047045
  0
VERTEX
  8
0
 10
3.315729
 20
1.701064
 42
0.058452
  0
VERTEX
  8
0
 10
3.955737
 20
1.751059
 42
0.056864
  0
VERTEX
  8
0
 10
4.580561
 20
1.950060
 42
0.041259
  0
VERTEX
  8
0
 10
5.220233
 20
2.303187
 42
0.000000
  0
VERTEX
  8
0
 10
5.572133
 20
2.537218
 42
0.000000
  0
VERTEX
  8
0
 10
5.830591
 20
2.134445
 42
0.024880
  0
VERTEX
  8
0
 10
6.076157
 20
1.790666
 42
0.036872
  0
VERTEX
  8
0
 10
6.326746
 20
1.518270
 42
0.037167
  0
VERTEX
  8
0
 10
6.613063
 20
1.287181
 42
0.025836
  0
VERTEX
  8
0
 10
6.966838
 20
1.068769
 42
0.027671
  0
VERTEX
  8
0
 10
7.212315
 20
0.951366
 42
0.048761
  0
VERTEX
  8
0
 10
7.427310
 20
0.886427
 42
0.038059
  0
VERTEX
  8
0
 10
7.684653
 20
0.855446
 42
0.010933
  0
VERTEX
  8
0
 10
8.086096
 20
0.846667
 42
0.045719
  0
VERTEX
  8
0
 10
8.769423
 20
0.909280
 42
0.086889
  0
VERTEX
  8
0
 10
9.285432
 20
1.101208
 42
0.092015
  0
VERTEX
  8
0
 10
9.686507
 20
1.448003
 42
0.056501
  0
VERTEX
  8
0
 10
10.020086
 20
1.978355
 42
0.024796
  0
VERTEX
  8
0
 10
10.199884
 20
2.404814
 42
0.035950
  0
VERTEX
  8
0
 10
10.311809
 20
2.797685
 42
0.041952
  0
VERTEX
  8
0
 10
10.353900
 20
3.141508
 42
0.079481
  0
VERTEX
  8
0
 10
10.320392
 20
3.417844
 42
-0.018724
  0
VERTEX
  8
0
 10
10.250828
 20
3.699840
 42
-0.092670
  0
VERTEX
  8
0
 10
10.247637
 20
3.862586
 42
-0.254972
  0
VERTEX
  8
0
 10
10.303542
 20
3.933951
 42
-0.180500
  0
VERTEX
  8
0
 10
10.407305
 20
3.939125
 42
0.201234
  0
VERTEX
  8
0
 10
10.815545
 20
3.975897
 42
0.044911
  0
VERTEX
  8
0
 10
11.414837
 20
4.365762
 42
0.045796
  0
VERTEX
  8
0
 10
11.979204
 20
4.900072
 42
0.082605
  0
VERTEX
  8
0
 10
12.314666
 20
5.439464
 42
-0.003214
  0
VERTEX
  8
0
 10
12.377176
 20
5.588151
 42
-0.003149
  0
VERTEX
  8
0
 10
12.442015
 20
5.737044
 42
-0.003100
  0
VERTEX
  8
0
 10
12.500534
 20
5.866963
 42
-0.011893
  0
VERTEX
  8
0
 10
12.539358
 20
5.946684
 42
0.110503
  0
VERTEX
  8
0
 10
12.603619
 20
6.191332
 42
0.010520
  0
VERTEX
  8
0
 10
12.613388
 20
6.813110
 42
0.006724
  0
VERTEX
  8
0
 10
12.601322
 20
7.455605
 42
0.251350
  0
VERTEX
  8
0
 10
12.530667
 20
7.577667
 42
-0.106753
  0
VERTEX
  8
0
 10
12.498208
 20
7.608907
 42
-0.051150
  0
VERTEX
  8
0
 10
12.470871
 20
7.660207
 42
-0.047432
  0
VERTEX
  8
0
 10
12.452275
 20
7.721933
 42
-0.049494
  0
VERTEX
  8
0
 10
12.446000
 20
7.785173
 42
0.165978
  0
VERTEX
  8
0
 10
12.380329
 20
7.977555
 42
0.015813
  0
VERTEX
  8
0
 10
12.059907
 20
8.366153
 42
0.014607
  0
VERTEX
  8
0
 10
11.715057
 20
8.736048
 42
0.200424
  0
VERTEX
  8
0
 10
11.549154
 20
8.805333
 42
-0.061133
  0
VERTEX
  8
0
 10
11.503590
 20
8.810925
 42
-0.079677
  0
VERTEX
  8
0
 10
11.465001
 20
8.827388
 42
-0.097510
  0
VERTEX
  8
0
 10
11.439168
 20
8.851778
 42
-0.156182
  0
VERTEX
  8
0
 10
11.430000
 20
8.880413
 42
0.307865
  0
VERTEX
  8
0
 10
11.406847
 20
8.914452
 42
0.014893
  0
VERTEX
  8
0
 10
11.271260
 20
8.963390
 42
0.019952
  0
VERTEX
  8
0
 10
11.096742
 20
9.012951
 42
0.012578
  0
VERTEX
  8
0
 10
10.889610
 20
9.057457
 42
-0.013640
  0
VERTEX
  8
0
 10
10.502472
 20
9.141501
 42
-0.230987
  0
VERTEX
  8
0
 10
10.404927
 20
9.222842
 42
-0.162395
  0
VERTEX
  8
0
 10
10.390769
 20
9.364313
 42
-0.006101
  0
VERTEX
  8
0
 10
10.516241
 20
9.889679
 42
0.112910
  0
VERTEX
  8
0
 10
10.533446
 20
10.679876
 42
0.066317
  0
VERTEX
  8
0
 10
10.220643
 20
11.576871
 42
0.065216
  0
VERTEX
  8
0
 10
9.674458
 20
12.378275
 42
0.097712
  0
VERTEX
  8
0
 10
9.001026
 20
12.887591
 42
0.084106
  0
VERTEX
  8
0
 10
8.550478
 20
13.019541
 42
0.036883
  0
VERTEX
  8
0
 10
7.927102
 20
13.046581
 42
0.036827
  0
VERTEX
  8
0
 10
7.292711
 20
12.980364
 42
0.068380
  0
SEQEND
  0
ENDSEC
  0
EOF
