999
DXF data, created by potrace 1.16, written by Peter Selinger 2001-2019
  0
SECTION
  2
HEADER
  9
$ACADVER
  1
AC1006
  9
$EXTMIN
 10
0.000000
 20
0.000000
 30
0.000000
  9
$EXTMAX
 10
22.013333
 20
20.828000
 30
0.000000
  0
ENDSEC
  0
SECTION
  2
ENTITIES
  0
POLYLINE
  8
0
 66
1
 70
1
  0
VERTEX
  8
0
 10
3.725333
 20
19.864594
 42
0.030486
  0
VERTEX
  8
0
 10
3.281080
 20
19.712184
 42
0.053133
  0
VERTEX
  8
0
 10
2.939201
 20
19.526476
 42
0.039762
  0
VERTEX
  8
0
 10
2.583425
 20
19.236853
 42
0.010447
  0
VERTEX
  8
0
 10
2.062471
 20
18.717737
 42
0.045394
  0
VERTEX
  8
0
 10
1.837808
 20
18.437370
 42
0.021644
  0
VERTEX
  8
0
 10
1.599408
 20
18.041041
 42
0.019057
  0
VERTEX
  8
0
 10
1.403906
 20
17.646590
 42
0.105902
  0
VERTEX
  8
0
 10
1.354667
 20
17.416725
 42
-0.050379
  0
VERTEX
  8
0
 10
1.349114
 20
17.361754
 42
-0.047783
  0
VERTEX
  8
0
 10
1.332663
 20
17.307972
 42
-0.051411
  0
VERTEX
  8
0
 10
1.308474
 20
17.263170
 42
-0.105243
  0
VERTEX
  8
0
 10
1.279762
 20
17.235700
 42
0.133963
  0
VERTEX
  8
0
 10
1.247373
 20
17.200995
 42
0.025503
  0
VERTEX
  8
0
 10
1.210745
 20
17.121870
 42
0.025568
  0
VERTEX
  8
0
 10
1.176495
 20
17.022341
 42
0.021061
  0
VERTEX
  8
0
 10
1.149997
 20
16.913203
 42
-0.001629
  0
VERTEX
  8
0
 10
1.122137
 20
16.775292
 42
-0.000604
  0
VERTEX
  8
0
 10
1.082055
 20
16.581345
 42
-0.000598
  0
VERTEX
  8
0
 10
1.037819
 20
16.369861
 42
-0.000722
  0
VERTEX
  8
0
 10
0.995745
 20
16.171333
 42
0.047867
  0
VERTEX
  8
0
 10
0.913260
 20
15.454857
 42
0.004693
  0
VERTEX
  8
0
 10
0.896589
 20
13.713769
 42
0.005336
  0
VERTEX
  8
0
 10
0.914735
 20
11.982819
 42
0.036440
  0
VERTEX
  8
0
 10
0.994794
 20
11.133667
 42
0.001734
  0
VERTEX
  8
0
 10
1.039143
 20
10.875800
 42
0.001281
  0
VERTEX
  8
0
 10
1.089940
 20
10.590742
 42
0.001294
  0
VERTEX
  8
0
 10
1.139328
 20
10.321622
 42
0.002904
  0
VERTEX
  8
0
 10
1.178530
 20
10.117667
 42
-0.003101
  0
VERTEX
  8
0
 10
1.217126
 20
9.916434
 42
-0.001476
  0
VERTEX
  8
0
 10
1.264422
 20
9.657027
 42
-0.001463
  0
VERTEX
  8
0
 10
1.312259
 20
9.385613
 42
-0.002079
  0
VERTEX
  8
0
 10
1.353082
 20
9.144000
 42
0.009365
  0
VERTEX
  8
0
 10
1.393831
 20
8.922523
 42
0.010660
  0
VERTEX
  8
0
 10
1.441318
 20
8.712141
 42
0.009910
  0
VERTEX
  8
0
 10
1.488858
 20
8.535668
 42
0.057134
  0
VERTEX
  8
0
 10
1.526190
 20
8.446649
 42
-0.040147
  0
VERTEX
  8
0
 10
1.557803
 20
8.377899
 42
-0.024373
  0
VERTEX
  8
0
 10
1.584439
 20
8.292401
 42
-0.024339
  0
VERTEX
  8
0
 10
1.602696
 20
8.204418
 42
-0.039003
  0
VERTEX
  8
0
 10
1.608667
 20
8.128000
 42
0.036352
  0
VERTEX
  8
0
 10
1.614230
 20
8.051582
 42
0.022835
  0
VERTEX
  8
0
 10
1.631243
 20
7.963599
 42
0.022891
  0
VERTEX
  8
0
 10
1.656059
 20
7.878086
 42
0.038386
  0
VERTEX
  8
0
 10
1.685521
 20
7.809351
 42
-0.041351
  0
VERTEX
  8
0
 10
1.780053
 20
7.585156
 42
-0.009377
  0
VERTEX
  8
0
 10
1.901210
 20
7.190160
 42
-0.008179
  0
VERTEX
  8
0
 10
2.008125
 20
6.792282
 42
-0.061616
  0
VERTEX
  8
0
 10
2.032000
 20
6.599274
 42
0.049665
  0
VERTEX
  8
0
 10
2.038276
 20
6.536250
 42
0.047500
  0
VERTEX
  8
0
 10
2.056871
 20
6.474707
 42
0.051202
  0
VERTEX
  8
0
 10
2.084208
 20
6.423537
 42
0.106459
  0
VERTEX
  8
0
 10
2.116667
 20
6.392333
 42
-0.111983
  0
VERTEX
  8
0
 10
2.149143
 20
6.360423
 42
-0.050144
  0
VERTEX
  8
0
 10
2.176462
 20
6.306766
 42
-0.046179
  0
VERTEX
  8
0
 10
2.195062
 20
6.241704
 42
-0.046572
  0
VERTEX
  8
0
 10
2.201333
 20
6.174521
 42
0.038260
  0
VERTEX
  8
0
 10
2.207008
 20
6.100471
 42
0.023331
  0
VERTEX
  8
0
 10
2.224409
 20
6.014460
 42
0.023319
  0
VERTEX
  8
0
 10
2.249781
 20
5.930330
 42
0.037818
  0
VERTEX
  8
0
 10
2.279890
 20
5.862018
 42
-0.031875
  0
VERTEX
  8
0
 10
2.318569
 20
5.777010
 42
-0.006471
  0
VERTEX
  8
0
 10
2.375431
 20
5.621397
 42
-0.006799
  0
VERTEX
  8
0
 10
2.436848
 20
5.438394
 42
-0.006325
  0
VERTEX
  8
0
 10
2.494824
 20
5.249333
 42
0.007077
  0
VERTEX
  8
0
 10
2.588366
 20
4.945921
 42
0.011588
  0
VERTEX
  8
0
 10
2.677147
 20
4.692021
 42
0.012790
  0
VERTEX
  8
0
 10
2.770552
 20
4.461606
 42
0.011895
  0
VERTEX
  8
0
 10
2.877779
 20
4.230554
 42
-0.031247
  0
VERTEX
  8
0
 10
2.906679
 20
4.161394
 42
-0.009534
  0
VERTEX
  8
0
 10
2.941755
 20
4.053483
 42
-0.009504
  0
VERTEX
  8
0
 10
2.976517
 20
3.930843
 42
-0.010248
  0
VERTEX
  8
0
 10
3.005667
 20
3.810000
 42
0.011097
  0
VERTEX
  8
0
 10
3.035034
 20
3.689157
 42
0.010262
  0
VERTEX
  8
0
 10
3.070447
 20
3.566517
 42
0.010309
  0
VERTEX
  8
0
 10
3.106466
 20
3.458643
 42
0.033411
  0
VERTEX
  8
0
 10
3.136514
 20
3.389446
 42
-0.014923
  0
VERTEX
  8
0
 10
3.252456
 20
3.147343
 42
-0.006170
  0
VERTEX
  8
0
 10
3.395400
 20
2.813390
 42
-0.005706
  0
VERTEX
  8
0
 10
3.526587
 20
2.485595
 42
-0.024483
  0
VERTEX
  8
0
 10
3.592802
 20
2.286000
 42
0.036174
  0
VERTEX
  8
0
 10
3.702672
 20
1.979001
 42
0.024277
  0
VERTEX
  8
0
 10
3.869721
 20
1.645651
 42
0.024437
  0
VERTEX
  8
0
 10
4.065517
 20
1.334704
 42
0.040847
  0
VERTEX
  8
0
 10
4.262751
 20
1.096926
 42
0.024811
  0
VERTEX
  8
0
 10
4.432301
 20
0.939900
 42
0.104189
  0
VERTEX
  8
0
 10
4.554150
 20
0.874934
 42
0.086592
  0
VERTEX
  8
0
 10
4.702996
 20
0.858577
 42
0.014157
  0
VERTEX
  8
0
 10
4.992941
 20
0.885215
 42
0.002314
  0
VERTEX
  8
0
 10
6.201322
 20
1.036509
 42
0.003159
  0
VERTEX
  8
0
 10
7.288691
 20
1.184759
 42
0.003523
  0
VERTEX
  8
0
 10
8.209861
 20
1.322912
 42
0.008451
  0
VERTEX
  8
0
 10
8.890000
 20
1.441634
 42
-0.001422
  0
VERTEX
  8
0
 10
9.089991
 20
1.479447
 42
-0.001134
  0
VERTEX
  8
0
 10
9.305925
 20
1.519133
 42
-0.001146
  0
VERTEX
  8
0
 10
9.506091
 20
1.554978
 42
-0.002890
  0
VERTEX
  8
0
 10
9.652000
 20
1.579893
 42
0.015613
  0
VERTEX
  8
0
 10
9.771657
 20
1.603473
 42
0.017028
  0
VERTEX
  8
0
 10
9.886156
 20
1.633913
 42
0.016709
  0
VERTEX
  8
0
 10
9.981941
 20
1.666434
 42
0.076367
  0
VERTEX
  8
0
 10
10.033000
 20
1.695207
 42
-0.101000
  0
VERTEX
  8
0
 10
10.091184
 20
1.724346
 42
-0.011237
  0
VERTEX
  8
0
 10
10.236132
 20
1.759893
 42
-0.013309
  0
VERTEX
  8
0
 10
10.412570
 20
1.794084
 42
-0.010415
  0
VERTEX
  8
0
 10
10.605619
 20
1.822069
 42
0.012967
  0
VERTEX
  8
0
 10
10.795902
 20
1.850646
 42
0.018209
  0
VERTEX
  8
0
 10
10.963810
 20
1.886682
 42
0.014641
  0
VERTEX
  8
0
 10
11.098343
 20
1.924947
 42
0.179603
  0
VERTEX
  8
0
 10
11.139782
 20
1.957229
 42
-0.155314
  0
VERTEX
  8
0
 10
11.173451
 20
1.986112
 42
-0.037201
  0
VERTEX
  8
0
 10
11.244096
 20
2.010036
 42
-0.034704
  0
VERTEX
  8
0
 10
11.333200
 20
2.026506
 42
-0.028357
  0
VERTEX
  8
0
 10
11.430000
 20
2.032000
 42
0.032024
  0
VERTEX
  8
0
 10
11.527242
 20
2.038235
 42
0.037579
  0
VERTEX
  8
0
 10
11.617701
 20
2.056871
 42
0.040930
  0
VERTEX
  8
0
 10
11.689836
 20
2.084032
 42
0.144823
  0
VERTEX
  8
0
 10
11.726333
 20
2.116667
 42
-0.128561
  0
VERTEX
  8
0
 10
11.760472
 20
2.149211
 42
-0.046040
  0
VERTEX
  8
0
 10
11.822531
 20
2.176462
 42
-0.041947
  0
VERTEX
  8
0
 10
11.899300
 20
2.195079
 42
-0.038534
  0
VERTEX
  8
0
 10
11.980333
 20
2.201333
 42
0.038534
  0
VERTEX
  8
0
 10
12.061366
 20
2.207588
 42
0.041947
  0
VERTEX
  8
0
 10
12.138136
 20
2.226204
 42
0.046040
  0
VERTEX
  8
0
 10
12.200195
 20
2.253455
 42
0.128561
  0
VERTEX
  8
0
 10
12.234333
 20
2.286000
 42
-0.109927
  0
VERTEX
  8
0
 10
12.265979
 20
2.318469
 42
-0.050558
  0
VERTEX
  8
0
 10
12.318694
 20
2.345796
 42
-0.046678
  0
VERTEX
  8
0
 10
12.382426
 20
2.364394
 42
-0.047696
  0
VERTEX
  8
0
 10
12.448038
 20
2.370667
 42
0.068810
  0
VERTEX
  8
0
 10
12.692692
 20
2.404496
 42
0.012303
  0
VERTEX
  8
0
 10
13.134325
 20
2.540825
 42
0.014103
  0
VERTEX
  8
0
 10
13.602232
 20
2.712803
 42
0.022544
  0
VERTEX
  8
0
 10
13.990018
 20
2.888545
 42
-0.021812
  0
VERTEX
  8
0
 10
14.052943
 20
2.917173
 42
-0.019567
  0
VERTEX
  8
0
 10
14.120422
 20
2.941364
 42
-0.020014
  0
VERTEX
  8
0
 10
14.182707
 20
2.958272
 42
-0.056322
  0
VERTEX
  8
0
 10
14.227496
 20
2.963333
 42
0.078450
  0
VERTEX
  8
0
 10
14.282113
 20
2.971956
 42
0.008706
  0
VERTEX
  8
0
 10
14.401938
 20
3.013075
 42
0.010432
  0
VERTEX
  8
0
 10
14.543577
 20
3.067823
 42
0.008272
  0
VERTEX
  8
0
 10
14.694312
 20
3.132667
 42
-0.000000
  0
VERTEX
  8
0
 10
14.865640
 20
3.209752
 42
-0.000000
  0
VERTEX
  8
0
 10
15.070667
 20
3.302000
 42
-0.044444
  0
VERTEX
  8
0
 10
15.275694
 20
3.394248
 42
-0.000000
  0
VERTEX
  8
0
 10
15.447022
 20
3.471333
 42
-0.007539
  0
VERTEX
  8
0
 10
15.597162
 20
3.536182
 42
-0.009734
  0
VERTEX
  8
0
 10
15.736985
 20
3.590925
 42
-0.007777
  0
VERTEX
  8
0
 10
15.855014
 20
3.632430
 42
-0.080824
  0
VERTEX
  8
0
 10
15.905633
 20
3.640667
 42
0.070202
  0
VERTEX
  8
0
 10
15.939188
 20
3.645401
 42
0.060402
  0
VERTEX
  8
0
 10
15.972016
 20
3.659320
 42
0.062934
  0
VERTEX
  8
0
 10
15.999209
 20
3.679879
 42
0.095162
  0
VERTEX
  8
0
 10
16.016111
 20
3.704167
 42
-0.156265
  0
VERTEX
  8
0
 10
16.047850
 20
3.739758
 42
-0.004046
  0
VERTEX
  8
0
 10
16.235010
 20
3.848023
 42
-0.008191
  0
VERTEX
  8
0
 10
16.460061
 20
3.970958
 42
-0.005459
  0
VERTEX
  8
0
 10
16.721667
 20
4.104722
 42
0.005636
  0
VERTEX
  8
0
 10
16.989229
 20
4.241651
 42
0.007162
  0
VERTEX
  8
0
 10
17.232898
 20
4.374329
 42
0.005748
  0
VERTEX
  8
0
 10
17.433719
 20
4.490496
 42
0.057375
  0
VERTEX
  8
0
 10
17.510881
 20
4.549222
 42
-0.032846
  0
VERTEX
  8
0
 10
17.559747
 20
4.590340
 42
-0.031984
  0
VERTEX
  8
0
 10
17.613998
 20
4.625105
 42
-0.033665
  0
VERTEX
  8
0
 10
17.665565
 20
4.649295
 42
-0.093101
  0
VERTEX
  8
0
 10
17.704809
 20
4.656667
 42
0.135601
  0
VERTEX
  8
0
 10
17.791552
 20
4.680632
 42
0.011464
  0
VERTEX
  8
0
 10
17.989566
 20
4.805340
 42
0.013294
  0
VERTEX
  8
0
 10
18.237572
 20
4.979251
 42
0.007059
  0
VERTEX
  8
0
 10
18.535761
 20
5.207000
 42
0.028149
  0
VERTEX
  8
0
 10
19.197115
 20
5.790174
 42
0.015074
  0
VERTEX
  8
0
 10
19.948926
 20
6.578482
 42
0.008688
  0
VERTEX
  8
0
 10
20.636346
 20
7.371507
 42
0.175986
  0
VERTEX
  8
0
 10
20.743333
 20
7.666059
 42
-0.078148
  0
VERTEX
  8
0
 10
20.748750
 20
7.700507
 42
-0.007031
  0
VERTEX
  8
0
 10
20.776816
 20
7.783521
 42
-0.009006
  0
VERTEX
  8
0
 10
20.813664
 20
7.881986
 42
-0.006915
  0
VERTEX
  8
0
 10
20.857317
 20
7.988204
 42
0.007708
  0
VERTEX
  8
0
 10
20.908013
 20
8.112119
 42
0.004219
  0
VERTEX
  8
0
 10
20.966513
 20
8.265442
 42
0.004203
  0
VERTEX
  8
0
 10
21.023315
 20
8.422198
 42
0.006686
  0
VERTEX
  8
0
 10
21.068984
 20
8.557344
 42
0.059272
  0
VERTEX
  8
0
 10
21.140144
 20
8.919357
 42
0.016946
  0
VERTEX
  8
0
 10
21.164096
 20
9.492021
 42
0.009638
  0
VERTEX
  8
0
 10
21.157509
 20
10.071649
 42
0.251772
  0
VERTEX
  8
0
 10
21.082000
 20
10.202333
 42
-0.107857
  0
VERTEX
  8
0
 10
21.049537
 20
10.233714
 42
-0.050951
  0
VERTEX
  8
0
 10
21.022204
 20
10.285501
 42
-0.047172
  0
VERTEX
  8
0
 10
21.003608
 20
10.347919
 42
-0.048859
  0
VERTEX
  8
0
 10
20.997333
 20
10.411977
 42
0.129064
  0
VERTEX
  8
0
 10
20.872695
 20
10.886792
 42
0.029910
  0
VERTEX
  8
0
 10
20.420988
 20
11.586551
 42
0.030950
  0
VERTEX
  8
0
 10
19.825341
 20
12.301093
 42
0.039868
  0
VERTEX
  8
0
 10
19.191068
 20
12.873671
 42
-0.000721
  0
VERTEX
  8
0
 10
19.016100
 20
13.008367
 42
-0.000869
  0
VERTEX
  8
0
 10
18.852115
 20
13.135441
 42
-0.000739
  0
VERTEX
  8
0
 10
18.714354
 20
13.242903
 42
-0.005889
  0
VERTEX
  8
0
 10
18.651407
 20
13.293363
 42
0.023573
  0
VERTEX
  8
0
 10
18.608272
 20
13.325503
 42
0.025223
  0
VERTEX
  8
0
 10
18.563242
 20
13.352667
 42
0.025866
  0
VERTEX
  8
0
 10
18.522455
 20
13.371900
 42
0.097538
  0
VERTEX
  8
0
 10
18.494869
 20
13.377333
 42
-0.096777
  0
VERTEX
  8
0
 10
18.421685
 20
13.391632
 42
-0.003338
  0
VERTEX
  8
0
 10
18.151497
 20
13.503510
 42
-0.006995
  0
VERTEX
  8
0
 10
17.881617
 20
13.621852
 42
-0.014540
  0
VERTEX
  8
0
 10
17.675316
 20
13.723118
 42
0.035297
  0
VERTEX
  8
0
 10
17.607841
 20
13.752832
 42
0.022943
  0
VERTEX
  8
0
 10
17.526379
 20
13.777887
 42
0.023074
  0
VERTEX
  8
0
 10
17.444195
 20
13.795091
 42
0.040077
  0
VERTEX
  8
0
 10
17.374749
 20
13.800667
 42
-0.050634
  0
VERTEX
  8
0
 10
17.309332
 20
13.807308
 42
-0.038109
  0
VERTEX
  8
0
 10
17.239770
 20
13.827201
 42
-0.038993
  0
VERTEX
  8
0
 10
17.176598
 20
13.856378
 42
-0.068803
  0
VERTEX
  8
0
 10
17.130869
 20
13.890998
 42
0.185539
  0
VERTEX
  8
0
 10
16.926314
 20
13.981977
 42
0.004859
  0
VERTEX
  8
0
 10
15.912342
 20
14.024455
 42
0.010730
  0
VERTEX
  8
0
 10
14.925262
 20
14.035009
 42
0.033916
  0
VERTEX
  8
0
 10
14.266333
 20
13.983127
 42
0.003926
  0
VERTEX
  8
0
 10
13.788015
 20
13.908765
 42
0.010329
  0
VERTEX
  8
0
 10
13.446785
 20
13.845705
 42
0.014217
  0
VERTEX
  8
0
 10
13.192019
 20
13.785561
 42
0.028779
  0
VERTEX
  8
0
 10
12.996333
 20
13.721190
 42
-0.010715
  0
VERTEX
  8
0
 10
12.902134
 20
13.686386
 42
-0.002397
  0
VERTEX
  8
0
 10
12.739952
 20
13.631252
 42
-0.002487
  0
VERTEX
  8
0
 10
12.552032
 20
13.569409
 42
-0.002402
  0
VERTEX
  8
0
 10
12.361333
 20
13.508712
 42
0.002773
  0
VERTEX
  8
0
 10
12.170635
 20
13.447859
 42
0.002866
  0
VERTEX
  8
0
 10
11.982715
 20
13.385548
 42
0.002766
  0
VERTEX
  8
0
 10
11.820564
 20
13.329748
 42
0.012297
  0
VERTEX
  8
0
 10
11.726333
 20
13.294111
 42
0.005149
  0
VERTEX
  8
0
 10
11.313019
 20
13.121089
 42
0.006733
  0
VERTEX
  8
0
 10
10.939004
 20
12.953967
 42
0.005770
  0
VERTEX
  8
0
 10
10.527747
 20
12.757726
 42
0.002575
  0
VERTEX
  8
0
 10
9.990667
 20
12.490349
 42
0.000998
  0
VERTEX
  8
0
 10
9.026721
 20
12.001837
 42
0.005797
  0
VERTEX
  8
0
 10
8.521852
 20
11.737295
 42
0.005228
  0
VERTEX
  8
0
 10
8.202111
 20
11.560664
 42
0.161838
  0
VERTEX
  8
0
 10
8.142111
 20
11.494255
 42
-0.715425
  0
VERTEX
  8
0
 10
8.034601
 20
11.503423
 42
-0.045745
  0
VERTEX
  8
0
 10
7.963020
 20
11.969780
 42
-0.025000
  0
VERTEX
  8
0
 10
7.955648
 20
12.647070
 42
-0.081232
  0
VERTEX
  8
0
 10
8.045114
 20
13.085684
 42
0.085389
  0
VERTEX
  8
0
 10
8.128648
 20
13.513211
 42
0.005808
  0
VERTEX
  8
0
 10
8.142289
 20
14.755746
 42
0.006415
  0
VERTEX
  8
0
 10
8.125676
 20
15.989281
 42
0.071923
  0
VERTEX
  8
0
 10
8.042954
 20
16.471487
 42
0.010241
  0
VERTEX
  8
0
 10
7.820100
 20
17.113770
 42
0.013351
  0
VERTEX
  8
0
 10
7.588658
 20
17.691283
 42
0.008246
  0
VERTEX
  8
0
 10
7.372045
 20
18.170726
 42
0.185558
  0
VERTEX
  8
0
 10
7.264157
 20
18.273889
 42
-0.111190
  0
VERTEX
  8
0
 10
7.238331
 20
18.292230
 42
-0.063624
  0
VERTEX
  8
0
 10
7.216492
 20
18.323832
 42
-0.058722
  0
VERTEX
  8
0
 10
7.201694
 20
18.363108
 42
-0.060828
  0
VERTEX
  8
0
 10
7.196667
 20
18.404278
 42
0.200807
  0
VERTEX
  8
0
 10
7.087570
 20
18.664969
 42
0.020342
  0
VERTEX
  8
0
 10
6.579643
 20
19.126367
 42
0.022194
  0
VERTEX
  8
0
 10
6.034220
 20
19.543049
 42
0.153180
  0
VERTEX
  8
0
 10
5.716682
 20
19.642667
 42
-0.055290
  0
VERTEX
  8
0
 10
5.667457
 20
19.648127
 42
-0.074872
  0
VERTEX
  8
0
 10
5.625800
 20
19.664303
 42
-0.094317
  0
VERTEX
  8
0
 10
5.597858
 20
19.688220
 42
-0.170313
  0
VERTEX
  8
0
 10
5.588000
 20
19.716322
 42
0.338228
  0
VERTEX
  8
0
 10
5.547266
 20
19.769650
 42
0.018424
  0
VERTEX
  8
0
 10
5.328237
 20
19.820786
 42
0.017475
  0
VERTEX
  8
0
 10
4.997250
 20
19.873374
 42
0.005169
  0
VERTEX
  8
0
 10
4.487333
 20
19.930872
 42
0.029730
  0
VERTEX
  8
0
 10
4.313853
 20
19.938250
 42
0.017457
  0
VERTEX
  8
0
 10
4.106333
 20
19.927481
 42
0.017425
  0
VERTEX
  8
0
 10
3.898878
 20
19.902127
 42
0.028278
  0
SEQEND
  0
ENDSEC
  0
EOF
