999
DXF data, created by potrace 1.16, written by Peter Selinger 2001-2019
  0
SECTION
  2
HEADER
  9
$ACADVER
  1
AC1006
  9
$EXTMIN
 10
0.000000
 20
0.000000
 30
0.000000
  9
$EXTMAX
 10
36.830000
 20
66.548000
 30
0.000000
  0
ENDSEC
  0
SECTION
  2
ENTITIES
  0
POLYLINE
  8
0
 66
1
 70
1
  0
VERTEX
  8
0
 10
30.014333
 20
65.616667
 42
-0.100251
  0
VERTEX
  8
0
 10
29.871336
 20
65.586782
 42
-0.000073
  0
VERTEX
  8
0
 10
26.022577
 20
65.563528
 42
-0.000845
  0
VERTEX
  8
0
 10
21.729319
 20
65.545470
 42
-0.000516
  0
VERTEX
  8
0
 10
16.663163
 20
65.537951
 42
0.000424
  0
VERTEX
  8
0
 10
10.873900
 20
65.530425
 42
0.001175
  0
VERTEX
  8
0
 10
6.800224
 20
65.512102
 42
0.000092
  0
VERTEX
  8
0
 10
3.502963
 20
65.488921
 42
0.258009
  0
VERTEX
  8
0
 10
3.429000
 20
65.447333
 42
-0.111412
  0
VERTEX
  8
0
 10
3.397163
 20
65.414859
 42
-0.050262
  0
VERTEX
  8
0
 10
3.343770
 20
65.387538
 42
-0.046318
  0
VERTEX
  8
0
 10
3.279080
 20
65.368939
 42
-0.046881
  0
VERTEX
  8
0
 10
3.212337
 20
65.362667
 42
0.045466
  0
VERTEX
  8
0
 10
3.149433
 20
65.356935
 42
0.065371
  0
VERTEX
  8
0
 10
3.096274
 20
65.339772
 42
0.085372
  0
VERTEX
  8
0
 10
3.060368
 20
65.314506
 42
0.199402
  0
VERTEX
  8
0
 10
3.048000
 20
65.284727
 42
-0.227596
  0
VERTEX
  8
0
 10
3.031848
 20
65.251081
 42
-0.046364
  0
VERTEX
  8
0
 10
2.975129
 20
65.213677
 42
-0.040375
  0
VERTEX
  8
0
 10
2.894938
 20
65.178859
 42
-0.028187
  0
VERTEX
  8
0
 10
2.799929
 20
65.152302
 42
0.101775
  0
VERTEX
  8
0
 10
2.560787
 20
65.045779
 42
0.020558
  0
VERTEX
  8
0
 10
2.192248
 20
64.757967
 42
0.016178
  0
VERTEX
  8
0
 10
1.845544
 20
64.443625
 42
0.203221
  0
VERTEX
  8
0
 10
1.778000
 20
64.284305
 42
-0.067011
  0
VERTEX
  8
0
 10
1.772937
 20
64.246695
 42
-0.060901
  0
VERTEX
  8
0
 10
1.758060
 20
64.210432
 42
-0.064559
  0
VERTEX
  8
0
 10
1.736084
 20
64.180909
 42
-0.102341
  0
VERTEX
  8
0
 10
1.710121
 20
64.163222
 42
0.185280
  0
VERTEX
  8
0
 10
1.597274
 20
64.055874
 42
0.005501
  0
VERTEX
  8
0
 10
1.318386
 20
63.452488
 42
0.008145
  0
VERTEX
  8
0
 10
1.063906
 20
62.859971
 42
0.097653
  0
VERTEX
  8
0
 10
1.016000
 20
62.617022
 42
-0.037454
  0
VERTEX
  8
0
 10
1.009749
 20
62.533684
 42
-0.041284
  0
VERTEX
  8
0
 10
0.991129
 20
62.454966
 42
-0.045315
  0
VERTEX
  8
0
 10
0.963890
 20
62.391490
 42
-0.131068
  0
VERTEX
  8
0
 10
0.931333
 20
62.357000
 42
0.245550
  0
VERTEX
  8
0
 10
0.893306
 20
62.292930
 42
0.003099
  0
VERTEX
  8
0
 10
0.869932
 20
61.805103
 42
0.007400
  0
VERTEX
  8
0
 10
0.853411
 20
61.190626
 42
0.003328
  0
VERTEX
  8
0
 10
0.849033
 20
60.383503
 42
0.002062
  0
VERTEX
  8
0
 10
0.855781
 20
59.123820
 42
0.022020
  0
VERTEX
  8
0
 10
0.883157
 20
58.612739
 42
0.042551
  0
VERTEX
  8
0
 10
0.953346
 20
58.232627
 42
0.018548
  0
VERTEX
  8
0
 10
1.107458
 20
57.742667
 42
-0.000559
  0
VERTEX
  8
0
 10
1.209008
 20
57.456242
 42
-0.000705
  0
VERTEX
  8
0
 10
1.302336
 20
57.190878
 42
-0.000559
  0
VERTEX
  8
0
 10
1.380074
 20
56.968045
 42
-0.005645
  0
VERTEX
  8
0
 10
1.411300
 20
56.874833
 42
0.042835
  0
VERTEX
  8
0
 10
1.435109
 20
56.818139
 42
0.052036
  0
VERTEX
  8
0
 10
1.467017
 20
56.770191
 42
0.060643
  0
VERTEX
  8
0
 10
1.501769
 20
56.737259
 42
0.160704
  0
VERTEX
  8
0
 10
1.533875
 20
56.726667
 42
-0.170502
  0
VERTEX
  8
0
 10
1.562410
 20
56.716645
 42
-0.094268
  0
VERTEX
  8
0
 10
1.586697
 20
56.688235
 42
-0.074808
  0
VERTEX
  8
0
 10
1.603123
 20
56.645882
 42
-0.055217
  0
VERTEX
  8
0
 10
1.608667
 20
56.595834
 42
0.160955
  0
VERTEX
  8
0
 10
1.634575
 20
56.517436
 42
0.009720
  0
VERTEX
  8
0
 10
1.788128
 20
56.318678
 42
0.013740
  0
VERTEX
  8
0
 10
1.985551
 20
56.086513
 42
0.009671
  0
VERTEX
  8
0
 10
2.219599
 20
55.836045
 42
0.008873
  0
VERTEX
  8
0
 10
2.573733
 20
55.484177
 42
0.040127
  0
VERTEX
  8
0
 10
2.799293
 20
55.300191
 42
0.060319
  0
VERTEX
  8
0
 10
3.004211
 20
55.192587
 42
0.039608
  0
VERTEX
  8
0
 10
3.260369
 20
55.117854
 42
0.045000
  0
VERTEX
  8
0
 10
3.603201
 20
55.078340
 42
0.002630
  0
VERTEX
  8
0
 10
4.655663
 20
55.057756
 42
0.003441
  0
VERTEX
  8
0
 10
6.039021
 20
55.047498
 42
0.001545
  0
VERTEX
  8
0
 10
7.856464
 20
55.052144
 42
0.000000
  0
VERTEX
  8
0
 10
12.022723
 20
55.075667
 42
0.000000
  0
VERTEX
  8
0
 10
12.022695
 20
29.560030
 42
0.000106
  0
VERTEX
  8
0
 10
12.026019
 20
13.750873
 42
0.001310
  0
VERTEX
  8
0
 10
12.044302
 20
7.741436
 42
0.001049
  0
VERTEX
  8
0
 10
12.071938
 20
4.181067
 42
0.083043
  0
VERTEX
  8
0
 10
12.169540
 20
3.630863
 42
0.013022
  0
VERTEX
  8
0
 10
12.230517
 20
3.472389
 42
0.019934
  0
VERTEX
  8
0
 10
12.292302
 20
3.338808
 42
0.015211
  0
VERTEX
  8
0
 10
12.349140
 20
3.235626
 42
0.265184
  0
VERTEX
  8
0
 10
12.381206
 20
3.217333
 42
-0.185666
  0
VERTEX
  8
0
 10
12.405943
 20
3.207820
 42
-0.089940
  0
VERTEX
  8
0
 10
12.426967
 20
3.180568
 42
-0.069783
  0
VERTEX
  8
0
 10
12.441218
 20
3.140068
 42
-0.049796
  0
VERTEX
  8
0
 10
12.446000
 20
3.092174
 42
0.182156
  0
VERTEX
  8
0
 10
12.514942
 20
2.909214
 42
0.012526
  0
VERTEX
  8
0
 10
12.896653
 20
2.495986
 42
0.012280
  0
VERTEX
  8
0
 10
13.298911
 20
2.101680
 42
0.189950
  0
VERTEX
  8
0
 10
13.475709
 20
2.032000
 42
-0.043736
  0
VERTEX
  8
0
 10
13.531939
 20
2.027072
 42
-0.049829
  0
VERTEX
  8
0
 10
13.583943
 20
2.012433
 42
-0.056527
  0
VERTEX
  8
0
 10
13.624528
 20
1.990945
 42
-0.143523
  0
VERTEX
  8
0
 10
13.645444
 20
1.965387
 42
0.177267
  0
VERTEX
  8
0
 10
13.729692
 20
1.875250
 42
0.006527
  0
VERTEX
  8
0
 10
14.155849
 20
1.666644
 42
0.009030
  0
VERTEX
  8
0
 10
14.577756
 20
1.476152
 42
0.101861
  0
VERTEX
  8
0
 10
14.756609
 20
1.439333
 42
-0.056483
  0
VERTEX
  8
0
 10
14.812027
 20
1.433053
 42
-0.049876
  0
VERTEX
  8
0
 10
14.867134
 20
1.414463
 42
-0.052730
  0
VERTEX
  8
0
 10
14.913799
 20
1.387096
 42
-0.095656
  0
VERTEX
  8
0
 10
14.943667
 20
1.354667
 42
0.123387
  0
VERTEX
  8
0
 10
14.977092
 20
1.322146
 42
0.047457
  0
VERTEX
  8
0
 10
15.036358
 20
1.294871
 42
0.043300
  0
VERTEX
  8
0
 10
15.109266
 20
1.276260
 42
0.040867
  0
VERTEX
  8
0
 10
15.185730
 20
1.270000
 42
-0.035632
  0
VERTEX
  8
0
 10
15.264272
 20
1.264396
 42
-0.032945
  0
VERTEX
  8
0
 10
15.343359
 20
1.247677
 42
-0.034596
  0
VERTEX
  8
0
 10
15.411778
 20
1.223215
 42
-0.086339
  0
VERTEX
  8
0
 10
15.455900
 20
1.194005
 42
0.141583
  0
VERTEX
  8
0
 10
15.584550
 20
1.127725
 42
0.014672
  0
VERTEX
  8
0
 10
15.924018
 20
1.071166
 42
0.010556
  0
VERTEX
  8
0
 10
16.472086
 20
1.008058
 42
0.001969
  0
VERTEX
  8
0
 10
17.480279
 20
0.917489
 42
0.007787
  0
VERTEX
  8
0
 10
18.127454
 20
0.872061
 42
0.014345
  0
VERTEX
  8
0
 10
18.655027
 20
0.858438
 42
0.014542
  0
VERTEX
  8
0
 10
19.177697
 20
0.875144
 42
0.008261
  0
VERTEX
  8
0
 10
19.808612
 20
0.924173
 42
0.000967
  0
VERTEX
  8
0
 10
20.888471
 20
1.028172
 42
0.007544
  0
VERTEX
  8
0
 10
21.390633
 20
1.085175
 42
0.012455
  0
VERTEX
  8
0
 10
21.683951
 20
1.130415
 42
0.114203
  0
VERTEX
  8
0
 10
21.801667
 20
1.180930
 42
-0.071012
  0
VERTEX
  8
0
 10
21.864720
 20
1.214642
 42
-0.003366
  0
VERTEX
  8
0
 10
22.091518
 20
1.295502
 42
-0.005474
  0
VERTEX
  8
0
 10
22.363317
 20
1.387024
 42
-0.003905
  0
VERTEX
  8
0
 10
22.669500
 20
1.483768
 42
0.007546
  0
VERTEX
  8
0
 10
22.969720
 20
1.581038
 42
0.012074
  0
VERTEX
  8
0
 10
23.222611
 20
1.674085
 42
0.005928
  0
VERTEX
  8
0
 10
23.429640
 20
1.758838
 42
0.301240
  0
VERTEX
  8
0
 10
23.452667
 20
1.793590
 42
-0.223356
  0
VERTEX
  8
0
 10
23.465100
 20
1.820034
 42
-0.076265
  0
VERTEX
  8
0
 10
23.502408
 20
1.842375
 42
-0.058006
  0
VERTEX
  8
0
 10
23.557158
 20
1.857613
 42
-0.038910
  0
VERTEX
  8
0
 10
23.622000
 20
1.862667
 42
0.044077
  0
VERTEX
  8
0
 10
23.686821
 20
1.868392
 42
0.063880
  0
VERTEX
  8
0
 10
23.741592
 20
1.885561
 42
0.083673
  0
VERTEX
  8
0
 10
23.778642
 20
1.910818
 42
0.204147
  0
VERTEX
  8
0
 10
23.791333
 20
1.940606
 42
-0.228866
  0
VERTEX
  8
0
 10
23.807602
 20
1.974285
 42
-0.045818
  0
VERTEX
  8
0
 10
23.865001
 20
2.011831
 42
-0.040019
  0
VERTEX
  8
0
 10
23.946068
 20
2.046843
 42
-0.027880
  0
VERTEX
  8
0
 10
24.042117
 20
2.073627
 42
0.112434
  0
VERTEX
  8
0
 10
24.289169
 20
2.189974
 42
0.015298
  0
VERTEX
  8
0
 10
24.730988
 20
2.558094
 42
0.011773
  0
VERTEX
  8
0
 10
25.158018
 20
2.954953
 42
0.202308
  0
VERTEX
  8
0
 10
25.230667
 20
3.127154
 42
-0.092779
  0
VERTEX
  8
0
 10
25.237110
 20
3.161579
 42
-0.096252
  0
VERTEX
  8
0
 10
25.255537
 20
3.190843
 42
-0.099272
  0
VERTEX
  8
0
 10
25.283029
 20
3.210429
 42
-0.105672
  0
VERTEX
  8
0
 10
25.315333
 20
3.217333
 42
0.099539
  0
VERTEX
  8
0
 10
25.347645
 20
3.223830
 42
0.098061
  0
VERTEX
  8
0
 10
25.375129
 20
3.242326
 42
0.097826
  0
VERTEX
  8
0
 10
25.393538
 20
3.269944
 42
0.098540
  0
VERTEX
  8
0
 10
25.400000
 20
3.302415
 42
-0.089237
  0
VERTEX
  8
0
 10
25.409621
 20
3.355891
 42
-0.006999
  0
VERTEX
  8
0
 10
25.462177
 20
3.491391
 42
-0.009353
  0
VERTEX
  8
0
 10
25.530597
 20
3.652004
 42
-0.007017
  0
VERTEX
  8
0
 10
25.611667
 20
3.826261
 42
0.000000
  0
VERTEX
  8
0
 10
25.823333
 20
4.265025
 42
0.000000
  0
VERTEX
  8
0
 10
25.823333
 20
29.670975
 42
0.000000
  0
VERTEX
  8
0
 10
25.823333
 20
55.076925
 42
0.000000
  0
VERTEX
  8
0
 10
26.225500
 20
55.098257
 42
-0.008669
  0
VERTEX
  8
0
 10
26.504906
 20
55.108223
 42
-0.000380
  0
VERTEX
  8
0
 10
27.479493
 20
55.125338
 42
-0.000644
  0
VERTEX
  8
0
 10
28.635440
 20
55.143271
 42
-0.000459
  0
VERTEX
  8
0
 10
29.929667
 20
55.160493
 42
0.002497
  0
VERTEX
  8
0
 10
31.984207
 20
55.196208
 42
0.014034
  0
VERTEX
  8
0
 10
33.081265
 20
55.251593
 42
0.018199
  0
VERTEX
  8
0
 10
33.744618
 20
55.328152
 42
0.370563
  0
VERTEX
  8
0
 10
33.866667
 20
55.470218
 42
-0.181953
  0
VERTEX
  8
0
 10
33.876883
 20
55.497363
 42
-0.091075
  0
VERTEX
  8
0
 10
33.906062
 20
55.520443
 42
-0.070999
  0
VERTEX
  8
0
 10
33.949464
 20
55.536080
 42
-0.051055
  0
VERTEX
  8
0
 10
34.000780
 20
55.541333
 42
0.186554
  0
VERTEX
  8
0
 10
34.248501
 20
55.637093
 42
0.024083
  0
VERTEX
  8
0
 10
34.657566
 20
56.046563
 42
0.028543
  0
VERTEX
  8
0
 10
35.059384
 20
56.543786
 42
0.042276
  0
VERTEX
  8
0
 10
35.346448
 20
57.024749
 42
0.005769
  0
VERTEX
  8
0
 10
35.460687
 20
57.266114
 42
0.008005
  0
VERTEX
  8
0
 10
35.557065
 20
57.485150
 42
0.005302
  0
VERTEX
  8
0
 10
35.632658
 20
57.670154
 42
0.094605
  0
VERTEX
  8
0
 10
35.644667
 20
57.733053
 42
-0.054664
  0
VERTEX
  8
0
 10
35.649845
 20
57.780275
 42
-0.020738
  0
VERTEX
  8
0
 10
35.666910
 20
57.844448
 42
-0.020247
  0
VERTEX
  8
0
 10
35.691401
 20
57.913276
 42
-0.023319
  0
VERTEX
  8
0
 10
35.720388
 20
57.976649
 42
0.077859
  0
VERTEX
  8
0
 10
35.819203
 20
58.274623
 42
0.012818
  0
VERTEX
  8
0
 10
35.903574
 20
58.876946
 42
0.014226
  0
VERTEX
  8
0
 10
35.963377
 20
59.578122
 42
0.014159
  0
VERTEX
  8
0
 10
35.983333
 20
60.282667
 42
0.014159
  0
VERTEX
  8
0
 10
35.963377
 20
60.987211
 42
0.014226
  0
VERTEX
  8
0
 10
35.903574
 20
61.688387
 42
0.012818
  0
VERTEX
  8
0
 10
35.819203
 20
62.290710
 42
0.077859
  0
VERTEX
  8
0
 10
35.720388
 20
62.588684
 42
-0.036924
  0
VERTEX
  8
0
 10
35.691364
 20
62.656990
 42
-0.022569
  0
VERTEX
  8
0
 10
35.666910
 20
62.741127
 42
-0.022568
  0
VERTEX
  8
0
 10
35.650137
 20
62.827137
 42
-0.036884
  0
VERTEX
  8
0
 10
35.644667
 20
62.901188
 42
0.046572
  0
VERTEX
  8
0
 10
35.638395
 20
62.968371
 42
0.046179
  0
VERTEX
  8
0
 10
35.619796
 20
63.033433
 42
0.050144
  0
VERTEX
  8
0
 10
35.592476
 20
63.087089
 42
0.111983
  0
VERTEX
  8
0
 10
35.560000
 20
63.119000
 42
-0.095656
  0
VERTEX
  8
0
 10
35.527571
 20
63.148868
 42
-0.052730
  0
VERTEX
  8
0
 10
35.500204
 20
63.195533
 42
-0.049876
  0
VERTEX
  8
0
 10
35.481614
 20
63.250640
 42
-0.056483
  0
VERTEX
  8
0
 10
35.475333
 20
63.306058
 42
0.077998
  0
VERTEX
  8
0
 10
35.463196
 20
63.383392
 42
0.011883
  0
VERTEX
  8
0
 10
35.411679
 20
63.531316
 42
0.013054
  0
VERTEX
  8
0
 10
35.341604
 20
63.704246
 42
0.010977
  0
VERTEX
  8
0
 10
35.258639
 20
63.883697
 42
0.057558
  0
VERTEX
  8
0
 10
35.004757
 20
64.279785
 42
0.019261
  0
VERTEX
  8
0
 10
34.548754
 20
64.796035
 42
0.013137
  0
VERTEX
  8
0
 10
34.066383
 20
65.275615
 42
0.191341
  0
VERTEX
  8
0
 10
33.847232
 20
65.362667
 42
-0.042008
  0
VERTEX
  8
0
 10
33.796389
 20
65.366946
 42
-0.036115
  0
VERTEX
  8
0
 10
33.744253
 20
65.379712
 42
-0.037734
  0
VERTEX
  8
0
 10
33.698442
 20
65.398423
 42
-0.080726
  0
VERTEX
  8
0
 10
33.667530
 20
65.420692
 42
0.080407
  0
VERTEX
  8
0
 10
33.627916
 20
65.449269
 42
0.010522
  0
VERTEX
  8
0
 10
33.533749
 20
65.493995
 42
0.012013
  0
VERTEX
  8
0
 10
33.418800
 20
65.542370
 42
0.009792
  0
VERTEX
  8
0
 10
33.293586
 20
65.588751
 42
0.076134
  0
VERTEX
  8
0
 10
32.851820
 20
65.670591
 42
0.005674
  0
VERTEX
  8
0
 10
31.623541
 20
65.694988
 42
0.004795
  0
VERTEX
  8
0
 10
30.378608
 20
65.693647
 42
0.099120
  0
SEQEND
  0
ENDSEC
  0
EOF
