999
DXF data, created by potrace 1.16, written by Peter Selinger 2001-2019
  0
SECTION
  2
HEADER
  9
$ACADVER
  1
AC1006
  9
$EXTMIN
 10
0.000000
 20
0.000000
 30
0.000000
  9
$EXTMAX
 10
22.944667
 20
22.352000
 30
0.000000
  0
ENDSEC
  0
SECTION
  2
ENTITIES
  0
POLYLINE
  8
0
 66
1
 70
1
  0
VERTEX
  8
0
 10
9.948333
 20
21.420667
 42
-0.110252
  0
VERTEX
  8
0
 10
9.916646
 20
21.388196
 42
-0.050494
  0
VERTEX
  8
0
 10
9.863784
 20
21.360871
 42
-0.046599
  0
VERTEX
  8
0
 10
9.799843
 20
21.342273
 42
-0.047516
  0
VERTEX
  8
0
 10
9.733984
 20
21.336000
 42
0.096434
  0
VERTEX
  8
0
 10
9.515965
 20
21.293557
 42
0.014993
  0
VERTEX
  8
0
 10
9.111920
 20
21.115767
 42
0.017005
  0
VERTEX
  8
0
 10
8.714939
 20
20.909842
 42
0.059445
  0
VERTEX
  8
0
 10
8.482505
 20
20.739917
 42
0.043439
  0
VERTEX
  8
0
 10
8.237993
 20
20.468856
 42
0.026991
  0
VERTEX
  8
0
 10
7.998398
 20
20.113445
 42
0.027116
  0
VERTEX
  8
0
 10
7.801373
 20
19.739542
 42
0.049064
  0
VERTEX
  8
0
 10
7.688486
 20
19.412847
 42
0.051922
  0
VERTEX
  8
0
 10
7.598424
 20
18.728750
 42
0.020513
  0
VERTEX
  8
0
 10
7.611607
 20
17.778596
 42
0.019547
  0
VERTEX
  8
0
 10
7.698697
 20
16.854668
 42
0.075104
  0
VERTEX
  8
0
 10
7.859426
 20
16.301967
 42
-0.024167
  0
VERTEX
  8
0
 10
7.914907
 20
16.164894
 42
-0.011164
  0
VERTEX
  8
0
 10
7.974317
 20
15.981920
 42
-0.006612
  0
VERTEX
  8
0
 10
8.052532
 20
15.708269
 42
-0.001484
  0
VERTEX
  8
0
 10
8.178207
 20
15.240000
 42
0.000000
  0
VERTEX
  8
0
 10
8.234341
 20
15.028333
 42
0.000000
  0
VERTEX
  8
0
 10
8.029781
 20
15.246168
 42
-0.004884
  0
VERTEX
  8
0
 10
7.939224
 20
15.344508
 42
-0.003129
  0
VERTEX
  8
0
 10
7.835906
 20
15.460379
 42
-0.003144
  0
VERTEX
  8
0
 10
7.736124
 20
15.575151
 42
-0.005874
  0
VERTEX
  8
0
 10
7.657039
 20
15.669501
 42
0.036308
  0
VERTEX
  8
0
 10
7.413150
 20
15.926903
 42
0.005927
  0
VERTEX
  8
0
 10
6.899733
 20
16.384440
 42
0.007031
  0
VERTEX
  8
0
 10
6.345317
 20
16.853311
 42
0.013377
  0
VERTEX
  8
0
 10
5.884333
 20
17.211955
 42
-0.001491
  0
VERTEX
  8
0
 10
5.714754
 20
17.337532
 42
-0.001768
  0
VERTEX
  8
0
 10
5.555315
 20
17.457217
 42
-0.001536
  0
VERTEX
  8
0
 10
5.421441
 20
17.559102
 42
-0.011295
  0
VERTEX
  8
0
 10
5.358740
 20
17.609413
 42
0.046463
  0
VERTEX
  8
0
 10
5.311261
 20
17.642310
 42
0.033592
  0
VERTEX
  8
0
 10
5.253137
 20
17.670094
 42
0.034173
  0
VERTEX
  8
0
 10
5.193779
 20
17.689137
 42
0.060602
  0
VERTEX
  8
0
 10
5.142840
 20
17.695333
 42
-0.073873
  0
VERTEX
  8
0
 10
5.091659
 20
17.702937
 42
-0.038600
  0
VERTEX
  8
0
 10
5.031487
 20
17.726422
 42
-0.037345
  0
VERTEX
  8
0
 10
4.972228
 20
17.760662
 42
-0.046710
  0
VERTEX
  8
0
 10
4.923345
 20
17.801167
 42
0.187698
  0
VERTEX
  8
0
 10
4.725088
 20
17.888331
 42
0.012291
  0
VERTEX
  8
0
 10
4.087302
 20
17.900168
 42
0.010002
  0
VERTEX
  8
0
 10
3.441384
 20
17.883353
 42
0.310163
  0
VERTEX
  8
0
 10
3.319947
 20
17.791507
 42
-0.105812
  0
VERTEX
  8
0
 10
3.298277
 20
17.754741
 42
-0.070295
  0
VERTEX
  8
0
 10
3.260296
 20
17.723584
 42
-0.066093
  0
VERTEX
  8
0
 10
3.212457
 20
17.702527
 42
-0.070783
  0
VERTEX
  8
0
 10
3.161897
 20
17.695333
 42
0.075386
  0
VERTEX
  8
0
 10
3.104939
 20
17.686697
 42
0.038448
  0
VERTEX
  8
0
 10
3.037519
 20
17.659938
 42
0.037098
  0
VERTEX
  8
0
 10
2.970808
 20
17.620953
 42
0.045628
  0
VERTEX
  8
0
 10
2.915409
 20
17.574838
 42
-0.009822
  0
VERTEX
  8
0
 10
2.855856
 20
17.517579
 42
-0.004214
  0
VERTEX
  8
0
 10
2.774216
 20
17.443381
 42
-0.004167
  0
VERTEX
  8
0
 10
2.685887
 20
17.365766
 42
-0.005485
  0
VERTEX
  8
0
 10
2.603957
 20
17.296530
 42
0.044204
  0
VERTEX
  8
0
 10
2.440690
 20
17.135340
 42
0.052129
  0
VERTEX
  8
0
 10
2.318260
 20
16.956108
 42
0.037002
  0
VERTEX
  8
0
 10
2.207992
 20
16.709944
 42
0.011029
  0
VERTEX
  8
0
 10
2.076382
 20
16.319500
 42
0.013057
  0
VERTEX
  8
0
 10
1.989908
 20
16.015283
 42
0.061421
  0
VERTEX
  8
0
 10
1.966733
 20
15.835430
 42
0.063267
  0
VERTEX
  8
0
 10
1.988316
 20
15.657791
 42
0.014368
  0
VERTEX
  8
0
 10
2.071172
 20
15.365255
 42
0.059119
  0
VERTEX
  8
0
 10
2.248232
 20
14.971776
 42
0.052052
  0
VERTEX
  8
0
 10
2.518990
 20
14.611855
 42
0.040338
  0
VERTEX
  8
0
 10
2.920718
 20
14.244156
 42
0.017648
  0
VERTEX
  8
0
 10
3.506646
 20
13.821175
 42
-0.004786
  0
VERTEX
  8
0
 10
3.738483
 20
13.662718
 42
-0.007078
  0
VERTEX
  8
0
 10
3.938465
 20
13.518956
 42
-0.003592
  0
VERTEX
  8
0
 10
4.104639
 20
13.394036
 42
-0.125851
  0
VERTEX
  8
0
 10
4.134556
 20
13.356167
 42
0.121165
  0
VERTEX
  8
0
 10
4.153407
 20
13.331845
 42
0.060159
  0
VERTEX
  8
0
 10
4.186878
 20
13.311320
 42
0.054454
  0
VERTEX
  8
0
 10
4.228774
 20
13.297384
 42
0.053129
  0
VERTEX
  8
0
 10
4.273044
 20
13.292667
 42
-0.062179
  0
VERTEX
  8
0
 10
4.329041
 20
13.285676
 42
-0.019179
  0
VERTEX
  8
0
 10
4.410763
 20
13.261578
 42
-0.018859
  0
VERTEX
  8
0
 10
4.500944
 20
13.227343
 42
-0.019652
  0
VERTEX
  8
0
 10
4.587032
 20
13.186833
 42
-0.269923
  0
VERTEX
  8
0
 10
4.618248
 20
13.137524
 42
-0.383253
  0
VERTEX
  8
0
 10
4.586904
 20
13.099920
 42
-0.033107
  0
VERTEX
  8
0
 10
4.381731
 20
13.083933
 42
-0.002853
  0
VERTEX
  8
0
 10
3.855876
 20
13.080846
 42
0.029102
  0
VERTEX
  8
0
 10
2.918468
 20
13.026084
 42
0.047820
  0
VERTEX
  8
0
 10
2.142335
 20
12.858947
 42
0.058421
  0
VERTEX
  8
0
 10
1.538205
 20
12.585977
 42
0.094808
  0
VERTEX
  8
0
 10
1.119773
 20
12.211406
 42
0.036496
  0
VERTEX
  8
0
 10
1.009654
 20
12.042831
 42
0.061098
  0
VERTEX
  8
0
 10
0.946371
 20
11.886049
 42
0.050335
  0
VERTEX
  8
0
 10
0.915874
 20
11.698279
 42
0.017463
  0
VERTEX
  8
0
 10
0.908868
 20
11.423659
 42
0.022787
  0
VERTEX
  8
0
 10
0.921206
 20
11.199511
 42
0.021124
  0
VERTEX
  8
0
 10
0.953970
 20
10.971613
 42
0.022107
  0
VERTEX
  8
0
 10
1.002445
 20
10.763870
 42
0.041789
  0
VERTEX
  8
0
 10
1.062506
 20
10.602829
 42
0.049377
  0
VERTEX
  8
0
 10
1.354423
 20
10.114929
 42
0.021305
  0
VERTEX
  8
0
 10
1.831614
 20
9.525377
 42
0.014732
  0
VERTEX
  8
0
 10
2.332313
 20
8.990622
 42
0.199801
  0
VERTEX
  8
0
 10
2.574065
 20
8.890000
 42
-0.060397
  0
VERTEX
  8
0
 10
2.625866
 20
8.883720
 42
-0.050933
  0
VERTEX
  8
0
 10
2.677911
 20
8.865129
 42
-0.053195
  0
VERTEX
  8
0
 10
2.722453
 20
8.837751
 42
-0.090191
  0
VERTEX
  8
0
 10
2.751667
 20
8.805333
 42
0.144643
  0
VERTEX
  8
0
 10
2.788137
 20
8.772700
 42
0.040991
  0
VERTEX
  8
0
 10
2.860148
 20
8.745538
 42
0.037628
  0
VERTEX
  8
0
 10
2.950440
 20
8.726902
 42
0.032091
  0
VERTEX
  8
0
 10
3.047485
 20
8.720667
 42
-0.023347
  0
VERTEX
  8
0
 10
3.155009
 20
8.715643
 42
-0.015700
  0
VERTEX
  8
0
 10
3.277029
 20
8.700340
 42
-0.015833
  0
VERTEX
  8
0
 10
3.394447
 20
8.678022
 42
-0.029979
  0
VERTEX
  8
0
 10
3.486988
 20
8.651468
 42
0.099558
  0
VERTEX
  8
0
 10
3.731034
 20
8.616850
 42
0.004339
  0
VERTEX
  8
0
 10
4.594687
 20
8.674131
 42
0.005575
  0
VERTEX
  8
0
 10
5.440262
 20
8.747077
 42
0.067293
  0
VERTEX
  8
0
 10
5.757333
 20
8.821848
 42
-0.025980
  0
VERTEX
  8
0
 10
5.983439
 20
8.895280
 42
-0.004088
  0
VERTEX
  8
0
 10
6.436431
 20
9.012832
 42
-0.002562
  0
VERTEX
  8
0
 10
6.905110
 20
9.127823
 42
-0.058937
  0
VERTEX
  8
0
 10
7.041876
 20
9.144000
 42
-0.701660
  0
VERTEX
  8
0
 10
7.048933
 20
9.124493
 42
-0.017065
  0
VERTEX
  8
0
 10
6.941223
 20
9.040880
 42
-0.014649
  0
VERTEX
  8
0
 10
6.774702
 20
8.927766
 42
-0.007164
  0
VERTEX
  8
0
 10
6.556321
 20
8.792955
 42
0.025033
  0
VERTEX
  8
0
 10
5.946065
 20
8.385427
 42
0.025688
  0
VERTEX
  8
0
 10
5.385073
 20
7.922225
 42
0.026079
  0
VERTEX
  8
0
 10
4.882538
 20
7.411260
 42
0.027769
  0
VERTEX
  8
0
 10
4.447062
 20
6.860925
 42
0.003381
  0
VERTEX
  8
0
 10
4.267794
 20
6.602855
 42
0.005223
  0
VERTEX
  8
0
 10
4.116729
 20
6.377193
 42
0.001868
  0
VERTEX
  8
0
 10
3.989723
 20
6.181525
 42
0.143982
  0
VERTEX
  8
0
 10
3.979333
 20
6.146193
 42
-0.098998
  0
VERTEX
  8
0
 10
3.972377
 20
6.111404
 42
-0.003304
  0
VERTEX
  8
0
 10
3.917156
 20
5.981271
 42
-0.006155
  0
VERTEX
  8
0
 10
3.848767
 20
5.828223
 42
-0.004236
  0
VERTEX
  8
0
 10
3.767667
 20
5.656406
 42
0.058763
  0
VERTEX
  8
0
 10
3.598419
 20
5.165636
 42
0.055939
  0
VERTEX
  8
0
 10
3.544181
 20
4.640607
 42
0.057152
  0
VERTEX
  8
0
 10
3.607594
 20
4.127664
 42
0.067498
  0
VERTEX
  8
0
 10
3.785171
 20
3.672497
 42
0.010838
  0
VERTEX
  8
0
 10
3.975619
 20
3.346288
 42
0.057135
  0
VERTEX
  8
0
 10
4.103188
 20
3.183356
 42
0.074319
  0
VERTEX
  8
0
 10
4.249047
 20
3.073843
 42
0.025754
  0
VERTEX
  8
0
 10
4.487333
 20
2.960449
 42
0.069601
  0
VERTEX
  8
0
 10
4.869085
 20
2.861471
 42
0.040395
  0
VERTEX
  8
0
 10
5.343369
 20
2.845357
 42
0.039875
  0
VERTEX
  8
0
 10
5.825251
 20
2.906638
 42
0.057822
  0
VERTEX
  8
0
 10
6.231745
 20
3.042120
 42
0.036766
  0
VERTEX
  8
0
 10
6.639905
 20
3.270819
 42
0.024283
  0
VERTEX
  8
0
 10
7.073688
 20
3.588950
 42
0.024166
  0
VERTEX
  8
0
 10
7.478094
 20
3.950616
 42
0.034345
  0
VERTEX
  8
0
 10
7.797509
 20
4.311770
 42
-0.003243
  0
VERTEX
  8
0
 10
7.914623
 20
4.462058
 42
-0.003746
  0
VERTEX
  8
0
 10
8.028221
 20
4.603706
 42
-0.003357
  0
VERTEX
  8
0
 10
8.126119
 20
4.722285
 42
-0.021891
  0
VERTEX
  8
0
 10
8.178266
 20
4.779322
 42
0.037323
  0
VERTEX
  8
0
 10
8.227851
 20
4.837034
 42
0.006177
  0
VERTEX
  8
0
 10
8.313447
 20
4.956214
 42
0.006754
  0
VERTEX
  8
0
 10
8.410682
 20
5.099269
 42
0.005928
  0
VERTEX
  8
0
 10
8.508423
 20
5.251218
 42
-0.004674
  0
VERTEX
  8
0
 10
8.603292
 20
5.399520
 42
-0.006357
  0
VERTEX
  8
0
 10
8.691819
 20
5.531404
 42
-0.004357
  0
VERTEX
  8
0
 10
8.768200
 20
5.640085
 42
-0.069402
  0
VERTEX
  8
0
 10
8.799160
 20
5.672667
 42
0.100080
  0
VERTEX
  8
0
 10
8.827299
 20
5.706143
 42
0.007109
  0
VERTEX
  8
0
 10
8.884429
 20
5.814483
 42
0.009795
  0
VERTEX
  8
0
 10
8.948671
 20
5.946979
 42
0.007226
  0
VERTEX
  8
0
 10
9.014759
 20
6.096000
 42
-0.009549
  0
VERTEX
  8
0
 10
9.087228
 20
6.257383
 42
-0.007799
  0
VERTEX
  8
0
 10
9.170709
 20
6.427258
 42
-0.007893
  0
VERTEX
  8
0
 10
9.252452
 20
6.581198
 42
-0.020436
  0
VERTEX
  8
0
 10
9.317575
 20
6.688667
 42
0.027213
  0
VERTEX
  8
0
 10
9.375714
 20
6.787609
 42
0.016310
  0
VERTEX
  8
0
 10
9.434320
 20
6.910743
 42
0.016309
  0
VERTEX
  8
0
 10
9.484783
 20
7.037459
 42
0.027170
  0
VERTEX
  8
0
 10
9.517848
 20
7.147438
 42
-0.021447
  0
VERTEX
  8
0
 10
9.548138
 20
7.252533
 42
-0.016680
  0
VERTEX
  8
0
 10
9.589697
 20
7.364006
 42
-0.016974
  0
VERTEX
  8
0
 10
9.635511
 20
7.465461
 42
-0.038682
  0
VERTEX
  8
0
 10
9.678362
 20
7.537692
 42
-0.631008
  0
VERTEX
  8
0
 10
9.727668
 20
7.529342
 42
-0.049803
  0
VERTEX
  8
0
 10
9.758791
 20
7.356028
 42
-0.016622
  0
VERTEX
  8
0
 10
9.775846
 20
6.976603
 42
-0.002643
  0
VERTEX
  8
0
 10
9.780605
 20
6.232255
 42
0.012203
  0
VERTEX
  8
0
 10
9.810950
 20
5.043186
 42
0.026200
  0
VERTEX
  8
0
 10
9.904595
 20
4.131058
 42
0.029185
  0
VERTEX
  8
0
 10
10.084924
 20
3.297490
 42
0.019411
  0
VERTEX
  8
0
 10
10.383507
 20
2.366083
 42
0.022071
  0
VERTEX
  8
0
 10
10.496302
 20
2.094138
 42
0.030344
  0
VERTEX
  8
0
 10
10.622688
 20
1.861673
 42
0.032172
  0
VERTEX
  8
0
 10
10.769678
 20
1.657065
 42
0.030462
  0
VERTEX
  8
0
 10
10.944232
 20
1.469015
 42
0.040367
  0
VERTEX
  8
0
 10
11.319214
 20
1.165159
 42
0.074878
  0
VERTEX
  8
0
 10
11.671000
 20
0.994865
 42
0.058593
  0
VERTEX
  8
0
 10
12.113081
 20
0.912453
 42
0.016814
  0
VERTEX
  8
0
 10
12.810295
 20
0.889000
 42
0.000000
  0
VERTEX
  8
0
 10
13.724923
 20
0.889000
 42
0.000000
  0
VERTEX
  8
0
 10
14.010341
 20
1.219274
 42
0.044573
  0
VERTEX
  8
0
 10
14.354430
 20
1.697615
 42
0.049391
  0
VERTEX
  8
0
 10
14.594739
 20
2.213680
 42
0.055194
  0
VERTEX
  8
0
 10
14.706680
 20
2.698716
 42
0.116401
  0
VERTEX
  8
0
 10
14.662535
 20
3.080176
 42
-0.027704
  0
VERTEX
  8
0
 10
14.624241
 20
3.207764
 42
-0.016271
  0
VERTEX
  8
0
 10
14.592003
 20
3.363872
 42
-0.016246
  0
VERTEX
  8
0
 10
14.569869
 20
3.522524
 42
-0.026538
  0
VERTEX
  8
0
 10
14.562667
 20
3.658122
 42
0.028878
  0
VERTEX
  8
0
 10
14.554304
 20
3.802793
 42
0.012798
  0
VERTEX
  8
0
 10
14.527400
 20
3.992237
 42
0.012618
  0
VERTEX
  8
0
 10
14.488589
 20
4.191994
 42
0.016622
  0
VERTEX
  8
0
 10
14.442611
 20
4.371777
 42
-0.003064
  0
VERTEX
  8
0
 10
14.151992
 20
5.392070
 42
-0.162390
  0
VERTEX
  8
0
 10
14.162136
 20
5.592343
 42
-0.523049
  0
VERTEX
  8
0
 10
14.271297
 20
5.618408
 42
-0.010801
  0
VERTEX
  8
0
 10
14.753789
 20
5.167973
 42
0.012118
  0
VERTEX
  8
0
 10
15.182353
 20
4.769992
 42
0.032034
  0
VERTEX
  8
0
 10
15.512825
 20
4.513440
 42
0.045737
  0
VERTEX
  8
0
 10
15.780984
 20
4.365312
 42
0.103686
  0
VERTEX
  8
0
 10
16.006681
 20
4.318000
 42
-0.049652
  0
VERTEX
  8
0
 10
16.069722
 20
4.311724
 42
-0.047495
  0
VERTEX
  8
0
 10
16.131280
 20
4.293129
 42
-0.051198
  0
VERTEX
  8
0
 10
16.182460
 20
4.265792
 42
-0.106482
  0
VERTEX
  8
0
 10
16.213667
 20
4.233333
 42
0.251240
  0
VERTEX
  8
0
 10
16.335051
 20
4.163036
 42
0.006646
  0
VERTEX
  8
0
 10
16.977520
 20
4.150604
 42
0.010480
  0
VERTEX
  8
0
 10
17.598920
 20
4.159866
 42
0.109111
  0
VERTEX
  8
0
 10
17.844649
 20
4.223455
 42
-0.004944
  0
VERTEX
  8
0
 10
17.918471
 20
4.260095
 42
-0.001832
  0
VERTEX
  8
0
 10
18.023093
 20
4.310265
 42
-0.001815
  0
VERTEX
  8
0
 10
18.137645
 20
4.364173
 42
-0.002189
  0
VERTEX
  8
0
 10
18.245667
 20
4.413955
 42
0.063743
  0
VERTEX
  8
0
 10
18.612881
 20
4.641519
 42
0.105593
  0
VERTEX
  8
0
 10
18.840709
 20
4.924238
 42
0.087081
  0
VERTEX
  8
0
 10
18.959200
 20
5.315355
 42
0.032851
  0
VERTEX
  8
0
 10
18.990599
 20
5.888156
 42
0.011738
  0
VERTEX
  8
0
 10
18.977031
 20
6.282528
 42
0.038086
  0
VERTEX
  8
0
 10
18.942081
 20
6.541782
 42
0.046744
  0
VERTEX
  8
0
 10
18.872675
 20
6.763360
 42
0.025370
  0
VERTEX
  8
0
 10
18.749007
 20
7.020881
 42
0.010986
  0
VERTEX
  8
0
 10
18.654621
 20
7.185575
 42
0.016532
  0
VERTEX
  8
0
 10
18.564560
 20
7.324417
 42
0.011407
  0
VERTEX
  8
0
 10
18.485049
 20
7.433168
 42
0.233267
  0
VERTEX
  8
0
 10
18.449583
 20
7.450667
 42
-0.188391
  0
VERTEX
  8
0
 10
18.420797
 20
7.461912
 42
-0.051476
  0
VERTEX
  8
0
 10
18.387932
 20
7.499150
 42
-0.044470
  0
VERTEX
  8
0
 10
18.356557
 20
7.552532
 42
-0.033799
  0
VERTEX
  8
0
 10
18.331693
 20
7.615716
 42
0.114444
  0
VERTEX
  8
0
 10
18.214941
 20
7.812613
 42
0.004464
  0
VERTEX
  8
0
 10
17.623075
 20
8.420489
 42
0.004428
  0
VERTEX
  8
0
 10
17.020106
 20
9.018128
 42
0.115760
  0
VERTEX
  8
0
 10
16.825663
 20
9.135107
 42
-0.070638
  0
VERTEX
  8
0
 10
16.768482
 20
9.162881
 42
-0.010858
  0
VERTEX
  8
0
 10
16.665023
 20
9.235949
 42
-0.011942
  0
VERTEX
  8
0
 10
16.546108
 20
9.328336
 42
-0.010114
  0
VERTEX
  8
0
 10
16.424839
 20
9.431441
 42
0.022117
  0
VERTEX
  8
0
 10
16.282306
 20
9.546847
 42
0.011861
  0
VERTEX
  8
0
 10
16.097058
 20
9.677058
 42
0.011789
  0
VERTEX
  8
0
 10
15.901437
 20
9.801172
 42
0.018061
  0
VERTEX
  8
0
 10
15.725811
 20
9.898416
 42
-0.011882
  0
VERTEX
  8
0
 10
15.574580
 20
9.979728
 42
-0.020874
  0
VERTEX
  8
0
 10
15.454207
 20
10.055000
 42
-0.017385
  0
VERTEX
  8
0
 10
15.367491
 20
10.118937
 42
-0.448400
  0
VERTEX
  8
0
 10
15.365994
 20
10.144883
 42
-0.162699
  0
VERTEX
  8
0
 10
15.449510
 20
10.186555
 42
-0.009652
  0
VERTEX
  8
0
 10
15.733757
 20
10.221104
 42
-0.009705
  0
VERTEX
  8
0
 10
16.158391
 20
10.256103
 42
-0.002466
  0
VERTEX
  8
0
 10
16.848667
 20
10.296112
 42
0.007671
  0
VERTEX
  8
0
 10
17.195119
 20
10.319813
 42
0.011107
  0
VERTEX
  8
0
 10
17.500150
 20
10.352225
 42
0.006957
  0
VERTEX
  8
0
 10
17.752537
 20
10.388303
 42
0.154281
  0
VERTEX
  8
0
 10
17.818100
 20
10.420954
 42
-0.094037
  0
VERTEX
  8
0
 10
17.863813
 20
10.450947
 42
-0.033210
  0
VERTEX
  8
0
 10
17.938327
 20
10.476200
 42
-0.031568
  0
VERTEX
  8
0
 10
18.025879
 20
10.493697
 42
-0.032116
  0
VERTEX
  8
0
 10
18.114433
 20
10.499899
 42
0.072873
  0
VERTEX
  8
0
 10
18.437661
 20
10.549145
 42
0.012967
  0
VERTEX
  8
0
 10
19.019262
 20
10.743572
 42
0.014584
  0
VERTEX
  8
0
 10
19.601285
 20
10.974499
 42
0.042701
  0
VERTEX
  8
0
 10
19.981333
 20
11.178303
 42
-0.012923
  0
VERTEX
  8
0
 10
20.042046
 20
11.215671
 42
-0.006427
  0
VERTEX
  8
0
 10
20.120769
 20
11.260020
 42
-0.006374
  0
VERTEX
  8
0
 10
20.203567
 20
11.303912
 42
-0.009311
  0
VERTEX
  8
0
 10
20.277667
 20
11.340262
 42
0.068332
  0
VERTEX
  8
0
 10
20.462258
 20
11.459596
 42
0.010023
  0
VERTEX
  8
0
 10
20.794910
 20
11.757528
 42
0.012115
  0
VERTEX
  8
0
 10
21.140491
 20
12.095770
 42
0.018691
  0
VERTEX
  8
0
 10
21.420667
 20
12.406010
 42
0.018508
  0
VERTEX
  8
0
 10
21.744341
 20
12.822948
 42
0.042367
  0
VERTEX
  8
0
 10
21.948197
 20
13.164241
 42
0.054403
  0
VERTEX
  8
0
 10
22.060085
 20
13.475532
 42
0.059158
  0
VERTEX
  8
0
 10
22.098000
 20
13.794868
 42
0.079348
  0
VERTEX
  8
0
 10
22.000491
 20
14.405433
 42
0.112320
  0
VERTEX
  8
0
 10
21.718326
 20
14.875695
 42
0.089476
  0
VERTEX
  8
0
 10
21.205577
 20
15.248124
 42
0.036129
  0
VERTEX
  8
0
 10
20.398656
 20
15.568064
 42
0.065598
  0
VERTEX
  8
0
 10
19.973881
 20
15.642838
 42
0.011031
  0
VERTEX
  8
0
 10
19.146519
 20
15.660362
 42
0.012106
  0
VERTEX
  8
0
 10
18.312933
 20
15.639439
 42
0.047036
  0
VERTEX
  8
0
 10
17.802382
 20
15.565769
 42
0.013044
  0
VERTEX
  8
0
 10
17.301181
 20
15.430614
 42
0.007942
  0
VERTEX
  8
0
 10
16.716151
 20
15.246198
 42
0.006978
  0
VERTEX
  8
0
 10
16.176107
 20
15.058073
 42
0.036844
  0
VERTEX
  8
0
 10
15.890305
 20
14.929476
 42
-0.023679
  0
VERTEX
  8
0
 10
15.795189
 20
14.883633
 42
-0.034029
  0
VERTEX
  8
0
 10
15.706868
 20
14.853011
 42
-0.036259
  0
VERTEX
  8
0
 10
15.635142
 20
14.838977
 42
-0.230490
  0
VERTEX
  8
0
 10
15.601027
 20
14.850751
 42
-0.134592
  0
VERTEX
  8
0
 10
15.590108
 20
14.869918
 42
-0.259940
  0
VERTEX
  8
0
 10
15.594484
 20
14.886475
 42
-0.151599
  0
VERTEX
  8
0
 10
15.615109
 20
14.897820
 42
-0.050539
  0
VERTEX
  8
0
 10
15.649782
 20
14.901333
 42
0.131369
  0
VERTEX
  8
0
 10
15.699860
 20
14.914722
 42
0.029772
  0
VERTEX
  8
0
 10
15.774002
 20
14.963510
 42
0.028859
  0
VERTEX
  8
0
 10
15.855412
 20
15.031976
 42
0.024543
  0
VERTEX
  8
0
 10
15.933162
 20
15.113000
 42
-0.027499
  0
VERTEX
  8
0
 10
16.011827
 20
15.194015
 42
-0.031006
  0
VERTEX
  8
0
 10
16.095962
 20
15.262490
 42
-0.032564
  0
VERTEX
  8
0
 10
16.173780
 20
15.310849
 42
-0.123354
  0
VERTEX
  8
0
 10
16.228935
 20
15.324667
 42
0.062293
  0
VERTEX
  8
0
 10
16.271657
 20
15.330010
 42
0.080560
  0
VERTEX
  8
0
 10
16.307846
 20
15.345722
 42
0.097991
  0
VERTEX
  8
0
 10
16.332065
 20
15.369009
 42
0.153612
  0
VERTEX
  8
0
 10
16.340667
 20
15.396345
 42
-0.152386
  0
VERTEX
  8
0
 10
16.353709
 20
15.438144
 42
-0.012509
  0
VERTEX
  8
0
 10
16.421846
 20
15.531614
 42
-0.015859
  0
VERTEX
  8
0
 10
16.511166
 20
15.640580
 42
-0.011535
  0
VERTEX
  8
0
 10
16.617021
 20
15.756179
 42
0.030767
  0
VERTEX
  8
0
 10
17.124282
 20
16.354786
 42
0.030498
  0
VERTEX
  8
0
 10
17.555869
 20
17.012820
 42
0.031856
  0
VERTEX
  8
0
 10
17.859071
 20
17.631273
 42
0.098349
  0
VERTEX
  8
0
 10
17.949333
 20
18.085721
 42
0.084980
  0
VERTEX
  8
0
 10
17.843749
 20
18.702461
 42
0.073755
  0
VERTEX
  8
0
 10
17.536828
 20
19.282972
 42
0.077784
  0
VERTEX
  8
0
 10
17.094431
 20
19.722327
 42
0.117570
  0
VERTEX
  8
0
 10
16.595123
 20
19.929107
 42
0.062882
  0
VERTEX
  8
0
 10
16.102413
 20
19.945355
 42
0.047718
  0
VERTEX
  8
0
 10
15.570824
 20
19.844225
 42
0.043702
  0
VERTEX
  8
0
 10
15.021995
 20
19.630908
 42
0.035685
  0
VERTEX
  8
0
 10
14.478000
 20
19.312615
 42
0.039684
  0
VERTEX
  8
0
 10
14.067916
 20
18.980955
 42
0.015232
  0
VERTEX
  8
0
 10
13.551496
 20
18.459916
 42
0.013781
  0
VERTEX
  8
0
 10
13.079211
 20
17.924598
 42
0.068710
  0
VERTEX
  8
0
 10
12.867521
 20
17.585560
 42
0.000000
  0
VERTEX
  8
0
 10
12.716986
 20
17.249329
 42
0.000000
  0
VERTEX
  8
0
 10
12.671255
 20
17.705164
 42
0.014575
  0
VERTEX
  8
0
 10
12.568863
 20
18.493652
 42
0.021527
  0
VERTEX
  8
0
 10
12.429364
 20
19.177148
 42
0.024701
  0
VERTEX
  8
0
 10
12.253516
 20
19.758422
 42
0.038624
  0
VERTEX
  8
0
 10
12.040329
 20
20.235333
 42
0.038363
  0
VERTEX
  8
0
 10
11.819386
 20
20.576819
 42
0.022753
  0
VERTEX
  8
0
 10
11.508139
 20
20.949014
 42
0.016593
  0
VERTEX
  8
0
 10
11.192154
 20
21.271551
 42
0.192962
  0
VERTEX
  8
0
 10
11.031372
 20
21.336000
 42
-0.075850
  0
VERTEX
  8
0
 10
10.989585
 20
21.342376
 42
-0.089220
  0
VERTEX
  8
0
 10
10.954128
 20
21.360871
 42
-0.100732
  0
VERTEX
  8
0
 10
10.930425
 20
21.388378
 42
-0.128313
  0
VERTEX
  8
0
 10
10.922000
 20
21.420667
 42
0.331172
  0
VERTEX
  8
0
 10
10.897379
 20
21.453762
 42
0.027462
  0
VERTEX
  8
0
 10
10.786678
 20
21.480463
 42
0.028158
  0
VERTEX
  8
0
 10
10.637920
 20
21.499224
 42
0.017292
  0
VERTEX
  8
0
 10
10.461330
 20
21.505333
 42
0.017115
  0
VERTEX
  8
0
 10
10.281065
 20
21.499161
 42
0.023783
  0
VERTEX
  8
0
 10
10.120611
 20
21.480463
 42
0.021638
  0
VERTEX
  8
0
 10
9.993380
 20
21.453765
 42
0.194165
  0
SEQEND
  0
ENDSEC
  0
EOF
