999
DXF data, created by potrace 1.16, written by Peter Selinger 2001-2019
  0
SECTION
  2
HEADER
  9
$ACADVER
  1
AC1006
  9
$EXTMIN
 10
0.000000
 20
0.000000
 30
0.000000
  9
$EXTMAX
 10
14.054667
 20
16.340667
 30
0.000000
  0
ENDSEC
  0
SECTION
  2
ENTITIES
  0
POLYLINE
  8
0
 66
1
 70
1
  0
VERTEX
  8
0
 10
6.969276
 20
15.388167
 42
0.015737
  0
VERTEX
  8
0
 10
6.865903
 20
15.215699
 42
0.016064
  0
VERTEX
  8
0
 10
6.774329
 20
15.038231
 42
0.014083
  0
VERTEX
  8
0
 10
6.704846
 20
14.880986
 42
0.097283
  0
VERTEX
  8
0
 10
6.688667
 20
14.798618
 42
-0.072026
  0
VERTEX
  8
0
 10
6.681655
 20
14.750193
 42
-0.010485
  0
VERTEX
  8
0
 10
6.651360
 20
14.655156
 42
-0.011683
  0
VERTEX
  8
0
 10
6.610292
 20
14.543658
 42
-0.009773
  0
VERTEX
  8
0
 10
6.561667
 20
14.427296
 42
0.000089
  0
VERTEX
  8
0
 10
6.504231
 20
14.297003
 42
0.000054
  0
VERTEX
  8
0
 10
6.436273
 20
14.142719
 42
0.000054
  0
VERTEX
  8
0
 10
6.368836
 20
13.989528
 42
0.000095
  0
VERTEX
  8
0
 10
6.313135
 20
13.862895
 42
0.004112
  0
VERTEX
  8
0
 10
6.259742
 20
13.738683
 42
0.002624
  0
VERTEX
  8
0
 10
6.199607
 20
13.593422
 42
0.002636
  0
VERTEX
  8
0
 10
6.142143
 20
13.450375
 42
0.004906
  0
VERTEX
  8
0
 10
6.097316
 20
13.333729
 42
-0.006938
  0
VERTEX
  8
0
 10
5.971256
 20
13.009641
 42
-0.020110
  0
VERTEX
  8
0
 10
5.872060
 20
12.790495
 42
-0.022170
  0
VERTEX
  8
0
 10
5.791141
 20
12.645693
 42
-0.259838
  0
VERTEX
  8
0
 10
5.736665
 20
12.615333
 42
0.172866
  0
VERTEX
  8
0
 10
5.712246
 20
12.606631
 42
0.093649
  0
VERTEX
  8
0
 10
5.691466
 20
12.581928
 42
0.074015
  0
VERTEX
  8
0
 10
5.677407
 20
12.545117
 42
0.054321
  0
VERTEX
  8
0
 10
5.672667
 20
12.501612
 42
-0.151847
  0
VERTEX
  8
0
 10
5.606430
 20
12.288536
 42
-0.009697
  0
VERTEX
  8
0
 10
5.221454
 20
11.751758
 42
-0.014480
  0
VERTEX
  8
0
 10
4.812944
 20
11.236687
 42
-0.054161
  0
VERTEX
  8
0
 10
4.514789
 20
10.951543
 42
-0.038267
  0
VERTEX
  8
0
 10
4.135999
 20
10.704247
 42
-0.058891
  0
VERTEX
  8
0
 10
3.773509
 20
10.557680
 42
-0.037467
  0
VERTEX
  8
0
 10
3.281808
 20
10.462253
 42
-0.007410
  0
VERTEX
  8
0
 10
2.388338
 20
10.370827
 42
0.006460
  0
VERTEX
  8
0
 10
1.882458
 20
10.320032
 42
0.009296
  0
VERTEX
  8
0
 10
1.436279
 20
10.260980
 42
0.005639
  0
VERTEX
  8
0
 10
1.065250
 20
10.200550
 42
0.130735
  0
VERTEX
  8
0
 10
0.968898
 20
10.156042
 42
0.090248
  0
VERTEX
  8
0
 10
0.922009
 20
10.100155
 42
0.043011
  0
VERTEX
  8
0
 10
0.882572
 20
10.014636
 42
0.040762
  0
VERTEX
  8
0
 10
0.855700
 20
9.915477
 42
0.045822
  0
VERTEX
  8
0
 10
0.846667
 20
9.817111
 42
0.123717
  0
VERTEX
  8
0
 10
0.895875
 20
9.621280
 42
0.080545
  0
VERTEX
  8
0
 10
1.038293
 20
9.435141
 42
0.063926
  0
VERTEX
  8
0
 10
1.267784
 20
9.268074
 42
0.038672
  0
VERTEX
  8
0
 10
1.574571
 20
9.129493
 42
-0.016599
  0
VERTEX
  8
0
 10
1.684955
 20
9.085382
 42
-0.024699
  0
VERTEX
  8
0
 10
1.778039
 20
9.038944
 42
-0.022021
  0
VERTEX
  8
0
 10
1.847914
 20
8.995507
 42
-0.247523
  0
VERTEX
  8
0
 10
1.862667
 20
8.967533
 42
0.189867
  0
VERTEX
  8
0
 10
1.872706
 20
8.942048
 42
0.050432
  0
VERTEX
  8
0
 10
1.906191
 20
8.912710
 42
0.043729
  0
VERTEX
  8
0
 10
1.954111
 20
8.884549
 42
0.033116
  0
VERTEX
  8
0
 10
2.010833
 20
8.862045
 42
-0.048230
  0
VERTEX
  8
0
 10
2.167247
 20
8.794459
 42
-0.006406
  0
VERTEX
  8
0
 10
2.480698
 20
8.616207
 42
-0.007637
  0
VERTEX
  8
0
 10
2.835673
 20
8.400931
 42
-0.007652
  0
VERTEX
  8
0
 10
3.183681
 20
8.175046
 42
-0.019657
  0
VERTEX
  8
0
 10
3.493037
 20
7.949329
 42
-0.007181
  0
VERTEX
  8
0
 10
3.913151
 20
7.606804
 42
-0.006832
  0
VERTEX
  8
0
 10
4.316555
 20
7.258638
 42
-0.026690
  0
VERTEX
  8
0
 10
4.550808
 20
7.027333
 42
-0.029853
  0
VERTEX
  8
0
 10
4.840776
 20
6.667783
 42
-0.011219
  0
VERTEX
  8
0
 10
5.204392
 20
6.132332
 42
-0.008353
  0
VERTEX
  8
0
 10
5.539393
 20
5.594904
 42
-0.082199
  0
VERTEX
  8
0
 10
5.637188
 20
5.347673
 42
0.010113
  0
VERTEX
  8
0
 10
5.660582
 20
5.249034
 42
0.007067
  0
VERTEX
  8
0
 10
5.690765
 20
5.138785
 42
0.007132
  0
VERTEX
  8
0
 10
5.722711
 20
5.033889
 42
0.014696
  0
VERTEX
  8
0
 10
5.751259
 20
4.953000
 42
-0.026929
  0
VERTEX
  8
0
 10
5.896100
 20
4.508227
 42
-0.032576
  0
VERTEX
  8
0
 10
5.981506
 20
4.077735
 42
-0.020670
  0
VERTEX
  8
0
 10
6.032694
 20
3.506609
 42
-0.004505
  0
VERTEX
  8
0
 10
6.071280
 20
2.518833
 42
0.000000
  0
VERTEX
  8
0
 10
6.121518
 20
0.846667
 42
0.000000
  0
VERTEX
  8
0
 10
6.402976
 20
0.846667
 42
0.045539
  0
VERTEX
  8
0
 10
6.564426
 20
0.861402
 42
0.128530
  0
VERTEX
  8
0
 10
6.666206
 20
0.909030
 42
0.094607
  0
VERTEX
  8
0
 10
6.749325
 20
1.009987
 42
0.018173
  0
VERTEX
  8
0
 10
6.855884
 20
1.223022
 42
0.008341
  0
VERTEX
  8
0
 10
6.921538
 20
1.373757
 42
0.010530
  0
VERTEX
  8
0
 10
6.976970
 20
1.515395
 42
0.008783
  0
VERTEX
  8
0
 10
7.018610
 20
1.635233
 42
0.079378
  0
VERTEX
  8
0
 10
7.027333
 20
1.689837
 42
-0.060523
  0
VERTEX
  8
0
 10
7.032922
 20
1.735840
 42
-0.018641
  0
VERTEX
  8
0
 10
7.052204
 20
1.803129
 42
-0.018349
  0
VERTEX
  8
0
 10
7.079592
 20
1.877454
 42
-0.019161
  0
VERTEX
  8
0
 10
7.112000
 20
1.948482
 42
0.000000
  0
VERTEX
  8
0
 10
7.150543
 20
2.025045
 42
-0.064516
  0
VERTEX
  8
0
 10
7.196667
 20
2.116667
 42
0.064516
  0
VERTEX
  8
0
 10
7.242791
 20
2.208289
 42
-0.000000
  0
VERTEX
  8
0
 10
7.281333
 20
2.284851
 42
0.019886
  0
VERTEX
  8
0
 10
7.313742
 20
2.356153
 42
0.018676
  0
VERTEX
  8
0
 10
7.341129
 20
2.431299
 42
0.019023
  0
VERTEX
  8
0
 10
7.360366
 20
2.499713
 42
0.059085
  0
VERTEX
  8
0
 10
7.366000
 20
2.547222
 42
-0.070322
  0
VERTEX
  8
0
 10
7.373649
 20
2.601341
 42
-0.010995
  0
VERTEX
  8
0
 10
7.405894
 20
2.704548
 42
-0.012045
  0
VERTEX
  8
0
 10
7.449812
 20
2.825279
 42
-0.010240
  0
VERTEX
  8
0
 10
7.501808
 20
2.950538
 42
-0.000918
  0
VERTEX
  8
0
 10
7.759255
 20
3.533633
 42
-0.003748
  0
VERTEX
  8
0
 10
7.918961
 20
3.886409
 42
-0.005618
  0
VERTEX
  8
0
 10
8.048906
 20
4.159703
 42
-0.004790
  0
VERTEX
  8
0
 10
8.191914
 20
4.445000
 42
0.001624
  0
VERTEX
  8
0
 10
8.284708
 20
4.627230
 42
0.001286
  0
VERTEX
  8
0
 10
8.383873
 20
4.824809
 42
0.001300
  0
VERTEX
  8
0
 10
8.474931
 20
5.008599
 42
0.003244
  0
VERTEX
  8
0
 10
8.540247
 20
5.143500
 42
-0.018538
  0
VERTEX
  8
0
 10
8.595322
 20
5.248904
 42
-0.026334
  0
VERTEX
  8
0
 10
8.652478
 20
5.337837
 42
-0.024814
  0
VERTEX
  8
0
 10
8.704978
 20
5.403629
 42
-0.215151
  0
VERTEX
  8
0
 10
8.738307
 20
5.418667
 42
0.134302
  0
VERTEX
  8
0
 10
8.763867
 20
5.425658
 42
0.100446
  0
VERTEX
  8
0
 10
8.785644
 20
5.445314
 42
0.087196
  0
VERTEX
  8
0
 10
8.800299
 20
5.474716
 42
0.072235
  0
VERTEX
  8
0
 10
8.805333
 20
5.509381
 42
-0.085262
  0
VERTEX
  8
0
 10
8.812691
 20
5.552213
 42
-0.033982
  0
VERTEX
  8
0
 10
8.836422
 20
5.607089
 42
-0.032398
  0
VERTEX
  8
0
 10
8.870665
 20
5.664102
 42
-0.035099
  0
VERTEX
  8
0
 10
8.911167
 20
5.714618
 42
0.010288
  0
VERTEX
  8
0
 10
8.971465
 20
5.782622
 42
0.001698
  0
VERTEX
  8
0
 10
9.084620
 20
5.916572
 42
0.001866
  0
VERTEX
  8
0
 10
9.216617
 20
6.075107
 42
0.001648
  0
VERTEX
  8
0
 10
9.353028
 20
6.241303
 42
-0.042664
  0
VERTEX
  8
0
 10
9.897967
 20
6.804117
 42
-0.036707
  0
VERTEX
  8
0
 10
10.557418
 20
7.298059
 42
-0.035613
  0
VERTEX
  8
0
 10
11.303645
 20
7.704076
 42
-0.034562
  0
VERTEX
  8
0
 10
12.107333
 20
8.004756
 42
0.014695
  0
VERTEX
  8
0
 10
12.674448
 20
8.191619
 42
0.064265
  0
VERTEX
  8
0
 10
12.987628
 20
8.353090
 42
0.118345
  0
VERTEX
  8
0
 10
13.149573
 20
8.533757
 42
0.124440
  0
VERTEX
  8
0
 10
13.208000
 20
8.764879
 42
0.049094
  0
VERTEX
  8
0
 10
13.197819
 20
8.868316
 42
0.091268
  0
VERTEX
  8
0
 10
13.166795
 20
8.946388
 42
0.105510
  0
VERTEX
  8
0
 10
13.113795
 20
9.000989
 42
0.083759
  0
VERTEX
  8
0
 10
13.038667
 20
9.034801
 42
-0.038887
  0
VERTEX
  8
0
 10
12.973856
 20
9.057255
 42
-0.050447
  0
VERTEX
  8
0
 10
12.919075
 20
9.088045
 42
-0.059916
  0
VERTEX
  8
0
 10
12.881293
 20
9.122031
 42
-0.181596
  0
VERTEX
  8
0
 10
12.869333
 20
9.153875
 42
0.209081
  0
VERTEX
  8
0
 10
12.856829
 20
9.182471
 42
0.081847
  0
VERTEX
  8
0
 10
12.820095
 20
9.206697
 42
0.062346
  0
VERTEX
  8
0
 10
12.765884
 20
9.223179
 42
0.042683
  0
VERTEX
  8
0
 10
12.701713
 20
9.228667
 42
-0.069161
  0
VERTEX
  8
0
 10
12.519619
 20
9.253975
 42
-0.014481
  0
VERTEX
  8
0
 10
12.211780
 20
9.350946
 42
-0.010532
  0
VERTEX
  8
0
 10
11.767619
 20
9.515693
 42
-0.003074
  0
VERTEX
  8
0
 10
11.091333
 20
9.787694
 42
-0.005724
  0
VERTEX
  8
0
 10
10.942307
 20
9.850701
 42
-0.007851
  0
VERTEX
  8
0
 10
10.809817
 20
9.911006
 42
-0.005364
  0
VERTEX
  8
0
 10
10.700583
 20
9.964255
 42
-0.087587
  0
VERTEX
  8
0
 10
10.668000
 20
9.988465
 42
0.063403
  0
VERTEX
  8
0
 10
10.638734
 20
10.012478
 42
0.007078
  0
VERTEX
  8
0
 10
10.564897
 20
10.057375
 42
0.008515
  0
VERTEX
  8
0
 10
10.474985
 20
10.108277
 42
0.006808
  0
VERTEX
  8
0
 10
10.376459
 20
10.160135
 42
-0.061650
  0
VERTEX
  8
0
 10
10.076810
 20
10.362517
 42
-0.015385
  0
VERTEX
  8
0
 10
9.642804
 20
10.765165
 42
-0.016459
  0
VERTEX
  8
0
 10
9.216890
 20
11.214020
 42
-0.033153
  0
VERTEX
  8
0
 10
8.917858
 20
11.599333
 42
-0.026308
  0
VERTEX
  8
0
 10
8.634395
 20
12.071049
 42
-0.015008
  0
VERTEX
  8
0
 10
8.340009
 20
12.667511
 42
-0.014176
  0
VERTEX
  8
0
 10
8.095123
 20
13.246536
 42
-0.053350
  0
VERTEX
  8
0
 10
7.991969
 20
13.626397
 42
0.017228
  0
VERTEX
  8
0
 10
7.965321
 20
13.762737
 42
0.022515
  0
VERTEX
  8
0
 10
7.931137
 20
13.885069
 42
0.020937
  0
VERTEX
  8
0
 10
7.894650
 20
13.982186
 42
0.155222
  0
VERTEX
  8
0
 10
7.862879
 20
14.019207
 42
-0.169709
  0
VERTEX
  8
0
 10
7.834365
 20
14.054394
 42
-0.031675
  0
VERTEX
  8
0
 10
7.810937
 20
14.135421
 42
-0.030712
  0
VERTEX
  8
0
 10
7.794722
 20
14.238035
 42
-0.023836
  0
VERTEX
  8
0
 10
7.789333
 20
14.351000
 42
0.027380
  0
VERTEX
  8
0
 10
7.783116
 20
14.464457
 42
0.033884
  0
VERTEX
  8
0
 10
7.764462
 20
14.568598
 42
0.036095
  0
VERTEX
  8
0
 10
7.737395
 20
14.651066
 42
0.158284
  0
VERTEX
  8
0
 10
7.704667
 20
14.689667
 42
-0.144148
  0
VERTEX
  8
0
 10
7.672036
 20
14.726063
 42
-0.041160
  0
VERTEX
  8
0
 10
7.644871
 20
14.797733
 42
-0.037763
  0
VERTEX
  8
0
 10
7.626236
 20
14.887568
 42
-0.032273
  0
VERTEX
  8
0
 10
7.620000
 20
14.984072
 42
0.018383
  0
VERTEX
  8
0
 10
7.616230
 20
15.086575
 42
0.015580
  0
VERTEX
  8
0
 10
7.604904
 20
15.194380
 42
0.015861
  0
VERTEX
  8
0
 10
7.588390
 20
15.292011
 42
0.041807
  0
VERTEX
  8
0
 10
7.568608
 20
15.360075
 42
0.216697
  0
VERTEX
  8
0
 10
7.474023
 20
15.453196
 42
0.076137
  0
VERTEX
  8
0
 10
7.282745
 20
15.491735
 42
0.074641
  0
VERTEX
  8
0
 10
7.084603
 20
15.471420
 42
0.189259
  0
SEQEND
  0
ENDSEC
  0
EOF
